<svg xmlns="http://www.w3.org/2000/svg" width="12.455" height="12.455" viewBox="0 0 12.455 12.455">
  <g id="Group_29844" data-name="Group 29844" transform="translate(22603.125 82.125)">
    <path id="Path_18" data-name="Path 18" d="M6.674,12.205H5.533a.762.762,0,0,1-.756-.671l-.122-.954a4.808,4.808,0,0,1-.7-.289l-.762.59a.758.758,0,0,1-1.01-.064l-.8-.8A.757.757,0,0,1,1.325,9.01l.59-.76a4.694,4.694,0,0,1-.29-.7L.67,7.43A.764.764,0,0,1,0,6.674V5.533a.762.762,0,0,1,.671-.756l.954-.122a4.808,4.808,0,0,1,.289-.7L1.325,3.2a.758.758,0,0,1,.064-1.01l.8-.8A.757.757,0,0,1,3.2,1.324l.762.591a4.788,4.788,0,0,1,.7-.29L4.78.67A.762.762,0,0,1,5.533,0H6.674A.762.762,0,0,1,7.43.671l.122.954a4.788,4.788,0,0,1,.7.29l.76-.59a.758.758,0,0,1,1.01.064l.8.8A.757.757,0,0,1,10.883,3.2l-.592.763a4.694,4.694,0,0,1,.29.7l.956.122a.762.762,0,0,1,.669.756V6.674a.762.762,0,0,1-.671.756l-.954.122a4.807,4.807,0,0,1-.29.7l.59.76a.757.757,0,0,1-.064,1.01l-.8.8a.756.756,0,0,1-1.006.062l-.76-.59a4.694,4.694,0,0,1-.7.29l-.122.956A.762.762,0,0,1,6.674,12.205ZM3.931,9.734a.258.258,0,0,1,.124.032,4.269,4.269,0,0,0,.9.374.254.254,0,0,1,.182.212l.143,1.119a.257.257,0,0,0,.251.226H6.674a.256.256,0,0,0,.251-.223l.143-1.121a.254.254,0,0,1,.182-.212,4.268,4.268,0,0,0,.9-.374.254.254,0,0,1,.28.021l.89.692a.25.25,0,0,0,.333-.018l.806-.806a.252.252,0,0,0,.02-.335l-.7-.891a.254.254,0,0,1-.021-.28,4.268,4.268,0,0,0,.374-.9.254.254,0,0,1,.212-.182l1.119-.143a.258.258,0,0,0,.226-.252V5.533a.256.256,0,0,0-.223-.251L10.35,5.14a.254.254,0,0,1-.212-.182,4.269,4.269,0,0,0-.374-.9.253.253,0,0,1,.021-.28l.694-.888a.249.249,0,0,0-.017-.333l-.806-.8a.251.251,0,0,0-.335-.02l-.89.691a.255.255,0,0,1-.283.021,4.251,4.251,0,0,0-.9-.374.254.254,0,0,1-.182-.212L6.924.735a.258.258,0,0,0-.25-.226H5.533a.256.256,0,0,0-.251.223L5.14,1.853a.255.255,0,0,1-.182.213,4.249,4.249,0,0,0-.9.374.255.255,0,0,1-.283-.021l-.885-.692a.249.249,0,0,0-.333.017l-.805.806a.252.252,0,0,0-.02.335l.691.89a.254.254,0,0,1,.021.28,4.242,4.242,0,0,0-.374.9.254.254,0,0,1-.212.182L.735,5.282a.257.257,0,0,0-.226.251V6.674a.256.256,0,0,0,.223.251l1.121.143a.254.254,0,0,1,.212.182,4.269,4.269,0,0,0,.374.9.253.253,0,0,1-.021.28l-.692.885a.249.249,0,0,0,.017.333l.806.806a.251.251,0,0,0,.335.02l.89-.693a.262.262,0,0,1,.157-.053Z" transform="translate(-22603 -82)" fill="#555" stroke="#555" stroke-width="0.25"/>
    <g id="Group_28396" data-name="Group 28396" transform="translate(-22599.68 -78.052)">
      <path id="Path_2010" data-name="Path 2010" d="M5.511,66.246a4.818,4.818,0,0,0-.7-1.025,3.532,3.532,0,0,0-.854-.711,2.355,2.355,0,0,0-1.188-.332,2.355,2.355,0,0,0-1.188.332,3.532,3.532,0,0,0-.854.711,4.817,4.817,0,0,0-.7,1.025.244.244,0,0,0,0,.21,4.817,4.817,0,0,0,.7,1.025,3.532,3.532,0,0,0,.854.711,2.355,2.355,0,0,0,1.188.332,2.355,2.355,0,0,0,1.188-.332,3.532,3.532,0,0,0,.854-.711,4.818,4.818,0,0,0,.7-1.025A.244.244,0,0,0,5.511,66.246ZM2.767,68.055a2.31,2.31,0,0,1-1.708-.886,4.549,4.549,0,0,1-.581-.818c.213-.386,1.033-1.7,2.289-1.7a2.31,2.31,0,0,1,1.708.886,4.549,4.549,0,0,1,.581.818C4.843,66.736,4.023,68.055,2.767,68.055Z" transform="translate(0 -64.178)" fill="#555"/>
      <path id="Path_2011" data-name="Path 2011" d="M172.1,171.142a.961.961,0,1,0,.961.961A.962.962,0,0,0,172.1,171.142Zm0,1.454a.493.493,0,1,1,.493-.493A.493.493,0,0,1,172.1,172.6Z" transform="translate(-169.249 -169.931)" fill="#555"/>
    </g>
  </g>
</svg>
