<svg id="Group_5543" data-name="Group 5543" xmlns="http://www.w3.org/2000/svg" width="13.76" height="16" viewBox="0 0 13.76 16">
  <path id="Path_1828" data-name="Path 1828" d="M23.289,11.823a.747.747,0,0,0-1.057-1.057l-5.6,5.6a2.334,2.334,0,0,0,0,3.3,2.386,2.386,0,0,0,3.3,0l5.6-5.6a3.92,3.92,0,0,0-5.537-5.537l-5.6,5.6A5.5,5.5,0,1,0,22.169,21.9L26.276,17.8a.747.747,0,0,0-1.057-1.057l-4.107,4.107a4.005,4.005,0,0,1-5.664-5.664l5.6-5.6a2.427,2.427,0,0,1,3.424,3.424l-5.6,5.6a.837.837,0,0,1-1.184-1.184Z" transform="translate(-12.78 -7.516)" fill="#262626"/>
</svg>
