<svg xmlns="http://www.w3.org/2000/svg" width="9.698" height="11.127" viewBox="0 0 9.698 11.127">
  <path id="Path_225" data-name="Path 225" d="M35.007,29.864v6.2a.239.239,0,1,1-.477,0v-6.2A.239.239,0,1,1,35.007,29.864Zm1.909,6.2v-6.2a.239.239,0,1,0-.477,0v6.2A.239.239,0,1,0,36.916,36.068Zm-4.3-6.2v6.2a.239.239,0,1,0,.477,0v-6.2A.239.239,0,1,0,32.621,29.864ZM39.3,28.432h-.477v8.352a1.182,1.182,0,0,1-1.193,1.193H31.9a1.182,1.182,0,0,1-1.193-1.193V28.432h-.477a.239.239,0,1,1,0-.477h2.625v-.477A.479.479,0,0,1,33.337,27H36.2a.479.479,0,0,1,.477.477v.477H39.3A.239.239,0,1,1,39.3,28.432Zm-5.966-.477H36.2v-.477H33.337Zm5.011.477H31.189v8.352a.7.7,0,0,0,.716.716h5.727a.7.7,0,0,0,.716-.716Z" transform="translate(-29.919 -26.925)" fill="#555" stroke="#63686c" stroke-width="0.15"/>
</svg>
