<svg id="noun_Download_3344617" xmlns="http://www.w3.org/2000/svg" width="18" height="18" viewBox="0 0 18 18">
  <g id="Group_20378" data-name="Group 20378">
    <path id="Path_10701" data-name="Path 10701" d="M2.064,61.875v3.954H15.937V61.875a1.031,1.031,0,0,1,2.063,0v4.088a1.93,1.93,0,0,1-1.928,1.929H1.929A1.931,1.931,0,0,1,0,65.964V61.875a1.032,1.032,0,0,1,2.064,0Z" transform="translate(0 -49.892)" fill="#f60"/>
    <path id="Path_10702" data-name="Path 10702" d="M26.754,12.192,30.985,7.96A1.032,1.032,0,1,0,29.527,6.5L27.09,8.938V1.031a1.031,1.031,0,0,0-2.063,0V9.007L22.523,6.5a1.032,1.032,0,0,0-1.459,1.459L25.3,12.192a1.03,1.03,0,0,0,1.458,0Z" transform="translate(-17.024)" fill="#f60"/>
  </g>
</svg>
