<svg xmlns="http://www.w3.org/2000/svg" xmlns:xlink="http://www.w3.org/1999/xlink" width="318.285" height="234.516" viewBox="0 0 318.285 234.516">
  <defs>
    <filter id="Rectangle_9099" x="13.61" y="72.258" width="266.771" height="162.258" filterUnits="userSpaceOnUse">
      <feOffset input="SourceAlpha"/>
      <feGaussianBlur stdDeviation="10" result="blur"/>
      <feFlood flood-color="#f60" flood-opacity="0.161"/>
      <feComposite operator="in" in2="blur"/>
      <feComposite in="SourceGraphic"/>
    </filter>
  </defs>
  <g id="Group_29809" data-name="Group 29809" transform="translate(-747 -511)">
    <rect id="Rectangle_9103" data-name="Rectangle 9103" width="206.771" height="102.258" rx="19" transform="translate(828.205 562.129)" fill="#f60"/>
    <rect id="Rectangle_9106" data-name="Rectangle 9106" width="69.174" height="7.519" rx="3.759" transform="translate(846.25 599.724)" fill="rgba(255,255,255,0.44)"/>
    <g transform="matrix(1, 0, 0, 1, 747, 511)" filter="url(#Rectangle_9099)">
      <rect id="Rectangle_9099-2" data-name="Rectangle 9099" width="206.771" height="102.258" rx="19" transform="translate(43.61 102.26)" fill="#fff"/>
    </g>
    <rect id="Rectangle_9101" data-name="Rectangle 9101" width="69.174" height="7.519" rx="3.759" transform="translate(808.655 650.853)" fill="#ffa970"/>
    <rect id="Rectangle_9102" data-name="Rectangle 9102" width="170.68" height="7.519" rx="3.759" transform="translate(808.655 670.402)" fill="#ffa970" opacity="0.2"/>
    <circle id="Ellipse_2358" data-name="Ellipse 2358" cx="6.015" cy="6.015" r="6.015" transform="translate(747 599.724)" fill="#ffa970"/>
    <g id="Ellipse_2359" data-name="Ellipse 2359" transform="translate(778.58 529.045)" fill="none" stroke="#ffa970" stroke-width="1">
      <circle cx="6.015" cy="6.015" r="6.015" stroke="none"/>
      <circle cx="6.015" cy="6.015" r="5.515" fill="none"/>
    </g>
    <g id="Ellipse_2360" data-name="Ellipse 2360" transform="translate(969.561 511)" fill="none" stroke="#ffa970" stroke-width="1">
      <circle cx="6.015" cy="6.015" r="6.015" stroke="none"/>
      <circle cx="6.015" cy="6.015" r="5.515" fill="none"/>
    </g>
    <circle id="Ellipse_2361" data-name="Ellipse 2361" cx="6.015" cy="6.015" r="6.015" transform="translate(1032.72 675.665)" fill="#ffa970"/>
    <g id="Group_29806" data-name="Group 29806" transform="translate(754.393 672.373)">
      <path id="Path_15395" data-name="Path 15395" d="M-1467.094-17234.379v10.639" transform="translate(1472.413 17234.379)" fill="none" stroke="#f60" stroke-linecap="round" stroke-width="2"/>
      <path id="Path_15396" data-name="Path 15396" d="M0,0V10.639" transform="translate(10.638 5.319) rotate(90)" fill="none" stroke="#f60" stroke-linecap="round" stroke-width="2"/>
    </g>
    <g id="Group_29807" data-name="Group 29807" transform="translate(873.944 517.015)">
      <path id="Path_15395-2" data-name="Path 15395" d="M-1467.094-17234.379v10.639" transform="translate(1472.413 17234.379)" fill="none" stroke="#f60" stroke-linecap="round" stroke-width="2"/>
      <path id="Path_15396-2" data-name="Path 15396" d="M0,0V10.639" transform="translate(10.638 5.319) rotate(90)" fill="none" stroke="#f60" stroke-linecap="round" stroke-width="2"/>
    </g>
    <g id="Group_29808" data-name="Group 29808" transform="translate(1053.647 574.159)">
      <path id="Path_15395-3" data-name="Path 15395" d="M-1467.094-17234.379v10.639" transform="translate(1472.413 17234.379)" fill="none" stroke="#f60" stroke-linecap="round" stroke-width="2"/>
      <path id="Path_15396-3" data-name="Path 15396" d="M0,0V10.639" transform="translate(10.638 5.319) rotate(90)" fill="none" stroke="#f60" stroke-linecap="round" stroke-width="2"/>
    </g>
  </g>
</svg>
