<svg xmlns="http://www.w3.org/2000/svg" width="341.559" height="303.483" viewBox="0 0 341.559 303.483">
  <g id="Group_30908" data-name="Group 30908" transform="translate(3368.779 4328.483)">
    <g id="Group_30007" data-name="Group 30007" transform="translate(-3368.779 -4328.483)">
      <ellipse id="Ellipse_2501" data-name="Ellipse 2501" cx="6.938" cy="6.938" rx="6.938" ry="6.938" transform="translate(0 156.773)" fill="#ffa970"/>
      <ellipse id="Ellipse_2506" data-name="Ellipse 2506" cx="5.016" cy="5.016" rx="5.016" ry="5.016" transform="translate(101.443 9.643) rotate(-74)" fill="#ffa970"/>
      <g id="Ellipse_2502" data-name="Ellipse 2502" transform="translate(13.876 268.793)" fill="none" stroke="#ffa970" stroke-width="1">
        <ellipse cx="6.938" cy="6.938" rx="6.938" ry="6.938" stroke="none"/>
        <ellipse cx="6.938" cy="6.938" rx="6.438" ry="6.438" fill="none"/>
      </g>
      <g id="Ellipse_2505" data-name="Ellipse 2505" transform="translate(215.056 22.051) rotate(-74)" fill="none" stroke="#ffa970" stroke-width="1">
        <ellipse cx="5.016" cy="5.016" rx="5.016" ry="5.016" stroke="none"/>
        <ellipse cx="5.016" cy="5.016" rx="4.516" ry="4.516" fill="none"/>
      </g>
      <g id="Ellipse_2503" data-name="Ellipse 2503" transform="translate(234.158 289.607)" fill="none" stroke="#ffa970" stroke-width="1">
        <ellipse cx="6.938" cy="6.938" rx="6.938" ry="6.938" stroke="none"/>
        <ellipse cx="6.938" cy="6.938" rx="6.438" ry="6.438" fill="none"/>
      </g>
      <ellipse id="Ellipse_2504" data-name="Ellipse 2504" cx="6.938" cy="6.938" rx="6.938" ry="6.938" transform="translate(327.683 122.136)" fill="#ffa970"/>
      <g id="Group_30003" data-name="Group 30003" transform="translate(24.723 77.021)">
        <path id="Path_15395" data-name="Path 15395" d="M-1467.094-17222.109v-12.271" transform="translate(1473.229 17234.381)" fill="none" stroke="#f60" stroke-linecap="round" stroke-width="2"/>
        <path id="Path_15396" data-name="Path 15396" d="M0,12.271V0" transform="translate(0 6.136) rotate(-90)" fill="none" stroke="#f60" stroke-linecap="round" stroke-width="2"/>
      </g>
      <g id="Group_30006" data-name="Group 30006" transform="translate(302.308 49.736)">
        <path id="Path_15395-2" data-name="Path 15395" d="M-1467.094-17225.152v-9.227" transform="translate(1471.708 17234.379)" fill="none" stroke="#f60" stroke-linecap="round" stroke-width="2"/>
        <path id="Path_15396-2" data-name="Path 15396" d="M0,9.227V0" transform="translate(0 4.614) rotate(-90)" fill="none" stroke="#f60" stroke-linecap="round" stroke-width="2"/>
      </g>
      <g id="Group_30004" data-name="Group 30004" transform="translate(123.871 284.274)">
        <path id="Path_15395-3" data-name="Path 15395" d="M-1467.094-17222.109v-12.271" transform="translate(1473.229 17234.381)" fill="none" stroke="#f60" stroke-linecap="round" stroke-width="2"/>
        <path id="Path_15396-3" data-name="Path 15396" d="M0,12.271V0" transform="translate(0 6.136) rotate(-90)" fill="none" stroke="#f60" stroke-linecap="round" stroke-width="2"/>
      </g>
      <g id="Group_30005" data-name="Group 30005" transform="translate(311.535 221.365)">
        <path id="Path_15395-4" data-name="Path 15395" d="M-1467.094-17222.109v-12.271" transform="translate(1473.229 17234.381)" fill="none" stroke="#f60" stroke-linecap="round" stroke-width="2"/>
        <path id="Path_15396-4" data-name="Path 15396" d="M0,12.271V0" transform="translate(0 6.136) rotate(-90)" fill="none" stroke="#f60" stroke-linecap="round" stroke-width="2"/>
      </g>
    </g>
    <g id="noun_q_and_a_4074617" data-name="noun_q and a_4074617" transform="translate(-3301.657 -4277.677)">
      <path id="Path_19246" data-name="Path 19246" d="M97.249,12H22.385A18.387,18.387,0,0,0,4,30.382V84.318A18.387,18.387,0,0,0,22.382,102.7h23.48v24.42A3.493,3.493,0,0,0,48.2,130.4a3.349,3.349,0,0,0,1.151.209,3.386,3.386,0,0,0,2.721-1.326L73.352,102.7h23.9A18.387,18.387,0,0,0,115.634,84.32V30.385A18.387,18.387,0,0,0,97.251,12ZM59.817,85.259a3.489,3.489,0,1,1,3.489-3.489,3.489,3.489,0,0,1-3.489,3.489ZM66.515,63a5.169,5.169,0,0,0-3.209,4.814,3.489,3.489,0,0,1-6.977,0,12.215,12.215,0,0,1,7.5-11.268,10.471,10.471,0,1,0-14.477-9.663,3.489,3.489,0,1,1-6.977,0A17.457,17.457,0,1,1,66.515,63Z" transform="translate(0 19.908)" fill="#ff6500"/>
      <path id="Path_19247" data-name="Path 19247" d="M101.259,140.611a3.493,3.493,0,0,1-2.724-1.308L77.258,112.7H46.378A18.4,18.4,0,0,1,28,94.326V88.282a3.489,3.489,0,0,1,6.977,0v6.044a11.412,11.412,0,0,0,11.4,11.4H78.933a3.485,3.485,0,0,1,2.724,1.308l16.114,20.144V109.214a3.489,3.489,0,0,1,3.489-3.489h20a11.412,11.412,0,0,0,11.4-11.4V40.376A11.413,11.413,0,0,0,121.974,29c-.222-.014-.469-.021-.717-.021l-16.5.027-38.379-.027a3.489,3.489,0,1,1,0-6.977h0l38.374.027,16.5-.027c.384,0,.759.014,1.131.035a18.4,18.4,0,0,1,17.25,18.341v53.95A18.4,18.4,0,0,1,121.257,112.7H104.748v24.42a3.491,3.491,0,0,1-3.489,3.489Z" transform="translate(59.725 44.794)" fill="#ffa66c"/>
      <path id="Path_19248" data-name="Path 19248" d="M97.305,34.977H41.489a3.489,3.489,0,1,1,0-6.977H97.305a3.489,3.489,0,0,1,0,6.977Z" transform="translate(84.611 59.725)" fill="#ffa66c"/>
      <path id="Path_19249" data-name="Path 19249" d="M97.305,38.977H41.489a3.489,3.489,0,1,1,0-6.977H97.305a3.489,3.489,0,1,1,0,6.977Z" transform="translate(84.611 69.679)" fill="#ffa66c"/>
      <path id="Path_19250" data-name="Path 19250" d="M97.305,42.977H41.489a3.489,3.489,0,1,1,0-6.977H97.305a3.489,3.489,0,0,1,0,6.977Z" transform="translate(84.611 79.634)" fill="#ffa66c"/>
      <path id="Path_19251" data-name="Path 19251" d="M58.931,46.977H41.489a3.489,3.489,0,1,1,0-6.977H58.931a3.489,3.489,0,1,1,0,6.977Z" transform="translate(84.611 89.588)" fill="#ffa66c"/>
      <path id="Path_19252" data-name="Path 19252" d="M66.414,17.239,57.693,8.518a3.516,3.516,0,0,0-4.954,0l-8.721,8.721a3.516,3.516,0,0,0,0,4.954l8.721,8.721a3.538,3.538,0,0,0,4.954,0l8.721-8.721a3.516,3.516,0,0,0,0-4.954Zm-11.2,6.279-3.8-3.8,3.8-3.8,3.8,3.8Z" transform="translate(97.047 8.704)" fill="#ff6500"/>
      <ellipse id="Ellipse_2513" data-name="Ellipse 2513" cx="3.719" cy="3.099" rx="3.719" ry="3.099" transform="translate(171.34 46.145)" fill="#ffa66c"/>
      <ellipse id="Ellipse_2514" data-name="Ellipse 2514" cx="3.099" cy="3.719" rx="3.099" ry="3.719" transform="translate(122.998 4)" fill="#ff6500"/>
      <path id="Path_19253" data-name="Path 19253" d="M21.466,53A10.466,10.466,0,1,0,31.931,63.466,10.466,10.466,0,0,0,21.466,53Zm0,13.954a3.489,3.489,0,1,1,3.489-3.489A3.489,3.489,0,0,1,21.466,66.954Z" transform="translate(17.42 121.939)" fill="#ffa66c"/>
      <circle id="Ellipse_2515" data-name="Ellipse 2515" cx="3.719" cy="3.719" r="3.719" transform="translate(80.853 163.903)" fill="#ff6500"/>
      <ellipse id="Ellipse_2516" data-name="Ellipse 2516" cx="3.099" cy="3.719" rx="3.099" ry="3.719" transform="translate(11.437 150.268)" fill="#ffa66c"/>
    </g>
  </g>
</svg>
