<svg id="undraw_personal_opinions_re_qw29" xmlns="http://www.w3.org/2000/svg" width="307.6" height="228.054" viewBox="0 0 307.6 228.054">
  <path id="Path_19943" data-name="Path 19943" d="M147.19,81.583H38.838L18.7,104.019V81.583H0V0H147.19Z" fill="#d6d6d6"/>
  <rect id="Rectangle_10463" data-name="Rectangle 10463" width="98.92" height="4.419" transform="translate(24.135 23.965)" fill="#fff"/>
  <rect id="Rectangle_10464" data-name="Rectangle 10464" width="98.92" height="4.419" transform="translate(24.135 38.582)" fill="#fff"/>
  <rect id="Rectangle_10465" data-name="Rectangle 10465" width="98.92" height="4.419" transform="translate(24.135 53.199)" fill="#fff"/>
  <circle id="Ellipse_2760" data-name="Ellipse 2760" cx="3.72" cy="3.72" r="3.72" transform="translate(15.274 110.311)" fill="#d6d6d6"/>
  <path id="Path_19944" data-name="Path 19944" d="M619.867,517.444H615.7l-1.983-16.077h6.152Z" transform="translate(-360.049 -294.137)" fill="#ffd3cc"/>
  <path id="Path_19945" data-name="Path 19945" d="M839.993,716.5h-13.44v-.17a5.231,5.231,0,0,1,5.231-5.231h8.209Z" transform="translate(-579.112 -489.15)" fill="#2f2e41"/>
  <path id="Path_19946" data-name="Path 19946" d="M524.7,515.053l-3.952-1.325,3.23-15.874,5.832,1.955Z" transform="translate(-305.51 -292.077)" fill="#ffd3cc"/>
  <path id="Path_19947" data-name="Path 19947" d="M739.458,712.316l-12.742-4.272.054-.161a5.231,5.231,0,0,1,6.622-3.3h0l7.783,2.609Z" transform="translate(-520.541 -485.171)" fill="#2f2e41"/>
  <path id="Path_19948" data-name="Path 19948" d="M757.833,491.173l-9.026,76.354,8.853.747s13.925-75.07,18.218-66.177,9.553,64.511,9.553,64.511h8.786s2.253-86.78-6.946-91.073Z" transform="translate(-533.501 -350.953)" fill="#2f2e41"/>
  <circle id="Ellipse_2761" data-name="Ellipse 2761" cx="8.893" cy="8.893" r="8.893" transform="translate(228.669 82.987) rotate(-80.009)" fill="#ffd3cc"/>
  <path id="Path_19949" data-name="Path 19949" d="M776.94,386.879l11.346.92s9.046.153,12.726,2.606-3.526,17.632-3.526,17.632-1.873,6.018-.46,8.739c4.586,8.83,3.906,15.629,3.906,15.629s-9.426,2.156-25.678,6.449c0,0-10.119,3.986-9.813,1.84s3.373-26.678,3.373-26.678V388.566Z" transform="translate(-543.255 -298.942)" fill="#3f3d56"/>
  <path id="Path_19950" data-name="Path 19950" d="M803.655,331.067a19.5,19.5,0,0,0-3.736-8.848c.071,0,.142,0,.214,0a2.148,2.148,0,0,0,1.986-.978,1.7,1.7,0,0,0-.311-1.692,5,5,0,0,0-1.417-1.107c.546.332,1.319.64,1.755.173a.947.947,0,0,0,.107-1.011,2.506,2.506,0,0,0-.681-.822,16.76,16.76,0,0,0-3-2.114c-.831-.459-1.924-.828-2.67-.24s-.638,1.763-.443,2.71a3.118,3.118,0,0,0-1.4-.421,1.069,1.069,0,0,0-1.071.823,1.1,1.1,0,0,0,.495.959c-2.932-.482-6.678.065-11.468,2.281,0,0-4.644,1.548-4.88,7.661a10.848,10.848,0,0,0,.322,2.9c.262,1.108,1.192,6.545.076,8.742l5.593,1.993.064-3.35c-4.347-6.274-2.2-8.577-.507-12.351a.04.04,0,0,1,.071-.005c.313.537,1.511,2.376,5.636,2.376l-1.594-1.594s7.013,2.869,9.563,2.869c0,0,1.913,1.275,0,3.188s-6.1,4.728-3.867,8.234,2.039,4.75,2.039,4.75l5.1-2.869s3.115-6.164,3.668-7.979A9.156,9.156,0,0,0,803.655,331.067Z" transform="translate(-550.122 -256.259)" fill="#2f2e41"/>
  <path id="Path_19951" data-name="Path 19951" d="M465.118,348.182H566.582V404.42H553.694v15.466L539.809,404.42H465.118Z" transform="translate(-272.871 -204.268)" fill="#f60"/>
  <rect id="Rectangle_10466" data-name="Rectangle 10466" width="68.189" height="3.046" transform="translate(208.884 160.434)" fill="#fff"/>
  <rect id="Rectangle_10467" data-name="Rectangle 10467" width="68.189" height="3.046" transform="translate(208.884 170.51)" fill="#fff"/>
  <rect id="Rectangle_10468" data-name="Rectangle 10468" width="68.189" height="3.046" transform="translate(208.884 180.586)" fill="#fff"/>
  <path id="Path_19952" data-name="Path 19952" d="M834.171,435.125l-5.951,1.447-.045,12.044-6.694,23.1a3.739,3.739,0,1,0,5.876,1.78l8-23.916Z" transform="translate(-575.303 -327.246)" fill="#ffd3cc"/>
  <path id="Path_19953" data-name="Path 19953" d="M758.369,434.513l7.14,2.04.045,12.044,6.694,23.1a3.739,3.739,0,1,1-5.876,1.78l-8-23.916Z" transform="translate(-539.111 -326.887)" fill="#ffd3cc"/>
  <path id="Path_19954" data-name="Path 19954" d="M832.591,391.526l1.475-.481a3.356,3.356,0,0,1,2.512.174h0s4.293.307,4.906,3.373,2.1,29.869,2.1,29.869l-9.093-2.893Z" transform="translate(-582.655 -301.289)" fill="#3f3d56"/>
  <path id="Path_19955" data-name="Path 19955" d="M766.489,391.67l-2.61-.131-.827-.413s-4.842.545-5.456,3.611-2.4,30.7-2.4,30.7l9.093-2.48Z" transform="translate(-537.25 -301.433)" fill="#3f3d56"/>
  <path id="Path_19956" data-name="Path 19956" d="M396.931,629.51l4.31-3.76a72,72,0,0,0-1.008-8.052l-2.379,1.006,2.207-1.925c-.635-3.287-1.264-5.423-1.264-5.423s-8.7,7.723-13.563,17.144l2.135,7.022-3.261-4.644a29.136,29.136,0,0,0-1.239,3.444c-3.393,11.837-2.278,22.541,2.491,23.908s11.386-7.12,14.779-18.957a38.348,38.348,0,0,0,1.2-11.626Z" transform="translate(-317.664 -430.636)" fill="rgba(255,102,0,0.16)"/>
  <path id="Path_19957" data-name="Path 19957" d="M410.583,656.857l5.633-.991a72,72,0,0,0,3.3-7.414l-2.556-.368,2.884-.507c1.155-3.142,1.721-5.3,1.721-5.3s-11.436,2.116-20.472,7.665l-1.8,7.115L398.9,651.4a29.125,29.125,0,0,0-2.841,2.308c-9.023,8.379-13.6,18.119-10.226,21.754s13.427-.21,22.45-8.589a38.343,38.343,0,0,0,7.033-9.335Z" transform="translate(-319.902 -448.779)" fill="rgba(255,102,0,0.16)"/>
  <path id="Path_19958" data-name="Path 19958" d="M607.951,723.952H352.513a.413.413,0,0,1,0-.827H607.951a.413.413,0,0,1,0,.827Z" transform="translate(-300.764 -496.207)" fill="#cbcbcb"/>
</svg>
