<svg xmlns="http://www.w3.org/2000/svg" width="36" height="25.714" viewBox="0 0 36 25.714">
  <g id="Group_29981" data-name="Group 29981" transform="translate(-1609 -754)">
    <g id="Group_29908" data-name="Group 29908" transform="translate(1609 756.586)">
      <path id="Union_84" data-name="Union 84" d="M4,0H24.446a4,4,0,0,1,4,4V19.128a4,4,0,0,1-4,4H4a4,4,0,0,1-4-4V4A4,4,0,0,1,4,0Z" transform="translate(0 0)" fill="#fff"/>
    </g>
    <g id="Group_29907" data-name="Group 29907" transform="translate(1609 756.586)">
      <g id="Union_84-2" data-name="Union 84" transform="translate(28.446 23.128) rotate(180)" fill="none" stroke-linecap="round" stroke-linejoin="round" stroke-dasharray="90 120">
        <path d="M3,0H25.446a3,3,0,0,1,3,3V20.128a3,3,0,0,1-3,3H3a3,3,0,0,1-3-3V3A3,3,0,0,1,3,0Z" stroke="none"/>
        <path d="M 3.000003814697266 3.814697265625e-06 L 25.44638252258301 3.814697265625e-06 C 27.10324287414551 3.814697265625e-06 28.44638252258301 1.343143463134766 28.44638252258301 3.000003814697266 C 28.44638252258301 3.000003814697266 28.44638252258301 20.12826347351074 28.44638252258301 20.12826347351074 C 28.44638252258301 21.78512382507324 27.10324287414551 23.12826347351074 25.44638252258301 23.12826347351074 C 25.44638252258301 23.12826347351074 3.000003814697266 23.12826347351074 3.000003814697266 23.12826347351074 C 1.343143463134766 23.12826347351074 3.814697265625e-06 21.78512382507324 3.814697265625e-06 20.12826347351074 L 3.814697265625e-06 6.288103103637695 C 3.814697265625e-06 6.011962890625 0.2238636016845703 5.788103103637695 0.5000038146972656 5.788103103637695 C 0.7761440277099609 5.788103103637695 1.000003814697266 6.011962890625 1.000003814697266 6.288103103637695 L 1.000003814697266 20.12826347351074 C 1.000003814697266 21.23106384277344 1.89720344543457 22.12826347351074 3.000003814697266 22.12826347351074 L 25.44638252258301 22.12826347351074 C 26.5491828918457 22.12826347351074 27.44638252258301 21.23106384277344 27.44638252258301 20.12826347351074 L 27.44638252258301 3.000003814697266 C 27.44638252258301 1.89720344543457 26.5491828918457 1.000003814697266 25.44638252258301 1.000003814697266 L 3.000003814697266 1.000003814697266 C 2.72386360168457 1.000003814697266 2.500003814697266 0.7761440277099609 2.500003814697266 0.5000038146972656 C 2.500003814697266 0.2238636016845703 2.72386360168457 3.814697265625e-06 3.000003814697266 3.814697265625e-06 C 3.000003814697266 3.814697265625e-06 3.000003814697266 3.814697265625e-06 3.000003814697266 3.814697265625e-06 Z" stroke="none" fill="#024c99"/>
      </g>
    </g>
    <rect id="Rectangle_9195" data-name="Rectangle 9195" width="3.879" height="3.879" rx="0.56" transform="translate(1613.517 765.56)" fill="#fece00"/>
    <rect id="Rectangle_9200" data-name="Rectangle 9200" width="3.879" height="3.879" rx="0.56" transform="translate(1613.517 770.698)" fill="#fece00"/>
    <rect id="Rectangle_9196" data-name="Rectangle 9196" width="3.879" height="3.879" rx="0.56" transform="translate(1619.909 765.56)" fill="#fece00"/>
    <rect id="Rectangle_9199" data-name="Rectangle 9199" width="3.879" height="3.879" rx="0.56" transform="translate(1619.909 770.698)" fill="#fece00"/>
    <rect id="Rectangle_9197" data-name="Rectangle 9197" width="3.879" height="3.879" rx="0.56" transform="translate(1626.333 765.56)" fill="#fece00"/>
    <rect id="Rectangle_9198" data-name="Rectangle 9198" width="3.879" height="3.879" rx="0.56" transform="translate(1626.333 770.698)" fill="#fece00"/>
    <g id="Group_29909" data-name="Group 29909" transform="translate(1632.07 762.973)">
      <g id="Ellipse_2496" data-name="Ellipse 2496" fill="#00d8e1" stroke="#024c99" stroke-width="1">
        <circle cx="6.465" cy="6.465" r="6.465" stroke="none"/>
        <circle cx="6.465" cy="6.465" r="5.965" fill="none"/>
      </g>
      <path id="Path_19215" data-name="Path 19215" d="M1572.29-14613.684l3.047,2.109,3.555-1.094" transform="translate(-1569.077 14618.781)" fill="none" stroke="#fff" stroke-linecap="round" stroke-linejoin="round" stroke-width="1"/>
    </g>
    <g id="Rectangle_9201" data-name="Rectangle 9201" transform="translate(1628.273 754)" fill="#fff" stroke="#024c99" stroke-width="1">
      <path d="M1.94,0h0a1.94,1.94,0,0,1,1.94,1.94v2.8a.436.436,0,0,1-.436.436H.436A.436.436,0,0,1,0,4.736V1.94A1.94,1.94,0,0,1,1.94,0Z" stroke="none"/>
      <path d="M1.94.5h0a1.44,1.44,0,0,1,1.44,1.44V4.624a.048.048,0,0,1-.048.048H.548A.048.048,0,0,1,.5,4.624V1.94A1.44,1.44,0,0,1,1.94.5Z" fill="none"/>
    </g>
    <g id="Rectangle_9203" data-name="Rectangle 9203" transform="translate(1614.172 754)" fill="#fff" stroke="#024c99" stroke-width="1">
      <path d="M1.94,0h0a1.94,1.94,0,0,1,1.94,1.94v2.8a.436.436,0,0,1-.436.436H.436A.436.436,0,0,1,0,4.736V1.94A1.94,1.94,0,0,1,1.94,0Z" stroke="none"/>
      <path d="M1.94.5h0a1.44,1.44,0,0,1,1.44,1.44V4.624a.048.048,0,0,1-.048.048H.548A.048.048,0,0,1,.5,4.624V1.94A1.44,1.44,0,0,1,1.94.5Z" fill="none"/>
    </g>
    <rect id="Rectangle_9202" data-name="Rectangle 9202" width="19.501" height="1.293" rx="0.647" transform="translate(1617.748 761.069)" fill="#024c99"/>
  </g>
</svg>
