<svg xmlns="http://www.w3.org/2000/svg" width="12.647" height="11.158" viewBox="0 0 12.647 11.158">
  <path id="Path_19431" data-name="Path 19431" d="M20.62,12.642v5.535a1.844,1.844,0,0,1-1.842,1.842H13.116L10.881,21.9a.263.263,0,0,1-.432-.2V20.02H9.815a1.844,1.844,0,0,1-1.842-1.842V12.642A1.844,1.844,0,0,1,9.815,10.8h8.962a1.844,1.844,0,0,1,1.842,1.842Zm-.526,0a1.318,1.318,0,0,0-1.316-1.316H9.815A1.318,1.318,0,0,0,8.5,12.642v5.535a1.318,1.318,0,0,0,1.316,1.316h.9a.263.263,0,0,1,.263.263V21.13l1.875-1.575a.263.263,0,0,1,.169-.062h5.758a1.318,1.318,0,0,0,1.316-1.316Zm-7.216,1.877a.263.263,0,0,1,.145-.447l.713-.111.326-.644a.275.275,0,0,1,.47,0l.326.644.713.111a.263.263,0,0,1,.145.447l-.511.508.115.711a.263.263,0,0,1-.38.276l-.642-.328-.642.329a.263.263,0,0,1-.38-.276l.115-.711Zm.74-.007.238.237a.263.263,0,0,1,.074.228l-.053.332.3-.154a.263.263,0,0,1,.24,0l.3.154-.053-.332a.263.263,0,0,1,.074-.228l.238-.237-.333-.053a.263.263,0,0,1-.194-.141l-.153-.3-.152.3a.263.263,0,0,1-.194.141Zm5.188-.261a.263.263,0,0,1-.065.268l-.512.508.115.711a.263.263,0,0,1-.38.276l-.641-.328-.642.329a.263.263,0,0,1-.38-.276l.115-.711-.511-.508a.263.263,0,0,1,.145-.447l.713-.111.326-.644a.275.275,0,0,1,.47,0l.326.644.713.111A.263.263,0,0,1,18.806,14.251Zm-.8.261-.333-.053a.263.263,0,0,1-.194-.141l-.152-.3-.152.3a.263.263,0,0,1-.194.141l-.333.053.238.237a.263.263,0,0,1,.074.228l-.053.332.3-.154a.263.263,0,0,1,.24,0l.3.154-.053-.332a.263.263,0,0,1,.074-.228Zm-7.638.515-.512-.508A.263.263,0,0,1,10,14.072l.713-.111.326-.644a.275.275,0,0,1,.47,0l.326.644.713.111a.263.263,0,0,1,.145.447l-.511.508.115.711a.263.263,0,0,1-.38.276l-.642-.328-.642.329a.263.263,0,0,1-.38-.276Zm.228-.515.238.237a.263.263,0,0,1,.074.228l-.053.332.3-.154a.263.263,0,0,1,.24,0l.3.154-.053-.332a.263.263,0,0,1,.074-.228l.238-.237-.333-.053a.263.263,0,0,1-.194-.141l-.154-.3-.152.3a.263.263,0,0,1-.194.141Zm-.348,1.949a.263.263,0,0,0,0,.526h3.23a.263.263,0,1,0,0-.526Zm5.861.944H10.243a.263.263,0,0,0,0,.526H16.1a.263.263,0,0,0,0-.526Z" transform="translate(-7.973 -10.8)"/>
</svg>
