<svg xmlns="http://www.w3.org/2000/svg" width="11.629" height="11.11" viewBox="0 0 11.629 11.11">
  <g id="Group_30607" data-name="Group 30607" transform="translate(0.18 0.175)">
    <path id="Path_15124" data-name="Path 15124" d="M25.193,13.753a.35.35,0,0,1-.163-.04l-3.1-1.631-3.1,1.631a.351.351,0,0,1-.509-.369l.593-3.455L16.4,7.441a.35.35,0,0,1,.194-.6l3.469-.5L21.613,3.2a.35.35,0,0,1,.314-.2h0a.35.35,0,0,1,.314.2l1.551,3.143,3.469.5a.35.35,0,0,1,.194.6l-2.51,2.447.593,3.455a.351.351,0,0,1-.345.41ZM17.4,7.435l2.134,2.08a.351.351,0,0,1,.1.31l-.5,2.937,2.637-1.387a.349.349,0,0,1,.327,0l2.637,1.387-.5-2.937a.35.35,0,0,1,.1-.31l2.134-2.08-2.948-.429a.35.35,0,0,1-.264-.192L21.927,4.143,20.608,6.814a.35.35,0,0,1-.264.192Z" transform="translate(-16.292 -3)" fill="#555" stroke="#555" stroke-width="0.35"/>
  </g>
</svg>
