<svg xmlns="http://www.w3.org/2000/svg" width="12.695" height="11.235" viewBox="0 0 12.695 11.235">
  <path id="Path_19432" data-name="Path 19432" d="M20.419,12.613V18.06a1.815,1.815,0,0,1-1.813,1.813H13.034l-2.2,1.847a.259.259,0,0,1-.426-.2V19.873H9.786A1.815,1.815,0,0,1,7.973,18.06V12.613A1.815,1.815,0,0,1,9.786,10.8h8.82A1.815,1.815,0,0,1,20.419,12.613Zm-.518,0a1.3,1.3,0,0,0-1.295-1.295H9.786a1.3,1.3,0,0,0-1.295,1.295V18.06a1.3,1.3,0,0,0,1.295,1.295h.883a.259.259,0,0,1,.259.259v1.352l1.845-1.55a.259.259,0,0,1,.167-.061h5.666A1.3,1.3,0,0,0,19.9,18.06Zm-9.693,1.946a.259.259,0,0,0,0,.518h3.178a.259.259,0,0,0,0-.518Zm5.768,1.929H10.207a.259.259,0,0,0,0,.518h5.768a.259.259,0,0,0,0-.518Z" transform="translate(-7.848 -10.675)" fill="#555" stroke="#555" stroke-width="0.25"/>
</svg>
