<svg xmlns="http://www.w3.org/2000/svg" width="36" height="31.736" viewBox="0 0 36 31.736">
  <g id="Group_30551" data-name="Group 30551" transform="translate(-1495 -756)">
    <g id="Group_29905" data-name="Group 29905" transform="translate(1495 756)">
      <path id="Union_85" data-name="Union 85" d="M9.468,31.137,6.75,24.924H4a4,4,0,0,1-4-4V4A4,4,0,0,1,4,0H32a4,4,0,0,1,4,4V20.923a4,4,0,0,1-4,4H14.019L11.3,31.137a1,1,0,0,1-1.832,0Z" transform="translate(0 0)" fill="#01c3ff"/>
      <g id="Union_84" data-name="Union 84" transform="translate(0 0)" fill="none" stroke-linecap="round" stroke-linejoin="round" stroke-dasharray="60 20">
        <path d="M9.468,31.137,6.75,24.924H4a4,4,0,0,1-4-4V4A4,4,0,0,1,4,0H32a4,4,0,0,1,4,4V20.923a4,4,0,0,1-4,4H14.019L11.3,31.137a1,1,0,0,1-1.832,0Z" stroke="none"/>
        <path d="M 10.38453960418701 31.73602294921875 C 10.38346385955811 31.73602294921875 10.38236427307129 31.73601722717285 10.3812894821167 31.73601722717285 C 10.38041019439697 31.73601722717285 10.37948513031006 31.73600769042969 10.3786039352417 31.73600578308105 C 10.37775611877441 31.73599815368652 10.37692642211914 31.73600196838379 10.37607765197754 31.73598670959473 C 10.37502384185791 31.73597717285156 10.37396049499512 31.7359619140625 10.37291526794434 31.7359561920166 C 10.37199592590332 31.7359447479248 10.37103652954102 31.73593139648438 10.37011814117432 31.73592185974121 C 10.36923599243164 31.73590469360352 10.36841487884521 31.73589706420898 10.36753273010254 31.73588180541992 C 10.36666584014893 31.73586845397949 10.36577606201172 31.73584747314453 10.36490535736084 31.73583602905273 C 10.36380481719971 31.73581314086914 10.36267852783203 31.73578262329102 10.36157989501953 31.73576736450195 C 10.3607349395752 31.73574638366699 10.35988140106201 31.73572731018066 10.35903453826904 31.7357063293457 C 10.35816764831543 31.73568534851074 10.35733222961426 31.73566818237305 10.3564624786377 31.73563957214355 C 10.35542392730713 31.73561477661133 10.35432815551758 31.7355842590332 10.3532886505127 31.73554801940918 C 10.35236740112305 31.73551750183105 10.35142612457275 31.73548889160156 10.35050773620605 31.73546028137207 C 10.34963130950928 31.73543167114258 10.34880447387695 31.73540496826172 10.34792518615723 31.73537254333496 C 10.3469295501709 31.73533630371094 10.34592914581299 31.73530197143555 10.34493160247803 31.73526191711426 C 10.34393882751465 31.73522567749023 10.34291744232178 31.73518562316895 10.34192371368408 31.73514175415039 C 10.3410587310791 31.73510551452637 10.34020614624023 31.73506927490234 10.33934020996094 31.73503303527832 C 10.33852100372314 31.7349967956543 10.33769607543945 31.73495864868164 10.33687496185303 31.73492240905762 C 10.33570766448975 31.7348690032959 10.33453369140625 31.73481369018555 10.33336639404297 31.7347526550293 C 10.33250141143799 31.73470878601074 10.33165740966797 31.73466873168945 10.33079242706299 31.73462295532227 C 10.3299560546875 31.73458099365234 10.32915115356445 31.73453712463379 10.32831287384033 31.73448944091797 C 10.32712268829346 31.73442840576172 10.32589054107666 31.73435211181641 10.32470035552979 31.73428726196289 C 10.32386302947998 31.73423767089844 10.3230152130127 31.73418617248535 10.32217788696289 31.7341365814209 C 10.32136631011963 31.73408508300781 10.3205394744873 31.73403739929199 10.31973171234131 31.73398590087891 C 10.31762981414795 31.73385620117188 10.31554126739502 31.73371315002441 10.31344604492188 31.73357200622559 C 10.31266498565674 31.73351669311523 10.31190013885498 31.73346328735352 10.31111812591553 31.73340797424316 C 10.31028461456299 31.73335266113281 10.30949974060059 31.7332935333252 10.30866813659668 31.73323059082031 C 10.30655002593994 31.73306274414062 10.30442333221436 31.73291015625 10.30230903625488 31.73274230957031 C 10.30153656005859 31.7326831817627 10.30078220367432 31.73262214660645 10.30001163482666 31.7325553894043 C 10.29709529876709 31.73233413696289 10.29421901702881 31.7320671081543 10.29131412506104 31.73180389404297 C 10.29127788543701 31.73180198669434 10.2912425994873 31.73179817199707 10.29120635986328 31.7317943572998 C 10.01639938354492 31.70683479309082 9.750637054443359 31.57139015197754 9.57462215423584 31.325439453125 C 9.574220657348633 31.32463836669922 9.573711395263672 31.32416343688965 9.573272705078125 31.32354736328125 C 9.572537422180176 31.32251739501953 9.571786880493164 31.32145690917969 9.571054458618164 31.32041931152344 C 9.570514678955078 31.31965446472168 9.569961547851562 31.31887245178223 9.569421768188477 31.31810188293457 C 9.568865776062012 31.31731224060059 9.56834602355957 31.31656646728516 9.567790985107422 31.31577301025391 C 9.567083358764648 31.31476211547852 9.566409111022949 31.31379318237305 9.565704345703125 31.31277084350586 C 9.56514835357666 31.31196784973145 9.564557075500488 31.31110763549805 9.564006805419922 31.31031227111816 C 9.563453674316406 31.30950927734375 9.562889099121094 31.30869102478027 9.562341690063477 31.30788612365723 C 9.561662673950195 31.3068904876709 9.561004638671875 31.30592918395996 9.560327529907227 31.30492782592773 C 9.55975341796875 31.3040828704834 9.55915355682373 31.30319786071777 9.558586120605469 31.30235290527344 C 9.557433128356934 31.3006420135498 9.556283950805664 31.29892730712891 9.555139541625977 31.29720687866211 C 9.555069923400879 31.2971019744873 9.555012702941895 31.29701614379883 9.554943084716797 31.29691123962402 C 9.524759292602539 31.25150108337402 9.497528076171875 31.20256233215332 9.473714828491211 31.15010643005371 C 9.473681449890137 31.1500358581543 9.473642349243164 31.14994812011719 9.47360897064209 31.14987564086914 C 9.472690582275391 31.14785003662109 9.471778869628906 31.14582443237305 9.470870971679688 31.14378929138184 C 9.470442771911621 31.14283180236816 9.469995498657227 31.14182281494141 9.46956729888916 31.14085578918457 C 9.469036102294922 31.13967323303223 9.468523025512695 31.13849639892578 9.468000411987305 31.13730239868164 C 9.468000411987305 31.13730239868164 9.468000411987305 31.13730239868164 9.468000411987305 31.13730239868164 L 9.468000411987305 31.13730239868164 C 9.468000411987305 31.13730239868164 9.42552375793457 31.04021453857422 9.351189613342285 30.87031173706055 L 9.351189613342285 30.87031173706055 C 9.27685546875 30.70040893554688 9.170663833618164 30.45768928527832 9.043234825134277 30.16642761230469 L 9.043234825134277 30.16642761230469 C 8.915804862976074 29.87516403198242 8.767136573791504 29.53535842895508 8.607850074768066 29.17127990722656 L 8.607850074768066 29.17127990722656 C 8.448562622070312 28.80720329284668 8.278656005859375 28.41885185241699 8.108750343322754 28.03050231933594 L 8.108750343322754 28.03050231933594 C 7.938843727111816 27.64215278625488 7.768937587738037 27.25380325317383 7.609650611877441 26.88972473144531 L 7.609650611877441 26.88972473144531 C 7.450363159179688 26.5256462097168 7.301695346832275 26.18584060668945 7.17426586151123 25.89457702636719 L 7.17426586151123 25.89457702636719 C 7.046835899353027 25.60331535339355 6.94064474105835 25.360595703125 6.866310596466064 25.19069290161133 L 6.866310596466064 25.19069290161133 C 6.791976451873779 25.02079010009766 6.749499797821045 24.92370223999023 6.749499797821045 24.92370223999023 L 3.999599933624268 24.92370223999023 C 1.79009997844696 24.92370223999023 0 23.1327018737793 0 20.92320251464844 C 0 20.92320251464844 0 3.999602317810059 0 3.999602317810059 C 0 1.79100239276886 1.79009997844696 2.428283778499463e-06 3.999599933624268 2.428283778499463e-06 C 3.999599933624268 2.428283778499463e-06 23.81632995605469 2.428283778499463e-06 23.81632995605469 2.428283778499463e-06 C 24.09247970581055 2.428283778499463e-06 24.31632995605469 0.223862424492836 24.31632995605469 0.5000024437904358 C 24.31632995605469 0.776142418384552 24.09247970581055 1.000002384185791 23.81632995605469 1.000002384185791 L 3.999599933624268 1.000002384185791 C 2.345609903335571 1.000002384185791 1 2.345612525939941 1 3.999602317810059 L 1 20.92320251464844 C 1 22.57768249511719 2.345609903335571 23.92370223999023 3.999599933624268 23.92370223999023 L 6.749499797821045 23.92370223999023 C 7.14680004119873 23.92370223999023 7.506410121917725 24.15889167785645 7.665649890899658 24.52287292480469 L 10.38379955291748 30.73567199707031 C 10.3838996887207 30.73589515686035 10.3841028213501 30.73601722717285 10.38444709777832 30.73602294921875 L 13.10274982452393 24.52287292480469 C 13.26198959350586 24.15889167785645 13.62160015106201 23.92370223999023 14.01889991760254 23.92370223999023 L 32.00040054321289 23.92370223999023 C 33.65438842773438 23.92370223999023 35 22.57768249511719 35 20.92320251464844 L 35 9.532382011413574 C 35 9.256242752075195 35.22386169433594 9.032382011413574 35.5 9.032382011413574 C 35.77613830566406 9.032382011413574 36 9.256242752075195 36 9.532382011413574 L 36 20.92320251464844 C 36 23.1327018737793 34.20899963378906 24.92370223999023 32.00040054321289 24.92370223999023 L 14.01889991760254 24.92370223999023 L 13.57000160217285 25.94973564147949 C 13.57000160217285 25.94973564147949 13.56997394561768 25.94980049133301 13.56997394561768 25.94980049133301 L 12.69626998901367 27.94680023193359 C 12.69494342803955 27.94983291625977 12.69350910186768 27.95311164855957 12.69218254089355 27.95614433288574 L 12.69116687774658 27.95846557617188 C 12.69033718109131 27.96036148071289 12.68957996368408 27.96209144592285 12.68875122070312 27.96398735046387 L 12.6848669052124 27.97286415100098 C 12.68420314788818 27.97438049316406 12.68335342407227 27.9763240814209 12.68268966674805 27.97784042358398 L 12.67578792572021 27.99361610412598 C 12.67562198638916 27.99399566650391 12.67543792724609 27.99441528320312 12.67527198791504 27.99479484558105 L 12.59615039825439 28.17564010620117 C 12.59598541259766 28.1760196685791 12.59579181671143 28.17646217346191 12.59562587738037 28.17684173583984 L 12.57631492614746 28.22097778320312 C 12.57614994049072 28.22135734558105 12.57605743408203 28.2215690612793 12.57589149475098 28.22194671630859 L 11.30052661895752 31.13701438903809 C 11.30052375793457 31.13702011108398 11.30052471160889 31.13701820373535 11.30052185058594 31.13702392578125 L 11.30039978027344 31.13730239868164 C 11.3004732131958 31.13713645935059 11.30046653747559 31.13714981079102 11.30046081542969 31.13716316223145 L 11.30039978027344 31.13730239868164 C 11.30039978027344 31.13730239868164 11.30039978027344 31.13730239868164 11.30039978027344 31.13730239868164 C 11.29986095428467 31.13853645324707 11.29932022094727 31.13976097106934 11.2987756729126 31.14099502563477 C 11.29835224151611 31.1419563293457 11.29792976379395 31.14291381835938 11.29750537872314 31.14385986328125 C 11.29705619812012 31.14486694335938 11.29657649993896 31.14593505859375 11.29613208770752 31.14693260192871 C 11.29562568664551 31.1480598449707 11.29510021209717 31.14921951293945 11.29459381103516 31.15034103393555 C 11.29415798187256 31.15130043029785 11.29374313354492 31.15221786499023 11.29330348968506 31.15317916870117 C 11.29282569885254 31.15422821044922 11.29233932495117 31.15528678894043 11.29185390472412 31.15634155273438 C 11.29135227203369 31.15742492675781 11.29083442687988 31.15854644775391 11.29033184051514 31.15963172912598 C 11.28990364074707 31.16055488586426 11.28947448730469 31.16147422790527 11.28904438018799 31.16239356994629 C 11.28851509094238 31.16352653503418 11.28800201416016 31.16461372375488 11.28747081756592 31.16574287414551 C 11.28698635101318 31.16676902770996 11.28649425506592 31.16781234741211 11.2860050201416 31.16883277893066 C 11.28557014465332 31.16974449157715 11.28514099121094 31.17064476013184 11.28470611572266 31.17155265808105 C 11.28417778015137 31.17265701293945 11.28365707397461 31.17373466491699 11.28312492370605 31.17483711242676 C 11.28263664245605 31.17584991455078 11.28214263916016 31.17686653137207 11.28165054321289 31.1778736114502 C 11.28121566772461 31.17876243591309 11.28077507019043 31.17967224121094 11.28033542633057 31.18056106567383 C 11.27982521057129 31.18160057067871 11.27930736541748 31.18265533447266 11.27879333496094 31.18368911743164 C 11.27828025817871 31.18472862243652 11.2777681350708 31.18575477600098 11.27725028991699 31.18679237365723 C 11.27680492401123 31.18768882751465 11.27634429931641 31.1886100769043 11.2758960723877 31.18949699401855 C 11.27539443969727 31.19050025939941 11.27489280700684 31.19149208068848 11.27438735961914 31.1924877166748 C 11.27385711669922 31.19353675842285 11.27328872680664 31.19464302062988 11.27275466918945 31.19569778442383 C 11.27230167388916 31.19658088684082 11.27183818817139 31.19748878479004 11.27138328552246 31.19837188720703 C 11.2709379196167 31.19923782348633 11.27047729492188 31.20012664794922 11.27003002166748 31.20099449157715 C 11.26942157745361 31.20216751098633 11.26881885528564 31.20332717895508 11.26820850372314 31.20449447631836 C 11.26774406433105 31.20538711547852 11.26726818084717 31.2062931060791 11.2667989730835 31.20718002319336 C 11.26634788513184 31.20803642272949 11.26589107513428 31.20890045166016 11.26543807983398 31.20975875854492 C 11.26483917236328 31.21088981628418 11.26421165466309 31.21206665039062 11.26361179351807 31.21318626403809 C 11.26312828063965 31.21409225463867 11.26266002655029 31.21496772766113 11.26217365264893 31.21586799621582 C 11.26170349121094 31.21673774719238 11.26124954223633 31.21758460998535 11.26077651977539 31.21845436096191 C 11.26017379760742 31.21956825256348 11.25956153869629 31.22069358825684 11.25894927978516 31.22180938720703 C 11.25845241546631 31.22271728515625 11.25797748565674 31.22358322143555 11.25747776031494 31.2244930267334 C 11.25700378417969 31.22535514831543 11.25652980804443 31.22621154785156 11.25605392456055 31.22706985473633 C 11.25545406341553 31.2281551361084 11.25486087799072 31.22921562194824 11.25425910949707 31.23029518127441 C 11.25374221801758 31.23121643066406 11.25324630737305 31.23211097717285 11.25272655487061 31.2330265045166 C 11.25224781036377 31.2338752746582 11.25174236297607 31.23476791381836 11.25126361846924 31.23561859130859 C 11.25068187713623 31.23664474487305 11.25009918212891 31.23768424987793 11.24951267242432 31.23869514465332 C 11.2489767074585 31.2396297454834 11.24844837188721 31.24055480957031 11.24791049957275 31.24148941040039 C 11.24740600585938 31.24236679077148 11.24692821502686 31.2431812286377 11.24641990661621 31.24407386779785 C 11.2458438873291 31.24506378173828 11.24524879455566 31.2460880279541 11.24466991424561 31.2470817565918 C 11.24411964416504 31.2480297088623 11.24358081817627 31.24895858764648 11.24302196502686 31.2498950958252 C 11.24251937866211 31.25074577331543 11.24199771881104 31.25163078308105 11.24150085449219 31.25247383117676 C 11.24092960357666 31.25344085693359 11.24036598205566 31.25439071655273 11.23980045318604 31.25533676147461 C 11.23921966552734 31.25631332397461 11.23865604400635 31.25724792480469 11.23806762695312 31.25823211669922 C 11.2375545501709 31.25908470153809 11.23702335357666 31.25995826721191 11.23651790618896 31.26080513000488 C 11.23594856262207 31.26174354553223 11.23536205291748 31.26267242431641 11.2347993850708 31.26363563537598 C 11.23421287536621 31.26459693908691 11.23363590240479 31.26554298400879 11.23305320739746 31.2664909362793 C 11.23251914978027 31.26736450195312 11.23200798034668 31.2681941986084 11.23147106170654 31.26906204223633 C 11.23091411590576 31.26996421813965 11.23034858703613 31.27080535888672 11.22977161407471 31.27180480957031 C 11.22916698455811 31.27277946472168 11.22855949401855 31.27375602722168 11.22794723510742 31.27472496032715 C 11.2274227142334 31.27556228637695 11.22688102722168 31.27642440795898 11.22635078430176 31.27726364135742 C 11.22577381134033 31.27817916870117 11.22523975372314 31.27902603149414 11.22464275360107 31.27996253967285 C 11.22402191162109 31.28094100952148 11.22340965270996 31.28189468383789 11.22278499603271 31.28287506103516 C 11.22225093841553 31.2837085723877 11.22170162200928 31.28456115722656 11.22115898132324 31.28540802001953 C 11.2205924987793 31.28628921508789 11.220046043396 31.28716087341309 11.2194652557373 31.28802871704102 C 11.21882915496826 31.28900909423828 11.21819972991943 31.28997611999512 11.21755981445312 31.29095458984375 C 11.21701240539551 31.29179191589355 11.21645164489746 31.29263687133789 11.21590328216553 31.29348182678223 C 11.21532154083252 31.29436492919922 11.21474933624268 31.29523468017578 11.21416664123535 31.29611396789551 C 11.21352958679199 31.29707527160645 11.2128791809082 31.29805564880371 11.21224117279053 31.29900932312012 C 11.21168899536133 31.29983520507812 11.21112632751465 31.3006763458252 11.21056938171387 31.3015079498291 C 11.20999431610107 31.30236053466797 11.20936012268066 31.3032341003418 11.20880699157715 31.30412292480469 C 11.20815372467041 31.30509376525879 11.20750522613525 31.30605506896973 11.20684623718262 31.30701065063477 C 11.20628452301025 31.30783271789551 11.20573234558105 31.30864906311035 11.20516967773438 31.3094654083252 C 11.20456218719482 31.31035041809082 11.203932762146 31.3112678527832 11.20332908630371 31.31214141845703 C 11.20267963409424 31.31308174133301 11.20204544067383 31.31399536132812 11.20139408111572 31.31493377685547 C 11.20082950592041 31.31574630737305 11.20027351379395 31.31653785705566 11.19970703125 31.31735229492188 C 11.19917106628418 31.3181209564209 11.19864368438721 31.3189868927002 11.19808006286621 31.31967163085938 L 10.86034870147705 31.08194351196289 C 10.86034870147705 31.08194351196289 10.86034870147705 31.08194351196289 10.86034870147705 31.08194351196289 L 11.19808006286621 31.31967163085938 C 11.19762516021729 31.32032012939453 11.19719886779785 31.3209228515625 11.19674110412598 31.32156944274902 C 11.19626331329346 31.32224464416504 11.19581890106201 31.3228702545166 11.19533729553223 31.32354927062988 C 11.1948709487915 31.32419967651367 11.19439601898193 31.32486724853516 11.19392871856689 31.32552528381348 C 11.19346809387207 31.3261661529541 11.19297504425049 31.32685661315918 11.19251251220703 31.32750129699707 C 11.19203662872314 31.32816696166992 11.19157886505127 31.32880401611328 11.19110107421875 31.32946014404297 C 11.19062900543213 31.33011436462402 11.19015693664551 31.33077049255371 11.18968391418457 31.33141708374023 C 11.18920612335205 31.33207893371582 11.18874740600586 31.33270645141602 11.18826675415039 31.33336639404297 C 11.18777656555176 31.33403396606445 11.18730926513672 31.33467483520508 11.18681907653809 31.3353443145752 C 11.18634986877441 31.33598136901855 11.18587112426758 31.33663177490234 11.18540477752686 31.3372688293457 C 11.1849193572998 31.33792686462402 11.1844482421875 31.33856010437012 11.1839656829834 31.33921813964844 C 11.18349552154541 31.33985710144043 11.18301010131836 31.34050941467285 11.18253612518311 31.34114265441895 C 11.18204975128174 31.34179496765137 11.18157386779785 31.34243202209473 11.18108749389648 31.34308242797852 C 11.1806058883667 31.34372901916504 11.18011283874512 31.34438705444336 11.17963027954102 31.34502601623535 C 11.17913913726807 31.34567451477051 11.1786642074585 31.34630584716797 11.17817497253418 31.34695625305176 C 11.17769813537598 31.34758758544922 11.17718982696533 31.34825325012207 11.17671394348145 31.3488826751709 C 11.17622184753418 31.34953308105469 11.1757345199585 31.35017204284668 11.17524147033691 31.35081672668457 C 11.17475414276123 31.3514518737793 11.17427062988281 31.35208511352539 11.17378330230713 31.35272026062012 C 11.17330455780029 31.35334396362305 11.17282962799072 31.35396003723145 11.17234802246094 31.35458755493164 C 11.17186832427979 31.35520935058594 11.17139625549316 31.35581970214844 11.17091369628906 31.35644149780273 C 11.17041778564453 31.35707855224609 11.1699390411377 31.35769653320312 11.16944026947021 31.35833740234375 C 11.16894912719727 31.35896492004395 11.1684741973877 31.35957336425781 11.16798400878906 31.36020278930664 C 11.16750907897949 31.36081123352051 11.16705799102783 31.36138534545898 11.16658306121826 31.36198806762695 C 11.16608238220215 31.36262130737305 11.16559028625488 31.36324882507324 11.16509246826172 31.36387825012207 C 11.16465663909912 31.36442756652832 11.16422557830811 31.36496925354004 11.16378784179688 31.36552619934082 C 11.16292285919189 31.36661338806152 11.16206932067871 31.36767959594727 11.1612024307251 31.3687686920166 C 11.16071510314941 31.3693790435791 11.16020774841309 31.3700122833252 11.15971660614014 31.37061882019043 C 11.15921688079834 31.37123870849609 11.15871238708496 31.37186241149902 11.1582145690918 31.37248039245605 C 11.1577205657959 31.37308692932129 11.15719318389893 31.37373924255371 11.15670108795166 31.37434768676758 C 11.15619850158691 31.37496185302734 11.15568923950195 31.37559127807617 11.15518379211426 31.3762092590332 C 11.15468692779541 31.3768138885498 11.1541633605957 31.37745666503906 11.15366649627686 31.37806129455566 C 11.15315246582031 31.37868881225586 11.15266418457031 31.37928199768066 11.15215015411377 31.37990188598633 C 11.15164566040039 31.38051605224609 11.15112686157227 31.38113975524902 11.15061855316162 31.38175392150879 C 11.15011215209961 31.38236618041992 11.14960098266602 31.38298034667969 11.14909172058105 31.38359069824219 C 11.14858150482178 31.38419914245605 11.14807796478271 31.38480377197266 11.14756965637207 31.38541221618652 C 11.14706230163574 31.38602066040039 11.14655685424805 31.38662147521973 11.14604473114014 31.38722991943359 C 11.14553165435791 31.38784027099609 11.14500427246094 31.38846588134766 11.14449024200439 31.38907051086426 C 11.14398670196533 31.38966369628906 11.14345264434814 31.39029884338379 11.14294528961182 31.39089202880859 C 11.14243984222412 31.39148712158203 11.14192771911621 31.39208602905273 11.1414213180542 31.39268112182617 C 11.14090633392334 31.39328002929688 11.14037895202637 31.39389610290527 11.13986206054688 31.39450263977051 C 11.1393404006958 31.39510917663574 11.13883972167969 31.39569091796875 11.13831329345703 31.39630126953125 C 11.13780498504639 31.39689064025879 11.13727569580078 31.39750671386719 11.13676452636719 31.39809226989746 C 11.13624000549316 31.39870071411133 11.13571071624756 31.39930725097656 11.13518238067627 31.3999137878418 C 11.1346607208252 31.4005069732666 11.13411521911621 31.40113639831543 11.13359546661377 31.40172958374023 C 11.13305854797363 31.4023494720459 11.13254737854004 31.40292739868164 11.13200950622559 31.40353775024414 C 11.13147830963135 31.40413475036621 11.13095378875732 31.40473175048828 11.13042068481445 31.40533828735352 C 11.12989521026611 31.40593147277832 11.12934589385986 31.40655136108398 11.12881851196289 31.40714454650879 C 11.12826633453369 31.40776824951172 11.12771129608154 31.40839195251465 11.12715911865234 31.40900802612305 C 11.12658405303955 31.40964317321777 11.12603950500488 31.41025733947754 11.12547016143799 31.41089248657227 C 11.12488746643066 31.41154098510742 11.12431812286377 31.41217422485352 11.12373447418213 31.41282081604004 C 11.12365436553955 31.41290855407715 11.12358379364014 31.41298866271973 11.12350273132324 31.41307640075684 C 11.1224365234375 31.41425704956055 11.12136363983154 31.41543960571289 11.12029266357422 31.41661262512207 C 11.11975955963135 31.41721725463867 11.11923694610596 31.41776847839355 11.11869716644287 31.41835784912109 C 11.1181697845459 31.41892623901367 11.11763954162598 31.41950988769531 11.11710929870605 31.42008399963379 C 11.1165771484375 31.42066383361816 11.11603736877441 31.4212474822998 11.11549949645996 31.42182731628418 C 11.11496734619141 31.42240142822266 11.1144380569458 31.4229736328125 11.11391067504883 31.42353820800781 C 11.11338424682617 31.42410659790039 11.11281394958496 31.42471504211426 11.11228370666504 31.42528343200684 C 11.11176204681396 31.42583847045898 11.11119174957275 31.42644691467285 11.11066913604736 31.42700576782227 C 11.11013793945312 31.42757034301758 11.10958957672119 31.42815399169922 11.10905647277832 31.4287166595459 C 11.10852432250977 31.42928314208984 11.10796451568604 31.42987442016602 11.10743236541748 31.43043327331543 C 11.10690021514893 31.43099403381348 11.10634517669678 31.43158149719238 11.10581016540527 31.43213844299316 C 11.10528469085693 31.43268775939941 11.10470867156982 31.43329429626465 11.10418319702148 31.43384170532227 C 11.1036319732666 31.43441581726074 11.10308647155762 31.43498420715332 11.1025333404541 31.43556022644043 C 11.10197925567627 31.43613624572754 11.10143566131592 31.43669700622559 11.10088157653809 31.43727111816406 C 11.10034370422363 31.43782806396484 11.09979057312012 31.43839836120605 11.09925174713135 31.43895149230957 C 11.0986967086792 31.43951988220215 11.09815788269043 31.4400749206543 11.09760093688965 31.44064521789551 C 11.09703159332275 31.44122505187988 11.09650707244873 31.44176483154297 11.0959415435791 31.44233894348145 C 11.09539222717285 31.44290351867676 11.09482574462891 31.4434757232666 11.09427547454834 31.44403266906738 C 11.09372138977051 31.44459342956543 11.09317398071289 31.44514656066895 11.09262275695801 31.44570350646973 C 11.09205436706543 31.4462776184082 11.09151268005371 31.44682121276855 11.09094142913818 31.44739532470703 C 11.09038162231445 31.44795608520508 11.08985424041748 31.448486328125 11.08928966522217 31.44904899597168 C 11.08870983123779 31.44962501525879 11.08813285827637 31.45020294189453 11.08755207061768 31.45078086853027 C 11.08696269989014 31.45135688781738 11.08640480041504 31.45191955566406 11.08582019805908 31.45249557495117 C 11.08523082733154 31.45308685302734 11.08465957641602 31.45364379882812 11.08406448364258 31.4542293548584 C 11.08396244049072 31.4543285369873 11.08387470245361 31.45441627502441 11.08377361297607 31.45451545715332 C 11.08096504211426 31.457275390625 11.0781421661377 31.46001625061035 11.07530689239502 31.46273612976074 C 11.07474517822266 31.46327209472656 11.07417678833008 31.46381950378418 11.07361698150635 31.46435356140137 C 11.07306098937988 31.46487236022949 11.07248497009277 31.46543502807617 11.07193374633789 31.46595573425293 C 11.07136917114258 31.46649932861328 11.07081317901611 31.46702194213867 11.07024383544922 31.46755790710449 C 11.06966400146484 31.46810722351074 11.0691089630127 31.46863174438477 11.06853294372559 31.46917152404785 C 11.06797313690186 31.46970367431641 11.06738662719727 31.47024917602539 11.06682395935059 31.47077560424805 C 11.06625652313232 31.47130966186523 11.06570243835449 31.47182464599609 11.06513118743896 31.47235679626465 C 11.06454944610596 31.47289848327637 11.06400680541992 31.47340393066406 11.06342601776123 31.47394180297852 C 11.0628547668457 31.47446441650391 11.06228160858154 31.47500038146973 11.06170845031738 31.47553062438965 C 11.06115531921387 31.47604370117188 11.06056690216064 31.47658348083496 11.06001281738281 31.47709083557129 C 11.05943012237549 31.47762107849121 11.05887889862061 31.47812652587891 11.05829811096191 31.47866249084473 C 11.05771446228027 31.47919654846191 11.05712795257568 31.47972679138184 11.05654430389404 31.48026084899902 C 11.05598163604736 31.48077011108398 11.05539894104004 31.48130035400391 11.05483055114746 31.48181533813477 C 11.05424880981445 31.48234176635742 11.05367183685303 31.48286437988281 11.05308532714844 31.48339080810547 C 11.0525016784668 31.48391342163086 11.0519495010376 31.48441505432129 11.05136013031006 31.48493957519531 C 11.05078411102295 31.48545265197754 11.05019664764404 31.48597717285156 11.04961681365967 31.48649978637695 C 11.04903888702393 31.48701477050781 11.04844570159912 31.48754119873047 11.0478630065918 31.48805999755859 C 11.04726505279541 31.48859214782715 11.04667949676514 31.48911094665527 11.0460786819458 31.48963928222656 C 11.04549694061279 31.49015617370605 11.04491806030273 31.49066543579102 11.04433441162109 31.49117660522461 C 11.04373645782471 31.4916934967041 11.04312705993652 31.49223327636719 11.04253482818604 31.49275398254395 C 11.04192352294922 31.4932861328125 11.04130172729492 31.49382972717285 11.04068851470947 31.49436378479004 C 11.04002571105957 31.49494934082031 11.03933811187744 31.49553871154785 11.03867530822754 31.4961109161377 C 11.03865718841553 31.49612617492676 11.03864669799805 31.49613571166992 11.03862857818604 31.49615097045898 C 11.0362663269043 31.49819564819336 11.03388690948486 31.5002326965332 11.03150939941406 31.50224876403809 C 11.03091526031494 31.50274467468262 11.03034019470215 31.50323867797852 11.02975463867188 31.50373458862305 C 11.0291805267334 31.50421905517578 11.02859020233154 31.50471496582031 11.02801609039307 31.50519752502441 C 11.02742767333984 31.50569343566895 11.02683258056641 31.50619125366211 11.02624130249023 31.50668525695801 C 11.02566909790039 31.50716209411621 11.02504444122314 31.5076847076416 11.02447032928467 31.5081615447998 C 11.02388572692871 31.50864791870117 11.02328300476074 31.5091495513916 11.02270030975342 31.50963020324707 C 11.02209854125977 31.51012802124023 11.02152252197266 31.51060676574707 11.02091884613037 31.5111026763916 C 11.02032470703125 31.51159286499023 11.01974487304688 31.5120677947998 11.01915073394775 31.51255416870117 C 11.01855659484863 31.51304626464844 11.01796913146973 31.51352500915527 11.01737308502197 31.51400756835938 C 11.01677799224854 31.51449203491211 11.01618480682373 31.51497459411621 11.01558876037598 31.51546096801758 C 11.01499080657959 31.51594924926758 11.01439666748047 31.51642417907715 11.01380157470703 31.51690864562988 C 11.01319313049316 31.51739883422852 11.01261806488037 31.51785850524902 11.01201438903809 31.51834869384766 C 11.01141834259033 31.51883125305176 11.01081466674805 31.51931190490723 11.01021480560303 31.5197925567627 C 11.00961399078369 31.52026748657227 11.00903129577637 31.5207347869873 11.00843334197998 31.52121353149414 C 11.00783252716064 31.52169227600098 11.00724315643311 31.52215766906738 11.0066442489624 31.52263450622559 C 11.00604629516602 31.52310943603516 11.00544261932373 31.52358245849609 11.00484275817871 31.5240592956543 C 11.00424098968506 31.52453422546387 11.00364303588867 31.52500152587891 11.00304317474365 31.52547454833984 C 11.00244998931885 31.52593803405762 11.00184917449951 31.52640914916992 11.00125598907471 31.5268726348877 C 11.00064563751221 31.5273494720459 11.00005531311035 31.52781105041504 10.9994421005249 31.52828598022461 C 10.99883270263672 31.52876472473145 10.99825382232666 31.52920532226562 10.99764156341553 31.52968215942383 C 10.99703788757324 31.53014945983887 10.9964017868042 31.5306396484375 10.99579620361328 31.53110504150391 C 10.99520111083984 31.53156471252441 10.99461364746094 31.53201675415039 10.99401760101318 31.532470703125 C 10.99342060089111 31.53292655944824 10.99282741546631 31.53338241577148 10.99222946166992 31.53383445739746 C 10.9915771484375 31.53433227539062 10.99091911315918 31.53483390808105 10.99026203155518 31.53532981872559 C 10.98940086364746 31.53598403930664 10.98855495452881 31.53662490844727 10.98769378662109 31.53727149963379 C 10.98707103729248 31.53774452209473 10.98649311065674 31.53817367553711 10.98587226867676 31.53863906860352 C 10.98526000976562 31.53909301757812 10.98464679718018 31.53955268859863 10.98403835296631 31.54000854492188 C 10.98341846466064 31.54047393798828 10.98283100128174 31.54090690612793 10.98220920562744 31.54136848449707 C 10.98159790039062 31.54182243347168 10.98098754882812 31.54227638244629 10.98037528991699 31.542724609375 C 10.97977447509766 31.54317092895508 10.97915267944336 31.54362869262695 10.97854709625244 31.54407119750977 C 10.97794437408447 31.54451179504395 10.97731781005859 31.54497337341309 10.97671604156494 31.54541206359863 C 10.97613143920898 31.54583549499512 10.97547817230225 31.54631042480469 10.97489261627197 31.5467414855957 C 10.97429084777832 31.54717826843262 10.97364902496338 31.54763793945312 10.97304534912109 31.54808235168457 C 10.97241306304932 31.54854202270508 10.97184371948242 31.54895210266113 10.97120952606201 31.54940605163574 C 10.97059631347656 31.54985046386719 10.96999168395996 31.55028343200684 10.9693775177002 31.55072212219238 C 10.96875476837158 31.55117034912109 10.96817111968994 31.55158233642578 10.9675464630127 31.55203056335449 C 10.9669303894043 31.5524730682373 10.96632289886475 31.55290603637695 10.96570873260498 31.55333709716797 C 10.96510314941406 31.55376625061035 10.96447277069092 31.5542163848877 10.96386432647705 31.55464363098145 C 10.96323585510254 31.55508422851562 10.96264266967773 31.55550384521484 10.9620189666748 31.55594253540039 C 10.96142101287842 31.55636215209961 10.96078014373779 31.55681037902832 10.96018123626709 31.55722999572754 C 10.95957088470459 31.55765533447266 10.95895385742188 31.55808067321777 10.95834827423096 31.55850791931152 C 10.95774173736572 31.55892944335938 10.95714569091797 31.55935096740723 10.95653247833252 31.55976676940918 C 10.95591640472412 31.56019401550293 10.95534610748291 31.56058692932129 10.95472812652588 31.56101417541504 C 10.95411109924316 31.56143760681152 10.95348358154297 31.56187057495117 10.9528636932373 31.56229400634766 C 10.95225429534912 31.56271171569824 10.95168399810791 31.56310081481934 10.95108222961426 31.56351280212402 C 10.95047473907471 31.56392669677734 10.94989395141602 31.56432151794434 10.94928455352783 31.56473541259766 C 10.9420280456543 31.56966018676758 10.93472099304199 31.57447814941406 10.92735576629639 31.57918930053711 C 10.92671394348145 31.57959175109863 10.92608642578125 31.57999992370605 10.92546081542969 31.58039855957031 C 10.92482089996338 31.58080291748047 10.92422866821289 31.58118438720703 10.92359161376953 31.58158683776855 C 10.92299461364746 31.58195114135742 10.92233085632324 31.58238220214844 10.92171287536621 31.58277320861816 C 10.92109680175781 31.58314514160156 10.92044067382812 31.58357429504395 10.91982269287109 31.58396148681641 C 10.91919231414795 31.58439826965332 10.91854858398438 31.58476066589355 10.9179105758667 31.58515739440918 C 10.91728496551514 31.58554840087891 10.916672706604 31.58592796325684 10.91604423522949 31.58631896972656 C 10.91540622711182 31.58670425415039 10.91477394104004 31.58710479736328 10.91413402557373 31.58750152587891 C 10.91412448883057 31.5875072479248 10.91411113739014 31.58751487731934 10.91410064697266 31.58752059936523 C 10.85494613647461 31.62404251098633 10.79248142242432 31.65382957458496 10.72794818878174 31.67687797546387 L 10.70698356628418 31.61817359924316 C 10.70698356628418 31.61817359924316 10.70698356628418 31.61817359924316 10.70698356628418 31.61817359924316 L 10.72795009613037 31.67688179016113 C 10.64637184143066 31.70601463317871 10.56150817871094 31.7243766784668 10.47573089599609 31.73198699951172 C 10.47499561309814 31.73205184936523 10.4742488861084 31.73211669921875 10.47350788116455 31.73218154907227 C 10.47065353393555 31.7326831817627 10.46790218353271 31.7326545715332 10.46508979797363 31.73287582397461 C 10.46435451507568 31.7329273223877 10.46358203887939 31.73299026489258 10.46284675598145 31.73304748535156 C 10.46072864532471 31.73323249816895 10.45864486694336 31.73336029052734 10.45651912689209 31.7335090637207 C 10.4558277130127 31.73356246948242 10.45514869689941 31.73360824584961 10.45445728302002 31.73365211486816 C 10.45365428924561 31.73370742797852 10.45285987854004 31.73375701904297 10.45205688476562 31.73381233215332 C 10.45005893707275 31.73394393920898 10.44804382324219 31.73406791687012 10.4460563659668 31.73418807983398 C 10.44526958465576 31.73423957824707 10.44446754455566 31.73428153991699 10.44368171691895 31.73432731628418 C 10.44287395477295 31.73437118530273 10.4420747756958 31.73441696166992 10.4412670135498 31.73446273803711 C 10.43929100036621 31.73456573486328 10.43732070922852 31.73467254638672 10.43535327911377 31.73477172851562 C 10.43453311920166 31.73481178283691 10.43374252319336 31.73484802246094 10.43292236328125 31.73488807678223 C 10.43208122253418 31.73492813110352 10.43128299713135 31.73496246337891 10.43043994903564 31.73500061035156 C 10.42962169647217 31.73504066467285 10.42881107330322 31.73507499694824 10.42799091339111 31.735107421875 C 10.42688274383545 31.73515510559082 10.42573738098145 31.73520088195801 10.42463207244873 31.73524284362793 C 10.42380142211914 31.73527717590332 10.42293548583984 31.73530960083008 10.42210388183594 31.73533821105957 C 10.42127990722656 31.7353687286377 10.42046356201172 31.73539543151855 10.41963958740234 31.73542594909668 C 10.4188060760498 31.73545074462891 10.41797924041748 31.73547744750977 10.41714572906494 31.73550796508789 C 10.41604042053223 31.73554229736328 10.41499328613281 31.73556900024414 10.4138879776001 31.73560523986816 C 10.41301441192627 31.73562622070312 10.41216278076172 31.73564720153809 10.41129112243652 31.73567581176758 C 10.41045665740967 31.73569488525391 10.40959930419922 31.73571968078613 10.40876293182373 31.73573875427246 C 10.40791702270508 31.73575782775879 10.40712642669678 31.73577880859375 10.40628337860107 31.73579406738281 C 10.40520858764648 31.73581695556641 10.40415573120117 31.73583793640137 10.40307807922363 31.73585510253906 C 10.40220165252686 31.73587417602539 10.40131759643555 31.73589324951172 10.40044021606445 31.73589897155762 C 10.39959239959717 31.73591613769531 10.39876365661621 31.73592948913574 10.39791488647461 31.73593521118164 C 10.39708518981934 31.73594665527344 10.3962574005127 31.73596000671387 10.39541912078857 31.73596572875977 C 10.3943395614624 31.73597717285156 10.39331245422363 31.73598670959473 10.3922290802002 31.73599243164062 C 10.39135265350342 31.73599815368652 10.39046287536621 31.73600006103516 10.38958644866943 31.73600959777832 C 10.38873291015625 31.73601722717285 10.38788795471191 31.73602104187012 10.38703441619873 31.73601913452148 C 10.38620185852051 31.73602104187012 10.38537216186523 31.73602294921875 10.38453960418701 31.73602294921875 C 10.38453960418701 31.73602294921875 10.38453960418701 31.73602294921875 10.38453960418701 31.73602294921875 Z" stroke="none" fill="#024c99"/>
      </g>
      <g id="Rectangle_9192" data-name="Rectangle 9192" transform="translate(33.22 2.78) rotate(90)" fill="none" stroke="#fff" stroke-linecap="round" stroke-width="1" stroke-dasharray="22 32">
        <rect width="16.678" height="12.508" rx="3" stroke="none"/>
        <rect x="0.5" y="0.5" width="15.678" height="11.508" rx="2.5" fill="none"/>
      </g>
      <path id="Path_19223" data-name="Path 19223" d="M18.592,17.535a.4.4,0,0,1-.336.4h-.074a.4.4,0,0,1-.378-.254c-1.847-4.612-6.8-4.661-7.008-4.661H9.565v2.872a.41.41,0,0,1-.254.378.394.394,0,0,1-.443-.09L3.123,10.437a.394.394,0,0,1,0-.574L8.867,4.117a.386.386,0,0,1,.443-.123.41.41,0,0,1,.254.41V7.277a9.257,9.257,0,0,1,6.1,2.216C17.608,11.257,18.592,13.965,18.592,17.535Z" transform="translate(6.683 1.659)" fill="#fece00"/>
    </g>
  </g>
</svg>
