<svg xmlns="http://www.w3.org/2000/svg" width="36" height="33.025" viewBox="0 0 36 33.025">
  <g id="Group_30550" data-name="Group 30550" transform="translate(-1552 -752.232)">
    <g id="Group_29906" data-name="Group 29906" transform="translate(1552 752.232)">
      <g id="Union_84" data-name="Union 84" transform="translate(0 5.287)" fill="none" stroke-linecap="round" stroke-linejoin="round" stroke-dasharray="49 30">
        <path d="M8.2,27.139l-2.275-5.21H4a4,4,0,0,1-4-4V4A4,4,0,0,1,4,0H27.613a4,4,0,0,1,4,4V17.928a4,4,0,0,1-4,4H12.31l-2.275,5.21a1,1,0,0,1-1.832,0Z" stroke="none"/>
        <path d="M 9.118800163269043 27.73867797851562 C 9.11772346496582 27.73867797851562 9.116653442382812 27.73866844177246 9.11557674407959 27.73867225646973 C 9.114700317382812 27.73866844177246 9.113842010498047 27.73867034912109 9.112961769104004 27.73866081237793 C 9.112122535705566 27.7386531829834 9.111295700073242 27.73864555358887 9.110455513000488 27.73864364624023 C 9.109622001647949 27.7386360168457 9.108784675598145 27.7386360168457 9.107950210571289 27.73862075805664 C 9.106910705566406 27.73860931396484 9.105862617492676 27.73859786987305 9.104818344116211 27.73858261108398 C 9.103928565979004 27.73857307434082 9.10306453704834 27.73855972290039 9.102173805236816 27.7385425567627 C 9.101334571838379 27.73853302001953 9.100488662719727 27.73851013183594 9.099649429321289 27.73850059509277 C 9.098820686340332 27.73848342895508 9.097972869873047 27.73846626281738 9.09714412689209 27.73845100402832 C 9.096127510070801 27.73842811584473 9.095087051391602 27.73840522766113 9.09406566619873 27.73838043212891 C 9.093186378479004 27.73836135864258 9.092304229736328 27.73834228515625 9.091422080993652 27.73831367492676 C 9.090593338012695 27.73829460144043 9.08973217010498 27.73827362060547 9.088902473449707 27.73824310302734 C 9.08808708190918 27.73822021484375 9.08720588684082 27.73819351196289 9.086390495300293 27.73816871643066 C 9.085429191589355 27.73814010620117 9.084505081176758 27.73811531066895 9.08353328704834 27.73807334899902 C 9.082562446594238 27.73804092407227 9.08162784576416 27.73800277709961 9.080657005310059 27.73797225952148 C 9.079813003540039 27.73793983459473 9.078957557678223 27.7379035949707 9.078115463256836 27.73787498474121 C 9.077284812927246 27.73784255981445 9.076431274414062 27.73781204223633 9.075602531433105 27.73777198791504 C 9.074724197387695 27.73773574829102 9.073812484741211 27.73775482177734 9.072963714599609 27.73765754699707 C 9.071969032287598 27.73761367797852 9.070988655090332 27.73756217956543 9.06999397277832 27.73752212524414 C 9.069126129150391 27.73748207092285 9.068272590637207 27.73743629455566 9.067405700683594 27.73739624023438 C 9.066551208496094 27.73735237121582 9.065716743469238 27.7373218536377 9.064862251281738 27.73726463317871 C 9.06301212310791 27.73716926574707 9.061234474182129 27.73707389831543 9.059378623962402 27.73696327209473 C 9.058456420898438 27.73690986633301 9.05759334564209 27.73685646057129 9.056672096252441 27.73680305480957 C 9.055818557739258 27.73675346374512 9.054958343505859 27.73670768737793 9.054115295410156 27.73664665222168 C 9.051437377929688 27.73647880554199 9.048730850219727 27.73619079589844 9.046041488647461 27.73610687255859 C 9.045171737670898 27.73604393005371 9.044229507446289 27.73596572875977 9.043408393859863 27.73591613769531 C 9.040741920471191 27.73572158813477 9.038057327270508 27.73551368713379 9.035392761230469 27.73529624938965 C 9.035392761230469 27.73529624938965 9.035367012023926 27.73529434204102 9.035367012023926 27.73529434204102 C 8.948541641235352 27.72823905944824 8.862525939941406 27.71014785766602 8.779870986938477 27.68102836608887 L 8.779870986938477 27.68102836608887 C 8.712100982666016 27.65715599060059 8.646595001220703 27.6258716583252 8.584737777709961 27.58716773986816 C 8.584099769592285 27.58675003051758 8.583481788635254 27.58638191223145 8.582854270935059 27.58598518371582 C 8.582206726074219 27.5855827331543 8.581537246704102 27.58515548706055 8.580891609191895 27.58474731445312 C 8.580265998840332 27.5843448638916 8.579616546630859 27.58394241333008 8.578990936279297 27.58354377746582 C 8.578327178955078 27.58311462402344 8.577733993530273 27.58274459838867 8.577071189880371 27.58231925964355 C 8.57643985748291 27.58191108703613 8.575836181640625 27.58152770996094 8.575203895568848 27.58112335205078 C 8.574556350708008 27.58071136474609 8.573912620544434 27.58029365539551 8.573260307312012 27.57987213134766 C 8.572608947753906 27.57945442199707 8.571988105773926 27.57905197143555 8.57133960723877 27.5786304473877 C 8.570708274841309 27.57821846008301 8.570076942443848 27.57781028747559 8.569448471069336 27.57740020751953 C 8.568832397460938 27.57699775695801 8.568224906921387 27.57660293579102 8.567607879638672 27.57619667053223 C 8.566947937011719 27.57576370239258 8.566311836242676 27.57534599304199 8.565657615661621 27.57491493225098 C 8.565017700195312 27.57449340820312 8.564359664916992 27.57406044006348 8.563725471496582 27.57363891601562 C 8.563100814819336 27.57322692871094 8.562465667724609 27.57280731201172 8.561841011047363 27.5723876953125 C 8.561227798461914 27.57198524475098 8.560583114624023 27.57154846191406 8.559968948364258 27.57114028930664 C 8.559273719787598 27.57067489624023 8.558544158935547 27.57018661499023 8.557852745056152 27.5697193145752 C 8.557254791259766 27.5693244934082 8.556624412536621 27.56889343261719 8.5560302734375 27.56849098205566 C 8.55540943145752 27.56806564331055 8.5548095703125 27.56766510009766 8.554187774658203 27.56724166870117 C 8.553625106811523 27.56686019897461 8.55309009552002 27.56649589538574 8.552529335021973 27.56611251831055 C 8.551756858825684 27.56558418273926 8.550961494445801 27.56504440307617 8.550185203552246 27.56450843811035 C 8.549470901489258 27.56400108337402 8.54874324798584 27.56351661682129 8.548031806945801 27.56302642822266 C 8.548031806945801 27.56302642822266 8.548027038574219 27.56302261352539 8.548027038574219 27.56302261352539 C 8.547296524047852 27.56251907348633 8.54658031463623 27.56203079223633 8.545849800109863 27.56151390075684 C 8.545125007629395 27.56100845336914 8.54438304901123 27.56049537658691 8.543663024902344 27.55998992919922 C 8.543084144592285 27.55958557128906 8.542507171630859 27.55918121337891 8.54193115234375 27.55877685546875 C 8.541237831115723 27.55829048156738 8.540541648864746 27.55780029296875 8.539851188659668 27.55731201171875 C 8.539199829101562 27.55685424804688 8.538543701171875 27.55638885498047 8.537893295288086 27.55592727661133 C 8.537283897399902 27.55549049377441 8.536636352539062 27.5550365447998 8.536026954650879 27.55459785461426 C 8.535409927368164 27.55415916442871 8.534801483154297 27.55372619628906 8.534180641174316 27.55327796936035 C 8.533561706542969 27.55283546447754 8.532896041870117 27.55235481262207 8.532280921936035 27.55191230773926 C 8.531672477722168 27.55147171020508 8.531081199645996 27.55104827880859 8.530475616455078 27.55060768127441 C 8.52985954284668 27.5501651763916 8.529234886169434 27.54971122741699 8.528616905212402 27.54925918579102 C 8.528000831604004 27.5488109588623 8.527371406555176 27.5483512878418 8.52675724029541 27.54790306091309 C 8.526105880737305 27.54742622375488 8.525509834289551 27.54698753356934 8.524858474731445 27.54651069641113 C 8.524235725402832 27.54605484008789 8.523613929748535 27.54559326171875 8.522994041442871 27.54513740539551 C 8.522402763366699 27.54470062255859 8.521744728088379 27.54421234130859 8.521153450012207 27.54377365112305 C 8.520552635192871 27.54332733154297 8.519935607910156 27.54286766052246 8.519335746765137 27.54242134094238 C 8.518726348876953 27.54196357727051 8.518117904663086 27.54150772094727 8.517507553100586 27.54105377197266 C 8.516899108886719 27.54060173034668 8.51628303527832 27.54013824462891 8.515676498413086 27.53967666625977 C 8.515076637268066 27.53922462463379 8.514468193054199 27.53876686096191 8.513872146606445 27.53831481933594 C 8.513256072998047 27.53784370422363 8.51267147064209 27.53740310668945 8.512056350708008 27.53693580627441 C 8.511449813842773 27.53647613525391 8.510821342468262 27.5359992980957 8.510217666625977 27.5355339050293 C 8.509620666503906 27.53507614135742 8.509014129638672 27.53460884094238 8.508420944213867 27.53415679931641 C 8.50779914855957 27.5336742401123 8.507223129272461 27.53323364257812 8.506599426269531 27.53275299072266 C 8.505995750427246 27.53228378295898 8.505389213562012 27.53182029724121 8.504786491394043 27.53134918212891 C 8.504182815551758 27.53087997436523 8.503604888916016 27.53043365478516 8.503002166748047 27.52996063232422 C 8.50239372253418 27.52948760986328 8.501811981201172 27.5290412902832 8.50120735168457 27.5285587310791 C 8.499892234802246 27.52752685546875 8.498538970947266 27.52646827697754 8.497231483459473 27.52542495727539 C 8.496515274047852 27.52486038208008 8.495791435241699 27.52428817749023 8.495079040527344 27.52371597290039 C 8.494441986083984 27.52320861816406 8.493819236755371 27.52271461486816 8.493184089660645 27.52220153808594 C 8.492568969726562 27.5217113494873 8.491975784301758 27.5212345123291 8.491362571716309 27.52073860168457 C 8.490792274475098 27.5202808380127 8.490198135375977 27.51980018615723 8.489630699157715 27.51934242248535 C 8.48905086517334 27.51887130737305 8.488452911376953 27.51838111877441 8.487874031066895 27.51791954040527 C 8.48729419708252 27.51744651794434 8.48671817779541 27.5169734954834 8.486142158508301 27.51650810241699 C 8.485519409179688 27.51600074768066 8.484905242919922 27.51549911499023 8.484284400939941 27.51498794555664 C 8.483689308166504 27.51449966430664 8.483098030090332 27.51401138305664 8.482507705688477 27.51352500915527 C 8.481932640075684 27.5130558013916 8.481329917907715 27.51255416870117 8.480754852294922 27.51207733154297 C 8.480181694030762 27.5116024017334 8.479586601257324 27.51110649108887 8.479013442993164 27.5106315612793 C 8.478394508361816 27.51011657714844 8.477816581726074 27.5096321105957 8.477197647094727 27.50911521911621 C 8.476634979248047 27.50864410400391 8.476047515869141 27.50815391540527 8.475481986999512 27.50767707824707 C 8.474891662597656 27.50718116760254 8.474320411682129 27.50670051574707 8.473730087280273 27.50620079040527 C 8.473148345947266 27.50571060180664 8.472561836242676 27.50521087646484 8.471979141235352 27.50471878051758 C 8.471371650695801 27.50420379638672 8.470785140991211 27.50370597839355 8.470180511474609 27.50318717956543 C 8.469610214233398 27.50270080566406 8.46900749206543 27.5021858215332 8.468436241149902 27.50169563293457 C 8.46784782409668 27.50119400024414 8.467251777648926 27.50068092346191 8.466668128967285 27.50017738342285 C 8.466106414794922 27.49969291687012 8.465503692626953 27.49917030334473 8.464944839477539 27.49868965148926 C 8.464349746704102 27.4981746673584 8.463742256164551 27.49764823913574 8.463146209716797 27.49712944030762 C 8.462568283081055 27.49662780761719 8.462009429931641 27.49614334106445 8.461437225341797 27.49563789367676 C 8.460841178894043 27.49512100219727 8.460286140441895 27.49463081359863 8.459690093994141 27.49410820007324 C 8.459111213684082 27.49360084533691 8.458554267883301 27.49313163757324 8.45798397064209 27.49260711669922 C 8.45268726348877 27.48793411254883 8.44743537902832 27.48319625854492 8.44222354888916 27.47838973999023 C 8.442206382751465 27.47837448120117 8.442238807678223 27.47840309143066 8.442221641540527 27.4783878326416 C 8.441072463989258 27.47732734680176 8.439926147460938 27.47626495361328 8.438780784606934 27.47519874572754 C 8.438204765319824 27.47465896606445 8.437646865844727 27.47414016723633 8.437063217163086 27.47359466552734 C 8.436479568481445 27.47306251525879 8.435958862304688 27.47256278991699 8.435386657714844 27.47202301025391 C 8.434793472290039 27.47147941589355 8.434201240539551 27.47090721130371 8.433611869812012 27.47035026550293 C 8.433042526245117 27.46979522705078 8.432472229003906 27.46927261352539 8.431890487670898 27.46871948242188 C 8.431297302246094 27.46817207336426 8.430740356445312 27.46762466430664 8.43015193939209 27.46706390380859 C 8.43015193939209 27.46706390380859 8.430126190185547 27.46703910827637 8.430126190185547 27.46703910827637 C 8.429546356201172 27.46648597717285 8.428939819335938 27.4659252166748 8.42836856842041 27.46535682678223 C 8.385028839111328 27.42378044128418 8.344834327697754 27.37746238708496 8.308490753173828 27.3263988494873 L 8.308490753173828 27.3263988494873 C 8.298405647277832 27.31223106384277 8.288615226745605 27.29769325256348 8.279139518737793 27.28279495239258 C 8.278562545776367 27.28184127807617 8.27799129486084 27.28098678588867 8.277403831481934 27.28005599975586 C 8.277363777160645 27.27999114990234 8.277329444885254 27.27993774414062 8.277288436889648 27.27987289428711 C 8.276163101196289 27.27808952331543 8.275045394897461 27.27630615234375 8.273928642272949 27.27451324462891 C 8.273367881774902 27.27360534667969 8.272794723510742 27.2726879119873 8.272243499755859 27.27179527282715 C 8.271613121032715 27.27078247070312 8.270990371704102 27.26976585388184 8.27036190032959 27.26874160766602 C 8.269839286804199 27.26789093017578 8.269318580627441 27.26703834533691 8.268798828125 27.26618385314941 C 8.268216133117676 27.26522445678711 8.267645835876465 27.2642879486084 8.267067909240723 27.26333427429199 C 8.266464233398438 27.26231956481934 8.265875816345215 27.26136016845703 8.265275001525879 27.2603588104248 C 8.26475715637207 27.25949668884277 8.264235496520996 27.25862693786621 8.263717651367188 27.25775527954102 C 8.263116836547852 27.25675201416016 8.262521743774414 27.2557430267334 8.261921882629395 27.25473213195801 C 8.261351585388184 27.25376319885254 8.260775566101074 27.25278854370117 8.260208129882812 27.2518253326416 C 8.259701728820801 27.25096321105957 8.259178161621094 27.25006675720215 8.258674621582031 27.24920463562012 C 8.258005142211914 27.24806213378906 8.257347106933594 27.24692344665527 8.256685256958008 27.24578094482422 C 8.256197929382324 27.24493026733398 8.255708694458008 27.24408912658691 8.255221366882324 27.24323844909668 C 8.254707336425781 27.24234580993652 8.254194259643555 27.24145126342773 8.253683090209961 27.24055099487305 C 8.253039360046387 27.23942947387695 8.25240421295166 27.23830413818359 8.251765251159668 27.2371768951416 C 8.251273155212402 27.23630332946777 8.250794410705566 27.2354564666748 8.250302314758301 27.23457908630371 C 8.24976634979248 27.23362731933594 8.249232292175293 27.2326717376709 8.248698234558105 27.23171424865723 C 8.248074531555176 27.23059272766113 8.247467041015625 27.2295036315918 8.246849060058594 27.22838401794434 C 8.246366500854492 27.22751617431641 8.245870590209961 27.22660827636719 8.245388984680176 27.22573280334473 C 8.244760513305664 27.22459411621094 8.244118690490723 27.22341728210449 8.243489265441895 27.22225952148438 C 8.242992401123047 27.22135353088379 8.242511749267578 27.220458984375 8.242016792297363 27.21954345703125 C 8.24151611328125 27.21862030029297 8.241013526916504 27.21768188476562 8.240513801574707 27.21675109863281 C 8.239893913269043 27.21560287475586 8.23929500579834 27.21447563171387 8.238681793212891 27.21332359313965 C 8.238192558288574 27.21239852905273 8.237719535827637 27.21150779724121 8.237236022949219 27.21059417724609 C 8.236722946166992 27.20961761474609 8.236201286315918 27.2086296081543 8.235690116882324 27.20765495300293 C 8.23511791229248 27.2065544128418 8.234546661376953 27.20546913146973 8.233978271484375 27.20437431335449 C 8.233503341674805 27.20345497131348 8.233015060424805 27.20251655578613 8.232542991638184 27.20159912109375 C 8.231960296630859 27.20047569274902 8.231375694274902 27.19933319091797 8.23079776763916 27.19820213317871 C 8.230295181274414 27.19721412658691 8.22980785369873 27.19626235961914 8.22932243347168 27.19530296325684 C 8.22883415222168 27.19433784484863 8.228326797485352 27.19333648681641 8.227839469909668 27.19236946105957 C 8.227268218994141 27.19123077392578 8.22669506072998 27.19009399414062 8.226125717163086 27.18895149230957 C 8.225666999816895 27.18803215026855 8.225193977355957 27.18707847595215 8.224736213684082 27.18615531921387 C 8.224223136901855 27.18511962890625 8.223733901977539 27.18412971496582 8.223220825195312 27.18308448791504 C 8.222668647766113 27.18196487426758 8.22213077545166 27.18086433410645 8.221587181091309 27.17974472045898 C 8.221117973327637 27.17879295349121 8.220664024353027 27.17784690856934 8.220202445983887 27.1768913269043 C 8.219644546508789 27.17573738098145 8.219085693359375 27.17457389831543 8.21852970123291 27.17341804504395 C 8.21852970123291 27.17341804504395 8.218506813049316 27.17337036132812 8.218506813049316 27.17337036132812 C 8.217947006225586 27.17219924926758 8.217382431030273 27.1710147857666 8.216822624206543 27.16983413696289 C 8.21635913848877 27.16885566711426 8.215895652770996 27.16788482666016 8.215435028076172 27.16689872741699 C 8.214960098266602 27.16589164733887 8.214498519897461 27.16487312316895 8.214014053344727 27.16386985778809 C 8.213482856750488 27.1627311706543 8.212954521179199 27.16158866882324 8.212422370910645 27.16044616699219 C 8.211982727050781 27.15949440002441 8.211521148681641 27.15849494934082 8.211081504821777 27.15753746032715 C 8.210564613342285 27.15641212463379 8.210061073303223 27.15529632568359 8.209543228149414 27.15417289733887 C 8.209059715270996 27.15310859680176 8.208568572998047 27.15203094482422 8.208091735839844 27.15096855163574 C 8.207658767700195 27.15001106262207 8.20723819732666 27.14905548095703 8.206809043884277 27.14811706542969 C 8.206264495849609 27.14690017700195 8.205728530883789 27.14569854736328 8.205187797546387 27.14447784423828 C 8.204736709594727 27.14345741271973 8.20430850982666 27.14248847961426 8.203857421875 27.14146614074707 C 8.203437805175781 27.14051055908203 8.203018188476562 27.13955497741699 8.202600479125977 27.13859748840332 C 8.202600479125977 27.13859748840332 8.202600479125977 27.13859748840332 8.202600479125977 27.13859748840332 L 8.202600479125977 27.13859748840332 C 8.202600479125977 27.13859748840332 8.167051315307617 27.05718994140625 8.104840278625488 26.91472625732422 L 8.104840278625488 26.91472625732422 C 8.042629241943359 26.77226257324219 7.953755855560303 26.5687427520752 7.847108364105225 26.32452011108398 L 7.847108364105225 26.32452011108398 C 7.740460872650146 26.08029556274414 7.61603832244873 25.79536819458008 7.482728958129883 25.49008941650391 L 7.482728958129883 25.49008941650391 C 7.349419116973877 25.18481063842773 7.207222461700439 24.85917854309082 7.065025806427002 24.53354835510254 L 7.065025806427002 24.53354835510254 C 6.922828674316406 24.20791625976562 6.780632019042969 23.88228607177734 6.647322177886963 23.57700538635254 L 6.647322177886963 23.57700538635254 C 6.514012813568115 23.27172660827637 6.389590263366699 22.9867992401123 6.282942771911621 22.74257659912109 L 6.282942771911621 22.74257659912109 C 6.176295280456543 22.49835205078125 6.087421894073486 22.29483413696289 6.025210857391357 22.15237045288086 L 6.025210857391357 22.15237045288086 C 5.962999820709229 22.00990676879883 5.927450656890869 21.92849731445312 5.927450656890869 21.92849731445312 L 3.999600648880005 21.92849731445312 C 1.790100574493408 21.92849731445312 5.722046125811175e-07 20.13749885559082 5.722046125811175e-07 17.92799758911133 C 5.722046125811175e-07 17.92799758911133 5.722046125811175e-07 3.999598026275635 5.722046125811175e-07 3.999598026275635 C 5.722046125811175e-07 1.790997982025146 1.790100574493408 -1.96441646949097e-06 3.999600648880005 -1.96441646949097e-06 C 3.999600648880005 -1.96441646949097e-06 17.72993087768555 -1.96441646949097e-06 17.72993087768555 -1.96441646949097e-06 C 18.00607109069824 -1.96441646949097e-06 18.22993087768555 0.2238580286502838 18.22993087768555 0.4999980330467224 C 18.22993087768555 0.7761380076408386 18.00607109069824 0.9999980330467224 17.72993087768555 0.9999980330467224 L 3.999600648880005 0.9999980330467224 C 2.345610618591309 0.9999980330467224 1.000000596046448 2.345607995986938 1.000000596046448 3.999598026275635 L 1.000000596046448 17.92799758911133 C 1.000000596046448 19.58247756958008 2.345610618591309 20.92849731445312 3.999600648880005 20.92849731445312 L 5.927450656890869 20.92849731445312 C 6.325000762939453 20.92849731445312 6.68479061126709 21.16398811340332 6.843880653381348 21.5283088684082 L 9.118801116943359 26.73787879943848 L 11.39372062683105 21.5283088684082 C 11.55281066894531 21.16398811340332 11.91260051727295 20.92849731445312 12.31015014648438 20.92849731445312 L 27.61289978027344 20.92849731445312 C 29.26689147949219 20.92849731445312 30.61250114440918 19.58247756958008 30.61250114440918 17.92799758911133 L 30.61250114440918 17.8334789276123 C 30.61250114440918 17.55733871459961 30.83636093139648 17.3334789276123 31.11250114440918 17.3334789276123 C 31.38864135742188 17.3334789276123 31.61250114440918 17.55733871459961 31.61250114440918 17.8334789276123 L 31.61250114440918 17.92799758911133 C 31.61250114440918 20.13749885559082 29.82150077819824 21.92849731445312 27.61289978027344 21.92849731445312 L 12.31015014648438 21.92849731445312 C 12.31014442443848 21.92851257324219 12.31014347076416 21.92851448059082 12.31014251708984 21.92851638793945 L 12.22921943664551 22.11383056640625 C 12.22919178009033 22.11389350891113 12.22919845581055 22.11387825012207 12.22917079925537 22.11394119262695 L 12.18869113922119 22.20664024353027 C 12.18855762481689 22.20694541931152 12.18846702575684 22.20715522766113 12.18833255767822 22.20746231079102 L 11.06610012054443 24.77737617492676 C 11.06575489044189 24.77816772460938 11.06544876098633 24.77886962890625 11.06510257720947 24.77966117858887 L 11.03964805603027 24.83795166015625 C 11.03957939147949 24.83810997009277 11.03951263427734 24.8382625579834 11.03944396972656 24.83841896057129 L 10.96401405334473 25.01115608215332 C 10.96305656433105 25.01334762573242 10.96211338043213 25.01550674438477 10.96115684509277 25.01769828796387 L 10.76147651672363 25.47496604919434 C 10.76121520996094 25.47556304931641 10.76103687286377 25.47597312927246 10.76077556610107 25.47657012939453 L 10.38705444335938 26.33239364624023 C 10.38674259185791 26.33310699462891 10.38639068603516 26.33391380310059 10.38607978820801 26.33462715148926 L 10.03595161437988 27.13642120361328 C 10.0359411239624 27.13644409179688 10.03592872619629 27.13647270202637 10.03591918945312 27.13649368286133 L 10.03578758239746 27.13679504394531 C 10.03578186035156 27.13680839538574 10.03577995300293 27.13681411743164 10.03577327728271 27.13682746887207 L 10.03567504882812 27.13705253601074 C 10.03565883636475 27.1370906829834 10.03563594818115 27.13714218139648 10.03562068939209 27.13717842102051 L 10.03500080108643 27.13859748840332 C 10.03500080108643 27.13859748840332 10.03500080108643 27.13859748840332 10.03500080108643 27.13859748840332 C 10.03446674346924 27.13982391357422 10.03392314910889 27.14107322692871 10.03338050842285 27.14228820800781 C 10.03296279907227 27.14323806762695 10.03250789642334 27.14425849914551 10.03209114074707 27.14520454406738 C 10.03160572052002 27.14629554748535 10.03111839294434 27.14737319946289 10.03063678741455 27.14846229553223 C 10.03015422821045 27.14953994750977 10.02965450286865 27.1506519317627 10.0291690826416 27.1517219543457 C 10.028733253479 27.15268516540527 10.02828788757324 27.15364074707031 10.02785110473633 27.15462875366211 C 10.02733039855957 27.15576934814453 10.02680587768555 27.15691947937012 10.02627944946289 27.15806007385254 C 10.02580738067627 27.15908813476562 10.0253324508667 27.16012191772461 10.02485656738281 27.16114234924316 C 10.02396488189697 27.16306495666504 10.02306461334229 27.16499137878418 10.0221643447876 27.16690444946289 C 10.02169513702393 27.16788864135742 10.021240234375 27.16886138916016 10.02077198028564 27.16984748840332 C 10.02021598815918 27.17103004455566 10.0196590423584 27.17218971252441 10.01910018920898 27.1733570098877 C 10.01866912841797 27.17420196533203 10.01819229125977 27.17524909973145 10.017746925354 27.17617225646973 C 10.01725482940674 27.17717742919922 10.01676750183105 27.17819404602051 10.01627445220947 27.17920875549316 C 10.01572418212891 27.18033409118652 10.0151834487915 27.18144798278809 10.01462936401367 27.18257904052734 C 10.0141716003418 27.18351173400879 10.01370716094971 27.1844539642334 10.01324272155762 27.18539428710938 C 10.0127067565918 27.18647193908691 10.01217460632324 27.18754768371582 10.01164245605469 27.1886157989502 C 10.01113319396973 27.18963432312012 10.01061344146729 27.19067573547363 10.01009941101074 27.19169807434082 C 10.00963497161865 27.19263458251953 10.00914764404297 27.19359016418457 10.00867748260498 27.19451713562012 C 10.00808334350586 27.19569206237793 10.00749778747559 27.19684600830078 10.00689888000488 27.1980152130127 C 10.00646305084229 27.1989803314209 10.00597381591797 27.19982147216797 10.0055046081543 27.20073509216309 C 10.00501251220703 27.20168685913086 10.00453472137451 27.20261383056641 10.00404167175293 27.20356559753418 C 10.00344467163086 27.20472526550293 10.00286769866943 27.20582962036133 10.00226306915283 27.20698165893555 C 10.00179195404053 27.20788383483887 10.00131607055664 27.20878601074219 10.00084495544434 27.20968437194824 C 10.00032806396484 27.21065521240234 9.99979305267334 27.21167182922363 9.999274253845215 27.21265411376953 C 9.998690605163574 27.2137622833252 9.998130798339844 27.21480560302734 9.997543334960938 27.21590232849121 C 9.997068405151367 27.21679496765137 9.996567726135254 27.21772193908691 9.996089935302734 27.21860694885254 C 9.995529174804688 27.21964836120605 9.994976043701172 27.22066879272461 9.994411468505859 27.22170829772949 C 9.993855476379395 27.22270774841309 9.993309020996094 27.22373390197754 9.992757797241211 27.22473907470703 C 9.992268562316895 27.22563552856445 9.991755485534668 27.22656631469727 9.99126148223877 27.22746086120605 C 9.990640640258789 27.22860145568848 9.989994049072266 27.22975730895996 9.989367485046387 27.23088264465332 C 9.988869667053223 27.23177528381348 9.988405227661133 27.23260879516602 9.987905502319336 27.23349952697754 C 9.98737907409668 27.23444366455078 9.986859321594238 27.23536491394043 9.986326217651367 27.23630714416504 C 9.985705375671387 27.2374153137207 9.985077857971191 27.23851776123047 9.984451293945312 27.2396183013916 C 9.983957290649414 27.24047660827637 9.983442306518555 27.24138259887695 9.982948303222656 27.24224853515625 C 9.982395172119141 27.24320983886719 9.981845855712891 27.24416923522949 9.981291770935059 27.2451286315918 C 9.980685234069824 27.24619102478027 9.980074882507324 27.24723434448242 9.979464530944824 27.24828147888184 C 9.978955268859863 27.2491569519043 9.978425979614258 27.25006294250488 9.977912902832031 27.25093841552734 C 9.977254867553711 27.2520580291748 9.976602554321289 27.25317192077637 9.975940704345703 27.25429153442383 C 9.975420951843262 27.25515937805176 9.974919319152832 27.25601387023926 9.974403381347656 27.25688171386719 C 9.973846435546875 27.2578182220459 9.973320007324219 27.25869750976562 9.972762107849121 27.25963020324707 C 9.972119331359863 27.26070404052734 9.971476554870605 27.26177215576172 9.970833778381348 27.26283836364746 C 9.970296859741211 27.26371383666992 9.969779968261719 27.26457977294922 9.969245910644531 27.26545524597168 C 9.968653678894043 27.26642799377441 9.968031883239746 27.2674503326416 9.967442512512207 27.26840972900391 C 9.966836929321289 27.26941108703613 9.966235160827637 27.27037811279297 9.96562385559082 27.27136611938477 C 9.965071678161621 27.27227210998535 9.964512825012207 27.27316093444824 9.963957786560059 27.2740535736084 C 9.963864326477051 27.27420425415039 9.963772773742676 27.27435302734375 9.963678359985352 27.27450370788574 C 9.962564468383789 27.27629280090332 9.961445808410645 27.27807807922363 9.960322380065918 27.27985763549805 C 9.959737777709961 27.28079795837402 9.959110260009766 27.28177452087402 9.958508491516113 27.2827205657959 C 9.958495140075684 27.28274154663086 9.958498954772949 27.28273582458496 9.95848560333252 27.28275680541992 C 9.949002265930176 27.29767036437988 9.939205169677734 27.31221580505371 9.929110527038574 27.3263988494873 L 9.59614086151123 27.08941841125488 C 9.59614086151123 27.08941841125488 9.59614086151123 27.08941841125488 9.59614086151123 27.08941841125488 L 9.929110527038574 27.3263988494873 C 9.893238067626953 27.37680244445801 9.853596687316895 27.4225959777832 9.810898780822754 27.46375465393066 C 9.810323715209961 27.4643669128418 9.809781074523926 27.4648323059082 9.809211730957031 27.46537780761719 C 9.808634757995605 27.46591949462891 9.808088302612305 27.46645164489746 9.807509422302246 27.46700668334961 C 9.806928634643555 27.46755027770996 9.806354522705078 27.46810722351074 9.80577564239502 27.46865844726562 C 9.805227279663086 27.46915435791016 9.804633140563965 27.46973991394043 9.804068565368652 27.47027397155762 C 9.803511619567871 27.47078132629395 9.802928924560547 27.47135162353516 9.802362442016602 27.47188377380371 C 9.80178165435791 27.47245407104492 9.801222801208496 27.47295761108398 9.800638198852539 27.47350120544434 C 9.800090789794922 27.47406196594238 9.799447059631348 27.4746150970459 9.798871040344238 27.47515296936035 C 9.798871040344238 27.47515296936035 9.798836708068848 27.47518348693848 9.798836708068848 27.47518348693848 C 9.798252105712891 27.47572898864746 9.797731399536133 27.47627830505371 9.797100067138672 27.47679710388184 C 9.796505928039551 27.47734832763672 9.795977592468262 27.47781753540039 9.795377731323242 27.47838973999023 C 9.79017448425293 27.48318862915039 9.784920692443848 27.4879264831543 9.779633522033691 27.49259185791016 C 9.779037475585938 27.49313354492188 9.778488159179688 27.49360275268555 9.777901649475098 27.49411773681641 C 9.777332305908203 27.4946174621582 9.776721954345703 27.49515151977539 9.776152610778809 27.49564933776855 C 9.775564193725586 27.49615859985352 9.774993896484375 27.49665832519531 9.774407386779785 27.49716949462891 C 9.773811340332031 27.49768829345703 9.773246765136719 27.49817657470703 9.772650718688965 27.49869346618652 C 9.772078514099121 27.49920082092285 9.771503448486328 27.49968528747559 9.770923614501953 27.50018501281738 C 9.770339965820312 27.50069618225098 9.769752502441406 27.50119400024414 9.7691650390625 27.50169563293457 C 9.768586158752441 27.50219345092773 9.767999649047852 27.50269508361816 9.767419815063477 27.50318908691406 C 9.766823768615723 27.50369834899902 9.766258239746094 27.50417900085449 9.76566219329834 27.50468444824219 C 9.765073776245117 27.50518417358398 9.76447582244873 27.50568962097168 9.763886451721191 27.50618743896484 C 9.763302803039551 27.50667762756348 9.762717247009277 27.50717353820801 9.762137413024902 27.50766181945801 C 9.761547088623047 27.50815391540527 9.760966300964355 27.50864410400391 9.760374069213867 27.50914001464844 C 9.75978946685791 27.50962448120117 9.759180068969727 27.5101375579834 9.758600234985352 27.5106201171875 C 9.758016586303711 27.5111026763916 9.757413864135742 27.51160621643066 9.756830215454102 27.5120906829834 C 9.756239891052246 27.51258277893066 9.75566577911377 27.51305770874023 9.755070686340332 27.5135440826416 C 9.754486083984375 27.51402473449707 9.753877639770508 27.5145263671875 9.753293991088867 27.51500701904297 C 9.752670288085938 27.5155200958252 9.752083778381348 27.51599884033203 9.751461029052734 27.51650619506836 C 9.75086784362793 27.51699447631836 9.750270843505859 27.51747703552246 9.74967098236084 27.51796531677246 C 9.74908447265625 27.5184383392334 9.748478889465332 27.51892852783203 9.747890472412109 27.51940727233887 C 9.747283935546875 27.51990127563477 9.746701240539551 27.5203685760498 9.746092796325684 27.5208568572998 C 9.745511054992676 27.52132606506348 9.744893074035645 27.52182197570801 9.744312286376953 27.52228546142578 C 9.743695259094238 27.52277755737305 9.743099212646484 27.52325630187988 9.74247932434082 27.52375030517578 C 9.74183464050293 27.52426528930664 9.741164207458496 27.52479362487793 9.740513801574707 27.52531242370605 C 9.739752769470215 27.52590942382812 9.738983154296875 27.52651977539062 9.738215446472168 27.52712821960449 C 9.73759937286377 27.52760887145996 9.737019538879395 27.52806854248047 9.73640251159668 27.52855110168457 C 9.735798835754395 27.52902793884277 9.73520565032959 27.52948760986328 9.734599113464355 27.52996253967285 C 9.73398494720459 27.53043937683105 9.73341178894043 27.5308895111084 9.732797622680664 27.53136253356934 C 9.732203483581543 27.53182411193848 9.731579780578613 27.53230476379395 9.730983734130859 27.53276634216309 C 9.730388641357422 27.53322601318359 9.729764938354492 27.5337085723877 9.729168891906738 27.53416442871094 C 9.728572845458984 27.53462219238281 9.727963447570801 27.53509330749512 9.727365493774414 27.53554725646973 C 9.72675895690918 27.5360107421875 9.726151466369629 27.53647613525391 9.725544929504395 27.53693580627441 C 9.72493839263916 27.53739738464355 9.724324226379395 27.53786277770996 9.72371768951416 27.53832244873047 C 9.723109245300293 27.53878593444824 9.72249698638916 27.53924560546875 9.721888542175293 27.53970527648926 C 9.721288681030273 27.5401554107666 9.72065544128418 27.5406322479248 9.720054626464844 27.54108238220215 C 9.719435691833496 27.54154968261719 9.718838691711426 27.5419921875 9.718219757080078 27.54245567321777 C 9.717599868774414 27.54291725158691 9.717029571533203 27.5433406829834 9.716409683227539 27.54380226135254 C 9.715779304504395 27.54427146911621 9.715200424194336 27.54470443725586 9.714567184448242 27.545166015625 C 9.713945388793945 27.54562759399414 9.713332176208496 27.54607772827148 9.712708473205566 27.54653549194336 C 9.712085723876953 27.5469970703125 9.711464881896973 27.54745101928711 9.710838317871094 27.54790687561035 C 9.71021556854248 27.54836082458496 9.709615707397461 27.54880142211914 9.708989143371582 27.54925727844238 C 9.708381652832031 27.54969596862793 9.707736015319824 27.55016708374023 9.707130432128906 27.55060577392578 C 9.706520080566406 27.5510425567627 9.705900192260742 27.55149459838867 9.705293655395508 27.55193138122559 C 9.704648017883301 27.55239486694336 9.704025268554688 27.55284690856934 9.703377723693848 27.55330848693848 C 9.702750205993652 27.55376243591309 9.702131271362305 27.55420112609863 9.701499938964844 27.55465126037598 C 9.700878143310547 27.55508995056152 9.700271606445312 27.55552864074707 9.699649810791016 27.55596733093262 C 9.69899845123291 27.55642890930176 9.698343276977539 27.55689239501953 9.697691917419434 27.55735397338867 C 9.697039604187012 27.55780982971191 9.6964111328125 27.55825805664062 9.695755958557129 27.5587158203125 C 9.695161819458008 27.55912971496582 9.694560050964355 27.55955505371094 9.693964958190918 27.55997085571289 C 9.69325065612793 27.56046867370605 9.692569732666016 27.56094360351562 9.691854476928711 27.56144142150879 C 9.691720962524414 27.5615348815918 9.691586494445801 27.5616283416748 9.691452980041504 27.56172180175781 C 9.689569473266602 27.56302833557129 9.687685012817383 27.56432723999023 9.685793876647949 27.56562042236328 C 9.685169219970703 27.5660400390625 9.684516906738281 27.56649208068848 9.683895111083984 27.56691551208496 C 9.683245658874512 27.56735610961914 9.682653427124023 27.56775856018066 9.681998252868652 27.56820297241211 C 9.681365013122559 27.56862640380859 9.68073844909668 27.56905364990234 9.680105209350586 27.56948089599609 C 9.679461479187012 27.56991195678711 9.678865432739258 27.57031440734863 9.678221702575684 27.57074546813965 C 9.67759895324707 27.57116317749023 9.676960945129395 27.57158851623535 9.676336288452148 27.5720043182373 C 9.675694465637207 27.57243537902832 9.675067901611328 27.57284927368164 9.674422264099121 27.57327651977539 C 9.67378044128418 27.57371520996094 9.673153877258301 27.57411956787109 9.672508239746094 27.57454299926758 C 9.671871185302734 27.57496452331543 9.671233177185059 27.57538223266602 9.670597076416016 27.57580184936523 C 9.669941902160645 27.57623291015625 9.6693115234375 27.57664489746094 9.668654441833496 27.57707214355469 C 9.668015480041504 27.57749366760254 9.667369842529297 27.57790946960449 9.666731834411621 27.57832527160645 C 9.666101455688477 27.57873153686523 9.665448188781738 27.57915687561035 9.664817810058594 27.57956504821777 C 9.664159774780273 27.57999420166016 9.663546562194824 27.58038711547852 9.662886619567871 27.580810546875 C 9.662204742431641 27.58124923706055 9.66159725189209 27.58163452148438 9.660915374755859 27.58207321166992 C 9.660266876220703 27.58248901367188 9.659616470336914 27.58290481567383 9.658962249755859 27.58331871032715 C 9.658296585083008 27.58373260498047 9.657617568969727 27.58417129516602 9.656952857971191 27.5845947265625 C 9.656309127807617 27.58501243591309 9.655659675598145 27.58541107177734 9.655012130737305 27.58581924438477 C 9.654358863830566 27.58621788024902 9.65367317199707 27.5866584777832 9.65301513671875 27.58707237243652 C 9.652956008911133 27.58710861206055 9.652911186218262 27.58713722229004 9.652853012084961 27.58717346191406 C 9.591005325317383 27.62586975097656 9.52548885345459 27.65715980529785 9.457730293273926 27.68102836608887 L 9.437597274780273 27.62388038635254 C 9.437597274780273 27.62388038635254 9.437597274780273 27.62388038635254 9.437597274780273 27.62388038635254 L 9.457730293273926 27.68102836608887 C 9.375068664550781 27.71015167236328 9.289059638977051 27.72824096679688 9.202227592468262 27.73529624938965 C 9.202227592468262 27.73529624938965 9.202214241027832 27.73529624938965 9.202214241027832 27.73529624938965 C 9.19951343536377 27.73551559448242 9.196934700012207 27.73554992675781 9.194107055664062 27.73592376708984 C 9.193216323852539 27.73598861694336 9.192292213439941 27.73606491088867 9.19139289855957 27.73611831665039 C 9.188671112060547 27.7363109588623 9.185941696166992 27.73649597167969 9.183224678039551 27.73666191101074 C 9.182303428649902 27.73671913146973 9.181427955627441 27.73677825927734 9.180506706237793 27.73682975769043 C 9.179630279541016 27.73688125610352 9.178807258605957 27.73692321777344 9.177940368652344 27.73698043823242 C 9.176089286804199 27.73708724975586 9.174272537231445 27.7371940612793 9.172414779663086 27.73728179931641 C 9.171491622924805 27.73733329772949 9.170595169067383 27.73738861083984 9.169666290283203 27.7374210357666 C 9.16879940032959 27.73746490478516 9.167953491210938 27.73750114440918 9.167086601257324 27.73754692077637 C 9.166244506835938 27.73758506774902 9.165408134460449 27.73756217956543 9.164568901062012 27.73766136169434 C 9.163548469543457 27.73770523071289 9.162533760070801 27.73773574829102 9.161515235900879 27.73779296875 C 9.160616874694824 27.73782920837402 9.159696578979492 27.73786544799805 9.158797264099121 27.73790168762207 C 9.157931327819824 27.73793601989746 9.157089233398438 27.73796463012695 9.156223297119141 27.73799896240234 C 9.155394554138184 27.7380256652832 9.154571533203125 27.7380485534668 9.153752326965332 27.73808479309082 C 9.152766227722168 27.73811721801758 9.151728630065918 27.7381477355957 9.150753021240234 27.73818206787109 C 9.149840354919434 27.73820877075195 9.14891242980957 27.73823738098145 9.147994995117188 27.7382640838623 C 9.147143363952637 27.73828887939453 9.146268844604492 27.73830986022949 9.145417213439941 27.73833465576172 C 9.14458179473877 27.73835372924805 9.143717765808105 27.73838424682617 9.142885208129883 27.73839569091797 C 9.141867637634277 27.7384204864502 9.140834808349609 27.73844146728516 9.139822959899902 27.73846244812012 C 9.138925552368164 27.73848342895508 9.138031005859375 27.73850250244141 9.137134552001953 27.7385139465332 C 9.136272430419922 27.7385311126709 9.135434150695801 27.73853874206543 9.13457202911377 27.73855781555176 C 9.133749961853027 27.73857116699219 9.132917404174805 27.73858261108398 9.132091522216797 27.73859214782715 C 9.131096839904785 27.73860168457031 9.130107879638672 27.73861694335938 9.129115104675293 27.73862648010254 C 9.128190994262695 27.73863410949707 9.127248764038086 27.7386417388916 9.12632942199707 27.73864936828613 C 9.125467300415039 27.73865699768066 9.124632835388184 27.73866653442383 9.12376880645752 27.7386646270752 C 9.122936248779297 27.73867034912109 9.122106552124023 27.73867797851562 9.12127685546875 27.73867416381836 C 9.120449066162109 27.73867607116699 9.119627952575684 27.73867797851562 9.118800163269043 27.73867797851562 C 9.118800163269043 27.73867797851562 9.118800163269043 27.73867797851562 9.118800163269043 27.73867797851562 Z" stroke="none" fill="#024c99"/>
      </g>
      <path id="Union_86" data-name="Union 86" d="M6.681,21.688,4.936,17.794H3a3,3,0,0,1-3-3V3A3,3,0,0,1,3,0H23.323a3,3,0,0,1,3,3V14.793a3,3,0,0,1-3,3H10.251L8.506,21.688a1,1,0,0,1-1.825,0Z" transform="translate(9.676 0)" fill="#fece00"/>
      <circle id="Ellipse_2498" data-name="Ellipse 2498" cx="2.065" cy="2.065" r="2.065" transform="translate(13.553 7.104)" fill="#fff"/>
      <circle id="Ellipse_2499" data-name="Ellipse 2499" cx="2.065" cy="2.065" r="2.065" transform="translate(20.785 7.104)" fill="#fff"/>
      <circle id="Ellipse_2500" data-name="Ellipse 2500" cx="2.065" cy="2.065" r="2.065" transform="translate(28.02 7.104)" fill="#fff"/>
    </g>
  </g>
</svg>
