<svg xmlns="http://www.w3.org/2000/svg" width="12.155" height="11.225" viewBox="0 0 12.155 11.225">
  <g id="noun-deadline-3697060" transform="translate(-176.863 -120.274)">
    <path id="Path_19466" data-name="Path 19466" d="M187.9,121.2a1.088,1.088,0,0,0-2.124,0H185.3a1.088,1.088,0,0,0-2.124,0H182.7a1.088,1.088,0,0,0-2.124,0H180.1a1.088,1.088,0,0,0-2.124,0,1.054,1.054,0,0,0-1.042,1.053v8.117a1.055,1.055,0,0,0,1.054,1.054h9.9a1.056,1.056,0,0,0,1.055-1.055v-8.116A1.054,1.054,0,0,0,187.9,121.2Zm-1.062-.371a.611.611,0,0,1,.561.37h-1.121A.611.611,0,0,1,186.839,120.829Zm-2.6,0a.611.611,0,0,1,.561.37h-1.122A.611.611,0,0,1,184.24,120.829Zm-2.6,0a.611.611,0,0,1,.561.37H181.08A.611.611,0,0,1,181.641,120.829Zm-2.6,0a.611.611,0,0,1,.561.37h-1.122A.611.611,0,0,1,179.042,120.829Zm-1.05.85H179.6a.611.611,0,0,1-.561.37.24.24,0,0,0,0,.48,1.091,1.091,0,0,0,1.062-.85h2.1a.611.611,0,0,1-.561.37.24.24,0,1,0,0,.48,1.091,1.091,0,0,0,1.062-.85h2.1a.611.611,0,0,1-.561.37.24.24,0,1,0,0,.48,1.091,1.091,0,0,0,1.062-.85h2.1a.611.611,0,0,1-.561.37.24.24,0,1,0,0,.48,1.091,1.091,0,0,0,1.062-.849.574.574,0,0,1,.562.573v.867H177.418v-.867a.574.574,0,0,1,.574-.574Zm9.9,9.264h-9.9a.574.574,0,0,1-.574-.574V123.6h11.045v6.768a.575.575,0,0,1-.575.575Z" fill="#007b0c" stroke="#007b0c" stroke-width="0.15"/>
    <path id="Path_19467" data-name="Path 19467" d="M263.559,230.4a3.106,3.106,0,1,0,3.106,3.106A3.109,3.109,0,0,0,263.559,230.4Zm0,5.732a2.626,2.626,0,1,1,2.626-2.626A2.628,2.628,0,0,1,263.559,236.132Z" transform="translate(-80.618 -106.234)" fill="#007b0c" stroke="#007b0c" stroke-width="0.15"/>
    <path id="Path_19468" data-name="Path 19468" d="M313.242,263.56a.24.24,0,0,0-.24.24v1.616l-1.01,1.01a.24.24,0,0,0,.34.34l1.081-1.081a.24.24,0,0,0,.07-.17V263.8a.24.24,0,0,0-.24-.24Z" transform="translate(-130.302 -138.244)" fill="#007b0c" stroke="#007b0c" stroke-width="0.15"/>
  </g>
</svg>
