<svg xmlns="http://www.w3.org/2000/svg" width="11.808" height="11.808" viewBox="0 0 11.808 11.808">
  <g id="noun_Pie_Chart_57106" data-name="noun_Pie Chart_57106" transform="translate(-35.914 -36.139)">
    <g id="Group_29606" data-name="Group 29606" transform="translate(35.914 36.139)">
      <path id="Path_15378" data-name="Path 15378" d="M41.818,47.947a5.9,5.9,0,1,1,5.9-5.9A5.911,5.911,0,0,1,41.818,47.947Zm0-10.634a4.73,4.73,0,1,0,4.73,4.73A4.735,4.735,0,0,0,41.818,37.313Z" transform="translate(-35.914 -36.139)" fill="#555"/>
    </g>
    <g id="Group_29607" data-name="Group 29607" transform="translate(41.331 41.556)">
      <path id="Path_15379" data-name="Path 15379" d="M55.314,50.7H50.078a.495.495,0,1,1,0-.975h5.235a.495.495,0,1,1,0,.975Z" transform="translate(-49.5 -49.725)" fill="#555"/>
    </g>
    <g id="Group_29608" data-name="Group 29608" transform="translate(41.331 36.139)">
      <path id="Path_15380" data-name="Path 15380" d="M49.987,42.531a.539.539,0,0,1-.487-.578V36.717a.495.495,0,1,1,.975,0v5.236A.539.539,0,0,1,49.987,42.531Z" transform="translate(-49.5 -36.139)" fill="#555"/>
    </g>
  </g>
</svg>
