<svg id="Group_29656" data-name="Group 29656" xmlns="http://www.w3.org/2000/svg" width="40" height="40" viewBox="0 0 40 40">
  <path id="Path_1954" data-name="Path 1954" d="M34.172,5.828a20,20,0,0,0-28.284.059A19.958,19.958,0,1,0,40,19.958,19.786,19.786,0,0,0,34.172,5.828Z" fill="#f60"/>
  <path id="Union_11" data-name="Union 11" d="M13.454,16.184l-5.008-5.01L3.581,16.037A1.977,1.977,0,0,1,.79,15.994a1.973,1.973,0,0,1-.033-2.781L5.622,8.35.6,3.33A1.956,1.956,0,0,1,.556.557,1.976,1.976,0,0,1,3.339.59L8.359,5.61,13.224.748a1.954,1.954,0,0,1,2.771.041,1.969,1.969,0,0,1,.053,2.783L11.183,8.434l5.012,5.01a1.968,1.968,0,0,1,.041,2.783,1.908,1.908,0,0,1-1.352.555A2.026,2.026,0,0,1,13.454,16.184Z" transform="translate(19.996 8.129) rotate(45)" fill="#fff"/>
</svg>
