<svg xmlns="http://www.w3.org/2000/svg" width="9.634" height="12.031" viewBox="0 0 9.634 12.031">
  <g id="Copy13123123" transform="translate(-48.65)">
    <g id="Group_29953" data-name="Group 29953" transform="translate(48.65)">
      <path id="Path_19217" data-name="Path 19217" d="M55.194,85.4H49.6a.952.952,0,0,0-.951.951v8.025a.952.952,0,0,0,.951.951h5.593a.952.952,0,0,0,.951-.951V86.351A.955.955,0,0,0,55.194,85.4Zm.283,8.974a.286.286,0,0,1-.286.286H49.6a.286.286,0,0,1-.286-.286V86.351a.286.286,0,0,1,.286-.286h5.593a.286.286,0,0,1,.286.286Z" transform="translate(-48.65 -83.296)" fill="#555"/>
      <path id="Path_19218" data-name="Path 19218" d="M141.994,0H136.4a.952.952,0,0,0-.951.951.333.333,0,0,0,.665,0A.286.286,0,0,1,136.4.665h5.593a.286.286,0,0,1,.286.286V8.976a.286.286,0,0,1-.286.286.333.333,0,0,0,0,.665.952.952,0,0,0,.951-.951V.951A.952.952,0,0,0,141.994,0Z" transform="translate(-133.311)" fill="#555"/>
    </g>
  </g>
</svg>
