<svg xmlns="http://www.w3.org/2000/svg" xmlns:xlink="http://www.w3.org/1999/xlink" width="11.875" height="11.875" viewBox="0 0 11.875 11.875">
  <defs>
    <clipPath id="clip-path">
      <rect id="Rectangle_8185" data-name="Rectangle 8185" width="11.875" height="11.875" transform="translate(0)" fill="#555"/>
    </clipPath>
  </defs>
  <g id="Mask_Group_197" data-name="Mask Group 197" clip-path="url(#clip-path)">
    <path id="edit" d="M10.141.46a1.578,1.578,0,0,0-2.229,0l-.558.561L1.413,6.958,1.4,6.971s0,.006-.006.006-.016.019-.022.028,0,0,0,.006l-.016.025s0,.006-.006.009-.006.016-.01.025,0,0,0,.006L.017,11.041a.31.31,0,0,0,.076.322.317.317,0,0,0,.224.092.372.372,0,0,0,.1-.016l3.96-1.321s0,0,.006,0a.114.114,0,0,0,.028-.013l.006,0,.031-.019c.009-.006.019-.016.028-.022s.006,0,.006-.006.01-.006.013-.013L11,3.54a1.578,1.578,0,0,0,0-2.229ZM4.276,9.376,2.082,7.182,7.574,1.69,9.769,3.884Zm-2.5-1.611L3.69,9.682l-2.879.958ZM10.551,3.1l-.334.337L8.022,1.242,8.36.9A.946.946,0,0,1,9.7.9l.858.858a.949.949,0,0,1,0,1.337Zm0,0" transform="translate(0.209 0.211)" fill="#555"/>
  </g>
</svg>
