<svg xmlns="http://www.w3.org/2000/svg" width="17.351" height="15.357" viewBox="0 0 17.351 15.357">
  <g id="Group_22752" data-name="Group 22752" transform="translate(-2 -3.77)">
    <path id="Path_11523" data-name="Path 11523" d="M6.957,7.239H2.62A.62.62,0,1,1,2.62,6H6.957a.62.62,0,1,0,0,1.239Z" transform="translate(0 -0.748)" fill="#555"/>
    <path id="Path_11524" data-name="Path 11524" d="M22.393,6.62a.62.62,0,0,1-.62.62H10A.62.62,0,1,0,10,6H21.774A.62.62,0,0,1,22.393,6.62Z" transform="translate(-3.043 -0.748)" fill="#555"/>
    <path id="Path_11525" data-name="Path 11525" d="M14.393,16.239H2.62A.62.62,0,1,1,2.62,15H14.393a.62.62,0,1,0,0,1.239Z" transform="translate(0 -4.171)" fill="#555"/>
    <path id="Path_11526" data-name="Path 11526" d="M26.957,15.62a.62.62,0,0,1-.62.62H22A.62.62,0,1,0,22,15h4.338A.62.62,0,0,1,26.957,15.62Z" transform="translate(-7.607 -4.171)" fill="#555"/>
    <path id="Path_11527" data-name="Path 11527" d="M6.957,25.239H2.62A.62.62,0,0,1,2.62,24H6.957a.62.62,0,1,0,0,1.239Z" transform="translate(0 -7.594)" fill="#555"/>
    <path id="Path_11528" data-name="Path 11528" d="M22.393,24.62a.62.62,0,0,1-.62.62H10A.62.62,0,1,0,10,24H21.774A.62.62,0,0,1,22.393,24.62Z" transform="translate(-3.043 -7.594)" fill="#555"/>
    <path id="Path_11529" data-name="Path 11529" d="M10.311,23.621a1.239,1.239,0,1,0,.167.62A1.239,1.239,0,0,0,10.311,23.621Zm-1.692.62a.62.62,0,1,1,.62.62A.62.62,0,0,1,8.62,24.241Z" transform="translate(-2.282 -7.215)" fill="#555"/>
    <path id="Path_11530" data-name="Path 11530" d="M11.109,23.419a2.118,2.118,0,0,0-3.982,0,2.026,2.026,0,0,0,0,1.412,2.118,2.118,0,0,0,3.982,0A2.026,2.026,0,0,0,11.109,23.419Zm-1.285.706a.706.706,0,1,1-.706-.706A.706.706,0,0,1,9.824,24.125Z" transform="translate(-2.161 -7.099)" fill="#555"/>
    <path id="Path_11531" data-name="Path 11531" d="M22.311,14.621a1.239,1.239,0,1,0,.167.62A1.239,1.239,0,0,0,22.311,14.621Zm-1.692.62a.62.62,0,1,1,.62.62A.62.62,0,0,1,20.62,15.241Z" transform="translate(-6.846 -3.792)" fill="#555"/>
    <path id="Path_11532" data-name="Path 11532" d="M22.9,14.347a2.008,2.008,0,0,0-3.776,0,1.921,1.921,0,0,0,0,1.339,2.008,2.008,0,0,0,3.776,0A1.921,1.921,0,0,0,22.9,14.347Zm-1.218.669a.669.669,0,1,1-.669-.669A.669.669,0,0,1,21.678,15.016Z" transform="translate(-6.615 -3.567)" fill="#555"/>
    <path id="Path_11533" data-name="Path 11533" d="M10.311,5.621a1.239,1.239,0,1,0,.167.62A1.239,1.239,0,0,0,10.311,5.621Zm-1.692.62a.62.62,0,1,1,.62.62A.62.62,0,0,1,8.62,6.241Z" transform="translate(-2.282 -0.369)" fill="#555"/>
    <path id="Path_11534" data-name="Path 11534" d="M11.11,5.419a2.118,2.118,0,0,0-3.983,0,2.027,2.027,0,0,0,0,1.412,2.118,2.118,0,0,0,3.983,0,2.027,2.027,0,0,0,0-1.412Zm-1.285.706a.706.706,0,1,1-.706-.706A.706.706,0,0,1,9.825,6.125Z" transform="translate(-2.161 -0.254)" fill="#555"/>
  </g>
</svg>
