<svg xmlns="http://www.w3.org/2000/svg" width="28.444" height="32" viewBox="0 0 28.444 32">
  <path id="Path_19938" data-name="Path 19938" d="M12,8.222V5.556h2.667a3.556,3.556,0,0,1,7.111,0h2.667V8.222Zm20.444-.889V32.222A1.778,1.778,0,0,1,30.667,34H5.778A1.778,1.778,0,0,1,4,32.222V7.333A1.778,1.778,0,0,1,5.778,5.556H9.333v5.333H27.111V5.556h3.556A1.778,1.778,0,0,1,32.444,7.333ZM9.333,21.556h7.111V14.444H9.333Zm4.813,5.885,2.514-2.514L15.4,23.67l-2.514,2.514L10.375,23.67,9.118,24.927l2.514,2.514L9.118,29.955l1.257,1.257L12.889,28.7,15.4,31.212l1.257-1.257Zm12.965-2.33H20v3.556h7.111Zm0-8.889H20v3.556h7.111Zm-16,3.556h3.556V16.222H11.111Z" transform="translate(-4 -2)" fill="#0a932e"/>
</svg>
