<svg xmlns="http://www.w3.org/2000/svg" width="17.5" height="14.768" viewBox="0 0 17.5 14.768">
  <path id="noun-repeat-1712152" d="M197.687,92.27a.4.4,0,0,0-.245.692l.871.794a7.129,7.129,0,0,0-.545,13.9.4.4,0,0,0,.206-.766,6.335,6.335,0,0,1,.5-12.352l-.528,1.076a.4.4,0,0,0,.712.348l.871-1.778a.4.4,0,0,0-.09-.467l-1.462-1.334a.4.4,0,0,0-.289-.107Zm3.657,1.591a.4.4,0,0,0-.088.78,6.336,6.336,0,0,1-.5,12.352l.528-1.076a.4.4,0,1,0-.712-.348l-.871,1.778a.4.4,0,0,0,.09.467l1.462,1.334a.4.4,0,1,0,.534-.585l-.871-.794a7.129,7.129,0,0,0,.545-13.9.394.394,0,0,0-.118-.014Z" transform="translate(109.52 -192.231) rotate(90)" fill="#555" stroke="#555" stroke-width="0.5"/>
</svg>
