<svg id="Group_28715" data-name="Group 28715" xmlns="http://www.w3.org/2000/svg" width="19.332" height="21.289" viewBox="0 0 19.332 21.289">
  <path id="Path_1969" data-name="Path 1969" d="M42,352.977a.863.863,0,0,0-.86.867V356.8a1.1,1.1,0,0,1-1.1,1.105H26.35a1.1,1.1,0,0,1-1.1-1.105v-2.958a.86.86,0,1,0-1.72,0V356.8a2.831,2.831,0,0,0,2.817,2.838h13.7a2.831,2.831,0,0,0,2.817-2.838v-2.958A.863.863,0,0,0,42,352.977Z" transform="translate(-23.533 -338.351)" fill="#fff"/>
  <path id="Path_1970" data-name="Path 1970" d="M150.559,1.481l-3.944,3.944a.867.867,0,0,1-1.225,0l-3.944-3.944A.867.867,0,0,1,142.672.255L146,3.586,149.334.255a.867.867,0,1,1,1.226,1.225Z" transform="translate(-136.337 9.756)" fill="#fff"/>
  <path id="Path_1971" data-name="Path 1971" d="M236.185,15.536a.867.867,0,0,1-.867-.867V.867a.867.867,0,0,1,1.733,0v13.8A.867.867,0,0,1,236.185,15.536Z" transform="translate(-226.518)" fill="#fff"/>
</svg>
