<svg xmlns="http://www.w3.org/2000/svg" width="18.2" height="18.683" viewBox="0 0 18.2 18.683">
  <g id="Group_4595" data-name="Group 4595" transform="translate(0.1 0.1)">
    <path id="Path_1967" data-name="Path 1967" d="M72.182,45.04a.9.9,0,0,1,.227-.569,2.733,2.733,0,0,0,.825-1.962,2.686,2.686,0,0,0-.825-1.962.8.8,0,1,1,1.137-1.137,4.394,4.394,0,0,1,0,6.2.807.807,0,0,1-1.137,0A.845.845,0,0,1,72.182,45.04Z" transform="translate(-56.827 -33.268)" fill="#555" stroke="#555" stroke-width="0.2"/>
    <path id="Path_1968" data-name="Path 1968" d="M30.086,36.883a1.7,1.7,0,0,1-1.024-.341l-6.654-4.919h-2.5A1.711,1.711,0,0,1,18.2,29.916v-4.55a1.711,1.711,0,0,1,1.706-1.706h2.5l6.654-4.919a1.644,1.644,0,0,1,1.024-.341,1.781,1.781,0,0,1,.768.171h0a1.719,1.719,0,0,1,.938,1.536V35.148a1.719,1.719,0,0,1-.938,1.536A1.409,1.409,0,0,1,30.086,36.883ZM19.906,25.367v4.521h2.787a.852.852,0,0,1,.512.171l6.881,5.09V20.135L23.2,25.2a.794.794,0,0,1-.512.171H19.906Z" transform="translate(-18.2 -18.4)" fill="#555" stroke="#555" stroke-width="0.2"/>
  </g>
</svg>
