<svg xmlns="http://www.w3.org/2000/svg" width="20.5" height="20.5" viewBox="0 0 20.5 20.5">
  <g id="Group_27185" data-name="Group 27185" transform="translate(0.25 0.25)">
    <path id="Path_14581" data-name="Path 14581" d="M328.57,57.614A2.617,2.617,0,0,0,325.956,55h-3.948a.523.523,0,0,0,0,1.046h3.948a1.57,1.57,0,0,1,1.568,1.568v4.233a.523.523,0,1,0,1.046,0Z" transform="translate(-308.57 -55)" fill="#fff" stroke="#fff" stroke-width="0.5"/>
    <path id="Path_14582" data-name="Path 14582" d="M328.047,321.486a.523.523,0,0,0-.523.523v3.948a1.57,1.57,0,0,1-1.568,1.568h-3.948a.523.523,0,0,0,0,1.046h3.948a2.617,2.617,0,0,0,2.614-2.614v-3.948A.523.523,0,0,0,328.047,321.486Z" transform="translate(-308.57 -308.571)" fill="#fff" stroke="#fff" stroke-width="0.5"/>
    <path id="Path_14583" data-name="Path 14583" d="M55.523,321.486a.523.523,0,0,0-.523.523v3.948a2.617,2.617,0,0,0,2.614,2.614h3.948a.523.523,0,1,0,0-1.046H57.614a1.57,1.57,0,0,1-1.568-1.568v-3.948A.523.523,0,0,0,55.523,321.486Z" transform="translate(-55 -308.571)" fill="#fff" stroke="#fff" stroke-width="0.5"/>
    <path id="Path_14584" data-name="Path 14584" d="M62.37,55.523A.523.523,0,0,0,61.847,55H57.614A2.617,2.617,0,0,0,55,57.614v3.948a.523.523,0,1,0,1.046,0V57.614a1.57,1.57,0,0,1,1.568-1.568h4.233A.523.523,0,0,0,62.37,55.523Z" transform="translate(-55 -55)" fill="#fff" stroke="#fff" stroke-width="0.5"/>
  </g>
</svg>
