<svg xmlns="http://www.w3.org/2000/svg" width="21.852" height="21.853" viewBox="0 0 21.852 21.853">
  <g id="Group_29583" data-name="Group 29583" transform="translate(-1032.861 -1459.509) rotate(45)">
    <g id="Group_29574" data-name="Group 29574" transform="translate(1554.357 1373.134) rotate(-90)">
      <g id="Group_27200" data-name="Group 27200" transform="translate(1060 227.174) rotate(-90)">
        <path id="Path_1970" data-name="Path 1970" d="M7.171,3.214,4.152.194a.663.663,0,0,0-.938,0L.194,3.214a.663.663,0,0,0,.938.938L3.683,1.6l2.55,2.55a.663.663,0,1,0,.938-.938Z" transform="translate(0 0)" fill="#fff" stroke="#fff" stroke-width="0.25"/>
        <path id="Path_1971" data-name="Path 1971" d="M.663,0A.663.663,0,0,0,0,.663V11.231a.663.663,0,0,0,1.327,0V.663A.663.663,0,0,0,.663,0Z" transform="translate(3.02 0)" fill="#fff" stroke="#fff" stroke-width="0.25"/>
      </g>
      <g id="Group_29569" data-name="Group 29569" transform="translate(1071 227.174) rotate(-90)">
        <path id="Path_1970-2" data-name="Path 1970" d="M7.172,1.133,4.152,4.152a.663.663,0,0,1-.938,0L.194,1.133A.663.663,0,0,1,1.133.194l2.55,2.55L6.233.194a.663.663,0,1,1,.938.938Z" transform="translate(0 7.549)" fill="#fff" stroke="#fff" stroke-width="0.25"/>
        <path id="Path_1971-2" data-name="Path 1971" d="M.663,12.411A.678.678,0,0,1,0,11.719V.692A.678.678,0,0,1,.663,0a.678.678,0,0,1,.663.692V11.719A.678.678,0,0,1,.663,12.411Z" transform="translate(3.02 -0.516)" fill="#fff" stroke="#fff" stroke-width="0.25"/>
      </g>
    </g>
  </g>
</svg>
