<svg id="Group_27308" data-name="Group 27308" xmlns="http://www.w3.org/2000/svg" width="20" height="20" viewBox="0 0 20 20">
  <path id="Path_1986" data-name="Path 1986" d="M16.926,12.826a.57.57,0,0,1,.519-.346h.075a2.479,2.479,0,1,0,0-4.958h-.139a.571.571,0,0,1-.473-.255.81.81,0,0,0-.053-.166.568.568,0,0,1,.112-.627l.044-.044,0,0a2.479,2.479,0,0,0,0-3.5l0,0a2.463,2.463,0,0,0-1.752-.725h0a2.463,2.463,0,0,0-1.752.727l-.046.046a.568.568,0,0,1-.627.112l-.008,0a.569.569,0,0,1-.346-.519V2.48a2.479,2.479,0,1,0-4.958,0v.139a.571.571,0,0,1-.255.473.81.81,0,0,0-.166.053.568.568,0,0,1-.627-.112l-.048-.048A2.463,2.463,0,0,0,4.673,2.26h0A2.48,2.48,0,0,0,2.919,6.494l.046.046a.568.568,0,0,1,.112.627c-.007.016-.013.031-.019.047a.568.568,0,0,1-.515.373H2.479a2.479,2.479,0,1,0,0,4.958h.139a.571.571,0,0,1,.522.346l0,.008a.568.568,0,0,1-.112.627l-.046.046,0,0a2.479,2.479,0,0,0,0,3.5l0,0a2.482,2.482,0,0,0,3.5,0l.046-.046a.568.568,0,0,1,.627-.112l.047.019a.568.568,0,0,1,.374.515v.064a2.479,2.479,0,0,0,4.958,0v-.139a.571.571,0,0,1,.346-.523l.008,0a.568.568,0,0,1,.627.112l.048.048a2.463,2.463,0,0,0,1.752.725h0a2.481,2.481,0,0,0,1.752-4.234l-.046-.046a.568.568,0,0,1-.112-.627Zm-1.044,1.768.006.006.05.05a.865.865,0,0,1-.611,1.476h0a.858.858,0,0,1-.611-.254l-.05-.05-.006-.006A2.2,2.2,0,0,0,10.93,17.38v.142a.863.863,0,1,1-1.727,0v-.075c0-.006,0-.013,0-.019A2.175,2.175,0,0,0,7.8,15.436a2.176,2.176,0,0,0-2.389.447l-.006.006-.05.05a.864.864,0,0,1-1.221,0l0,0a.863.863,0,0,1,0-1.219l0,0,.048-.048.006-.006a2.2,2.2,0,0,0-1.564-3.729H2.479a.863.863,0,0,1,0-1.727h.094A2.175,2.175,0,0,0,4.565,7.8a2.176,2.176,0,0,0-.447-2.389L4.112,5.4l-.05-.05a.865.865,0,0,1,.611-1.476h0a.859.859,0,0,1,.611.254l.05.05.006.006a2.175,2.175,0,0,0,2.255.5.808.808,0,0,0,.216-.059,2.187,2.187,0,0,0,1.325-2V2.48a.863.863,0,1,1,1.727,0v.078a2.2,2.2,0,0,0,3.729,1.56l.006-.006.05-.05a.858.858,0,0,1,.61-.253h0a.858.858,0,0,1,.609.251l0,0a.863.863,0,0,1,0,1.22l0,0-.05.05-.006.006a2.175,2.175,0,0,0-.5,2.255.81.81,0,0,0,.059.216,2.187,2.187,0,0,0,2,1.325h.142a.863.863,0,1,1,0,1.727h-.078a2.2,2.2,0,0,0-1.56,3.729Z" transform="translate(0 -0.001)" fill="#f6f6f6"/>
  <path id="Path_1987" data-name="Path 1987" d="M174.57,171.142a3.43,3.43,0,1,0,3.43,3.43A3.434,3.434,0,0,0,174.57,171.142Zm0,5.187a1.758,1.758,0,1,1,1.758-1.758A1.76,1.76,0,0,1,174.57,176.329Z" transform="translate(-164.57 -164.572)" fill="#f6f6f6"/>
</svg>
