<svg id="Group_27309" data-name="Group 27309" xmlns="http://www.w3.org/2000/svg" width="20" height="19.999" viewBox="0 0 20 19.999">
  <text id="CC" transform="translate(4 13)" fill="#f6f6f6" font-size="9" font-family="Nunito-Bold, Nunito" font-weight="700"><tspan x="0" y="0">CC</tspan></text>
  <g id="Group_4455" data-name="Group 4455">
    <path id="Path_1980" data-name="Path 1980" d="M36.041,36.4H20.79a2.353,2.353,0,0,1-2.39-2.317V18.717A2.353,2.353,0,0,1,20.79,16.4h15.22a2.353,2.353,0,0,1,2.39,2.317V34.082A2.306,2.306,0,0,1,36.041,36.4ZM20.79,18.229a.489.489,0,0,0-.5.488V34.082a.489.489,0,0,0,.5.488h15.22a.489.489,0,0,0,.5-.488V18.717a.489.489,0,0,0-.5-.488Z" transform="translate(-18.4 -16.4)" fill="#fff"/>
  </g>
</svg>
