<svg xmlns="http://www.w3.org/2000/svg" width="20.4" height="21.201" viewBox="0 0 20.4 21.201">
  <g id="Group_27188" data-name="Group 27188" transform="translate(0.2 0.2)">
    <path id="Path_14585" data-name="Path 14585" d="M18.054,20.968H2.28a2.159,2.159,0,0,1-2.113-2.2V2.364A2.159,2.159,0,0,1,2.28.167H18.054a2.159,2.159,0,0,1,2.113,2.2V18.77A2.159,2.159,0,0,1,18.054,20.968ZM2.28,1.046A1.3,1.3,0,0,0,1.012,2.364V18.77A1.3,1.3,0,0,0,2.28,20.089H18.054a1.3,1.3,0,0,0,1.268-1.318V2.364a1.3,1.3,0,0,0-1.268-1.318Z" transform="translate(-0.167 -0.167)" fill="#fff" stroke="#fff" stroke-width="0.4"/>
    <g id="Group_27186" data-name="Group 27186" transform="translate(10.275 7.329)">
      <path id="Path_14586" data-name="Path 14586" d="M21.484,14.648a.439.439,0,0,0,.311-.75l-2.321-2.321L21.8,9.256a.439.439,0,0,0-.621-.621l-2.631,2.632a.44.44,0,0,0,0,.621l2.631,2.632A.437.437,0,0,0,21.484,14.648Z" transform="translate(-18.413 -8.506)" fill="#fff" stroke="#fff" stroke-width="0.4"/>
      <path id="Path_14587" data-name="Path 14587" d="M13.5,12.379h7.335a.44.44,0,0,0,0-.879H13.5a.44.44,0,0,0,0,.879Z" transform="translate(-13.062 -8.868)" fill="#fff" stroke="#fff" stroke-width="0.4"/>
    </g>
    <g id="Group_27187" data-name="Group 27187" transform="translate(1.509 7.329)">
      <path id="Path_14588" data-name="Path 14588" d="M2.031,14.648a.441.441,0,0,0,.311-.128l2.632-2.632a.441.441,0,0,0,0-.622L2.342,8.634a.439.439,0,1,0-.621.621l2.321,2.321L1.721,13.9a.439.439,0,0,0,.31.75Z" transform="translate(3.112 -8.506)" fill="#fff" stroke="#fff" stroke-width="0.4"/>
      <path id="Path_14589" data-name="Path 14589" d="M2.031,12.379H9.367a.44.44,0,0,0,0-.879H2.031a.44.44,0,0,0,0,.879Z" transform="translate(-1.592 -8.868)" fill="#fff" stroke="#fff" stroke-width="0.4"/>
    </g>
  </g>
</svg>
