<svg xmlns="http://www.w3.org/2000/svg" width="26.105" height="22.63" viewBox="0 0 26.105 22.63">
  <g id="Group_27042" data-name="Group 27042" transform="translate(-8616.603 8308)">
    <path id="Path_14571" data-name="Path 14571" d="M48.167,48.3h-7.6a.605.605,0,0,1-.605-.605V40.105a.605.605,0,0,1,.605-.605h7.6a.605.605,0,0,1,.605.605V47.7A.605.605,0,0,1,48.167,48.3Zm-6.98-1.21h6.375V40.7H41.187Z" transform="translate(8585.453 -8340.586)" fill="#fff"/>
    <path id="Path_14572" data-name="Path 14572" d="M54.49,36.369a.605.605,0,0,1-.746.4l-1.868-.525A11.3,11.3,0,0,1,35.615,50.6a.605.605,0,0,1,.642-1.025,10.087,10.087,0,0,0,14.4-13.024l-.924,2.146a.605.605,0,1,1-1.106-.488l1.408-3.179a.605.605,0,0,1,.718-.339l3.312.92a.605.605,0,0,1,.42.763Z" transform="translate(8588.191 -8337.709)" fill="#fff"/>
    <path id="Path_14573" data-name="Path 14573" d="M37.251,24.731a.605.605,0,0,1-.827.218A10.087,10.087,0,0,0,21.991,37.493l.912-2.066a.608.608,0,0,1,1.11.5L22.6,39.1a.605.605,0,0,1-.718.339l-3.333-.936a.608.608,0,1,1,.315-1.174l1.957.549A11.3,11.3,0,0,1,37.025,23.9a.605.605,0,0,1,.226.827Z" transform="translate(8598.5 -8330.345)" fill="#fff"/>
  </g>
</svg>
