<svg xmlns="http://www.w3.org/2000/svg" width="20.5" height="20.5" viewBox="0 0 20.5 20.5">
  <g id="Group_27185" data-name="Group 27185" transform="translate(0.25 0.25)">
    <path id="Path_14581" data-name="Path 14581" d="M321.485,59.756A2.617,2.617,0,0,0,324.1,62.37h3.948a.523.523,0,0,0,0-1.046H324.1a1.57,1.57,0,0,1-1.568-1.568V55.523a.523.523,0,1,0-1.045,0Z" transform="translate(-308.569 -55)" fill="#fff" stroke="#fff" stroke-width="0.5"/>
    <path id="Path_14582" data-name="Path 14582" d="M322.008,328.57a.523.523,0,0,0,.523-.523V324.1a1.57,1.57,0,0,1,1.568-1.568h3.948a.523.523,0,0,0,0-1.045H324.1a2.617,2.617,0,0,0-2.614,2.614v3.947A.523.523,0,0,0,322.008,328.57Z" transform="translate(-308.569 -308.57)" fill="#fff" stroke="#fff" stroke-width="0.5"/>
    <path id="Path_14583" data-name="Path 14583" d="M61.562,328.57a.523.523,0,0,0,.523-.523V324.1a2.617,2.617,0,0,0-2.614-2.614H55.523a.523.523,0,1,0,0,1.045h3.948a1.57,1.57,0,0,1,1.568,1.568v3.947A.523.523,0,0,0,61.562,328.57Z" transform="translate(-55 -308.57)" fill="#fff" stroke="#fff" stroke-width="0.5"/>
    <path id="Path_14584" data-name="Path 14584" d="M55,61.562a.523.523,0,0,0,.523.523h4.233a2.617,2.617,0,0,0,2.614-2.614V55.523a.523.523,0,1,0-1.046,0v3.948a1.57,1.57,0,0,1-1.568,1.568H55.523A.523.523,0,0,0,55,61.562Z" transform="translate(-55 -55)" fill="#fff" stroke="#fff" stroke-width="0.5"/>
  </g>
</svg>
