<svg xmlns="http://www.w3.org/2000/svg" width="45.344" height="43.848" viewBox="0 0 45.344 43.848">
  <g id="noun_Refresh_2261804" transform="translate(-5.439 15.152) rotate(-30)">
    <g id="Group_29447" data-name="Group 29447" transform="translate(3.991 4.999)">
      <path id="Path_15371" data-name="Path 15371" d="M37.527,16.247a1.357,1.357,0,0,0-1.927,0l-1.872,1.872a14.924,14.924,0,1,0-14.8,16.728,1.357,1.357,0,1,0,0-2.713,12.21,12.21,0,1,1,12.02-14.327l-1.56-1.56a1.362,1.362,0,0,0-1.927,1.927l4.07,4.07a1.357,1.357,0,0,0,1.927,0l4.07-4.07a1.357,1.357,0,0,0,0-1.927Z" transform="translate(-3.991 -4.999)" fill="#fff" stroke="#fff" stroke-width="0.75"/>
    </g>
  </g>
</svg>
