<svg xmlns="http://www.w3.org/2000/svg" width="578.667" height="452.26" viewBox="0 0 578.667 452.26">
  <g id="Group_27214" data-name="Group 27214" transform="translate(-104 -413)">
    <g id="Rectangle_8268" data-name="Rectangle 8268" transform="translate(104 413)" fill="#fff" stroke="rgba(85,85,85,0.1)" stroke-width="1">
      <rect width="578.667" height="452.26" rx="8" stroke="none"/>
      <rect x="0.5" y="0.5" width="577.667" height="451.26" rx="7.5" fill="none"/>
    </g>
    <g id="Group_16266" data-name="Group 16266" transform="translate(126.289 496)">
      <g id="Rectangle_6174" data-name="Rectangle 6174" fill="#87ff71" stroke="rgba(0,0,0,0)" stroke-width="1" opacity="0">
        <rect width="534.997" height="49.767" stroke="none"/>
        <rect x="0.5" y="0.5" width="533.997" height="48.767" fill="none"/>
      </g>
      <text id="July_2021" data-name="July 2021" transform="translate(267.176 30.331)" font-size="16" font-family="OpenSans-Bold, Open Sans" font-weight="700"><tspan x="-35.242" y="0">July 2021</tspan></text>
      <path id="Path_8700" data-name="Path 8700" d="M2.776,0-5,7.776l7.776,7.776" transform="translate(25.996 17.885)" fill="none" stroke="#000" stroke-width="1.28"/>
      <path id="Path_8701" data-name="Path 8701" d="M0,0,7.776,7.776,0,15.552" transform="translate(505.591 17.885)" fill="none" stroke="#000" stroke-width="1.28"/>
      <rect id="Rectangle_6175" data-name="Rectangle 6175" width="49.767" height="49.767" transform="translate(0 49.767)" fill="#87ff71" opacity="0"/>
      <text id="Sun" transform="translate(23.331 77.654)" font-size="16" font-family="OpenSans, Open Sans"><tspan x="-14.211" y="0">Sun</tspan></text>
      <rect id="Rectangle_6176" data-name="Rectangle 6176" width="49.767" height="49.767" transform="translate(85.537 49.767)" fill="#87ff71" opacity="0"/>
      <text id="Mon" transform="translate(104.093 77.654)" font-size="16" font-family="OpenSans, Open Sans"><tspan x="-16.965" y="0">Mon</tspan></text>
      <rect id="Rectangle_6177" data-name="Rectangle 6177" width="49.767" height="49.767" transform="translate(161.743 49.767)" fill="#87ff71" opacity="0"/>
      <text id="Tue" transform="translate(186.63 77.654)" font-size="16" font-family="OpenSans, Open Sans"><tspan x="-13.824" y="0">Tue</tspan></text>
      <rect id="Rectangle_6178" data-name="Rectangle 6178" width="49.767" height="49.767" transform="translate(242.615 49.767)" fill="#87ff71" opacity="0"/>
      <text id="Wed" transform="translate(265.836 77.654)" font-size="16" font-family="OpenSans, Open Sans"><tspan x="-16.797" y="0">Wed</tspan></text>
      <rect id="Rectangle_6179" data-name="Rectangle 6179" width="49.767" height="49.767" transform="translate(323.487 49.767)" fill="#87ff71" opacity="0"/>
      <text id="Thu" transform="translate(343.708 77.654)" font-size="16" font-family="OpenSans, Open Sans"><tspan x="-14.246" y="0">Thu</tspan></text>
      <rect id="Rectangle_6180" data-name="Rectangle 6180" width="49.767" height="49.767" transform="translate(399.693 49.767)" fill="#87ff71" opacity="0"/>
      <text id="Fri" transform="translate(420.134 75.654)" font-size="14" font-family="OpenSans, Open Sans"><tspan x="-8.241" y="0">Fri</tspan></text>
      <rect id="Rectangle_6181" data-name="Rectangle 6181" width="49.767" height="49.767" transform="translate(485.23 49.767)" fill="#87ff71" opacity="0"/>
      <text id="Sat" transform="translate(507.117 76.654)" font-size="15" font-family="OpenSans, Open Sans"><tspan x="-10.935" y="0">Sat</tspan></text>
      <g id="Rectangle_6182" data-name="Rectangle 6182" transform="translate(0 99.534)" fill="#fff" stroke="rgba(0,0,0,0)" stroke-width="1">
        <rect width="49.767" height="49.767" rx="24.884" stroke="none"/>
        <rect x="0.5" y="0.5" width="48.767" height="48.767" rx="24.384" fill="none"/>
      </g>
      <rect id="Rectangle_6183" data-name="Rectangle 6183" width="43.546" height="43.546" rx="21.773" transform="translate(85.537 102.645)" fill="#fff"/>
      <rect id="Rectangle_6184" data-name="Rectangle 6184" width="43.546" height="43.546" rx="21.773" transform="translate(164.854 102.645)" fill="#fff"/>
      <g id="Rectangle_6185" data-name="Rectangle 6185" transform="translate(245.725 102.645)" fill="#fff" stroke="rgba(0,0,0,0)" stroke-width="1">
        <rect width="43.546" height="43.546" rx="21.773" stroke="none"/>
        <rect x="0.5" y="0.5" width="42.546" height="42.546" rx="21.273" fill="none"/>
      </g>
      <g id="Rectangle_6186" data-name="Rectangle 6186" transform="translate(325.042 102.645)" fill="#fff" stroke="rgba(0,0,0,0)" stroke-width="1">
        <rect width="43.546" height="43.546" rx="21.773" stroke="none"/>
        <rect x="0.5" y="0.5" width="42.546" height="42.546" rx="21.273" fill="none"/>
      </g>
      <g id="Rectangle_6187" data-name="Rectangle 6187" transform="translate(405.914 102.645)" fill="#fff" stroke="rgba(0,0,0,0)" stroke-width="1">
        <rect width="43.546" height="43.546" rx="21.773" stroke="none"/>
        <rect x="0.5" y="0.5" width="42.546" height="42.546" rx="21.273" fill="none"/>
      </g>
      <g id="Rectangle_6188" data-name="Rectangle 6188" transform="translate(488.34 102.645)" fill="#fff" stroke="rgba(0,0,0,0)" stroke-width="1">
        <rect width="43.546" height="43.546" rx="21.773" stroke="none"/>
        <rect x="0.5" y="0.5" width="42.546" height="42.546" rx="21.273" fill="none"/>
      </g>
      <g id="Rectangle_6189" data-name="Rectangle 6189" transform="translate(3.11 152.412)" fill="#f2f2f2" stroke="rgba(0,0,0,0)" stroke-width="1">
        <rect width="43.546" height="43.546" rx="21.773" stroke="none"/>
        <rect x="0.5" y="0.5" width="42.546" height="42.546" rx="21.273" fill="none"/>
      </g>
      <g id="Rectangle_6190" data-name="Rectangle 6190" transform="translate(85.537 152.412)" fill="#f2f2f2" stroke="rgba(0,0,0,0)" stroke-width="1">
        <rect width="43.546" height="43.546" rx="21.773" stroke="none"/>
        <rect x="0.5" y="0.5" width="42.546" height="42.546" rx="21.273" fill="none"/>
      </g>
      <g id="Rectangle_6191" data-name="Rectangle 6191" transform="translate(164.854 152.412)" fill="#f2f2f2" stroke="rgba(0,0,0,0)" stroke-width="1">
        <rect width="43.546" height="43.546" rx="21.773" stroke="none"/>
        <rect x="0.5" y="0.5" width="42.546" height="42.546" rx="21.273" fill="none"/>
      </g>
      <rect id="Rectangle_6193" data-name="Rectangle 6193" width="43.546" height="43.546" rx="21.773" transform="translate(325.042 152.412)" fill="#fff"/>
      <rect id="Rectangle_6194" data-name="Rectangle 6194" width="43.546" height="43.546" rx="21.773" transform="translate(405.914 152.412)" fill="#fff"/>
      <rect id="Rectangle_6195" data-name="Rectangle 6195" width="43.546" height="43.546" rx="21.773" transform="translate(488.34 152.412)" fill="#fff"/>
      <rect id="Rectangle_6196" data-name="Rectangle 6196" width="43.546" height="43.546" rx="21.773" transform="translate(3.11 202.179)" fill="#fff"/>
      <rect id="Rectangle_6197" data-name="Rectangle 6197" width="43.546" height="43.546" rx="21.773" transform="translate(85.537 202.179)" fill="#fff"/>
      <rect id="Rectangle_6198" data-name="Rectangle 6198" width="43.546" height="43.546" rx="21.773" transform="translate(164.854 202.179)" fill="#fff"/>
      <rect id="Rectangle_6199" data-name="Rectangle 6199" width="43.546" height="43.546" rx="21.773" transform="translate(245.725 202.179)" fill="#fff"/>
      <rect id="Rectangle_6200" data-name="Rectangle 6200" width="43.546" height="43.546" rx="21.773" transform="translate(325.042 202.179)" fill="#fff"/>
      <rect id="Rectangle_6201" data-name="Rectangle 6201" width="43.546" height="43.546" rx="21.773" transform="translate(405.914 202.179)" fill="#fff"/>
      <rect id="Rectangle_6202" data-name="Rectangle 6202" width="43.546" height="43.546" rx="21.773" transform="translate(488.34 202.179)" fill="#fff"/>
      <rect id="Rectangle_6203" data-name="Rectangle 6203" width="43.546" height="43.546" rx="21.773" transform="translate(3.11 251.946)" fill="#fff"/>
      <rect id="Rectangle_6204" data-name="Rectangle 6204" width="43.546" height="43.546" rx="21.773" transform="translate(85.537 251.946)" fill="#fff"/>
      <rect id="Rectangle_6205" data-name="Rectangle 6205" width="43.546" height="43.546" rx="21.773" transform="translate(164.854 251.946)" fill="#fff"/>
      <rect id="Rectangle_6206" data-name="Rectangle 6206" width="43.546" height="43.546" rx="21.773" transform="translate(245.725 251.946)" fill="#fff"/>
      <rect id="Rectangle_6207" data-name="Rectangle 6207" width="43.546" height="43.546" rx="21.773" transform="translate(325.042 251.946)" fill="#fff"/>
      <rect id="Rectangle_6208" data-name="Rectangle 6208" width="43.546" height="43.546" rx="21.773" transform="translate(405.914 251.946)" fill="#fff"/>
      <rect id="Rectangle_6209" data-name="Rectangle 6209" width="43.546" height="43.546" rx="21.773" transform="translate(488.34 251.946)" fill="#fff"/>
      <rect id="Rectangle_6210" data-name="Rectangle 6210" width="43.546" height="43.546" rx="21.773" transform="translate(3.11 301.714)" fill="#fff"/>
      <rect id="Rectangle_6211" data-name="Rectangle 6211" width="43.546" height="43.546" rx="21.773" transform="translate(85.537 301.714)" fill="#fff"/>
      <rect id="Rectangle_6212" data-name="Rectangle 6212" width="43.546" height="43.546" rx="21.773" transform="translate(164.854 301.714)" fill="#fff"/>
      <rect id="Rectangle_6213" data-name="Rectangle 6213" width="43.546" height="43.546" rx="21.773" transform="translate(245.725 301.714)" fill="#fff"/>
      <rect id="Rectangle_6214" data-name="Rectangle 6214" width="43.546" height="43.546" rx="21.773" transform="translate(325.042 301.714)" fill="#fff"/>
      <rect id="Rectangle_6215" data-name="Rectangle 6215" width="43.546" height="43.546" rx="21.773" transform="translate(405.914 301.714)" fill="#fff"/>
      <rect id="Rectangle_6216" data-name="Rectangle 6216" width="43.546" height="43.546" rx="21.773" transform="translate(488.34 301.714)" fill="#fff"/>
      <g id="Group_22763" data-name="Group 22763" transform="translate(13.997 110.421)">
        <text id="_28" data-name="28" transform="translate(9 17)" fill="#aaa" font-size="16" font-family="OpenSans, Open Sans"><tspan x="-9.148" y="0">28</tspan></text>
        <text id="_29" data-name="29" transform="translate(89.872 17)" fill="#aaa" font-size="16" font-family="OpenSans, Open Sans"><tspan x="-9.148" y="0">29</tspan></text>
        <text id="_30" data-name="30" transform="translate(170.743 17)" fill="#aaa" font-size="16" font-family="OpenSans, Open Sans"><tspan x="-9.148" y="0">30</tspan></text>
        <text id="_1" data-name="1" transform="translate(252.281 20)" font-size="19" font-family="OpenSans, Open Sans"><tspan x="-5.432" y="0">1</tspan></text>
        <text id="_2" data-name="2" transform="translate(331.597 20)" font-size="19" font-family="OpenSans, Open Sans"><tspan x="-5.432" y="0">2</tspan></text>
        <text id="_3" data-name="3" transform="translate(410.914 20)" font-size="19" font-family="OpenSans, Open Sans"><tspan x="-5.432" y="0">3</tspan></text>
        <text id="_4" data-name="4" transform="translate(494.896 20)" fill="red" font-size="19" font-family="OpenSans, Open Sans"><tspan x="-5.432" y="0">4</tspan></text>
        <text id="_5" data-name="5" transform="translate(9.666 69.767)" fill="red" font-size="19" font-family="OpenSans, Open Sans"><tspan x="-5.432" y="0">5</tspan></text>
        <text id="_6" data-name="6" transform="translate(93.093 69.767)" font-size="19" font-family="OpenSans, Open Sans"><tspan x="-5.432" y="0">6</tspan></text>
        <text id="_7" data-name="7" transform="translate(172.409 69.767)" font-size="19" font-family="OpenSans, Open Sans"><tspan x="-5.432" y="0">7</tspan></text>
        <text id="_9" data-name="9" transform="translate(331.597 69.767)" fill="red" font-size="19" font-family="OpenSans, Open Sans"><tspan x="-5.432" y="0">9</tspan></text>
        <text id="_10" data-name="10" transform="translate(413.358 66.767)" font-size="16" font-family="OpenSans, Open Sans"><tspan x="-9.148" y="0">10</tspan></text>
        <text id="_11" data-name="11" transform="translate(494.23 66.767)" fill="red" font-size="16" font-family="OpenSans, Open Sans"><tspan x="-9.148" y="0">11</tspan></text>
        <text id="_12" data-name="12" transform="translate(9 116.534)" fill="red" font-size="16" font-family="OpenSans, Open Sans"><tspan x="-9.148" y="0">12</tspan></text>
        <text id="_13" data-name="13" transform="translate(89.872 116.534)" font-size="16" font-family="OpenSans, Open Sans"><tspan x="-9.148" y="0">13</tspan></text>
        <text id="_14" data-name="14" transform="translate(170.743 116.534)" font-size="16" font-family="OpenSans, Open Sans"><tspan x="-9.148" y="0">14</tspan></text>
        <text id="_15" data-name="15" transform="translate(251.615 116.534)" font-size="16" font-family="OpenSans, Open Sans"><tspan x="-9.148" y="0">15</tspan></text>
        <text id="_16" data-name="16" transform="translate(332.487 116.534)" font-size="16" font-family="OpenSans, Open Sans"><tspan x="-9.148" y="0">16</tspan></text>
        <text id="_17" data-name="17" transform="translate(413.358 116.534)" font-size="16" font-family="OpenSans, Open Sans"><tspan x="-9.148" y="0">17</tspan></text>
        <text id="_18" data-name="18" transform="translate(494.23 116.534)" fill="red" font-size="16" font-family="OpenSans, Open Sans"><tspan x="-9.148" y="0">18</tspan></text>
        <text id="_19" data-name="19" transform="translate(9 166.302)" fill="red" font-size="16" font-family="OpenSans, Open Sans"><tspan x="-9.148" y="0">19</tspan></text>
        <text id="_20" data-name="20" transform="translate(89.872 166.302)" font-size="16" font-family="OpenSans, Open Sans"><tspan x="-9.148" y="0">20</tspan></text>
        <text id="_21" data-name="21" transform="translate(170.743 166.302)" font-size="16" font-family="OpenSans, Open Sans"><tspan x="-9.148" y="0">21</tspan></text>
        <text id="_22" data-name="22" transform="translate(251.615 166.302)" font-size="16" font-family="OpenSans, Open Sans"><tspan x="-9.148" y="0">22</tspan></text>
        <text id="_23" data-name="23" transform="translate(332.487 166.302)" font-size="16" font-family="OpenSans, Open Sans"><tspan x="-9.148" y="0">23</tspan></text>
        <text id="_25" data-name="25" transform="translate(494.23 166.302)" fill="red" font-size="16" font-family="OpenSans, Open Sans"><tspan x="-9.148" y="0">25</tspan></text>
        <text id="_26" data-name="26" transform="translate(9 216.069)" fill="red" font-size="16" font-family="OpenSans, Open Sans"><tspan x="-9.148" y="0">26</tspan></text>
        <text id="_27" data-name="27" transform="translate(89.872 216.069)" font-size="16" font-family="OpenSans, Open Sans"><tspan x="-9.148" y="0">27</tspan></text>
        <text id="_28-2" data-name="28" transform="translate(170.743 216.069)" font-size="16" font-family="OpenSans, Open Sans"><tspan x="-9.148" y="0">28</tspan></text>
        <text id="_29-2" data-name="29" transform="translate(251.615 216.069)" font-size="16" font-family="OpenSans, Open Sans"><tspan x="-9.148" y="0">29</tspan></text>
        <text id="_30-2" data-name="30" transform="translate(332.487 216.069)" font-size="16" font-family="OpenSans, Open Sans"><tspan x="-9.148" y="0">30</tspan></text>
        <text id="_31" data-name="31" transform="translate(413.358 216.069)" font-size="16" font-family="OpenSans, Open Sans"><tspan x="-9.148" y="0">31</tspan></text>
        <text id="_1-2" data-name="1" transform="translate(494.896 219.069)" fill="#aaa" font-size="19" font-family="OpenSans, Open Sans"><tspan x="-5.432" y="0">1</tspan></text>
      </g>
      <g id="Component_180_1" data-name="Component 180 – 1" transform="translate(245.726 152.412)">
        <rect id="Rectangle_6192" data-name="Rectangle 6192" width="43.546" height="43.546" rx="21.773" fill="#f60"/>
        <text id="_8" data-name="8" transform="translate(21.773 28.773)" fill="#fff" font-size="19" font-family="OpenSans, Open Sans"><tspan x="-5.432" y="0">8</tspan></text>
      </g>
      <g id="Component_19_1" data-name="Component 19 – 1" transform="translate(405.914 251.946)">
        <rect id="Rectangle_7164" data-name="Rectangle 7164" width="43.546" height="43.546" rx="21.773" fill="#fff"/>
        <text id="_24" data-name="24" transform="translate(21.442 24.776)" font-size="16" font-family="OpenSans, Open Sans"><tspan x="-9.148" y="0">24</tspan></text>
      </g>
    </g>
  </g>
</svg>
