<svg xmlns="http://www.w3.org/2000/svg" width="160" height="74.003" viewBox="0 0 160 74.003">
  <g id="undraw_online_test_gba7" transform="translate(0)">
    <path id="Path_13409" data-name="Path 13409" d="M171.944,572.151l-.215-.081c-.047-.018-4.758-1.822-6.964-5.914s-1.126-9.019-1.115-9.068l.051-.224.215.081c.047.018,4.757,1.822,6.964,5.914s1.126,9.019,1.115,9.068Zm-6.826-6.186a14.074,14.074,0,0,0,6.531,5.638A12.114,12.114,0,0,0,164,557.41,14.092,14.092,0,0,0,165.118,565.965Z" transform="translate(-157.584 -501.699)" fill="#3f3d56"/>
    <path id="Path_13410" data-name="Path 13410" d="M138.165,594.938c3.965,2.386,5.493,7.124,5.493,7.124s-4.9.871-8.867-1.515-5.493-7.124-5.493-7.124S134.2,592.552,138.165,594.938Z" transform="translate(-129.298 -531.916)" fill="#d0cde1"/>
    <path id="Path_13411" data-name="Path 13411" d="M382.827,233.2H338.609v-.911h-20.05v.911h-44.4a2.991,2.991,0,0,0-2.991,2.991V296.74a2.991,2.991,0,0,0,2.991,2.991H382.827a2.991,2.991,0,0,0,2.991-2.991V236.192A2.991,2.991,0,0,0,382.827,233.2Z" transform="translate(-247.055 -232.29)" fill="#3f3d56"/>
    <rect id="Rectangle_7083" data-name="Rectangle 7083" width="106.631" height="60.151" transform="translate(28.122 6.197)" fill="#93329e"/>
    <circle id="Ellipse_1733" data-name="Ellipse 1733" cx="1.094" cy="1.094" r="1.094" transform="translate(80.253 2.37)" fill="#93329e"/>
    <path id="Path_13412" data-name="Path 13412" d="M861.451,289.111H856.4v-5.055h5.055Zm-4.835-.22h4.615v-4.615h-4.615Z" transform="translate(-732.819 -275.259)" fill="#3f3d56"/>
    <path id="Path_13413" data-name="Path 13413" d="M366.557,611.844H356.151v-.75a.149.149,0,0,0-.149-.149h-3.568a.149.149,0,0,0-.149.149v.75h-2.23v-.75a.149.149,0,0,0-.149-.149h-3.568a.149.149,0,0,0-.149.149v.75h-2.23v-.75a.149.149,0,0,0-.149-.149h-3.568a.149.149,0,0,0-.149.149v.75h-2.23v-.75a.149.149,0,0,0-.149-.149h-3.568a.149.149,0,0,0-.149.149v.75h-2.23v-.75a.149.149,0,0,0-.149-.149h-3.568a.149.149,0,0,0-.149.149v.75h-2.23v-.75a.149.149,0,0,0-.149-.149h-3.568a.149.149,0,0,0-.149.149v.75h-2.23v-.75a.149.149,0,0,0-.149-.149H291.482a.149.149,0,0,0-.149.149v.75H289.1v-.75a.149.149,0,0,0-.149-.149h-3.568a.149.149,0,0,0-.149.149v.75h-2.23v-.75a.149.149,0,0,0-.149-.149h-3.568a.149.149,0,0,0-.149.149v.75h-2.23v-.75a.149.149,0,0,0-.149-.149H273.2a.149.149,0,0,0-.149.149v.75h-2.23v-.75a.149.149,0,0,0-.149-.149H267.1a.149.149,0,0,0-.149.149v.75h-2.23v-.75a.149.149,0,0,0-.149-.149h-3.568a.149.149,0,0,0-.149.149v.75h-2.23v-.75a.149.149,0,0,0-.149-.149h-3.568a.149.149,0,0,0-.149.149v.75h-6.838a3.568,3.568,0,0,0-3.568,3.568v1.613a3.568,3.568,0,0,0,3.568,3.568H366.557a3.568,3.568,0,0,0,3.568-3.568v-1.613A3.568,3.568,0,0,0,366.557,611.844Z" transform="translate(-224.801 -546.59)" fill="#3f3d56"/>
    <rect id="Rectangle_7084" data-name="Rectangle 7084" width="155.12" height="0.473" transform="translate(4.88 70.343)" fill="#3f3d56"/>
    <path id="Path_13414" data-name="Path 13414" d="M715.7,370.506H681.37V350.961H715.7Zm-33.992-.34h33.652V351.3H681.71Z" transform="translate(-587.54 -330.791)" fill="#3f3d56"/>
    <path id="Path_13415" data-name="Path 13415" d="M363.962,396H333.37V376.961h30.593Zm-30.253-.34h29.913V377.3H333.709Z" transform="translate(-298.686 -352.373)" fill="#3f3d56"/>
    <path id="Path_13416" data-name="Path 13416" d="M411.039,410.7l-.029-.38a3.355,3.355,0,0,1,.906-2.529,3.212,3.212,0,0,0,1.023-2c0-.745-.468-1.242-1.389-1.257a2.6,2.6,0,0,0-1.476.453l-.351-.921a3.831,3.831,0,0,1,2.09-.585,2.16,2.16,0,0,1,2.441,2.149A3.955,3.955,0,0,1,413,408.169a2.887,2.887,0,0,0-.833,2.149l.015.38Zm-.322,2.046a.864.864,0,0,1,.877-.921.853.853,0,0,1,.862.921.87.87,0,1,1-1.739,0Z" transform="translate(-362.063 -374.382)" fill="#d0cde1"/>
    <path id="Path_13417" data-name="Path 13417" d="M770.039,385.7l-.029-.38a3.355,3.355,0,0,1,.906-2.528,3.212,3.212,0,0,0,1.023-2c0-.745-.468-1.242-1.389-1.257a2.6,2.6,0,0,0-1.476.453l-.351-.921a3.832,3.832,0,0,1,2.09-.585,2.16,2.16,0,0,1,2.441,2.149A3.955,3.955,0,0,1,772,383.169a2.887,2.887,0,0,0-.833,2.148l.015.38Zm-.322,2.046a.864.864,0,0,1,.877-.921.853.853,0,0,1,.862.921.87.87,0,1,1-1.739,0Z" transform="translate(-660.048 -353.631)" fill="#d0cde1"/>
    <circle id="Ellipse_1734" data-name="Ellipse 1734" cx="14.666" cy="14.666" r="14.666" transform="translate(67.372 29.667)" fill="#2f2e41"/>
    <path id="Path_13418" data-name="Path 13418" d="M427.952,330.432l-4.384-.794,1.422-9.155,4.384.794Z" transform="translate(-351.579 -266.015)" fill="#2f2e41"/>
    <rect id="Rectangle_7085" data-name="Rectangle 7085" width="4.456" height="7.983" transform="translate(82.18 56.056) rotate(10.261)" fill="#2f2e41"/>
    <ellipse id="Ellipse_1735" data-name="Ellipse 1735" cx="1.392" cy="3.713" rx="1.392" ry="3.713" transform="matrix(0.198, -0.98, 0.98, 0.198, 80.518, 65.028)" fill="#2f2e41"/>
    <ellipse id="Ellipse_1736" data-name="Ellipse 1736" cx="1.392" cy="3.713" rx="1.392" ry="3.713" transform="translate(71.397 65.302) rotate(-82.454)" fill="#2f2e41"/>
    <circle id="Ellipse_1737" data-name="Ellipse 1737" cx="5.012" cy="5.012" r="5.012" transform="translate(78.052 35.734)" fill="#fff"/>
    <circle id="Ellipse_1738" data-name="Ellipse 1738" cx="1.671" cy="1.671" r="1.671" transform="translate(83.454 37.279)" fill="#3f3d56"/>
    <path id="Path_13419" data-name="Path 13419" d="M543.882,349.047c-.221-5.43,4.459-10.029,10.452-10.272s11.03,3.961,11.251,9.39-3.945,6.663-9.938,6.907S544.1,354.476,543.882,349.047Z" transform="translate(-473.414 -320.668)" fill="#fff"/>
    <ellipse id="Ellipse_1739" data-name="Ellipse 1739" cx="7.333" cy="2.302" rx="7.333" ry="2.302" transform="matrix(0.975, -0.223, 0.223, 0.975, 87.918, 41.056)" fill="#2f2e41"/>
    <ellipse id="Ellipse_1740" data-name="Ellipse 1740" cx="7.333" cy="2.302" rx="7.333" ry="2.302" transform="matrix(0.975, -0.223, 0.223, 0.975, 59.129, 45.844)" fill="#2f2e41"/>
    <path id="Path_13420" data-name="Path 13420" d="M588.027,518.636a3.342,3.342,0,0,0,6.576,1.191c.329-1.816-1.075-2.459-2.891-2.787S588.356,516.82,588.027,518.636Z" transform="translate(-510.017 -468.523)" fill="#fff"/>
    <rect id="Rectangle_7086" data-name="Rectangle 7086" width="24.115" height="22.939" transform="translate(26.265 2.23)" fill="#d0cde1"/>
    <rect id="Rectangle_7087" data-name="Rectangle 7087" width="18.634" height="14.25" transform="translate(29.005 4.971)" fill="#fff"/>
    <rect id="Rectangle_7088" data-name="Rectangle 7088" width="10.136" height="0.533" transform="translate(28.986 20.901)" fill="#f2f2f2"/>
    <rect id="Rectangle_7089" data-name="Rectangle 7089" width="10.136" height="0.533" transform="translate(28.986 22.502)" fill="#f2f2f2"/>
    <circle id="Ellipse_1741" data-name="Ellipse 1741" cx="2.134" cy="2.134" r="2.134" transform="translate(30.187 9.965)" fill="#3f3d56"/>
    <circle id="Ellipse_1742" data-name="Ellipse 1742" cx="2.134" cy="2.134" r="2.134" transform="translate(36.188 9.965)" fill="#93329e"/>
    <circle id="Ellipse_1743" data-name="Ellipse 1743" cx="2.134" cy="2.134" r="2.134" transform="translate(42.19 9.965)" fill="#e6e6e6"/>
    <circle id="Ellipse_1744" data-name="Ellipse 1744" cx="1.067" cy="1.067" r="1.067" transform="translate(37.255 2.497)" fill="#3f3d56"/>
    <rect id="Rectangle_7090" data-name="Rectangle 7090" width="24.115" height="22.939" transform="translate(37.735 46.647)" fill="#d0cde1"/>
    <rect id="Rectangle_7091" data-name="Rectangle 7091" width="18.634" height="14.25" transform="translate(40.475 49.387)" fill="#fff"/>
    <rect id="Rectangle_7092" data-name="Rectangle 7092" width="6.533" height="6.533" transform="translate(44.575 51.729)" fill="#93329e"/>
    <path id="Path_13421" data-name="Path 13421" d="M406.284,546.263V554.2h7.933v-7.933Zm7.588,7.588h-7.244v-7.244h7.244Z" transform="translate(-359.208 -492.9)" fill="#3f3d56"/>
    <rect id="Rectangle_7093" data-name="Rectangle 7093" width="10.136" height="0.533" transform="translate(40.457 65.051)" fill="#f2f2f2"/>
    <circle id="Ellipse_1745" data-name="Ellipse 1745" cx="1.067" cy="1.067" r="1.067" transform="translate(48.725 46.913)" fill="#3f3d56"/>
    <rect id="Rectangle_7094" data-name="Rectangle 7094" width="24.115" height="22.939" transform="translate(100.52 39.779)" fill="#d0cde1"/>
    <rect id="Rectangle_7095" data-name="Rectangle 7095" width="18.634" height="14.25" transform="translate(103.26 42.52)" fill="#fff"/>
    <rect id="Rectangle_7096" data-name="Rectangle 7096" width="4.009" height="1.188" transform="translate(110.573 53.675)" fill="#3f3d56"/>
    <rect id="Rectangle_7097" data-name="Rectangle 7097" width="13.702" height="0.509" transform="translate(105.727 44.426)" fill="#3f3d56"/>
    <rect id="Rectangle_7098" data-name="Rectangle 7098" width="13.702" height="0.509" transform="translate(105.727 46.038)" fill="#3f3d56"/>
    <rect id="Rectangle_7099" data-name="Rectangle 7099" width="13.702" height="0.509" transform="translate(105.727 47.65)" fill="#3f3d56"/>
    <rect id="Rectangle_7100" data-name="Rectangle 7100" width="13.702" height="0.509" transform="translate(105.727 49.263)" fill="#3f3d56"/>
    <rect id="Rectangle_7101" data-name="Rectangle 7101" width="13.702" height="0.509" transform="translate(105.727 50.875)" fill="#3f3d56"/>
    <rect id="Rectangle_7102" data-name="Rectangle 7102" width="10.136" height="0.533" transform="translate(103.242 58.184)" fill="#f2f2f2"/>
    <rect id="Rectangle_7103" data-name="Rectangle 7103" width="14.137" height="0.533" transform="translate(103.242 59.517)" fill="#f2f2f2"/>
    <circle id="Ellipse_1746" data-name="Ellipse 1746" cx="1.067" cy="1.067" r="1.067" transform="translate(111.51 40.046)" fill="#3f3d56"/>
  </g>
</svg>
