<svg xmlns="http://www.w3.org/2000/svg" width="139.187" height="102.683" viewBox="0 0 139.187 102.683">
  <g id="Group_25155" data-name="Group 25155" transform="translate(-37 -94)">
    <g id="undraw_Taking_notes_re_bnaf_1_" data-name="undraw_Taking_notes_re_bnaf (1)" transform="translate(37 94)">
      <path id="Path_11998" data-name="Path 11998" d="M342.9,385.083l-28.813,6.073a3.213,3.213,0,0,1-3.8-2.478l-4.944-23.457a3.212,3.212,0,0,1,2.478-3.8l28.813-6.073a3.212,3.212,0,0,1,3.8,2.478l4.944,23.457A3.212,3.212,0,0,1,342.9,385.083Zm-35-23.294a2.835,2.835,0,0,0-2.187,3.354l4.944,23.457a2.835,2.835,0,0,0,3.354,2.187l28.813-6.073a2.835,2.835,0,0,0,2.187-3.354L340.067,357.9a2.835,2.835,0,0,0-3.354-2.186Z" transform="translate(-291.313 -321.816)" fill="#3f3d56"/>
      <path id="Path_411" data-name="Path 411" d="M396.741,392.231,382.2,395.3a.515.515,0,0,1-.61-.352.5.5,0,0,1,.377-.614l14.8-3.12c.578.326.4.932-.029,1.021Z" transform="translate(-353.209 -350.965)" fill="#ccc"/>
      <path id="Path_412" data-name="Path 412" d="M399.589,405.744l-14.542,3.065a.515.515,0,0,1-.609-.352.5.5,0,0,1,.377-.614l14.8-3.12c.578.326.4.932-.029,1.021Z" transform="translate(-355.52 -361.928)" fill="#ccc"/>
      <path id="Path_413" data-name="Path 413" d="M345.995,410.317l-4.438.935a.559.559,0,0,1-.662-.431l-1.1-5.237a.559.559,0,0,1,.431-.662l4.438-.935a.559.559,0,0,1,.662.431l1.1,5.237A.559.559,0,0,1,345.995,410.317Z" transform="translate(-319.304 -361.32)" fill="#ccc"/>
      <path id="Path_414" data-name="Path 414" d="M372.313,433.459l-22.193,4.678a.515.515,0,0,1-.61-.352.5.5,0,0,1,.377-.614l22.454-4.733C372.919,432.764,372.737,433.37,372.313,433.459Z" transform="translate(-327.184 -384.411)" fill="#ccc"/>
      <path id="Path_415" data-name="Path 415" d="M375.162,446.976l-22.193,4.678a.515.515,0,0,1-.61-.352.5.5,0,0,1,.377-.614l22.454-4.733C375.768,446.281,375.586,446.887,375.162,446.976Z" transform="translate(-329.496 -395.377)" fill="#ccc"/>
      <path id="Path_416" data-name="Path 416" d="M378.009,460.484l-22.193,4.678a.515.515,0,0,1-.61-.352.5.5,0,0,1,.377-.614l22.454-4.733C378.616,459.789,378.433,460.395,378.009,460.484Z" transform="translate(-331.806 -406.335)" fill="#ccc"/>
      <path id="Path_417" data-name="Path 417" d="M380.858,474l-22.193,4.678a.515.515,0,0,1-.61-.352.5.5,0,0,1,.377-.614l22.454-4.733C381.465,473.3,381.282,473.911,380.858,474Z" transform="translate(-334.117 -417.3)" fill="#ccc"/>
      <path id="Path_418" data-name="Path 418" d="M383.705,487.509l-22.193,4.678a.516.516,0,0,1-.61-.352.5.5,0,0,1,.377-.614l22.454-4.733C384.312,486.814,384.129,487.42,383.705,487.509Z" transform="translate(-336.427 -428.259)" fill="#ccc"/>
      <path id="Path_11999" data-name="Path 11999" d="M442.193,425.674a1.986,1.986,0,0,0-.129.285l-9.085,2.255-1.581-1.635-2.779,2.063,2.517,3.167a1.51,1.51,0,0,0,1.753.458l9.859-4.028a1.981,1.981,0,1,0-.554-2.564Z" transform="translate(-391.375 -378.102)" fill="#ffb8b8"/>
      <path id="Path_12000" data-name="Path 12000" d="M324.834,446.005a2.028,2.028,0,0,0,1.2-2.867l6.252-17.378-4.342-.77-4.781,17.324a2.039,2.039,0,0,0,1.666,3.69Z" transform="translate(-305.028 -378.37)" fill="#ffb8b8"/>
      <path id="Path_12001" data-name="Path 12001" d="M350.6,408.7l-4.287-1.645a.909.909,0,0,1-.466-1.3l2.249-3.988a2.525,2.525,0,0,1,4.71,1.823l-.992,4.454a.909.909,0,0,1-1.213.651Z" transform="translate(-324.131 -358.221)" fill="#f3b72a"/>
      <path id="Path_12002" data-name="Path 12002" d="M191.491,492.813h2.314l1.1-8.926h-3.415Z" transform="translate(-155.346 -392.55)" fill="#ffb8b8"/>
      <path id="Path_12003" data-name="Path 12003" d="M419.671,705.172h4.557a2.9,2.9,0,0,1,2.9,2.9v.094h-7.462Z" transform="translate(-384.115 -605.665)" fill="#2f2e41"/>
      <path id="Path_12004" data-name="Path 12004" d="M122.491,492.813h2.314l1.1-8.926h-3.415Z" transform="translate(-99.37 -392.55)" fill="#ffb8b8"/>
      <path id="Path_12005" data-name="Path 12005" d="M350.671,705.172h4.557a2.9,2.9,0,0,1,2.9,2.9v.094h-7.462Z" transform="translate(-328.14 -605.665)" fill="#2f2e41"/>
      <path id="Path_12006" data-name="Path 12006" d="M350.414,556.278h-2.928a.849.849,0,0,1-.848-.89l1.391-29.886.088,0,14.141-.369,2.767,29.9a.849.849,0,0,1-.778.927l-3.289.263a.85.85,0,0,1-.9-.676l-4.207-21.287a.274.274,0,0,0-.277-.226h0a.275.275,0,0,0-.277.229l-4.047,21.329A.851.851,0,0,1,350.414,556.278Z" transform="translate(-324.866 -459.608)" fill="#2f2e41"/>
      <circle id="Ellipse_1647" data-name="Ellipse 1647" cx="4.636" cy="4.636" r="4.636" transform="translate(26.276 29.967)" fill="#ffb8b8"/>
      <path id="Path_12007" data-name="Path 12007" d="M358.285,422.38a9.147,9.147,0,0,1-6.361-2.3.859.859,0,0,1-.277-.727c.2-1.809,1.178-11.152.628-17.393a7.554,7.554,0,0,1,2.445-6.286,7.474,7.474,0,0,1,6.411-1.856h0l.173.032a7.509,7.509,0,0,1,6,7.99c-.426,5.6-.807,13.171-.208,17.454a.848.848,0,0,1-.456.875A19.879,19.879,0,0,1,358.285,422.38Z" transform="translate(-328.928 -352.983)" fill="#f3b72a"/>
      <path id="Path_12008" data-name="Path 12008" d="M414.336,411.154a.908.908,0,0,1-.4-.644l-.565-4.528a2.525,2.525,0,1,1,4.861-1.368l1.86,4.183a.909.909,0,0,1-.587,1.245l-4.424,1.231A.908.908,0,0,1,414.336,411.154Z" transform="translate(-378.93 -360.345)" fill="#f3b72a"/>
      <path id="Path_12009" data-name="Path 12009" d="M367.188,339.787a3.322,3.322,0,0,1-1.283-.232c-.18-.069-.366-.126-.545-.2a4.423,4.423,0,0,1-2.663-3.994,5.752,5.752,0,0,1,2.146-4.429,8.3,8.3,0,0,1,4.687-1.771c1.823-.139,3.875.323,4.894,1.841a1.6,1.6,0,0,1,.3,1.382.884.884,0,0,1-.249.383c-.455.4-.908.1-1.372.074a1.517,1.517,0,0,0-1.416,1.083,3.265,3.265,0,0,0,.051,1.886,4.715,4.715,0,0,1,.238,1.147,1.153,1.153,0,0,1-.478,1.015,1.316,1.316,0,0,1-1.32-.139,9.169,9.169,0,0,0-1.173-.751,1.037,1.037,0,0,0-1.259.255,1.392,1.392,0,0,0-.159.46C367.361,338.824,367.412,338.764,367.188,339.787Z" transform="translate(-337.894 -300.613)" fill="#2f2e41"/>
      <path id="Path_12010" data-name="Path 12010" d="M586.35,221.39H556.9a3.212,3.212,0,0,1-3.209-3.209V194.209A3.212,3.212,0,0,1,556.9,191H586.35a3.213,3.213,0,0,1,3.209,3.209v23.972A3.213,3.213,0,0,1,586.35,221.39ZM556.9,191.377a2.835,2.835,0,0,0-2.831,2.831v23.972a2.835,2.835,0,0,0,2.831,2.831H586.35a2.835,2.835,0,0,0,2.831-2.831V194.209a2.835,2.835,0,0,0-2.831-2.831Z" transform="translate(-492.842 -188.546)" fill="#3f3d56"/>
      <path id="Path_411-2" data-name="Path 411" d="M642.838,224.87H627.977a.516.516,0,0,1-.524-.47.5.5,0,0,1,.5-.523h15.128c.5.438.195.993-.239.993Z" transform="translate(-552.677 -215.217)" fill="#ccc"/>
      <path id="Path_412-2" data-name="Path 412" d="M642.838,238.68H627.977a.516.516,0,0,1-.524-.47.5.5,0,0,1,.5-.523h15.128c.5.438.195.993-.239.993Z" transform="translate(-552.677 -226.421)" fill="#ccc"/>
      <path id="Path_413-2" data-name="Path 413" d="M591.319,223.007h-4.535a.559.559,0,0,1-.559-.559V217.1a.559.559,0,0,1,.559-.559h4.535a.559.559,0,0,1,.559.559v5.352A.559.559,0,0,1,591.319,223.007Z" transform="translate(-519.232 -209.264)" fill="#3f3d56"/>
      <path id="Path_414-2" data-name="Path 414" d="M609,266.956H586.321a.515.515,0,0,1-.524-.47.5.5,0,0,1,.5-.523h22.947C609.739,266.4,609.435,266.956,609,266.956Z" transform="translate(-518.884 -249.359)" fill="#ccc"/>
      <path id="Path_415-2" data-name="Path 415" d="M609,280.77H586.321a.515.515,0,0,1-.524-.47.5.5,0,0,1,.5-.523h22.947C609.739,280.215,609.435,280.77,609,280.77Z" transform="translate(-518.884 -260.566)" fill="#ccc"/>
      <path id="Path_416-2" data-name="Path 416" d="M609,294.575H586.321a.516.516,0,0,1-.524-.47.5.5,0,0,1,.5-.523h22.947C609.739,294.02,609.435,294.575,609,294.575Z" transform="translate(-518.884 -271.765)" fill="#ccc"/>
      <path id="Path_417-2" data-name="Path 417" d="M609,308.388H586.321a.516.516,0,0,1-.524-.47.5.5,0,0,1,.5-.523h22.947C609.739,307.833,609.435,308.388,609,308.388Z" transform="translate(-518.884 -282.971)" fill="#ccc"/>
      <path id="Path_418-2" data-name="Path 418" d="M609,322.194H586.321a.515.515,0,0,1-.524-.47.5.5,0,0,1,.5-.523h22.947C609.739,321.639,609.435,322.194,609,322.194Z" transform="translate(-518.884 -294.171)" fill="#ccc"/>
      <path id="Path_12011" data-name="Path 12011" d="M617.249,178a.945.945,0,0,1,.944.944v3.02a.945.945,0,0,1-.944.944H600.639a.945.945,0,0,1-.944-.944v-3.02a.945.945,0,0,1,.944-.944" transform="translate(-530.159 -178)" fill="#f3b72a"/>
      <path id="Path_12012" data-name="Path 12012" d="M811.35,378.39H781.9a3.212,3.212,0,0,1-3.209-3.209V351.209A3.212,3.212,0,0,1,781.9,348H811.35a3.212,3.212,0,0,1,3.209,3.209v23.972A3.212,3.212,0,0,1,811.35,378.39ZM781.9,348.378a2.835,2.835,0,0,0-2.831,2.831v23.972a2.835,2.835,0,0,0,2.831,2.831H811.35a2.834,2.834,0,0,0,2.831-2.831V351.209a2.835,2.835,0,0,0-2.831-2.831Z" transform="translate(-675.372 -315.911)" fill="#3f3d56"/>
      <path id="Path_411-3" data-name="Path 411" d="M867.838,381.87H852.977a.515.515,0,0,1-.524-.47.5.5,0,0,1,.5-.523h15.128c.5.438.195.993-.239.993Z" transform="translate(-735.207 -342.583)" fill="#3f3d56"/>
      <path id="Path_412-3" data-name="Path 412" d="M867.838,395.68H852.977a.515.515,0,0,1-.524-.47.5.5,0,0,1,.5-.523h15.128c.5.438.195.993-.239.993Z" transform="translate(-735.207 -353.786)" fill="#3f3d56"/>
      <path id="Path_413-3" data-name="Path 413" d="M816.319,380.007h-4.535a.559.559,0,0,1-.559-.559V374.1a.559.559,0,0,1,.559-.559h4.535a.559.559,0,0,1,.559.559v5.352A.559.559,0,0,1,816.319,380.007Z" transform="translate(-701.762 -336.629)" fill="#ccc"/>
      <path id="Path_413-4" data-name="Path 413" d="M911.319,466.742h-4.535a.559.559,0,0,1-.559-.559V463.1a.559.559,0,0,1,.559-.559h4.535a.559.559,0,0,1,.559.559v3.087A.559.559,0,0,1,911.319,466.742Z" transform="translate(-778.83 -408.83)" fill="#3f3d56"/>
      <path id="Path_414-3" data-name="Path 414" d="M834,423.956H811.321a.516.516,0,0,1-.524-.47.5.5,0,0,1,.5-.523h22.947c.5.438.195.993-.239.993Z" transform="translate(-701.414 -376.725)" fill="#ccc"/>
      <path id="Path_415-3" data-name="Path 415" d="M834,437.77H811.321a.516.516,0,0,1-.524-.47.5.5,0,0,1,.5-.523h22.947C834.739,437.215,834.435,437.77,834,437.77Z" transform="translate(-701.414 -387.931)" fill="#ccc"/>
      <path id="Path_416-3" data-name="Path 416" d="M834,451.575H811.321a.515.515,0,0,1-.524-.47.5.5,0,0,1,.5-.523h22.947C834.739,451.02,834.435,451.575,834,451.575Z" transform="translate(-701.414 -399.13)" fill="#ccc"/>
      <path id="Path_417-3" data-name="Path 417" d="M822.11,465.388H811.321a.515.515,0,0,1-.524-.47.5.5,0,0,1,.5-.523h11.056C822.847,464.833,822.544,465.388,822.11,465.388Z" transform="translate(-701.414 -410.336)" fill="#ccc"/>
      <path id="Path_418-3" data-name="Path 418" d="M822.11,479.194H811.321a.515.515,0,0,1-.524-.47.5.5,0,0,1,.5-.523h11.056C822.847,478.639,822.544,479.194,822.11,479.194Z" transform="translate(-701.414 -421.536)" fill="#ccc"/>
      <path id="Path_12013" data-name="Path 12013" d="M842.249,339.908H825.639a.945.945,0,0,1-.944-.944v-3.02a.945.945,0,0,1,.944-.944h16.611a.945.945,0,0,1,.944.944v3.02a.945.945,0,0,1-.944.944Z" transform="translate(-712.689 -305.365)" fill="#f3b72a"/>
      <path id="Path_12014" data-name="Path 12014" d="M303.41,720.378H231.494a.189.189,0,0,1,0-.378H303.41a.189.189,0,0,1,0,.378Z" transform="translate(-231.305 -617.694)" fill="#3f3d56"/>
      <circle id="Ellipse_1648" data-name="Ellipse 1648" cx="1.221" cy="1.221" r="1.221" transform="translate(17.044 3.182)" fill="#f2f2f2"/>
      <circle id="Ellipse_1649" data-name="Ellipse 1649" cx="1.221" cy="1.221" r="1.221" transform="translate(17.044 8.047)" fill="#f2f2f2"/>
      <circle id="Ellipse_1650" data-name="Ellipse 1650" cx="1.221" cy="1.221" r="1.221" transform="translate(17.044 12.912)" fill="#f2f2f2"/>
      <circle id="Ellipse_1651" data-name="Ellipse 1651" cx="1.221" cy="1.221" r="1.221" transform="translate(17.044 17.777)" fill="#f2f2f2"/>
      <circle id="Ellipse_1652" data-name="Ellipse 1652" cx="1.221" cy="1.221" r="1.221" transform="translate(22.141 3.182)" fill="#f2f2f2"/>
      <circle id="Ellipse_1653" data-name="Ellipse 1653" cx="1.221" cy="1.221" r="1.221" transform="translate(22.141 8.047)" fill="#f2f2f2"/>
      <circle id="Ellipse_1654" data-name="Ellipse 1654" cx="1.221" cy="1.221" r="1.221" transform="translate(22.141 12.912)" fill="#f2f2f2"/>
      <circle id="Ellipse_1655" data-name="Ellipse 1655" cx="1.221" cy="1.221" r="1.221" transform="translate(22.141 17.777)" fill="#f2f2f2"/>
      <circle id="Ellipse_1656" data-name="Ellipse 1656" cx="1.221" cy="1.221" r="1.221" transform="translate(27.237 3.182)" fill="#f2f2f2"/>
      <circle id="Ellipse_1657" data-name="Ellipse 1657" cx="1.221" cy="1.221" r="1.221" transform="translate(27.237 8.047)" fill="#f2f2f2"/>
      <circle id="Ellipse_1658" data-name="Ellipse 1658" cx="1.221" cy="1.221" r="1.221" transform="translate(27.237 12.912)" fill="#f2f2f2"/>
      <circle id="Ellipse_1659" data-name="Ellipse 1659" cx="1.221" cy="1.221" r="1.221" transform="translate(27.237 17.777)" fill="#f2f2f2"/>
      <circle id="Ellipse_1660" data-name="Ellipse 1660" cx="1.221" cy="1.221" r="1.221" transform="translate(32.333 3.182)" fill="#f2f2f2"/>
      <circle id="Ellipse_1661" data-name="Ellipse 1661" cx="1.221" cy="1.221" r="1.221" transform="translate(32.333 8.047)" fill="#f2f2f2"/>
      <circle id="Ellipse_1662" data-name="Ellipse 1662" cx="1.221" cy="1.221" r="1.221" transform="translate(32.333 12.912)" fill="#f2f2f2"/>
      <circle id="Ellipse_1663" data-name="Ellipse 1663" cx="1.221" cy="1.221" r="1.221" transform="translate(32.333 17.777)" fill="#f2f2f2"/>
      <circle id="Ellipse_1664" data-name="Ellipse 1664" cx="1.221" cy="1.221" r="1.221" transform="translate(37.43 3.182)" fill="#f2f2f2"/>
      <circle id="Ellipse_1665" data-name="Ellipse 1665" cx="1.221" cy="1.221" r="1.221" transform="translate(37.43 8.047)" fill="#f2f2f2"/>
      <circle id="Ellipse_1666" data-name="Ellipse 1666" cx="1.221" cy="1.221" r="1.221" transform="translate(37.43 12.912)" fill="#f2f2f2"/>
      <circle id="Ellipse_1667" data-name="Ellipse 1667" cx="1.221" cy="1.221" r="1.221" transform="translate(37.43 17.777)" fill="#f2f2f2"/>
      <circle id="Ellipse_1668" data-name="Ellipse 1668" cx="1.221" cy="1.221" r="1.221" transform="translate(42.526 3.182)" fill="#f2f2f2"/>
      <circle id="Ellipse_1669" data-name="Ellipse 1669" cx="1.221" cy="1.221" r="1.221" transform="translate(42.526 8.047)" fill="#f2f2f2"/>
      <circle id="Ellipse_1670" data-name="Ellipse 1670" cx="1.221" cy="1.221" r="1.221" transform="translate(42.526 12.912)" fill="#f2f2f2"/>
      <circle id="Ellipse_1671" data-name="Ellipse 1671" cx="1.221" cy="1.221" r="1.221" transform="translate(42.526 17.777)" fill="#f2f2f2"/>
      <circle id="Ellipse_1672" data-name="Ellipse 1672" cx="1.221" cy="1.221" r="1.221" transform="translate(112.366 70.757)" fill="#f2f2f2"/>
      <circle id="Ellipse_1673" data-name="Ellipse 1673" cx="1.221" cy="1.221" r="1.221" transform="translate(112.366 75.622)" fill="#f2f2f2"/>
      <circle id="Ellipse_1674" data-name="Ellipse 1674" cx="1.221" cy="1.221" r="1.221" transform="translate(112.366 80.486)" fill="#f2f2f2"/>
      <circle id="Ellipse_1675" data-name="Ellipse 1675" cx="1.221" cy="1.221" r="1.221" transform="translate(117.462 70.757)" fill="#f2f2f2"/>
      <circle id="Ellipse_1676" data-name="Ellipse 1676" cx="1.221" cy="1.221" r="1.221" transform="translate(117.462 75.622)" fill="#f2f2f2"/>
      <circle id="Ellipse_1677" data-name="Ellipse 1677" cx="1.221" cy="1.221" r="1.221" transform="translate(117.462 80.486)" fill="#f2f2f2"/>
      <circle id="Ellipse_1678" data-name="Ellipse 1678" cx="1.221" cy="1.221" r="1.221" transform="translate(122.559 70.757)" fill="#f2f2f2"/>
      <circle id="Ellipse_1679" data-name="Ellipse 1679" cx="1.221" cy="1.221" r="1.221" transform="translate(122.559 75.622)" fill="#f2f2f2"/>
      <circle id="Ellipse_1680" data-name="Ellipse 1680" cx="1.221" cy="1.221" r="1.221" transform="translate(122.559 80.486)" fill="#f2f2f2"/>
      <circle id="Ellipse_1681" data-name="Ellipse 1681" cx="1.221" cy="1.221" r="1.221" transform="translate(127.655 70.757)" fill="#f2f2f2"/>
      <circle id="Ellipse_1682" data-name="Ellipse 1682" cx="1.221" cy="1.221" r="1.221" transform="translate(127.655 75.622)" fill="#f2f2f2"/>
      <circle id="Ellipse_1683" data-name="Ellipse 1683" cx="1.221" cy="1.221" r="1.221" transform="translate(127.655 80.486)" fill="#f2f2f2"/>
    </g>
  </g>
</svg>
