<svg id="undraw_version_control_re_mg66" xmlns="http://www.w3.org/2000/svg" width="134.734" height="81.249" viewBox="0 0 134.734 81.249">
  <g id="Group_100" data-name="Group 100" transform="translate(71.652 64.051)">
    <path id="Path_1465" data-name="Path 1465" d="M665.247,628.1a1.59,1.59,0,1,0,1.59,1.59h0A1.59,1.59,0,0,0,665.247,628.1Zm0,2.569a.979.979,0,1,1,.979-.979h0A.979.979,0,0,1,665.247,630.669Z" transform="translate(-659.131 -626.877)" fill="#d8e7d7"/>
    <path id="Path_1467" data-name="Path 1467" d="M630.954,619.261h6.117v6.054a.8.8,0,0,1-.8.8h-4.523a.8.8,0,0,1-.8-.8v-6.054Z" transform="translate(-630.954 -619.261)" fill="#d8e7d7"/>
  </g>
  <path id="Path_944" data-name="Path 944" d="M205.329,668.035H113.394a.139.139,0,0,1,0-.277h91.935a.139.139,0,0,1,0,.277Z" transform="translate(-113.269 -596.994)" fill="#2f2e41"/>
  <path id="Path_14827" data-name="Path 14827" d="M85.871,494.381l-.569,2.811,10.573,3.531.839-4.149Z" transform="translate(-73.495 -425.955)" fill="#ffb6b6"/>
  <path id="Path_14828" data-name="Path 14828" d="M176.267,642.442l-1.12,5.537h0a3.6,3.6,0,0,1-4.242,2.815l-.115-.023,1.834-9.065Z" transform="translate(-162.828 -574.547)" fill="#2f2e41"/>
  <circle id="Ellipse_276" data-name="Ellipse 276" cx="7.179" cy="7.179" r="7.179" transform="translate(17.178 15.341)" fill="#feb8b8"/>
  <path id="Path_1461" data-name="Path 1461" d="M245.313,250.262a8.292,8.292,0,0,0-4.717-3.606l-.881.643v-.835a7.629,7.629,0,0,0-1.426-.083l-.76.688v-.631a8.212,8.212,0,0,0-5.665,3.37,7.29,7.29,0,0,0-.306,8.092c.446-1.37.987-2.656,1.433-4.026a4.054,4.054,0,0,0,1.056.005l.542-1.266.152,1.212c1.681-.146,4.175-.468,5.769-.763l-.155-.93.927.773c.488-.112.778-.214.754-.292,1.185,1.911,2.636,3.132,3.822,5.043C246.308,254.962,246.826,252.721,245.313,250.262Z" transform="translate(-214.25 -233.935)" fill="#2f2e41"/>
  <ellipse id="Ellipse_260" data-name="Ellipse 260" cx="18.486" cy="5.171" rx="18.486" ry="5.171" transform="translate(8.208 59.159)" fill="#2f2e41"/>
  <path id="Path_14829" data-name="Path 14829" d="M213.508,389.679a14.54,14.54,0,0,0-1.192-4.337,3.287,3.287,0,0,0-2.145-1.885,2.075,2.075,0,0,1-.558-.129c-.284-.137-4.107-2.319-4.715-2.7a5.534,5.534,0,0,0-1.76-.93,42.08,42.08,0,0,1-8.271-.125,22.579,22.579,0,0,0-3.046,1.5c-.02-.013-6.489,3.46-6.732,3.451a1.414,1.414,0,0,0-1.152.646,4.181,4.181,0,0,0-.517,1.275c1.413,3.146,2.706,6.3,4.119,9.443a.806.806,0,0,1,.1.388.946.946,0,0,1-.176.388,6.461,6.461,0,0,0-.6,3.821,7.621,7.621,0,0,1-.415,3.863c-.159.322-.366.617-.517.939a8.894,8.894,0,0,0-.275,3.845l25.919.743C211.024,408.339,213.508,389.679,213.508,389.679Z" transform="translate(-173.71 -348.696)" fill="#6bce91"/>
  <path id="Path_1421" data-name="Path 1421" d="M166.965,487.49a4.577,4.577,0,0,0-.016,1.129l.371,5.335c.035.5.069,1,.116,1.506.089.973.222,1.939.388,2.9a.517.517,0,0,0,.53.5,18.957,18.957,0,0,0,4.994.238c2.547-.142,9.062-.411,9.46-.928a1.355,1.355,0,0,0-.353-1.772c-.519-.418-9.117-1.437-9.117-1.437a8.471,8.471,0,0,1,.578-1.925,10,10,0,0,0,.843-3.48,3.788,3.788,0,0,0-1.428-3.152,4.721,4.721,0,0,0-2.837-.646,8.731,8.731,0,0,0-2.613.129C167.362,486.121,167.062,486.982,166.965,487.49Z" transform="translate(-159.495 -440.161)" fill="#fbbebe"/>
  <path id="Path_1423" data-name="Path 1423" d="M256.079,584.916a2.785,2.785,0,0,1,1.366-.043,16.628,16.628,0,0,1,4.369,1,4.3,4.3,0,0,1,1.7,1.19,5.9,5.9,0,0,1,.829,1.681l.5,1.36a6.549,6.549,0,0,1,.433,1.594,4.474,4.474,0,0,1-2.358,4.007,14.087,14.087,0,0,1-4.654,1.462c-1.606.315-3.218.664-4.817,1.034a19.4,19.4,0,0,1-2.266.446c-1.712.194-3.5-.092-5.127.474a19.535,19.535,0,0,1-1.952.719,12.147,12.147,0,0,1-1.35.206l-3.078.352a12.6,12.6,0,0,1-5.86-.492.757.757,0,0,1-.669-.869q-.2-1.734-.346-3.471a1.3,1.3,0,0,1,1.374-1.684,31.922,31.922,0,0,1,5.905-.41c.751-.751,1.989-.755,2.973-1.163a8.831,8.831,0,0,0,1.048-.57,13.7,13.7,0,0,1,5.756-1.819,5.363,5.363,0,0,0,1.178-.168c.761-.237,1.456-.88,2.238-.723a1.813,1.813,0,0,1,.388-.809c.111-.094.248-.158.35-.259a1.06,1.06,0,0,0,.2-.867,2.539,2.539,0,0,1-.026-.915,1.267,1.267,0,0,1,.144-.319A1.745,1.745,0,0,1,256.079,584.916Z" transform="translate(-216.235 -525.527)" fill="#2f2e41"/>
  <path id="Path_1430" data-name="Path 1430" d="M166.995,424.771a1.338,1.338,0,0,0-.287.459,21.7,21.7,0,0,0-1.823,7.448.744.744,0,0,1-.084.361,1.576,1.576,0,0,1-.19.206.714.714,0,0,0,.085,1.006l.036.029a1.391,1.391,0,0,1,1.178-.568c2.173-.172,4.3.839,6.475.763-.154-.531-.375-1.042-.5-1.58-.555-2.388.829-4.987-.019-7.287a1.879,1.879,0,0,0-.9-1.114,2.393,2.393,0,0,0-.575-.152,6.21,6.21,0,0,0-2.18-.354c-.2.063-.274.248-.437.36A4.109,4.109,0,0,0,166.995,424.771Z" transform="translate(-157.36 -386.928)" fill="#6bce91"/>
  <path id="Path_1421-2" data-name="Path 1421" d="M306.744,485.893a8.729,8.729,0,0,0-2.613-.129,4.722,4.722,0,0,0-2.837.646,3.789,3.789,0,0,0-1.428,3.152,10,10,0,0,0,.843,3.48,8.471,8.471,0,0,1,.578,1.925s-8.6,1.019-9.117,1.438a1.355,1.355,0,0,0-.353,1.772c.4.517,12.819,1.036,14.454.69a.517.517,0,0,0,.53-.5c.165-.964.3-1.93.388-2.9.047-.5.082-1,.116-1.506l.371-5.335a4.578,4.578,0,0,0-.016-1.129C307.563,486.982,307.262,486.121,306.744,485.893Z" transform="translate(-266.93 -440.161)" fill="#fbbebe"/>
  <path id="Path_1430-2" data-name="Path 1430" d="M357.555,424.346c-.163-.112-.24-.3-.437-.36a6.209,6.209,0,0,0-2.179.354,2.393,2.393,0,0,0-.575.152,1.879,1.879,0,0,0-.9,1.114c-.848,2.3.535,4.9-.019,7.287-.125.538-.347,1.048-.5,1.58,2.18.076,4.3-.935,6.475-.763a1.391,1.391,0,0,1,1.178.568l.036-.029a.714.714,0,0,0,.085-1.006,1.578,1.578,0,0,1-.19-.206.745.745,0,0,1-.084-.361,21.7,21.7,0,0,0-1.823-7.449,1.338,1.338,0,0,0-.287-.459A4.108,4.108,0,0,0,357.555,424.346Z" transform="translate(-319.772 -386.928)" fill="#6bce91"/>
  <path id="Path_14830" data-name="Path 14830" d="M227.5,514.3l-.378,2.843-11.147-.1.558-4.2Z" transform="translate(-186.082 -441.864)" fill="#ffb6b6"/>
  <path id="Path_14831" data-name="Path 14831" d="M405.355,674.223l-1.219,9.168-.116-.015a3.6,3.6,0,0,1-3.094-4.043h0l.744-5.6Z" transform="translate(-361.084 -602.143)" fill="#2f2e41"/>
  <path id="Path_1427" data-name="Path 1427" d="M157.551,578.2c0,.129-.2,0-.221-.138a3.149,3.149,0,0,0-1.939-2.327,6.347,6.347,0,0,0-3.115-.341c-1.584.15-3.361.756-3.94,2.236-.137.346-1.421,3.427-1.3,4.12a7.42,7.42,0,0,0,3.134,4.525,18.733,18.733,0,0,0,5.107,2.339,88.568,88.568,0,0,0,14.478,3.458,13.931,13.931,0,0,1,2.363.487c.682.229,1.321.571,1.988.84a19.977,19.977,0,0,0,4.873,1.064,1,1,0,0,0,.813-.129c.269-.249.18-.684.1-1.042a5.6,5.6,0,0,1,.661-3.976,2.6,2.6,0,0,0,.584-1.481,1.488,1.488,0,0,0-1.311-1.174,6.565,6.565,0,0,0-1.882.129,1.008,1.008,0,0,1-.64-.063,1.275,1.275,0,0,1-.251-.222,2.835,2.835,0,0,0-3.3-.461c-.231.129-.581-.159-.822-.268l-2.719-1.231a64.129,64.129,0,0,0-9.566-3.727,2.008,2.008,0,0,1-.737-.306c-.164-.129-.282-.3-.433-.449a5.533,5.533,0,0,0-1.184-.657C157.9,579.18,157.46,578.639,157.551,578.2Z" transform="translate(-142.358 -517.367)" fill="#2f2e41"/>
  <circle id="Ellipse_2236" data-name="Ellipse 2236" cx="1.938" cy="1.938" r="1.938" transform="translate(20.293 55.085)" fill="#fbbebe"/>
  <circle id="Ellipse_2237" data-name="Ellipse 2237" cx="1.938" cy="1.938" r="1.938" transform="translate(24.584 55.085)" fill="#fbbebe"/>
  <path id="Path_14832" data-name="Path 14832" d="M218.289,484.893H191.668a1.174,1.174,0,0,1-1.172-1.172V467.57a1.174,1.174,0,0,1,1.172-1.172h26.621a1.174,1.174,0,0,1,1.172,1.172v16.15a1.174,1.174,0,0,1-1.172,1.172Z" transform="translate(-179.807 -423.504)" fill="#5a5876"/>
  <circle id="Ellipse_263" data-name="Ellipse 263" cx="0.776" cy="0.776" r="0.776" transform="translate(24.332 51.366)" fill="#fff"/>
  <path id="Path_14833" data-name="Path 14833" d="M761.685,321.767H727.1a.693.693,0,0,1-.692-.692v-6.519h.277v6.519a.416.416,0,0,0,.415.415h34.587a.416.416,0,0,0,.415-.415V314.51h.277v6.565A.693.693,0,0,1,761.685,321.767Z" transform="translate(-641.543 -292.639)" fill="#3f3d56"/>
  <rect id="Rectangle_8368" data-name="Rectangle 8368" width="81.276" height="0.277" transform="translate(51.405 21.779)" fill="#3f3d56"/>
  <circle id="Ellipse_264" data-name="Ellipse 264" cx="2.381" cy="2.381" r="2.381" transform="translate(49.029 19.515)" fill="#6bce91"/>
  <circle id="Ellipse_266" data-name="Ellipse 266" cx="2.381" cy="2.381" r="2.381" transform="translate(73.224 19.515)" fill="#6bce91"/>
  <circle id="Ellipse_268" data-name="Ellipse 268" cx="2.381" cy="2.381" r="2.381" transform="translate(89.643 26.513)" fill="#3f3d56"/>
  <circle id="Ellipse_269" data-name="Ellipse 269" cx="2.381" cy="2.381" r="2.381" transform="translate(102.126 26.513)" fill="#ccc"/>
  <circle id="Ellipse_270" data-name="Ellipse 270" cx="2.381" cy="2.381" r="2.381" transform="translate(96.077 19.515)" fill="#6bce91"/>
  <circle id="Ellipse_271" data-name="Ellipse 271" cx="2.381" cy="2.381" r="2.381" transform="translate(129.973 19.515)" fill="#6bce91"/>
  <circle id="Ellipse_272" data-name="Ellipse 272" cx="2.381" cy="2.381" r="2.381" transform="translate(118.315 19.515)" fill="#6bce91"/>
  <rect id="Rectangle_207" data-name="Rectangle 207" width="4.416" height="3.044" transform="translate(89.763)" fill="#3f3d56"/>
  <rect id="Rectangle_208" data-name="Rectangle 208" width="4.416" height="3.044" transform="translate(49.22)" fill="#6bce91"/>
  <rect id="Rectangle_209" data-name="Rectangle 209" width="4.416" height="3.044" transform="translate(64.178)" fill="#ccc"/>
  <path id="Path_14834" data-name="Path 14834" d="M537.189,268.14a.138.138,0,0,1-.138-.138v-6.832a.693.693,0,0,1,.692-.692h6.737a.138.138,0,0,1,0,.277h-6.737a.416.416,0,0,0-.415.415V268A.138.138,0,0,1,537.189,268.14Z" transform="translate(-478.396 -246.084)" fill="#3f3d56"/>
  <circle id="Ellipse_265" data-name="Ellipse 265" cx="2.381" cy="2.381" r="2.381" transform="translate(64.02 12.099)" fill="#fafdfb"/>
  <path id="Path_14835" data-name="Path 14835" d="M921.328,268h-.277v-6.832a.693.693,0,0,1,.692-.692h6.737v.277h-6.737a.416.416,0,0,0-.415.415Z" transform="translate(-809.248 -246.084)" fill="#3f3d56"/>
  <circle id="Ellipse_265-2" data-name="Ellipse 265" cx="2.381" cy="2.381" r="2.381" transform="translate(117.168 12.099)" fill="#fafdfb"/>
</svg>
