<svg id="undraw_customer_survey_f9ur_1_" data-name="undraw_customer_survey_f9ur (1)" xmlns="http://www.w3.org/2000/svg" xmlns:xlink="http://www.w3.org/1999/xlink" width="140" height="127.41" viewBox="0 0 140 127.41">
  <defs>
    <linearGradient id="linear-gradient" x1="0.5" y1="1" x2="0.5" gradientUnits="objectBoundingBox">
      <stop offset="0" stop-color="gray" stop-opacity="0.251"/>
      <stop offset="0.54" stop-color="gray" stop-opacity="0.122"/>
      <stop offset="1" stop-color="gray" stop-opacity="0.102"/>
    </linearGradient>
    <linearGradient id="linear-gradient-3" xlink:href="#linear-gradient"/>
    <linearGradient id="linear-gradient-7" xlink:href="#linear-gradient"/>
  </defs>
  <g id="Group_25406" data-name="Group 25406" transform="translate(39.184 8.815)" opacity="0.5">
    <rect id="Rectangle_7133" data-name="Rectangle 7133" width="62.984" height="87.023" fill="url(#linear-gradient)"/>
  </g>
  <rect id="Rectangle_7134" data-name="Rectangle 7134" width="61.381" height="85.1" transform="translate(39.986 9.456)" fill="#fff"/>
  <rect id="Rectangle_7135" data-name="Rectangle 7135" width="30.45" height="7.375" transform="translate(55.531 7.209)" fill="url(#linear-gradient)"/>
  <path id="Path_13442" data-name="Path 13442" d="M582.417,52.5a4.36,4.36,0,1,0,4.257,4.359A4.309,4.309,0,0,0,582.417,52.5Zm0,6.874a2.515,2.515,0,1,1,2.449-2.515,2.486,2.486,0,0,1-2.449,2.515Z" transform="translate(-511.66 -52.5)" fill="url(#linear-gradient-3)"/>
  <rect id="Rectangle_7136" data-name="Rectangle 7136" width="29.809" height="7.052" transform="translate(55.852 7.212)" fill="#a4ebf3"/>
  <path id="Path_13443" data-name="Path 13443" d="M582.887,54.5a4.167,4.167,0,1,0,4.167,4.167A4.167,4.167,0,0,0,582.887,54.5Zm0,6.571a2.4,2.4,0,1,1,2.4-2.4A2.4,2.4,0,0,1,582.887,61.071Z" transform="translate(-512.13 -54.179)" fill="#a4ebf3"/>
  <rect id="Rectangle_7137" data-name="Rectangle 7137" width="13.142" height="13.142" transform="translate(42.871 23.238)" fill="url(#linear-gradient)"/>
  <rect id="Rectangle_7138" data-name="Rectangle 7138" width="13.142" height="13.142" transform="translate(42.915 49.281)" fill="url(#linear-gradient)"/>
  <rect id="Rectangle_7139" data-name="Rectangle 7139" width="13.142" height="13.142" transform="translate(42.96 75.003)" fill="url(#linear-gradient)"/>
  <rect id="Rectangle_7140" data-name="Rectangle 7140" width="12.18" height="12.18" transform="translate(43.351 23.719)" fill="#69f0ae"/>
  <rect id="Rectangle_7141" data-name="Rectangle 7141" width="12.18" height="12.18" transform="translate(43.351 49.521)" fill="#a4ebf3"/>
  <rect id="Rectangle_7142" data-name="Rectangle 7142" width="12.18" height="12.18" transform="translate(43.351 75.324)" fill="#a4ebf3"/>
  <rect id="Rectangle_7143" data-name="Rectangle 7143" width="16.695" height="1.165" transform="translate(63.545 27.479)" fill="#e0e0e0"/>
  <rect id="Rectangle_7144" data-name="Rectangle 7144" width="27.565" height="1.165" transform="translate(63.545 29.227)" fill="#e0e0e0"/>
  <rect id="Rectangle_7145" data-name="Rectangle 7145" width="25.625" height="1.165" transform="translate(63.545 30.974)" fill="#e0e0e0"/>
  <rect id="Rectangle_7146" data-name="Rectangle 7146" width="16.695" height="1.165" transform="translate(63.545 53.281)" fill="#e0e0e0"/>
  <rect id="Rectangle_7147" data-name="Rectangle 7147" width="27.565" height="1.165" transform="translate(63.545 55.03)" fill="#e0e0e0"/>
  <rect id="Rectangle_7148" data-name="Rectangle 7148" width="25.625" height="1.165" transform="translate(63.545 56.777)" fill="#e0e0e0"/>
  <rect id="Rectangle_7149" data-name="Rectangle 7149" width="16.695" height="1.165" transform="translate(63.545 79.084)" fill="#e0e0e0"/>
  <rect id="Rectangle_7150" data-name="Rectangle 7150" width="27.565" height="1.165" transform="translate(63.545 80.832)" fill="#e0e0e0"/>
  <rect id="Rectangle_7151" data-name="Rectangle 7151" width="25.625" height="1.165" transform="translate(63.545 82.579)" fill="#e0e0e0"/>
  <path id="Path_13444" data-name="Path 13444" d="M286.422,167.959l2.212,2.029,3.133-4.608,1.106.922-4.239,5.529-3.133-3.5Z" transform="translate(-239.745 -138.876)" fill="url(#linear-gradient-7)"/>
  <path id="Path_13445" data-name="Path 13445" d="M289.3,170.244l1.923,1.763L293.949,168l.962.8-3.686,4.808-2.724-3.045Z" transform="translate(-242.264 -141.076)" fill="#fff"/>
  <path id="Path_13446" data-name="Path 13446" d="M289.3,332.244l1.923,1.763L293.949,330l.962.8-3.686,4.808-2.724-3.045Z" transform="translate(-242.264 -277.113)" fill="#fff"/>
  <path id="Path_13447" data-name="Path 13447" d="M289.3,494.244l1.923,1.763L293.949,492l.962.8-3.686,4.808-2.724-3.045Z" transform="translate(-242.264 -413.15)" fill="#fff"/>
  <g id="Group_25407" data-name="Group 25407" transform="translate(104.332 34.136)" opacity="0.5">
    <line id="Line_920" data-name="Line 920" x2="0.962" transform="translate(0 22.116)" fill="none" stroke="#69f0ae" stroke-width="5"/>
    <line id="Line_921" data-name="Line 921" x2="21.265" transform="translate(2.811 22.116)" fill="none" stroke="#69f0ae" stroke-width="5" stroke-dasharray="11.54 11.54"/>
    <path id="Path_13448" data-name="Path 13448" d="M807,345.962h.962V345" transform="translate(-781.999 -323.845)" fill="none" stroke="#69f0ae" stroke-width="5"/>
    <line id="Line_922" data-name="Line 922" y1="17.44" transform="translate(25.963 1.88)" fill="none" stroke="#69f0ae" stroke-width="5" stroke-dasharray="11.45 11.45"/>
    <line id="Line_923" data-name="Line 923" y1="0.962" transform="translate(25.963)" fill="none" stroke="#69f0ae" stroke-width="5"/>
  </g>
  <path id="Path_13449" data-name="Path 13449" d="M118.975,182.5H97.5v20.193" transform="translate(-81.874 -153.252)" fill="none" stroke="#69f0ae" stroke-width="5" stroke-dasharray="12" opacity="0.5"/>
  <path id="Path_13450" data-name="Path 13450" d="M308.5,611.5v11.539h32.053" transform="translate(-259.059 -513.499)" fill="none" stroke="#69f0ae" stroke-width="5" stroke-dasharray="12" opacity="0.5"/>
  <g id="Group_25408" data-name="Group 25408" transform="translate(115.3 6.731)" opacity="0.5">
    <path id="Path_13451" data-name="Path 13451" d="M744.14,52.432,731.79,42,719.632,52.409l-.109-.061v.083h-.083l.083.046V66.2h24.533l-.149-.083h.232Z" transform="translate(-719.44 -42)" fill="url(#linear-gradient)"/>
  </g>
  <path id="Path_13452" data-name="Path 13452" d="M747.059,68.158H723.5V55.016L735.2,45l11.859,10.016Z" transform="translate(-607.549 -37.788)" fill="#fff"/>
  <path id="Path_13453" data-name="Path 13453" d="M722.5,107.5l11.7,6.571,11.859-6.571" transform="translate(-606.709 -90.272)" fill="#e0e0e0"/>
  <g id="Group_25409" data-name="Group 25409" transform="translate(120.518 11.058)" opacity="0.5">
    <path id="Path_13454" data-name="Path 13454" d="M759.215,81.576,752,86.148V69h14.263v8.722Z" transform="translate(-752 -69)" fill="url(#linear-gradient)"/>
  </g>
  <path id="Path_13455" data-name="Path 13455" d="M760.891,83.34,754,87.828V71h13.622v8.558Z" transform="translate(-633.161 -59.621)" fill="#fafafa"/>
  <path id="Path_13456" data-name="Path 13456" d="M723,120.142h23.559L723,107Z" transform="translate(-607.129 -89.852)" opacity="0.05"/>
  <path id="Path_13457" data-name="Path 13457" d="M723,121.142h23.559L723,108Z" transform="translate(-607.129 -90.692)" fill="#f5f5f5"/>
  <rect id="Rectangle_7152" data-name="Rectangle 7152" width="9.936" height="0.641" transform="translate(122.602 13.943)" fill="#fff"/>
  <rect id="Rectangle_7153" data-name="Rectangle 7153" width="9.936" height="0.641" transform="translate(122.602 15.225)" fill="#fff"/>
  <rect id="Rectangle_7154" data-name="Rectangle 7154" width="9.936" height="0.641" transform="translate(122.602 16.507)" fill="#a4ebf3"/>
  <rect id="Rectangle_7155" data-name="Rectangle 7155" width="9.936" height="0.641" transform="translate(122.602 17.789)" fill="#fff"/>
  <rect id="Rectangle_7156" data-name="Rectangle 7156" width="9.936" height="0.641" transform="translate(122.602 19.071)" fill="#a4ebf3"/>
  <path id="Path_13458" data-name="Path 13458" d="M802.27,123.321V123l-7.01,3.9.191.106Z" transform="translate(-667.809 -103.288)" opacity="0.05"/>
  <g id="Group_25410" data-name="Group 25410" transform="translate(86.706 99.364)" opacity="0.5">
    <rect id="Rectangle_7157" data-name="Rectangle 7157" width="27.878" height="28.046" fill="url(#linear-gradient)"/>
  </g>
  <rect id="Rectangle_7158" data-name="Rectangle 7158" width="26.604" height="26.764" transform="translate(87.344 100.005)" fill="#f5f5f5"/>
  <rect id="Rectangle_7159" data-name="Rectangle 7159" width="23.399" height="20.514" transform="translate(89.107 100.806)" fill="#fff"/>
  <path id="Path_13459" data-name="Path 13459" d="M742.618,749.186c-6.467,0-11.7-1.649-11.7-3.686-6.467,0-11.7,1.434-11.7,3.205V756.4h23.4Z" transform="translate(-630.113 -634.437)" fill="#e0e0e0"/>
  <circle id="Ellipse_1748" data-name="Ellipse 1748" cx="2.404" cy="2.404" r="2.404" transform="translate(106.255 102.889)" fill="#a4ebf3"/>
  <g id="Group_25411" data-name="Group 25411" transform="translate(0 51.244)" opacity="0.5">
    <rect id="Rectangle_7160" data-name="Rectangle 7160" width="32.694" height="23.158" fill="url(#linear-gradient)"/>
  </g>
  <rect id="Rectangle_7161" data-name="Rectangle 7161" width="30.771" height="21.796" transform="translate(0.962 51.925)" fill="#fff"/>
  <path id="Path_13460" data-name="Path 13460" d="M238.1,410.84a5.972,5.972,0,0,0-.769.051l.769,5.878-5.915-.394c-.008.13-.014.261-.014.394a5.93,5.93,0,1,0,5.93-5.93Z" transform="translate(-221.12 -353.411)" fill="#e0e0e0"/>
  <path id="Path_13461" data-name="Path 13461" d="M229.406,404.16a5.93,5.93,0,0,0-5.146,5.484l5.915.394Z" transform="translate(-214.477 -347.802)" fill="#a4ebf3"/>
</svg>
