<svg xmlns="http://www.w3.org/2000/svg" width="349.59" height="192.173" viewBox="0 0 349.59 192.173">
  <g id="Group_27158" data-name="Group 27158" transform="translate(0 37.721)">
    <g id="undraw_candidate_ubwv" transform="translate(0 0)">
      <path id="Path_11517" data-name="Path 11517" d="M796.878,667.27l-1.061-13.189-3.032,13.947s.04,3.519.141,7.373h3.884C796.941,670.995,796.878,667.27,796.878,667.27Z" transform="translate(-590.936 -520.949)" fill="#f2f2f2"/>
      <path id="Path_11518" data-name="Path 11518" d="M524.484,668.6a26.854,26.854,0,0,1-.631-3.749l-.424-4.562c-.179-1.25-.362-2.35-.546-3.322-1.352-6.929-2.747-7.179-2.747-7.179-.06.046-.118.1-.178.149a4.512,4.512,0,0,0-.457.482c-2.222,2.824-3.73,10.15-4.522,15.01-.437,2.685-.655,4.616-.655,4.616s.2.823.468,2h10.141A18.041,18.041,0,0,0,524.484,668.6Z" transform="translate(-373.104 -517.594)" fill="#f2f2f2"/>
      <path id="Path_11519" data-name="Path 11519" d="M427.749,148H183.841C154.778,148,131,168.267,131,193.039V294.832c0,24.771,23.778,45.039,52.841,45.039h77.306l-1-4s-2.566-14.113,0-25.116a71.186,71.186,0,0,0,1.7-10.46,54.563,54.563,0,0,1,2.272-11.745c.068-.222.144-.442.215-.663-.626-.145-.913-.261-.768-.334.4-.2.621-.82.731-1.6a67.176,67.176,0,0,1,3.89-15.278c-2.593,1.387-4.314,1.535-5.441,1-3.96-.922-2.316-8.513-2.316-8.513s2.461-16.42,3.279-22.366c.47-3.417,6.492-5.354,11.823-6.405a4.425,4.425,0,0,0,.709-3.147c-.017-.073-.042-.144-.065-.215-.678-1.283-2.056-2.339-2.573-3.668a3.516,3.516,0,0,1-.478-1.145c-.458-2.278,2.042-4.246,2.762-6.438a5.261,5.261,0,0,1-1.6-2.184c-1.1-1.92-.563-4.224,2.964-6,.7-.355,1.45-.669,2.208-.969a3.743,3.743,0,0,1,.9-.35c2.523-.973,5.06-1.914,6.57-3.808a3.626,3.626,0,0,1,1.359-1.31,3.009,3.009,0,0,1,.936-.179c4.862-.318,9.264,3.236,14.1,2.726,1.466-.154,2.962-.68,4.369-.3a5.162,5.162,0,0,1,2.268,1.48,13.672,13.672,0,0,1,3.88,12.557c-.614,2.717-2.106,5.517-1.03,8.131.79,1.921,2.9,3.48,2.92,5.511.012,1.672-1.38,3.006-2.725,4.307q.262.229.511.47c3.288,3.193,2.666,5.917,2.2,7.009h0l-1.691,13.905-1.426,9.329s-.352,3.828-3.673,4.668a6.219,6.219,0,0,1-3.9.05c-1.081-.28-1.991-.56-2.764-.833a26.954,26.954,0,0,1,1.784,9.989c-.285,5.5.57,5.98.57,5.98a1.093,1.093,0,0,1-.181.153,19.574,19.574,0,0,1-.1,19.462c-3.992,7.415.285,24.638.285,24.638s.3,2.687.441,5.678H366.3c-.974-7.917-2.144-15.843-2.663-16.729-.857-1.461.231-25.523.637-33.881-.18-.039-.357-.078-.523-.119-.289-.071-.55-.145-.79-.22a4.216,4.216,0,0,0,.157,1.264c.36.717-.5,1.244-1.973,1.6.854,3.553,1.909,10.166-1.66,11.447-3.672,1.318-3.746-6.687-3.544-10.86-.463.015-.928.022-1.387.022-4.411,0,1.3-43.573,1.038-46.448s2.076-14.6,2.076-14.6a4.451,4.451,0,0,1,3.114-2.875c2.335-.442,13.494-5.972,13.494-5.972a7.938,7.938,0,0,1,2.336-1.885v-.327a8.453,8.453,0,0,1,.926-.639c-.136-1.933-.443-4.426-.666-6.11a7.418,7.418,0,0,1-2.435-3.971,13.826,13.826,0,0,1-1.359-1.029,5.576,5.576,0,0,1-1.74-3.766,10.29,10.29,0,0,1,.692-4.066,4.5,4.5,0,0,1,.6-1.242,4.969,4.969,0,0,1,1.359-1.148c.158-.1.32-.193.482-.287a4.149,4.149,0,0,1,1.468-1.421,9.148,9.148,0,0,1,4.613-.647h.072q.441-.06.884-.1a.854.854,0,0,0,.71-.592l.643.527q.483-.006.965.014a5.646,5.646,0,0,1,.5-.8l.353.857c.323.029.644.066.964.114l.757-.512c.056-.038.257.522.358.714.174.038.347.078.518.124.268-.01.566-.053.731-.051a5.576,5.576,0,0,1,2.608.554,5.094,5.094,0,0,1,1.658,1.631,9.587,9.587,0,0,1,1.85,4.549,4.936,4.936,0,0,1,1.027,1.955c.428,2.22-2.047,4.076-2.538,6.287-.262,1.18.037,2.486-.668,3.525a4.018,4.018,0,0,1-1.189,1.062,9.256,9.256,0,0,1-.878.493,16.513,16.513,0,0,0,.537,3.976l.334,1.091c.519.319,1.079.688,1.694,1.121,0,0,7.266,2.654,9.861,3.981,2.281,1.167,4.762,1.309,5.5,2.829l.2.047s2.6,24.551,2.855,28.754,3.373,30.081,2.855,31.187c-.192.409-1.416.879-2.894,1.252.862,3.359,2.254,10.665-1.518,12.018-3.824,1.372-3.745-7.368-3.518-11.359-.51-.039-.844-.153-.894-.364-.042-.18-.178-.992-.373-2.23l-1.015.133-.22.028c3.29,8.821-4,32.215-5.4,36.794-.732,2.393-1.522,8.309-2.234,14.3h32.1c29.062,0,52.841-20.267,52.841-45.039V193.039C480.59,168.267,456.811,148,427.749,148Z" transform="translate(-131 -185.721)" fill="#7fd6c2"/>
      <ellipse id="Ellipse_1585" data-name="Ellipse 1585" cx="20.684" cy="18.823" rx="20.684" ry="18.823" transform="translate(82.797 40.915)" fill="#3f3d56"/>
      <path id="Path_11520" data-name="Path 11520" d="M468.556,532.7h0s6.967-4.79,6.967-6.968,4.79-16.33,7.4-10.016-3.7,15.241-3.7,15.241-6.967,12.628-11.1,14.806a9.931,9.931,0,0,1-7.621.871v-5.879l3.981-5.891A4.919,4.919,0,0,1,468.556,532.7Z" transform="translate(-331 -411.453)" fill="#ffb9b9"/>
      <path id="Path_11521" data-name="Path 11521" d="M406.544,446.336s10.442,3.3,11.53,4.826,1.524-1.089,4.572,8.927a104.684,104.684,0,0,1,3.81,19.7s-7.512,2.5-6.641,12.3a82.376,82.376,0,0,1-1.306,20.467h-2.718L409.8,494.055l7.185-28.087S406.771,448.7,406.544,446.336Z" transform="translate(-288.792 -358.437)" fill="#575a89"/>
      <circle id="Ellipse_1586" data-name="Ellipse 1586" cx="13.064" cy="13.064" r="13.064" transform="translate(101.195 52.662)" fill="#ffb9b9"/>
      <path id="Path_11522" data-name="Path 11522" d="M339.967,371.252s-3.7,12.193-.435,13.935,6.967,9.58,6.967,9.58l-5.661,6.314H327.774l-5.879-6.532-2.4-11.1,3.266-2.613s3.484-8.709,3.484-13.282S339.967,371.252,339.967,371.252Z" transform="translate(-220.7 -295.728)" fill="#ffb9b9"/>
      <path id="Path_11523" data-name="Path 11523" d="M322.281,436.257s-2.613-.653-1.089,1.96,3.048,7.4-2.4,7.621-10.887-2.613-12.628-8.492-2.4-5.443-3.048-5.226-7.621,7.4-7.621,7.4l2.4,13.5.871,48.336h31.789s1.306-13.935-.871-17.2,1.96-11.54,1.96-11.54,3.7-5.661.871-16.548S323.37,436.257,322.281,436.257Z" transform="translate(-201.926 -347.234)"/>
      <path id="Path_11524" data-name="Path 11524" d="M261.62,430.912a5.73,5.73,0,0,0-6.1,1.089c-2.83,2.613-9.145,4.79-9.145,6.1s5.443,38.538,1.742,45.07a149.575,149.575,0,0,0-7.621,16.983h18.162s2.958-10.887,6.007-16.765,2.831-22.426,1.96-27.434S261.62,430.912,261.62,430.912Z" transform="translate(-158.901 -346.026)" fill="#575a89"/>
      <path id="Path_11525" data-name="Path 11525" d="M118.5,539.33l1.06,11.54h11.768l-1.071-14.37Z" transform="translate(-34.941 -396.745)" fill="#ffb9b9"/>
      <path id="Path_11526" data-name="Path 11526" d="M364.5,457.354l2.83,17.636h62.924L435.7,439.5Z" transform="translate(-227.379 -320.865)" fill="#3f3d56"/>
      <path id="Path_11527" data-name="Path 11527" d="M412.278,428.5l.653,3.266-81.432,19.6v-2.83Z" transform="translate(-201.564 -312.26)" fill="#3f3d56"/>
      <path id="Path_11528" data-name="Path 11528" d="M542.935,453.153l-.435,3.7,4.79-.653-1.96-3.7Z" transform="translate(-366.623 -331.035)" fill="#3f3d56"/>
      <path id="Path_11529" data-name="Path 11529" d="M554.5,431.447s9.58-.653,12.193,6.75,8.709,20.684,11.1,22.644,5.008,7.185,4.572,8.927" transform="translate(-404.533 -346.779)" fill="none" stroke="#3f3d56" stroke-width="5"/>
      <path id="Path_11530" data-name="Path 11530" d="M541.443,424.351c0,1.022-1.087,1.851-2.831,1.851S536,425.373,536,424.351s.869-1.851,2.613-1.851S541.443,423.329,541.443,424.351Z" transform="translate(-390.061 -339.791)"/>
      <path id="Path_11531" data-name="Path 11531" d="M424.062,476.963s1.633-6.859-1.415-16.874-3.484-7.4-4.572-8.927-11.53-4.826-11.53-4.826c.075.775,1.228,3.161,2.742,6.014a11.581,11.581,0,0,0-1.228-2.931c-1.524-2.613,1.089-1.96,1.089-1.96,1.089,0,7.4,8.927,10.233,19.814s-.871,16.548-.871,16.548Z" transform="translate(-288.792 -358.437)" fill="#575a89"/>
      <path id="Path_11532" data-name="Path 11532" d="M407,446s1.289,4.89,2.386,5.6,7.605,7.474,7.605,7.474l-.847-5.455-3.484-5.226-.927-.672Z" transform="translate(-289.148 -358.174)" fill="#575a89"/>
      <path id="Path_11533" data-name="Path 11533" d="M246.514,474.713l.3-11.213s-7.162,3.048-7.815,16.112,1.089,37.668,3.484,37.885,13.717-2.4,13.717-2.4,1.742-31.571,1.089-35.708S246.514,474.713,246.514,474.713Z" transform="translate(-157.621 -371.864)" opacity="0.1"/>
      <path id="Path_11534" data-name="Path 11534" d="M241.583,463.5h-1.765s-7.162,3.048-7.815,16.112,1.089,37.668,3.484,37.885,13.717-2.4,13.717-2.4,1.742-31.571,1.089-35.708S241.583,463.5,241.583,463.5Z" transform="translate(-152.145 -371.864)" fill="#575a89"/>
      <ellipse id="Ellipse_1587" data-name="Ellipse 1587" cx="13.499" cy="15.132" rx="13.499" ry="15.132" transform="translate(85.192 47.11)" fill="#3f3d56"/>
      <ellipse id="Ellipse_1588" data-name="Ellipse 1588" cx="2.722" cy="4.028" rx="2.722" ry="4.028" transform="translate(105.659 66.488)" fill="#ffb9b9"/>
      <circle id="Ellipse_1589" data-name="Ellipse 1589" cx="11.104" cy="11.104" r="11.104" transform="translate(74.087 36.006)" fill="#3f3d56"/>
      <path id="Path_11535" data-name="Path 11535" d="M205.331,268.087a11.1,11.1,0,0,1-16.089-8.843,11.1,11.1,0,1,0,22.029.618A11.087,11.087,0,0,1,205.331,268.087Z" transform="translate(-118.704 -212.081)" fill="#3f3d56"/>
      <path id="Path_11536" data-name="Path 11536" d="M210.884,204.6a11.1,11.1,0,0,1,5.592-17.486,11.1,11.1,0,1,0,3.62,21.738A11.087,11.087,0,0,1,210.884,204.6Z" transform="translate(-131.785 -155.659)" fill="#3f3d56"/>
      <ellipse id="Ellipse_1590" data-name="Ellipse 1590" cx="7.838" cy="5.661" rx="7.838" ry="5.661" transform="translate(107.183 49.94)" fill="#3f3d56"/>
    </g>
  </g>
</svg>
