<svg xmlns="http://www.w3.org/2000/svg" width="108.554" height="96.869" viewBox="0 0 108.554 96.869">
  <g id="undraw_Steps_re_odoy" transform="translate(-0.001)">
    <path id="Path_14836" data-name="Path 14836" d="M297.686,649.99a52.615,52.615,0,0,1-.5,6.761c-.011.079-.023.157-.034.236l-21.182-.118c-.062-.078-.123-.157-.183-.237-.2-.265-.383-.537-.553-.819a5.247,5.247,0,0,1-.817-4.043l.007-.017a1.925,1.925,0,0,1,.376-.653c.855-.963,2.585-.8,4.155-.025a9.163,9.163,0,0,1-2.614-5.221,5.275,5.275,0,0,1,1.762-3.93l.095-.1.047-.05a3.629,3.629,0,0,1,2.887-1.462,6.471,6.471,0,0,1,4,2.617,22.627,22.627,0,0,1,2.52,4.388,17.708,17.708,0,0,0,2.68,4.316,16.5,16.5,0,0,1-3.324-6.483c-.471-2.211-.056-4.335,1.352-5.376a3.294,3.294,0,0,1,1.442-.582c.061-.01.122-.018.185-.026a5.781,5.781,0,0,1,4.184,1.38,9.631,9.631,0,0,1,2.972,4.615A15.746,15.746,0,0,1,297.686,649.99Z" transform="translate(-274.275 -560.119)" fill="#f2f2f2"/>
    <path id="Path_14837" data-name="Path 14837" d="M285.05,716.074l-.405,0q-.193-.121-.388-.238c-.08-.051-.162-.1-.243-.149q-2.015-1.231-4.056-2.361t-4.1-2.158a.17.17,0,0,1-.1-.194.047.047,0,0,1,.007-.014c.019-.036.062-.051.124-.02.168.084.338.169.506.255q2.065,1.045,4.112,2.194t4.068,2.4l.085.053Z" transform="translate(-275.498 -619.28)" fill="#fff"/>
    <path id="Path_14838" data-name="Path 14838" d="M306.988,669.53h-.25l-.169-.237-3.981-5.584-6.516-9.141a.16.16,0,0,1-.028-.055c-.019-.067.031-.107.094-.1a.19.19,0,0,1,.132.084l3.653,5.125,6.483,9.095.412.578Z" transform="translate(-292.213 -572.707)" fill="#fff"/>
    <path id="Path_14839" data-name="Path 14839" d="M367.422,655.412c-.013.422-.041.837-.077,1.249l-.021.236h-.263c.008-.079.016-.157.023-.236.056-.595.095-1.2.1-1.813a25.3,25.3,0,0,0-.5-5.1,31.748,31.748,0,0,0-1.542-5.3,36.381,36.381,0,0,0-2.524-5.242.14.14,0,0,1-.023-.093c.011-.075.111-.1.185-.026a.219.219,0,0,1,.038.048q.182.313.357.627a36.358,36.358,0,0,1,2.415,5.26,31.6,31.6,0,0,1,1.438,5.306,24.962,24.962,0,0,1,.392,5.083Z" transform="translate(-347.067 -560.043)" fill="#fff"/>
    <path id="Path_14840" data-name="Path 14840" d="M713.725,162.68a3.341,3.341,0,1,1,3.341,3.341,3.341,3.341,0,0,1-3.341-3.341Zm6.33,0a2.989,2.989,0,1,0-2.989,2.989,2.989,2.989,0,0,0,2.989-2.989Z" transform="translate(-640.747 -159.339)" fill="#efefef"/>
    <circle id="Ellipse_2238" data-name="Ellipse 2238" cx="1.934" cy="1.934" r="1.934" transform="translate(74.418 1.407)" fill="#937998"/>
    <circle id="Ellipse_2239" data-name="Ellipse 2239" cx="3.165" cy="3.165" r="3.165" transform="translate(62.528 0.176)" fill="#efefef"/>
    <circle id="Ellipse_2240" data-name="Ellipse 2240" cx="3.165" cy="3.165" r="3.165" transform="translate(51.898 0.176)" fill="#efefef"/>
    <path id="Path_14841" data-name="Path 14841" d="M516.417,278.691h-80.7a2.992,2.992,0,0,1-2.989-2.989V233.328a2.992,2.992,0,0,1,2.989-2.989h80.7a2.992,2.992,0,0,1,2.989,2.989V275.7A2.992,2.992,0,0,1,516.417,278.691Zm-80.7-48a2.64,2.64,0,0,0-2.637,2.637V275.7a2.64,2.64,0,0,0,2.637,2.637h80.7a2.64,2.64,0,0,0,2.637-2.637V233.328a2.64,2.64,0,0,0-2.637-2.637Z" transform="translate(-410.851 -217.855)" fill="#3f3d56"/>
    <path id="Path_14842" data-name="Path 14842" d="M494.461,316.064H473.714a2.992,2.992,0,0,1-2.989-2.989V292.328a2.992,2.992,0,0,1,2.989-2.989h20.747a2.992,2.992,0,0,1,2.989,2.989v20.747a2.992,2.992,0,0,1-2.989,2.989Zm-20.747-26.374a2.64,2.64,0,0,0-2.637,2.637v20.747a2.64,2.64,0,0,0,2.637,2.637h20.747a2.64,2.64,0,0,0,2.637-2.637V292.328a2.64,2.64,0,0,0-2.637-2.637Z" transform="translate(-438.538 -268.099)" fill="#efefef"/>
    <path id="Path_14843" data-name="Path 14843" d="M703.033,340.152H663.121a1.407,1.407,0,1,1,0-2.813h39.912a1.407,1.407,0,0,1,0,2.813Z" transform="translate(-599.579 -307.724)" fill="#efefef"/>
    <path id="Path_14844" data-name="Path 14844" d="M682.813,306.152H663.121a1.407,1.407,0,1,1,0-2.813h19.692a1.407,1.407,0,1,1,0,2.813Z" transform="translate(-598.023 -279.381)" fill="#efefef"/>
    <path id="Path_14845" data-name="Path 14845" d="M703.033,407.152H663.121a1.407,1.407,0,1,1,0-2.813h39.912a1.407,1.407,0,0,1,0,2.813Z" transform="translate(-599.579 -363.577)" fill="#efefef"/>
    <path id="Path_14846" data-name="Path 14846" d="M682.813,373.152H663.121a1.407,1.407,0,1,1,0-2.813h19.692a1.407,1.407,0,1,1,0,2.813Z" transform="translate(-598.023 -335.234)" fill="#efefef"/>
    <path id="Path_14847" data-name="Path 14847" d="M501.4,318.122a.175.175,0,0,1-.125-.052L476.724,293.19a.176.176,0,0,1,.25-.247l24.548,24.879a.176.176,0,0,1-.125.3Z" transform="translate(-443.462 -271.039)" fill="#efefef"/>
    <path id="Path_14848" data-name="Path 14848" d="M475.337,318.122a.176.176,0,0,1-.125-.3l24.547-24.879a.176.176,0,1,1,.25.247l-24.547,24.879A.175.175,0,0,1,475.337,318.122Z" transform="translate(-442.199 -271.039)" fill="#efefef"/>
    <path id="Path_14849" data-name="Path 14849" d="M824.2,450.289H812.95a2.725,2.725,0,1,1,0-5.451H824.2a2.725,2.725,0,0,1,0,5.451Z" transform="translate(-721.978 -397.413)" fill="#937998"/>
    <path id="Path_14850" data-name="Path 14850" d="M281.807,738.915H334.73a.176.176,0,0,0,0-.352H281.807a.176.176,0,0,0,0,.352Z" transform="translate(-280.337 -642.063)" fill="#3f3d56"/>
    <path id="Path_14851" data-name="Path 14851" d="M196.282,530.8h2.156l1.025-8.314h-3.181Z" transform="translate(-163.626 -435.961)" fill="#a0616a"/>
    <path id="Path_14852" data-name="Path 14852" d="M0,0H6.775V2.617H2.617A2.617,2.617,0,0,1,0,0H0Z" transform="translate(38.933 96.84) rotate(179.997)" fill="#2f2e41"/>
    <path id="Path_14853" data-name="Path 14853" d="M107.329,520.435l1.961.9,4.388-7.137-2.894-1.322Z" transform="translate(-89.502 -428.039)" fill="#a0616a"/>
    <path id="Path_14854" data-name="Path 14854" d="M0,0H6.775V2.617H2.617A2.617,2.617,0,0,1,0,0H0Z" transform="translate(22.798 96.84) rotate(-155.452)" fill="#2f2e41"/>
    <path id="Path_14855" data-name="Path 14855" d="M404.768,530.027a1.768,1.768,0,0,1-.141-2.707l-2.534-5.749,3.219.546,1.913,5.376a1.778,1.778,0,0,1-2.457,2.535Z" transform="translate(-380.853 -461.524)" fill="#a0616a"/>
    <path id="Path_14856" data-name="Path 14856" d="M401.426,567.954l-2.068-18.061a.615.615,0,0,0-1.214-.055l-1.025,4.94a.787.787,0,0,1-.071.2l-6,11.669a.791.791,0,0,1-.977.38l-2.087-.769a.791.791,0,0,1-.465-1.027l4.885-12.669a.615.615,0,0,0,.041-.21l.25-13.228a.792.792,0,0,1,.714-.773l12.964-1.265a.791.791,0,0,1,.866.845l-2.178,29.988a.794.794,0,0,1-.789.734h-2.059A.791.791,0,0,1,401.426,567.954Z" transform="translate(-368.82 -476.01)" fill="#2f2e41"/>
    <circle id="Ellipse_2241" data-name="Ellipse 2241" cx="4.318" cy="4.318" r="4.318" transform="translate(27.649 33.172)" fill="#a0616a"/>
    <path id="Path_14857" data-name="Path 14857" d="M428.7,417.6q-.177-.085-.352-.163h0a8.744,8.744,0,0,0-8.795.95,7.421,7.421,0,0,0-3.042,7.076c.774,5.868-.112,13.827-.2,14.62,7.1,3.264,13.327-.84,13.88-1.221Z" transform="translate(-392.822 -374.536)" fill="#937998"/>
    <path id="Path_14858" data-name="Path 14858" d="M394.592,463.347a.789.789,0,0,1-.6-.456l-3.624-8.029a2.013,2.013,0,0,1,.121-1.887l4.45-7.221a1.461,1.461,0,0,1,2.605,1.321l-3.292,6.913,2.163,7.323a.8.8,0,0,1-.176.759L395.3,463.1a.789.789,0,0,1-.582.257A.8.8,0,0,1,394.592,463.347Z" transform="translate(-370.952 -397.963)" fill="#937998"/>
    <path id="Path_14859" data-name="Path 14859" d="M469.443,476.959l-.67-13.4.174-.023,3.012,14.172h-1.725A.791.791,0,0,1,469.443,476.959Z" transform="translate(-436.413 -413.299)" opacity="0.2"/>
    <path id="Path_14860" data-name="Path 14860" d="M482.122,522.8a1.768,1.768,0,0,1,.424-2.678l-1.285-6.15,3.036,1.2.755,5.656a1.778,1.778,0,0,1-2.93,1.97Z" transform="translate(-446.838 -455.211)" fill="#a0616a"/>
    <path id="Path_14861" data-name="Path 14861" d="M470.8,441.7l-2.537-16.913,0-.016.49-2.256a2.378,2.378,0,0,1,4.7.407l.761,18.423a.794.794,0,0,1-.7.819l-1.84.2a.822.822,0,0,1-.089.005.789.789,0,0,1-.781-.674Z" transform="translate(-436.035 -377.748)" fill="#937998"/>
    <path id="Path_14862" data-name="Path 14862" d="M439.181,359.17a3.11,3.11,0,0,1-2.792-1.795h0a6.332,6.332,0,0,1-.661-2.005,7.169,7.169,0,0,1,1.6-4.46c1.067-1.226,2.756-1.4,4.389-1.563.446-.045.908-.092,1.344-.16a2.528,2.528,0,0,1,1.237.016.9.9,0,0,1,.516.488.31.31,0,0,0,.174.174.263.263,0,0,0,.211-.01.472.472,0,0,1,.428,0,.416.416,0,0,1,.223.3.435.435,0,0,0,.041.128.5.5,0,0,0,.33.249.445.445,0,0,1,.346.477c-.026.222-.037.461-.048.693-.041.871-.083,1.772-.959,1.757a2.521,2.521,0,0,1-.659-.116.978.978,0,0,0-.905.052,2.039,2.039,0,0,0-.678,1.6l-.013.1c-.087.682-.448,1.5-1.177,1.572a1.7,1.7,0,0,1-.678-.117,1.214,1.214,0,0,0-.706-.085.973.973,0,0,0-.577,1.006,3.924,3.924,0,0,0,.065.5,2.687,2.687,0,0,1,.056.8c-.021.164-.209.272-.592.34A2.967,2.967,0,0,1,439.181,359.17Z" transform="translate(-408.971 -317.683)" fill="#2f2e41"/>
  </g>
</svg>
