<svg id="undraw_Hello_qnas" xmlns="http://www.w3.org/2000/svg" xmlns:xlink="http://www.w3.org/1999/xlink" width="108.212" height="86.763" viewBox="0 0 108.212 86.763">
  <defs>
    <linearGradient id="linear-gradient" x1="0.5" y1="1" x2="0.5" gradientUnits="objectBoundingBox">
      <stop offset="0" stop-color="gray" stop-opacity="0.251"/>
      <stop offset="0.535" stop-color="gray" stop-opacity="0.122"/>
      <stop offset="1" stop-color="gray" stop-opacity="0.102"/>
    </linearGradient>
  </defs>
  <path id="Path_12384" data-name="Path 12384" d="M180.868,586.914c0,5.246-3.119,7.078-6.966,7.078q-.134,0-.267,0c-.178,0-.355-.012-.529-.024-3.472-.245-6.17-2.172-6.17-7.05,0-5.048,6.45-11.419,6.937-11.892h0l.028-.028S180.868,581.667,180.868,586.914Z" transform="translate(-164.949 -517.118)" fill="#3f3d56"/>
  <path id="Path_12385" data-name="Path 12385" d="M203.473,593.189l2.548-3.56-2.554,3.95-.007.409c-.178,0-.355-.012-.529-.024l.274-5.248,0-.041,0-.008.026-.5-2.561-3.961,2.568,3.589.006.105.208-3.965-2.192-4.092,2.219,3.4.216-8.221v0l-.036,6.483,2.182-2.57-2.191,3.128-.058,3.551,2.038-3.407-2.046,3.93-.032,1.974,2.958-4.743-2.969,5.432Z" transform="translate(-194.774 -517.118)" fill="#f2f2f2"/>
  <g id="Group_23687" data-name="Group 23687" transform="translate(90.392 31.763)" opacity="0.7">
    <path id="Path_12386" data-name="Path 12386" d="M935.629,351.066V349.8h-6.317v5.843a1.232,1.232,0,0,0,1.232,1.232H934.4a1.232,1.232,0,0,0,1.232-1.232V354.35a1.642,1.642,0,0,0,0-3.285Zm0,2.653V351.7a1.011,1.011,0,1,1,0,2.021Z" transform="translate(-929.312 -349.802)" fill="url(#linear-gradient)"/>
  </g>
  <path id="Path_12387" data-name="Path 12387" d="M970.6,362.4a1.5,1.5,0,1,0,1.5,1.5A1.5,1.5,0,0,0,970.6,362.4Zm0,2.422a.923.923,0,1,1,.923-.923.923.923,0,0,1-.923.923Z" transform="translate(-874.097 -329.179)" fill="#a2d2ff"/>
  <path id="Path_12388" data-name="Path 12388" d="M970.6,362.4a1.5,1.5,0,1,0,1.5,1.5A1.5,1.5,0,0,0,970.6,362.4Zm0,2.422a.923.923,0,1,1,.923-.923.923.923,0,0,1-.923.923Z" transform="translate(-874.097 -329.179)" opacity="0.1"/>
  <path id="Path_12389" data-name="Path 12389" d="M782.493,276.563h5.768v5.329a1.131,1.131,0,0,1-1.131,1.131h-3.506a1.131,1.131,0,0,1-1.131-1.131Z" transform="translate(-691.755 -244.492)" fill="#a2d2ff"/>
  <path id="Path_12390" data-name="Path 12390" d="M964.508,352.455v5.335a1.125,1.125,0,0,1-1.125,1.125h.577a1.125,1.125,0,0,0,1.125-1.125v-5.335Z" transform="translate(-869.04 -320.385)" opacity="0.1"/>
  <path id="Path_12391" data-name="Path 12391" d="M940,314.248a.337.337,0,0,0-.255.129c-.076.137.062.292.187.386a2.481,2.481,0,0,1,.632.588.737.737,0,0,1,.035.815c-.224.3-.759.37-.811.744-.033.24.175.445.385.566.52.3,1.189.377,1.566.843a1.214,1.214,0,0,1,.851-.584c.347-.079.708-.073,1.06-.127a.366.366,0,0,0,.292-.155c.1-.2-.182-.439-.085-.64.073-.153.29-.141.448-.2a.584.584,0,0,0,.29-.7,1.311,1.311,0,0,0-.5-.644,5.557,5.557,0,0,0-2-.924,5.123,5.123,0,0,0-1.062-.246A5.311,5.311,0,0,0,940,314.248Z" transform="translate(-848.128 -286.477)" fill="#eee"/>
  <line id="Line_897" data-name="Line 897" x1="12.06" y2="37.571" transform="translate(39.335 39.892)" fill="none" stroke="#e0e0e0" stroke-width="8"/>
  <g id="Group_23688" data-name="Group 23688" transform="translate(22.192 0)" opacity="0.7">
    <path id="Path_12392" data-name="Path 12392" d="M379.724,157.587a5.254,5.254,0,0,0-2.805,1.329l-.639-1.585-.052.017c.312-1.367,6.664-29.537.305-31.966-4.886-1.866-10.068-4.176-14.128-4.089v-6.655H368.1V114.4H372.6c.864-.617-.391-1.041-1.794-1.307a1.284,1.284,0,0,0,.15-.212l7.218-12.949s1.66-2.728.593-4.032-2.609,3.321-2.609,3.321l-5.93,8.539s-5.985-6.238-9.792-9.34a6.664,6.664,0,0,0-1.417-1.071c-.695-.47-1.221-.714-1.48-.618l-.007,0a6.643,6.643,0,0,0-1.771-.241h-.474v-.973a7.608,7.608,0,0,0,4.7-4.453,8.546,8.546,0,0,0,.677-7.441.494.494,0,0,0,.2-.069.728.728,0,0,0,.215-.7,5.283,5.283,0,0,0-2.681-4.13,5.643,5.643,0,0,1-1.732-1.077c-.381-.449-.541-1.076-1-1.442a2.245,2.245,0,0,0-2.01-.166,7.312,7.312,0,0,0-2.1.99,9.4,9.4,0,0,1-2.218,1.412c-.594.2-1.239.192-1.837.376a3.085,3.085,0,0,0-1.985,1.936,4.03,4.03,0,0,0-.17,1.513,8.489,8.489,0,0,0-.852,1.938l-.134.073.13-.058a8.537,8.537,0,0,0,2.405,8.707,7.6,7.6,0,0,0,3.647,2.588V96.7a8.968,8.968,0,0,0-2.911,1.192v0s-.076.047-.205.134l-.039.026c-.878.6-3.818,2.772-3.719,5.123q-.006.136,0,.272a9.042,9.042,0,0,0-.242,2.074v17.066a8.381,8.381,0,0,0,1.8,5.2c-2.475.555-4.052,1.394-4.052,2.332a.76.76,0,0,1,0,.237c0,1.67,4.991,3.024,11.147,3.024.744,0,1.471-.02,2.175-.058l6.956,5.631-11.147,17.907s-3.676,2.846-.83,3.795a61.352,61.352,0,0,0,8.657,1.66s.949-1.66-.356-2.372a5.253,5.253,0,0,0-3.083-.356l.237-1.423s19.33-16.6,15.3-22.3c-.771-1.089-1.543-2.213-2.321-3.319l3.043.277.692,26.063.087-.028c-.174.512-1.4,4.376,1.322,3.722a61.351,61.351,0,0,0,8.225-3.169S381.208,157.5,379.724,157.587ZM368.1,112.741l-5.692-1.653v-4.87l6.187,6.568C368.288,112.755,368.1,112.741,368.1,112.741Z" transform="translate(-341.177 -75.892)" fill="url(#linear-gradient)"/>
  </g>
  <circle id="Ellipse_1688" data-name="Ellipse 1688" cx="8.349" cy="8.349" r="8.349" transform="translate(25.536 3.133)"/>
  <path id="Path_12393" data-name="Path 12393" d="M485.951,269.032l6.372,6.764a1.245,1.245,0,0,0,1.993-.248l7.058-12.662-1.971-.7-5.8,8.349s-10.885-11.345-12.408-10.784S485.951,269.032,485.951,269.032Z" transform="translate(-442.557 -238.416)" fill="#a2d2ff"/>
  <line id="Line_898" data-name="Line 898" x1="9.393" y2="24.352" transform="translate(21.825 54.039)" fill="none" stroke="#bdbdbd" stroke-width="5"/>
  <line id="Line_899" data-name="Line 899" x2="9.393" y2="24.352" transform="translate(35.856 54.039)" fill="none" stroke="#bdbdbd" stroke-width="5"/>
  <ellipse id="Ellipse_1689" data-name="Ellipse 1689" cx="10.9" cy="2.957" rx="10.9" ry="2.957" transform="translate(22.637 51.256)" fill="#b84733"/>
  <ellipse id="Ellipse_1690" data-name="Ellipse 1690" cx="10.9" cy="2.957" rx="10.9" ry="2.957" transform="translate(22.637 51.024)" fill="#f55f44"/>
  <line id="Line_900" data-name="Line 900" x2="10.285" y2="3.169" transform="translate(28.95 59.39)" fill="none" stroke="#bdbdbd" stroke-width="5"/>
  <line id="Line_901" data-name="Line 901" x1="10.285" y2="3.169" transform="translate(27.839 59.39)" fill="none" stroke="#bdbdbd" stroke-width="5"/>
  <path id="Path_12394" data-name="Path 12394" d="M223.033,182.016h3.236a6.494,6.494,0,0,1,6.494,6.494v17.162H214.209V190.84A8.824,8.824,0,0,1,223.033,182.016Z" transform="translate(-189.369 -160.909)" fill="#a2d2ff"/>
  <path id="Path_12395" data-name="Path 12395" d="M214.209,386.016h18.554V396.1h-10.32a8.233,8.233,0,0,1-8.233-8.233Z" transform="translate(-189.369 -341.254)" fill="#39447a"/>
  <path id="Path_12396" data-name="Path 12396" d="M366.033,277.035l11.345,10.78H389.9v-1.623l-10.784-3.131-9.225-11.392S365.7,274.256,366.033,277.035Z" transform="translate(-340.943 -248.966)" opacity="0.05"/>
  <path id="Path_12397" data-name="Path 12397" d="M366.033,275.035l11.345,10.78H389.9v-1.623l-10.784-3.131-9.225-11.392S365.7,272.256,366.033,275.035Z" transform="translate(-340.943 -247.198)" fill="#a2d2ff"/>
  <path id="Path_12398" data-name="Path 12398" d="M572.012,394.908s6.03.464,4.406,1.623h-4.406Z" transform="translate(-523.053 -357.915)" fill="#fda57d"/>
  <path id="Path_12399" data-name="Path 12399" d="M640.012,254.427s1.508-4.522,2.551-3.247-.58,3.943-.58,3.943Z" transform="translate(-583.168 -230.653)" fill="#fda57d"/>
  <path id="Path_12400" data-name="Path 12400" d="M214.209,386.016v.541l18.554.039v-.58Z" transform="translate(-189.369 -341.253)" opacity="0.05"/>
  <path id="Path_12401" data-name="Path 12401" d="M477.63,477.145l12.48,1.137.677,25.485,4.468-1.455s6.682-28.874.31-31.308-13.26-5.639-17.372-3.027S477.63,477.145,477.63,477.145Z" transform="translate(-438.357 -421.651)" fill="#39447a"/>
  <path id="Path_12402" data-name="Path 12402" d="M495.012,486.909s6.842,3.479,7.769,7.421" transform="translate(-454.982 -439.247)" opacity="0.1"/>
  <path id="Path_12403" data-name="Path 12403" d="M423.172,492.2l9.741,7.885-10.9,17.51,4.522,1.276s18.9-16.234,14.959-21.8-7.885-12.06-12.756-12.176S423.172,492.2,423.172,492.2Z" transform="translate(-390.447 -437.469)" fill="#39447a"/>
  <path id="Path_12404" data-name="Path 12404" d="M414.209,251.016l2.435,4.175.58-1.16Z" transform="translate(-366.177 -221.908)" opacity="0.05"/>
  <path id="Path_12405" data-name="Path 12405" d="M407.769,766.908s-3.595,2.783-.812,3.711a59.987,59.987,0,0,0,8.465,1.623s.928-1.623-.348-2.319a5.137,5.137,0,0,0-3.015-.348l.232-1.392Z" transform="translate(-376.203 -686.778)" fill="#333"/>
  <path id="Path_12406" data-name="Path 12406" d="M599.512,772.348s-1.579,4.379,1.274,3.695a59.988,59.988,0,0,0,8.043-3.1s-.071-1.868-1.522-1.784a5.137,5.137,0,0,0-2.743,1.3l-.625-1.55Z" transform="translate(-546.978 -690.314)" fill="#333"/>
  <rect id="Rectangle_6910" data-name="Rectangle 6910" width="4.638" height="6.958" rx="2.319" transform="translate(31.797 17.048)" fill="#fda57d"/>
  <path id="Path_12407" data-name="Path 12407" d="M426.332,224.908a2.319,2.319,0,0,0-2.319,2.319v.788a7.422,7.422,0,0,0,4.638,0v-.788A2.319,2.319,0,0,0,426.332,224.908Z" transform="translate(-392.215 -207.629)" opacity="0.05"/>
  <circle id="Ellipse_1691" data-name="Ellipse 1691" cx="7.421" cy="7.421" r="7.421" transform="translate(26.695 5.684)" fill="#fda57d"/>
  <path id="Path_12408" data-name="Path 12408" d="M376.476,123.153a2.6,2.6,0,0,0,2.9-1.631c1.044-2.109,1.855-3.259,6.146-2.013s5.154,1.4,5.36.22c.141-.805-1.385-2.761-2.365-3.919a2.745,2.745,0,0,0-2.093-.9h-4.845l-2.9,1.342-2.2,1.917-.464,2.588Z" transform="translate(-349.781 -110.384)" opacity="0.05"/>
  <path id="Path_12409" data-name="Path 12409" d="M376.476,121.153a2.6,2.6,0,0,0,2.9-1.631c1.044-2.109,1.855-3.259,6.146-2.013s5.154,1.4,5.36.22c.141-.805-1.385-2.761-2.365-3.919a2.745,2.745,0,0,0-2.093-.9h-4.845l-2.9,1.342-2.2,1.917-.464,2.588Z" transform="translate(-349.781 -108.616)"/>
  <ellipse id="Ellipse_1692" data-name="Ellipse 1692" cx="0.754" cy="1.507" rx="0.754" ry="1.507" transform="translate(26.695 11.018)" fill="#fda57d"/>
  <path id="Path_12410" data-name="Path 12410" d="M373.039,91.874a5.974,5.974,0,0,1-.028-2.925,3.017,3.017,0,0,1,1.941-1.893c.585-.18,1.215-.176,1.8-.367a9.19,9.19,0,0,0,2.169-1.381,7.151,7.151,0,0,1,2.051-.968,2.2,2.2,0,0,1,1.965.162c.451.358.607.972.979,1.41a5.519,5.519,0,0,0,1.694,1.053,5.165,5.165,0,0,1,2.622,4.039.712.712,0,0,1-.211.68.752.752,0,0,1-.423.077c-2.966-.042-5.936-.085-8.89-.357a21.329,21.329,0,0,0-2.76-.157,9.028,9.028,0,0,0-4.064,1.147" transform="translate(-346.129 -83.228)"/>
  <rect id="Rectangle_6911" data-name="Rectangle 6911" width="17.868" height="7.603" rx="3.802" transform="translate(0 74.825)" fill="#a2d2ff"/>
  <path id="Path_12411" data-name="Path 12411" d="M724.4,484.423a.174.174,0,1,0-.168-.174A.174.174,0,0,0,724.4,484.423Z" transform="translate(-657.62 -436.742)" fill="url(#linear-gradient)"/>
  <line id="Line_902" data-name="Line 902" x2="12.06" y2="42.916" transform="translate(92.301 39.892)" fill="none" stroke="#e0e0e0" stroke-width="8"/>
  <rect id="Rectangle_6912" data-name="Rectangle 6912" width="65.124" height="2.538" transform="translate(39.286 38.635)" fill="#e0e0e0"/>
  <rect id="Rectangle_6913" data-name="Rectangle 6913" width="10.668" height="1.507" rx="0.754" transform="translate(55.337 38.037)" fill="#535461"/>
  <g id="Group_23689" data-name="Group 23689" transform="translate(61.831 21.23)" opacity="0.7">
    <rect id="Rectangle_6914" data-name="Rectangle 6914" width="26.515" height="18.333" rx="9.167" fill="url(#linear-gradient)"/>
  </g>
  <rect id="Rectangle_6915" data-name="Rectangle 6915" width="25.118" height="17.995" rx="8.998" transform="translate(62.304 21.568)" fill="#3e3f49"/>
  <rect id="Rectangle_6916" data-name="Rectangle 6916" width="25.118" height="17.995" rx="8.998" transform="translate(62.652 21.568)" fill="#535461"/>
  <circle id="Ellipse_1693" data-name="Ellipse 1693" cx="0.812" cy="0.812" r="0.812" transform="translate(75.572 29.63)" fill="#e0e0e0"/>
</svg>
