<svg xmlns="http://www.w3.org/2000/svg" width="175.419" height="208.8" viewBox="0 0 175.419 208.8">
  <g id="undraw_lightbulb_moment_evxr" transform="translate(0)">
    <path id="Path_14709" data-name="Path 14709" d="M467.763,774.59H398.955v-.562h68.91Z" transform="translate(-292.446 -567.386)" fill="#8f4d72"/>
    <rect id="Rectangle_8354" data-name="Rectangle 8354" width="3.738" height="8.009" transform="translate(130.77 196.189)" fill="#fbbebe"/>
    <rect id="Rectangle_8355" data-name="Rectangle 8355" width="3.738" height="8.009" transform="translate(159.87 196.456)" fill="#fbbebe"/>
    <path id="Path_14710" data-name="Path 14710" d="M793.018,609.2l-4.539-.534-11.747-54.195-12.815,54.462-4.539-.534c-.749-24.643,1.44-49.3,3.337-69.813l27.1-2.269C794.92,556.534,795.13,581.7,793.018,609.2Z" transform="translate(-629.011 -408.873)" fill="#2f2e41"/>
    <path id="Path_14711" data-name="Path 14711" d="M864.7,548.327s-6.311,6.586-2.744,8.232,5.763-7.409,5.763-7.409Z" transform="translate(-703.514 -417.677)" fill="#fbbebe"/>
    <path id="Path_14712" data-name="Path 14712" d="M743.7,550.327s-6.311,6.586-2.744,8.232,5.763-7.409,5.763-7.409Z" transform="translate(-614.818 -419.143)" fill="#fbbebe"/>
    <circle id="Ellipse_2202" data-name="Ellipse 2202" cx="7.475" cy="7.475" r="7.475" transform="translate(140.648 68.577)" fill="#fbbebe"/>
    <path id="Path_14713" data-name="Path 14713" d="M822.142,364.2l-13.348,1.335c1.234-5.554,1.533-10.744,0-15.217h9.344C817.63,354.045,819.528,358.947,822.142,364.2Z" transform="translate(-665.343 -272.529)" fill="#fbbebe"/>
    <path id="Path_14714" data-name="Path 14714" d="M796.543,427.1c-4.988,6-15.469,3.994-27.5-.267,3.413-11.142,2.884-22.9-.183-35.045a2.857,2.857,0,0,1,1.6-3.317l9.794-4.353,3.738.8,6.407-1.6,9.1,1.86a3.157,3.157,0,0,1,2.52,3.253C801.257,403.342,799.911,417.143,796.543,427.1Z" transform="translate(-636.006 -296.719)" fill="#bf7aa1"/>
    <path id="Path_14715" data-name="Path 14715" d="M876.2,437.037l-2.4-4,4.539-17.086-2.4-25.629h0a7.343,7.343,0,0,1,6.453,5.783l3.645,17.184a11.905,11.905,0,0,1-.937,7.672Z" transform="translate(-712.99 -301.851)" fill="#bf7aa1"/>
    <path id="Path_14716" data-name="Path 14716" d="M750.767,441.43l-5.473.934,3.49-34.163a8.678,8.678,0,0,1,5.454-7.885h0l1.735,22.559Z" transform="translate(-618.796 -309.181)" fill="#bf7aa1"/>
    <path id="Path_14717" data-name="Path 14717" d="M735.076,806.6,725,808.371a2.246,2.246,0,0,1-1.348-.181h0a2.246,2.246,0,0,1-.566-3.68l4.315-3.993,1.125-1.966a3.974,3.974,0,0,1,3.136-2.029c1.924-.133,2.559,1.331,2.157,4.08,1.461,1.075,1.692.91,2.676-.537l.447,4.532A2.273,2.273,0,0,1,735.076,806.6Z" transform="translate(-601.99 -599.606)" fill="#2f2e41"/>
    <path id="Path_14718" data-name="Path 14718" d="M844.076,806.6,834,808.371a2.246,2.246,0,0,1-1.348-.181h0a2.246,2.246,0,0,1-.566-3.68l4.315-3.993,1.125-1.966a3.974,3.974,0,0,1,3.136-2.029c1.924-.133,2.559,1.331,2.157,4.08,1.461,1.075,1.692.91,2.676-.537l.447,4.532A2.273,2.273,0,0,1,844.076,806.6Z" transform="translate(-681.89 -599.606)" fill="#2f2e41"/>
    <path id="Path_14719" data-name="Path 14719" d="M800.308,314.252c3.369-1.928,6.743-.7,10.123,4.564l.691,5.6c5.072-4.805,4.816-11.363-.872-14.031a2.9,2.9,0,0,0-1.71-.455,5.36,5.36,0,0,0-7.094,1.906c-1.051.182-2.558,2.27-2.5,3.335Z" transform="translate(-658.12 -242.459)" fill="#2f2e41"/>
    <ellipse id="Ellipse_2203" data-name="Ellipse 2203" cx="0.934" cy="1.201" rx="0.934" ry="1.201" transform="translate(151.06 75.251)" fill="#fbbebe"/>
    <path id="Path_14720" data-name="Path 14720" d="M151.4,500H166.96a6.14,6.14,0,0,1-6.14,6.14h-3.275A6.14,6.14,0,0,1,151.4,500Z" transform="translate(-110.985 -366.515)" fill="#3f3d56"/>
    <path id="Path_14721" data-name="Path 14721" d="M369.407,277.4V271.69c0-6.895,7.5-13.417,12.363-18.069,6.857-6.555,10.461-15.361,10.461-25.678a34.237,34.237,0,1,0-68.474-.19q0,.1,0,.19c0,9.948,3.759,19.351,10.461,25.678,4.838,4.567,12.363,11.1,12.363,18.069V277.4" transform="translate(-309.797 -157.659)" fill="#bf7aa1"/>
    <path id="Path_14722" data-name="Path 14722" d="M367.208,276.259a.8.8,0,0,1-.8-.8v-5.706c0-6.708,6.615-12.969,11.446-17.542.4-.38.791-.749,1.165-1.106,6.682-6.388,10.214-15.067,10.214-25.1A33.08,33.08,0,0,0,355.8,192.569H355.7a33.379,33.379,0,0,0-33.342,33.248V226c0,9.825,3.721,18.972,10.21,25.1.329.31.67.63,1.021.958,4.893,4.581,11.594,10.855,11.594,17.694v5.706a.8.8,0,1,1-1.6,0v-5.706c0-6.144-6.408-12.143-11.087-16.524-.352-.33-.7-.651-1.026-.963-6.808-6.427-10.712-16-10.712-26.26v-.192A34.984,34.984,0,0,1,355.7,190.967h.1a34.855,34.855,0,0,1,35.036,35.038c0,10.48-3.7,19.559-10.709,26.257-.376.36-.768.731-1.171,1.112-4.619,4.372-10.945,10.36-10.945,16.378v5.706a.8.8,0,0,1-.8.8Z" transform="translate(-307.598 -155.721)" fill="rgba(255,255,255,0.5)"/>
    <path id="Path_14723" data-name="Path 14723" d="M435.053,541.615H419.837a1.335,1.335,0,1,1,0-2.67h15.216a1.335,1.335,0,0,1,0,2.67Z" transform="translate(-379.247 -410.799)" fill="#bf7aa1"/>
    <path id="Path_14724" data-name="Path 14724" d="M284.26,169.546a1.329,1.329,0,0,1-.877-.329L271.919,159.21a1.335,1.335,0,0,1,1.756-2.011l11.463,10.006a1.335,1.335,0,0,1-.878,2.34Z" transform="translate(-271.462 -130.727)" fill="#bf7aa1"/>
    <path id="Path_14725" data-name="Path 14725" d="M573.811,169.546a1.335,1.335,0,0,1-.878-2.34L584.4,157.2a1.335,1.335,0,0,1,1.756,2.011l-11.463,10.006A1.329,1.329,0,0,1,573.811,169.546Z" transform="translate(-492.115 -130.727)" fill="#bf7aa1"/>
    <path id="Path_14726" data-name="Path 14726" d="M428.412,523.868H405.588a1.335,1.335,0,1,1,0-2.67h22.825a1.335,1.335,0,1,1,0,2.67Z" transform="translate(-368.802 -397.79)" fill="#bf7aa1"/>
    <path id="Path_14727" data-name="Path 14727" d="M448.336,421.559A1.335,1.335,0,0,1,447,420.224V389.792a1.335,1.335,0,0,1,2.67,0v30.433A1.335,1.335,0,0,1,448.336,421.559Z" transform="translate(-400.138 -300.487)" fill="#8f4d72"/>
    <path id="Path_14728" data-name="Path 14728" d="M423.529,380.681c-4.313,0-9.608-3.9-9.831-4.068a1.335,1.335,0,0,1,1.593-2.142c1.327.984,5.394,3.54,8.238,3.54s6.911-2.556,8.239-3.541a1.335,1.335,0,1,1,1.593,2.143C433.137,376.779,427.841,380.681,423.529,380.681Z" transform="translate(-375.33 -290.041)" fill="#8f4d72"/>
    <path id="Path_14729" data-name="Path 14729" d="M448.335,84.439A1.335,1.335,0,0,1,447,83.1V60.28a1.335,1.335,0,0,1,2.67,0V83.1a1.335,1.335,0,0,1-1.335,1.335Z" transform="translate(-400.137 -58.945)" fill="#bf7aa1"/>
  </g>
</svg>
