<svg id="student" xmlns="http://www.w3.org/2000/svg" width="29" height="29" viewBox="0 0 29 29">
  <g id="Group_26042" data-name="Group 26042" transform="translate(0 0)">
    <g id="Group_26041" data-name="Group 26041">
      <path id="Path_13820" data-name="Path 13820" d="M43.188,13.74c0-9.563.029-8.954-.067-9.174a.839.839,0,0,0-.591-1.135L29.843.033a.964.964,0,0,0-.5,0l-12.688,3.4a.836.836,0,0,0,0,1.634l4.78,1.28V10.2A8.55,8.55,0,0,0,25.9,17.77l-.5.937a10.134,10.134,0,0,0-6.487,2.784A9.162,9.162,0,0,0,16,28.151a.879.879,0,0,0,.906.85H42.281a.879.879,0,0,0,.906-.85,9.161,9.161,0,0,0-2.914-6.66,10.134,10.134,0,0,0-6.486-2.784l-.5-.938A8.55,8.55,0,0,0,37.75,10.2V6.346l3.625-.971V13.74a2.57,2.57,0,0,0-1.812,2.4v1.7a.879.879,0,0,0,.906.85h3.625a.879.879,0,0,0,.906-.85v-1.7A2.57,2.57,0,0,0,43.188,13.74ZM28.688,27.3H17.861a8,8,0,0,1,7.632-6.9L28.688,24.9ZM27.015,19.48l.561-1.052a7.863,7.863,0,0,0,4.036,0l.561,1.052-2.579,3.627Zm6.68.924a8,8,0,0,1,7.632,6.9H30.5V24.9Zm-4.1-3.412a6.484,6.484,0,0,1-6.222-5.471,16.213,16.213,0,0,0,6.222,1.223,16.215,16.215,0,0,0,6.222-1.223A6.484,6.484,0,0,1,29.594,16.993Zm6.324-7.756a.78.78,0,0,1-.425.552,14.187,14.187,0,0,1-5.9,1.256,14.185,14.185,0,0,1-5.9-1.256.81.81,0,0,1-.445-.738V6.831C29.827,8.593,29.412,8.5,29.594,8.5s-.235.1,6.344-1.665A20.107,20.107,0,0,1,35.918,9.237ZM29.594,6.763,20.205,4.249l9.389-2.515,9.389,2.515ZM43.188,16.993H41.375v-.85a.908.908,0,0,1,1.813,0Z" transform="translate(-16 0)" fill="#a0c7ff"/>
    </g>
  </g>
  <g id="Group_26044" data-name="Group 26044" transform="translate(18.445 24.129)">
    <g id="Group_26043" data-name="Group 26043">
      <path id="Path_13821" data-name="Path 13821" d="M318.382,420h-1.588a.794.794,0,0,0,0,1.588h1.588a.794.794,0,0,0,0-1.588Z" transform="translate(-316 -420.001)" fill="#a0c7ff"/>
    </g>
  </g>
</svg>
