<svg xmlns="http://www.w3.org/2000/svg" width="30.333" height="30.333" viewBox="0 0 30.333 30.333">
  <g id="noun_Percent_3802476" transform="translate(-3.167 -9.5)">
    <path id="Path_14886" data-name="Path 14886" d="M45.074,31.207a.367.367,0,0,0-.518,0l-13,13a.367.367,0,1,0,.518.518l13-13A.367.367,0,0,0,45.074,31.207Z" transform="translate(-19.918 -13.363)" fill="#a0c7ff" stroke="#a0c7ff" stroke-width="1"/>
    <path id="Path_14887" data-name="Path 14887" d="M32.644,36.061a3.417,3.417,0,1,0-3.417-3.417A3.421,3.421,0,0,0,32.644,36.061Zm0-6.1a2.684,2.684,0,1,1-2.684,2.684A2.687,2.687,0,0,1,32.644,29.96Z" transform="translate(-18.51 -12.177)" fill="#a0c7ff" stroke="#a0c7ff" stroke-width="1"/>
    <path id="Path_14888" data-name="Path 14888" d="M55.552,52.135a3.417,3.417,0,1,0,3.417,3.417A3.421,3.421,0,0,0,55.552,52.135Zm0,6.1a2.684,2.684,0,1,1,2.684-2.684A2.687,2.687,0,0,1,55.552,58.236Z" transform="translate(-33.019 -26.685)" fill="#a0c7ff" stroke="#a0c7ff" stroke-width="1"/>
    <path id="Path_14889" data-name="Path 14889" d="M33.467,10h-17.6A5.873,5.873,0,0,0,10,15.867v17.6a5.873,5.873,0,0,0,5.867,5.867h17.6a5.873,5.873,0,0,0,5.867-5.867v-17.6A5.873,5.873,0,0,0,33.467,10ZM38.6,33.467A5.139,5.139,0,0,1,33.467,38.6h-17.6a5.139,5.139,0,0,1-5.133-5.133v-17.6a5.139,5.139,0,0,1,5.133-5.133h17.6A5.139,5.139,0,0,1,38.6,15.867Z" transform="translate(-6.333)" fill="#a0c7ff" stroke="#a0c7ff" stroke-width="1"/>
  </g>
</svg>
