<svg xmlns="http://www.w3.org/2000/svg" width="139.934" height="94.438" viewBox="0 0 139.934 94.438">
  <g id="undraw_Content_creator_re_pt5b" transform="translate(0)">
    <path id="Path_14744" data-name="Path 14744" d="M664.177,269.5h-69.23a.914.914,0,0,1-.913-.913V192.413a.914.914,0,0,1,.913-.913h69.23a.914.914,0,0,1,.913.913v76.172A.914.914,0,0,1,664.177,269.5Zm-69.23-77.633a.549.549,0,0,0-.548.548v76.172a.549.549,0,0,0,.548.548h69.23a.549.549,0,0,0,.548-.548V192.413a.549.549,0,0,0-.548-.548Z" transform="translate(-525.156 -191.5)" fill="#3f3d56"/>
    <path id="Path_14745" data-name="Path 14745" d="M681.617,265.5H664.446a.914.914,0,0,1-.913-.913V247.413a.914.914,0,0,1,.913-.913h17.171a.914.914,0,0,1,.913.913v17.171A.914.914,0,0,1,681.617,265.5Zm-17.171-18.632a.549.549,0,0,0-.548.548v17.171a.549.549,0,0,0,.548.548h17.171a.549.549,0,0,0,.548-.548V247.413a.549.549,0,0,0-.548-.548Z" transform="translate(-581.96 -236.453)" fill="#f2f2f2"/>
    <path id="Path_14746" data-name="Path 14746" d="M655.026,277.815H637.855a.823.823,0,0,1-.822-.822V259.822a.823.823,0,0,1,.822-.822h17.171a.823.823,0,0,1,.822.822v17.171a.823.823,0,0,1-.822.822Z" transform="translate(-560.301 -246.67)" fill="#ff6161"/>
    <path id="Path_14747" data-name="Path 14747" d="M691.559,400.644h-53.7a.822.822,0,0,1,0-1.644h53.7a.822.822,0,1,1,0,1.644Z" transform="translate(-560.301 -361.097)" fill="#ccc"/>
    <path id="Path_14748" data-name="Path 14748" d="M678.589,431.644H637.855a.822.822,0,0,1,0-1.644h40.734a.822.822,0,1,1,0,1.644Z" transform="translate(-560.301 -386.434)" fill="#ccc"/>
    <path id="Path_14749" data-name="Path 14749" d="M824.6,286.644H800.855a.822.822,0,0,1,0-1.644H824.6a.822.822,0,1,1,0,1.644Z" transform="translate(-693.526 -267.921)" fill="#ccc"/>
    <path id="Path_14750" data-name="Path 14750" d="M818.676,317.644h-17.82a.822.822,0,1,1,0-1.644h17.82a.822.822,0,1,1,0,1.644Z" transform="translate(-693.527 -293.258)" fill="#ccc"/>
    <path id="Path_14751" data-name="Path 14751" d="M691.559,462.644h-53.7a.822.822,0,0,1,0-1.644h53.7a.822.822,0,1,1,0,1.644Z" transform="translate(-560.301 -411.772)" fill="#ccc"/>
    <path id="Path_14752" data-name="Path 14752" d="M678.589,493.644H637.855a.822.822,0,0,1,0-1.644h40.734a.822.822,0,1,1,0,1.644Z" transform="translate(-560.301 -437.109)" fill="#ccc"/>
    <path id="Path_14753" data-name="Path 14753" d="M691.559,524.644h-53.7a.822.822,0,0,1,0-1.644h53.7a.822.822,0,1,1,0,1.644Z" transform="translate(-560.301 -462.446)" fill="#ccc"/>
    <path id="Path_14754" data-name="Path 14754" d="M691.559,555.644h-53.7a.822.822,0,0,1,0-1.644h53.7a.822.822,0,1,1,0,1.644Z" transform="translate(-560.301 -487.784)" fill="#ccc"/>
    <path id="Path_14755" data-name="Path 14755" d="M518.649,462.932H479.376a.914.914,0,0,1-.913-.913V437.724a.914.914,0,0,1,.913-.913h39.273a.914.914,0,0,1,.913.913v24.295A.914.914,0,0,1,518.649,462.932Z" transform="translate(-430.696 -392.001)" fill="#fff"/>
    <path id="Path_14756" data-name="Path 14756" d="M518.649,462.932H479.376a.914.914,0,0,1-.913-.913V437.724a.914.914,0,0,1,.913-.913h39.273a.914.914,0,0,1,.913.913v24.295A.914.914,0,0,1,518.649,462.932Zm-39.273-25.756a.549.549,0,0,0-.548.548v24.295a.549.549,0,0,0,.548.548h39.273a.549.549,0,0,0,.548-.548V437.724a.549.549,0,0,0-.548-.548Z" transform="translate(-430.696 -392.001)" fill="#3f3d56"/>
    <path id="Path_14757" data-name="Path 14757" d="M546.032,489.955H522.285a.822.822,0,1,1,0-1.644h23.747a.822.822,0,1,1,0,1.644Z" transform="translate(-465.842 -434.094)" fill="#ccc"/>
    <path id="Path_14758" data-name="Path 14758" d="M546.032,520.955H522.285a.822.822,0,1,1,0-1.644h23.747a.822.822,0,1,1,0,1.644Z" transform="translate(-465.842 -459.431)" fill="#ccc"/>
    <path id="Path_14759" data-name="Path 14759" d="M230.333,466.241h2.239l1.065-8.638h-3.305Z" transform="translate(-188.259 -374.015)" fill="#a0616a"/>
    <path id="Path_14760" data-name="Path 14760" d="M444.174,692.388h4.41a2.811,2.811,0,0,1,2.811,2.81v.091h-7.221Z" transform="translate(-402.671 -600.893)" fill="#2f2e41"/>
    <path id="Path_14761" data-name="Path 14761" d="M134.876,461.369l2.214.335,2.345-8.381-2.9-.494Z" transform="translate(-110.238 -370.112)" fill="#a0616a"/>
    <path id="Path_14762" data-name="Path 14762" d="M347.409,686.659l4.361.659h0a2.811,2.811,0,0,1,2.359,3.2l-.014.09-7.14-1.079Z" transform="translate(-323.226 -596.21)" fill="#2f2e41"/>
    <path id="Path_14763" data-name="Path 14763" d="M387.807,462.043l2.487.651-.165,4.031-.021,7.34a1.471,1.471,0,1,1-1.947.245l-.764-7.367Z" transform="translate(-356.265 -412.624)" fill="#a0616a"/>
    <path id="Path_14764" data-name="Path 14764" d="M386.1,427.948a2.03,2.03,0,0,1,1.255-1.805,1.9,1.9,0,0,1,2.054.33,1.809,1.809,0,0,1,.6,1.4,46.893,46.893,0,0,1-.532,5.838l-.009.055-3.634,1.224Z" transform="translate(-354.987 -383.146)" fill="#ff6161"/>
    <path id="Path_14765" data-name="Path 14765" d="M361.55,467.026l5.559-1.439,2.57,8.654.091,32.241-4.251-.027-1.777-26.095-11.325,24.112-4.567-.548,9.955-25.847s-.548-4.567,1.187-6.85l-.365-2.375Z" transform="translate(-323.942 -415.521)" fill="#2f2e41"/>
    <path id="Path_14766" data-name="Path 14766" d="M389.727,421.181a.852.852,0,0,1-.182-.685l-2.536-7.607a1.935,1.935,0,0,1,.534-2.043l1.1-1,.746-2.984,4.287,1.048-.353,1.413,1.94-.353,4.087,9.1-8.543,3.415-.421.007A.852.852,0,0,1,389.727,421.181Z" transform="translate(-355.867 -367.522)" fill="#ff6161"/>
    <path id="Path_14767" data-name="Path 14767" d="M434.907,446.608l2.45-.779,2.015,3.5,3.906,6.214a1.471,1.471,0,1,1-1.515,1.247l-4.584-5.818Z" transform="translate(-395.096 -399.372)" fill="#a0616a"/>
    <path id="Path_14768" data-name="Path 14768" d="M418.152,416.371a2.03,2.03,0,0,1,.1-2.2,1.9,1.9,0,0,1,1.913-.819,1.809,1.809,0,0,1,1.258.86,46.914,46.914,0,0,1,2.671,5.219l.022.051-2.417,2.977Z" transform="translate(-381.175 -372.807)" fill="#ff6161"/>
    <circle id="Ellipse_2215" data-name="Ellipse 2215" cx="3.407" cy="3.407" r="3.407" transform="translate(33.288 31.971)" fill="#a0616a"/>
    <circle id="Ellipse_2216" data-name="Ellipse 2216" cx="3.281" cy="3.281" r="3.281" transform="translate(27.394 27.378)" fill="#2f2e41"/>
    <path id="Path_14769" data-name="Path 14769" d="M362.822,360.487a3.282,3.282,0,0,0,5.067-1.723,3.282,3.282,0,1,1-6.4-1.346,3.28,3.28,0,0,0,1.334,3.069Z" transform="translate(-334.977 -327.111)" fill="#2f2e41"/>
    <path id="Path_14770" data-name="Path 14770" d="M399.775,362.663a6.014,6.014,0,0,0-1.531-2.078,1.591,1.591,0,0,0-2.1-.191,3.881,3.881,0,1,0,2.342,3.562,3.92,3.92,0,0,0-.026-.439C399.018,363.438,399.212,362.742,399.775,362.663Z" transform="translate(-358.981 -329.283)" fill="#2f2e41"/>
    <path id="Path_14771" data-name="Path 14771" d="M286.745,706.865h-69.6a.183.183,0,0,1,0-.365h69.6a.183.183,0,1,1,0,.365Z" transform="translate(-216.967 -612.427)" fill="#ccc"/>
  </g>
</svg>
