<svg id="class" xmlns="http://www.w3.org/2000/svg" width="29" height="29" viewBox="0 0 29 29">
  <g id="Group_26075" data-name="Group 26075" transform="translate(4.293 0)">
    <g id="Group_26074" data-name="Group 26074">
      <path id="Path_13823" data-name="Path 13823" d="M78.435,0A3.481,3.481,0,0,0,75,3.492a3.435,3.435,0,0,0,6.869,0A3.481,3.481,0,0,0,78.435,0Zm0,5.209a1.719,1.719,0,0,1-1.717-1.717,1.718,1.718,0,1,1,3.435,0A1.719,1.719,0,0,1,78.435,5.209Z" transform="translate(-75)" fill="#a0c7ff"/>
    </g>
  </g>
  <g id="Group_26077" data-name="Group 26077" transform="translate(0 0)">
    <g id="Group_26076" data-name="Group 26076">
      <path id="Path_13824" data-name="Path 13824" d="M26.451,0H14.443a2.552,2.552,0,0,0-2.549,2.549v5.8L11.148,7.6a2.532,2.532,0,0,0-1.8-.747h-5.1A4.253,4.253,0,0,0,0,11.1v5.1a2.549,2.549,0,0,0,3.4,2.4v7.849a2.548,2.548,0,0,0,4.248,1.9,2.548,2.548,0,0,0,4.248-1.9V15.2a2.559,2.559,0,0,0,1.99-.124l2.861-1.43h9.706A2.552,2.552,0,0,0,29,11.1V2.549A2.552,2.552,0,0,0,26.451,0ZM16.523,11.862l-3.4,1.7a.849.849,0,0,1-.982-.159l-.5-.5a.85.85,0,0,0-1.45.6V26.451a.85.85,0,0,1-1.7,0V17.9a.85.85,0,0,0-1.7,0v8.553a.85.85,0,0,1-1.7,0V11.1a.85.85,0,0,0-1.7,0v5.1a.85.85,0,0,1-1.7,0c0-.641,0-4.574,0-5.1A2.552,2.552,0,0,1,4.248,8.553h5.1a.844.844,0,0,1,.6.249l2.532,2.532a.85.85,0,0,0,.981.159l2.3-1.152a.85.85,0,0,1,.76,1.52ZM27.3,11.1a.851.851,0,0,1-.85.85H18.545c.005-.015.011-.029.016-.044a2.539,2.539,0,0,0,.112-1.121l4.646-2.323a.85.85,0,0,0-.76-1.52L17.914,9.266A2.547,2.547,0,0,0,15,8.822l-1.409.7V2.549a.851.851,0,0,1,.85-.85H26.451a.851.851,0,0,1,.85.85Z" transform="translate(0 0)" fill="#a0c7ff"/>
    </g>
  </g>
</svg>
