<svg xmlns="http://www.w3.org/2000/svg" width="278.285" height="206.449" viewBox="0 0 278.285 206.449">
  <g id="undraw_Accept_request_re_d81h" transform="translate(0)">
    <path id="Path_14687" data-name="Path 14687" d="M888.906,655.431a9.765,9.765,0,1,0,0,19.529h0a9.765,9.765,0,0,0,0-19.529Z" transform="translate(-627.112 -469.129)" fill="#6e78b6"/>
    <path id="Path_395" data-name="Path 395" d="M895.284,676.806a1.186,1.186,0,0,1-.713-.237l-.013-.01-2.685-2.054a1.193,1.193,0,1,1,1.452-1.894l1.739,1.334,4.11-5.362a1.193,1.193,0,0,1,1.672-.221h0l-.026.035.026-.035a1.194,1.194,0,0,1,.221,1.673l-4.835,6.3a1.194,1.194,0,0,1-.949.465Z" transform="translate(-634.417 -476.684)" fill="#fff"/>
    <path id="Path_14688" data-name="Path 14688" d="M584.737,473.052h-4.623l-2.2-17.833h6.823Z" transform="translate(-344.203 -271.126)" fill="#ffb8b8"/>
    <path id="Path_14689" data-name="Path 14689" d="M566.917,496.048h8.916v5.614H561.3a5.614,5.614,0,0,1,5.614-5.614Z" transform="translate(-334.309 -295.443)" fill="#2f2e41"/>
    <path id="Path_14690" data-name="Path 14690" d="M539.237,473.052h-4.623l-2.2-17.833h6.823Z" transform="translate(-317.103 -271.126)" fill="#ffb8b8"/>
    <path id="Path_14691" data-name="Path 14691" d="M521.417,496.048h8.916v5.614H515.8a5.614,5.614,0,0,1,5.614-5.614Z" transform="translate(-307.209 -295.443)" fill="#2f2e41"/>
    <path id="Path_14692" data-name="Path 14692" d="M858.078,517.4a3.792,3.792,0,0,1,.8-5.76l-1.432-8.546,4.981-2.137,1.853,12.1a3.813,3.813,0,0,1-6.2,4.345Z" transform="translate(-613.983 -377.125)" fill="#ffb8b8"/>
    <path id="Path_14693" data-name="Path 14693" d="M753.959,506.688a3.792,3.792,0,0,0,.163-5.812l2.824-8.192-4.56-2.931-3.826,11.625a3.813,3.813,0,0,0,5.4,5.31Z" transform="translate(-548.864 -370.452)" fill="#ffb8b8"/>
    <circle id="Ellipse_2201" data-name="Ellipse 2201" cx="9.933" cy="9.933" r="9.933" transform="translate(218.84 56.018)" fill="#ffb8b8"/>
    <path id="Path_14694" data-name="Path 14694" d="M755.381,445.516a1.819,1.819,0,0,1-.5-.071l-2.9-.831a1.823,1.823,0,0,1-1.249-2.245l5.974-21.095,8.332-20.453a5.312,5.312,0,0,1,4.517-3.48,4.629,4.629,0,0,1,4.359,2.538h0a6.317,6.317,0,0,1,.144,5.569l-9.47,20.71-7.529,18.232a1.819,1.819,0,0,1-1.681,1.126Z" transform="translate(-550.593 -315.409)" fill="#6e78b6"/>
    <path id="Path_14695" data-name="Path 14695" d="M810.454,344.358l-5.519.1a3.669,3.669,0,0,1-3.6-4.687,8.547,8.547,0,0,0,.265-1.218,6.157,6.157,0,0,0,.036-1.356,2,2,0,0,0-3.864-.57h0c-.928.013-2.9-.289-3.833-.276-1.97-5.051,2.323-11.66,6.945-14.143,4.712-2.531,10.828.044,12.634,5.319,2.507.045,4.543,2.517,4.866,5.3a10.805,10.805,0,0,1-2.573,7.822C814.064,342.78,811.764,344.334,810.454,344.358Z" transform="translate(-576.076 -270.078)" fill="#2f2e41"/>
    <path id="Path_14696" data-name="Path 14696" d="M784.964,586.17a1.826,1.826,0,0,1-1.8-1.622L781.112,515.7l25.8,1.836.02.166c5.829,48.8,3.837,65.688,3.816,65.853a1.819,1.819,0,0,1-2.053,1.7l-5.7.137a1.819,1.819,0,0,1-1.613-1.737L796.051,533.8a.569.569,0,0,0-.593-.427.591.591,0,0,0-.582.476l-2.058,50.027a1.812,1.812,0,0,1-1.634,1.889l-6.039.4A1.808,1.808,0,0,1,784.964,586.17Z" transform="translate(-568.727 -385.908)" fill="#2f2e41"/>
    <path id="Path_14697" data-name="Path 14697" d="M793.877,449.091c-.154,0-.308,0-.463-.007-7.418-.223-13.221-5.835-14.823-7.55a1.811,1.811,0,0,1-.437-1.657l4.279-18.1L781.3,406.036a15.517,15.517,0,0,1,4.248-11.984,12.8,12.8,0,0,1,9.862-3.99c7.221.345,12.917,6.8,12.969,14.693.08,12.227-.28,13.067-.4,13.343-3.6,8.41-1.635,20.216-.946,23.634a1.827,1.827,0,0,1-.541,1.693C802.528,447.186,798.286,449.091,793.877,449.091Z" transform="translate(-566.935 -311.07)" fill="#6e78b6"/>
    <path id="Path_14698" data-name="Path 14698" d="M845.021,451.049a1.818,1.818,0,0,1-1.771-1.413L838.835,430.4l-5.917-21.982a6.317,6.317,0,0,1,1.062-5.469,4.633,4.633,0,0,1,4.718-1.783,5.313,5.313,0,0,1,3.88,4.179l4.835,21.526,2.411,21.814a1.823,1.823,0,0,1-1.6,2.008l-2.993.341A1.817,1.817,0,0,1,845.021,451.049Z" transform="translate(-599.451 -317.629)" fill="#6e78b6"/>
    <path id="Path_14699" data-name="Path 14699" d="M374.424,215.779H266.448a10.515,10.515,0,0,1,0-21.029H374.424a10.515,10.515,0,0,1,0,21.029Z" transform="translate(-255.933 -194.75)" fill="#6e78b6"/>
    <path id="Path_14700" data-name="Path 14700" d="M271.51,203.25a7.077,7.077,0,1,0,0,14.154H379.486a7.077,7.077,0,0,0,0-14.154Z" transform="translate(-260.996 -199.813)" fill="#e1e4f7"/>
    <path id="Path_14701" data-name="Path 14701" d="M628.906,196.431a9.765,9.765,0,1,0,0,19.529h0a9.765,9.765,0,0,0,0-19.529Z" transform="translate(-472.258 -195.751)" fill="#6e78b6"/>
    <path id="Path_395-2" data-name="Path 395" d="M635.284,217.806a1.185,1.185,0,0,1-.713-.237l-.013-.01-2.685-2.054a1.193,1.193,0,1,1,1.452-1.894l1.739,1.334,4.11-5.362a1.193,1.193,0,0,1,1.672-.221h0l-.026.035.026-.035a1.194,1.194,0,0,1,.221,1.673l-4.834,6.3a1.194,1.194,0,0,1-.949.465Z" transform="translate(-479.563 -203.306)" fill="#fff"/>
    <path id="Path_14702" data-name="Path 14702" d="M374.424,303.779H266.448a10.515,10.515,0,0,1,0-21.029H374.424a10.515,10.515,0,0,1,0,21.029Z" transform="translate(-255.933 -247.162)" fill="#6e78b6"/>
    <path id="Path_14703" data-name="Path 14703" d="M271.51,291.25a7.077,7.077,0,1,0,0,14.154H379.486a7.077,7.077,0,0,0,0-14.154Z" transform="translate(-260.996 -252.225)" fill="#e1e4f7"/>
    <path id="Path_14704" data-name="Path 14704" d="M628.906,284.431a9.765,9.765,0,1,0,0,19.529h0a9.765,9.765,0,1,0,0-19.529Z" transform="translate(-472.258 -248.163)" fill="#6e78b6"/>
    <path id="Path_395-3" data-name="Path 395" d="M635.284,305.806a1.185,1.185,0,0,1-.713-.237l-.013-.01-2.685-2.054a1.193,1.193,0,1,1,1.452-1.894l1.739,1.334,4.11-5.362a1.193,1.193,0,0,1,1.672-.221h0l-.026.035.026-.035a1.194,1.194,0,0,1,.221,1.673l-4.834,6.3a1.194,1.194,0,0,1-.949.465Z" transform="translate(-479.563 -255.719)" fill="#fff"/>
    <path id="Path_14705" data-name="Path 14705" d="M374.424,391.779H266.448a10.515,10.515,0,0,1,0-21.029H374.424a10.515,10.515,0,0,1,0,21.029Z" transform="translate(-255.933 -299.575)" fill="#e1e4f7"/>
    <path id="Path_14706" data-name="Path 14706" d="M271.51,379.25a7.077,7.077,0,1,0,0,14.154H379.486a7.077,7.077,0,0,0,0-14.154Z" transform="translate(-260.996 -304.637)" fill="#fff"/>
    <path id="Path_14707" data-name="Path 14707" d="M628.906,372.431a9.765,9.765,0,1,0,0,19.529h0a9.765,9.765,0,1,0,0-19.529Z" transform="translate(-472.258 -300.576)" fill="#e1e4f7"/>
    <path id="Path_14708" data-name="Path 14708" d="M817.992,704.059H733.471a.4.4,0,0,1,0-.809h84.521a.4.4,0,0,1,0,.809Z" transform="translate(-540.111 -497.61)" fill="#6e78b6"/>
  </g>
</svg>
