<svg xmlns="http://www.w3.org/2000/svg" width="114.494" height="95.579" viewBox="0 0 114.494 95.579">
  <g id="undraw_Goals_re_lu76" transform="translate(0.001 -0.001)">
    <rect id="Rectangle_8407" data-name="Rectangle 8407" width="90.92" height="4.614" transform="translate(-0.001 46.35) rotate(-30.649)" fill="#f2f2f2"/>
    <rect id="Rectangle_8408" data-name="Rectangle 8408" width="90.92" height="4.614" transform="translate(17 50.236) rotate(-30.649)" fill="#f2f2f2"/>
    <rect id="Rectangle_8409" data-name="Rectangle 8409" width="90.92" height="4.614" transform="translate(32.057 54.486) rotate(-30.649)" fill="#f2f2f2"/>
    <circle id="Ellipse_2242" data-name="Ellipse 2242" cx="24.489" cy="24.489" r="24.489" transform="translate(26.458 5.354)" fill="#fff"/>
    <path id="Path_14863" data-name="Path 14863" d="M385.341,179.285a24.671,24.671,0,1,1,24.671,24.671A24.7,24.7,0,0,1,385.341,179.285Zm.364,0a24.307,24.307,0,1,0,24.307-24.307A24.335,24.335,0,0,0,385.705,179.285Z" transform="translate(-359.065 -149.442)" fill="#3f3d56"/>
    <path id="Path_14864" data-name="Path 14864" d="M526.082,300.458h0a4.365,4.365,0,1,1,4.365,4.365,4.365,4.365,0,0,1-4.365-4.365Zm4.365-4.153a4.157,4.157,0,0,0-4.153,4.153h0a4.153,4.153,0,1,0,4.153-4.153Z" transform="translate(-479.5 -270.508)" fill="#3f3d56"/>
    <path id="Path_14865" data-name="Path 14865" d="M498.776,277.093h0a8.305,8.305,0,1,1,8.305,8.305,8.305,8.305,0,0,1-8.305-8.305ZM507.081,269a8.092,8.092,0,1,0,8.092,8.092A8.092,8.092,0,0,0,507.081,269Z" transform="translate(-456.134 -247.142)" fill="#ccc"/>
    <path id="Path_14866" data-name="Path 14866" d="M444.166,230.361a16.184,16.184,0,1,1,16.184,16.184A16.184,16.184,0,0,1,444.166,230.361ZM460.35,214.39a15.971,15.971,0,1,0,15.971,15.971A15.971,15.971,0,0,0,460.35,214.39Z" transform="translate(-409.403 -200.411)" fill="#ccc"/>
    <circle id="Ellipse_2243" data-name="Ellipse 2243" cx="2.023" cy="2.023" r="2.023" transform="translate(48.924 27.821)" fill="#4d5f6d"/>
    <circle id="Ellipse_2244" data-name="Ellipse 2244" cx="2.023" cy="2.023" r="2.023" transform="translate(43.707 33.677)" fill="#4d5f6d"/>
    <circle id="Ellipse_2245" data-name="Ellipse 2245" cx="2.023" cy="2.023" r="2.023" transform="translate(64.061 32.825)" fill="#4d5f6d"/>
    <circle id="Ellipse_2246" data-name="Ellipse 2246" cx="0.958" cy="0.958" r="0.958" transform="translate(49.989 28.885)" fill="#2f2e41"/>
    <circle id="Ellipse_2247" data-name="Ellipse 2247" cx="0.958" cy="0.958" r="0.958" transform="translate(65.126 33.89)" fill="#2f2e41"/>
    <circle id="Ellipse_2248" data-name="Ellipse 2248" cx="0.958" cy="0.958" r="0.958" transform="translate(44.772 34.848)" fill="#2f2e41"/>
    <circle id="Ellipse_2249" data-name="Ellipse 2249" cx="0.958" cy="0.958" r="0.958" transform="translate(5.269 18.131)" fill="#4d5f6d"/>
    <path id="Path_14867" data-name="Path 14867" d="M103.306,131.414H61.248V131.2h42.271v10.967h-.213Z" transform="translate(-52.412 -112.271)" fill="#2f2e41"/>
    <path id="Path_14868" data-name="Path 14868" d="M227.2,234.657a2.768,2.768,0,1,1,2.768,2.768,2.768,2.768,0,0,1-2.768-2.768Zm2.768-2.555a2.555,2.555,0,1,0,2.555,2.555A2.555,2.555,0,0,0,229.967,232.1Z" transform="translate(-223.74 -215.567)" fill="#2f2e41"/>
    <circle id="Ellipse_2250" data-name="Ellipse 2250" cx="0.958" cy="0.958" r="0.958" transform="translate(11.658 45.709)" fill="#4d5f6d"/>
    <path id="Path_14869" data-name="Path 14869" d="M271.478,425.794h0a2.768,2.768,0,1,1,2.768,2.768A2.768,2.768,0,0,1,271.478,425.794Zm2.768-2.555a2.555,2.555,0,1,0,2.555,2.555A2.555,2.555,0,0,0,274.246,423.238Z" transform="translate(-261.63 -379.127)" fill="#2f2e41"/>
    <circle id="Ellipse_2251" data-name="Ellipse 2251" cx="0.958" cy="0.958" r="0.958" transform="translate(94.832 22.603)" fill="#4d5f6d"/>
    <path id="Path_14870" data-name="Path 14870" d="M847.963,265.652a2.768,2.768,0,1,1,2.768,2.768A2.768,2.768,0,0,1,847.963,265.652Zm2.768-2.555a2.558,2.558,0,0,0-2.555,2.555h0a2.555,2.555,0,1,0,2.555-2.555Z" transform="translate(-754.941 -242.09)" fill="#2f2e41"/>
    <path id="Path_14871" data-name="Path 14871" d="M457.3,162.992l27.15-.427,0,.213-26.94.424v10.756H457.3Z" transform="translate(-391.319 -139.11)" fill="#2f2e41"/>
    <path id="Path_14872" data-name="Path 14872" d="M105.9,258.925h30.345V248.171h.213v10.967H105.9Z" transform="translate(-90.619 -212.365)" fill="#2f2e41"/>
    <rect id="Rectangle_8410" data-name="Rectangle 8410" width="11.712" height="0.745" transform="translate(0.371 24.094)" fill="#ccc"/>
    <rect id="Rectangle_8411" data-name="Rectangle 8411" width="11.712" height="0.745" transform="translate(0.371 26.223)" fill="#ccc"/>
    <rect id="Rectangle_8412" data-name="Rectangle 8412" width="11.712" height="0.745" transform="translate(0.371 28.353)" fill="#ccc"/>
    <rect id="Rectangle_8413" data-name="Rectangle 8413" width="11.712" height="0.745" transform="translate(6.76 51.671)" fill="#ccc"/>
    <rect id="Rectangle_8414" data-name="Rectangle 8414" width="11.712" height="0.745" transform="translate(6.76 53.801)" fill="#ccc"/>
    <rect id="Rectangle_8415" data-name="Rectangle 8415" width="11.712" height="0.745" transform="translate(6.76 55.93)" fill="#ccc"/>
    <rect id="Rectangle_8416" data-name="Rectangle 8416" width="11.712" height="0.745" transform="translate(89.935 28.672)" fill="#ccc"/>
    <rect id="Rectangle_8417" data-name="Rectangle 8417" width="11.712" height="0.745" transform="translate(89.935 30.802)" fill="#ccc"/>
    <rect id="Rectangle_8418" data-name="Rectangle 8418" width="11.712" height="0.745" transform="translate(89.935 32.931)" fill="#ccc"/>
    <path id="Path_14873" data-name="Path 14873" d="M714.968,600.757l-1.666.6-3.089-6.141,2.458-.879Z" transform="translate(-607.746 -508.582)" fill="#ffb8b8"/>
    <path id="Path_14874" data-name="Path 14874" d="M915.193,756.885l-.024-.068a2.223,2.223,0,0,1,1.343-2.838l3.28-1.172.771,2.159Z" transform="translate(-812.339 -661.328)" fill="#2f2e41"/>
    <path id="Path_14875" data-name="Path 14875" d="M652.613,609.814h-1.769L650,602.991h2.611Z" transform="translate(-556.222 -515.992)" fill="#ffb8b8"/>
    <path id="Path_14876" data-name="Path 14876" d="M840.613,767.337h-5.7v-.072a2.22,2.22,0,0,1,2.22-2.22h3.484Z" transform="translate(-743.77 -671.8)" fill="#2f2e41"/>
    <path id="Path_14877" data-name="Path 14877" d="M876.149,457.923l-.769-1.52s-2.866.718-3.126,2.379Z" transform="translate(-775.726 -407.689)" fill="#4d5f6d"/>
    <path id="Path_14878" data-name="Path 14878" d="M652.783,466.924,650.691,478.6l5.555,9.824-3.318,1.3L647.3,480.2l-.721-2.6-.433,13.562-2.993-.091-1.372-12.664,2.2-11.773Z" transform="translate(-549.186 -399.309)" fill="#2f2e41"/>
    <path id="Path_14879" data-name="Path 14879" d="M850.51,481.043c-.065-.289-.251-9.115-.251-9.115s3.077-10.1,3.1-10.184l.011-.032,2.336-.876a1.98,1.98,0,0,1,1.448-.073,1.248,1.248,0,0,1,.664.816A7.818,7.818,0,0,1,860,466.817l.072,6.846,1.6,7.422-.071.015a19.305,19.305,0,0,1-5.068.6C854.824,481.7,850.51,481.043,850.51,481.043Z" transform="translate(-756.906 -411.323)" fill="#3f3d56"/>
    <circle id="Ellipse_2252" data-name="Ellipse 2252" cx="3.157" cy="3.157" r="3.157" transform="translate(94.107 41.921)" fill="#ffb8b8"/>
    <path id="Path_14880" data-name="Path 14880" d="M667.72,408.841l-5.523,7.707-.816-3.6Z" transform="translate(-565.958 -349.853)" opacity="0.2"/>
    <path id="Path_14881" data-name="Path 14881" d="M832.137,551.2a1.355,1.355,0,0,0,1.27-1.644l4.1-2.518-2.266-1.06-3.55,2.553a1.362,1.362,0,0,0,.443,2.669Z" transform="translate(-740.178 -484.343)" fill="#ffb8b8"/>
    <path id="Path_14882" data-name="Path 14882" d="M648.7,427.635l-1.406.985,1.192,2.117,1.656-1.371Z" transform="translate(-553.902 -365.936)" fill="#4d5f6d"/>
    <path id="Path_14883" data-name="Path 14883" d="M855.153,475.833,858.459,472l-1.267-5.286a2.313,2.313,0,0,1,4.286-1.636l.029.053,1.167,7.85-5.866,6.012Z" transform="translate(-761.093 -414.072)" fill="#3f3d56"/>
    <path id="Path_14884" data-name="Path 14884" d="M859.339,407.588l-2.621.094a7.574,7.574,0,0,1-.65-2.076.976.976,0,0,0-1.018-.79c-.2.019-.691-.348-1.2-.782a1.925,1.925,0,0,1,.146-3.067q.044-.029.086-.052a4.663,4.663,0,0,1,2.227-.512,4.164,4.164,0,0,1,2.03.409,3.7,3.7,0,0,1,1.74,3.135,9.121,9.121,0,0,1-.8,3.637" transform="translate(-759.386 -359.768)" fill="#2f2e41"/>
    <path id="Path_14885" data-name="Path 14885" d="M805.811,779.521H773.925a.144.144,0,0,1,0-.289h31.886a.144.144,0,0,1,0,.289Z" transform="translate(-691.462 -683.941)" fill="#3f3d56"/>
  </g>
</svg>
