<svg xmlns="http://www.w3.org/2000/svg" width="34.626" height="29.852" viewBox="0 0 34.626 29.852">
  <path id="Path_13760" data-name="Path 13760" d="M35.244,31.2a3.556,3.556,0,0,0,.448-5.863,2.429,2.429,0,0,0,.143-.8,2.388,2.388,0,0,0-1.791-2.31V16.208l1.194-.394v2.752h1.194V14.984a.605.605,0,0,0-.406-.567l-7.164-2.388a.6.6,0,0,0-.382,0l-7.164,2.388a.6.6,0,0,0,0,1.134l1.982.657v6.018a2.388,2.388,0,0,0-1.791,2.31,2.429,2.429,0,0,0,.143.8A3.556,3.556,0,0,0,22.1,31.2a5.326,5.326,0,0,0-1.785,2,5.386,5.386,0,0,0-2.937-2.6l-3.033-1.1V28.07a4.812,4.812,0,0,0,2.233-2.937h.155a1.791,1.791,0,0,0,0-3.582v-5.14l1.791-.6v2.752h1.194V14.984a.605.605,0,0,0-.406-.567l-7.164-2.388a.6.6,0,0,0-.382,0L4.6,14.417a.6.6,0,0,0,0,1.134l2.579.86v5.14a1.791,1.791,0,0,0,0,3.582h.155A4.812,4.812,0,0,0,9.567,28.07v1.421L6.534,30.6A5.379,5.379,0,0,0,3,35.64v5.612a.6.6,0,0,0,.6.6H37.029a.6.6,0,0,0,.6-.6V35.64A5.373,5.373,0,0,0,35.244,31.2ZM7.179,23.939a.6.6,0,0,1,0-1.194Zm7.713,7.021-.645.991L13.161,30.87l.621-.31Zm.645-10.024a1.2,1.2,0,0,1-.955-.884l-.072-.293h1.027Zm0-2.37H8.373V16.8l3.391,1.134a.626.626,0,0,0,.382,0L15.537,16.8Zm-2.5,1.194a1.8,1.8,0,0,1-1.684,1.194H8.373V19.76Zm4.286,3.582a.6.6,0,0,1-.6.6V22.745A.6.6,0,0,1,17.328,23.342ZM6.678,14.984l5.278-1.761,5.278,1.761-5.278,1.761Zm1.7,8.955V22.148h2.985a2.992,2.992,0,0,0,2.346-1.14,2.382,2.382,0,0,0,1.833,1.128v1.8a3.582,3.582,0,1,1-7.164,0Zm4.776,4.621v.979l-.74.37H11.5l-.74-.37V28.56A4.67,4.67,0,0,0,13.149,28.56Zm-3.021,2,.621.31L9.663,31.951l-.645-.991Zm1.23,10.1H4.194V35.64a4.2,4.2,0,0,1,2.752-3.928l.919-.334,1.2,1.845a.606.606,0,0,0,.442.263.2.2,0,0,0,.06.006.6.6,0,0,0,.424-.173l.03-.036,1.337,2.167Zm-.466-8.239,1.063-1.069,1.063,1.069-1.063,1.725Zm8.824,8.239H12.552V35.449l1.337-2.167.03.036a.6.6,0,0,0,.424.173.2.2,0,0,0,.06-.006.606.606,0,0,0,.442-.263l1.2-1.845.919.334a4.2,4.2,0,0,1,2.752,3.928ZM34.641,24.536a1.106,1.106,0,0,1-.03.2,3.849,3.849,0,0,0-.448-.131l-.239,1.17a2.383,2.383,0,0,1-.161,4.7l-2.7-.985V28.07a4.779,4.779,0,0,0,2.388-4.131v-.6A1.2,1.2,0,0,1,34.641,24.536ZM30.259,30.47l.418.149a4.4,4.4,0,0,1-4.012,0l.418-.149a.592.592,0,0,0,.394-.561V28.56a4.67,4.67,0,0,0,2.388,0v1.349A.592.592,0,0,0,30.259,30.47Zm-1.588-2.949a3.582,3.582,0,0,1-3.582-3.582V22.148H26.8a2.977,2.977,0,0,0,2.484-1.331l.084-.119.573.579a2.981,2.981,0,0,0,2.113.872h.2v1.791A3.582,3.582,0,0,1,28.671,27.521Zm-4.179-8.955V16.608l3.988,1.331a.626.626,0,0,0,.382,0l3.988-1.331v1.958ZM32.85,19.76v1.194h-.8a1.765,1.765,0,0,1-1.266-.525l-.675-.669Zm-4.3,0-.263.394a1.8,1.8,0,0,1-1.493.8h-2.3V19.76Zm.119-6.537,5.278,1.761-5.278,1.761-5.278-1.761Zm-7.164,14.9a2.4,2.4,0,0,1,1.9-2.34l-.239-1.17a3.445,3.445,0,0,0-.442.131,1.109,1.109,0,0,1-.03-.2A1.2,1.2,0,0,1,23.9,23.342v.6a4.779,4.779,0,0,0,2.388,4.131v1.421l-2.7.985A2.392,2.392,0,0,1,21.507,28.118Zm6.567,12.537H20.91V35.64a4.2,4.2,0,0,1,2.752-3.928l1.248-.454,3.164,4.221Zm-1.081-8.609a5.737,5.737,0,0,0,3.355,0l-1.678,2.239Zm9.439,8.609H29.268V35.479l3.164-4.221,1.248.454a4.2,4.2,0,0,1,2.752,3.928Z" transform="translate(-3 -11.997)" fill="#a0c7ff"/>
</svg>
