<svg xmlns="http://www.w3.org/2000/svg" width="18.112" height="18.113" viewBox="0 0 18.112 18.113">
  <path id="Path_14012" data-name="Path 14012" d="M87.837,75.13l-5-5a.706.706,0,0,0-1.162.254,4.646,4.646,0,0,0-.2,2.448L76.616,77.12a5.487,5.487,0,0,0-4.8.576.707.707,0,0,0-.088,1.074L75.155,82.2,70.06,87.292a.438.438,0,0,0,.619.62l5.095-5.095L79.2,86.245a.7.7,0,0,0,.5.207l.059,0a.706.706,0,0,0,.517-.294,5.145,5.145,0,0,0,.692-1.536,5.4,5.4,0,0,0-.118-3.263l4.284-4.863a4.636,4.636,0,0,0,2.448-.2.706.706,0,0,0,.253-1.161ZM75.449,81.252,72.5,78.3a4.572,4.572,0,0,1,4.045-.271L77,77.953l5.254-4.629.136-.434a3.792,3.792,0,0,1,.032-1.94l4.6,4.6a3.785,3.785,0,0,1-1.94.032l-.434.136L80.02,80.975l-.077.456a4.587,4.587,0,0,1-.271,4.044L76.5,82.3" transform="translate(-69.932 -69.927)" fill="#555555"/>
</svg>
