<svg id="award" xmlns="http://www.w3.org/2000/svg" width="51.542" height="51.542" viewBox="0 0 51.542 51.542">
  <path id="Path_6618" data-name="Path 6618" d="M370.048,0H365.7l-3.09,3.02h7.443a1.511,1.511,0,0,1,1.51,1.51v2.3a13.457,13.457,0,0,1-9.2,12.764l-2.129.709a1.51,1.51,0,0,0,.478,2.943,1.551,1.551,0,0,0,.478-.077l2.129-.711A16.472,16.472,0,0,0,374.579,6.83V4.53A4.535,4.535,0,0,0,370.048,0Zm0,0" transform="translate(-323.037 0)" fill="#a6a6a6"/>
  <path id="Path_6619" data-name="Path 6619" d="M14.349,20.3,12.22,19.6A13.461,13.461,0,0,1,3.02,6.83V4.53A1.511,1.511,0,0,1,4.53,3.02h7.8L8.883,0H4.53A4.535,4.535,0,0,0,0,4.53v2.3A16.476,16.476,0,0,0,11.264,22.461l2.129.709a1.551,1.551,0,0,0,.478.077,1.51,1.51,0,0,0,.478-2.943Zm0,0" transform="translate(0)" fill="#a6a6a6"/>
  <path id="Path_6620" data-name="Path 6620" d="M109.722,29.475V31.71a1.5,1.5,0,0,0,1.51,1.51,4.524,4.524,0,0,1,4.53,4.53v3.02a1.5,1.5,0,0,1-1.51,1.51H95.931a1.5,1.5,0,0,1-1.51-1.51V37.75a4.524,4.524,0,0,1,4.53-4.53,1.5,1.5,0,0,0,1.51-1.51V29.475A15.054,15.054,0,0,1,90.072,16.851L88.2,0h33.784l-1.873,16.851A15.054,15.054,0,0,1,109.722,29.475Zm0,0" transform="translate(-79.32)" fill="#dfdfdf"/>
  <path id="Path_6621" data-name="Path 6621" d="M265.161,42.28H256V0h16.892l-1.873,16.851a15.054,15.054,0,0,1-10.389,12.624V31.71a1.5,1.5,0,0,0,1.51,1.51,4.524,4.524,0,0,1,4.53,4.53v3.02A1.5,1.5,0,0,1,265.161,42.28Zm0,0" transform="translate(-230.229)" fill="#b4b4b4"/>
  <path id="Path_6622" data-name="Path 6622" d="M196.07,65.883a1.535,1.535,0,0,0-1.238-1.057l-3.383-.483-1.51-2.99a1.6,1.6,0,0,0-2.718,0l-1.51,2.99-3.383.483a1.5,1.5,0,0,0-.815,2.6l2.416,2.326-.574,3.261a1.532,1.532,0,0,0,.6,1.48,1.482,1.482,0,0,0,1.57.121l3.05-1.571,3.05,1.571a1.478,1.478,0,0,0,1.571-.121,1.532,1.532,0,0,0,.6-1.48l-.574-3.261,2.416-2.326A1.544,1.544,0,0,0,196.07,65.883Zm0,0" transform="translate(-162.81 -54.497)" fill="#fff"/>
  <path id="Path_6623" data-name="Path 6623" d="M147.381,391.51v9.141H120V391.51a1.5,1.5,0,0,1,1.51-1.51h24.361A1.5,1.5,0,0,1,147.381,391.51Zm0,0" transform="translate(-107.92 -350.74)" fill="#707070"/>
  <path id="Path_6624" data-name="Path 6624" d="M259.05,74.611,256,73.04V60.6a1.5,1.5,0,0,1,1.359.755l1.51,2.99,3.383.483a1.5,1.5,0,0,1,.815,2.6l-2.416,2.326.574,3.262a1.531,1.531,0,0,1-.6,1.48A1.477,1.477,0,0,1,259.05,74.611Zm0,0" transform="translate(-230.229 -54.497)" fill="#efefef"/>
  <path id="Path_6625" data-name="Path 6625" d="M269.691,391.51v9.141H256V390h12.181A1.5,1.5,0,0,1,269.691,391.51Zm0,0" transform="translate(-230.229 -350.74)" fill="#5a5a5a"/>
  <path id="Path_6626" data-name="Path 6626" d="M123.421,483.51a1.5,1.5,0,0,1-1.51,1.51H91.51a1.51,1.51,0,1,1,0-3.02h30.4A1.5,1.5,0,0,1,123.421,483.51Zm0,0" transform="translate(-80.94 -433.479)" fill="#5e5e5e"/>
  <path id="Path_6627" data-name="Path 6627" d="M272.711,483.51a1.5,1.5,0,0,1-1.51,1.51H256V482h15.2A1.5,1.5,0,0,1,272.711,483.51Zm0,0" transform="translate(-230.229 -433.479)" fill="#3c3c3c"/>
</svg>
