<svg xmlns="http://www.w3.org/2000/svg" xmlns:xlink="http://www.w3.org/1999/xlink" width="104" height="104" viewBox="0 0 104 104">
  <defs>
    <linearGradient id="linear-gradient" x1="0.5" x2="0.5" y2="1" gradientUnits="objectBoundingBox">
      <stop offset="0" stop-color="#f60"/>
      <stop offset="1" stop-color="red"/>
    </linearGradient>
  </defs>
  <g id="Group_29965" data-name="Group 29965" transform="translate(-636 -425)">
    <circle id="Ellipse_2486" data-name="Ellipse 2486" cx="52" cy="52" r="52" transform="translate(636 425)" fill="#fff" opacity="0.29"/>
    <path id="Path_19209" data-name="Path 19209" d="M44,0A44,44,0,1,1,0,44,44,44,0,0,1,44,0Z" transform="translate(644 433)" fill="#fff" opacity="0.8"/>
    <path id="Subtraction_8" data-name="Subtraction 8" d="M-8666,16930h-2a17.856,17.856,0,0,1-10.729-3.545,17.921,17.921,0,0,1-6.433-9A4.023,4.023,0,0,1-8686,16915v-25a4,4,0,0,1,4-4,3.993,3.993,0,0,1,2.643,1h1.4a3.531,3.531,0,0,0-.036.5v3a3.5,3.5,0,0,0,3.5,3.5,3.5,3.5,0,0,0,3.5-3.5v-3a3.452,3.452,0,0,0-.036-.5h1.4a4.01,4.01,0,0,1,2.644-1,4.008,4.008,0,0,1,2.643,1h1.391a3.511,3.511,0,0,0-.035.5v3a3.5,3.5,0,0,0,3.5,3.5,3.5,3.5,0,0,0,3.5-3.5v-3a3.452,3.452,0,0,0-.036-.5h1.392a4.006,4.006,0,0,1,2.643-1,4,4,0,0,1,4,4v25a3.985,3.985,0,0,1-.846,2.457,17.9,17.9,0,0,1-6.428,9A17.84,17.84,0,0,1-8666,16930Z" transform="translate(9355.001 -16429)" fill="url(#linear-gradient)"/>
    <path id="Polygon_95" data-name="Polygon 95" d="M10.417,4.371a3,3,0,0,1,5.166,0l7.743,13.1A3,3,0,0,1,20.743,22H5.257a3,3,0,0,1-2.583-4.526Z" transform="translate(685 509) rotate(180)" fill="#ff2900"/>
    <g id="Error-595b40b65ba036ed117d43ee" transform="translate(651.999 442)">
      <circle id="Ellipse_2488" data-name="Ellipse 2488" cx="3" cy="3" r="3" transform="translate(27.001 32)" fill="#fff"/>
      <circle id="Ellipse_2489" data-name="Ellipse 2489" cx="3" cy="3" r="3" transform="translate(39.001 32)" fill="#fff"/>
      <path id="Path_19206" data-name="Path 19206" d="M36,39a3.974,3.974,0,0,0-4,4h0a1,1,0,0,0,1,1h6a1,1,0,0,0,1-1A4,4,0,0,0,36,39Z" fill="#fff"/>
      <path id="Path_19208" data-name="Path 19208" d="M36,52c-.432,0-.862-.018-1.289-.045-.1-.007-.206-.017-.309-.025-.346-.027-.689-.063-1.031-.108-.088-.011-.175-.023-.263-.036-.411-.059-.819-.129-1.224-.214l-.03-.006a19.759,19.759,0,0,1-2.542-.719c-.089-.031-.177-.065-.265-.1q-.465-.172-.923-.37c-.108-.046-.216-.092-.323-.14-.074-.033-.149-.062-.222-.1l0-.009c-.362-.168-.721-.344-1.073-.534l-3.823,6.835a3.089,3.089,0,0,1-5.373,0L8.384,40.468a2.95,2.95,0,0,1,.03-2.959A3.042,3.042,0,0,1,11.07,36H16V11a5,5,0,0,1,10,0v.5a2.5,2.5,0,0,0,5,0V11a5,5,0,0,1,10,0v.5a2.5,2.5,0,0,0,5,0V11a5,5,0,0,1,10,0V32A20.023,20.023,0,0,1,36,52ZM10.138,38.521a.962.962,0,0,0-.01.971l8.93,15.969a1.094,1.094,0,0,0,1.885,0l8.93-15.969a.96.96,0,0,0-.01-.971A1.066,1.066,0,0,0,28.931,38H11.07A1.066,1.066,0,0,0,10.138,38.521ZM54,11a3,3,0,0,0-6,0v.5a4.5,4.5,0,0,1-9,0V11a3,3,0,0,0-6,0v.5a4.5,4.5,0,0,1-9,0V11a3,3,0,0,0-6,0V36H28.931a3.044,3.044,0,0,1,2.657,1.51,2.95,2.95,0,0,1,.03,2.959l-4.132,7.389c.344.185.695.357,1.05.519.51.233,1.028.439,1.552.622.141.049.283.091.425.137q.654.21,1.32.368c.128.031.255.067.383.1.53.114,1.066.2,1.607.262.152.019.305.033.458.048.569.053,1.14.091,1.719.091A18.021,18.021,0,0,0,54,32Z" transform="translate(0 8)" fill="#fff"/>
      <rect id="Rectangle_9111" data-name="Rectangle 9111" width="2" height="2" transform="translate(19.001 56.256)" fill="#fff"/>
      <rect id="Rectangle_9112" data-name="Rectangle 9112" width="2" height="7" transform="translate(19.001 48.256)" fill="#fff"/>
    </g>
  </g>
</svg>
