<svg xmlns="http://www.w3.org/2000/svg" xmlns:xlink="http://www.w3.org/1999/xlink" width="28" height="28" viewBox="0 0 28 28">
  <defs>
    <linearGradient id="linear-gradient" x1="0.5" x2="0.5" y2="1" gradientUnits="objectBoundingBox">
      <stop offset="0" stop-color="#f60"/>
      <stop offset="1" stop-color="red"/>
    </linearGradient>
  </defs>
  <g id="Group_29765" data-name="Group 29765" transform="translate(-636.443 -425.443)">
    <circle id="Ellipse_2486" data-name="Ellipse 2486" cx="14" cy="14" r="14" transform="translate(636.443 425.443)" fill="#fff" opacity="0.29"/>
    <path id="Path_19209" data-name="Path 19209" d="M12.318,0A12.318,12.318,0,1,1,0,12.318,12.318,12.318,0,0,1,12.318,0Z" transform="translate(638.203 427.203)" fill="#fff" opacity="0.8"/>
    <path id="Subtraction_8" data-name="Subtraction 8" d="M5.891,12H4.909a4.881,4.881,0,0,1-4.7-3.474A1.122,1.122,0,0,1,0,7.863V1.137A1.137,1.137,0,0,1,1.876.273h.413a1,1,0,0,0-.016.176v.738a.995.995,0,0,0,1.99,0V.449A1,1,0,0,0,4.248.273h.414a1.136,1.136,0,0,1,1.477,0h.413a1,1,0,0,0-.016.176v.738a.995.995,0,0,0,1.99,0V.449A1,1,0,0,0,8.511.273h.42A1.126,1.126,0,0,1,9.663,0,1.149,1.149,0,0,1,10.8,1.158V7.842c-.015.032-.044.095-.088.178A4.912,4.912,0,0,1,5.891,12Z" transform="translate(645.443 434.443)" fill="url(#linear-gradient)"/>
    <path id="Path_19425" data-name="Path 19425" d="M2.827,1.789a.832.832,0,0,1,1.568,0L6.276,5.553C6.609,6.218,6.642,7,5.9,7H1.618A1,1,0,0,1,.724,5.553Z" transform="translate(649.943 449.443) rotate(180)" fill="#ff2900"/>
    <g id="Error-595b40b65ba036ed117d43ee" transform="translate(643.006 433.886)">
      <ellipse id="Ellipse_2488" data-name="Ellipse 2488" cx="0.5" cy="1" rx="0.5" ry="1" transform="translate(5.761 4.802)" fill="#fff"/>
      <ellipse id="Ellipse_2489" data-name="Ellipse 2489" cx="0.5" cy="1" rx="0.5" ry="1" transform="translate(8.761 4.802)" fill="#fff"/>
      <path id="Path_19206" data-name="Path 19206" d="M33.121,39A1.113,1.113,0,0,0,32,40.12h0a.28.28,0,0,0,.28.28h1.68a.28.28,0,0,0,.28-.28A1.12,1.12,0,0,0,33.121,39Z" transform="translate(-25.282 -32.001)" fill="#fff"/>
      <path id="Path_19208" data-name="Path 19208" d="M15.839,18.878c-.121,0-.241-.005-.361-.013l-.087-.007c-.1-.008-.193-.018-.289-.03l-.074-.01c-.115-.017-.229-.036-.343-.06l-.008,0a5.531,5.531,0,0,1-.712-.2l-.074-.027q-.13-.048-.258-.1l-.09-.039-.062-.027v0c-.1-.047-.2-.1-.3-.149l-1.07,1.913a.865.865,0,0,1-1.5,0l-2.5-4.47a.826.826,0,0,1,.008-.828A.851.851,0,0,1,8.86,14.4h1.38v-7a1.4,1.4,0,1,1,2.8,0v.14a.7.7,0,0,0,1.4,0V7.4a1.4,1.4,0,1,1,2.8,0v.14a.7.7,0,0,0,1.4,0V7.4a1.4,1.4,0,0,1,2.8,0v5.879A5.605,5.605,0,0,1,15.839,18.878ZM8.6,15.1a.269.269,0,0,0,0,.272l2.5,4.47a.306.306,0,0,0,.528,0l2.5-4.47a.269.269,0,0,0,0-.272.3.3,0,0,0-.261-.146h-5A.3.3,0,0,0,8.6,15.1ZM20.878,7.4a.84.84,0,1,0-1.68,0v.14a1.26,1.26,0,0,1-2.52,0V7.4A.84.84,0,1,0,15,7.4v.14a1.26,1.26,0,1,1-2.52,0V7.4a.84.84,0,1,0-1.68,0v7h3.06a.852.852,0,0,1,.744.423.826.826,0,0,1,.008.828l-1.157,2.069c.1.052.195.1.294.145.143.065.288.123.434.174l.119.038q.183.059.37.1c.036.009.071.019.107.027.148.032.3.055.45.073l.128.013c.159.015.319.025.481.025a5.045,5.045,0,0,0,5.039-5.039Z" transform="translate(-8.001 -6)" fill="#fff"/>
      <rect id="Rectangle_9111" data-name="Rectangle 9111" width="0.56" height="0.56" transform="translate(3.079 11.829)" fill="#fff"/>
      <rect id="Rectangle_9112" data-name="Rectangle 9112" width="0.56" height="1.96" transform="translate(3.079 9.59)" fill="#fff"/>
    </g>
  </g>
</svg>
