<svg xmlns="http://www.w3.org/2000/svg" width="14.139" height="22.726" viewBox="0 0 14.139 22.726">
  <g id="Component_199_73" data-name="Component 199 – 73" transform="translate(0.25 0.25)">
    <path id="Path_15344" data-name="Path 15344" d="M29.819,958.362a1.552,1.552,0,0,1,1.078.421,1.716,1.716,0,0,1,.505,1.262v.8a1.547,1.547,0,0,1,1.036-.385,1.565,1.565,0,0,1,1.086.421,1.728,1.728,0,0,1,.5,1.271v1.692a1.586,1.586,0,0,1,2.122.027,1.712,1.712,0,0,1,.5,1.262v8.164a7.326,7.326,0,0,1-2.138,5.469,6.912,6.912,0,0,1-9.362,0A7.325,7.325,0,0,1,23,973.293v-5.031a1.733,1.733,0,0,1,.505-1.271,1.552,1.552,0,0,1,1.078-.421,1.577,1.577,0,0,1,1.044.385V962.14a1.711,1.711,0,0,1,.5-1.262,1.581,1.581,0,0,1,1.086-.43,1.559,1.559,0,0,1,1.036.394v-.8a1.712,1.712,0,0,1,.5-1.262,1.552,1.552,0,0,1,1.078-.421Zm0,.573a1.037,1.037,0,0,0-.716.277,1.078,1.078,0,0,0-.32.833q0,4.57,0,9.139a.27.27,0,1,1-.539,0V962.14a1.1,1.1,0,0,0-.32-.841,1.037,1.037,0,0,0-.716-.277,1.058,1.058,0,0,0-.724.277,1.1,1.1,0,0,0-.32.841v10.992a.27.27,0,1,1-.539,0v-4.87a1.1,1.1,0,0,0-.32-.841,1.083,1.083,0,0,0-1.448,0,1.1,1.1,0,0,0-.32.841v5.031a6.693,6.693,0,0,0,1.962,5.04,6.395,6.395,0,0,0,8.646,0,6.689,6.689,0,0,0,1.953-5.04v-8.164a1.079,1.079,0,0,0-.32-.833,1.038,1.038,0,0,0-.716-.277,1.059,1.059,0,0,0-.724.277,1.079,1.079,0,0,0-.32.833v5.084a.27.27,0,1,1-.539,0v-8.065a1.094,1.094,0,0,0-.32-.841,1.052,1.052,0,0,0-.724-.277,1.032,1.032,0,0,0-.716.277,1.094,1.094,0,0,0-.32.841v7.125a.27.27,0,1,1-.539,0v-9.229a1.079,1.079,0,0,0-.32-.833,1.058,1.058,0,0,0-.724-.277Z" transform="translate(-23 -958.362)" fill="#f60" stroke="#f60" stroke-width="0.5" fill-rule="evenodd"/>
  </g>
</svg>
