<svg xmlns="http://www.w3.org/2000/svg" width="12.862" height="11.522" viewBox="0 0 12.862 11.522">
  <g id="noun_Reply_3849772" transform="translate(-2.998 -3.969)">
    <g id="Group_28691" data-name="Group 28691" transform="translate(2.998 3.969)">
      <path id="Path_15270" data-name="Path 15270" d="M15.86,15.159a.332.332,0,0,1-.278.332h-.061a.332.332,0,0,1-.311-.21A6.4,6.4,0,0,0,9.43,11.436H8.415V13.8a.338.338,0,0,1-.21.311.325.325,0,0,1-.366-.074L3.1,9.3a.325.325,0,0,1,0-.474L7.839,4.091a.318.318,0,0,1,.366-.1.338.338,0,0,1,.21.338V6.7a7.635,7.635,0,0,1,5.029,1.828C15.048,9.98,15.86,12.214,15.86,15.159Z" transform="translate(-2.998 -3.969)" fill="rgba(85,85,85,0.7)"/>
    </g>
  </g>
</svg>
