<svg xmlns="http://www.w3.org/2000/svg" width="11.427" height="11.424" viewBox="0 0 11.427 11.424">
  <g id="noun_like_3895615" transform="translate(-2 -2)">
    <path id="Path_15103" data-name="Path 15103" d="M4.439,16.869l-.714-5.141A1.146,1.146,0,0,1,3.868,11H3.714A1.714,1.714,0,0,0,2,12.714V15.57a1.714,1.714,0,0,0,1.714,1.714h.871a1.126,1.126,0,0,1-.145-.414Z" transform="translate(0 -3.859)" fill="rgba(85,85,85,0.7)"/>
    <path id="Path_15104" data-name="Path 15104" d="M14.716,6.831a1.622,1.622,0,0,0-1.244-.594h-2.38l.378-2.5a1.57,1.57,0,0,0-.377-1.278,1.355,1.355,0,0,0-1.2-.448,1.4,1.4,0,0,0-1.048.746L6.08,7.421a.571.571,0,0,0-.074.37l.714,5.141a.571.571,0,0,0,.565.492h5.53a1.7,1.7,0,0,0,1.639-1.441l.657-3.627A1.854,1.854,0,0,0,14.716,6.831Z" transform="translate(-1.715 0)" fill="rgba(85,85,85,0.7)"/>
  </g>
</svg>
