<svg xmlns="http://www.w3.org/2000/svg" width="10.25" height="10.198" viewBox="0 0 10.25 10.198">
  <g id="noun_verified_2396751" transform="translate(-2.946 -58.821)">
    <g id="Group_29380" data-name="Group 29380" transform="translate(2.946 58.821)">
      <path id="Path_15345" data-name="Path 15345" d="M71.344,67.933,72,68.68l.979-.415a.293.293,0,0,1,.392.183l.3.963,1.062.019a.292.292,0,0,1,.285.326l-.118,1,.963.449a.292.292,0,0,1,.141.388c-.131.272-.369.622-.53.892l.7.8a.293.293,0,0,1-.053.43l-.824.582.31,1.017a.292.292,0,0,1-.223.371l-.988.2-.13,1.054a.293.293,0,0,1-.376.244l-.963-.218-.547.91a.292.292,0,0,1-.425.084l-.809-.6-.87.609a.291.291,0,0,1-.422-.1l-.492-.879-1.044.2a.292.292,0,0,1-.347-.278l-.09-.987-1.035-.239a.292.292,0,0,1-.211-.378l.325-.955-.849-.64a.292.292,0,0,1-.022-.448l.669-.723-.515-.93a.292.292,0,0,1,.141-.41l.926-.4-.092-1.059a.294.294,0,0,1,.321-.316l.983.013.346-1a.293.293,0,0,1,.414-.164l.9.416.725-.777A.292.292,0,0,1,71.344,67.933Zm-2.623,5.1a.417.417,0,0,1,.589-.589l1.305,1.306L72.9,71.213a.416.416,0,0,1,.619.557l-2.566,2.844a.417.417,0,0,1-.618.032Z" transform="translate(-65.989 -67.821)" fill="#489333" fill-rule="evenodd"/>
    </g>
  </g>
</svg>
