<svg xmlns="http://www.w3.org/2000/svg" width="19.583" height="19.583" viewBox="0 0 19.583 19.583">
  <g id="noun_attach_file_1540289" data-name="noun_attach file_1540289" transform="translate(13.711) rotate(45)">
    <g id="Group_28450" data-name="Group 28450" transform="translate(0 0)">
      <path id="Path_15143" data-name="Path 15143" d="M8.3,13.215a.47.47,0,1,1-.939,0V3.755A3.217,3.217,0,0,0,5.633,1.3a3.533,3.533,0,0,0-2.961,0A3.061,3.061,0,0,0,.939,3.755V16.248A2.17,2.17,0,0,0,2.311,18.2a2.639,2.639,0,0,0,2.094,0,2.288,2.288,0,0,0,1.372-1.95V3.972a1.528,1.528,0,0,0-.939-1.3h0a1.686,1.686,0,0,0-1.444,0h0a1.353,1.353,0,0,0-.867,1.3v9.243a.506.506,0,0,1-1.011,0V3.972A2.518,2.518,0,0,1,3.033,1.805H2.961a2.6,2.6,0,0,1,2.311,0h0A2.567,2.567,0,0,1,6.716,3.972V16.248a3.1,3.1,0,0,1-1.878,2.816,3.535,3.535,0,0,1-2.961,0A3.062,3.062,0,0,1,0,16.321V3.683A3.965,3.965,0,0,1,2.239.433a4.443,4.443,0,0,1,3.827,0A4.088,4.088,0,0,1,8.3,3.611Z" transform="translate(0 0)"/>
    </g>
  </g>
</svg>
