<svg xmlns="http://www.w3.org/2000/svg" width="13.744" height="13.744" viewBox="0 0 13.744 13.744">
  <g id="noun_attach_1014504" transform="translate(-14 -14)">
    <g id="Group_29834" data-name="Group 29834" transform="translate(14 14)">
      <path id="Path_19205" data-name="Path 19205" d="M25.988,19.688a.565.565,0,0,0,.783,0,3.334,3.334,0,1,0-4.715-4.715l-7.082,7.082a3.341,3.341,0,0,0,4.734,4.715L24.5,21.979h0a1.975,1.975,0,0,0-.057-2.692,1.936,1.936,0,0,0-2.749,0l-3.97,3.951a.553.553,0,0,0,.783.783l3.932-3.932a.837.837,0,1,1,1.184,1.184h0l-4.715,4.715a2.227,2.227,0,1,1-3.15-3.15l7.082-7.082a2.227,2.227,0,0,1,3.15,3.15A.532.532,0,0,0,25.988,19.688Z" transform="translate(-14 -14)" fill="#f60"/>
    </g>
  </g>
</svg>
