<svg xmlns="http://www.w3.org/2000/svg" width="18" height="14.526" viewBox="0 0 18 14.526">
    <path fill="#bcbfc5" fill-rule="evenodd" d="M4.049 16.833L17.254 3.627a.66.66 0 0 0-.934-.934L3.115 15.9a.66.66 0 0 0 .934.934zM10.185 3.16a7.439 7.439 0 0 1 3.665 1.07l-.974.974a5.906 5.906 0 0 0-2.692-.723 7.558 7.558 0 0 0-4.622 2.025 18.763 18.763 0 0 0-3.016 3.257 19.117 19.117 0 0 0 2.745 3.026l-.936.936a20.575 20.575 0 0 1-2.948-3.282 1.149 1.149 0 0 1 0-1.359C2.625 7.4 6.095 3.16 10.185 3.16zm0 3.3a3.293 3.293 0 0 1 1.206.227l-1.1 1.1h-.11A1.981 1.981 0 0 0 8.2 9.763v.11l-1.1 1.1a3.3 3.3 0 0 1 3.074-4.508zm3.074 2.095l-1.1 1.1v.11a1.981 1.981 0 0 1-1.981 1.981h-.11l-1.1 1.1a3.3 3.3 0 0 0 4.28-4.28zm-3.074 6.489a5.906 5.906 0 0 1-2.692-.723l-.974.974a7.438 7.438 0 0 0 3.665 1.07c4.09 0 7.559-4.238 8.778-5.923a1.149 1.149 0 0 0 0-1.359A20.573 20.573 0 0 0 16.014 5.8l-.936.936a19.117 19.117 0 0 1 2.745 3.026 18.762 18.762 0 0 1-3.016 3.257 7.558 7.558 0 0 1-4.622 2.026z" transform="translate(-1.185 -2.5)"/>
</svg>
