<svg version="1.0" xmlns="http://www.w3.org/2000/svg"
 width="24" height="24" viewBox="0 0 512.000000 512.000000"
 preserveAspectRatio="xMidYMid meet">

<g transform="translate(0.000000,512.000000) scale(0.100000,-0.100000)"
fill="#ff4400" stroke="none">
<path d="M1355 5107 c-91 -28 -162 -90 -204 -177 l-26 -55 -3 -2290 c-2 -1739
0 -2304 9 -2348 30 -147 174 -247 336 -234 90 7 183 54 229 115 69 95 64 -97
64 2443 0 2296 0 2298 -21 2353 -26 70 -92 139 -163 172 -64 29 -163 39 -221
21z"/>
<path d="M3585 5107 c-92 -31 -158 -86 -197 -166 l-23 -46 -3 -2315 c-2 -2561
-7 -2367 62 -2462 46 -61 139 -108 229 -115 162 -13 306 87 336 234 9 44 11
609 9 2348 l-3 2290 -23 51 c-29 63 -102 136 -165 164 -60 27 -168 35 -222 17z"/>
</g>
</svg>
