<svg xmlns="http://www.w3.org/2000/svg" width="20" height="20" viewBox="0 0 20 20">
    <defs>
        <style>
            .cls-1{fill:#555}
        </style>
    </defs>
    <g id="brand" transform="translate(0 0.001)">
        <path id="Path_14075" d="M18.667 64h-4.334v.692h4.333a.68.68 0 0 1 .667.692v10.381H.667V65.381a.68.68 0 0 1 .667-.692h4.333V64H1.333A1.36 1.36 0 0 0 0 65.381V77.15a1.36 1.36 0 0 0 1.333 1.385h6.552l-.8 2.769h-.752V82h7.333v-.7h-.752l-.8-2.769h6.552A1.36 1.36 0 0 0 20 77.15V65.381A1.36 1.36 0 0 0 18.667 64zm-6.448 17.3H7.781l.8-2.769h2.837zm7.115-4.154a.68.68 0 0 1-.667.692H1.333a.68.68 0 0 1-.667-.692v-.692h18.667zm0 0" class="cls-1" transform="translate(0 -61.997)"/>
        <path id="Path_14076" d="M30.617 157.614l.086.492a1.688 1.688 0 0 0 0-3.325l-.086.492a1.188 1.188 0 0 1 0 2.339zm0 0" class="cls-1" transform="translate(-29.66 -147.874)"/>
        <path id="Path_14077" d="M35.25 99a.25.25 0 0 0-.25-.25h-.6a2.726 2.726 0 0 0-.245-.59l.427-.427a.25.25 0 0 0 0-.354l-.707-.707a.25.25 0 0 0-.354 0l-.428.428a2.718 2.718 0 0 0-.59-.246v-.6a.25.25 0 0 0-.25-.25H32v1.05a.25.25 0 0 0 .2.245 2.223 2.223 0 0 1 .79.328.25.25 0 0 0 .315-.031l.39-.39.354.354-.39.39a.25.25 0 0 0-.032.315 2.213 2.213 0 0 1 .328.79.25.25 0 0 0 .245.2h.55v.5h-.55a.25.25 0 0 0-.245.2 2.215 2.215 0 0 1-.328.79.25.25 0 0 0 .032.315l.39.39-.354.354-.39-.39a.25.25 0 0 0-.315-.031 2.223 2.223 0 0 1-.79.328.25.25 0 0 0-.2.245V103h.25a.25.25 0 0 0 .25-.25v-.6a2.724 2.724 0 0 0 .59-.245l.428.427a.25.25 0 0 0 .354 0l.707-.707a.25.25 0 0 0 0-.354l-.428-.427a2.729 2.729 0 0 0 .246-.59H35a.25.25 0 0 0 .25-.25zm0 0" class="cls-1" transform="translate(-31 -91.122)"/>
        <path id="Path_14078" d="M344.25 100.246h.6a2.728 2.728 0 0 0 .245.59l-.427.427a.25.25 0 0 0 0 .354l.707.707a.25.25 0 0 0 .354 0l.428-.428a2.724 2.724 0 0 0 .59.245v.6a.25.25 0 0 0 .25.25h.25v-1.05a.25.25 0 0 0-.2-.245 2.223 2.223 0 0 1-.79-.328.25.25 0 0 0-.315.032l-.39.39-.354-.354.39-.39a.25.25 0 0 0 .032-.315 2.213 2.213 0 0 1-.328-.79.25.25 0 0 0-.245-.2h-.55v-.5h.55a.25.25 0 0 0 .245-.2 2.215 2.215 0 0 1 .328-.79.25.25 0 0 0-.032-.315l-.39-.39.354-.354.39.39a.25.25 0 0 0 .315.031 2.223 2.223 0 0 1 .79-.328.25.25 0 0 0 .2-.245V96H347a.25.25 0 0 0-.25.25v.6a2.717 2.717 0 0 0-.59.245l-.428-.427a.25.25 0 0 0-.354 0l-.707.707a.25.25 0 0 0 0 .354l.427.427a2.728 2.728 0 0 0-.245.59h-.6A.25.25 0 0 0 344 99v1a.25.25 0 0 0 .25.246zm0 0" class="cls-1" transform="translate(-328.25 -91.122)"/>
        <path id="Path_14079" d="M403.4 155.305l-.086-.492a1.688 1.688 0 0 0 0 3.325l.086-.492a1.188 1.188 0 0 1 0-2.339zm0 0" class="cls-1" transform="translate(-384.354 -147.904)"/>
        <path id="Path_14080" d="M352 96h.5v.5h-.5zm0 0" class="cls-1" transform="translate(-337.207 -91.963)"/>
        <path id="Path_14081" d="M120 304h.5v.5h-.5zm0 0" class="cls-1" transform="translate(-114.957 -291.221)"/>
        <path id="Path_14082" d="M160.25 10h4.5a.25.25 0 0 0 .25-.25V1.5a.25.25 0 0 0-.129-.219L162.621.03a.25.25 0 0 0-.242 0l-2.25 1.25a.25.25 0 0 0-.129.22v8.25a.25.25 0 0 0 .25.25zm.25-8.353l2-1.111 2 1.111V9.5h-4zm0 0" class="cls-1" transform="translate(-152.5 0)"/>
        <path id="Path_14083" d="M225 40.5a.5.5 0 1 1-.5-.5.5.5 0 0 1 .5.5zm0 0" class="cls-1" transform="translate(-214.5 -38.747)"/>
        <path id="Path_14084" d="M194.879 88.784l-1.25-.75a.25.25 0 0 0-.258 0l-1.25.75A.25.25 0 0 0 192 89v1.25a.25.25 0 0 0 .121.214l1.25.75a.25.25 0 0 0 .258 0l1.25-.75a.25.25 0 0 0 .121-.214V89a.25.25 0 0 0-.121-.216zm-.379 1.323l-1 .6-1-.6v-.967l1-.6 1 .6zm0 0" class="cls-1" transform="translate(-183.5 -84.079)"/>
        <path id="Path_14085" d="M192 272h2v.5h-2zm0 0" class="cls-1" transform="translate(-183.692 -260.566)"/>
        <path id="Path_14086" d="M272 272h.5v.5h-.5zm0 0" class="cls-1" transform="translate(-260.569 -260.566)"/>
        <path id="Path_14087" d="M192 240h3v.5h-3zm0 0" class="cls-1" transform="translate(-183.5 -229.911)"/>
        <path id="Path_14088" d="M192 208h3v.5h-3zm0 0" class="cls-1" transform="translate(-183.5 -199.256)"/>
    </g>
</svg>
