<svg xmlns="http://www.w3.org/2000/svg" width="20" height="16.004" viewBox="0 0 20 16.004"><defs><style>.a{fill:#fff;}</style></defs><g transform="translate(-5 -14.011)"><g transform="translate(5 14.011)"><path class="a" d="M14.556,16.3a.22.22,0,0,0-.1-.169A16.659,16.659,0,0,0,11,14.619a15.8,15.8,0,0,0-3.667-.608.109.109,0,0,0-.111.109V25.453a.123.123,0,0,0,.111.12,23.207,23.207,0,0,1,5,1.241c.84.289,2.122.872,2.122.872a.066.066,0,0,0,.1-.065Zm.888,11.317a.066.066,0,0,0,.1.065s1.281-.583,2.122-.872a23.207,23.207,0,0,1,5-1.241.123.123,0,0,0,.111-.12V14.12a.108.108,0,0,0-.111-.108A15.8,15.8,0,0,0,19,14.62a16.659,16.659,0,0,0-3.46,1.516.22.22,0,0,0-.1.169ZM6.333,25.453c0,.061,0,.161,0,.222v.592a.124.124,0,0,0,.111.121l.59.052.221.02a22.922,22.922,0,0,1,4.788,1.2c.7.239,1.934.789,1.934.789.056.025.06.073.01.108l-1.327.9-.09.065-.1-.041s-.581-.231-.929-.351A21.9,21.9,0,0,0,7.113,28.01l-.221-.021L5.11,27.832A.124.124,0,0,1,5,27.711V17.231a.373.373,0,0,1,.069-.2,7.482,7.482,0,0,1,.53-.58c.343-.343.649-.6.649-.6.047-.039.086-.021.086.04Zm10.07,4.5c.06-.01.068-.047.017-.081l-1.326-.827a.2.2,0,0,0-.188,0l-1.326.827c-.051.034-.043.071.017.081a9.636,9.636,0,0,0,1.4.065A9.653,9.653,0,0,0,16.4,29.95ZM23.667,15.9c0-.061.039-.079.086-.04,0,0,.306.253.649.6a7.483,7.483,0,0,1,.53.58.375.375,0,0,1,.069.2v10.48a.124.124,0,0,1-.111.121l-1.782.157-.221.021a21.917,21.917,0,0,0-4.424,1.116c-.348.12-.929.351-.929.351l-.1.041-.09-.065-1.327-.9c-.051-.034-.046-.083.01-.108,0,0,1.238-.55,1.934-.789a22.922,22.922,0,0,1,4.788-1.2l.221-.02.59-.052a.124.124,0,0,0,.111-.121v-.592c0-.061,0-.161,0-.222Z" transform="translate(-5 -14.011)"/></g></g></svg>