<svg xmlns="http://www.w3.org/2000/svg" xmlns:xlink="http://www.w3.org/1999/xlink" width="100" height="83" viewBox="0 0 100 83">
  <defs>
    <clipPath id="clip-upload_new">
      <rect width="100" height="83"/>
    </clipPath>
  </defs>
  <g id="upload_new" data-name="upload new" clip-path="url(#clip-upload_new)">
    <g id="Group_27031" data-name="Group 27031" transform="translate(-517.676 -287.684)">
      <path id="Path_14560" data-name="Path 14560" d="M88.521,91.735H10.706A10.931,10.931,0,0,1-.386,81V37.006A10.935,10.935,0,0,1,10.705,26.268H25.822l6.34-11a11.173,11.173,0,0,1,9.688-5.5H57.4a11.168,11.168,0,0,1,9.69,5.509l6.329,10.992h15.1A10.931,10.931,0,0,1,99.614,37.005V81A10.932,10.932,0,0,1,88.521,91.735ZM10.706,30.143a7.057,7.057,0,0,0-7.218,6.863V81a7.056,7.056,0,0,0,7.218,6.864H88.521A7.056,7.056,0,0,0,95.739,81V37.006a7.053,7.053,0,0,0-7.218-6.861H72.3a1.941,1.941,0,0,1-1.68-.97L63.728,17.212A7.282,7.282,0,0,0,57.4,13.644H41.849a7.288,7.288,0,0,0-6.331,3.564l-6.9,11.966a1.934,1.934,0,0,1-1.678.969ZM49.613,84.558c-14.95,0-27.112-11.724-27.112-26.134S34.663,32.29,49.613,32.29,76.726,44.014,76.726,58.424,64.563,84.558,49.613,84.558Zm0-48.393-.411,0c-4.124.006-8.026,1.109-13.229,4.188-4.955,2.706-9.6,9.877-9.6,18.068,0,12.274,10.424,22.259,23.237,22.259S72.851,70.7,72.851,58.424,62.428,36.165,49.613,36.165Z" transform="translate(518.062 277.916)" fill="#7e7e7e" stroke="#7e7e7e" stroke-width="0.5"/>
      <path id="Path_14561" data-name="Path 14561" d="M57.166,51.225H45.684V40.284a1.443,1.443,0,0,0-2.884,0v10.94H30.762a1.443,1.443,0,0,0,0,2.884H42.8v11.55a1.443,1.443,0,0,0,2.884,0V54.109H57.166a1.443,1.443,0,0,0,0-2.884Z" transform="translate(523.712 283.367)" fill="#7e7e7e"/>
    </g>
  </g>
</svg>
