<svg xmlns="http://www.w3.org/2000/svg" id="Component_17_1" width="32" height="32" viewBox="0 0 32 32">
    <defs>
        <style>
            .cls-2{fill:#757575}
        </style>
    </defs>
    <rect id="Rectangle_7002" width="32" height="32" fill="#ebeef6" rx="5"/>
    <g id="Notifination" transform="translate(6 6)">
        <g id="Group_25359" transform="translate(8.644 0)">
            <path id="Path_13409" d="M12.907 3.472a.415.415 0 0 1-.415-.415v-1.4a.831.831 0 0 0-1.661 0v1.4a.415.415 0 0 1-.831 0v-1.4a1.661 1.661 0 1 1 3.322 0v1.4a.415.415 0 0 1-.415.415z" class="cls-2" transform="translate(-10 0)"/>
        </g>
        <g id="Group_25360" transform="translate(7.398 16.61)">
            <path id="Path_13410" d="M11.407 23.322A2.91 2.91 0 0 1 8.5 20.415a.415.415 0 0 1 .831 0 2.076 2.076 0 0 0 4.153 0 .415.415 0 0 1 .831 0 2.91 2.91 0 0 1-2.908 2.907z" class="cls-2" transform="translate(-8.5 -20)"/>
        </g>
        <g id="Group_25361" transform="translate(2 2.492)">
            <path id="Path_13411" d="M17.365 17.949H3.246a1.246 1.246 0 0 1-.81-2.193 5.774 5.774 0 0 0 2.056-4.42V8.814a5.814 5.814 0 1 1 11.627 0v2.523a5.768 5.768 0 0 0 2.049 4.414 1.246 1.246 0 0 1-.8 2.2zm-7.06-14.118a4.988 4.988 0 0 0-4.983 4.983v2.523a6.6 6.6 0 0 1-2.343 5.049.415.415 0 0 0 .267.733h14.119a.415.415 0 0 0 .27-.731 6.6 6.6 0 0 1-2.346-5.051V8.814a4.988 4.988 0 0 0-4.983-4.983z" class="cls-2" transform="translate(-2 -3)"/>
        </g>
    </g>
    <g id="Group_25458" fill="#ff270d" transform="translate(-1173 -13)">
        <circle id="Ellipse_1592" cx="3" cy="3" r="3" opacity="0.17" transform="translate(1196 16)"/>
        <circle id="Ellipse_1591" cx="2" cy="2" r="2" transform="translate(1197 17)"/>
    </g>
</svg>
