<svg xmlns="http://www.w3.org/2000/svg" width="38.005" height="36.779" viewBox="0 0 38.005 36.779">
    <defs>
        <clipPath id="tjpemlc15a">
            <ellipse cx="19.003" cy="18.39" fill="#fff" stroke="#707070" rx="19.003" ry="18.39" transform="translate(0 0)"/>
        </clipPath>
    </defs>
    <g clip-path="url(#tjpemlc15a)">
        <g>
            <g transform="translate(1.012 0.311) translate(-0.009 -0.37)">
                <circle cx="18" cy="18" r="18" fill="#0076b4"/>
            </g>
            <g>
                <path fill="#fff" d="M32.526 44.243h-4.194V30.766h4.193zm-2.1-15.319a2.429 2.429 0 1 1 2.432-2.424 2.428 2.428 0 0 1-2.428 2.424zm17.788 15.319h-4.188v-6.554c0-1.563-.027-3.573-2.176-3.573-2.18 0-2.512 1.7-2.512 3.462v6.666h-4.185V30.766h4.015v1.842h.057a4.4 4.4 0 0 1 3.963-2.177c4.241 0 5.025 2.79 5.025 6.42v7.391z" transform="translate(1.012 0.311) translate(7.859 6.721) translate(-28 -24.066)"/>
            </g>
        </g>
    </g>
</svg>
