<svg xmlns="http://www.w3.org/2000/svg" xmlns:xlink="http://www.w3.org/1999/xlink" width="83" height="83" viewBox="0 0 83 83">
  <defs>
    <clipPath id="clip-email_template">
      <rect width="83" height="83"/>
    </clipPath>
  </defs>
  <g id="email_template" data-name="email template" clip-path="url(#clip-email_template)">
    <g id="Group_28740" data-name="Group 28740" transform="translate(4709.05 22790)">
      <path id="Path_14052" data-name="Path 14052" d="M79.349,0H3.651A3.655,3.655,0,0,0,0,3.651v75.7A3.655,3.655,0,0,0,3.651,83h75.7A3.655,3.655,0,0,0,83,79.349V3.651A3.655,3.655,0,0,0,79.349,0Zm1.217,79.349a1.218,1.218,0,0,1-1.217,1.217H3.651a1.218,1.218,0,0,1-1.217-1.217V16.543H80.566Zm0-65.24H2.434V3.651A1.218,1.218,0,0,1,3.651,2.434h75.7a1.218,1.218,0,0,1,1.217,1.217Z" transform="translate(-4709.05 -22790)" fill="#555"/>
      <path id="Path_14053" data-name="Path 14053" d="M45.643,28.31a2.914,2.914,0,1,0,2.914,2.914,2.918,2.918,0,0,0-2.914-2.914Zm0,4a1.089,1.089,0,1,1,1.089-1.089A1.09,1.09,0,0,1,45.643,32.313Z" transform="translate(-4746.579 -22814.867)" fill="#555"/>
      <path id="Path_14054" data-name="Path 14054" d="M109.171,28.31a2.914,2.914,0,1,0,2.914,2.914,2.918,2.918,0,0,0-2.914-2.914Zm0,4a1.089,1.089,0,1,1,1.089-1.089A1.09,1.09,0,0,1,109.171,32.313Z" transform="translate(-4797.622 -22814.867)" fill="#555"/>
      <path id="Path_14055" data-name="Path 14055" d="M172.7,28.31a2.914,2.914,0,1,0,2.914,2.914A2.918,2.918,0,0,0,172.7,28.31Zm0,4a1.089,1.089,0,1,1,1.089-1.089A1.09,1.09,0,0,1,172.7,32.313Z" transform="translate(-4850.577 -22814.867)" fill="#555"/>
      <path id="Path_14056" data-name="Path 14056" d="M54.44,134.316h65.649c1.288,0,2.335-.738,2.335-1.646v-4.389c0-.908-1.047-1.646-2.335-1.646H54.44c-1.287,0-2.335.738-2.335,1.646v4.389C52.1,133.578,53.152,134.316,54.44,134.316Zm.254-5.856h65.14v4.03H54.694Z" transform="translate(-4754.814 -22895.365)" fill="#555"/>
      <path id="Path_14057" data-name="Path 14057" d="M54.44,214.421h65.649c1.288,0,2.335-.738,2.335-1.646v-4.389c0-.908-1.047-1.646-2.335-1.646H70.778c-.715,0-1.295.409-1.295.913s.58.913,1.295.913h49.056V212.6H54.694v-4.031H64.823c.715,0,1.295-.409,1.295-.913s-.58-.913-1.295-.913H54.44c-1.287,0-2.335.738-2.335,1.646v4.389C52.1,213.683,53.152,214.421,54.44,214.421Z" transform="translate(-4754.814 -22962.018)" fill="#555"/>
      <path id="Path_14058" data-name="Path 14058" d="M54.44,301.322h65.649c1.288,0,2.335-.738,2.335-1.646v-5.332c0-.5-.579-.913-1.295-.913s-1.295.409-1.295.913V299.5H54.694V288.674h65.14v1.492c0,.5.58.913,1.295.913s1.295-.408,1.295-.913v-1.672c0-.908-1.047-1.646-2.335-1.646H54.44c-1.287,0-2.335.738-2.335,1.646v11.181C52.1,300.584,53.152,301.322,54.44,301.322Z" transform="translate(-4754.814 -23026.783)" fill="#555"/>
      <path id="Path_14059" data-name="Path 14059" d="M359.546,422.771H349.224a1.648,1.648,0,0,0-1.646,1.646v3.029a1.648,1.648,0,0,0,1.646,1.646h10.322a1.648,1.648,0,0,0,1.646-1.646v-3.029A1.648,1.648,0,0,0,359.546,422.771Zm-.179,4.5H349.4V424.6h9.963Z" transform="translate(-4993.582 -23140.578)" fill="#555"/>
      <path id="Path_14060" data-name="Path 14060" d="M85.571,321.261h3.007a.913.913,0,0,0,0-1.825H85.571a.913.913,0,0,0,0,1.825Z" transform="translate(-4779.682 -23057.219)" fill="#555"/>
      <path id="Path_14061" data-name="Path 14061" d="M157.215,320.349a.913.913,0,0,0-.913-.913H137.956a.913.913,0,0,0,0,1.825H156.3A.913.913,0,0,0,157.215,320.349Z" transform="translate(-4821.193 -23057.219)" fill="#555"/>
      <path id="Path_14062" data-name="Path 14062" d="M210.687,344.958a.913.913,0,0,0,0,1.825h6.71a.913.913,0,0,0,0-1.825Z" transform="translate(-4883.435 -23078.564)" fill="#555"/>
      <path id="Path_14063" data-name="Path 14063" d="M164.664,344.958a.913.913,0,0,0,0,1.825h2.092a.913.913,0,0,0,0-1.825Z" transform="translate(-4845.785 -23078.564)" fill="#555"/>
      <path id="Path_14064" data-name="Path 14064" d="M85.571,346.783h6.259a.913.913,0,1,0,0-1.825H85.571a.913.913,0,1,0,0,1.825Z" transform="translate(-4779.459 -23078.564)" fill="#555"/>
    </g>
  </g>
</svg>
