<svg xmlns="http://www.w3.org/2000/svg" width="16" height="10.667" viewBox="0 0 16 10.667">
  <g id="noun_Video_3774479" transform="translate(-1 -6)">
    <path id="Path_15343" data-name="Path 15343" d="M16.342,6.3a1.061,1.061,0,0,0-1.209.285l-2.4,3.162V7.6a1.6,1.6,0,0,0-1.6-1.6H2.6A1.6,1.6,0,0,0,1,7.6v7.467a1.6,1.6,0,0,0,1.6,1.6h8.533a1.6,1.6,0,0,0,1.6-1.6V12.918l2.4,3.162a1.067,1.067,0,0,0,1.867-.7V7.287A1.067,1.067,0,0,0,16.342,6.3Zm-4.675,8.765a.533.533,0,0,1-.533.533H2.6a.533.533,0,0,1-.533-.533V7.6A.533.533,0,0,1,2.6,7.067h8.533a.533.533,0,0,1,.533.533Zm4.267.3-3.064-4.037L15.933,7.3Z" transform="translate(0 0)" fill="#f60"/>
    <path id="Path_15344" data-name="Path 15344" d="M11.747,13.606h-1.07v-1.07a.535.535,0,1,0-1.07,0v1.07H8.535a.535.535,0,1,0,0,1.07h1.07v1.07a.535.535,0,0,0,1.07,0v-1.07h1.07a.535.535,0,1,0,0-1.07Z" transform="translate(-3.271 -2.808)" fill="#f60"/>
  </g>
</svg>
