<svg xmlns="http://www.w3.org/2000/svg" id="Group_26949" width="20" height="15.7" viewBox="0 0 20 15.7">
    <defs>
        <style>
            .cls-1{opacity:.2}
        </style>
    </defs>
    <path id="Path_2010" d="M19.914 71.65a17.408 17.408 0 0 0-2.536-3.7 12.764 12.764 0 0 0-3.085-2.57A8.509 8.509 0 0 0 10 64.178a8.509 8.509 0 0 0-4.294 1.2 12.763 12.763 0 0 0-3.085 2.57 17.407 17.407 0 0 0-2.536 3.7.883.883 0 0 0 0 .757 17.4 17.4 0 0 0 2.536 3.7 12.763 12.763 0 0 0 3.085 2.57A8.509 8.509 0 0 0 10 79.878a8.509 8.509 0 0 0 4.294-1.2 12.764 12.764 0 0 0 3.085-2.57 17.409 17.409 0 0 0 2.536-3.7.883.883 0 0 0-.001-.758zM10 78.185c-2.182 0-4.259-1.078-6.172-3.2a16.438 16.438 0 0 1-2.1-2.955c.77-1.394 3.732-6.157 8.27-6.157 2.182 0 4.259 1.078 6.172 3.2a16.437 16.437 0 0 1 2.1 2.955c-.77 1.394-3.732 6.157-8.27 6.157z" class="cls-1" transform="translate(0 -64.178)"/>
    <path id="Path_2011" d="M174.613 171.142a3.473 3.473 0 1 0 3.473 3.473 3.477 3.477 0 0 0-3.473-3.473zm0 5.253a1.78 1.78 0 1 1 1.78-1.78 1.782 1.782 0 0 1-1.78 1.78z" class="cls-1" transform="translate(-164.308 -166.765)"/>
</svg>
