<svg xmlns="http://www.w3.org/2000/svg" xmlns:xlink="http://www.w3.org/1999/xlink" width="15.388" height="15.21" viewBox="0 0 15.388 15.21"><defs><style>.a{fill:url(#a);}.b{fill:#5005ff;}</style><linearGradient id="a" x1="0.233" y1="0.95" x2="0.592" y2="0.258" gradientUnits="objectBoundingBox"><stop offset="0" stop-color="#ff9100"/><stop offset="1" stop-color="#f7f8f9"/></linearGradient></defs><g transform="translate(-991.966 -151.735)"><ellipse class="a" cx="5.64" cy="5.64" rx="5.64" ry="5.64" transform="translate(996.074 151.735)"/><g transform="translate(988.244 150.709)"><g transform="translate(3.722 2)"><path class="b" d="M81.31,11.279a5.123,5.123,0,1,0-5.975,0l-1.659,3.346a.394.394,0,0,0,.462.555l1.174-.336.443,1.138a.388.388,0,0,0,.35.252.377.377,0,0,0,.373-.219L78.323,12.3l1.844,3.719a.4.4,0,0,0,.353.219.355.355,0,0,0,.367-.252l.443-1.138,1.174.336a.394.394,0,0,0,.462-.555Zm-5.142,3.584-.249-.639a.394.394,0,0,0-.476-.235l-.659.188,1.23-2.483a5.051,5.051,0,0,0,1.485.485Zm2.155-3.411a4.33,4.33,0,1,1,4.33-4.33A4.334,4.334,0,0,1,78.323,11.453ZM81.2,13.986a.4.4,0,0,0-.476.235l-.249.639-1.331-2.688a5.051,5.051,0,0,0,1.485-.485l1.23,2.483Z" transform="translate(-73.2 -2)"/><path class="b" d="M155.307,74.68l-1.578-.23-.706-1.429a.4.4,0,0,0-.712,0l-.706,1.429-1.578.23a.4.4,0,0,0-.319.269.393.393,0,0,0,.1.406l1.143,1.113-.269,1.572a.375.375,0,0,0,.157.387.447.447,0,0,0,.418.031l1.412-.743,1.412.743a.424.424,0,0,0,.563-.471l-.261-1.516,1.143-1.113a.4.4,0,0,0-.221-.678Zm-1.625,1.365a.4.4,0,0,0-.115.35l.168.986-.886-.465a.387.387,0,0,0-.367,0l-.886.465.168-.986a.391.391,0,0,0-.115-.35l-.717-.7.992-.143a.4.4,0,0,0,.3-.216l.443-.9.443.9a.389.389,0,0,0,.3.216l.992.143Z" transform="translate(-147.544 -70.816)"/></g></g></g></svg>