<svg xmlns="http://www.w3.org/2000/svg" xmlns:xlink="http://www.w3.org/1999/xlink" width="100" height="100" viewBox="0 0 100 100">
  <defs>
    <clipPath id="clip-path">
      <rect id="Rectangle_7872" data-name="Rectangle 7872" width="101.533" height="101.533" transform="translate(0)" fill="#7e7e7e" stroke="#7e7e7e" stroke-width="0.25"/>
    </clipPath>
    <clipPath id="clip-edit">
      <rect width="100" height="100"/>
    </clipPath>
  </defs>
  <g id="edit" clip-path="url(#clip-edit)">
    <g id="Mask_Group_123" data-name="Mask Group 123" transform="translate(0 -0.767)" clip-path="url(#clip-path)">
      <path id="edit-2" data-name="edit" d="M86.708,3.942a13.49,13.49,0,0,0-19.061,0l-4.771,4.8L12.086,59.5l-.108.109c-.026.026-.026.054-.054.054-.054.081-.135.161-.188.242,0,.027-.028.027-.028.054-.054.081-.08.135-.135.216-.026.027-.026.053-.053.081-.027.081-.054.135-.082.216,0,.026-.026.026-.026.054L.143,94.415A2.653,2.653,0,0,0,.79,97.164a2.712,2.712,0,0,0,1.914.783,3.18,3.18,0,0,0,.863-.135l33.861-11.3c.026,0,.026,0,.054-.026a.977.977,0,0,0,.242-.109.1.1,0,0,0,.055-.026c.08-.054.188-.109.269-.163s.162-.134.243-.188c.027-.028.053-.028.053-.054.028-.027.082-.053.109-.108L94.014,30.28a13.489,13.489,0,0,0,0-19.06ZM36.565,80.18,17.8,61.417,64.764,14.456,83.527,33.218ZM15.159,66.4,31.551,82.8l-24.614,8.2Zm75.054-39.9L87.355,29.39,68.591,10.626l2.886-2.884a8.086,8.086,0,0,1,11.43,0l7.332,7.332a8.113,8.113,0,0,1-.026,11.431Zm0,0" transform="translate(1.788 1.794)" fill="#7e7e7e" stroke="#7e7e7e" stroke-width="0.25"/>
    </g>
  </g>
</svg>
