<svg xmlns="http://www.w3.org/2000/svg" xmlns:xlink="http://www.w3.org/1999/xlink" width="20" height="20" viewBox="0 0 20 20">
  <defs>
    <clipPath id="clip-learning_center">
      <rect width="20" height="20"/>
    </clipPath>
  </defs>
  <g id="learning_center" data-name="learning center" clip-path="url(#clip-learning_center)">
    <g id="Group_29451" data-name="Group 29451" transform="translate(-8078.844 -3350)">
      <path id="Path_13937" data-name="Path 13937" d="M14.833,5.833a.628.628,0,0,1-.252-.052L9.373,3.489a.626.626,0,0,1,0-1.145L14.581.052a.629.629,0,0,1,.5,0l5.208,2.292a.626.626,0,0,1,0,1.145L15.085,5.78A.628.628,0,0,1,14.833,5.833Z" transform="translate(8077.511 3350)" fill="#b8b8b8"/>
      <path id="Path_13938" data-name="Path 13938" d="M15.921,8.01a1.88,1.88,0,0,1-1.507,0L11,6.508v.573a1.462,1.462,0,0,0,.693,1.246A6.651,6.651,0,0,0,15.166,9.42,6.651,6.651,0,0,0,18.64,8.327a1.461,1.461,0,0,0,.693-1.246V6.508Z" transform="translate(8077.178 3348.915)" fill="#b8b8b8"/>
      <path id="Path_13939" data-name="Path 13939" d="M16,9.549a7.176,7.176,0,0,1-2.5.45A8.246,8.246,0,0,1,9.158,8.666,3.144,3.144,0,0,1,7.666,6V5.15l-.3-.133a2.3,2.3,0,0,1,0-4.2L9.225,0H3.5A2.507,2.507,0,0,0,1,2.5V14.582a2.588,2.588,0,0,0,2.5,2.083H6v2.708a.626.626,0,0,0,1.042.467l1.458-1.3,1.458,1.3A.626.626,0,0,0,11,19.374V16.666h4.166A.836.836,0,0,0,16,15.832ZM6,15H3.5a.833.833,0,1,1,0-1.667H6Zm8.333,0H11V13.333h3.333Z" transform="translate(8078.845 3350)" fill="#b8b8b8"/>
    </g>
  </g>
</svg>
