<svg xmlns="http://www.w3.org/2000/svg" width="33.104" height="33.104" viewBox="0 0 33.104 33.104">
    <defs>
        <clipPath id="nmfx9rfjoa">
            <circle cx="16.552" cy="16.552" r="16.552" fill="#fff" stroke="#707070" transform="translate(0 0)"/>
        </clipPath>
    </defs>
    <g clip-path="url(#nmfx9rfjoa)">
        <g>
            <path fill="#4285f4" d="M145.673 109.982a13.5 13.5 0 0 0-.333-3.221h-14.79v5.846h8.682a7.7 7.7 0 0 1-3.221 5.111l-.029.2 4.676 3.623.324.032a15.4 15.4 0 0 0 4.691-11.587" transform="translate(1.113 0.799) translate(-114.797 -93.878)"/>
            <path fill="#34a853" d="M28 169.007a15.015 15.015 0 0 0 10.432-3.816l-4.971-3.851A9.323 9.323 0 0 1 28 162.916a9.483 9.483 0 0 1-8.962-6.546l-.185.016-4.863 3.763-.064.177A15.742 15.742 0 0 0 28 169.007" transform="translate(1.113 0.799) translate(-12.245 -137.501)"/>
            <path fill="#fbbc05" d="M6.791 81.576a9.7 9.7 0 0 1-.525-3.116 10.191 10.191 0 0 1 .508-3.116l-.009-.209-4.924-3.823-.161.077a15.72 15.72 0 0 0 0 14.143l5.111-3.956" transform="translate(1.113 0.799) translate(0 -62.707)"/>
            <path fill="#eb4335" d="M28 6.091a8.731 8.731 0 0 1 6.091 2.346L38.535 4.1A15.135 15.135 0 0 0 28 0a15.742 15.742 0 0 0-14.075 8.682l5.093 3.956A9.522 9.522 0 0 1 28 6.091" transform="translate(1.113 0.799) translate(-12.245)"/>
        </g>
    </g>
</svg>
