<svg xmlns="http://www.w3.org/2000/svg" width="20" height="20" viewBox="0 0 20 20">
    <defs>
        <style>
            .cls-1{fill:#555}
        </style>
    </defs>
    <g id="Group_27012" transform="translate(-369.96 -169)">
        <g id="mail" transform="translate(369.96 169)">
            <path id="Path_14052" d="M19.12 0H.88A.881.881 0 0 0 0 .88v18.24a.881.881 0 0 0 .88.88h18.24a.881.881 0 0 0 .88-.88V.88a.881.881 0 0 0-.88-.88zm.293 19.12a.294.294 0 0 1-.293.293H.88a.294.294 0 0 1-.293-.293V3.986h18.827zm0-15.721H.586V.88A.294.294 0 0 1 .88.586h18.24a.294.294 0 0 1 .293.293z" class="cls-1" transform="translate(0 0)"/>
            <path id="Path_14053" d="M43.431 28.31a.7.7 0 1 0 .7.7.7.7 0 0 0-.7-.7zm0 .965a.262.262 0 1 1 .262-.262.263.263 0 0 1-.262.262z" class="cls-1" transform="translate(-41.476 -27.48)"/>
            <path id="Path_14054" d="M106.959 28.31a.7.7 0 1 0 .7.7.7.7 0 0 0-.7-.7zm0 .965a.262.262 0 1 1 .262-.262.263.263 0 0 1-.262.262z" class="cls-1" transform="translate(-101.995 -27.48)"/>
            <path id="Path_14055" d="M170.488 28.31a.7.7 0 1 0 .7.7.7.7 0 0 0-.7-.7zm0 .965a.262.262 0 1 1 .262-.262.263.263 0 0 1-.262.262z" class="cls-1" transform="translate(-162.977 -27.48)"/>
            <path id="Path_14056" d="M52.668 128.486h15.819c.31 0 .563-.178.563-.4v-1.058c0-.219-.252-.4-.563-.4H52.668c-.31 0-.563.178-.563.4v1.058c-.005.222.252.4.563.4zm.061-1.411h15.7v.971h-15.7z" class="cls-1" transform="translate(-50.577 -121.51)"/>
            <path id="Path_14057" d="M52.668 208.591h15.819c.31 0 .563-.178.563-.4v-1.058c0-.219-.252-.4-.563-.4H56.6c-.172 0-.312.1-.312.22s.14.22.312.22h11.825v.971h-15.7v-.971h2.445c.172 0 .312-.1.312-.22s-.14-.22-.312-.22h-2.5c-.31 0-.563.178-.563.4v1.058c-.007.222.25.4.561.4z" class="cls-1" transform="translate(-50.577 -198.373)"/>
            <path id="Path_14058" d="M52.668 290.337h15.819c.31 0 .563-.178.563-.4v-1.285c0-.121-.14-.22-.312-.22s-.312.1-.312.22v1.248h-15.7v-2.608h15.7v.36c0 .121.14.22.312.22s.312-.1.312-.22v-.4c0-.219-.252-.4-.563-.4H52.668c-.31 0-.563.178-.563.4v2.694c-.005.213.252.391.563.391z" class="cls-1" transform="translate(-50.577 -274.785)"/>
            <path id="Path_14059" d="M350.462 422.771h-2.487a.4.4 0 0 0-.4.4v.73a.4.4 0 0 0 .4.4h2.487a.4.4 0 0 0 .4-.4v-.73a.4.4 0 0 0-.4-.4zm-.043 1.083h-2.4v-.643h2.4z" class="cls-1" transform="translate(-332.386 -405.374)"/>
            <path id="Path_14060" d="M84.878 319.876h.722a.22.22 0 0 0 0-.44h-.725a.22.22 0 0 0 0 .44z" class="cls-1" transform="translate(-81.279 -306.853)"/>
            <path id="Path_14061" d="M141.9 319.656a.22.22 0 0 0-.22-.22h-4.421a.22.22 0 0 0 0 .44h4.421a.22.22 0 0 0 .22-.22z" class="cls-1" transform="translate(-131.043 -306.853)"/>
            <path id="Path_14062" d="M209.994 344.958a.22.22 0 0 0 0 .44h1.617a.22.22 0 0 0 0-.44z" class="cls-1" transform="translate(-201.247 -331.37)"/>
            <path id="Path_14063" d="M163.971 344.958a.22.22 0 0 0 0 .44h.5a.22.22 0 0 0 0-.44z" class="cls-1" transform="translate(-157.241 -331.37)"/>
            <path id="Path_14064" d="M84.878 345.4h1.508a.22.22 0 1 0 0-.44h-1.508a.22.22 0 1 0 0 .44z" class="cls-1" transform="translate(-81.225 -331.37)"/>
        </g>
    </g>
</svg>
