<svg xmlns="http://www.w3.org/2000/svg" id="enter_password-01" width="53.328" height="62.273" viewBox="0 0 53.328 62.273">
    <defs>
        <style>
            .cls-2{fill-rule:evenodd;fill:#f7ae67}
        </style>
    </defs>
    <path id="Path_14600" fill="#ee3923" fill-rule="evenodd" d="M126.7 184.013h-16.524a3.2 3.2 0 0 1-3.561-3.543q-.009-3.991 0-7.982c.007-2.337 1.266-3.6 3.6-3.6q16.56-.006 33.119 0c2.29 0 3.5 1.214 3.511 3.5q.012 4.131 0 8.262a3.073 3.073 0 0 1-3.407 3.366q-8.367.003-16.738-.003zm-11.964-5.28h-.013c0-.233.005-.467 0-.7-.015-.521.152-.708.656-.4.437.269.886.52 1.341.756.324.168.693.283.926-.115s-.043-.659-.36-.853c-.418-.255-.849-.49-1.273-.736-.682-.4-.684-.443-.031-.831.4-.238.811-.462 1.211-.7.352-.212.727-.46.435-.935-.265-.432-.642-.249-.982-.058-.447.252-.891.51-1.339.762-.383.215-.57.087-.577-.34-.009-.56-.006-1.12-.03-1.68-.015-.349-.138-.677-.547-.692-.461-.017-.574.337-.592.712-.022.466 0 .934-.026 1.4-.038.793-.134.845-.8.471-.408-.227-.809-.465-1.218-.691-.315-.174-.645-.233-.861.123-.236.387-.019.665.316.865.461.276.924.547 1.393.808.427.237.507.452.016.714-.432.231-.849.489-1.27.74-.353.211-.743.462-.46.929s.694.222 1.046.032c.452-.244.9-.5 1.341-.758.365-.21.5-.089.508.312.008.63.033 1.259.07 1.888a.521.521 0 0 0 .516.557.534.534 0 0 0 .548-.531c.046-.348.042-.7.059-1.049zm25.189.068h.026v-.35-.42c.028-.647.119-.7.7-.376.449.248.887.516 1.342.752.335.174.7.234.908-.173.193-.377-.071-.617-.363-.8-.476-.293-.964-.568-1.447-.85-.379-.221-.374-.437 0-.657.5-.293 1.012-.58 1.506-.888.3-.188.506-.454.283-.816s-.544-.308-.859-.136c-.491.268-.977.546-1.461.825-.417.24-.606.112-.608-.356 0-.559 0-1.119-.02-1.678-.011-.358-.145-.669-.558-.667s-.53.32-.538.678c-.011.583-.01 1.166-.021 1.748-.008.392-.193.507-.541.314-.51-.282-1.014-.575-1.525-.854-.342-.187-.692-.232-.9.172-.192.371.047.623.345.8.458.278.921.55 1.393.8.513.275.455.506-.015.76-.41.221-.81.462-1.21.7-.345.206-.772.437-.507.911.284.508.72.258 1.1.052.408-.225.815-.453 1.215-.693.486-.292.671-.137.663.4q-.013.873.025 1.747a.514.514 0 0 0 .518.551.523.523 0 0 0 .542-.531c.036-.311.011-.64.011-.966zm-8.4-.018h.014c0-.233-.006-.467 0-.7.022-.708.1-.752.725-.41.45.247.89.512 1.347.745.311.159.651.213.861-.149s-.016-.627-.312-.81c-.435-.271-.888-.515-1.331-.773-.68-.4-.682-.443-.027-.826.443-.259.892-.508 1.329-.777.317-.2.587-.452.341-.854s-.592-.29-.921-.108c-.47.259-.936.525-1.4.79-.421.24-.605.1-.606-.364 0-.49 0-.98-.013-1.47-.012-.409-.049-.867-.589-.861-.511.006-.513.453-.523.833-.01.4 0 .793-.008 1.19-.011.935-.089.983-.879.538-.386-.218-.769-.441-1.156-.656-.334-.186-.688-.273-.914.125s.038.659.36.855c.419.254.849.489 1.268.743.623.377.626.453.023.821-.438.267-.887.517-1.327.781-.307.184-.535.444-.343.8.212.4.577.333.913.154.432-.23.854-.481 1.281-.721.662-.372.755-.324.774.412.013.513.005 1.027.019 1.539.01.358.133.677.548.672s.528-.331.547-.683c.014-.276.002-.557.002-.837zm-8.427-.043h.033v-.63c.02-.736.1-.781.765-.414.428.237.848.49 1.283.714.306.158.65.235.869-.12.246-.4-.017-.664-.335-.858-.5-.3-1.008-.586-1.515-.873-.343-.194-.385-.375-.008-.586q.792-.445 1.568-.919c.3-.184.525-.437.314-.808s-.529-.341-.851-.167q-.707.383-1.4.79c-.452.267-.694.2-.689-.375 0-.536 0-1.073-.024-1.608-.016-.352-.148-.67-.559-.675-.427 0-.526.325-.536.677-.015.536-.018 1.072-.019 1.608s-.187.7-.677.4c-.377-.232-.762-.452-1.152-.662-.364-.2-.787-.515-1.1 0s.137.748.5.967c.42.251.844.5 1.269.74.369.213.407.417.006.643-.467.262-.929.535-1.39.81-.341.2-.659.466-.4.893s.645.257.986.069c.429-.236.856-.476 1.274-.731.465-.283.684-.18.681.38 0 .582.006 1.166.032 1.747a.53.53 0 1 0 1.06.038 10.34 10.34 0 0 0 .017-1.051z" transform="translate(-106.614 -168.881)"/>
    <path id="Path_14601" d="M267.261 412.8a1.652 1.652 0 0 1 1.38.69q4.105 5.234 8.2 10.475a6.293 6.293 0 0 1 1.3 3.852 3.874 3.874 0 0 0 .865 2.449c.816 1.032.734 1.5-.32 2.323q-4.936 3.862-9.879 7.715c-1.1.858-1.488.816-2.38-.26a4.754 4.754 0 0 0-2.027-1.444c-1.637-.618-3.284-1.217-4.9-1.9a22 22 0 0 1-6.431-4.171 6.625 6.625 0 0 1-1.516-1.907 2.911 2.911 0 0 1 .309-3.166c.333-.473.613-.556 1.01-.035 1.188 1.559 2.408 3.095 3.619 4.637a5.253 5.253 0 0 0 .551.633.8.8 0 0 0 1.245-.984 7.057 7.057 0 0 0-.573-.793q-5.545-7.087-11.092-14.171c-.173-.221-.349-.439-.511-.667a1.775 1.775 0 1 1 2.792-2.189c.726.883 1.419 1.794 2.125 2.694l7.555 9.648c.086.11.17.223.262.328a.823.823 0 0 0 1.228.21.8.8 0 0 0 .073-1.238c-1.17-1.515-2.35-3.021-3.527-4.532-.2-.258-.411-.509-.6-.778a1.789 1.789 0 0 1 .287-2.507 1.76 1.76 0 0 1 2.543.381c1.272 1.613 2.512 3.251 3.77 4.874.61.787 1.083.972 1.547.626s.382-.87-.216-1.651c-.98-1.279-1.97-2.549-2.942-3.833a1.815 1.815 0 0 1 .2-2.672 1.787 1.787 0 0 1 2.625.506c.976 1.251 1.935 2.517 2.9 3.775a5.7 5.7 0 0 0 .445.54.777.777 0 0 0 1.128.113.751.751 0 0 0 .176-1.065c-.218-.357-.475-.692-.724-1.03-.664-.9-1.346-1.792-1.994-2.705a1.719 1.719 0 0 1-.093-1.92 1.633 1.633 0 0 1 1.59-.851z" class="cls-2" transform="translate(-226.226 -378.631)"/>
    <path id="Path_14602" d="M132.172 303.713c-.932 0-1.864.015-2.8 0-1.074-.022-1.624-.519-1.642-1.574q-.05-2.83 0-5.662a1.487 1.487 0 0 1 1.689-1.614q2.8-.019 5.592 0a1.48 1.48 0 0 1 1.64 1.591q.036 2.83 0 5.662a1.446 1.446 0 0 1-1.617 1.594c-.951.017-1.907.003-2.862.003z" class="cls-2" transform="translate(-124.754 -277.205)"/>
    <path id="Path_14603" d="M223.056 303.7c-.978 0-1.958.021-2.935-.006a1.387 1.387 0 0 1-1.514-1.536q-.032-2.9 0-5.8a1.39 1.39 0 0 1 1.495-1.5q2.935-.037 5.871 0a1.378 1.378 0 0 1 1.512 1.412q.082 3 .008 6.008a1.374 1.374 0 0 1-1.5 1.414c-.979.031-1.958.008-2.937.008z" class="cls-2" transform="translate(-202.905 -277.201)"/>
    <path id="Path_14604" d="M132.217 394.631c-.955 0-1.911.014-2.866 0a1.428 1.428 0 0 1-1.594-1.477q-.065-2.934 0-5.87a1.422 1.422 0 0 1 1.585-1.489q2.865-.027 5.731 0a1.444 1.444 0 0 1 1.6 1.617q.03 2.8 0 5.591a1.464 1.464 0 0 1-1.657 1.629c-.935.013-1.867-.001-2.799-.001z" class="cls-2" transform="translate(-124.767 -355.393)"/>
    <path id="Path_14605" d="M132.113 485.554c-.91 0-1.821.013-2.731 0a1.48 1.48 0 0 1-1.653-1.584q-.048-2.835 0-5.671a1.458 1.458 0 0 1 1.64-1.588q2.836-.027 5.672 0a1.447 1.447 0 0 1 1.612 1.605q.03 2.8 0 5.6a1.493 1.493 0 0 1-1.67 1.637c-.956.015-1.913.001-2.87.001z" class="cls-2" transform="translate(-124.751 -433.576)"/>
    <path id="Path_14606" d="M318.3 299.3c0 .956.017 1.913-.006 2.868a1.378 1.378 0 0 1-1.524 1.525q-2.9.036-5.807 0a1.356 1.356 0 0 1-1.518-1.522q-.03-2.868 0-5.737a1.424 1.424 0 0 1 1.62-1.583q2.8-.026 5.6 0a1.461 1.461 0 0 1 1.636 1.65c.018.938.005 1.871-.001 2.799z" class="cls-2" transform="translate(-281.025 -277.199)"/>
    <path id="Path_14607" d="M218.6 481.05c0-.909-.013-1.818 0-2.727.02-1.112.519-1.609 1.645-1.622 1.4-.016 2.8 0 4.2-.011a1.2 1.2 0 0 1 1.071.521c.525.713 1.089 1.4 1.629 2.1a1.626 1.626 0 0 1 .07 2.061 4.784 4.784 0 0 0-.947 3.486c.071.49-.146.691-.619.689-1.865 0-3.73.017-5.594-.015a1.378 1.378 0 0 1-1.442-1.474c-.03-1-.007-2-.007-3.007z" class="cls-2" transform="translate(-202.912 -433.572)"/>
    <path id="Path_14608" d="M309.475 390.012c0-.911-.02-1.821.006-2.731a1.36 1.36 0 0 1 1.5-1.48q2.941-.032 5.883 0a1.358 1.358 0 0 1 1.462 1.445c.028.769 0 1.54.011 2.311.005.492-.152.7-.712.643a3.346 3.346 0 0 0-3.622 1.94.648.648 0 0 1-.879.415 3.4 3.4 0 0 0-3.1.656c-.122.092-.229.284-.414.185-.167-.089-.13-.287-.131-.444-.005-.981 0-1.961 0-2.941z" class="cls-2" transform="translate(-281.052 -355.401)"/>
    <path id="Path_14609" d="M218.592 390.24c0-.933-.013-1.867 0-2.8.021-1.112.537-1.644 1.632-1.654q2.834-.025 5.669 0a1.449 1.449 0 0 1 1.606 1.548c.042.674.022 1.353.017 2.029 0 .2.068.476-.163.565-.25.1-.342-.186-.466-.336a3.337 3.337 0 0 0-2.524-1.314 3.263 3.263 0 0 0-3.212 1.711 3.359 3.359 0 0 0 .177 3.706c.16.241.549.454.4.758-.165.339-.588.139-.9.178a3.758 3.758 0 0 1-.559 0c-1.161-.025-1.662-.521-1.686-1.666v-.14q.008-1.29.009-2.585z" class="cls-2" transform="translate(-202.903 -355.392)"/>
</svg>
