<svg xmlns="http://www.w3.org/2000/svg" xmlns:xlink="http://www.w3.org/1999/xlink" width="20" height="20" viewBox="0 0 20 20"><defs><style>.a{fill:#555;}.b{clip-path:url(#a);}</style><clipPath id="a"><rect class="a" width="20" height="20"/></clipPath></defs><g class="b"><path class="a" d="M17.08.775a2.657,2.657,0,0,0-3.755,0l-.94.945-10,10-.021.021c-.005.005-.005.011-.011.011-.011.016-.027.032-.037.048s-.005.005-.005.011-.016.027-.027.043-.005.01-.01.016-.011.027-.016.043-.005.005-.005.011L.028,18.6a.523.523,0,0,0,.127.542.534.534,0,0,0,.377.154.627.627,0,0,0,.17-.027l6.67-2.225c.005,0,.005,0,.011-.005a.192.192,0,0,0,.048-.021.019.019,0,0,0,.011-.005c.016-.011.037-.021.053-.032s.032-.026.048-.037.01-.005.01-.011.016-.01.021-.021L18.519,5.964a2.657,2.657,0,0,0,0-3.754ZM7.2,15.793l-3.7-3.7,9.251-9.251,3.7,3.7ZM2.986,13.079l3.229,3.229L1.366,17.922ZM17.77,5.22l-.563.568-3.7-3.7.568-.568a1.593,1.593,0,0,1,2.251,0l1.444,1.444A1.6,1.6,0,0,1,17.77,5.22Zm0,0" transform="translate(0.352 0.354)"/></g></svg>