<?xml version="1.0" standalone="no"?>
<!DOCTYPE svg PUBLIC "-//W3C//DTD SVG 20010904//EN"
 "http://www.w3.org/TR/2001/REC-SVG-20010904/DTD/svg10.dtd">
<svg version="1.0" xmlns="http://www.w3.org/2000/svg"
 width="16pt" height="12pt" viewBox="0 0 29.000000 23.000000"
 preserveAspectRatio="xMidYMid meet">

<g transform="translate(0.000000,23.000000) scale(0.100000,-0.100000)"
fill="#000000" stroke="none">
<path d="M0 195 c0 -13 22 -15 135 -15 113 0 135 2 135 15 0 13 -22 15 -135
15 -113 0 -135 -2 -135 -15z"/>
<path d="M4 119 c-14 -23 17 -30 137 -27 109 3 124 5 127 21 3 15 -8 17 -127
17 -83 0 -132 -4 -137 -11z"/>
<path d="M0 25 c0 -13 22 -15 135 -15 113 0 135 2 135 15 0 13 -22 15 -135 15
-113 0 -135 -2 -135 -15z"/>
</g>
</svg>
