<svg xmlns="http://www.w3.org/2000/svg" xmlns:xlink="http://www.w3.org/1999/xlink" width="14.607" height="12.581" viewBox="0 0 14.607 12.581"><defs><style>.a{fill:url(#a);}.b{fill:#4d00ff;stroke:#4d00ff;stroke-width:0.5px;}.c{stroke:none;}.d{fill:none;}</style><linearGradient id="a" x1="0.233" y1="0.95" x2="0.592" y2="0.258" gradientUnits="objectBoundingBox"><stop offset="0" stop-color="#ff9100"/><stop offset="1" stop-color="#f7f8f9"/></linearGradient></defs><g transform="translate(-1429.746 -192.735)"><ellipse class="a" cx="5.64" cy="5.64" rx="5.64" ry="5.64" transform="translate(1433.074 192.735)"/><g class="b" transform="translate(1429.746 198.767)"><path class="c" d="M.5,0H2.12a.5.5,0,0,1,.5.5V6.55a0,0,0,0,1,0,0H0a0,0,0,0,1,0,0V.5A.5.5,0,0,1,.5,0Z"/><rect class="d" x="0.25" y="0.25" width="2.12" height="6.05" rx="0.25"/></g><g class="b" transform="translate(1433.676 196.147)"><path class="c" d="M.5,0H2.12a.5.5,0,0,1,.5.5V9.17a0,0,0,0,1,0,0H0a0,0,0,0,1,0,0V.5A.5.5,0,0,1,.5,0Z"/><rect class="d" x="0.25" y="0.25" width="2.12" height="8.67" rx="0.25"/></g><g class="b" transform="translate(1437.606 193.527)"><path class="c" d="M.5,0H2.12a.5.5,0,0,1,.5.5V11.79a0,0,0,0,1,0,0H0a0,0,0,0,1,0,0V.5A.5.5,0,0,1,.5,0Z"/><rect class="d" x="0.25" y="0.25" width="2.12" height="11.29" rx="0.25"/></g></g></svg>