<svg xmlns="http://www.w3.org/2000/svg" width="62.114" height="60.821" viewBox="0 0 62.114 60.821">
    <path fill="#f7ae67" fill-rule="evenodd" d="M138.225 248a18.24 18.24 0 0 0-2.929 5.475 16.2 16.2 0 0 0-.8 6.858 2.061 2.061 0 0 1-.671 1.918c-3.181 3.093-6.313 6.237-9.463 9.363-.2.2-.406.389-.746.713v-5.116c0-.262.223-.336.394-.44a4.273 4.273 0 1 0-6.61-3.933 4.037 4.037 0 0 0 1.7 3.746 1.349 1.349 0 0 1 .58 1.242c-.036 1.93-.014 3.862-.014 5.793 0 1.21 0 1.21 1.309 1.369-.943.957-1.813 1.872-2.721 2.749a1.451 1.451 0 0 0-.479 1.165c.025 2.218 0 4.437.021 6.655 0 .46-.082.627-.592.624-3.523-.025-7.047.013-10.57-.022a5.67 5.67 0 0 1-5.585-5.689q-.012-13.662-.009-27.325a5.745 5.745 0 0 1 4.2-5.258.8.8 0 0 0 .7-.97 18.322 18.322 0 0 1 1.994-9.837 15.337 15.337 0 0 1 14.313-8.435c6.637.345 11.22 3.889 13.917 9.9a18.052 18.052 0 0 1 1.319 8.265c-.02.544-.003 1.041.742 1.19zm-16.563-.349v-.013h.626q5.4.007 10.8.011c.338 0 .721.13.745-.484.134-3.4-.268-6.668-2.272-9.552a11.822 11.822 0 0 0-20.172.47 15.018 15.018 0 0 0-1.96 8.79c.023.61.2.794.8.79 3.814-.025 7.623-.014 11.432-.014z" transform="translate(-101.039 -228.621)"/>
    <path fill="#ee3923" fill-rule="evenodd" d="M219.018 375.185c0-1.332.013-2.663-.007-3.995a1.306 1.306 0 0 1 .408-1.038q8.226-8.169 16.449-16.342c.379-.375.279-.666.184-1.036a13.716 13.716 0 0 1 9.842-16.417 13.479 13.479 0 0 1 16.5 10.963c1.06 5.807-1.35 10.863-6.737 13.918a12.421 12.421 0 0 1-9.563 1.452.762.762 0 0 0-.825.268c-.53.541-1.089 1.054-1.6 1.61a1.8 1.8 0 0 1-1.239.573c-.986.092-1.967.235-2.954.3-.5.035-.674.263-.732.721-.135 1.059-.324 2.111-.448 3.171-.053.453-.253.617-.689.668-1.061.124-2.112.342-3.175.424-.626.049-.8.352-.835.885-.058.937-.165 1.872-.177 2.809-.009.706-.248 1.023-.992 1.058-.987.046-1.968.213-2.952.323-.487.055-.782.216-.824.8-.076 1.063-.278 2.117-.387 3.179-.042.415-.234.519-.605.517q-4.073-.015-8.145-.007c-.447 0-.51-.224-.507-.586.009-1.41 0-2.82 0-4.229zm31.957-35.414a3.377 3.377 0 0 0-3.553 4.243 9.546 9.546 0 0 0 7.46 7.252 3.354 3.354 0 0 0 4-4.075 9.313 9.313 0 0 0-3.756-5.756 7.738 7.738 0 0 0-4.151-1.663zm-29.852 34.207c1.333-1.363 2.535-2.615 3.763-3.842q6.611-6.61 13.232-13.21c.174-.174.555-.367.405-.6a3.57 3.57 0 0 0-1.075-1.109c-.347-.209-.55.287-.768.506-4.843 4.856-9.631 9.767-14.544 14.55-1.111 1.086-1.183 2.17-1.013 3.706z" transform="translate(-200.527 -319.187)"/>
</svg>
