<svg xmlns="http://www.w3.org/2000/svg" width="39.999" height="34.677" viewBox="0 0 39.999 34.677"><defs><style>.a{fill:#fff;}</style></defs><g transform="translate(-8616.603 8308)"><path class="a" d="M52.526,52.981H40.887a.927.927,0,0,1-.927-.927V40.427a.927.927,0,0,1,.927-.927h11.64a.927.927,0,0,1,.927.927V52.054A.927.927,0,0,1,52.526,52.981ZM41.838,51.127H51.6V41.341H41.838Z" transform="translate(8590.146 -8336.901)"/><path class="a" d="M64.655,37.275a.927.927,0,0,1-1.143.618l-2.86-.8a17.3,17.3,0,0,1-24.9,21.969.927.927,0,0,1,.982-1.569A15.445,15.445,0,0,0,58.792,37.547l-1.415,3.287a.927.927,0,1,1-1.693-.748l2.156-4.868a.927.927,0,0,1,1.1-.519l5.072,1.409a.927.927,0,0,1,.643,1.168Z" transform="translate(8591.906 -8335.053)"/><path class="a" d="M47.423,26a.927.927,0,0,1-1.267.334,15.445,15.445,0,0,0-22.1,19.208l1.4-3.163a.931.931,0,1,1,1.7.76L25,48.006a.927.927,0,0,1-1.1.519l-5.1-1.433a.931.931,0,0,1,.482-1.8l3,.84a17.3,17.3,0,0,1,24.805-21.4A.927.927,0,0,1,47.423,26Z" transform="translate(8598.5 -8330.345)"/></g></svg>