<svg xmlns="http://www.w3.org/2000/svg" width="14.529" height="16" viewBox="0 0 14.529 16"><defs><style>.a{fill:#f60;}</style></defs><path class="a" d="M37.416,352.977a.646.646,0,0,0-.646.646v2.206a.825.825,0,0,1-.824.824H25.65a.825.825,0,0,1-.824-.824v-2.206a.646.646,0,1,0-1.293,0v2.206a2.119,2.119,0,0,0,2.117,2.117h10.3a2.119,2.119,0,0,0,2.117-2.117v-2.206A.646.646,0,0,0,37.416,352.977Z" transform="translate(-23.533 -341.946)"/><path class="a" d="M148.179,3.132,145.237.191a.646.646,0,0,0-.914,0l-2.941,2.941a.646.646,0,0,0,.914.914l2.484-2.484,2.484,2.484a.646.646,0,1,0,.914-.914Z" transform="translate(-137.515 -0.002)"/><path class="a" d="M235.964,0a.646.646,0,0,0-.646.646v10.3a.646.646,0,0,0,1.293,0V.646A.646.646,0,0,0,235.964,0Z" transform="translate(-228.7)"/></svg>