<svg xmlns="http://www.w3.org/2000/svg" width="20" height="20" viewBox="0 0 20 20"><defs><style>.a{fill:#555;}</style></defs><g transform="translate(-369.99 -134)"><path class="a" d="M35,24H17a1.019,1.019,0,0,0-1,1.034V42.966A1.019,1.019,0,0,0,17,44H35a1.019,1.019,0,0,0,1-1.034V25.034A1.019,1.019,0,0,0,35,24Zm-18,.69H35a.34.34,0,0,1,.333.345v1.724H16.667V25.034A.34.34,0,0,1,17,24.69ZM35,43.31H17a.34.34,0,0,1-.333-.345V27.448H35.333V42.966A.34.34,0,0,1,35,43.31Z" transform="translate(353.99 110)"/><circle class="a" cx="0.5" cy="0.5" r="0.5" transform="translate(373.917 135)"/><ellipse class="a" cy="0.5" ry="0.5" transform="translate(371.99 135)"/><circle class="a" cx="0.5" cy="0.5" r="0.5" transform="translate(370.99 135)"/><path class="a" d="M158.466,328h-6.207a.259.259,0,0,0-.259.259v1.034a.259.259,0,0,0,.259.259h6.207a.259.259,0,0,0,.259-.259v-1.034A.259.259,0,0,0,158.466,328Zm-5.948.517h.517v.517h-.517Zm5.69.517h-4.655v-.517h4.655Z" transform="translate(224.628 -180.519)"/><path class="a" d="M158.466,392h-6.207a.259.259,0,0,0-.259.259v1.034a.259.259,0,0,0,.259.259h6.207a.259.259,0,0,0,.259-.259v-1.034A.259.259,0,0,0,158.466,392Zm-5.948.517h.517v.517h-.517Zm5.69.517h-4.655v-.517h4.655Z" transform="translate(224.628 -241.104)"/><path class="a" d="M170.844,141.652a2.845,2.845,0,1,0-2.14-.971A2.845,2.845,0,0,0,170.844,141.652Zm-1.653-1.207a1.68,1.68,0,0,1,3.306,0,2.325,2.325,0,0,1-3.306,0Zm1.136-2.414a.517.517,0,1,1,.517.517A.517.517,0,0,1,170.326,138.031Zm.517-1.552a2.327,2.327,0,0,1,2.016,3.49,2.515,2.515,0,0,0-1.238-1.257,1.034,1.034,0,1,0-1.555,0,2.514,2.514,0,0,0-1.238,1.257,2.327,2.327,0,0,1,2.016-3.49Z" transform="translate(209.147 3.602)"/></g></svg>