<svg xmlns="http://www.w3.org/2000/svg" width="41.739" height="43.757" viewBox="0 0 41.739 43.757">
    <defs>
        <style>
            .cls-2{fill:#ee3923}
        </style>
    </defs>
    <g id="Group_22742" transform="translate(0 0)">
        <g id="noun_Hand_897901" transform="translate(0 10.874) rotate(-21)">
            <path id="Path_11225" fill="#f7ae67" d="M29.742 8.6a2.566 2.566 0 0 0-2.434 1.978l-1.978 5.7c-.532.989-1.293.152-1.217-.3s1.6-11.333 1.6-11.333c.228-1.141.076-2.282-1.065-2.51a1.917 1.917 0 0 0-2.208 1.749s-1.6 10.192-2.054 11.181-.913.685-.913-.076c0-.456.761-12.7.761-12.7.077-1.143-.38-2.208-1.521-2.289s-1.673.841-1.749 1.982c0 0-1.141 11.942-1.217 12.779s-.837.913-.989 0-.609-10.649-.609-10.649c0-1.141-.532-2.13-1.674-2.13s-1.675.989-1.675 2.13c0 0-.076 9.964 0 11.79.076 1.978.152 6.922-1.141 7.074-1.217.152-3.118-1.293-4.183-2.89a4.46 4.46 0 0 0-4.183-1.9c-2.434.3-.989 2.206.685 4.031 3.575 3.879 4.488 5.933 6.237 8.519a9.855 9.855 0 0 0 8.671 4.487c6.541-.076 10.192-2.662 11.029-13.919a93.358 93.358 0 0 1 2.36-11.335c.152-.152.076-1.369-.533-1.369z" transform="translate(0 0)"/>
        </g>
        <g id="Group_22741" transform="translate(34.309 3.037)">
            <path id="Path_11232" d="M79.187 22.043a.905.905 0 0 0-.355 1.224A18.443 18.443 0 0 1 80.49 33.1a.925.925 0 0 0 .829.987h.081a.91.91 0 0 0 .908-.869 20.046 20.046 0 0 0-1.9-10.82.942.942 0 0 0-1.221-.355z" class="cls-2" transform="translate(-78.721 -21.459)"/>
            <path id="Path_11233" d="M90.011 21.187a.9.9 0 1 0-1.58.869 18.974 18.974 0 0 1 1.619 10.306.9.9 0 0 0 .829.987h.079a.9.9 0 0 0 .908-.829 21.153 21.153 0 0 0-1.855-11.333z" class="cls-2" transform="translate(-84.53 -20.721)"/>
        </g>
        <g id="Group_22740" transform="translate(1.06 8.432)">
            <path id="Path_11234" d="M14 35.383a.912.912 0 1 0-1.816-.158 20.2 20.2 0 0 0 1.856 10.859.869.869 0 0 0 .79.474.913.913 0 0 0 .79-1.343A18.848 18.848 0 0 1 14 35.383z" class="cls-2" transform="translate(-8.321 -34.393)"/>
            <path id="Path_11235" d="M4.447 35.383a.912.912 0 0 0-1.816-.158 20.43 20.43 0 0 0 1.855 11.333.869.869 0 0 0 .79.474.913.913 0 0 0 .79-1.343c-1.422-2.606-1.975-6.239-1.619-10.306z" class="cls-2" transform="translate(-2.52 -34.392)"/>
        </g>
    </g>
</svg>
