<svg xmlns="http://www.w3.org/2000/svg" width="40" height="40" viewBox="0 0 40 40"><defs><style>.a{fill:#fff;}</style></defs><path class="a" d="M57.548,25.484a.952.952,0,0,0,.952-.952V19.452a.952.952,0,0,0-.952-.952H52.468a.952.952,0,0,0-.952.952V21.04H25.484V19.452a.952.952,0,0,0-.952-.952H19.452a.952.952,0,0,0-.952.952v5.079a.952.952,0,0,0,.952.952H21.04V51.516H19.452a.952.952,0,0,0-.952.952v5.079a.952.952,0,0,0,.952.952h5.079a.952.952,0,0,0,.952-.952V55.96H51.516v1.587a.952.952,0,0,0,.952.952h5.079a.952.952,0,0,0,.952-.952V52.468a.952.952,0,0,0-.952-.952H55.96V25.484ZM20.4,23.579V20.4h3.175v3.175ZM23.579,56.6H20.4V53.421h3.175Zm27.937-4.127v1.587H25.484V52.468a.952.952,0,0,0-.952-.952H22.944V25.484h1.587a.952.952,0,0,0,.952-.952V22.944H51.516v1.587a.952.952,0,0,0,.952.952h1.587V51.516H52.468A.952.952,0,0,0,51.516,52.468Zm5.079.952V56.6H53.421V53.421ZM53.421,23.579V20.4H56.6v3.175Z" transform="translate(-18.5 -18.5)"/></svg>