<svg xmlns="http://www.w3.org/2000/svg" xmlns:xlink="http://www.w3.org/1999/xlink" width="180" height="173.987" viewBox="0 0 180 173.987">
  <defs>
    <linearGradient id="linear-gradient" y1="0.929" x2="0.729" y2="0.124" gradientUnits="objectBoundingBox">
      <stop offset="0" stop-color="#eac2f8"/>
      <stop offset="1" stop-color="#fff"/>
    </linearGradient>
  </defs>
  <g id="Group_28723" data-name="Group 28723" transform="translate(-1016.925 -443.774)">
    <g id="Group_27337" data-name="Group 27337" transform="translate(1016.924 443.774)">
      <path id="Union_46" data-name="Union 46" d="M62.6,152.872a22.932,22.932,0,0,1-4.268-.516,21.83,21.83,0,0,1-6.169-2.346,16.135,16.135,0,0,1-4.7-3.77,18.733,18.733,0,0,1-2.44-3.656c-.249-.516-.562-1.006-.819-1.522-.686-1.374-1.249-2.806-1.845-4.222-.31-.741-.633-1.473-.979-2.195-.459-.953-.952-1.887-1.411-2.836a33.314,33.314,0,0,0-3.674-5.725c-.444-.581-.926-1.143-1.416-1.693-.531-.6-1.032-1.223-1.615-1.773-.84-.786-1.736-1.507-2.6-2.266-.892-.782-1.851-1.465-2.793-2.183a39.673,39.673,0,0,0-3.928-2.586c-2.266-1.336-4.606-2.528-6.972-3.679-.691-.338-1.408-.619-2.093-.96a24.764,24.764,0,0,1-4.575-2.976,27.35,27.35,0,0,1-3.051-2.927,25.955,25.955,0,0,1-2.921-4.032c-.464-.775-.865-1.572-1.275-2.373a26.555,26.555,0,0,1-1.423-3.462,27.519,27.519,0,0,1-1.2-4.631,8.7,8.7,0,0,1-.247-2.187A11.538,11.538,0,0,1,0,85.39c0-.573-.006-1.059,0-1.538a3.144,3.144,0,0,1,.151-1.329.7.7,0,0,0,.035-.285,19.726,19.726,0,0,1,.861-4.893,29,29,0,0,1,1.278-3.6,22.411,22.411,0,0,1,2.281-4.1A20.248,20.248,0,0,1,6.9,66.807,41.289,41.289,0,0,1,11.174,63.1c.534-.4.986-.9,1.522-1.317a35.751,35.751,0,0,0,3.437-3.216,3.874,3.874,0,0,1,.946-.812.851.851,0,0,0,.344-.327A5.232,5.232,0,0,1,18.5,56.2a38.249,38.249,0,0,0,2.668-3.018,30.518,30.518,0,0,0,2.223-3,29.978,29.978,0,0,0,3.249-6.409c.645-1.841,1.225-3.7,1.727-5.588.353-1.325.788-2.635,1.169-3.956A52.389,52.389,0,0,1,31.451,28.9c.359-.885.831-1.727,1.256-2.585.213-.433.428-.866.645-1.291a33.845,33.845,0,0,1,2.831-4.453A20.8,20.8,0,0,1,39.04,17.34,22.739,22.739,0,0,1,43.3,14.094c.313-.167.611-.353.9-.547a17.844,17.844,0,0,1,2.932-1.427,15.756,15.756,0,0,1,3.37-1.067,10.046,10.046,0,0,1,3.02-.456,12.831,12.831,0,0,1,3.344-.194c.45.015.9.027,1.351.023a13.736,13.736,0,0,1,2.186.239c1.035.156,2.083.3,3.1.535.657.152,1.329.159,1.986.308a16.836,16.836,0,0,0,2.276.247,3.45,3.45,0,0,1,.858.1,2.4,2.4,0,0,0,.661.091,5.573,5.573,0,0,1,1.714.164,1.268,1.268,0,0,0,.483.038c.062,0,.125-.008.186-.008q2.022.006,4.046,0A8.116,8.116,0,0,0,77.536,12c.616-.144,1.264-.1,1.9-.216a19.614,19.614,0,0,0,5.12-1.537A37.757,37.757,0,0,0,89.36,7.439,46.668,46.668,0,0,1,96.3,3.513,31.05,31.05,0,0,1,100.8,1.877c1.231-.338,2.473-.634,3.707-.976.527-.144,1.07-.171,1.6-.281.745-.159,1.512-.228,2.259-.4a1.9,1.9,0,0,1,.418-.03c.049,0,.106,0,.159,0a3.69,3.69,0,0,0,1.234-.137A1.5,1.5,0,0,1,110.7,0h.136c.676,0,1.351,0,2.027,0a2.517,2.517,0,0,1,.855.1,1.776,1.776,0,0,0,.565.087,10.108,10.108,0,0,1,2.549.372,15.865,15.865,0,0,1,6.29,2.965,23.624,23.624,0,0,1,3.19,3.178,33.223,33.223,0,0,1,3.161,4.8,43.456,43.456,0,0,1,2.065,4.02c.627,1.371,1.363,2.692,1.944,4.081.35.828.763,1.617,1.156,2.414.661,1.314,1.4,2.586,2.142,3.853.466.8,1,1.564,1.5,2.342a24.83,24.83,0,0,0,3.336,4.081,25.386,25.386,0,0,0,4.091,3.318,21.742,21.742,0,0,0,4.638,2.293c.993.353,2,.653,3.016.938.373.1.756.156,1.125.224a24.755,24.755,0,0,1,6.318,2.225,30.015,30.015,0,0,1,4.463,2.631A29.2,29.2,0,0,1,169,46.933c.384.383.858.676,1.233,1.063a45.712,45.712,0,0,1,3.826,4.423,31.939,31.939,0,0,1,3.249,5.311,28.907,28.907,0,0,1,1.563,3.914,27.162,27.162,0,0,1,.855,3.527,17,17,0,0,1,.261,3.534A18.2,18.2,0,0,1,176,79.791c-.517.653-1.084,1.264-1.652,1.872a23.508,23.508,0,0,1-3,2.54c-.868.657-1.771,1.257-2.644,1.91-.816.611-1.591,1.279-2.422,1.875-.861.615-1.51,1.477-2.414,2.042A42.272,42.272,0,0,0,160.76,93.3c-.4.535-.889,1-1.318,1.526a35.589,35.589,0,0,0-2.631,3.777c-.453.733-.849,1.507-1.244,2.274a43.822,43.822,0,0,0-2.625,6.9c-.889,2.84-1.515,5.748-2.384,8.591-.459,1.5-.923,3-1.461,4.472a14.421,14.421,0,0,1-1.1,2.547c-.311.516-.487,1.113-.76,1.655a46.436,46.436,0,0,1-3.255,5.547q-1.225,1.776-2.566,3.466c-.592.752-1.309,1.4-1.913,2.149a15.266,15.266,0,0,1-1.609,1.777,36.574,36.574,0,0,1-6.076,4.662,24.188,24.188,0,0,1-3.961,1.948,21.15,21.15,0,0,1-4.145,1.15,12.633,12.633,0,0,0-1.416.239,4.2,4.2,0,0,1-1.039.125,3.448,3.448,0,0,0-1.144.129,2.011,2.011,0,0,1-.629.061h-.134c-.67.007-1.345,0-2.022,0a2.569,2.569,0,0,1-1.044-.125.785.785,0,0,0-.375-.057,22.6,22.6,0,0,1-2.865-.209,8.552,8.552,0,0,1-1.417-.224c-2.378-.456-4.761-.877-7.118-1.439-1.643-.4-3.3-.733-4.972-.983a8.928,8.928,0,0,0-2.38-.239,7.684,7.684,0,0,0-2.842-.027c-.732.068-1.45.2-2.174.3a25.868,25.868,0,0,0-5.226,1.561c-.661.239-1.314.5-1.959.79-1.435.638-2.843,1.329-4.288,1.936-1.566.657-3.075,1.435-4.646,2.08q-1.692.684-3.394,1.34a34.243,34.243,0,0,1-3.583,1.063,19.089,19.089,0,0,1-2.713.566,30.592,30.592,0,0,1-3.5.239Z" transform="translate(0 9.416)" fill="url(#linear-gradient)"/>
      <path id="Path_14615" data-name="Path 14615" d="M31.905,261.8a1.286,1.286,0,0,1-.38,1.011,5.517,5.517,0,0,0-.892,2,2.636,2.636,0,0,0-.088.661c-.014.352,0,.7-.006,1.057a5.9,5.9,0,0,0,2.553,4.995,1.811,1.811,0,0,1,.726,2.342,1.636,1.636,0,0,1-1.436,1.1,2.345,2.345,0,0,1-1.726-.437,4.7,4.7,0,0,0-1.651-.739c-.492-.13-.99-.237-1.487-.346a.916.916,0,0,0-.288-.008,6.532,6.532,0,0,0-5.151,2.713,1.96,1.96,0,0,1-2.224.663,1.82,1.82,0,0,1-1.246-1.751A2.115,2.115,0,0,1,19,273.7a5.163,5.163,0,0,0,.97-3.34,9.379,9.379,0,0,0-.083-1.528A6.737,6.737,0,0,0,17.339,265a1.958,1.958,0,0,1-.782-2.01,2.1,2.1,0,0,1,1.744-1.463,1.841,1.841,0,0,1,1.172.34c.418.233.837.469,1.265.684a4.165,4.165,0,0,0,2.028.48,12.712,12.712,0,0,0,1.907-.105,7.065,7.065,0,0,0,2.807-1.384,2.767,2.767,0,0,0,.774-.845,2.087,2.087,0,0,1,.433-.508c1.207-1.031,2.363-.581,3.119.617a.4.4,0,0,1,.062.18C31.883,261.209,31.89,261.433,31.905,261.8Z" transform="translate(-10.35 -130.831)" fill="#c695fd" fill-rule="evenodd"/>
      <path id="Path_14616" data-name="Path 14616" d="M275.97,60.466a1.5,1.5,0,0,1,.329-1.125,5.345,5.345,0,0,0,.982-2.861,4.9,4.9,0,0,0-.5-2.409,7.823,7.823,0,0,0-.741-1.34,3.3,3.3,0,0,0-.856-.887,3.23,3.23,0,0,1-.71-.635,1.7,1.7,0,0,1,1.291-2.787,1.838,1.838,0,0,1,1.075.351c.244.151.5.283.75.424a4.235,4.235,0,0,0,2.3.555,5.812,5.812,0,0,0,2.259-.3,5.278,5.278,0,0,0,2.49-1.856,2.44,2.44,0,0,1,1.237-.857.664.664,0,0,1,.371-.014,3.449,3.449,0,0,1,.549.171,1.6,1.6,0,0,1,.925,2.262c-.173.378-.374.743-.562,1.114a5.653,5.653,0,0,0,1.2,6.569c.288.254.554.532.822.808a1.807,1.807,0,0,1,.251,2.112,1.874,1.874,0,0,1-2.135.635,4.582,4.582,0,0,1-.569-.351,5.553,5.553,0,0,0-4.778-.634,5.051,5.051,0,0,0-2.846,2.011,2.2,2.2,0,0,1-1.261.8.929.929,0,0,1-.474,0,2.3,2.3,0,0,1-1.162-.8A1.218,1.218,0,0,1,275.97,60.466Z" transform="translate(-135.41 -27.448)" fill="#b6e8b5" fill-rule="evenodd"/>
      <path id="Path_14617" data-name="Path 14617" d="M326.34,231.755a1.317,1.317,0,0,1,.283-.948,4.851,4.851,0,0,0,.861-3.544,4.506,4.506,0,0,0-1.292-2.913,17.152,17.152,0,0,1-1.213-1.23,1.544,1.544,0,0,1,.615-2.462,1.444,1.444,0,0,1,1.121,0,4.773,4.773,0,0,1,.842.453,3.67,3.67,0,0,0,1.6.6,3.849,3.849,0,0,0,1.509.165,12.157,12.157,0,0,0,1.743-.5,5.225,5.225,0,0,0,2.212-1.776,1.641,1.641,0,0,1,2.678.174,1.594,1.594,0,0,1,.018,1.56,12.808,12.808,0,0,0-.7,1.358,5.738,5.738,0,0,0,.508,4.79,4.152,4.152,0,0,0,.488.587c.377.391.778.761,1.151,1.157a1.335,1.335,0,0,1,.378,1.488,1.808,1.808,0,0,1-1.4,1.18,1.247,1.247,0,0,1-.988-.289,6.225,6.225,0,0,0-1.906-.873,4.472,4.472,0,0,0-1.031-.181,5.56,5.56,0,0,0-2.6.558,3.072,3.072,0,0,0-1.093.759,13.789,13.789,0,0,1-1.229,1.213,1.551,1.551,0,0,1-2.463-.626A1.94,1.94,0,0,1,326.34,231.755Z" transform="translate(-160.019 -111.101)" fill="#c695fd" fill-rule="evenodd"/>
      <path id="Path_14618" data-name="Path 14618" d="M183.354,331.382a3.889,3.889,0,0,0-1.325-3.239,6,6,0,0,0-.549-.537,1.345,1.345,0,0,1-.409-1.4,1.172,1.172,0,0,1,.918-.869,1.678,1.678,0,0,1,1.288.251,3.914,3.914,0,0,0,3.1.679,4.022,4.022,0,0,0,2.763-1.548,1.773,1.773,0,0,1,.46-.481,1.381,1.381,0,0,1,2.2.956.833.833,0,0,1-.052.466,2.474,2.474,0,0,1-.293.6,4.564,4.564,0,0,0-.555,3.33,3.378,3.378,0,0,0,1.507,2.461,1.55,1.55,0,0,1,.768,1.445,1.231,1.231,0,0,1-1.752,1.146,6.346,6.346,0,0,1-.945-.472,5.126,5.126,0,0,0-1.535-.524,2.912,2.912,0,0,0-1.509.14,4.329,4.329,0,0,0-1.987,1.1c-.267.277-.528.562-.818.812a1.166,1.166,0,0,1-1.649.094,1.379,1.379,0,0,1-.392-1.8,1.056,1.056,0,0,1,.1-.166A3.369,3.369,0,0,0,183.354,331.382Z" transform="translate(-90.279 -162.108)" fill="#b6e8b5" fill-rule="evenodd"/>
      <path id="Path_14619" data-name="Path 14619" d="M154.028,10.657a1.265,1.265,0,0,1-.289.853,3.956,3.956,0,0,0-.668,2.641,3.818,3.818,0,0,0,1.113,2.57c.285.257.552.534.816.812.661.694.721,1.244.214,1.859a1.355,1.355,0,0,1-1.968.2,3.631,3.631,0,0,0-1.122-.521,5.915,5.915,0,0,0-1.3-.268,3.614,3.614,0,0,0-1.306.231,3.991,3.991,0,0,0-1.705,1.033c-.23.265-.49.5-.744.748a1.418,1.418,0,0,1-.932.443,1.312,1.312,0,0,1-1.263-1.856,4.877,4.877,0,0,1,.375-.776,4.471,4.471,0,0,0-.681-5.161,2.757,2.757,0,0,0-.588-.484,1.571,1.571,0,0,1-.569-.737,1.106,1.106,0,0,1,.281-1.3,1.3,1.3,0,0,1,1.49-.336,4.569,4.569,0,0,1,.571.347,4.453,4.453,0,0,0,2.175.659,3.766,3.766,0,0,0,1.939-.423,3.766,3.766,0,0,0,1.763-1.417,1.241,1.241,0,0,1,1.131-.613A1.265,1.265,0,0,1,154.028,10.657Z" transform="translate(-71.946 -9.16)" fill="#c695fd" fill-rule="evenodd"/>
      <path id="Path_14620" data-name="Path 14620" d="M12.533,123.541a1.157,1.157,0,0,1-1.075-1.692,14.7,14.7,0,0,0,.634-1.4,3.63,3.63,0,0,0-.343-2.86,5.879,5.879,0,0,0-1.237-1.454,1.012,1.012,0,0,1-.377-.646,1.069,1.069,0,0,1,.426-1.1,1.1,1.1,0,0,1,1.255-.118c.22.13.457.231.684.348a3.652,3.652,0,0,0,4.412-.663c.262-.235.489-.507.752-.741a.89.89,0,0,1,1.288,0,2.882,2.882,0,0,1,.419.518.786.786,0,0,1,.03.9c-.178.3-.316.628-.472.944a3.69,3.69,0,0,0,.772,4.152,10.457,10.457,0,0,1,.747.746,1.149,1.149,0,0,1-1.242,1.815c-.325-.133-.635-.3-.946-.468a3.7,3.7,0,0,0-4.394.768c-.211.24-.452.453-.676.681A.8.8,0,0,1,12.533,123.541Z" transform="translate(-7.25 -59.586)" fill="#b6e8b5" fill-rule="evenodd"/>
    </g>
    <g id="Group_28722" data-name="Group 28722" transform="translate(1168.789 488.449) rotate(104)">
      <path id="Path_15110" data-name="Path 15110" d="M21.172,0a2.109,2.109,0,0,1,1.5.62L41.723,19.674a2.117,2.117,0,0,1-1.5,3.614H31.793c1,28.612,21.932,40.366,22.149,40.483a2.117,2.117,0,0,1-1.014,3.976c-.417,0-41.047-.516-42.313-44.459h-8.5a2.117,2.117,0,0,1-1.5-3.614L19.675.62A2.109,2.109,0,0,1,21.172,0ZM35.115,19.054,21.172,5.112,7.228,19.054H12.7a2.117,2.117,0,0,1,2.117,2.117c0,30.276,19.215,38.9,30.375,41.364-7.229-6.456-17.673-19.557-17.673-41.364a2.118,2.118,0,0,1,2.117-2.117Z" transform="translate(0 0)" fill="#8026e6"/>
    </g>
    <path id="Exclusion_1" data-name="Exclusion 1" d="M87.47,29.41H0V0H11.578V19.977H75.894V0H87.47V29.409Z" transform="translate(1051.827 534.677)" fill="#93dfff"/>
  </g>
</svg>
