<svg xmlns="http://www.w3.org/2000/svg" xmlns:xlink="http://www.w3.org/1999/xlink" width="88" height="100" viewBox="0 0 88 100">
  <defs>
    <clipPath id="clip-delete">
      <rect width="88" height="100"/>
    </clipPath>
  </defs>
  <g id="delete" clip-path="url(#clip-delete)">
    <g id="delete-2" data-name="delete">
      <path id="Path_13743" data-name="Path 13743" d="M224.935,154.7a2.537,2.537,0,0,0-2.537,2.537v47.946a2.537,2.537,0,0,0,5.074,0V157.24A2.537,2.537,0,0,0,224.935,154.7Zm0,0" transform="translate(-165.978 -116.638)" fill="#7e7e7e" stroke="#7e7e7e" stroke-width="0.25"/>
      <path id="Path_13744" data-name="Path 13744" d="M106.935,154.7a2.537,2.537,0,0,0-2.537,2.537v47.946a2.537,2.537,0,1,0,5.074,0V157.24A2.537,2.537,0,0,0,106.935,154.7Zm0,0" transform="translate(-77.913 -116.638)" fill="#7e7e7e" stroke="#7e7e7e" stroke-width="0.25"/>
      <path id="Path_13745" data-name="Path 13745" d="M7.2,29.769v57.7a12.388,12.388,0,0,0,3.721,8.911A13,13,0,0,0,19.987,100h48a13,13,0,0,0,9.064-3.618,12.388,12.388,0,0,0,3.721-8.911v-57.7a8.993,8.993,0,0,0,7.123-9.8c-.63-4.455-4.742-7.788-9.609-7.789H65.3V9.249a8.855,8.855,0,0,0-2.927-6.565A10.41,10.41,0,0,0,55.249,0H32.723A10.41,10.41,0,0,0,25.6,2.685a8.855,8.855,0,0,0-2.927,6.565v2.927H9.688C4.82,12.178.709,15.51.079,19.965a8.993,8.993,0,0,0,7.123,9.8ZM67.985,95.315h-48a7.685,7.685,0,0,1-7.712-7.845V29.975H75.7V87.469a7.685,7.685,0,0,1-7.712,7.845ZM27.75,9.249A4.337,4.337,0,0,1,29.19,6a5.107,5.107,0,0,1,3.533-1.313H55.249A5.107,5.107,0,0,1,58.782,6a4.336,4.336,0,0,1,1.44,3.254v2.927H27.75ZM9.688,16.861h68.6a4.4,4.4,0,0,1,4.566,4.215,4.4,4.4,0,0,1-4.566,4.215H9.688a4.4,4.4,0,0,1-4.566-4.215A4.4,4.4,0,0,1,9.688,16.861Zm0,0" transform="translate(0.003 0.002)" fill="#7e7e7e" stroke="#7e7e7e" stroke-width="0.25"/>
      <path id="Path_13746" data-name="Path 13746" d="M165.935,154.7a2.537,2.537,0,0,0-2.537,2.537v47.946a2.537,2.537,0,1,0,5.074,0V157.24A2.537,2.537,0,0,0,165.935,154.7Zm0,0" transform="translate(-121.946 -116.638)" fill="#7e7e7e" stroke="#7e7e7e" stroke-width="0.25"/>
    </g>
  </g>
</svg>
