<svg xmlns="http://www.w3.org/2000/svg" width="20" height="20" viewBox="0 0 20 20"><defs><style>.a{fill:#fff;}</style></defs><path class="a" d="M3.75,5H1.25A1.252,1.252,0,0,1,0,3.75V1.25A1.252,1.252,0,0,1,1.25,0h2.5A1.252,1.252,0,0,1,5,1.25v2.5A1.252,1.252,0,0,1,3.75,5ZM1.25.833a.417.417,0,0,0-.417.417v2.5a.417.417,0,0,0,.417.417h2.5a.417.417,0,0,0,.417-.417V1.25A.417.417,0,0,0,3.75.833Z"/><path class="a" d="M20.083,5H9.25A1.252,1.252,0,0,1,8,3.75V1.25A1.252,1.252,0,0,1,9.25,0H20.083a1.252,1.252,0,0,1,1.25,1.25v2.5A1.252,1.252,0,0,1,20.083,5ZM9.25.833a.417.417,0,0,0-.417.417v2.5a.417.417,0,0,0,.417.417H20.083A.417.417,0,0,0,20.5,3.75V1.25a.417.417,0,0,0-.417-.417Z" transform="translate(-1.333)"/><path class="a" d="M3.75,14H1.25A1.252,1.252,0,0,1,0,12.75v-2.5A1.252,1.252,0,0,1,1.25,9h2.5A1.252,1.252,0,0,1,5,10.25v2.5A1.252,1.252,0,0,1,3.75,14ZM1.25,9.833a.417.417,0,0,0-.417.417v2.5a.417.417,0,0,0,.417.417h2.5a.417.417,0,0,0,.417-.417v-2.5a.417.417,0,0,0-.417-.417Z" transform="translate(0 -1.5)"/><path class="a" d="M20.083,14H9.25A1.252,1.252,0,0,1,8,12.75v-2.5A1.252,1.252,0,0,1,9.25,9H20.083a1.252,1.252,0,0,1,1.25,1.25v2.5A1.252,1.252,0,0,1,20.083,14ZM9.25,9.833a.417.417,0,0,0-.417.417v2.5a.417.417,0,0,0,.417.417H20.083a.417.417,0,0,0,.417-.417v-2.5a.417.417,0,0,0-.417-.417Z" transform="translate(-1.333 -1.5)"/><path class="a" d="M3.75,23H1.25A1.252,1.252,0,0,1,0,21.75v-2.5A1.252,1.252,0,0,1,1.25,18h2.5A1.252,1.252,0,0,1,5,19.25v2.5A1.252,1.252,0,0,1,3.75,23Zm-2.5-4.167a.417.417,0,0,0-.417.417v2.5a.417.417,0,0,0,.417.417h2.5a.417.417,0,0,0,.417-.417v-2.5a.417.417,0,0,0-.417-.417Z" transform="translate(0 -3)"/><path class="a" d="M20.083,23H9.25A1.252,1.252,0,0,1,8,21.75v-2.5A1.252,1.252,0,0,1,9.25,18H20.083a1.252,1.252,0,0,1,1.25,1.25v2.5A1.252,1.252,0,0,1,20.083,23ZM9.25,18.833a.417.417,0,0,0-.417.417v2.5a.417.417,0,0,0,.417.417H20.083a.417.417,0,0,0,.417-.417v-2.5a.417.417,0,0,0-.417-.417Z" transform="translate(-1.333 -3)"/></svg>