<svg xmlns="http://www.w3.org/2000/svg" width="29.611" height="60" viewBox="0 0 29.611 60"><defs><style>.a{fill:rgba(85,85,85,0.5);}</style></defs><g transform="translate(0 0)"><path class="a" d="M14.8,60a1.56,1.56,0,0,1-1.558-1.558V44.416a1.558,1.558,0,0,1,3.117,0V58.442A1.56,1.56,0,0,1,14.8,60Zm6.234-4.675a1.561,1.561,0,0,1-1.559-1.559V44.416a1.559,1.559,0,0,1,3.118,0v9.351A1.561,1.561,0,0,1,21.039,55.325Zm-12.468-3.9a1.561,1.561,0,0,1-1.559-1.559V44.416a1.559,1.559,0,0,1,3.118,0v5.455A1.561,1.561,0,0,1,8.572,51.429ZM26.5,40.52H3.113A3.116,3.116,0,0,1,0,37.408V3.112A3.117,3.117,0,0,1,3.116,0H19.564a4.318,4.318,0,0,1,2.655,1.1l6.29,6.29a4.322,4.322,0,0,1,1.1,2.657V37.405A3.117,3.117,0,0,1,26.5,40.52ZM13.174,21.691v7.062a1.558,1.558,0,1,0,3.117,0v-7.08l2.051,2.078a1.547,1.547,0,0,0,2.2,0,1.584,1.584,0,0,0,0-2.224l-4.714-4.766a1.548,1.548,0,0,0-2.209.006L8.986,21.532A1.585,1.585,0,0,0,9,23.757a1.547,1.547,0,0,0,2.2-.01l1.972-2.054ZM19.48,3.117A.78.78,0,0,0,18.7,3.9V7.013a3.9,3.9,0,0,0,3.9,3.9h3.109a.779.779,0,1,0,0-1.558H22.605A2.344,2.344,0,0,1,20.26,7.013V3.9A.78.78,0,0,0,19.48,3.117Z" transform="translate(0 0)"/></g></svg>