<svg xmlns="http://www.w3.org/2000/svg" id="Component_50_3" width="36" height="36" viewBox="0 0 36 36">
    <defs>
        <style>
            .cls-2{fill:#555}
        </style>
    </defs>
    <g id="question" transform="translate(8 8)">
        <path id="Path_13763" d="M236.346 363.507a.839.839 0 1 1-.839-.839.839.839 0 0 1 .839.839zm0 0" class="cls-2" transform="translate(-225.507 -348.51)"/>
        <path id="Path_13764" d="M10 20a10 10 0 1 1 10-10 10.011 10.011 0 0 1-10 10zm0-18.75A8.75 8.75 0 1 0 18.75 10 8.76 8.76 0 0 0 10 1.25zm0 0" class="cls-2"/>
        <path id="Path_13765" d="M168.9 94.353a.63.63 0 0 1-.629-.629v-.848a1.892 1.892 0 0 1 1.26-1.781 2.6 2.6 0 0 0 1.677-2.2 2.308 2.308 0 1 0-4.615 0 .629.629 0 1 1-1.259 0 3.566 3.566 0 1 1 7.133 0 3.861 3.861 0 0 1-2.517 3.384.63.63 0 0 0-.42.594v.847a.63.63 0 0 1-.63.633zm0 0" class="cls-2" transform="translate(-158.898 -82.017)"/>
    </g>
</svg>
