<svg xmlns="http://www.w3.org/2000/svg" id="Component_50_4" width="36" height="36" viewBox="0 0 36 36">
    <defs>
        <style>
            .cls-2{fill:#555}
        </style>
    </defs>
    <g id="Group_26996" transform="translate(5.438 -1.094)">
        <path id="Path_14553" d="M17.214 38.946a7.221 7.221 0 0 1-11.891-5.523v-.656h1.206a.526.526 0 0 0 .465-.275.567.567 0 0 0-.021-.55l-1.756-2.729a.554.554 0 0 0-.91 0l-1.713 2.708a.567.567 0 0 0-.021.55.526.526 0 0 0 .465.275h1.206v.677a8.286 8.286 0 0 0 13.647 6.327.538.538 0 0 0 .063-.762.528.528 0 0 0-.74-.042zM4.032 31.689l.762-1.189.762 1.185z" class="cls-2" transform="translate(0 -14.33)"/>
        <path id="Path_14554" d="M39.4 20.046a.526.526 0 0 0-.465-.275h-1.204v-.677a8.286 8.286 0 0 0-13.647-6.326.54.54 0 0 0 .7.825 7.221 7.221 0 0 1 11.891 5.522v.656h-1.207a.526.526 0 0 0-.465.275.567.567 0 0 0 .021.55l1.756 2.729a.575.575 0 0 0 .444.254.5.5 0 0 0 .444-.254l1.756-2.725a.71.71 0 0 0-.024-.554zm-2.222 1.989l-.758-1.185h1.523z" class="cls-2" transform="translate(-16.857 0)"/>
        <path id="Path_14555" d="M38.117 33.759a4.359 4.359 0 1 0-4.359 4.359 4.352 4.352 0 0 0 4.359-4.359zm-7.638 0a3.28 3.28 0 1 1 3.279 3.28 3.282 3.282 0 0 1-3.279-3.28z" class="cls-2" transform="translate(-21.199 -14.665)"/>
        <path id="Path_14556" d="M44.542 44.37a.539.539 0 0 0-.762-.762l-1.333 1.333-.677-.677a.539.539 0 1 0-.762.762l1.058 1.058a.51.51 0 0 0 .381.148.608.608 0 0 0 .381-.148z" class="cls-2" transform="translate(-30.227 -25.742)"/>
    </g>
</svg>
