<svg xmlns="http://www.w3.org/2000/svg" xmlns:xlink="http://www.w3.org/1999/xlink" width="83" height="83" viewBox="0 0 83 83">
  <defs>
    <clipPath id="clip-login_page">
      <rect width="83" height="83"/>
    </clipPath>
  </defs>
  <g id="login_page" data-name="login page" clip-path="url(#clip-login_page)">
    <g id="Group_28738" data-name="Group 28738" transform="translate(4709 22886)">
      <path id="Path_14048" data-name="Path 14048" d="M94.85,24H20.15A4.228,4.228,0,0,0,16,28.293v74.414A4.228,4.228,0,0,0,20.15,107h74.7A4.228,4.228,0,0,0,99,102.707V28.293A4.228,4.228,0,0,0,94.85,24Zm-74.7,2.862h74.7a1.409,1.409,0,0,1,1.383,1.431v7.155H18.767V28.293A1.409,1.409,0,0,1,20.15,26.862Zm74.7,77.276H20.15a1.409,1.409,0,0,1-1.383-1.431V38.31H96.233v64.4A1.409,1.409,0,0,1,94.85,104.138Z" transform="translate(-4725 -22910)" fill="#555"/>
      <circle id="Ellipse_2083" data-name="Ellipse 2083" cx="2.075" cy="2.075" r="2.075" transform="translate(-4692.706 -22881.85)" fill="#555"/>
      <ellipse id="Ellipse_2084" data-name="Ellipse 2084" cy="2" ry="2" transform="translate(-4701 -22882)" fill="#555"/>
      <circle id="Ellipse_2085" data-name="Ellipse 2085" cx="2" cy="2" r="2" transform="translate(-4705 -22882)" fill="#555"/>
      <path id="Path_14049" data-name="Path 14049" d="M178.832,328H153.073A1.073,1.073,0,0,0,152,329.073v4.293a1.073,1.073,0,0,0,1.073,1.073h25.759a1.073,1.073,0,0,0,1.073-1.073v-4.293A1.073,1.073,0,0,0,178.832,328Zm-24.685,2.146h2.147v2.147h-2.147Zm23.612,2.147H158.44v-2.147h19.319Z" transform="translate(-4833.454 -23158.057)" fill="#555"/>
      <path id="Path_14050" data-name="Path 14050" d="M178.832,392H153.073A1.073,1.073,0,0,0,152,393.073v4.293a1.073,1.073,0,0,0,1.073,1.073h25.759a1.074,1.074,0,0,0,1.073-1.073v-4.293A1.073,1.073,0,0,0,178.832,392Zm-24.685,2.147h2.147v2.146h-2.147Zm23.612,2.146H158.44v-2.146h19.319Z" transform="translate(-4833.454 -23207.879)" fill="#555"/>
      <path id="Path_14051" data-name="Path 14051" d="M179.805,159.578a11.808,11.808,0,1,0-8.881-4.029A11.809,11.809,0,0,0,179.805,159.578Zm-6.859-5.008c1.2-3.448,3.9-5.724,6.859-5.724s5.655,2.277,6.859,5.724a9.651,9.651,0,0,1-13.718,0Zm4.712-10.018a2.147,2.147,0,1,1,2.147,2.146A2.147,2.147,0,0,1,177.659,144.552Zm2.147-6.44a9.656,9.656,0,0,1,8.366,14.483,10.435,10.435,0,0,0-5.14-5.216,4.293,4.293,0,1,0-6.453,0,10.434,10.434,0,0,0-5.14,5.216,9.656,9.656,0,0,1,8.366-14.483Z" transform="translate(-4847.303 -22998.877)" fill="#555"/>
    </g>
  </g>
</svg>
