<svg xmlns="http://www.w3.org/2000/svg" xmlns:xlink="http://www.w3.org/1999/xlink" width="83" height="83" viewBox="0 0 83 83">
  <defs>
    <clipPath id="clip-branding_page">
      <rect width="83" height="83"/>
    </clipPath>
  </defs>
  <g id="branding_page" data-name="branding page" clip-path="url(#clip-branding_page)">
    <g id="Group_28739" data-name="Group 28739" transform="translate(4709.04 22838.002)">
      <path id="Path_14075" data-name="Path 14075" d="M77.467,64H59.483v2.873H77.467a2.822,2.822,0,0,1,2.767,2.873v43.1H2.767v-43.1a2.822,2.822,0,0,1,2.767-2.873H23.517V64H5.533A5.643,5.643,0,0,0,0,69.742v48.843a5.643,5.643,0,0,0,5.533,5.746h27.19L29.4,135.823H26.283V138.7H56.717v-2.873H53.6l-3.32-11.492h27.19A5.643,5.643,0,0,0,83,118.585V69.742A5.643,5.643,0,0,0,77.467,64Zm-26.76,71.827H32.293l3.32-11.492H47.387Zm29.526-17.239a2.822,2.822,0,0,1-2.767,2.873H5.533a2.822,2.822,0,0,1-2.767-2.873v-2.873H80.233Zm0,0" transform="translate(-4709.04 -22893.697)" fill="#555"/>
      <path id="Path_14076" data-name="Path 14076" d="M30.617,166.538l.359,2.043a7,7,0,0,0,0-13.8l-.359,2.043a4.93,4.93,0,0,1,0,9.709Zm0,0" transform="translate(-4735.688 -22964.113)" fill="#555"/>
      <path id="Path_14077" data-name="Path 14077" d="M45.487,108.446a1.038,1.038,0,0,0-1.037-1.037H41.944a11.313,11.313,0,0,0-1.018-2.449l1.773-1.774a1.037,1.037,0,0,0,0-1.467l-2.934-2.934a1.037,1.037,0,0,0-1.467,0l-1.775,1.777a11.28,11.28,0,0,0-2.448-1.022V97.034A1.038,1.038,0,0,0,33.037,96H32v4.358a1.038,1.038,0,0,0,.83,1.017,9.225,9.225,0,0,1,3.277,1.361,1.038,1.038,0,0,0,1.307-.131l1.618-1.618,1.467,1.467-1.618,1.617a1.039,1.039,0,0,0-.132,1.308,9.182,9.182,0,0,1,1.362,3.279,1.038,1.038,0,0,0,1.018.83h2.284v2.075H41.13a1.038,1.038,0,0,0-1.018.83,9.194,9.194,0,0,1-1.361,3.277,1.038,1.038,0,0,0,.132,1.307l1.618,1.618-1.467,1.467-1.617-1.618a1.038,1.038,0,0,0-1.308-.131,9.227,9.227,0,0,1-3.279,1.362,1.038,1.038,0,0,0-.83,1.017v4.359h1.038a1.038,1.038,0,0,0,1.038-1.037V121.5a11.3,11.3,0,0,0,2.448-1.018l1.775,1.773a1.038,1.038,0,0,0,1.467,0l2.934-2.934a1.037,1.037,0,0,0,0-1.467l-1.777-1.774a11.325,11.325,0,0,0,1.022-2.449H44.45a1.038,1.038,0,0,0,1.038-1.037Zm0,0" transform="translate(-4736.89 -22913.768)" fill="#555"/>
      <path id="Path_14078" data-name="Path 14078" d="M345.038,113.633h2.505a11.312,11.312,0,0,0,1.018,2.449l-1.773,1.774a1.037,1.037,0,0,0,0,1.467l2.934,2.934a1.038,1.038,0,0,0,1.467,0l1.775-1.777a11.306,11.306,0,0,0,2.448,1.018v2.51a1.037,1.037,0,0,0,1.037,1.037h1.038v-4.358a1.038,1.038,0,0,0-.83-1.017,9.226,9.226,0,0,1-3.277-1.361,1.037,1.037,0,0,0-1.307.131l-1.617,1.618-1.467-1.467,1.617-1.617a1.038,1.038,0,0,0,.132-1.308,9.188,9.188,0,0,1-1.362-3.279,1.038,1.038,0,0,0-1.019-.83h-2.283v-2.075h2.283a1.038,1.038,0,0,0,1.018-.83,9.19,9.19,0,0,1,1.361-3.277,1.038,1.038,0,0,0-.132-1.308l-1.617-1.617,1.467-1.467,1.617,1.618a1.038,1.038,0,0,0,1.307.131,9.227,9.227,0,0,1,3.279-1.362,1.038,1.038,0,0,0,.83-1.017V96H356.45a1.037,1.037,0,0,0-1.037,1.038v2.506a11.274,11.274,0,0,0-2.448,1.018l-1.775-1.773a1.037,1.037,0,0,0-1.467,0l-2.934,2.934a1.037,1.037,0,0,0,0,1.467l1.773,1.774a11.319,11.319,0,0,0-1.018,2.449h-2.505A1.037,1.037,0,0,0,344,108.446v4.15A1.037,1.037,0,0,0,345.038,113.633Zm0,0" transform="translate(-4987.677 -22913.768)" fill="#555"/>
      <path id="Path_14079" data-name="Path 14079" d="M408.07,156.856l-.359-2.043a7,7,0,0,0,0,13.8l.359-2.043a4.93,4.93,0,0,1,0-9.709Zm0,0" transform="translate(-5038.081 -22964.137)" fill="#555"/>
      <path id="Path_14080" data-name="Path 14080" d="M352,96h2.075v2.075H352Zm0,0" transform="translate(-4999.649 -22917.252)" fill="#555"/>
      <path id="Path_14081" data-name="Path 14081" d="M120,304h2.075v2.075H120Zm0,0" transform="translate(-4808.112 -23088.973)" fill="#555"/>
      <path id="Path_14082" data-name="Path 14082" d="M161.038,41.5h18.675a1.038,1.038,0,0,0,1.037-1.038V6.224a1.037,1.037,0,0,0-.534-.907L170.878.129a1.036,1.036,0,0,0-1.006,0l-9.337,5.188a1.037,1.037,0,0,0-.535.907V40.461A1.038,1.038,0,0,0,161.038,41.5Zm1.037-34.665,8.3-4.61,8.3,4.61v32.59h-16.6Zm0,0" transform="translate(-4837.915 -22837.998)" fill="#555"/>
      <path id="Path_14083" data-name="Path 14083" d="M228.15,42.071A2.075,2.075,0,1,1,226.075,40,2.075,2.075,0,0,1,228.15,42.071Zm0,0" transform="translate(-4893.615 -22872.811)" fill="#555"/>
      <path id="Path_14084" data-name="Path 14084" d="M203.947,91.259l-5.188-3.112a1.038,1.038,0,0,0-1.069,0L192.5,91.259a1.037,1.037,0,0,0-.5.889v5.188a1.037,1.037,0,0,0,.5.889l5.188,3.112a1.038,1.038,0,0,0,1.069,0l5.188-3.112a1.037,1.037,0,0,0,.5-.889V92.148A1.037,1.037,0,0,0,203.947,91.259Zm-1.572,5.489-4.15,2.49-4.15-2.49V92.735l4.15-2.49,4.15,2.49Zm0,0" transform="translate(-4865.765 -22909.73)" fill="#555"/>
      <path id="Path_14085" data-name="Path 14085" d="M192,272h8.3v2.075H192Zm0,0" transform="translate(-4866.563 -23062.557)" fill="#555"/>
      <path id="Path_14086" data-name="Path 14086" d="M272,272h2.075v2.075H272Zm0,0" transform="translate(-4933.601 -23062.557)" fill="#555"/>
      <path id="Path_14087" data-name="Path 14087" d="M192,240h12.45v2.075H192Zm0,0" transform="translate(-4865.765 -23036.133)" fill="#555"/>
      <path id="Path_14088" data-name="Path 14088" d="M192,208h12.45v2.075H192Zm0,0" transform="translate(-4865.765 -23009.719)" fill="#555"/>
    </g>
  </g>
</svg>
