<svg xmlns="http://www.w3.org/2000/svg" width="20" height="20" viewBox="0 0 20 20">
    <defs>
        <style>
            .cls-1{fill:red}
        </style>
    </defs>
    <g id="Group_75" transform="translate(-16.2 -16.2)">
        <path id="Path_1615" d="M26.2 16.2a10 10 0 1 0 10 10 10.007 10.007 0 0 0-10-10zm0 18.58a8.58 8.58 0 1 1 8.58-8.58 8.586 8.586 0 0 1-8.58 8.58z" class="cls-1"/>
        <path id="Path_1616" d="M48.261 61.853a.993.993 0 0 1-.712-.285 1.044 1.044 0 0 1-.249-.676.972.972 0 0 1 .285-.676.99.99 0 0 1 1.352 0 .972.972 0 0 1 .285.676.911.911 0 0 1-.285.676.841.841 0 0 1-.676.285z" class="cls-1" transform="translate(-22.061 -31.031)"/>
        <path id="Path_1617" d="M48.261 41.673a.957.957 0 0 1-.961-.961v-5.051a.961.961 0 0 1 1.921 0v5.052a.957.957 0 0 1-.96.96z" class="cls-1" transform="translate(-22.061 -13.479)"/>
    </g>
</svg>
