<svg xmlns="http://www.w3.org/2000/svg" width="14.04" height="18.469" viewBox="0 0 14.04 18.469"><defs><style>.a{fill:#747474;}</style></defs><path class="a" d="M27.724,26.148a.818.818,0,0,1-.588-.261L21.52,20.075,15.9,25.92a.818.818,0,0,1-1.143.033A.974.974,0,0,1,14.5,25.4V8.516a.808.808,0,0,1,.816-.816H27.724a.808.808,0,0,1,.816.816V25.332a.852.852,0,0,1-.816.816Zm-6.2-8.065a.818.818,0,0,1,.588.261l4.8,5V9.333H16.133V23.34l4.8-5A.878.878,0,0,1,21.52,18.083Z" transform="translate(-14.5 -7.7)"/></svg>