<svg id="calendar_1_" data-name="calendar (1)" xmlns="http://www.w3.org/2000/svg" width="20" height="20" viewBox="0 0 20 20">
  <g id="Group_26297" data-name="Group 26297">
    <g id="Group_26296" data-name="Group 26296">
      <path id="Path_13950" data-name="Path 13950" d="M17.857,2.143H15.714V.714a.714.714,0,0,0-1.429,0V2.143H5.714V.714a.714.714,0,1,0-1.429,0V2.143H2.143A2.143,2.143,0,0,0,0,4.286V17.857A2.143,2.143,0,0,0,2.143,20H17.857A2.143,2.143,0,0,0,20,17.857V4.286A2.143,2.143,0,0,0,17.857,2.143Zm.714,15.714a.714.714,0,0,1-.714.714H2.143a.714.714,0,0,1-.714-.714V8.571H18.571Zm0-10.714H1.429V4.286a.714.714,0,0,1,.714-.714H4.286V5A.714.714,0,0,0,5.714,5V3.571h8.571V5a.714.714,0,1,0,1.429,0V3.571h2.143a.714.714,0,0,1,.714.714V7.143Z" fill="#919295"/>
    </g>
  </g>
  <g id="Group_26299" data-name="Group 26299" transform="translate(3.581 10.013)">
    <g id="Group_26298" data-name="Group 26298">
      <path id="Path_13951" data-name="Path 13951" d="M87.441,238.933H86.036a.7.7,0,1,0,0,1.405h1.405a.7.7,0,1,0,0-1.405Z" transform="translate(-85.333 -238.933)" fill="#919295"/>
    </g>
  </g>
  <g id="Group_26301" data-name="Group 26301" transform="translate(8.595 10.013)">
    <g id="Group_26300" data-name="Group 26300">
      <path id="Path_13952" data-name="Path 13952" d="M206.908,238.933H205.5a.7.7,0,0,0,0,1.405h1.405a.7.7,0,0,0,0-1.405Z" transform="translate(-204.8 -238.933)" fill="#919295"/>
    </g>
  </g>
  <g id="Group_26303" data-name="Group 26303" transform="translate(13.608 10.013)">
    <g id="Group_26302" data-name="Group 26302">
      <path id="Path_13953" data-name="Path 13953" d="M326.375,238.933H324.97a.7.7,0,1,0,0,1.405h1.405a.7.7,0,0,0,0-1.405Z" transform="translate(-324.267 -238.933)" fill="#919295"/>
    </g>
  </g>
  <g id="Group_26305" data-name="Group 26305" transform="translate(3.581 12.873)">
    <g id="Group_26304" data-name="Group 26304">
      <path id="Path_13954" data-name="Path 13954" d="M87.441,307.2H86.036a.7.7,0,1,0,0,1.405h1.405a.7.7,0,1,0,0-1.405Z" transform="translate(-85.333 -307.2)" fill="#919295"/>
    </g>
  </g>
  <g id="Group_26307" data-name="Group 26307" transform="translate(8.595 12.873)">
    <g id="Group_26306" data-name="Group 26306">
      <path id="Path_13955" data-name="Path 13955" d="M206.908,307.2H205.5a.7.7,0,0,0,0,1.405h1.405a.7.7,0,0,0,0-1.405Z" transform="translate(-204.8 -307.2)" fill="#919295"/>
    </g>
  </g>
  <g id="Group_26309" data-name="Group 26309" transform="translate(13.608 12.873)">
    <g id="Group_26308" data-name="Group 26308">
      <path id="Path_13956" data-name="Path 13956" d="M326.375,307.2H324.97a.7.7,0,1,0,0,1.405h1.405a.7.7,0,0,0,0-1.405Z" transform="translate(-324.267 -307.2)" fill="#919295"/>
    </g>
  </g>
  <g id="Group_26311" data-name="Group 26311" transform="translate(3.581 15.784)">
    <g id="Group_26310" data-name="Group 26310">
      <path id="Path_13957" data-name="Path 13957" d="M87.441,375.467H86.036a.7.7,0,1,0,0,1.405h1.405a.7.7,0,1,0,0-1.405Z" transform="translate(-85.333 -375.467)" fill="#919295"/>
    </g>
  </g>
  <g id="Group_26313" data-name="Group 26313" transform="translate(8.595 15.784)">
    <g id="Group_26312" data-name="Group 26312">
      <path id="Path_13958" data-name="Path 13958" d="M206.908,375.467H205.5a.7.7,0,0,0,0,1.405h1.405a.7.7,0,0,0,0-1.405Z" transform="translate(-204.8 -375.467)" fill="#919295"/>
    </g>
  </g>
  <g id="Group_26315" data-name="Group 26315" transform="translate(13.608 15.784)">
    <g id="Group_26314" data-name="Group 26314">
      <path id="Path_13959" data-name="Path 13959" d="M326.375,375.467H324.97a.7.7,0,0,0,0,1.405h1.405a.7.7,0,0,0,0-1.405Z" transform="translate(-324.267 -375.467)" fill="#919295"/>
    </g>
  </g>
</svg>
