<svg xmlns="http://www.w3.org/2000/svg" width="24" height="24" viewBox="0 0 24 24"><defs><style>.a{fill:#ff4646;}</style></defs><path class="a" d="M14,2A12,12,0,1,0,26,14,12.01,12.01,0,0,0,14,2Zm0,22A10,10,0,1,1,24,14,10,10,0,0,1,14,24Z" transform="translate(-2 -2)"/><path class="a" d="M8.483,6.85a.973.973,0,0,0-.983.983v6.684a.983.983,0,1,0,1.966,0V7.833A.986.986,0,0,0,8.483,6.85Z" transform="translate(3.517 2.946)"/><path class="a" d="M8.5,4.8a1.051,1.051,0,0,0-1,1.022v.157a.948.948,0,0,0,.963.944h.02a1.027,1.027,0,0,0,.983-.983V5.725A.9.9,0,0,0,8.5,4.8Z" transform="translate(3.517 0.808)"/></svg>