<svg xmlns="http://www.w3.org/2000/svg" width="650" height="400" viewBox="0 0 650 400">
    <defs>
        <clipPath id="clip-path">
            <path id="Rectangle_8151" fill="#fff" stroke="#707070" d="M0 0H650V400H0z" transform="translate(90 114)"/>
        </clipPath>
        <style>
            .cls-4{fill:#fff}.cls-10,.cls-17,.cls-19,.cls-21,.cls-25,.cls-26,.cls-3,.cls-31,.cls-33,.cls-34,.cls-35,.cls-36,.cls-37,.cls-39,.cls-40,.cls-49,.cls-51{fill:none;stroke-miterlimit:10}.cls-3{stroke:#becaeb}.cls-10,.cls-26,.cls-3,.cls-39,.cls-49{stroke-linejoin:round}.cls-10,.cls-3,.cls-40{stroke-width:1.333px}.cls-9{fill:#388e02}.cls-10{stroke:#89ba69}.cls-15{fill:#fac1bf}.cls-17{stroke:#5d5fb5}.cls-19{stroke:#8786cb}.cls-20{fill:#9ca0d8}.cls-21{stroke:#4b4ca8}.cls-22{fill:#ecf0fa}.cls-23{fill:#a13e3a}.cls-24{fill:#202131}.cls-25{stroke:#712725}.cls-26,.cls-36{stroke:#202131}.cls-26{stroke-linecap:round}.cls-26,.cls-34{stroke-width:.667px}.cls-27{fill:#4940a0}.cls-28,.cls-38{fill:#232657}.cls-29{fill:#fac1b6}.cls-30{fill:#142034}.cls-31{stroke:#f2527e}.cls-32{fill:#f14565}.cls-33{stroke:#911831}.cls-34,.cls-35{stroke:#f7978a}.cls-37{stroke:#6861b6}.cls-38{fill-rule:evenodd}.cls-39{stroke:#3b3e97}.cls-40,.cls-51{stroke:#f08573}.cls-41{fill:#f46f4e}.cls-45{fill:#cdcaea}.cls-47{fill:#f57f83}.cls-48{fill:#5250ac}.cls-49{stroke:#332f8c}.cls-50{fill:#f08573}.cls-52{fill:#712725}
        </style>
    </defs>
    <g id="Mask_Group_170" clip-path="url(#clip-path)" transform="translate(-90 -114)">
        <g id="g12" transform="translate(90 134.263)">
            <path id="path16" d="M854.507-457v4.612" class="cls-3" transform="translate(-263.028 544.594)"/>
            <path id="path18" d="M856.028-453.919h-4.6" class="cls-3" transform="translate(-262.248 543.817)"/>
            <path id="path20" d="M923.38-183.724v4.612" class="cls-3" transform="translate(-280.466 475.699)"/>
            <path id="path22" d="M924.9-180.64h-4.6" class="cls-3" transform="translate(-279.686 474.922)"/>
            <path id="path24" d="M205.614-481.955v4.612" class="cls-3" transform="translate(-98.738 550.885)"/>
            <path id="path26" d="M207.136-478.871h-4.6" class="cls-3" transform="translate(-97.957 550.107)"/>
            <path id="path28" d="M414.552-501.793v4.611" class="cls-3" transform="translate(-151.638 555.886)"/>
            <path id="path30" d="M416.074-498.711h-4.605" class="cls-3" transform="translate(-150.857 555.109)"/>
            <path id="path32" d="M149.6-383.284v4.611" class="cls-3" transform="translate(-84.555 526.01)"/>
            <path id="path34" d="M151.117-380.2h-4.6" class="cls-3" transform="translate(-83.774 525.232)"/>
            <path id="path36" d="M374.1-196.042v4.611" class="cls-3" transform="translate(-141.396 478.805)"/>
            <path id="path38" d="M375.621-192.961h-4.6" class="cls-3" transform="translate(-140.615 478.028)"/>
            <path id="path40" d="M553.713-432.894v4.612" class="cls-3" transform="translate(-186.872 538.516)"/>
            <path id="path42" d="M555.236-429.811h-4.605" class="cls-3" transform="translate(-186.091 537.739)"/>
            <path id="path44" d="M491.316-568.974a2.2 2.2 0 0 1-2.2 2.2 2.2 2.2 0 0 1-2.2-2.2 2.2 2.2 0 0 1 2.2-2.2 2.2 2.2 0 0 1 2.2 2.2z" class="cls-3" transform="translate(-169.96 573.378)"/>
            <path id="path46" d="M924.833-296.435a2.2 2.2 0 0 1-2.2 2.2 2.2 2.2 0 0 1-2.2-2.2 2.2 2.2 0 0 1 2.2-2.2 2.2 2.2 0 0 1 2.2 2.2z" class="cls-3" transform="translate(-279.721 504.67)"/>
            <path id="path48" d="M654.588-505.48a2.2 2.2 0 0 1-2.2 2.2 2.2 2.2 0 0 1-2.2-2.2 2.2 2.2 0 0 1 2.2-2.2 2.2 2.2 0 0 1 2.2 2.2z" class="cls-3" transform="translate(-211.299 557.37)"/>
            <path id="path50" d="M398.547-406.066a2.2 2.2 0 0 1-2.2 2.2 2.2 2.2 0 0 1-2.2-2.2 2.2 2.2 0 0 1 2.2-2.2 2.2 2.2 0 0 1 2.2 2.2z" class="cls-3" transform="translate(-146.472 532.308)"/>
            <path id="path52" d="M781.975-457.605a2.2 2.2 0 0 1-2.2 2.2 2.2 2.2 0 0 1-2.2-2.2 2.2 2.2 0 0 1 2.2-2.2 2.2 2.2 0 0 1 2.2 2.2z" class="cls-3" transform="translate(-243.551 545.301)"/>
            <path id="path54" d="M68.3-202.467a2.2 2.2 0 0 1-2.2 2.2 2.2 2.2 0 0 1-2.2-2.2 2.2 2.2 0 0 1 2.2-2.2 2.2 2.2 0 0 1 2.2 2.2z" class="cls-3" transform="translate(-62.859 480.98)"/>
            <path id="path56" d="M167.373-422.064a2.2 2.2 0 0 1-2.2 2.2 2.2 2.2 0 0 1-2.2-2.2 2.2 2.2 0 0 1 2.2-2.2 2.2 2.2 0 0 1 2.2 2.2z" class="cls-3" transform="translate(-87.942 536.341)"/>
            <path id="path58" d="M254.985-531.026a2.2 2.2 0 0 1-2.2 2.2 2.2 2.2 0 0 1-2.2-2.2 2.2 2.2 0 0 1 2.2-2.2 2.2 2.2 0 0 1 2.2 2.2z" class="cls-3" transform="translate(-110.124 563.811)"/>
            <path id="path60" d="M119.554-465.1h24.83" class="cls-3" transform="translate(-76.949 546.636)"/>
            <path id="path62" d="M162.929-465.1h11.082" class="cls-3" transform="translate(-87.931 546.636)"/>
            <path id="path64" d="M704.689-500.883h24.83" class="cls-3" transform="translate(-225.097 555.657)"/>
            <path id="path66" d="M748.065-500.883h11.081" class="cls-3" transform="translate(-236.079 555.657)"/>
            <path id="path68" d="M376.614-574.12H359.75" class="cls-3" transform="translate(-137.763 574.12)"/>
            <path id="path70" d="M349.208-574.12h-9.089" class="cls-3" transform="translate(-132.793 574.12)"/>
            <path id="path72" d="M570.048-530.284H588.2" class="cls-3" transform="translate(-191.007 563.069)"/>
            <path id="path74" d="M820.915-373.535h18.151" class="cls-3" transform="translate(-254.523 523.552)"/>
            <path id="path76" d="M843.435-384.379h11.932" class="cls-3" transform="translate(-260.225 526.286)"/>
            <path id="path78" d="M538.678-500.422a19.91 19.91 0 0 0-19.9-19.925 19.91 19.91 0 0 0-19.9 19.925 19.91 19.91 0 0 0 19.9 19.925 19.769 19.769 0 0 0 9.329-2.331l4.648 2.331-1.281-4.587a19.893 19.893 0 0 0 7.2-15.338" class="cls-4" transform="translate(-172.99 560.563)"/>
            <path id="path80" d="M538.678-500.422a19.91 19.91 0 0 0-19.9-19.925 19.91 19.91 0 0 0-19.9 19.925 19.91 19.91 0 0 0 19.9 19.925 19.769 19.769 0 0 0 9.329-2.331l4.648 2.331-1.281-4.587a19.893 19.893 0 0 0 7.2-15.338z" class="cls-3" transform="translate(-172.99 560.563)"/>
            <path id="path82" fill="#ffe200" d="M512.052-501.385a10.07 10.07 0 0 1 10.063-10.079 10.072 10.072 0 0 1 10.065 10.079 10.037 10.037 0 0 1-1.931 5.934c-1.436 2.168-5.169 4.616-5.169 6.082v1.675a.6.6 0 0 1-.6.606h-4.722a.6.6 0 0 1-.6-.606v-1.675c0-1.466-3.733-3.914-5.169-6.082a10.043 10.043 0 0 1-1.93-5.934" transform="translate(-176.324 558.324)"/>
            <path id="path84" d="M512.052-501.385a10.07 10.07 0 0 1 10.063-10.079 10.072 10.072 0 0 1 10.065 10.079 10.037 10.037 0 0 1-1.931 5.934c-1.436 2.168-5.169 4.616-5.169 6.082v1.675a.6.6 0 0 1-.6.606h-4.722a.6.6 0 0 1-.6-.606v-1.675c0-1.466-3.733-3.914-5.169-6.082a10.043 10.043 0 0 1-1.93-5.934z" class="cls-3" transform="translate(-176.324 558.324)"/>
            <path id="path86" fill="none" stroke="#ffc400" stroke-linejoin="round" stroke-miterlimit="10" stroke-width="1.333px" d="M518.939-497.613a1.226 1.226 0 0 0-.638.171 2.084 2.084 0 0 0-.673 2.031c.229 1.525 1.509 3.139 4.368 3.552a12.816 12.816 0 0 0-.91-4.136 2.974 2.974 0 0 0-1.7-1.552 1.644 1.644 0 0 0-.447-.066zm9.07 0a1.651 1.651 0 0 0-.449.067 2.974 2.974 0 0 0-1.7 1.552 12.829 12.829 0 0 0-.909 4.136c2.859-.413 4.138-2.027 4.368-3.552a2.09 2.09 0 0 0-.673-2.031 1.234 1.234 0 0 0-.639-.171zm-3.393 13.805a66.042 66.042 0 0 1 .133-7.844 10.872 10.872 0 0 1-1.276.072 10.846 10.846 0 0 1-1.273-.072 66.192 66.192 0 0 1 .131 7.844l-.178-.009a67.573 67.573 0 0 0-.14-7.859c-2.984-.416-4.321-2.109-4.561-3.707a2.233 2.233 0 0 1 .757-2.211 1.525 1.525 0 0 1 1.228-.124 3.159 3.159 0 0 1 1.807 1.641 13.087 13.087 0 0 1 .939 4.243 10.657 10.657 0 0 0 1.29.076 10.654 10.654 0 0 0 1.292-.076 13.089 13.089 0 0 1 .94-4.243 3.156 3.156 0 0 1 1.806-1.641 1.527 1.527 0 0 1 1.229.124 2.233 2.233 0 0 1 .756 2.211c-.239 1.6-1.575 3.292-4.56 3.707a67.517 67.517 0 0 0-.141 7.859z" transform="translate(-177.682 554.877)"/>
            <path id="path88" d="M527.644-480.964h-6.406v3.057a2.625 2.625 0 0 0 .409 1.409 2.749 2.749 0 0 0 2.324 1.28h.939a2.75 2.75 0 0 0 2.324-1.28 2.625 2.625 0 0 0 .409-1.409v-3.057" class="cls-4" transform="translate(-178.649 550.635)"/>
            <path id="path90" d="M527.644-480.964h-6.406v3.057a2.625 2.625 0 0 0 .409 1.409 2.749 2.749 0 0 0 2.324 1.28h.939a2.75 2.75 0 0 0 2.324-1.28 2.625 2.625 0 0 0 .409-1.409z" class="cls-3" transform="translate(-178.649 550.635)"/>
            <path id="path92" d="M525.527-535.675v6.026" class="cls-3" transform="translate(-179.735 564.428)"/>
            <path id="path94" d="M553.762-523.383l-4.255 4.261" class="cls-3" transform="translate(-185.807 561.329)"/>
            <path id="path96" d="M565.457-493.705h-6.018" class="cls-3" transform="translate(-188.321 553.847)"/>
            <path id="path98" d="M553.762-465.465l-4.255-4.261" class="cls-3" transform="translate(-185.807 547.802)"/>
            <path id="path100" d="M525.527-453.768v-6.026" class="cls-3" transform="translate(-179.735 545.298)"/>
            <path id="path102" d="M495.851-465.465l4.255-4.261" class="cls-3" transform="translate(-172.222 547.802)"/>
            <path id="path104" d="M483.557-493.705h6.018" class="cls-3" transform="translate(-169.109 553.847)"/>
            <path id="path106" d="M495.851-523.383l4.255 4.261" class="cls-3" transform="translate(-172.222 561.329)"/>
            <path id="path110" d="M300.4-459.64a19.793 19.793 0 0 1 19.779-19.807 19.793 19.793 0 0 1 19.78 19.807 19.793 19.793 0 0 1-19.78 19.808 19.664 19.664 0 0 1-9.273-2.316l-4.62 2.316 1.273-4.56a19.777 19.777 0 0 1-7.159-15.248" class="cls-4" transform="translate(-122.737 550.253)"/>
            <path id="path112" d="M300.4-459.64a19.793 19.793 0 0 1 19.779-19.807 19.793 19.793 0 0 1 19.78 19.807 19.793 19.793 0 0 1-19.78 19.808 19.664 19.664 0 0 1-9.273-2.316l-4.62 2.316 1.273-4.56a19.777 19.777 0 0 1-7.159-15.248z" class="cls-3" transform="translate(-122.737 550.253)"/>
            <path id="path114" fill="#eceef9" d="M333.374-456.275a9.819 9.819 0 0 1-9.812 9.826 9.818 9.818 0 0 1-9.811-9.826 9.818 9.818 0 0 1 9.811-9.825 9.819 9.819 0 0 1 9.812 9.825" transform="translate(-126.116 546.888)"/>
            <path id="path116" fill="#d1d5ef" d="M318.262-448.876a9.753 9.753 0 0 0 6.443 2.427 9.819 9.819 0 0 0 9.812-9.826 9.819 9.819 0 0 0-9.817-9.825v9.825l-6.443 7.4" transform="translate(-127.259 546.888)"/>
            <path id="path118" d="M152.388-247.375c-.7-5.718-7.843-9.569-7.228-15.3.3-2.836 2.5-5.089 3.4-7.8 1.522-4.569-.847-9.438-3.2-13.64s-4.842-8.959-3.557-13.6c1.406-5.079 10.64-8.518 14.484-12.117 3.868-3.62 4.532-8.774 6.819-13.289 2.36-4.658 7.517-9.294 12.579-10.731a7.1 7.1 0 0 1 8.268 3.015 14.665 14.665 0 0 1 1.965 7.957 22.62 22.62 0 0 1-3.092 11.162c-2.356 4.011-5.972 7.326-7.451 11.738-1.667 4.965-2.75 9.479-1.22 15.477 2.794 10.949-1.089 21.174-4.391 22.516-9.337 3.793-13.037 4.838-17.379 14.6" class="cls-9" transform="translate(-82.494 513.627)"/>
            <path id="path120" d="M152.388-247.375c-.7-5.718-7.843-9.569-7.228-15.3.3-2.836 2.5-5.089 3.4-7.8 1.522-4.569-.847-9.438-3.2-13.64s-4.842-8.959-3.557-13.6c1.406-5.079 10.64-8.518 14.484-12.117 3.868-3.62 4.532-8.774 6.819-13.289 2.36-4.658 7.517-9.294 12.579-10.731a7.1 7.1 0 0 1 8.268 3.015 14.665 14.665 0 0 1 1.965 7.957 22.62 22.62 0 0 1-3.092 11.162c-2.356 4.011-5.972 7.326-7.451 11.738-1.667 4.965-2.75 9.479-1.22 15.477 2.794 10.949-1.089 21.174-4.391 22.516-9.337 3.793-13.037 4.838-17.379 14.6" class="cls-10" transform="translate(-82.494 513.627)"/>
            <path id="path122" d="M178.574-325.1c-2.642 3.752-7.018 13.355-8.582 17.673a285.228 285.228 0 0 0-17 99.94" class="cls-10" transform="translate(-85.41 511.342)"/>
            <path id="path124" d="M108.279-206.409c-2.188-4.383-5.9-6.966-9.511-8.893-3.84-2.049-7.938-4.875-9.475-9.145a32.533 32.533 0 0 0-1.4-4.241c-1.164-2.215-3.5-3.532-5.8-4.526s-4.738-1.83-6.576-3.528a9 9 0 0 1-2.838-5.932c-.148-2.181.5-4.447-.21-6.514-.788-2.3-3.019-3.724-4.8-5.383a16.566 16.566 0 0 1-5.051-13.535c.908-6.725 7.29-7.311 12.672-5.04 3.353 1.416 6.365 3.6 9.81 4.771 2.952 1 6.155 1.244 8.986 2.552a13.085 13.085 0 0 1 6.936 7.974c.817 2.7.734 5.593 1.4 8.332a15.62 15.62 0 0 0 2.775 5.793c3.726 4.852 7.514 10.18 7.813 16.6a40.03 40.03 0 0 1-4.733 20.712" class="cls-9" transform="translate(-62.504 498.545)"/>
            <path id="path126" d="M108.279-206.409c-2.188-4.383-5.9-6.966-9.511-8.893-3.84-2.049-7.938-4.875-9.475-9.145a32.533 32.533 0 0 0-1.4-4.241c-1.164-2.215-3.5-3.532-5.8-4.526s-4.738-1.83-6.576-3.528a9 9 0 0 1-2.838-5.932c-.148-2.181.5-4.447-.21-6.514-.788-2.3-3.019-3.724-4.8-5.383a16.566 16.566 0 0 1-5.051-13.535c.908-6.725 7.29-7.311 12.672-5.04 3.353 1.416 6.365 3.6 9.81 4.771 2.952 1 6.155 1.244 8.986 2.552a13.085 13.085 0 0 1 6.936 7.974c.817 2.7.734 5.593 1.4 8.332a15.62 15.62 0 0 0 2.775 5.793c3.726 4.852 7.514 10.18 7.813 16.6a40.03 40.03 0 0 1-4.733 20.712" class="cls-3" transform="translate(-62.504 498.545)"/>
            <path id="path128" d="M74.613-264.487c25.3 17.243 37.569 50.431 39.638 82.2" class="cls-10" transform="translate(-65.57 496.06)"/>
            <path id="path130" d="M77.746-226.8s12.983.015 23.947 2.789" class="cls-10" transform="translate(-66.363 486.558)"/>
            <path id="path132" d="M96.152-261.721c2.686 9.819 1.385 22.163 1.385 22.163a131.08 131.08 0 0 0-21.323-2.572" class="cls-10" transform="translate(-65.975 495.363)"/>
            <path id="path134" d="M65.383-253.155s10.951-.316 17.953.851" class="cls-10" transform="translate(-63.233 493.213)"/>
            <path id="path136" d="M97.8-216.866s8.317.567 14.7 3.239c0 0 4.447-12.316 1.867-25" class="cls-10" transform="translate(-71.44 489.541)"/>
            <path id="path138" d="M128.8-236.588c7.586-5.842 14.861-14.736 15.851-24.286a29.818 29.818 0 0 0-1.392-12.494c-1.376-4.074-4.378-7.634-5.278-11.807-1.66-7.7 4.229-15.962-.649-23.132-1.671-2.454-4.356-3.991-6.485-6.058-4.905-4.767-4.789-12.112-9-16.757-4.279-4.715-11.97-7.6-18.219-7.4-6.59.218-13.686 4.934-13.646 11.537.032 5.228 4.289 9.338 6.372 14.131a17.921 17.921 0 0 1 .286 13.412c-1.99 5.173-6.476 10.311-4.515 15.5 1.858 4.91 10.7 8.267 13.771 12.068 5.864 7.262-4.152 14.538 5.014 19.889 4.43 2.584 15.178 5.095 17.9 15.395" class="cls-9" transform="translate(-69.459 514.726)"/>
            <path id="path140" d="M128.8-236.588c7.586-5.842 14.861-14.736 15.851-24.286a29.818 29.818 0 0 0-1.392-12.494c-1.376-4.074-4.378-7.634-5.278-11.807-1.66-7.7 4.229-15.962-.649-23.132-1.671-2.454-4.356-3.991-6.485-6.058-4.905-4.767-4.789-12.112-9-16.757-4.279-4.715-11.97-7.6-18.219-7.4-6.59.218-13.686 4.934-13.646 11.537.032 5.228 4.289 9.338 6.372 14.131a17.921 17.921 0 0 1 .286 13.412c-1.99 5.173-6.476 10.311-4.515 15.5 1.858 4.91 10.7 8.267 13.771 12.068 5.864 7.262-4.152 14.538 5.014 19.889 4.43 2.584 15.178 5.095 17.9 15.395" class="cls-10" transform="translate(-69.459 514.726)"/>
            <path id="path142" d="M95.586-279.413s18.906 6.877 27.322 13.232" class="cls-10" transform="translate(-70.88 499.823)"/>
            <path id="path144" d="M100.195-291.3s15.433 5.737 20.73 9.689" class="cls-10" transform="translate(-72.047 502.821)"/>
            <path id="path146" d="M133.719-321.369s-7.717 11.912-9.249 23.444" class="cls-10" transform="translate(-78.193 510.4)"/>
            <path id="path148" d="M94.542-311.225s13.005 2.236 19 5.981" class="cls-10" transform="translate(-70.616 507.843)"/>
            <path id="path150" d="M100.195-336.627s7.212 5.608 11.876 17.337c15.5 38.985 18.988 74.713 21.638 117.323" class="cls-10" transform="translate(-72.047 514.247)"/>
            <path id="path152" d="M134.553-260.828s3.447-13.76 15.938-30.472" class="cls-10" transform="translate(-80.746 502.821)"/>
            <path id="path154" d="M141.619-282.29c-8.447 13.128-14.35 29.942-14.35 29.942s-13.026-7.7-26.078-11.1" class="cls-10" transform="translate(-72.299 500.548)"/>
            <path id="path156" d="M139.908-225.5s7.922-16.748 15.992-25.9" class="cls-10" transform="translate(-82.102 492.762)"/>
            <path id="path158" fill="#388e02" stroke="#89ba69" stroke-width="0.133px" d="M166.739-207.72c-.1-6.329-4.725-9.638-6.123-14.931a13.483 13.483 0 0 1 .7-9.655c1.5-2.852 4.37-4.968 5.206-8.082.848-3.168-.636-6.444-.983-9.706a14.359 14.359 0 0 1 8.061-14.176c2.143-.983 4.52-1.416 6.6-2.535 3.407-1.836 5.206-5.348 8.31-7.468a31.9 31.9 0 0 1 11.913-4.875 14.7 14.7 0 0 1 7.011.057 7.128 7.128 0 0 1 4.936 4.657c1.018 3.781-2.017 7.331-4.743 10.139s-5.59 6.606-4.2 10.267c.434 1.143 1.249 2.1 1.76 3.212 2.6 5.644-2.259 10.355-6.979 12.672-2.491 1.224-5.147 2.167-7.4 3.788-3.439 2.474-3.865 5.5-4.368 9.414a9.171 9.171 0 0 1-5.585 7.69c-2.79 1.29-9.551 2.153-14.11 9.531" transform="translate(-87.202 499.856)"/>
            <path id="path160" d="M166.739-207.72c-.1-6.329-4.725-9.638-6.123-14.931a13.483 13.483 0 0 1 .7-9.655c1.5-2.852 4.37-4.968 5.206-8.082.848-3.168-.636-6.444-.983-9.706a14.359 14.359 0 0 1 8.061-14.176c2.143-.983 4.52-1.416 6.6-2.535 3.407-1.836 5.206-5.348 8.31-7.468a31.9 31.9 0 0 1 11.913-4.875 14.7 14.7 0 0 1 7.011.057 7.128 7.128 0 0 1 4.936 4.657c1.018 3.781-2.017 7.331-4.743 10.139s-5.59 6.606-4.2 10.267c.434 1.143 1.249 2.1 1.76 3.212 2.6 5.644-2.259 10.355-6.979 12.672-2.491 1.224-5.147 2.167-7.4 3.788-3.439 2.474-3.865 5.5-4.368 9.414a9.171 9.171 0 0 1-5.585 7.69c-2.79 1.29-9.551 2.153-14.11 9.531" class="cls-3" transform="translate(-87.202 499.856)"/>
            <path id="path162" d="M201-267.351c-5.682 4.811-17.973 19.356-22.484 29.759-7.66 17.669-11.14 31.927-11.6 51.184" class="cls-10" transform="translate(-88.94 496.782)"/>
            <path id="path164" d="M166.916-223.482s1.251 12.474 3.971 18.436" class="cls-10" transform="translate(-88.94 485.723)"/>
            <path id="path166" d="M175.572-257.626s1.09 17.417 3.845 25.536a94.305 94.305 0 0 1 30.067-12.247" class="cls-10" transform="translate(-91.131 494.331)"/>
            <path id="path168" d="M189.737-264.173a76.061 76.061 0 0 0 2.313 14.448 89.281 89.281 0 0 1 19.637-6.237" class="cls-10" transform="translate(-94.718 495.981)"/>
            <path id="path170" d="M187.806-240.073s11.255-5.961 22.292-7.8" class="cls-10" transform="translate(-94.229 491.871)"/>
            <path id="path172" d="M175.45-211.949a46.553 46.553 0 0 1 19.251-7.173" class="cls-10" transform="translate(-91.101 484.624)"/>
            <path id="path174" fill="#5aacd8" d="M111.9-172.452v17.1c0 37.863 11.123 62.229 11.123 62.229h34.444s11.123-24.366 11.123-62.229v-17.1H111.9" transform="translate(-75.01 472.858)"/>
            <path id="path176" d="M847.236-231.79c-6.064-6.118-11.88-15.431-12.673-25.428a40.367 40.367 0 0 1 1.113-13.082c1.1-4.266 3.5-7.993 4.22-12.362 1.327-8.064-3.381-16.715.52-24.222 1.334-2.569 5.559-3.766 7.261-5.931 3.053-3.887 2.826-9.684 4.688-14.369 2.85-7.172 8.855-11.6 15-11.331 5.268.229 10.94 5.165 10.909 12.079-.025 5.475-3.428 9.777-5.093 14.8a24.2 24.2 0 0 0-.228 14.043c1.591 5.417 5.177 10.8 3.609 16.225-1.485 5.142-8.555 8.657-11.009 12.637-4.688 7.6 3.32 15.221-4.008 20.823-3.541 2.706-12.134 5.335-14.306 16.121" class="cls-9" transform="translate(-257.948 514.726)"/>
            <path id="path178" d="M847.236-231.79c-6.064-6.118-11.88-15.431-12.673-25.428a40.367 40.367 0 0 1 1.113-13.082c1.1-4.266 3.5-7.993 4.22-12.362 1.327-8.064-3.381-16.715.52-24.222 1.334-2.569 5.559-3.766 7.261-5.931 3.053-3.887 2.826-9.684 4.688-14.369 2.85-7.172 8.855-11.6 15-11.331 5.268.229 10.94 5.165 10.909 12.079-.025 5.475-3.428 9.777-5.093 14.8a24.2 24.2 0 0 0-.228 14.043c1.591 5.417 5.177 10.8 3.609 16.225-1.485 5.142-8.555 8.657-11.009 12.637-4.688 7.6 3.32 15.221-4.008 20.823-3.541 2.706-12.134 5.335-14.306 16.121" class="cls-10" transform="translate(-257.948 514.726)"/>
            <path id="path180" d="M867.219-308.516s-1.823-12.1-5.674-20.618" class="cls-10" transform="translate(-264.81 512.358)"/>
            <path id="path182" d="M879.344-289.082s-12.337 6.007-16.572 10.144" class="cls-10" transform="translate(-265.121 502.261)"/>
            <path id="path184" d="M857.3-319.775s4.937 11.886 6.162 23.961" class="cls-10" transform="translate(-263.737 509.999)"/>
            <path id="path186" d="M884.33-309.939s-10.4 2.341-15.188 6.262" class="cls-10" transform="translate(-266.734 507.519)"/>
            <path id="path188" d="M875.879-336.536s-5.765 5.871-9.495 18.153c-12.392 40.819-15.18 78.229-17.3 122.844" class="cls-10" transform="translate(-261.656 514.224)"/>
            <path id="path190" d="M840.89-279.642c6.751 13.745 11.47 31.35 11.47 31.35s10.414-8.06 20.848-11.622" class="cls-10" transform="translate(-259.581 499.881)"/>
            <path id="path192" d="M848.88-220.184s-6.333-17.536-12.78-27.116" class="cls-10" transform="translate(-258.367 491.728)"/>
            <path id="path194" d="M796-191.036c.1-7.224 4.8-11 6.215-17.04a17.162 17.162 0 0 0-.7-11.02c-1.528-3.256-4.438-5.67-5.284-9.224-.862-3.617.645-7.354 1-11.078.62-6.591-2.834-13.418-8.186-16.178-2.522-1.3-5.227-1.864-7.5-3.654-2.171-1.712-3.806-4-5.773-5.922-5.28-5.159-18.519-12.762-24.667-4.9a9.361 9.361 0 0 0-1.674 4.235 17.324 17.324 0 0 0 2.88 12.967c2.533 3.415 6.492 5.233 9.809 7.738 2.23 1.685 3.712 3.362 3.837 6.26.139 3.243-1.25 6.393-.064 9.59 1.662 4.476 2.408 5.178 5.684 7.827 3.491 2.823 3.923 6.277 4.434 10.744.472 4.13 2.288 7.016 5.67 8.776 2.832 1.475 9.7 2.457 14.322 10.879" class="cls-9" transform="translate(-236.359 498.317)"/>
            <path id="path196" d="M796-191.036c.1-7.224 4.8-11 6.215-17.04a17.162 17.162 0 0 0-.7-11.02c-1.528-3.256-4.438-5.67-5.284-9.224-.862-3.617.645-7.354 1-11.078.62-6.591-2.834-13.418-8.186-16.178-2.522-1.3-5.227-1.864-7.5-3.654-2.171-1.712-3.806-4-5.773-5.922-5.28-5.159-18.519-12.762-24.667-4.9a9.361 9.361 0 0 0-1.674 4.235 17.324 17.324 0 0 0 2.88 12.967c2.533 3.415 6.492 5.233 9.809 7.738 2.23 1.685 3.712 3.362 3.837 6.26.139 3.243-1.25 6.393-.064 9.59 1.662 4.476 2.408 5.178 5.684 7.827 3.491 2.823 3.923 6.277 4.434 10.744.472 4.13 2.288 7.016 5.67 8.776 2.832 1.475 9.7 2.457 14.322 10.879" class="cls-10" transform="translate(-236.359 498.317)"/>
            <path id="path198" d="M767.659-258.949c5.768 5.489 18.244 22.089 22.823 33.963 7.777 20.165 11.309 36.439 11.778 58.417" class="cls-10" transform="translate(-241.04 494.664)"/>
            <path id="path200" d="M812.625-208.881s-1.269 14.237-4.031 21.04" class="cls-10" transform="translate(-251.404 482.042)"/>
            <path id="path202" d="M803.882-247.85s-1.106 19.878-3.9 29.145" class="cls-10" transform="translate(-249.223 491.866)"/>
            <path id="path204" d="M783.271-255.322a96.858 96.858 0 0 1-2.347 16.491 83.974 83.974 0 0 0-19.933-7.12" class="cls-10" transform="translate(-239.351 493.75)"/>
            <path id="path206" d="M798.7-195.72a44.527 44.527 0 0 0-19.542-8.186" class="cls-10" transform="translate(-243.952 480.788)"/>
            <path id="path208" d="M864.7-197.532c2.457-4.861 6.361-7.579 10.126-9.551 4-2.1 8.312-5.068 10.1-9.84a40.106 40.106 0 0 1 1.654-4.747c1.3-2.454 3.744-3.811 6.125-4.8s4.9-1.795 6.858-3.617a10.678 10.678 0 0 0 3.2-6.587c.269-2.475-.262-5.1.569-7.411.923-2.577 3.262-4.057 5.156-5.84a20.033 20.033 0 0 0 5.857-15.114c-.554-7.72-6.99-8.78-12.57-6.521-3.475 1.407-6.647 3.708-10.2 4.832-3.047.964-6.306 1.04-9.248 2.358a14.278 14.278 0 0 0-7.464 8.66c-.975 3.026-1.05 6.329-1.874 9.41a18.58 18.58 0 0 1-3.129 6.432c-4.042 5.3-9.195 7.242-9.848 14.544-.723 8.087 1.589 20.46 4.693 27.795" class="cls-9" transform="translate(-264.388 498.108)"/>
            <path id="path210" d="M864.7-197.532c2.457-4.861 6.361-7.579 10.126-9.551 4-2.1 8.312-5.068 10.1-9.84a40.106 40.106 0 0 1 1.654-4.747c1.3-2.454 3.744-3.811 6.125-4.8s4.9-1.795 6.858-3.617a10.678 10.678 0 0 0 3.2-6.587c.269-2.475-.262-5.1.569-7.411.923-2.577 3.262-4.057 5.156-5.84a20.033 20.033 0 0 0 5.857-15.114c-.554-7.72-6.99-8.78-12.57-6.521-3.475 1.407-6.647 3.708-10.2 4.832-3.047.964-6.306 1.04-9.248 2.358a14.278 14.278 0 0 0-7.464 8.66c-.975 3.026-1.05 6.329-1.874 9.41a18.58 18.58 0 0 1-3.129 6.432c-4.042 5.3-9.195 7.242-9.848 14.544-.723 8.087 1.589 20.46 4.693 27.795" class="cls-10" transform="translate(-264.388 498.108)"/>
            <path id="path212" d="M905.472-261.5c-26.579 18.1-40.827 55.168-44.654 91.249" class="cls-10" transform="translate(-264.626 495.307)"/>
            <path id="path214" d="M907.1-218.772s-13.162-.781-24.425 1.707" class="cls-10" transform="translate(-270.16 484.565)"/>
            <path id="path216" d="M890.874-260.079c-3.257 11.026-2.61 25.173-2.61 25.173a118.686 118.686 0 0 1 21.754-1.621" class="cls-10" transform="translate(-271.562 494.949)"/>
            <path id="path218" d="M923.163-248.171s-11.083-1.032-18.245-.133" class="cls-10" transform="translate(-275.792 492.073)"/>
            <path id="path220" d="M888.375-207.486s-8.462.137-15.08 2.788c0 0-3.815-9.844-.509-24.138" class="cls-10" transform="translate(-267.315 487.072)"/>
            <path id="path222" d="M816.612-222.182c1.246-7.809 11.584-16.606 11.174-24.535-.485-9.408-7.473-10.94-1.107-27.152 2.474-6.3 3.8-13.131 1.714-19.507-2.537-7.759-8.906-11.116-13.86-16.762-4.648-5.3-5.157-12.44-7.755-18.839-2.679-6.6-8.888-13.4-15.181-15.793a8.5 8.5 0 0 0-10.619 3.467A21.364 21.364 0 0 0 778-330.519a33.693 33.693 0 0 0 3.189 15.605c2.24 4.713 5.581 8.724 7.518 13.614 2.514 6.346-.408 12.681-.327 19.13.141 11.087 10.621 12.682 13.607 21.877.955 2.942.329 5.7-.421 8.32-1.2 4.191-2.175 7.362 1.437 11.607 7.277 8.553 11.84 9.9 13.613 18.184" class="cls-9" transform="translate(-243.651 516.464)"/>
            <path id="path224" d="M816.612-222.182c1.246-7.809 11.584-16.606 11.174-24.535-.485-9.408-7.473-10.94-1.107-27.152 2.474-6.3 3.8-13.131 1.714-19.507-2.537-7.759-8.906-11.116-13.86-16.762-4.648-5.3-5.157-12.44-7.755-18.839-2.679-6.6-8.888-13.4-15.181-15.793a8.5 8.5 0 0 0-10.619 3.467A21.364 21.364 0 0 0 778-330.519a33.693 33.693 0 0 0 3.189 15.605c2.24 4.713 5.581 8.724 7.518 13.614 2.514 6.346-.408 12.681-.327 19.13.141 11.087 10.621 12.682 13.607 21.877.955 2.942.329 5.7-.421 8.32-1.2 4.191-2.175 7.362 1.437 11.607 7.277 8.553 11.84 9.9 13.613 18.184" class="cls-10" transform="translate(-243.651 516.464)"/>
            <path id="path226" d="M791.854-334.714c5.194 7.792 12.417 22.646 16 36.079 12.023 45.05 14.284 82.616 11.668 129.315" class="cls-10" transform="translate(-247.166 513.765)"/>
            <path id="path228" d="M778-321.365a57.136 57.136 0 0 1 22.319 10.844s3.6-11.866 1.888-23.047" class="cls-10" transform="translate(-243.657 513.476)"/>
            <path id="path230" d="M781.346-306.731s14.508 5.056 22.474 10.47" class="cls-10" transform="translate(-244.505 506.71)"/>
            <path id="path232" d="M793.513-280.987s13.293 4.97 19.118 9.459c5.249-11.23 5.836-26.716 5.836-26.716" class="cls-10" transform="translate(-247.585 504.57)"/>
            <path id="path234" d="M796.749-257.113a67.12 67.12 0 0 1 20.315 8.217s12.653-15.032 13.154-34.483" class="cls-10" transform="translate(-248.405 500.823)"/>
            <path id="path236" d="M825.069-240.628s13.55-14.438 16.011-31.27" class="cls-10" transform="translate(-255.575 497.929)"/>
            <path id="path238" d="M809.559-220.473s8.956 3.53 13.445 7.635" class="cls-10" transform="translate(-251.648 484.964)"/>
            <path id="path240" fill="#f5d48d" d="M860.3-156.2v14.481c0 32.063-12.549 52.7-12.549 52.7h-38.86s-12.548-20.634-12.548-52.7V-156.2H860.3" transform="translate(-248.302 468.761)"/>
            <path id="path242" fill="none" stroke="#c7c0e5" stroke-miterlimit="10" stroke-width="1.333px" d="M92.286-67.059h590.13" transform="translate(-70.045 446.288)"/>
            <path id="path244" d="M710.027-125.5l-2.02 30.317.255 9.536-37.332-.192a1.652 1.652 0 0 1-1.641-1.661 1.654 1.654 0 0 1 1.066-1.537l16.1-7.413L687-128" class="cls-15" transform="translate(-216.134 461.651)"/>
            <path id="path246" fill="#7984ca" d="M667.041-75.61c.381-1.2 1.081-2.542 1.787-2.846L685.9-85.82c9.41 3.82 21.589.9 21.589.9l2.174 12.871a.772.772 0 0 1-.776.768h-41.561c-.836 0-.3-4.292-.285-4.33" transform="translate(-215.518 451.018)"/>
            <path id="path248" d="M687.408-84.835a20.168 20.168 0 0 1 2.407 4.048" class="cls-17" transform="translate(-220.721 450.769)"/>
            <path id="path250" d="M684.529-83.114a17.809 17.809 0 0 1 1.98 3.441" class="cls-17" transform="translate(-219.992 450.336)"/>
            <path id="path252" d="M682.1-81.859a25.4 25.4 0 0 1 1.855 3.158" class="cls-17" transform="translate(-219.377 450.019)"/>
            <path id="path254" d="M709.445-70.168l-42.578-.218" class="cls-17" transform="translate(-215.52 447.127)"/>
            <path id="path256" d="M718.614-78.513s-10 .2-10.864 6.239" class="cls-17" transform="translate(-225.872 449.176)"/>
            <path id="path258" d="M674.181-77.992s2.757 3.924 3.3 5.734" class="cls-17" transform="translate(-217.372 449.044)"/>
            <path id="path260" fill="#dde1f4" d="M685.671-299.79s-1 82.926 2.391 155.447H716.2s3.809-95.118 3.581-129.478c1.213-6.224 3.032-15.018 1.918-25.03" transform="translate(-220.247 504.96)"/>
            <path id="path262" d="M719.929-135.589s3.809-95.118 3.581-129.478" class="cls-19" transform="translate(-228.955 496.207)"/>
            <path id="path264" d="M768.059-133.309l7.686 29.388 2.063 9.312-36.685 6.926A1.649 1.649 0 0 1 739.2-89a1.654 1.654 0 0 1 .754-1.712l14.4-10.347-9.365-30.313" class="cls-15" transform="translate(-233.826 462.99)"/>
            <path id="path266" d="M737.378-77.675c.147-1.248.579-2.7 1.214-3.135l15.361-10.481c9.964 1.957 21.366-3.231 21.366-3.231L779.9-82.3a.772.772 0 0 1-.615.9l-40.8 7.92c-.823.155-1.108-4.156-1.1-4.2" class="cls-20" transform="translate(-233.373 453.212)"/>
            <path id="path268" d="M754.9-88.295a20.208 20.208 0 0 1 3.132 3.515" class="cls-21" transform="translate(-237.81 451.641)"/>
            <path id="path270" d="M752.4-86.057a17.735 17.735 0 0 1 2.6 3" class="cls-21" transform="translate(-237.178 451.077)"/>
            <path id="path272" d="M750.254-84.361a25.18 25.18 0 0 1 2.422 2.746" class="cls-21" transform="translate(-236.633 450.65)"/>
            <path id="path274" d="M779.327-80.764l-41.841 7.9" class="cls-21" transform="translate(-233.401 449.743)"/>
            <path id="path276" d="M787.141-88.726s-9.781 2.1-9.48 8.195" class="cls-21" transform="translate(-243.57 451.75)"/>
            <path id="path278" d="M743.22-79.06s3.453 3.327 4.332 5" class="cls-21" transform="translate(-234.852 449.313)"/>
            <path id="path280" d="M721.8-299.79s-2.44 44.4 3.689 82.455c4.609 28.623 17.366 70.848 17.366 70.848l29.065-6.313s-9.842-41.41-13.742-63.538c-4-22.713-2.891-43.72-2.2-56.5a13.912 13.912 0 0 1 .241-1.947c1.2-6.152 2.787-14.559 1.73-24.064" class="cls-22" transform="translate(-229.307 504.96)"/>
            <path id="path282" d="M778.516-151.707s-10.253-42.186-14.154-64.314c-4-22.713-2.891-43.72-2.2-56.5a13.9 13.9 0 0 1 .241-1.947c1.2-6.152 2.787-14.559 1.73-24.064" class="cls-19" transform="translate(-239.474 504.644)"/>
            <path id="path284" d="M721.957-299.79s-.241 48.858 2.239 76.65a122.553 122.553 0 0 0 2.79 17.025" class="cls-19" transform="translate(-229.467 504.96)"/>
            <path id="path286" d="M748.318-294.519s3.511 6.411 12.485 10.04" class="cls-19" transform="translate(-236.143 503.632)"/>
            <path id="path288" d="M685.22-286.82s9.426-2.648 11.647-9.744" class="cls-19" transform="translate(-220.167 504.147)"/>
            <path id="path290" d="M688.571-99.687H717.2" class="cls-19" transform="translate(-221.016 454.513)"/>
            <path id="path292" d="M748.318-103.683l29.194-6.185" class="cls-19" transform="translate(-236.143 457.08)"/>
            <path id="path294" d="M710.761-424.79l-1.015 9.133s.81 3.933 6.44 4.556c6.823.754 10.418-5.035 10.418-5.035l-2.029-10.016" class="cls-23" transform="translate(-226.377 536.816)"/>
            <path id="path296" d="M706.042-447.06a3.667 3.667 0 0 0-3.025 2.5c-.14.707.042 1.458-.156 2.151-.294 1.028-1.336 1.666-1.788 2.636a3.278 3.278 0 0 0-.116 2.23 7.559 7.559 0 0 0 .99 2.043 7.325 7.325 0 0 0 2.225 2.413 3.15 3.15 0 0 0 3.147.2 3.751 3.751 0 0 0 1.071-1.021 8.684 8.684 0 0 0 1.724-4.568" class="cls-24" transform="translate(-224.116 542.088)"/>
            <path id="path298" d="M705.538-442.763s-4.015 12.763 1.683 16.123c5.166 3.046 13.805-1.7 14.31-3.313s2.795-15.355-.493-16.386c-5.843-1.832-13.784-1.912-15.5 3.575" class="cls-23" transform="translate(-224.964 542.188)"/>
            <path id="path300" d="M709.272-425.153s.354 2.055 2.155 1.842a2.313 2.313 0 0 0 1.571-2.84" class="cls-4" transform="translate(-226.257 536.816)"/>
            <path id="path302" d="M710.617-418.625s5.414 1.41 9.449-2.158" class="cls-25" transform="translate(-226.598 535.463)"/>
            <path id="path304" d="M704.044-450.811a5.042 5.042 0 0 1-.634-4.231 5.462 5.462 0 0 1 2.474-2.924 5.845 5.845 0 0 1 4.441-.9c1.267.4 2.121 1.6 3.426 1.9a8.221 8.221 0 0 0 2.223-.02 4.328 4.328 0 0 1 4.07 2c.491.94.5 2.124 1.2 2.922.658.754 1.734.946 2.619 1.412 2.513 1.322 4.392 5.084 3.427 7.832-.249.708-.66 1.347-.932 2.046-.974 2.5-.141 7.487-3.874 8.031a2.565 2.565 0 0 1-1.768-.167 2.22 2.22 0 0 1-.814-1.543 7.118 7.118 0 0 1-.1-2.192c.109-.757.372-1.326-.169-2.027-.307-.4-.768-.661-1.035-1.086-.777-1.228.228-2.83-.477-4.072a6.617 6.617 0 0 0-3.57-2.8c-1.891-.634-3.941-.257-5.78-.95a9.656 9.656 0 0 1-4.534-2.944c-.07-.093-.137-.19-.2-.287" class="cls-24" transform="translate(-224.718 545.104)"/>
            <path id="path306" d="M722.971-430.747c.485-1.2 1.333-2.646 2.66-1.831a2.6 2.6 0 0 1 .914 1.5c.608 1.982-.811 5.037-2.753 4.755-.946-.139-1.471-1.263-1.857-2.192" class="cls-23" transform="translate(-229.463 538.497)"/>
            <path id="path308" d="M708.872-435.059s-2.215 3.528-1.984 4.5 2.539.436 2.539.436" class="cls-25" transform="translate(-225.649 539.062)"/>
            <path id="path310" d="M706.041-436.539a7.25 7.25 0 0 0-.264.81.393.393 0 0 0 .758.209 7.1 7.1 0 0 0 .166-.837.343.343 0 0 0-.66-.182" class="cls-24" transform="translate(-225.368 539.496)"/>
            <path id="path312" d="M707.967-438.723a1.639 1.639 0 0 0-2.369-.243" class="cls-26" transform="translate(-225.327 540.15)"/>
            <path id="path314" d="M715.7-434.441a6.893 6.893 0 0 0-.216.821c-.1.494.657.706.758.209a8.275 8.275 0 0 0 .131-.938c.032-.4-.557-.443-.672-.092" class="cls-24" transform="translate(-227.827 538.966)"/>
            <path id="path316" d="M715.269-437.66s1.532-.551 3.16 1.247" class="cls-26" transform="translate(-227.775 539.738)"/>
            <path id="path318" d="M650.229-407.634s-16.511 6.032-21.9 5.242c-10.434-1.529-35.881-9.728-35.881-9.728l-8.254 11.47s28.211 17.247 42.6 18.334c12.64.954 34.9-6.6 34.9-6.6" class="cls-23" transform="translate(-194.589 533.279)"/>
            <path id="path320" d="M697.647-412.312c-4.169-1.2-10.983-.389-19.773 1.254a132.425 132.425 0 0 0-15.917 4.516l7.335 22.552 18.936-4.711" class="cls-20" transform="translate(-214.277 533.471)"/>
            <path id="path322" d="M720.182-412.759s-4.023 3.879-9.19 3.879c-6.455 0-7.667-3.4-7.667-3.4a29.987 29.987 0 0 0-17.014 24.287c-1.342 11.672-1.927 64.536-1.927 64.536h64.842s3.15-82.407-29.044-89.3" class="cls-20" transform="translate(-219.955 533.44)"/>
            <path id="path324" d="M714.282-295.651l30.378-10.109-13.46-41.014-30.379 10.108 13.466 41.016" class="cls-27" transform="translate(-224.116 516.805)"/>
            <path id="path326" d="M709.348-337.456l17.067-5.679-.725-2.183a.819.819 0 0 0-1.036-.521l-15.511 5.162a.82.82 0 0 0-.52 1.037l.724 2.184" class="cls-28" transform="translate(-226.082 516.58)"/>
            <path id="path328" d="M718.487-344.183a1.042 1.042 0 0 1-1.34-.61 1.046 1.046 0 0 1 .709-1.292 1.043 1.043 0 0 1 1.341.61 1.045 1.045 0 0 1-.71 1.292zm2.257-1.807a2.615 2.615 0 0 0-3.365-1.533 2.624 2.624 0 0 0-1.781 3.245 2.619 2.619 0 0 0 3.367 1.533 2.621 2.621 0 0 0 1.78-3.245" class="cls-28" transform="translate(-227.828 517.032)"/>
            <path id="path330" d="M744.365-373.977s5.464 20.074 4.309 23.32c-2.72 7.649-21.625 26.149-21.625 26.149l9.548 13.519s28.7-18.6 33.846-32.677c4.168-11.4-4.229-35.981-4.229-35.981" class="cls-23" transform="translate(-230.758 525.092)"/>
            <path id="path332" d="M732.318-412.763s21.284-.92 30.572 12.97c6.478 9.689 8.314 22.644 8.314 22.644l-24.4 4.22-5.985-18.253" class="cls-20" transform="translate(-232.092 533.445)"/>
            <path id="path334" d="M750-364.717l-5.081-15.483" class="cls-21" transform="translate(-235.282 525.232)"/>
            <path id="path336" d="M686.964-383.759s.749-7.689 3.929-12.2" class="cls-21" transform="translate(-220.609 529.206)"/>
            <path id="path338" d="M706.057-412.759s.17 6.782 8.974 6.782c11.152 0 14.906-6.653 14.906-6.653" class="cls-21" transform="translate(-225.443 533.44)"/>
            <path id="path340" d="M729.106-313.289c-4.114 4.084-17.22 14.647-16.894 15.789s5.247-2.267 5.339-1.278-7.123 6.746-6.493 7.8c.853 1.429 7.929-4.865 7.929-4.865s-7.406 7.281-6.308 8.3c.779.726 6.686-4.57 9.2-6.31-2.481 2.233-6.075 6.328-5.252 7.064s4.916-2.789 8.2-5.318c-1.9 1.771-5.19 5.178-4.461 5.894s11.29-7.149 20.944-14.943" class="cls-23" transform="translate(-226.699 508.363)"/>
            <path id="path342" d="M281.813-125.5l-1.962 30.317-.256 9.536 37.332-.192a1.651 1.651 0 0 0 1.641-1.661 1.652 1.652 0 0 0-1.068-1.54l-16.1-7.413L304.837-128" class="cls-29" transform="translate(-117.469 461.651)"/>
            <path id="path344" d="M319.519-75.61c-.381-1.2-1.082-2.542-1.788-2.846l-17.072-7.364c-9.41 3.82-21.59.9-21.59.9L276.9-72.049a.77.77 0 0 0 .775.768h41.562c.835 0 .3-4.292.286-4.33" class="cls-30" transform="translate(-116.786 451.018)"/>
            <path id="path346" d="M312.847-84.835a20.113 20.113 0 0 0-2.407 4.048" class="cls-31" transform="translate(-125.278 450.769)"/>
            <path id="path348" d="M315.87-83.114a17.8 17.8 0 0 0-1.979 3.441" class="cls-31" transform="translate(-126.152 450.336)"/>
            <path id="path350" d="M318.344-81.859a25.266 25.266 0 0 0-1.854 3.159" class="cls-31" transform="translate(-126.81 450.019)"/>
            <path id="path352" d="M277.191-70.168l42.577-.218" class="cls-31" transform="translate(-116.86 447.127)"/>
            <path id="path354" d="M278.774-78.513s10 .2 10.863 6.239" class="cls-31" transform="translate(-117.261 449.176)"/>
            <path id="path356" d="M325.769-77.992s-2.757 3.924-3.3 5.734" class="cls-31" transform="translate(-128.324 449.044)"/>
            <path id="path358" d="M290.061-303.617c4.207 50.514 7.188 155.239 7.188 155.239h-32.141s-2.894-65.166-7.281-117.507c-14.144-23.439-13.043-48.827-14.639-52.2" class="cls-32" transform="translate(-108.251 509.573)"/>
            <path id="path360" d="M275.5-133.185s-2.967-75.309-8.6-124.634" class="cls-33" transform="translate(-114.255 494.379)"/>
            <path id="path362" d="M213.434-125.5l2.61 30.317-.256 9.536 37.332-.192a1.653 1.653 0 0 0 1.642-1.661 1.655 1.655 0 0 0-1.062-1.54l-16.1-7.413L236.458-128" class="cls-29" transform="translate(-100.718 461.651)"/>
            <path id="path364" d="M256.51-75.61c-.381-1.2-1.082-2.542-1.788-2.846L237.65-85.82c-9.41 3.82-21.59.9-21.59.9l-2.173 12.871a.771.771 0 0 0 .775.768h41.562c.835 0 .3-4.292.286-4.33" class="cls-30" transform="translate(-100.832 451.018)"/>
            <path id="path366" d="M249.838-84.835a20.117 20.117 0 0 0-2.407 4.048" class="cls-31" transform="translate(-109.325 450.769)"/>
            <path id="path368" d="M252.861-83.114a17.735 17.735 0 0 0-1.978 3.441" class="cls-31" transform="translate(-110.199 450.336)"/>
            <path id="path370" d="M255.336-81.859a25.15 25.15 0 0 0-1.855 3.158" class="cls-31" transform="translate(-110.857 450.019)"/>
            <path id="path372" d="M214.182-70.168l42.577-.218" class="cls-31" transform="translate(-100.907 447.127)"/>
            <path id="path374" d="M215.765-78.513s10 .2 10.863 6.239" class="cls-31" transform="translate(-101.308 449.176)"/>
            <path id="path376" d="M262.761-77.992s-2.758 3.924-3.3 5.734" class="cls-31" transform="translate(-112.371 449.044)"/>
            <path id="path378" d="M214.156-304.767a180.6 180.6 0 0 0 .8 36.081c-2.744 55.593-2.556 123.431-2.556 123.431h32.133s9.081-120.021 12.215-160.436" class="cls-32" transform="translate(-100.455 506.448)"/>
            <path id="path380" d="M221.5-304.455a180.522 180.522 0 0 0 .8 36.081c-2.743 55.593-2.555 123.431-2.555 123.431" class="cls-33" transform="translate(-102.316 506.137)"/>
            <path id="path382" d="M264.845-237.947s4.889-43.268 5.276-57.44" class="cls-33" transform="translate(-113.734 503.85)"/>
            <path id="path384" d="M221.621-278.749s9.238.72 14.338-12.393" class="cls-33" transform="translate(-102.79 502.78)"/>
            <path id="path386" d="M270.533-279.718s2.828-.778 3.129-1.787 1.176-12.954 1.176-12.954" class="cls-33" transform="translate(-115.174 503.616)"/>
            <path id="path388" d="M292.087-291.142s-.132 10.627 11.664 12.26" class="cls-33" transform="translate(-120.632 502.78)"/>
            <path id="path390" d="M256.557-428.628l-3.511 13.961s13.082 8.486 18.783.243l-.809-9.659-14.463-4.545" class="cls-29" transform="translate(-110.747 537.441)"/>
            <path id="path392" d="M274.878-445.061s5.793 13.714.542 18.081c-2.49 2.07-8.99 2.708-11.848.423-2.121-1.7-5.262-12.189-4.059-14.027 4.593-7.024 15.364-4.476 15.364-4.476" class="cls-29" transform="translate(-112.317 541.697)"/>
            <path id="path394" d="M276.5-436.306s2.637 3.222 2.531 4.212-2.389 1.357-2.389 1.357" class="cls-34" transform="translate(-116.685 539.376)"/>
            <path id="path396" d="M278.142-427.642l-6.166 1.57a4.041 4.041 0 0 0 4.877 2.01c2.373-.781 1.288-3.58 1.288-3.58" class="cls-4" transform="translate(-115.54 537.192)"/>
            <path id="path398" d="M278.843-437.968a7.208 7.208 0 0 0 .267.8c.186.464.946.261.759-.209a7.914 7.914 0 0 0-.4-.858.344.344 0 0 0-.625.263" class="cls-24" transform="translate(-117.275 539.904)"/>
            <path id="path400" d="M276.843-440.1a1.638 1.638 0 0 1 2.319-.538" class="cls-26" transform="translate(-116.772 540.539)"/>
            <path id="path402" d="M269.546-434.684a6.987 6.987 0 0 0 .221.819c.16.478.919.273.758-.208a7.919 7.919 0 0 0-.354-.875c-.175-.368-.7-.1-.625.264" class="cls-24" transform="translate(-114.923 539.079)"/>
            <path id="path404" d="M269.493-438.154s-1.589-.355-2.979 1.633" class="cls-26" transform="translate(-114.157 539.849)"/>
            <path id="path406" d="M251.678-437.8a13.655 13.655 0 0 0-.426-1.458c-.413-1.155-1.046-2.176-1.5-3.311a5.9 5.9 0 0 1 1.759-6.609 9.87 9.87 0 0 0 1.014-.814 8.319 8.319 0 0 0 1.3-2.6 3.624 3.624 0 0 1 1.492-1.809c1.613-.862 3.762.306 5.374-.556a7.5 7.5 0 0 0 .961-.7c2.312-1.751 4.936-1.343 7.457-.431a7.945 7.945 0 0 1 2.548 1.658c1.072.837 2.557.78 3.635 1.6 1.132.859 1.417 2.436 1.429 3.858a3.514 3.514 0 0 1-.237 1.515 2.838 2.838 0 0 1-1.451 1.293c-1.446.659-3.071.406-4.6.289-1.5-.113-3.236-1.169-4.7-.621-1.428.534-1.793 2.29-3.552 2.426-.694.054-1.537-.073-1.951.487-.468.631-.222 1.67-.591 2.4a17.264 17.264 0 0 1-1.4 1.948c-.889 1.263-2.15 2.13-1.7 3.778.314 1.147 1.585 2.987 1.06 4.2-.346.8-2.105.787-3.436-.227-1.371-1.044-1.778-3.036-2.115-4.622-.122-.581-.234-1.145-.367-1.7" class="cls-24" transform="translate(-109.817 544.559)"/>
            <path id="path408" d="M259.618-431.56c-1.3-2.114-2.572-1.95-3.37-.964-1.064 1.314.4 4.471 1.18 5.073 1.584 1.218 2.974 1.27 3.265-.1" class="cls-29" transform="translate(-111.463 538.6)"/>
            <path id="path410" d="M274.244-418.907a15.4 15.4 0 0 1-9.179-1.993" class="cls-35" transform="translate(-113.79 535.493)"/>
            <path id="path412" d="M282.276-438.819a2.593 2.593 0 0 1-2.591 2.595 2.592 2.592 0 0 1-2.59-2.595 2.592 2.592 0 0 1 2.59-2.595 2.593 2.593 0 0 1 2.591 2.595z" class="cls-36" transform="translate(-116.836 540.664)"/>
            <path id="path414" d="M272.216-434.455a2.593 2.593 0 0 1-2.591 2.595 2.593 2.593 0 0 1-2.59-2.595 2.592 2.592 0 0 1 2.59-2.595 2.593 2.593 0 0 1 2.591 2.595z" class="cls-36" transform="translate(-114.289 539.564)"/>
            <path id="path416" d="M273.8-435.154l2.654-1.47" class="cls-36" transform="translate(-116.002 539.457)"/>
            <path id="path418" d="M265.674-431.959l-5.939-1.17" class="cls-36" transform="translate(-112.441 538.575)"/>
            <path id="path420" d="M244.056-412.759s2.186 3.665 10.594 3.975c6.449.236 7.532-1.878 7.532-1.878s14.073 2.6 15.682 37.123c1.593 34.168.631 51.079.631 51.079h-63.483s-3.149-83.4 29.044-90.3" class="cls-27" transform="translate(-101.096 533.44)"/>
            <path id="path422" d="M248.966-411.152s2.315 5.857 15.7 5.942c8.715.055 11.958-2.971 11.958-2.971" class="cls-37" transform="translate(-109.714 533.035)"/>
            <path id="path424" d="M335.52-310.249c3.531 4.6 15.948 16.239 15.473 17.327s-4.9-2.949-5.121-1.982 6.16 7.639 5.395 8.6c-1.038 1.3-7.209-5.882-7.209-5.882s6.368 8.206 5.143 9.073c-.868.616-6.016-5.424-8.272-7.484 2.161 2.544 5.175 7.084 4.261 7.7s-4.5-3.422-7.415-6.369c1.648 2.01 4.451 5.828 3.634 6.439s-10.234-8.6-18.761-17.612" class="cls-29" transform="translate(-128.369 507.597)"/>
            <path id="path426" d="M345.023-294.332v-.54a6.744 6.744 0 0 0 4.01 2.031" class="cls-35" transform="translate(-134.033 503.721)"/>
            <path id="path428" d="M337.237-293.889a15.818 15.818 0 0 1 3.242 7.272" class="cls-35" transform="translate(-132.063 503.473)"/>
            <path id="path430" d="M287.292-354.252c8.3 16.288 30.853 37.257 30.853 37.257l14.3-11.9s-16.6-20.1-21.243-31.068-3.983-22.271-10.189-35.9-22.81-14.094-22.81-14.094" class="cls-20" transform="translate(-117.116 532.734)"/>
            <path id="path432" d="M278.2-409.955c17.593 14.669 23.076 64.482 23.076 92.96l-18.858.426s1.517-45.81 0-63.82a227.209 227.209 0 0 0-4.218-29.566" class="cls-20" transform="translate(-117.116 532.733)"/>
            <path id="path434" d="M243.3-412.759c5.277 21.2-.661 95.186-.661 95.186H211.95s1.181-52.369 6.543-69.234 24.807-25.952 24.807-25.952" class="cls-20" transform="translate(-100.342 533.44)"/>
            <path id="path436" d="M268.626-308.651l-30.378-10.108 13.465-41.016 30.379 10.109-13.466 41.014" class="cls-22" transform="translate(-107 520.082)"/>
            <path id="path438" d="M282.377-350.456l-17.067-5.679.725-2.183a.818.818 0 0 1 1.036-.52l15.512 5.161a.822.822 0 0 1 .519 1.038l-.724 2.183" class="cls-28" transform="translate(-113.852 519.857)"/>
            <path id="path440" d="M277.4-357a1.241 1.241 0 0 1-.843-1.537 1.239 1.239 0 0 1 1.594-.726 1.242 1.242 0 0 1 .843 1.537 1.239 1.239 0 0 1-1.594.726zm1.168-3.52a2.617 2.617 0 0 0-3.367 1.533 2.623 2.623 0 0 0 1.781 3.245 2.617 2.617 0 0 0 3.366-1.533 2.622 2.622 0 0 0-1.78-3.245" class="cls-28" transform="translate(-116.325 520.309)"/>
            <path id="path442" d="M259.4-333.984c5.764.57 22.738-.523 23.2.57s-5.5 1.556-4.949 2.38 9.776.735 9.952 1.951c.237 1.647-9.218 1.234-9.218 1.234s10.333.971 10.127 2.46c-.147 1.055-8.068.676-11.112.912 3.332.164 8.7 1.072 8.525 2.164s-5.571.94-9.712 1.053c2.591.171 7.289.74 7.173 1.756s-13.263 1.583-25.663 1.633" class="cls-29" transform="translate(-111.932 513.581)"/>
            <path id="path444" d="M238.93-412.759s-22.855-.086-29.764 11.982c-10.565 18.452-20.6 58.18-9.922 62.052 10 3.626 49.7 1.952 49.7 1.952l.2-19.116s-26.909-.951-28.713-4.063 6.1-19.058 6.1-19.058" class="cls-20" transform="translate(-95.969 533.44)"/>
            <path id="path446" d="M244.06-346.671s-14.758-1.407-15.532-3.214c-1.31-3.063 7.406-20.114 7.406-20.114" class="cls-21" transform="translate(-104.505 522.66)"/>
            <path id="path448" d="M306.9-328.179c-1.541-26.775-1.812-46.712-3.583-52.023" class="cls-21" transform="translate(-123.474 525.232)"/>
            <path id="path450" d="M233.143-310.432l-20.208-.543" class="cls-21" transform="translate(-100.591 507.78)"/>
            <path id="path452" d="M439.259-125.5l-1.026 30.317.256 9.536-37.332-.192a1.652 1.652 0 0 1-1.641-1.661 1.654 1.654 0 0 1 1.066-1.537l16.1-7.413-.447-31.55" class="cls-29" transform="translate(-147.831 461.651)"/>
            <path id="path454" d="M397.267-75.61c.381-1.2 1.082-2.542 1.788-2.846l17.071-7.363c9.41 3.82 21.59.9 21.59.9l2.173 12.871a.77.77 0 0 1-.775.768h-41.561c-.835 0-.3-4.292-.286-4.33" class="cls-27" transform="translate(-147.216 451.018)"/>
            <path id="path456" d="M417.635-84.835a20.211 20.211 0 0 1 2.407 4.048" class="cls-37" transform="translate(-152.418 450.769)"/>
            <path id="path458" d="M414.756-83.114a17.8 17.8 0 0 1 1.979 3.441" class="cls-37" transform="translate(-151.69 450.336)"/>
            <path id="path460" d="M412.324-81.859a25.255 25.255 0 0 1 1.854 3.158" class="cls-37" transform="translate(-151.074 450.019)"/>
            <path id="path462" d="M439.672-70.168l-42.578-.218" class="cls-37" transform="translate(-147.218 447.127)"/>
            <path id="path464" d="M448.84-78.513s-10 .2-10.863 6.239" class="cls-37" transform="translate(-157.569 449.176)"/>
            <path id="path466" d="M404.408-77.992s2.757 3.924 3.3 5.734" class="cls-37" transform="translate(-149.07 449.044)"/>
            <path id="path468" d="M504.638-125.5l2.962 30.314.255 9.536-37.331-.192a1.652 1.652 0 0 1-1.642-1.661 1.654 1.654 0 0 1 1.065-1.537l16.1-7.413L481.614-128" class="cls-29" transform="translate(-165.393 461.651)"/>
            <path id="path470" d="M466.631-75.61c.381-1.2 1.081-2.542 1.787-2.846l17.071-7.363c9.41 3.82 21.591.9 21.591.9l2.172 12.871a.77.77 0 0 1-.774.768h-41.562c-.836 0-.3-4.292-.286-4.33" class="cls-27" transform="translate(-164.777 451.018)"/>
            <path id="path472" d="M487-84.835a20.207 20.207 0 0 1 2.407 4.048" class="cls-37" transform="translate(-169.98 450.769)"/>
            <path id="path474" d="M484.119-83.114a17.739 17.739 0 0 1 1.979 3.441" class="cls-37" transform="translate(-169.251 450.336)"/>
            <path id="path476" d="M481.687-81.859a25.382 25.382 0 0 1 1.855 3.158" class="cls-37" transform="translate(-168.635 450.019)"/>
            <path id="path478" d="M509.034-70.168l-42.578-.218" class="cls-37" transform="translate(-164.779 447.127)"/>
            <path id="path480" d="M518.2-78.513s-10 .2-10.863 6.239" class="cls-37" transform="translate(-175.131 449.176)"/>
            <path id="path482" d="M473.771-77.992s2.758 3.924 3.3 5.734" class="cls-37" transform="translate(-166.631 449.044)"/>
            <path id="path484" d="M486.436-311.043l1.1 6.112s4.9 6.81 7.072 19.116c3.683 20.882 12.328 139.22 12.328 139.22h-31.419S455.328-288.668 452.1-312.439" class="cls-38" transform="translate(-161.144 508.149)"/>
            <path id="path486" d="M423-317c-8.323 42.171-7.788 169.253-7.788 169.253h31.74S454.237-305 462.3-317" class="cls-38" transform="translate(-151.804 509.299)"/>
            <path id="path488" d="M482.474-97.592h31.768" class="cls-39" transform="translate(-168.835 453.985)"/>
            <path id="path490" d="M416.016-97.592h31.391" class="cls-39" transform="translate(-152.009 453.985)"/>
            <path id="path492" d="M458.344-248.559c-6.836 53.716-8.578 118.07-8.578 118.07" class="cls-39" transform="translate(-160.554 492.045)"/>
            <path id="path494" d="M480.417-302.087a234.862 234.862 0 0 1-57.217.447" class="cls-39" transform="translate(-153.828 505.539)"/>
            <path id="path496" d="M463.274-238.384s-6.755-44.474-6.221-60.763" class="cls-39" transform="translate(-162.391 504.798)"/>
            <path id="path498" d="M452.1-299.147s.268 12.986.846 13.576 3.46 1.024 3.46 1.024" class="cls-39" transform="translate(-161.144 504.798)"/>
            <path id="path500" d="M492.851-300.766s3.915 6.655 6.023 20.363S513-144.012 513-144.012" class="cls-39" transform="translate(-171.462 505.206)"/>
            <path id="path502" d="M479.577-299.927a27.5 27.5 0 0 0 13.651 9.1" class="cls-39" transform="translate(-168.101 504.995)"/>
            <path id="path504" d="M473.788-301.693v-5.645" class="cls-39" transform="translate(-166.636 506.863)"/>
            <path id="path506" d="M438.574-302.36v-6.181" class="cls-39" transform="translate(-157.72 507.166)"/>
            <path id="path508" d="M430.906-300.415s-4.262 6.764-8.919 7.064" class="cls-39" transform="translate(-153.52 505.118)"/>
            <path id="path510" d="M445.442-417.737l-.357 7.88a8.533 8.533 0 0 0 8.116 4.191c5.847-.6 7.548-4.512 7.548-4.512l-.4-12.133" class="cls-29" transform="translate(-159.369 535.848)"/>
            <path id="path512" d="M444.47-445.731c-3.509 3.877-8.192 18.149-1.851 21.479 6.685 3.508 14.763.839 17.042-8.348 2.4-9.653-5.967-23.321-15.191-13.131" class="cls-29" transform="translate(-157.951 542.662)"/>
            <path id="path514" d="M445.563-415.53s4.8 1.775 11.438-3.528" class="cls-40" transform="translate(-159.489 535.028)"/>
            <path id="path516" d="M465.524-428.346v-.008.008" class="cls-41" transform="translate(-164.542 537.372)"/>
            <path id="path518" d="M465.444-428.39l-.059.085c-.037.053.05.1.086.051l.059-.085c.037-.053-.049-.1-.086-.051" class="cls-41" transform="translate(-164.506 537.387)"/>
            <path id="path520" d="M458.486-426.191c-5.395-8.856-4.609-14.343-4.609-14.343s-12.171-.84-14.39-2.895c.374-4.818 6.763-9.108 12.014-6.223 8.575-3.135 13.337 4.674 14.3 9.117 1.206 5.59-2.6 12.627-7.311 14.343" class="cls-32" transform="translate(-157.951 542.976)"/>
            <path id="path522" d="M466.953-449.207c-.715-.9-.029-2.428.643-3.359a4.7 4.7 0 0 1 5.719-1.38 4.914 4.914 0 0 1 2.485 5.386c-.495 2.076-2.387 3.046-4.515 3.157a2.293 2.293 0 0 1-2.2-.94" class="cls-32" transform="translate(-164.828 543.937)"/>
            <path id="path524" d="M477.9-450.605a2.206 2.206 0 0 1 1.32-2.224 3.791 3.791 0 0 1 4.617 1.094 3.967 3.967 0 0 1-.171 4.783 4.128 4.128 0 0 1-4.695 1.053 1.85 1.85 0 0 1-1.237-1.479" class="cls-32" transform="translate(-167.636 543.636)"/>
            <path id="path526" d="M485.72-448.064a1.589 1.589 0 0 1 1.221-1.406 2.732 2.732 0 0 1 3.132 1.369 2.856 2.856 0 0 1-.735 3.368 2.973 2.973 0 0 1-3.463.142 1.332 1.332 0 0 1-.686-1.207" class="cls-32" transform="translate(-169.52 542.721)"/>
            <path id="path528" d="M491.127-444.8a1.125 1.125 0 0 1 1.261-.394 1.943 1.943 0 0 1 1.384 1.993 2.024 2.024 0 0 1-1.695 1.761 1.877 1.877 0 0 1-1.779-3.008" class="cls-32" transform="translate(-170.706 541.629)"/>
            <path id="path530" d="M493.254-441.315l.123 4.175a.1.1 0 0 0 .029.085.1.1 0 0 0 .08.007l3.025-.526a.777.777 0 0 0 .607-.319.7.7 0 0 0 .052-.32 4.446 4.446 0 0 0-1.164-2.811 7.548 7.548 0 0 0-2.51-1.79" class="cls-32" transform="translate(-171.564 541.017)"/>
            <path id="path532" d="M458.935-427.352a1.989 1.989 0 0 1 1.577-1.288c1.747-.277 2.336 2.071 1.817 3.739a4.93 4.93 0 0 1-1.691 2.51c-1.122.915-2.365.924-2.757-.554" class="cls-29" transform="translate(-162.608 537.449)"/>
            <path id="path534" d="M445.7-432.536s-2.636 3.223-2.53 4.212 2.389 1.358 2.389 1.358" class="cls-34" transform="translate(-158.882 538.426)"/>
            <path id="path536" d="M442.739-423.871l6.161 1.571a4.041 4.041 0 0 1-4.877 2.01c-2.373-.781-1.288-3.579-1.288-3.579" class="cls-4" transform="translate(-158.712 536.242)"/>
            <path id="path538" d="M443.225-434.462a7.794 7.794 0 0 0-.4.857c-.188.47.571.674.758.21a7.154 7.154 0 0 0 .267-.8.344.344 0 0 0-.625-.264" class="cls-24" transform="translate(-158.789 538.954)"/>
            <path id="path540" d="M445.426-436.327a1.638 1.638 0 0 0-2.319-.537" class="cls-26" transform="translate(-158.868 539.588)"/>
            <path id="path542" d="M452.542-431.178a7.8 7.8 0 0 0-.354.875c-.161.481.6.687.758.208a7.012 7.012 0 0 0 .221-.82c.075-.357-.449-.634-.625-.263" class="cls-24" transform="translate(-161.161 538.128)"/>
            <path id="path544" d="M452.552-434.383s1.589-.355 2.979 1.632" class="cls-26" transform="translate(-161.259 538.898)"/>
            <path id="path546" d="M399.953-377.489s-4.762 9.223-5.9 10.359c-6.47 6.481-16.894-25.147-16.894-25.147l-12.959 7.423s7.776 33.684 23.379 40.979 33.821-24.391 33.821-24.391" class="cls-29" transform="translate(-138.888 528.277)"/>
            <path id="path548" d="M377.214-396.1c-1.432-5.029-5-18.581-5.96-18.735s-.146 4.7-.912 4.421-2.524-7.655-3.526-7.554c-1.358.138.847 7.6.847 7.6s-.728-1.439-1.872-.978c-.809.326-.615 2.433-.615 2.433s-.856-1.614-1.691-1.259-.633 2.845-.633 2.845-.765-.79-1.551-.5-1.382 4.563 2.855 19.7" class="cls-29" transform="translate(-138.014 534.754)"/>
            <path id="path550" fill="none" stroke="#f7978a" stroke-linejoin="round" stroke-miterlimit="10" stroke-width="1.333px" d="M373.465-405.324a24.368 24.368 0 0 1-1.133 3.661 6.517 6.517 0 0 0-.685 3.748" transform="translate(-140.762 531.566)"/>
            <path id="path552" fill="#f7978a" d="M367.983-406.995a19.16 19.16 0 0 1 .36 2.338 5.243 5.243 0 0 1-.175 2.465.8.8 0 0 1-.3.34.657.657 0 0 1-.267.09 2.154 2.154 0 0 1-.237-.019 1.391 1.391 0 0 1-.662-.385 4.863 4.863 0 0 1-.766-1.014 13.242 13.242 0 0 1-1.024-2.2l.873-.241a19.613 19.613 0 0 1 .4 2.343 11.285 11.285 0 0 1 .07 1.215 2.892 2.892 0 0 1-.267 1.376.993.993 0 0 1-.406.4.884.884 0 0 1-.59.063 1.421 1.421 0 0 1-.744-.4 3.794 3.794 0 0 1-.746-1.1 10.783 10.783 0 0 1-.742-2.314l.857-.16a20.134 20.134 0 0 1 .157 2.16 8.655 8.655 0 0 1-.169 2.209 1.257 1.257 0 0 1-.314.6.582.582 0 0 1-.426.163.85.85 0 0 1-.362-.139 2.375 2.375 0 0 1-.665-.952 9.3 9.3 0 0 1-.607-2.063 13.015 13.015 0 0 0 .89 1.914 2.076 2.076 0 0 0 .625.71c.132.052.156.039.184 0a.829.829 0 0 0 .129-.356 8.138 8.138 0 0 0-.017-2.032c-.072-.692-.18-1.39-.288-2.072a.436.436 0 0 1 .362-.5.436.436 0 0 1 .49.32l.005.019a11.062 11.062 0 0 0 .75 2.08 2.937 2.937 0 0 0 .549.81c.1.088.2.157.255.15.053.02 0 0-.025.023-.032 0-.028.031-.01-.013a2.438 2.438 0 0 0 .139-.89 10.162 10.162 0 0 0-.05-1.106c-.073-.746-.187-1.509-.32-2.249v-.022a.454.454 0 0 1 .366-.526.453.453 0 0 1 .51.306 17.431 17.431 0 0 0 .85 2.11 4.235 4.235 0 0 0 .572.909.82.82 0 0 0 .309.241c.047.007.064.027.064.018s.051-.034.086-.089a2.829 2.829 0 0 0 .256-1.015c.05-.377.079-.764.092-1.153.028-.778.007-1.562-.013-2.348" transform="translate(-138.136 531.987)"/>
            <path id="path554" d="M439.68-407.587s.656 2.641 6.6 2.641a10.119 10.119 0 0 0 8.555-4.4s13.547 1.249 22 21.813 2.368 52.056 2.368 52.056l-54 1.6s1.423-9.3-.212-32.37c-.258-3.638-2.692-9.986-.6-18.576 3.164-12.978 15.284-22.764 15.284-22.764" class="cls-27" transform="translate(-153.917 532.579)"/>
            <path id="path556" fill="#e0ddf2" d="M473.385-310.965l-30.766.433.027 1.885 32.488-.457a1.811 1.811 0 0 0-1.75-1.861" transform="translate(-158.744 507.778)"/>
            <path id="path558" d="M389.424-317.949l43.224-.607-8.672-28.934a3.305 3.305 0 0 0-3.146-2.46l-39.079.548a1.391 1.391 0 0 0-1.2 1.843l8.875 29.61" class="cls-45" transform="translate(-143.012 517.606)"/>
            <path id="path560" fill="#edebf7" d="M386.824-317.913l43.225-.607-8.672-28.934a3.305 3.305 0 0 0-3.146-2.46l-39.079.549a1.389 1.389 0 0 0-1.2 1.842l8.875 29.61" transform="translate(-142.354 517.597)"/>
            <path id="path562" d="M406.627-328.665a3.4 3.4 0 0 0 3.39 2.407c1.6-.023 2.676-1.137 2.4-2.489a3.4 3.4 0 0 0-3.389-2.407c-1.6.022-2.676 1.136-2.4 2.489" class="cls-45" transform="translate(-149.621 512.867)"/>
            <path id="path564" d="M468.078-368.066s1.343 21.988-1.141 25.978c-1.459 2.343-23.594 9.721-23.594 9.721v15.777s33.56-1.015 42.374-12.964c6.6-8.949 5.653-38.512 5.653-38.512" class="cls-29" transform="translate(-158.927 522.173)"/>
            <path id="path566" d="M465.446-409.342s14.483 1.432 21.717 8.174c10.847 10.111 11.641 26.121 11.641 26.121h-25.778l-.28-13.6" class="cls-27" transform="translate(-164.523 532.579)"/>
            <path id="path568" d="M435.616-406.995c-8.6.838-15.258 4.528-18.788 9.487-5.484 7.7-9.324 19.628-9.324 19.628l20.354 5.9" class="cls-27" transform="translate(-149.854 531.987)"/>
            <path id="path570" d="M475.151-368.553c-.21-10.21-1.314-15.032-1.314-15.032" class="cls-37" transform="translate(-166.648 526.085)"/>
            <path id="path572" d="M422.771-369.669c-.842-8.7 5.4-17.892 5.4-17.892" class="cls-37" transform="translate(-153.699 527.087)"/>
            <path id="path574" d="M441.7-322.608c-3.55.625-22.239 4.424-22.015 5.371.215.911 5.7.733 5.539 1.252-.232.737-4.294 1.722-6.621 2.065-2.075.305-5.358 1.136-5.342 2.057.03 1.753 11.4-.067 11.4-.067s-12.588-.332-12.715 1.138c-.182 2.118 13.154 1.966 13.623 2.429 0 0-11.6-3.084-11.734-1.517s10.155 4.578 13.333 4.358c-2.642-.31-10.7-4.239-10.764-2.8s6.919 3.482 8.036 3.567a63.893 63.893 0 0 0 17.494-1.3" class="cls-29" transform="translate(-150.977 510.713)"/>
            <path id="path576" d="M415.416-307.532a43.715 43.715 0 0 1 4.454-.468c1.488-.08 2.971-.135 4.473-.1a19.041 19.041 0 0 1-2.213.391c-.742.1-1.487.157-2.231.206a31.27 31.27 0 0 1-4.483-.032" class="cls-47" transform="translate(-151.857 507.057)"/>
            <path id="path578" d="M417.212-304.731c1.631 0 3.241.117 4.853.21s3.211.224 4.839.266a12.623 12.623 0 0 1-2.43.275 24 24 0 0 1-2.442-.044 28.452 28.452 0 0 1-4.821-.708" class="cls-47" transform="translate(-152.311 506.206)"/>
            <path id="path580" d="M419.99-302.245c1.455.052 2.884.223 4.313.395 1.429.187 2.845.389 4.282.614a13.593 13.593 0 0 1-2.179.063c-.726-.02-1.447-.1-2.166-.183a25.582 25.582 0 0 1-4.25-.889" class="cls-47" transform="translate(-153.015 505.579)"/>
            <path id="path582" d="M462.488-413.81s-3.679 6.878-9.785 7.711l3.226 6.044a14.21 14.21 0 0 0 7.493-10.414l-.934-3.342" class="cls-4" transform="translate(-161.297 533.705)"/>
            <path id="path584" d="M444.941-411.6s-.89 4.911 5.332 6.056l-2.9 5.637a12.751 12.751 0 0 1-4.264-8.07l1.834-3.623" class="cls-4" transform="translate(-158.868 533.147)"/>
            <path id="path586" d="M598.384-424.79l-1.015 10.183s.81 2.883 6.44 3.506c6.823.754 10.417-5.035 10.417-5.035l-2.026-10.015" class="cls-29" transform="translate(-197.925 536.816)"/>
            <path id="path588" d="M593.161-442.763s-4.016 12.763 1.681 16.123c5.167 3.046 13.805-1.7 14.31-3.313s2.8-15.355-.492-16.386c-5.844-1.832-13.785-1.912-15.5 3.575" class="cls-29" transform="translate(-196.511 542.188)"/>
            <path id="path590" d="M598.24-418.625s5.414 1.41 9.448-2.158" class="cls-40" transform="translate(-198.145 535.463)"/>
            <path id="path592" d="M589.807-451.943c-.693-6.808 8.468-3.776 12.434-1.538 1.192.671 7.29.988 8.443 1.722a7.051 7.051 0 0 1 2.738 2.978 8.531 8.531 0 0 1 .577 3.525 43.367 43.367 0 0 1-.69 6.427c-.367 2.322-.925 6.9-4.041 7.18a2.563 2.563 0 0 1-1.756-.265 2.224 2.224 0 0 1-.727-1.586 8.117 8.117 0 0 1 .183-2.906c-.584.317-1.136.846-1.79.751a.975.975 0 0 1-.514-.356c-.55-.551-1.085-4.93.5-7.083-3.188-.676-5.46-.265-8.675-.8a9.4 9.4 0 0 1-5-2.321c-1.586-1.328-1.475-3.668-1.685-5.729" class="cls-24" transform="translate(-196.001 544.373)"/>
            <path id="path594" d="M611.381-430.747c.486-1.2 1.333-2.646 2.662-1.831a2.611 2.611 0 0 1 .914 1.5c.608 1.982-.811 5.037-2.753 4.755-.947-.139-1.473-1.263-1.857-2.192" class="cls-29" transform="translate(-201.21 538.497)"/>
            <path id="path596" d="M596.494-435.059s-2.214 3.528-1.984 4.5 2.3.609 2.3.609" class="cls-34" transform="translate(-197.197 539.062)"/>
            <path id="path598" d="M593.664-426.151l5.367.39s-.038 3.088-2.6 3.088-2.767-3.478-2.767-3.478" class="cls-4" transform="translate(-196.987 536.816)"/>
            <path id="path600" d="M593.663-436.539a7.451 7.451 0 0 0-.263.81.393.393 0 0 0 .757.209 7.011 7.011 0 0 0 .166-.837.343.343 0 0 0-.66-.182" class="cls-24" transform="translate(-196.916 539.496)"/>
            <path id="path602" d="M595.59-438.723a1.639 1.639 0 0 0-2.369-.243" class="cls-26" transform="translate(-196.874 540.15)"/>
            <path id="path604" d="M603.319-434.441a7.114 7.114 0 0 0-.217.821c-.1.494.658.706.758.209a8 8 0 0 0 .132-.938c.032-.4-.557-.443-.672-.092" class="cls-24" transform="translate(-199.374 538.966)"/>
            <path id="path606" d="M602.892-437.66s1.533-.551 3.161 1.247" class="cls-26" transform="translate(-199.323 539.738)"/>
            <path id="path608" d="M628.3-162.31l20.107 22.141 7.657 5.672-23.144 29.332a1.65 1.65 0 0 1-2.318.272 1.655 1.655 0 0 1-.553-1.788l4.087-17.269-21.98-21.737" class="cls-15" transform="translate(-201.668 470.301)"/>
            <path id="path610" d="M636.435-95.469c-.707-1.038-1.333-2.42-1.138-3.164l4.725-18c8.8-5.07 14.008-16.477 14.008-16.477l11.464 6.215a.774.774 0 0 1 .127 1.084l-25.6 32.787c-.519.657-3.56-2.408-3.582-2.441" class="cls-32" transform="translate(-207.518 462.94)"/>
            <path id="path612" d="M639.364-106.578a20.121 20.121 0 0 1 4.667.6" class="cls-33" transform="translate(-208.557 456.251)"/>
            <path id="path614" d="M638.948-103.25a17.672 17.672 0 0 1 3.925.559" class="cls-33" transform="translate(-208.452 455.412)"/>
            <path id="path616" d="M638.438-100.56a24.982 24.982 0 0 1 3.627.481" class="cls-33" transform="translate(-208.323 454.734)"/>
            <path id="path618" d="M664.493-126.228l-26.4 33.454" class="cls-33" transform="translate(-208.235 461.205)"/>
            <path id="path620" d="M664.723-130.165s-6 8.015-1.785 12.411" class="cls-33" transform="translate(-214.146 462.197)"/>
            <path id="path622" d="M636.607-91.944s4.787.243 6.544.929" class="cls-33" transform="translate(-207.859 452.562)"/>
            <path id="path624" d="M568.865-299.927s-18.516 57.859-14.61 78.244c1.829 9.547 12.641 18.818 24.091 29.653 15.785 14.937 33.145 30.286 33.145 30.286l14.867-26.3s-35.734-34.445-35.734-41.717c0-10.969 18.669-68.019 18.669-68.019" class="cls-48" transform="translate(-186.872 504.995)"/>
            <path id="path626" d="M608.659-260.535s-13.115 34.587-11.545 41.819c1.533 7.06 37.081 42.1 37.081 42.1" class="cls-49" transform="translate(-197.827 495.064)"/>
            <path id="path628" d="M637.833-125.5l1.961 30.317.256 9.536-37.332-.192a1.652 1.652 0 0 1-1.641-1.661 1.652 1.652 0 0 1 1.066-1.537l16.1-7.413-3.434-31.55" class="cls-15" transform="translate(-198.863 461.651)"/>
            <path id="path630" d="M598.829-75.61c.381-1.2 1.083-2.542 1.787-2.846l17.071-7.363c9.411 3.82 21.59.9 21.59.9l2.174 12.871a.771.771 0 0 1-.775.768h-41.561c-.836 0-.3-4.292-.286-4.33" class="cls-32" transform="translate(-198.248 451.018)"/>
            <path id="path632" d="M619.194-84.835a20.117 20.117 0 0 1 2.407 4.048" class="cls-33" transform="translate(-203.45 450.769)"/>
            <path id="path634" d="M616.317-83.114a17.8 17.8 0 0 1 1.979 3.441" class="cls-33" transform="translate(-202.722 450.336)"/>
            <path id="path636" d="M613.885-81.859a25.129 25.129 0 0 1 1.855 3.159" class="cls-33" transform="translate(-202.106 450.019)"/>
            <path id="path638" d="M641.233-70.168l-42.578-.218" class="cls-33" transform="translate(-198.25 447.127)"/>
            <path id="path640" d="M650.4-78.513s-10 .2-10.863 6.239" class="cls-33" transform="translate(-208.601 449.176)"/>
            <path id="path642" d="M605.969-77.992s2.758 3.924 3.3 5.734" class="cls-33" transform="translate(-200.102 449.044)"/>
            <path id="path644" d="M580.977-294.519c-.711 7.351-10.671 7.006-10.671 7.006" class="cls-49" transform="translate(-191.073 503.632)"/>
            <path id="path646" d="M643.113-302.087a67.823 67.823 0 0 1-.865 20.516 5.084 5.084 0 0 0-.119 1.209l2.408 136.377-32.11-.175s-9.562-128.878-9.282-156.311" class="cls-48" transform="translate(-199.385 505.539)"/>
            <path id="path648" d="M649.948-299.147c.493 9.423-1.386 13.393-1.076 18.872 3.729 65.963 3.141 137.031 3.141 137.031" class="cls-49" transform="translate(-210.956 504.798)"/>
            <path id="path650" d="M603.145-296.563c1.06 33.329 7.074 123.064 7.074 123.064" class="cls-49" transform="translate(-199.387 504.147)"/>
            <path id="path652" d="M627.833-294.519c2.817 8.215 15.539 10.055 15.539 10.055" class="cls-49" transform="translate(-205.638 503.632)"/>
            <path id="path654" d="M597.957-294.519c-.542 8.215-.1 13.485.36 14.782.269.759 2.491 1.085 4.041 1.647" class="cls-49" transform="translate(-198.01 503.632)"/>
            <path id="path656" d="M614.9-100.114h32.556" class="cls-49" transform="translate(-202.363 454.621)"/>
            <path id="path658" d="M514.054-395.5s18.118 32.478 26.323 42c2.8 3.248 5.583 6.659 10.217 5.425 9.126-2.434 16.685-34.41 16.685-34.41l-14.825-11.187-4.716 13.718-20.9-23.135" class="cls-29" transform="translate(-176.83 531.003)"/>
            <path id="path660" d="M607.467-412.759s-4.024 3.879-9.19 3.879c-6.454 0-7.667-2.35-7.667-2.35s-15.221 5.065-17.078 27.273c-2.859 34.2-2.859 60.5-2.859 60.5h65.838s3.15-82.407-29.044-89.3" class="cls-32" transform="translate(-191.166 533.44)"/>
            <path id="path662" d="M641.619-372.066c.2 14.217.732 30.558-2.681 37.194-4.958 9.645-52.776 6.433-52.776 6.433l.231-16.04s28.626-3.213 30.5-4.249c2.424-1.336.978-22.183.978-22.183" class="cls-29" transform="translate(-195.087 523.181)"/>
            <path id="path664" d="M587.282-410.859c-9.992-1.529-18.8 1.027-22.258 8.019-3.036 6.132-7.5 17.571-7.5 17.571l24.081 7.247" class="cls-32" transform="translate(-187.837 533.069)"/>
            <path id="path666" d="M591.391-336.785s-15.421 1.075-22.444 1.974c-2.22.284-4.614 1.316-3.758 3.462-1.608.959-1.845 2.535-.75 4.121a2.545 2.545 0 0 0 .554 4.193c-1.258.923-1.793 2.416-.085 3.839a11.988 11.988 0 0 0 5.109 1.876c1.272.036 0-1.965-1.414-2.8a30.893 30.893 0 0 1 5.647.192l9.589.565" class="cls-29" transform="translate(-189.369 514.287)"/>
            <path id="path668" d="M565.472-318.813a3.576 3.576 0 0 1 1.031-.682 5.756 5.756 0 0 1 1.167-.4 6.163 6.163 0 0 1 1.222-.146 5.067 5.067 0 0 1 1.225.107c-.8.213-1.571.349-2.337.525s-1.52.359-2.307.594" class="cls-50" transform="translate(-189.849 510.066)"/>
            <path id="path670" d="M564.456-324.359a3.592 3.592 0 0 1 1.03-.683 5.8 5.8 0 0 1 1.168-.4 6.135 6.135 0 0 1 1.221-.146 5.065 5.065 0 0 1 1.225.107c-.8.213-1.569.349-2.337.525s-1.519.36-2.306.6" class="cls-50" transform="translate(-189.591 511.464)"/>
            <path id="path672" d="M565.983-329.858a3.93 3.93 0 0 1 1.073-.565 6.5 6.5 0 0 1 1.168-.308 6.93 6.93 0 0 1 1.2-.094 5.557 5.557 0 0 1 1.2.126c-.786.212-1.552.325-2.32.46l-2.323.382" class="cls-50" transform="translate(-189.978 512.785)"/>
            <path id="path674" d="M619.941-412.768s22.143-1.094 27.407 11.114c4.615 10.706 5.2 24.893 5.2 24.893l-27.111 1.7-1.392-16.591" class="cls-32" transform="translate(-203.639 533.449)"/>
            <path id="path676" d="M626.874-367.442l-1.268-15.122" class="cls-33" transform="translate(-205.074 525.828)"/>
            <path id="path678" d="M574.273-376.4s1.162-11.067 3.149-14.641" class="cls-33" transform="translate(-192.077 527.966)"/>
            <path id="path680" d="M559.157-372.156s6.279 7.338 7.037 12.142" class="cls-51" transform="translate(-188.25 523.204)"/>
            <path id="path682" d="M532.075-399.042c-3.684-4.476-12.986-18.513-14.152-18.293s1.773 5.44.783 5.442-6.056-7.721-7.161-7.19c-1.5.721 4.113 8.353 4.113 8.353s-6.562-8.052-7.681-7.051c-.793.709 3.933 7.085 5.434 9.749-1.992-2.679-5.736-6.636-6.545-5.883s2.324 5.157 4.539 8.664c-1.587-2.058-4.674-5.649-5.454-4.987s6.076 11.912 12.944 22.252" class="cls-29" transform="translate(-174.763 535.041)"/>
            <path id="path684" d="M516.08-399.019a12.463 12.463 0 0 1 5.586 4.572" class="cls-51" transform="translate(-177.343 529.976)"/>
            <path id="path686" d="M524.693-406.167a8.878 8.878 0 0 0 3.351 6.211" class="cls-51" transform="translate(-179.524 531.778)"/>
            <path id="path688" d="M581.624-413.9a2.068 2.068 0 0 0-1.933-.11c-1.566 1-2.392 5.018-2.2 6.983.05.511.256 1.1.659 1.1.333.008.6-.384.8-.737.78-1.359 1.292-4.114 2.019-5.516" class="cls-23" transform="translate(-192.885 533.808)"/>
            <path id="path690" d="M586.078-413.9c-1.638-1.316-3.1-.87-3.717-.353-1.576 1.326-2.032 5.632-1.617 7.631.108.519.391 1.086.827 1.021.357-.054.6-.507.777-.91.692-1.549.946-4.493 1.579-6.078" class="cls-23" transform="translate(-193.679 533.947)"/>
            <path id="path692" d="M588.3-414.365s-2.118-.8-2.695-.243c-1.484 1.429-1.989 6.452-1.441 8.417.141.51.463 1.057.892.963.353-.078.563-.546.715-.96.587-1.592.643-4.547 1.17-6.171" class="cls-23" transform="translate(-194.526 533.956)"/>
            <path id="path694" d="M587.662-406.484c.139.49.447 1.018.844.934.328-.069.517-.515.652-.909.333-.961.253-5.357 1.5-5.227a6.73 6.73 0 0 0-.662 2.351c-.019.214 0 .483.2.567s.4-.076.553-.22a15.653 15.653 0 0 1 2.382-1.847c.521-.33 1.633-.846 1.633-.846s-2.148-2.168-3.736-2.566c-1.161-.291-2.59-.67-3.273.529-1.1 1.931-.671 5.2-.091 7.232" class="cls-23" transform="translate(-195.318 533.89)"/>
            <path id="path696" d="M588.089-414.35c-1.473.779-1.781 2.92-1.341 4.41.056.19.373.218.412 0 .269-1.514-.212-2.984 1.156-4.115.168-.141-.047-.389-.227-.294" class="cls-52" transform="translate(-195.189 533.847)"/>
            <path id="path698" d="M585.409-414.764c-1.666.83-2.115 3.58-1.71 5.23.047.192.381.215.413 0 .235-1.644-.043-3.784 1.486-4.908a.187.187 0 0 0-.189-.322" class="cls-52" transform="translate(-194.428 533.952)"/>
            <path id="path700" d="M582.039-413.917c-1.577.793-1.9 3.608-1.718 5.172a.216.216 0 0 0 .421.058c.549-1.553-.032-3.78 1.486-4.907a.187.187 0 0 0-.189-.323" class="cls-52" transform="translate(-193.597 533.738)"/>
        </g>
    </g>
</svg>
