<svg xmlns="http://www.w3.org/2000/svg" width="25.359" height="32.977" viewBox="0 0 25.359 32.977">
  <g id="noun-note-4462152" transform="translate(-175 -52.35)">
    <path id="Path_19810" data-name="Path 19810" d="M196.555,175h-7.608v3.8a1.268,1.268,0,1,1-2.536,0V175H178.8a3.815,3.815,0,0,0-3.8,3.8v16.483a3.815,3.815,0,0,0,3.8,3.8h17.751a3.815,3.815,0,0,0,3.8-3.8V178.8a3.815,3.815,0,0,0-3.8-3.8Zm-15.215,7.608h7.608a1.268,1.268,0,1,1,0,2.536H181.34a1.268,1.268,0,1,1,0-2.536Zm12.679,12.679H181.34a1.268,1.268,0,1,1,0-2.536h12.679a1.268,1.268,0,1,1,0,2.536Zm0-5.072H181.34a1.268,1.268,0,1,1,0-2.536h12.679a1.268,1.268,0,1,1,0,2.536Z" transform="translate(0 -113.764)" fill="#9921bc"/>
    <path id="Path_19811" data-name="Path 19811" d="M302.571,59.74a3.8,3.8,0,1,0-2.536,0v1.5h2.536ZM301.3,57.432a1.268,1.268,0,1,1,.9-.371A1.268,1.268,0,0,1,301.3,57.432Z" transform="translate(-113.624)" fill="#9921bc"/>
  </g>
</svg>
