<svg xmlns="http://www.w3.org/2000/svg" width="28.321" height="27.349" viewBox="0 0 28.321 27.349">
  <path id="Path_19807" data-name="Path 19807" d="M26.86,4.1H6.431A3.921,3.921,0,0,0,2.5,8V21.938a3.927,3.927,0,0,0,3.931,3.931h6.343L15.1,30.515a1.738,1.738,0,0,0,3.1-.03l2.323-4.646H26.89a3.927,3.927,0,0,0,3.931-3.931V8A3.966,3.966,0,0,0,26.86,4.1ZM11.047,21.372a1.281,1.281,0,1,1,1.281-1.281A1.29,1.29,0,0,1,11.047,21.372ZM14.233,14.4a5.166,5.166,0,0,1-1.429,1.34,1.319,1.319,0,0,0-.715,1.221.573.573,0,0,1-.536.506H10.57a.588.588,0,0,1-.417-.179A.557.557,0,0,1,10,16.876a3.279,3.279,0,0,1,1.578-2.829,3.744,3.744,0,0,0,.953-.893,1.5,1.5,0,0,0,.089-1.578,1.821,1.821,0,0,0-1.757-.953A1.846,1.846,0,0,0,8.843,12.26a.542.542,0,0,1-.536.447H7.324a.541.541,0,0,1-.417-.179.534.534,0,0,1-.119-.417A3.922,3.922,0,0,1,10.9,8.567a3.884,3.884,0,0,1,3.6,2.085A3.487,3.487,0,0,1,14.233,14.4Zm10.78,6.73H18.76a1.013,1.013,0,0,1,0-2.025h6.284a1,1,0,0,1,1.013,1.013A1.03,1.03,0,0,1,25.014,21.134Zm0-5.152H18.76a1.013,1.013,0,0,1,0-2.025h6.284a1,1,0,0,1,1.013,1.013A1.03,1.03,0,0,1,25.014,15.982Zm0-5.152H18.76a1.013,1.013,0,0,1,0-2.025h6.284a1,1,0,0,1,1.013,1.013A1.03,1.03,0,0,1,25.014,10.83Z" transform="translate(-2.5 -4.1)" fill="#ffb800"/>
</svg>
