<svg id="Group_31516" data-name="Group 31516" xmlns="http://www.w3.org/2000/svg" width="38.92" height="44.642" viewBox="0 0 38.92 44.642">
  <path id="Path_19812" data-name="Path 19812" d="M46.875,20.183A2.606,2.606,0,0,0,44.292,17.6H34.008a11.514,11.514,0,0,1,.094,1.268,10.594,10.594,0,0,1-1.925,6.1h8.5a.471.471,0,0,1,.47.47v1.409a.471.471,0,0,1-.47.47h-10.8a10.475,10.475,0,0,1-6.387,2.16A10.932,10.932,0,0,1,21,29.2V45.307a2.606,2.606,0,0,0,2.583,2.583H36.168L46.875,32.674Zm-10.284,20.8a.471.471,0,0,1-.47.47H26.776a.471.471,0,0,1-.47-.47V39.578a.471.471,0,0,1,.47-.47h9.3a.471.471,0,0,1,.47.47v1.409ZM41.146,33.9a.471.471,0,0,1-.47.47h-13.9a.471.471,0,0,1-.47-.47V32.486a.471.471,0,0,1,.47-.47h13.9a.471.471,0,0,1,.47.47Z" transform="translate(-15.177 -10.509)" fill="#bf302e"/>
  <path id="Path_19813" data-name="Path 19813" d="M59,68.73l4.649,3.287,7.842-11.13L66.842,57.6Z" transform="translate(-35.332 -31.725)" fill="#bf302e"/>
  <path id="Path_19814" data-name="Path 19814" d="M84.011,51.642l-3.522-2.489a.7.7,0,0,0-.986.188L78,51.454l4.7,3.287,1.5-2.113A.688.688,0,0,0,84.011,51.642Z" transform="translate(-45.409 -27.175)" fill="#bf302e"/>
  <path id="Path_19815" data-name="Path 19815" d="M54.327,86.162a.787.787,0,0,0-.141.564l.141,3.24a.892.892,0,0,0,1.127.8l3.1-.939a1.073,1.073,0,0,0,.47-.329l.986-1.409-4.7-3.287Z" transform="translate(-32.772 -46.151)" fill="#bf302e"/>
  <path id="Path_19816" data-name="Path 19816" d="M25.224,10.812a8.312,8.312,0,1,0-8.312,8.359A8.3,8.3,0,0,0,25.224,10.812Zm-9.251,3.569a1.176,1.176,0,0,1-.845-.376l-2.395-2.536a1.129,1.129,0,0,1,1.644-1.55l1.55,1.644,3.381-3.616A1.129,1.129,0,0,1,20.951,9.5l-4.133,4.508A1.176,1.176,0,0,1,15.973,14.381Z" transform="translate(-8.6 -2.5)" fill="#bf302e"/>
</svg>
