<svg id="noun_online_graduation_3859294" data-name="noun_online graduation_3859294" xmlns="http://www.w3.org/2000/svg" width="29.586" height="24.458" viewBox="0 0 29.586 24.458">
  <path id="Path_14929" data-name="Path 14929" d="M33.455,12.79H6.127A1.129,1.129,0,0,0,5,13.917v18.95a1.12,1.12,0,0,0,1.121,1.121h9.752c.01.016.013.023.026.043l-1.216,2.593a.436.436,0,0,0,.394.624H24.5a.438.438,0,0,0,.394-.624l-1.216-2.593c.01-.016.013-.023.026-.043h9.749a1.129,1.129,0,0,0,1.127-1.127V13.917A1.134,1.134,0,0,0,33.455,12.79Zm-.621,16.37a.286.286,0,0,1-.286.286H7.035a.286.286,0,0,1-.286-.286V14.943a.286.286,0,0,1,.286-.286H32.551a.286.286,0,0,1,.286.286V29.16Z" transform="translate(-5 -12.79)" fill="#b1524f"/>
  <path id="Path_14930" data-name="Path 14930" d="M46.457,29.83l-.181.072-2.6,1.052a.254.254,0,0,1-.171,0L40.889,29.9l-.171-.069a.112.112,0,0,0-.158.105V30.9a.7.7,0,0,0-.062.69c.187.647.486.71.634.7a3.489,3.489,0,0,0,2.16,2.179H43.3a.823.823,0,0,0,.283.046.854.854,0,0,0,.286-.046h0a3.494,3.494,0,0,0,2.163-2.179c.151.013.447-.049.634-.7a.685.685,0,0,0-.062-.684v-.97A.106.106,0,0,0,46.457,29.83Z" transform="translate(-28.793 -24.224)" fill="#b1524f"/>
  <path id="Path_14931" data-name="Path 14931" d="M37.283,21.9l1.528.618,2.524,1.019a.212.212,0,0,0,.168,0l2.518-1.019,1.532-.618a.106.106,0,0,0,0-.2L41.5,20.06a.245.245,0,0,0-.168,0L37.28,21.7A.107.107,0,0,0,37.283,21.9Z" transform="translate(-26.627 -17.661)" fill="#b1524f"/>
  <path id="Path_14932" data-name="Path 14932" d="M59.936,31.805h.339c.007,0,.013-.007.01-.013l-.191-1.006a.732.732,0,0,1-.01-.089v-.076a.532.532,0,0,0,0-.072.861.861,0,0,0,0-.092c0-.036,0-.072,0-.108s0-.082,0-.122,0-.089,0-.131,0-.092,0-.138,0-.092,0-.141,0-.092,0-.141,0-.092,0-.135,0-.085,0-.128,0-.079,0-.118,0-.069,0-.105a.8.8,0,0,0,0-.089c0-.023,0-.082,0-.1,0,0,0-.039-.03-.02l-.105.053c-.033.016-.039.026-.039.056V30.7a.431.431,0,0,1-.01.089L59.68,31.8c0,.007,0,.013.01.013h.141a.009.009,0,0,0,.01-.01l.053-.243c0-.013.02-.01.02,0v.24C59.923,31.8,59.93,31.805,59.936,31.805Z" transform="translate(-41.707 -23.655)" fill="#b1524f"/>
  <path id="Path_14933" data-name="Path 14933" d="M41.8,47c-.3-.066-.49-.085-.49-.085a2.122,2.122,0,0,1-1.1-.421.191.191,0,0,0-.293.069l-1.555,1.794a.1.1,0,0,1-.151,0l-1.555-1.794a.193.193,0,0,0-.293-.069,2.072,2.072,0,0,1-1.1.421s-.187.023-.49.085a2.58,2.58,0,0,0-2.209,3.063s.043.44.105,1.131H43.9c.066-.69.105-1.131.105-1.131A2.581,2.581,0,0,0,41.8,47Z" transform="translate(-23.491 -35.388)" fill="#b1524f"/>
</svg>
