<svg xmlns="http://www.w3.org/2000/svg" width="16" height="9.22" viewBox="0 0 16 9.22">
  <g id="noun-paragraph-1010522" transform="translate(-175.048 -144.177)">
    <path id="Path_19765" data-name="Path 19765" d="M190.279,149.709H175.817a.769.769,0,0,1-.769-.769v-.307a.769.769,0,0,1,.769-.769h14.462a.769.769,0,0,1,.769.769v.307A.769.769,0,0,1,190.279,149.709Zm-14.462-5.532h11.389a.768.768,0,0,1,.768.768v.307a.768.768,0,0,1-.768.768H175.817a.769.769,0,0,1-.769-.768v-.307A.769.769,0,0,1,175.817,144.178Zm0,7.375h8.317a.769.769,0,0,1,.769.769v.307a.769.769,0,0,1-.769.769h-8.317a.769.769,0,0,1-.769-.769v-.307A.769.769,0,0,1,175.817,151.553Z" transform="translate(0)" fill="#555" fill-rule="evenodd"/>
  </g>
</svg>
