<svg id="Group_31523" data-name="Group 31523" xmlns="http://www.w3.org/2000/svg" width="45.772" height="26.88" viewBox="0 0 45.772 26.88">
  <g id="Group_31519" data-name="Group 31519" transform="translate(4.571 4.224)">
    <circle id="Ellipse_2728" data-name="Ellipse 2728" cx="5.969" cy="5.969" r="5.969" fill="#009b25"/>
  </g>
  <g id="Group_31520" data-name="Group 31520" transform="translate(0 14.952)">
    <path id="Path_19818" data-name="Path 19818" d="M23.58,27.807v4.8a.736.736,0,0,1-.744.744H3.244a.743.743,0,0,1-.744-.744v-4.8a6.671,6.671,0,0,1,4.8-6.385,7.459,7.459,0,0,0,11.482,0A6.65,6.65,0,0,1,23.58,27.807Z" transform="translate(-2.5 -21.422)" fill="#009b25"/>
  </g>
  <g id="Group_31522" data-name="Group 31522" transform="translate(19.525 0)">
    <g id="Group_31521" data-name="Group 31521">
      <path id="Path_19819" data-name="Path 19819" d="M47.308,13.348H29.827a4.39,4.39,0,0,0-3.1,7.49,4.341,4.341,0,0,0,1.7,1.053,5,5,0,0,1-1.633,1.531.48.48,0,0,0,.134.88,6.074,6.074,0,0,0,6.093-2.176H47.308a4.39,4.39,0,0,0,0-8.779ZM34.943,19.173a1.436,1.436,0,1,1,1.436-1.436A1.438,1.438,0,0,1,34.943,19.173Zm3.624,0A1.436,1.436,0,1,1,40,17.737,1.438,1.438,0,0,1,38.567,19.173Zm3.63,0a1.436,1.436,0,1,1,1.436-1.436A1.434,1.434,0,0,1,42.2,19.173Z" transform="translate(-25.443 -13.348)" fill="#009b25"/>
    </g>
  </g>
</svg>
