<svg xmlns="http://www.w3.org/2000/svg" width="607.166" height="418.704" viewBox="0 0 607.166 418.704">
  <g id="Group_30673" data-name="Group 30673" transform="translate(-709.526 -346.449)">
    <g id="undraw_Success_factors_re_ce93" transform="translate(772.464 416.441)">
      <rect id="Rectangle_9571" data-name="Rectangle 9571" width="383.818" height="245.814" transform="translate(0.164 0.218)" fill="#e6e6e6"/>
      <rect id="Rectangle_9572" data-name="Rectangle 9572" width="361.868" height="93.706" transform="translate(11.139 31.049)" fill="#fff"/>
      <rect id="Rectangle_9573" data-name="Rectangle 9573" width="76.527" height="4.393" transform="translate(101.15 44.584)" fill="#e6e6e6"/>
      <rect id="Rectangle_9574" data-name="Rectangle 9574" width="118.174" height="4.393" transform="translate(101.15 60.608)" fill="#f60"/>
      <rect id="Rectangle_9575" data-name="Rectangle 9575" width="96.309" height="4.393" transform="translate(101.15 75.706)" fill="#e6e6e6"/>
      <rect id="Rectangle_9576" data-name="Rectangle 9576" width="56.224" height="4.393" transform="translate(101.15 90.746)" fill="#e6e6e6"/>
      <rect id="Rectangle_9577" data-name="Rectangle 9577" width="84.856" height="4.393" transform="translate(101.15 105.785)" fill="#e6e6e6"/>
      <rect id="Rectangle_9578" data-name="Rectangle 9578" width="9.371" height="9.371" transform="translate(66.27 43.022)" fill="#e6e6e6"/>
      <rect id="Rectangle_9579" data-name="Rectangle 9579" width="9.371" height="9.371" transform="translate(66.27 58.12)" fill="#f60"/>
      <rect id="Rectangle_9580" data-name="Rectangle 9580" width="9.371" height="9.371" transform="translate(66.27 73.216)" fill="#e6e6e6"/>
      <rect id="Rectangle_9581" data-name="Rectangle 9581" width="9.371" height="9.371" transform="translate(66.27 88.314)" fill="#e6e6e6"/>
      <rect id="Rectangle_9582" data-name="Rectangle 9582" width="9.371" height="9.371" transform="translate(66.27 103.411)" fill="#e6e6e6"/>
      <rect id="Rectangle_9583" data-name="Rectangle 9583" width="31.235" height="31.235" transform="translate(291.166 64.366)" fill="#e6e6e6"/>
      <rect id="Rectangle_9584" data-name="Rectangle 9584" width="361.868" height="93.706" transform="translate(11.139 137.77)" fill="#fff"/>
      <rect id="Rectangle_9585" data-name="Rectangle 9585" width="9.371" height="9.371" transform="translate(82.409 146.098)" fill="#e6e6e6"/>
      <rect id="Rectangle_9586" data-name="Rectangle 9586" width="9.371" height="9.371" transform="translate(66.27 146.098)" fill="#f60"/>
      <path id="Path_19329" data-name="Path 19329" d="M485.124,418.705a35.484,35.484,0,0,0-57.282-5.292l-2.284-2a38.511,38.511,0,0,1,62.175,5.742Z" transform="translate(-259.973 -252.116)" fill="#e6e6e6"/>
      <path id="Path_19330" data-name="Path 19330" d="M535.27,473.983l-2.517-1.692a35.5,35.5,0,0,0,1.088-37.814l2.61-1.545A38.534,38.534,0,0,1,535.27,473.983Z" transform="translate(-308.69 -267.887)" fill="#f60"/>
      <path id="Path_19331" data-name="Path 19331" d="M417.957,473.423a38.508,38.508,0,0,1-.316-51.018l2.284,2a35.476,35.476,0,0,0,.291,47Z" transform="translate(-252.055 -263.102)" fill="#f60"/>
      <path id="Path_19332" data-name="Path 19332" d="M454.833,523.824A38.573,38.573,0,0,1,426.138,511l2.259-2.023a35.483,35.483,0,0,0,55.9-3.894l2.517,1.692a38.489,38.489,0,0,1-31.984,17.052Z" transform="translate(-260.236 -300.676)" fill="#f60"/>
      <rect id="Rectangle_9587" data-name="Rectangle 9587" width="31.235" height="31.235" transform="translate(291.166 166.402)" fill="#e6e6e6"/>
      <rect id="Rectangle_9588" data-name="Rectangle 9588" width="31.235" height="31.235" transform="translate(64.969 186.705)" fill="#e6e6e6"/>
      <rect id="Rectangle_9589" data-name="Rectangle 9589" width="383.818" height="16.306" fill="#f60"/>
      <ellipse id="Ellipse_2639" data-name="Ellipse 2639" cx="3.022" cy="3.022" rx="3.022" ry="3.022" transform="translate(9.095 5.314)" fill="#fff"/>
      <ellipse id="Ellipse_2640" data-name="Ellipse 2640" cx="3.022" cy="3.022" rx="3.022" ry="3.022" transform="translate(20.567 5.314)" fill="#fff"/>
      <ellipse id="Ellipse_2641" data-name="Ellipse 2641" cx="3.022" cy="3.022" rx="3.022" ry="3.022" transform="translate(32.038 5.314)" fill="#fff"/>
      <path id="Path_19333" data-name="Path 19333" d="M817.167,598.735h7.77l3.7-29.971H817.165Z" transform="translate(-371.381 -258.489)" fill="#ffb8b8"/>
      <path id="Path_19334" data-name="Path 19334" d="M935.558,749.442h15.3a9.752,9.752,0,0,1,9.752,9.751v.317H935.559Z" transform="translate(-491.755 -411.732)" fill="#2f2e41"/>
      <path id="Path_19335" data-name="Path 19335" d="M781.694,551.341l5.734,5.244,22.955-19.621-8.463-7.739Z" transform="translate(-355.26 -240.519)" fill="#ffb8b8"/>
      <path id="Path_19336" data-name="Path 19336" d="M898.514,694.271,909.807,704.6h0a9.752,9.752,0,0,1,.615,13.777l-.214.234L891.719,701.7Z" transform="translate(-471.831 -386.659)" fill="#2f2e41"/>
      <path id="Path_19337" data-name="Path 19337" d="M817.08,424.35l-2.2,44.045,5.506,47.9-16.517,2.2-10.461-60.562-3.3-41.293Z" transform="translate(-359.082 -189.354)" fill="#2f2e41"/>
      <path id="Path_19338" data-name="Path 19338" d="M964.979,513.086s6.607,43.495-7.157,57.81-32.484,39.641-32.484,39.641l-13.212-16.518,33.584-35.787L939.1,534.007l-26.978-12.663,4.4-30.281,39.641-.551Z" transform="translate(-481.105 -294.056)" fill="#2f2e41"/>
      <ellipse id="Ellipse_2642" data-name="Ellipse 2642" cx="13.484" cy="13.484" rx="13.484" ry="13.484" transform="translate(440.074 91.309)" fill="#ffb8b8"/>
      <path id="Path_19339" data-name="Path 19339" d="M830.245,227.224l2.065,3.129,5.506,15.416-4.4,60.012-25.877.551-3.3-68.821,6.92-8.65Z" transform="translate(-365.503 -103.268)" fill="#ffa66c"/>
      <path id="Path_19340" data-name="Path 19340" d="M896.072,379.037l-4.4-.551s-1.1.551-1.651,4.4-7.157,37.989-7.157,37.989l8.809,41.843,9.91-13.214-6.056-23.124,6.056-23.124Z" transform="translate(-467.804 -243.143)" fill="#2f2e41"/>
      <path id="Path_19341" data-name="Path 19341" d="M882.495,248.1h3.3l8.259,44.6-7.708,34.686-7.708-12.663,2.2-13.764-1.1-12.112-3.854-7.158Z" transform="translate(-398.069 -112.755)" fill="#2f2e41"/>
      <path id="Path_19342" data-name="Path 19342" d="M948.131,305.072l-2.452-.613s-1.839-10.419-6.129-9.194-15.323,2.452-15.323-2.452,10.419-9.194,16.548-8.581,13.957,2.646,15.936,11.645c3.172,14.426-6.545,18.07-6.545,18.07l.162-.525a8.181,8.181,0,0,0-2.2-8.351Z" transform="translate(-486.605 -200.28)" fill="#2f2e41"/>
      <path id="Path_19343" data-name="Path 19343" d="M900.015,368.624l17.618-7.157,4.129-3.028L934.15,413.22l8.259-24.776-2.478-31.658,22.849,11.837-7.708,37.438-1.1,14.315,3.3,11.562s11.562,8.258,7.708,17.068-8.259,9.36-8.259,9.36S938,440.749,936.9,436.344s-2.753-12.112-2.753-12.112-9.36,35.236-20.371,34.686-11.011-12.112-11.011-12.112l2.753-12.113,4.4-12.663-2.2-20.922Z" transform="translate(-475.601 -233.281)" fill="#2f2e41"/>
      <path id="Path_19344" data-name="Path 19344" d="M954.726,768.7h-146.2a.545.545,0,1,1,0-1.091h146.2a.545.545,0,1,1,0,1.091Z" transform="translate(-433.774 -419.991)" fill="#ccc"/>
    </g>
    <ellipse id="Ellipse_2501" data-name="Ellipse 2501" cx="7.225" cy="7.225" rx="7.225" ry="7.225" transform="translate(709.526 445.816)" fill="#ffa970"/>
    <g id="Ellipse_2502" data-name="Ellipse 2502" transform="translate(765.239 353.839)" fill="none" stroke="#ffa970" stroke-width="1">
      <ellipse cx="7.225" cy="7.225" rx="7.225" ry="7.225" stroke="none"/>
      <ellipse cx="7.225" cy="7.225" rx="6.725" ry="6.725" fill="none"/>
    </g>
    <g id="Ellipse_2503" data-name="Ellipse 2503" transform="translate(1133.771 374.275)" fill="none" stroke="#ffa970" stroke-width="1">
      <ellipse cx="7.225" cy="7.225" rx="7.225" ry="7.225" stroke="none"/>
      <ellipse cx="7.225" cy="7.225" rx="6.725" ry="6.725" fill="none"/>
    </g>
    <ellipse id="Ellipse_2504" data-name="Ellipse 2504" cx="7.225" cy="7.225" rx="7.225" ry="7.225" transform="translate(1302.241 583.571)" fill="#ffa970"/>
    <ellipse id="Ellipse_2643" data-name="Ellipse 2643" cx="7.225" cy="7.225" rx="7.225" ry="7.225" transform="translate(845.792 716.902)" fill="#ffa970"/>
    <g id="Group_30003" data-name="Group 30003" transform="translate(723.977 645.351)">
      <path id="Path_15395" data-name="Path 15395" d="M-1467.094-17234.379v12.779" transform="translate(1473.484 17234.379)" fill="none" stroke="#f60" stroke-linecap="round" stroke-width="2"/>
      <path id="Path_15396" data-name="Path 15396" d="M0,0V12.779" transform="translate(12.779 6.389) rotate(90)" fill="none" stroke="#f60" stroke-linecap="round" stroke-width="2"/>
    </g>
    <g id="Group_30006" data-name="Group 30006" transform="translate(1128.966 689.36)">
      <path id="Path_15395-2" data-name="Path 15395" d="M-1467.094-17234.379v9.609" transform="translate(1471.899 17234.379)" fill="none" stroke="#f60" stroke-linecap="round" stroke-width="2"/>
      <path id="Path_15396-2" data-name="Path 15396" d="M0,0V9.609" transform="translate(9.609 4.804) rotate(90)" fill="none" stroke="#f60" stroke-linecap="round" stroke-width="2"/>
    </g>
    <g id="Group_30004" data-name="Group 30004" transform="translate(1009.624 347.448)">
      <path id="Path_15395-3" data-name="Path 15395" d="M-1467.094-17234.379v12.779" transform="translate(1473.484 17234.379)" fill="none" stroke="#f60" stroke-linecap="round" stroke-width="2"/>
      <path id="Path_15396-3" data-name="Path 15396" d="M0,0V12.779" transform="translate(12.779 6.389) rotate(90)" fill="none" stroke="#f60" stroke-linecap="round" stroke-width="2"/>
    </g>
    <g id="Group_30005" data-name="Group 30005" transform="translate(1246.987 460.267)">
      <path id="Path_15395-4" data-name="Path 15395" d="M-1467.094-17234.379v12.779" transform="translate(1473.484 17234.379)" fill="none" stroke="#f60" stroke-linecap="round" stroke-width="2"/>
      <path id="Path_15396-4" data-name="Path 15396" d="M0,0V12.779" transform="translate(12.779 6.389) rotate(90)" fill="none" stroke="#f60" stroke-linecap="round" stroke-width="2"/>
    </g>
  </g>
</svg>
