<svg xmlns="http://www.w3.org/2000/svg" width="22.017" height="13.634" viewBox="0 0 22.017 13.634">
  <g id="Group_27200" data-name="Group 27200" transform="translate(-181 309.81) rotate(-90)">
    <path id="Path_1970" data-name="Path 1970" d="M154.466,5.95,148.877.361a1.228,1.228,0,0,0-1.737,0L141.552,5.95a1.228,1.228,0,0,0,1.737,1.737l4.72-4.72,4.72,4.72a1.228,1.228,0,1,0,1.737-1.737Z" transform="translate(154.984 180.998)"/>
    <path id="Path_1971" data-name="Path 1971" d="M236.546,0a1.228,1.228,0,0,0-1.228,1.228V20.789a1.228,1.228,0,0,0,2.456,0V1.228A1.228,1.228,0,0,0,236.546,0Z" transform="translate(66.449 181)"/>
  </g>
</svg>
