<svg xmlns="http://www.w3.org/2000/svg" width="16.5" height="21.3" viewBox="0 0 16.5 21.3">
  <path id="Path_19394" data-name="Path 19394" d="M17.458,10.3V7.1a5.333,5.333,0,0,0-10.667,0v3.2a2.67,2.67,0,0,0-2.667,2.667V19.9a2.67,2.67,0,0,0,2.667,2.667H17.458A2.67,2.67,0,0,0,20.125,19.9V12.963A2.67,2.67,0,0,0,17.458,10.3Zm-9.6-3.2a4.267,4.267,0,0,1,8.533,0v3.2H7.858Zm11.2,12.8a1.6,1.6,0,0,1-1.6,1.6H6.792a1.6,1.6,0,0,1-1.6-1.6V12.962a1.6,1.6,0,0,1,1.6-1.6H17.458a1.6,1.6,0,0,1,1.6,1.6Z" transform="translate(-3.875 -1.513)" fill="#7e8ba9" stroke="#7e8ba9" stroke-width="0.5"/>
</svg>
