<svg xmlns="http://www.w3.org/2000/svg" width="12" height="12" viewBox="0 0 12 12">
  <g id="Group_27147" data-name="Group 27147" transform="translate(-22 -974.362)">
    <path id="Path_14562" data-name="Path 14562" d="M28,974.362a6,6,0,1,0,6,6A6.007,6.007,0,0,0,28,974.362Zm0,.857a5.143,5.143,0,1,1-5.143,5.143A5.137,5.137,0,0,1,28,975.219Zm0,1.5a.429.429,0,0,0-.429.429v3.214a.523.523,0,0,0,.187.355l1.908,1.915a.426.426,0,1,0,.6-.6l-1.842-1.841v-3.04A.429.429,0,0,0,28,976.719Z" transform="translate(0 0)" fill="rgba(85,85,85,0.8)"/>
  </g>
</svg>
