<svg xmlns="http://www.w3.org/2000/svg" width="12" height="12" viewBox="0 0 12 12">
  <g id="Group_27149" data-name="Group 27149" transform="translate(-2758 -2307)">
    <path id="Path_14563" data-name="Path 14563" d="M6,.5A5.5,5.5,0,1,1,.5,6,5.507,5.507,0,0,1,6,.5ZM6,0a6,6,0,1,0,6,6A6,6,0,0,0,6,0Z" transform="translate(2758 2307)" fill="rgba(85,85,85,0.8)"/>
    <path id="Path_14564" data-name="Path 14564" d="M32.279,31.6a.276.276,0,0,1-.14-.038.281.281,0,0,1-.14-.243v-5.83a.281.281,0,0,1,.14-.243.276.276,0,0,1,.279,0l5.026,2.914a.281.281,0,0,1,0,.486l-5.026,2.914A.267.267,0,0,1,32.279,31.6Zm.279-5.623v4.857L36.747,28.4Z" transform="translate(2729.666 2284.598)" fill="rgba(85,85,85,0.8)"/>
  </g>
</svg>
