<?xml version="1.0" standalone="no"?>
<!DOCTYPE svg PUBLIC "-//W3C//DTD SVG 20010904//EN"
 "http://www.w3.org/TR/2001/REC-SVG-20010904/DTD/svg10.dtd">
<svg version="1.0" xmlns="http://www.w3.org/2000/svg"
 width="40.000000pt" height="26.000000pt" viewBox="0 0 40.000000 26.000000"
 preserveAspectRatio="xMidYMid meet">

<g transform="translate(0.000000,26.000000) scale(0.100000,-0.100000)"
fill="#000000" stroke="none">
<path d="M240 232 c0 -5 13 -21 30 -37 16 -15 27 -32 24 -37 -3 -4 -70 -8
-150 -8 -89 0 -144 -4 -144 -10 0 -6 55 -10 144 -10 80 0 147 -4 150 -8 3 -5
-8 -22 -24 -37 -29 -27 -40 -51 -21 -43 4 2 32 25 61 51 l53 48 -48 49 c-45
46 -75 62 -75 42z"/>
</g>
</svg>
