<svg xmlns="http://www.w3.org/2000/svg" width="22.018" height="13.634" viewBox="0 0 22.018 13.634">
  <g id="Group_29180" data-name="Group 29180" transform="translate(0 13.634) rotate(-90)">
    <path id="Path_1970" data-name="Path 1970" d="M13.274,2.1,7.685,7.685a1.228,1.228,0,0,1-1.737,0L.36,2.1A1.228,1.228,0,0,1,2.1.36l4.72,4.72L11.537.36A1.228,1.228,0,1,1,13.274,2.1Z" transform="translate(0 13.973)" fill="#f60"/>
    <path id="Path_1971" data-name="Path 1971" d="M1.228,22.017A1.228,1.228,0,0,1,0,20.789V1.228a1.228,1.228,0,0,1,2.456,0V20.789A1.228,1.228,0,0,1,1.228,22.017Z" transform="translate(5.59 0)" fill="#f60"/>
  </g>
</svg>
