<svg xmlns="http://www.w3.org/2000/svg" width="17.189" height="17.19" viewBox="0 0 17.189 17.19">
  <g id="_28._Goal" data-name="28. Goal" transform="translate(-6.744 -6.735)">
    <path id="Path_15113" data-name="Path 15113" d="M19.921,17.622h0l-4.249-6.36v-1.6a1.567,1.567,0,0,1,1.1.267,3.424,3.424,0,0,0,1.9.43.333.333,0,0,0,.334-.333v-2a.333.333,0,0,0-.334-.333,3.239,3.239,0,0,1-1.432-.235,2.5,2.5,0,0,0-1.959-.426A.347.347,0,0,0,15,7.369v3.893l-7.948,11.9a.333.333,0,0,0,.277.517H23.342a.333.333,0,0,0,.277-.517ZM7.957,23.01l4.01-6,1.3-.589,1.5,1.5a.337.337,0,0,0,.28.095.333.333,0,0,0,.245-.165l1.091-1.9,1.027,1.282a.335.335,0,0,0,.137.1l1.875.748,3.3,4.933ZM18.34,9.689a2.534,2.534,0,0,1-1.1-.226A2.021,2.021,0,0,0,15.821,9c-.052,0-.1,0-.15,0V7.67a1.562,1.562,0,0,1,1.1.267,2.779,2.779,0,0,0,1.57.422ZM18.77,17.1l-.892-.356-1.279-1.6a.334.334,0,0,0-.55.043l-1.117,1.951-1.359-1.356a.334.334,0,0,0-.374-.068l-.531.241,2.67-4Z" fill="#555" stroke="#555" stroke-width="0.5"/>
  </g>
</svg>
