<svg xmlns="http://www.w3.org/2000/svg" width="16.665" height="16.665" viewBox="0 0 16.665 16.665"><defs><style>.a{fill:#555;}</style></defs><path class="a" d="M15.877,7.132a1.908,1.908,0,0,1-.568-.669,1.958,1.958,0,0,1,.159-.9,1.761,1.761,0,0,0,.081-1.4,1.779,1.779,0,0,0-1.265-.635,1.932,1.932,0,0,1-.846-.306,1.932,1.932,0,0,1-.3-.845A1.776,1.776,0,0,0,12.5,1.116a1.761,1.761,0,0,0-1.4.081,1.962,1.962,0,0,1-.9.159A1.909,1.909,0,0,1,9.534.787C9.183.4,8.821,0,8.332,0s-.851.4-1.2.787a1.908,1.908,0,0,1-.669.568,1.963,1.963,0,0,1-.9-.159,1.761,1.761,0,0,0-1.4-.081A1.779,1.779,0,0,0,3.531,2.38a1.932,1.932,0,0,1-.306.846,1.932,1.932,0,0,1-.845.3,1.776,1.776,0,0,0-1.265.635,1.761,1.761,0,0,0,.081,1.4,1.957,1.957,0,0,1,.159.9,1.909,1.909,0,0,1-.568.668C.4,7.481,0,7.843,0,8.332s.4.851.787,1.2a1.908,1.908,0,0,1,.568.669,1.958,1.958,0,0,1-.159.9,1.761,1.761,0,0,0-.081,1.4,1.779,1.779,0,0,0,1.265.635,1.932,1.932,0,0,1,.846.3,1.932,1.932,0,0,1,.3.845,1.776,1.776,0,0,0,.635,1.265,1.761,1.761,0,0,0,1.4-.081,1.962,1.962,0,0,1,.9-.159,1.909,1.909,0,0,1,.668.568c.35.387.712.787,1.2.787s.851-.4,1.2-.787a1.908,1.908,0,0,1,.669-.568,1.963,1.963,0,0,1,.9.159,1.76,1.76,0,0,0,1.4.081,1.779,1.779,0,0,0,.635-1.265,1.932,1.932,0,0,1,.3-.846,1.932,1.932,0,0,1,.845-.3,1.776,1.776,0,0,0,1.265-.635,1.761,1.761,0,0,0-.081-1.4,1.957,1.957,0,0,1-.159-.9,1.909,1.909,0,0,1,.568-.668c.387-.35.787-.712.787-1.2S16.265,7.481,15.877,7.132ZM15.5,9.122a2.194,2.194,0,0,0-.732.937,2.257,2.257,0,0,0,.167,1.212c.119.372.24.757.129.951s-.516.287-.9.37a2.226,2.226,0,0,0-1.121.454,2.229,2.229,0,0,0-.454,1.121c-.083.386-.169.785-.37.9s-.58-.01-.951-.129a2.262,2.262,0,0,0-1.212-.167,2.192,2.192,0,0,0-.937.732c-.269.3-.547.6-.79.6s-.52-.307-.79-.6a2.194,2.194,0,0,0-.937-.732,1.1,1.1,0,0,0-.282-.035h0a3.206,3.206,0,0,0-.93.2c-.373.119-.757.24-.951.129s-.287-.516-.37-.9a2.226,2.226,0,0,0-.454-1.121A2.229,2.229,0,0,0,2.5,12.59c-.386-.083-.785-.169-.9-.37s.01-.578.129-.95a2.257,2.257,0,0,0,.167-1.212,2.192,2.192,0,0,0-.732-.937c-.3-.269-.6-.547-.6-.79s.307-.52.605-.79a2.194,2.194,0,0,0,.732-.937,2.257,2.257,0,0,0-.167-1.212c-.119-.372-.24-.757-.129-.951s.516-.287.9-.37A2.226,2.226,0,0,0,3.62,3.619,2.229,2.229,0,0,0,4.074,2.5c.083-.386.169-.785.37-.9s.578.01.95.129a2.255,2.255,0,0,0,1.212.167,2.192,2.192,0,0,0,.937-.732c.269-.3.547-.6.79-.6s.52.307.79.6a2.194,2.194,0,0,0,.937.732,2.26,2.26,0,0,0,1.212-.167c.372-.119.757-.24.951-.129s.287.516.37.9a2.226,2.226,0,0,0,.454,1.121,2.229,2.229,0,0,0,1.121.454c.386.083.785.169.9.37s-.01.579-.129.951a2.257,2.257,0,0,0-.167,1.212,2.192,2.192,0,0,0,.732.937c.3.269.6.547.6.79S15.8,8.853,15.5,9.122Z"/><path class="a" d="M232.278,65.111a.278.278,0,0,0,.278-.278v-.555a.278.278,0,0,0-.556,0v.555A.278.278,0,0,0,232.278,65.111Z" transform="translate(-223.945 -61.778)"/><path class="a" d="M188.621,70.411a.278.278,0,0,0,.268.206.271.271,0,0,0,.072-.009.278.278,0,0,0,.2-.34l-.144-.537,0-.014a.278.278,0,0,0-.532.158Z" transform="translate(-181.923 -67.104)"/><path class="a" d="M148.484,86.6l0,0a.278.278,0,1,0-.479.281l.278.481a.278.278,0,0,0,.481-.278Z" transform="translate(-142.827 -83.455)"/><path class="a" d="M113.579,113.972a.278.278,0,1,0,.393-.393l-.393-.393-.007-.007a.278.278,0,0,0-.386.4Z" transform="translate(-109.175 -109.175)"/><path class="a" d="M113.676,339.656l-.393.393a.278.278,0,1,0,.393.393l.393-.393a.278.278,0,0,0-.393-.393Z" transform="translate(-109.272 -327.788)"/><path class="a" d="M148.7,363.715a.278.278,0,0,0-.38.1l-.278.481a.278.278,0,1,0,.481.278l.278-.481A.278.278,0,0,0,148.7,363.715Z" transform="translate(-142.869 -351.05)"/><path class="a" d="M189.013,378.865a.278.278,0,0,0-.341.195l-.144.536a.278.278,0,1,0,.536.144l.144-.537A.278.278,0,0,0,189.013,378.865Z" transform="translate(-181.974 -365.702)"/><path class="a" d="M232.278,384a.278.278,0,0,0-.278.278v.555a.278.278,0,1,0,.556,0v-.555A.278.278,0,0,0,232.278,384Z" transform="translate(-223.945 -370.668)"/><path class="a" d="M271.9,379.06a.278.278,0,0,0-.537.144l.144.537a.278.278,0,1,0,.536-.144Z" transform="translate(-261.931 -365.702)"/><path class="a" d="M283.48,410.272Z" transform="translate(-273.638 -396.028)"/><path class="a" d="M308.483,363.725l0,0A.278.278,0,1,0,308,364l.278.481a.278.278,0,0,0,.481-.278Z" transform="translate(-297.272 -350.962)"/><path class="a" d="M340.048,339.656a.278.278,0,0,0-.393.393l.393.393a.278.278,0,0,0,.393-.393Z" transform="translate(-327.788 -327.788)"/><path class="a" d="M339.76,114.054h0a.278.278,0,0,0,.2-.081l.393-.393.007-.007a.278.278,0,1,0-.4-.386l-.393.393a.278.278,0,0,0,.2.474Z" transform="translate(-327.696 -109.176)"/><path class="a" d="M308.285,87.5a.278.278,0,0,0,.241-.139l.278-.481,0,0a.278.278,0,1,0-.483-.274l-.278.481a.278.278,0,0,0,.24.417Z" transform="translate(-297.315 -83.455)"/><path class="a" d="M271.549,70.608a.271.271,0,0,0,.072.009h0a.278.278,0,0,0,.268-.206l.144-.536,0-.014a.278.278,0,0,0-.54-.129l-.144.537A.278.278,0,0,0,271.549,70.608Z" transform="translate(-261.922 -67.105)"/><path class="a" d="M194.5,179.888h-1.944V178.5h1.389a.278.278,0,1,0,0-.555h-1.389v-1.389H194.5a.278.278,0,0,0,0-.555h-2.222a.278.278,0,0,0-.278.278v3.888a.278.278,0,0,0,.278.278H194.5a.278.278,0,0,0,0-.555Z" transform="translate(-185.334 -169.89)"/><path class="a" d="M74.859,180.339a.271.271,0,0,0,.068.059l.028.018a.272.272,0,0,0,.116.028.278.278,0,0,0,.1-.019l.031-.015.034-.017c.006,0,.009-.011.015-.016a.262.262,0,0,0,.04-.042.218.218,0,0,0,.046-.091.286.286,0,0,0,.011-.056c0-.008,0-.014,0-.022v-3.888a.278.278,0,0,0-.277-.278h0a.278.278,0,0,0-.278.278V179.3l-2.274-3.183c0-.006-.011-.009-.016-.015a.26.26,0,0,0-.042-.04.28.28,0,0,0-.042-.028.286.286,0,0,0-.048-.018.254.254,0,0,0-.056-.011c-.007,0-.014,0-.022,0l-.028.006a.261.261,0,0,0-.056.011.283.283,0,0,0-.052.023l-.026.012c-.006,0-.009.011-.015.016a.261.261,0,0,0-.04.042.273.273,0,0,0-.028.042.267.267,0,0,0-.018.049.283.283,0,0,0-.011.056c0,.008,0,.014,0,.022v3.887a.278.278,0,1,0,.555,0v-3.022l2.274,3.183C74.849,180.333,74.855,180.335,74.859,180.339Z" transform="translate(-69.516 -169.89)"/><path class="a" d="M284.221,176h0a.278.278,0,0,0-.33.213h0l-.62,2.894-.789-2.367a.278.278,0,0,0-.528,0l-.788,2.367-.62-2.894a.278.278,0,1,0-.543.117l.833,3.888a.277.277,0,0,0,.534.029l.849-2.542.848,2.542a.278.278,0,0,0,.263.19h.016a.278.278,0,0,0,.256-.219l.833-3.888A.278.278,0,0,0,284.221,176Z" transform="translate(-270.275 -169.885)"/></svg>