<svg xmlns="http://www.w3.org/2000/svg" width="14.783" height="20" viewBox="0 0 14.783 20"><defs><style>.a{fill:#555;}</style></defs><g transform="translate(-26.609 -13)"><g transform="translate(10.609 -943.362)"><path class="a" d="M16.435,956.362A.452.452,0,0,0,16,956.8v19.13a.453.453,0,0,0,.435.435H30.348a.452.452,0,0,0,.435-.435V959.84a.435.435,0,0,0-.129-.306l-3.043-3.044a.44.44,0,0,0-.306-.129Zm.435.87h10v2.609a.446.446,0,0,0,.435.435h2.609v15.218H16.87Zm10.87.618,1.556,1.556H27.739Z" transform="translate(0 0)"/><path class="a" d="M16.435,956.362A.452.452,0,0,0,16,956.8v19.13a.453.453,0,0,0,.435.435H30.348a.452.452,0,0,0,.435-.435V959.84a.435.435,0,0,0-.129-.306l-3.043-3.044a.44.44,0,0,0-.306-.129Zm.435.87h10v2.609a.446.446,0,0,0,.435.435h2.609v15.218H16.87Zm10.87.618,1.556,1.556H27.739Z" transform="translate(0 0)"/></g><rect class="a" width="5" height="1" rx="0.5" transform="translate(29 16.5)"/><rect class="a" width="7" height="1" rx="0.5" transform="translate(29 19.5)"/><path class="a" d="M.5,0h8a.5.5,0,0,1,0,1H.5a.5.5,0,0,1,0-1Z" transform="translate(29 22.5)"/><g transform="translate(33.119 25.418)"><path class="a" d="M4.792,7.585A2.792,2.792,0,1,1,7.585,4.792,2.795,2.795,0,0,1,4.792,7.585Zm0-5.119A2.327,2.327,0,1,0,7.119,4.792,2.328,2.328,0,0,0,4.792,2.465Z" transform="translate(-2 -2)"/><path class="a" d="M7.729,8.863A.227.227,0,0,1,7.5,8.634V7.079a.229.229,0,0,1,.457,0V8.634A.229.229,0,0,1,7.729,8.863Z" transform="translate(-4.936 -5.558)"/><path class="a" d="M7.733,5.293A.245.245,0,0,1,7.5,5.055V5.019a.221.221,0,0,1,.224-.22h0a.239.239,0,0,1,.229.229v.05A.209.209,0,0,1,7.733,5.293Z" transform="translate(-4.936 -1.014)"/></g></g></svg>