<svg xmlns="http://www.w3.org/2000/svg" width="16.437" height="16.151" viewBox="0 0 16.437 16.151"><defs><style>.a{fill:#555;}</style></defs><g transform="translate(-1.529 -1.954)"><g transform="translate(1.529 1.954)"><path class="a" d="M2.274,2.828l15.236-.034-.42-.42.036,15.288.42-.42q-7.714.065-15.427-.051l.42.42q-.168-7.6-.17-15.209a.42.42,0,0,0-.84,0q0,7.605.17,15.209a.427.427,0,0,0,.42.42q7.713.116,15.427.051a.426.426,0,0,0,.42-.42L17.929,2.374a.426.426,0,0,0-.42-.42L2.274,1.988a.42.42,0,0,0,0,.84Z" transform="translate(-1.529 -1.954)"/></g><g transform="translate(1.734 5.61)"><path class="a" d="M2.528,13.723l14.954.015a.433.433,0,0,0,0-.864L2.528,12.858a.433.433,0,0,0,0,.864Z" transform="translate(-2.123 -12.858)"/></g><g transform="translate(3.664 3.625)"><path class="a" d="M8.123,7.653H9.218a.432.432,0,0,0,0-.864H8.123a.432.432,0,0,0,0,.864Z" transform="translate(-7.706 -6.788)"/></g><g transform="translate(5.976 3.625)"><path class="a" d="M16.207,7.653h9.1a.432.432,0,0,0,0-.864h-9.1a.432.432,0,0,0,0,.864Z" transform="translate(-15.789 -6.788)"/></g><g transform="translate(3.415 8.136)"><path class="a" d="M10.2,20.908l-3.086,3.13a.437.437,0,0,0,0,.611A42.18,42.18,0,0,1,10.254,27.8c.372.415.981-.2.611-.611a42.183,42.183,0,0,0-3.142-3.156v.611l3.086-3.13c.391-.4-.22-1.008-.611-.611Z" transform="translate(-6.987 -20.779)"/></g><g transform="translate(8.01 8.278)"><path class="a" d="M23.921,21.389C22.7,23.311,22.21,25.53,21.055,27.46a.432.432,0,0,0,.746.436c1.156-1.931,1.645-4.151,2.866-6.071.3-.471-.448-.9-.746-.436Z" transform="translate(-20.991 -21.188)"/></g><g transform="translate(12.038 8.23)"><path class="a" d="M33.452,21.8a18.735,18.735,0,0,0,1.6,1.46,7.817,7.817,0,0,1,1.823,1.4l.068-.524c-1.109,1.019-1.932,2.289-3,3.345-.4.391.215,1,.611.611,1.071-1.056,1.893-2.326,3-3.345a.435.435,0,0,0,.068-.524,3.978,3.978,0,0,0-1.261-1.108,14.845,14.845,0,0,1-2.295-1.932c-.4-.391-1.008.22-.611.611Z" transform="translate(-33.324 -21.067)"/></g></g></svg>