<svg xmlns="http://www.w3.org/2000/svg" width="19.178" height="15.77" viewBox="0 0 19.178 15.77"><defs><style>.a{fill:#555;}</style></defs><g transform="translate(0 -45.484)"><g transform="translate(0 45.484)"><g transform="translate(0 0)"><path class="a" d="M17.264,52.839a1.888,1.888,0,0,0-1.66-1.872V46.131a.646.646,0,0,0-1.2-.325,7.741,7.741,0,0,1-4.782,3.571,10.164,10.164,0,0,1-2.983.395.374.374,0,0,0-.059,0H3.134a3.134,3.134,0,0,0-.3,6.254L3.874,60.3a1.253,1.253,0,0,0,1.221.96h.72A1.257,1.257,0,0,0,7.037,59.7l-.89-3.659h.427a.372.372,0,0,0,.059,0,10.165,10.165,0,0,1,2.983.395A7.741,7.741,0,0,1,14.4,60.01a.638.638,0,0,0,.554.322.663.663,0,0,0,.172-.023.639.639,0,0,0,.478-.624V54.849a1.888,1.888,0,0,0,1.66-1.872v-.138ZM6.19,59.392l.118.487a.507.507,0,0,1-.493.627H5.1a.506.506,0,0,1-.493-.387l-.991-4.076H5.376l.265,1.088H5.461a.375.375,0,0,0,0,.749h.361l.186.763H5.891a.375.375,0,1,0,0,.749ZM6.238,53.7H3.91a.375.375,0,1,0,0,.749H6.238v.84H3.124a2.385,2.385,0,0,1,.011-4.77h3.1V53.7Zm8.616-2.376v7.991A8.636,8.636,0,0,0,9.8,55.711a11.29,11.29,0,0,0-2.809-.42V50.524A11.29,11.29,0,0,0,9.8,50.1,8.636,8.636,0,0,0,14.854,46.5Zm1.66,1.649a1.139,1.139,0,0,1-.911,1.114V51.725a1.139,1.139,0,0,1,.911,1.114Z" transform="translate(0 -45.484)"/><path class="a" d="M454.261,140.8a.373.373,0,0,0,.252-.1l1.08-.984a.375.375,0,0,0-.5-.554l-1.08.984a.375.375,0,0,0,.252.652Z" transform="translate(-436.885 -135.564)"/><path class="a" d="M454.513,302.121a.375.375,0,1,0-.5.554l1.08.984a.375.375,0,1,0,.5-.554Z" transform="translate(-436.885 -292.415)"/><path class="a" d="M471.057,233.68h-.829a.375.375,0,1,0,0,.749h.829a.375.375,0,1,0,0-.749Z" transform="translate(-452.254 -226.631)"/><path class="a" d="M53.9,265.16a.374.374,0,0,0-.034-.065.386.386,0,0,0-.046-.057.39.39,0,0,0-.122-.081.4.4,0,0,0-.07-.021.372.372,0,0,0-.146,0,.38.38,0,0,0-.135.056.363.363,0,0,0-.1.1.374.374,0,0,0-.034.065.378.378,0,0,0-.021.07.37.37,0,0,0-.007.073.376.376,0,0,0,.007.073.4.4,0,0,0,.021.07.38.38,0,0,0,.034.064.358.358,0,0,0,.046.057.377.377,0,0,0,.192.1.381.381,0,0,0,.146,0,.393.393,0,0,0,.07-.021.378.378,0,0,0,.064-.035.4.4,0,0,0,.057-.047.38.38,0,0,0,.081-.121.4.4,0,0,0,.021-.07.375.375,0,0,0,.007-.073.368.368,0,0,0-.007-.073A.378.378,0,0,0,53.9,265.16Z" transform="translate(-51.188 -256.709)"/></g></g></g></svg>