<svg xmlns="http://www.w3.org/2000/svg" width="14.783" height="20" viewBox="0 0 14.783 20"><defs><style>.a{fill:#555;}</style></defs><g transform="translate(-16 -956.362)"><path class="a" d="M16.435,956.362A.452.452,0,0,0,16,956.8v19.13a.453.453,0,0,0,.435.435H30.348a.452.452,0,0,0,.435-.435V959.84a.435.435,0,0,0-.129-.306l-3.043-3.044a.44.44,0,0,0-.306-.129Zm.435.87h10v2.609a.446.446,0,0,0,.435.435h2.609v15.218H16.87Zm10.87.618,1.556,1.556H27.739Zm-9.565.9a.466.466,0,0,0-.435.435v3.043a.452.452,0,0,0,.435.435h3.913a.452.452,0,0,0,.435-.435v-3.043a.452.452,0,0,0-.435-.435Zm.435.87h3.043V961.8H18.609Zm5.217.652a.435.435,0,0,0,0,.87H26a.435.435,0,0,0,0-.87Zm-.91,3.254a.442.442,0,0,0-.319.19l-1.712,2.473-.944-.632a.438.438,0,1,0-.489.727l1.3.87a.452.452,0,0,0,.6-.115l1.957-2.826a.449.449,0,0,0,.02-.475.44.44,0,0,0-.421-.21Zm-4.742.442a.472.472,0,0,0-.435.435v3.913a.452.452,0,0,0,.435.435h3.913a.452.452,0,0,0,.435-.435v-.435a.435.435,0,1,0-.87,0H18.609V964.84h2.174a.435.435,0,1,0,0-.87Zm5.652,1.957a.435.435,0,0,0,0,.87h4.783a.435.435,0,0,0,0-.87Zm-5.652,4.131a.466.466,0,0,0-.435.435v3.044a.452.452,0,0,0,.435.435h3.913a.452.452,0,0,0,.435-.435v-3.044a.452.452,0,0,0-.435-.435Zm.435.87h3.043V973.1H18.609Zm5.217.652a.435.435,0,1,0,0,.87h4.783a.435.435,0,1,0,0-.87Z" transform="translate(0 0)"/></g></svg>