<svg xmlns="http://www.w3.org/2000/svg" width="19.313" height="14.613" viewBox="0 0 19.313 14.613"><defs><style>.a{fill:#555;}</style></defs><g transform="translate(-6.021 -16.724)"><path class="a" d="M24.481,16.724H13.655a.854.854,0,0,0-.853.853V19.8H6.874a.854.854,0,0,0-.853.853v6.81a.854.854,0,0,0,.853.853h.558v2.689a.329.329,0,0,0,.562.233l2.923-2.922H17.7a.854.854,0,0,0,.853-.853V25.24H21.4L24,27.975a.329.329,0,0,0,.568-.227V25.236a.854.854,0,0,0,.77-.849v-6.81A.855.855,0,0,0,24.481,16.724ZM17.9,27.465a.194.194,0,0,1-.194.194h-6.92a.33.33,0,0,0-.233.1L8.091,30.212V27.989a.329.329,0,0,0-.329-.329H6.874a.2.2,0,0,1-.195-.194v-6.81a.2.2,0,0,1,.195-.195H17.7a.2.2,0,0,1,.194.195v6.81Zm6.78-3.078a.2.2,0,0,1-.195.195h-.246a.329.329,0,0,0-.329.329v2.012l-2.124-2.238a.329.329,0,0,0-.239-.1H18.554V20.655A.854.854,0,0,0,17.7,19.8h-4.24V17.577a.2.2,0,0,1,.194-.195H24.481a.2.2,0,0,1,.195.195v6.81Z"/><path class="a" d="M22.043,39.985H13.508a.329.329,0,1,0,0,.659h8.535a.329.329,0,1,0,0-.659Z" transform="translate(-5.586 -18.153)"/><path class="a" d="M22.043,48.334H13.508a.329.329,0,1,0,0,.659h8.535a.329.329,0,0,0,0-.659Z" transform="translate(-5.586 -24.669)"/><path class="a" d="M19.441,56.684H13.508a.329.329,0,1,0,0,.659h5.933a.329.329,0,1,0,0-.659Z" transform="translate(-5.586 -31.186)"/><path class="a" d="M55.429,23.438h-7.85a.329.329,0,1,0,0,.659h7.85a.329.329,0,0,0,0-.659Z" transform="translate(-32.176 -5.24)"/><path class="a" d="M68.455,30.167H64.27a.329.329,0,1,0,0,.659h4.185a.329.329,0,0,0,0-.659Z" transform="translate(-45.202 -10.491)"/><path class="a" d="M68.455,36.667H64.27a.329.329,0,1,0,0,.659h4.185a.329.329,0,0,0,0-.659Z" transform="translate(-45.202 -15.564)"/><path class="a" d="M68.455,43.5H64.27a.329.329,0,1,0,0,.659h4.185a.329.329,0,0,0,0-.659Z" transform="translate(-45.202 -20.897)"/></g></svg>