<svg xmlns="http://www.w3.org/2000/svg" xmlns:xlink="http://www.w3.org/1999/xlink" width="20" height="20" viewBox="0 0 20 20"><defs><style>.a,.d{fill:#555;}.b{clip-path:url(#a);}.c{fill:none;}.d{fill-rule:evenodd;}</style><clipPath id="a"><rect class="a" width="20" height="20" transform="translate(0 0)"/></clipPath></defs><g transform="translate(9.522 -1.087)"><g transform="translate(-9.522 1.087)"><g transform="translate(0)"><g transform="translate(0 0)"><g class="b"><g transform="translate(1.055 3.273)"><g transform="translate(0 0)"><rect class="c" width="18" height="14" transform="translate(-0.056 -0.273)"/><path class="d" d="M254.155,502.172a.236.236,0,0,1-.112-.112A.352.352,0,0,1,254,501.9V490.319a.358.358,0,0,1,.043-.164.281.281,0,0,1,.112-.112.357.357,0,0,1,.164-.043h16.89a.357.357,0,0,1,.164.043.281.281,0,0,1,.112.112.358.358,0,0,1,.043.164V501.9a.352.352,0,0,1-.043.155.236.236,0,0,1-.112.112.276.276,0,0,1-.164.043h-5.926V503.6h3.2a.351.351,0,0,1,.155.043.3.3,0,0,1,.112.121.25.25,0,0,1,.043.155.276.276,0,0,1-.043.164.28.28,0,0,1-.112.112.352.352,0,0,1-.155.043h-11.43a.357.357,0,0,1-.164-.043.348.348,0,0,1-.112-.112.356.356,0,0,1-.043-.164.322.322,0,0,1,.043-.155.375.375,0,0,1,.112-.121.357.357,0,0,1,.164-.043h3.192v-1.389h-5.926A.276.276,0,0,1,254.155,502.172Zm.474-.587H270.9V490.638H254.63Z" transform="translate(-254 -489.739)"/></g><g transform="translate(13.664 1.091)"><g transform="translate(0 0)"><rect class="c" width="2" height="5" transform="translate(0.281 -0.364)"/><path class="d" d="M1840.027,605.7a1.3,1.3,0,0,1,.466.311,1.466,1.466,0,0,1,.311.466,1.527,1.527,0,0,1,.112.569,1.573,1.573,0,0,1-.112.578,1.463,1.463,0,0,1-.311.474,1.5,1.5,0,0,1-1.613.311,1.548,1.548,0,0,1-.466-.319,1.321,1.321,0,0,1-.3-.466,1.573,1.573,0,0,1-.112-.578,1.527,1.527,0,0,1,.112-.569,1.233,1.233,0,0,1,.311-.466,1.269,1.269,0,0,1,.457-.311,1.249,1.249,0,0,1,.363-.095v-.164h-.087a.239.239,0,0,1-.112-.026.244.244,0,0,1-.078-.086.232.232,0,0,1-.026-.1.242.242,0,0,1,.026-.112.246.246,0,0,1,.078-.086.237.237,0,0,1,.112-.026h.621a.228.228,0,0,1,.1.026.413.413,0,0,1,.086.086.239.239,0,0,1,.026.112.229.229,0,0,1-.026.1.409.409,0,0,1-.086.086.23.23,0,0,1-.1.026h-.095v.164A1.576,1.576,0,0,1,1840.027,605.7Zm-1.294.621a.909.909,0,0,0-.216.319,1.027,1.027,0,0,0-.078.405,1.1,1.1,0,0,0,.078.414,1.03,1.03,0,0,0,1.337.544,1.082,1.082,0,0,0,.327-.216,1.192,1.192,0,0,0,.216-.328,1.1,1.1,0,0,0,.078-.414.991.991,0,0,0-.293-.725.937.937,0,0,0-.327-.216,1.074,1.074,0,0,0-.8,0A.9.9,0,0,0,1838.733,606.32Z" transform="translate(-1838 -604.838)"/></g></g><g transform="translate(14.434 1.091)"><g transform="translate(0 0)"><rect class="c" height="4" transform="translate(0.511 -0.364)"/><path class="d" d="M1927.317,768.627a.258.258,0,0,1-.061-.095.247.247,0,0,1,0-.112.2.2,0,0,1,.052-.1.254.254,0,0,1,.095-.06.247.247,0,0,1,.112,0,.171.171,0,0,1,.1.052l.483.431a.581.581,0,0,1,.06.095.28.28,0,0,1,0,.121.149.149,0,0,1-.052.095.2.2,0,0,1-.095.069.244.244,0,0,1-.112,0,.288.288,0,0,1-.1-.052Z" transform="translate(-1927.25 -766.68)"/></g></g><g transform="translate(2.218 5.455)"><g transform="translate(0 0)"><rect class="c" width="5" height="3" transform="translate(-0.273 0.271)"/><path class="d" d="M529.114,1098.062h-1.13v-.112a1.359,1.359,0,0,1,.069-.466,1.082,1.082,0,0,1,.19-.336c.086-.095.285-.267.578-.517a.508.508,0,0,0,.241-.362.331.331,0,0,0-.095-.25.412.412,0,0,0-.293-.095.462.462,0,0,0-.345.138.88.88,0,0,0-.173.492l-1.156-.147a1.575,1.575,0,0,1,.457-1.018,1.734,1.734,0,0,1,1.234-.388,1.8,1.8,0,0,1,1.044.267,1.132,1.132,0,0,1,.544.975.922.922,0,0,1-.138.492,2.472,2.472,0,0,1-.569.57,1.683,1.683,0,0,0-.379.38A.824.824,0,0,0,529.114,1098.062Zm-1.165.3h1.208v1.07h-1.208Z" transform="translate(-526.863 -1094.976)"/></g></g><g transform="translate(1.126 1.091)"><g transform="translate(0 0)"><rect class="c" width="7" transform="translate(-0.182 -0.364)"/><path class="d" d="M401.328,663.656a.356.356,0,0,1-.164-.043.4.4,0,0,1-.121-.121.333.333,0,0,1,0-.328.4.4,0,0,1,.121-.121.356.356,0,0,1,.164-.043h4.744a.357.357,0,0,1,.164.043.4.4,0,0,1,.121.121.333.333,0,0,1,0,.328.4.4,0,0,1-.121.121.357.357,0,0,1-.164.043Z" transform="translate(-400.858 -662.338)"/></g></g><g transform="translate(9.653 5.455)"><g transform="translate(0 0)"><rect class="c" width="4" height="1" transform="translate(0.292 0.271)"/><path class="d" d="M1373.328,1121.656a.357.357,0,0,1-.164-.043.408.408,0,0,1-.121-.121.333.333,0,0,1,0-.328.407.407,0,0,1,.121-.121.357.357,0,0,1,.164-.043h3.614a.357.357,0,0,1,.164.043.325.325,0,0,1,.12.121.332.332,0,0,1,0,.328.326.326,0,0,1-.12.121.357.357,0,0,1-.164.043Z" transform="translate(-1373 -1120.752)"/></g></g><g transform="translate(9.653 7.638)"><g transform="translate(0 0)"><rect class="c" width="6" transform="translate(0.292 0.089)"/><path class="d" d="M1373.328,1361.656a.358.358,0,0,1-.164-.043.406.406,0,0,1-.121-.121.333.333,0,0,1,0-.328.4.4,0,0,1,.121-.121.355.355,0,0,1,.164-.043h5.555a.355.355,0,0,1,.164.043.4.4,0,0,1,.121.121.332.332,0,0,1,0,.328.4.4,0,0,1-.121.121.358.358,0,0,1-.164.043Z" transform="translate(-1373 -1360.863)"/></g></g><g transform="translate(9.653 8.729)"><g transform="translate(0 0)"><rect class="c" width="5" height="3" transform="translate(0.292 -0.002)"/><path class="d" d="M1373.328,1603.656a.363.363,0,0,1-.164-.043.41.41,0,0,1-.121-.121.333.333,0,0,1,0-.328.406.406,0,0,1,.121-.121.358.358,0,0,1,.164-.043h4.537a.357.357,0,0,1,.164.043.4.4,0,0,1,.121.121.332.332,0,0,1,0,.328.408.408,0,0,1-.121.121.362.362,0,0,1-.164.043Z" transform="translate(-1373 -1601.867)"/></g></g><g transform="translate(7.673 5.204)"><g transform="translate(0 0)"><rect class="c" width="1" height="1" transform="translate(0.272 0.523)"/><path class="d" d="M1163.112,1064.639a.407.407,0,0,1-.086-.086.232.232,0,0,1-.026-.1v-1.225a.242.242,0,0,1,.026-.112.413.413,0,0,1,.086-.086.238.238,0,0,1,.112-.026h1.208a.228.228,0,0,1,.1.026.4.4,0,0,1,.086.086.239.239,0,0,1,.026.112v1.225a.229.229,0,0,1-.026.1.4.4,0,0,1-.086.086.228.228,0,0,1-.1.026h-1.208A.238.238,0,0,1,1163.112,1064.639Zm.328-.414h.768v-.785h-.768Z" transform="translate(-1162.832 -1063)"/></g></g><g transform="translate(7.673 6.546)"><g transform="translate(0 0)"><rect class="c" width="1" height="2" transform="translate(0.272 0.18)"/><path class="d" d="M1163.112,1303.63a.405.405,0,0,1-.086-.086.231.231,0,0,1-.026-.1v-1.216a.24.24,0,0,1,.026-.112.414.414,0,0,1,.086-.086.24.24,0,0,1,.112-.026h1.208a.231.231,0,0,1,.1.026.4.4,0,0,1,.086.086.237.237,0,0,1,.026.112v1.216a.228.228,0,0,1-.026.1.4.4,0,0,1-.086.086.226.226,0,0,1-.1.026h-1.208A.236.236,0,0,1,1163.112,1303.63Zm.328-.414h.768v-.777h-.768Z" transform="translate(-1162.832 -1301.281)"/></g></g><g transform="translate(7.673 8.728)"><g transform="translate(0 0)"><rect class="c" width="1" height="3" transform="translate(0.272 -0.002)"/><path class="d" d="M1163.112,1546.639a.411.411,0,0,1-.086-.086.232.232,0,0,1-.026-.1v-1.225a.241.241,0,0,1,.026-.112.414.414,0,0,1,.086-.086.239.239,0,0,1,.112-.026h1.208a.229.229,0,0,1,.1.026.4.4,0,0,1,.086.086.238.238,0,0,1,.026.112v1.225a.229.229,0,0,1-.026.1.4.4,0,0,1-.086.086.229.229,0,0,1-.1.026h-1.208A.239.239,0,0,1,1163.112,1546.639Zm.328-.414h.768v-.785h-.768Z" transform="translate(-1162.832 -1544.367)"/></g></g></g></g></g></g></g></g></svg>