<svg xmlns="http://www.w3.org/2000/svg" width="11.078" height="17.738" viewBox="0 0 11.078 17.738"><defs><style>.a{fill:#747474;stroke:#747474;stroke-width:0.5px;fill-rule:evenodd;}</style></defs><path class="a" d="M28.289,958.362a1.2,1.2,0,0,1,.836.326,1.331,1.331,0,0,1,.392.979v.618a1.2,1.2,0,0,1,.8-.3,1.214,1.214,0,0,1,.842.326,1.34,1.34,0,0,1,.385.986v1.312a1.23,1.23,0,0,1,1.645.021,1.328,1.328,0,0,1,.385.979v6.332a5.682,5.682,0,0,1-1.659,4.242,5.361,5.361,0,0,1-7.261,0A5.681,5.681,0,0,1,23,969.943v-3.9a1.344,1.344,0,0,1,.392-.986,1.2,1.2,0,0,1,.836-.326,1.223,1.223,0,0,1,.81.3v-3.735a1.327,1.327,0,0,1,.385-.979,1.227,1.227,0,0,1,.842-.333,1.209,1.209,0,0,1,.8.305v-.618a1.327,1.327,0,0,1,.385-.979,1.2,1.2,0,0,1,.836-.326Zm0,.444a.8.8,0,0,0-.555.215.836.836,0,0,0-.248.646q0,3.544,0,7.088a.21.21,0,1,1-.418,0v-5.464a.853.853,0,0,0-.248-.653.8.8,0,0,0-.555-.215.821.821,0,0,0-.562.215.853.853,0,0,0-.248.653v8.525a.21.21,0,1,1-.418,0V966.04a.851.851,0,0,0-.248-.653.84.84,0,0,0-1.123,0,.851.851,0,0,0-.248.653v3.9a5.191,5.191,0,0,0,1.521,3.909,4.96,4.96,0,0,0,6.706,0,5.188,5.188,0,0,0,1.515-3.909V963.61a.836.836,0,0,0-.248-.646.8.8,0,0,0-.555-.215.821.821,0,0,0-.562.215.836.836,0,0,0-.248.646v3.943a.21.21,0,1,1-.418,0V961.3a.849.849,0,0,0-.248-.653.816.816,0,0,0-.562-.215.8.8,0,0,0-.555.215.849.849,0,0,0-.248.653v5.526a.21.21,0,1,1-.418,0v-7.158a.836.836,0,0,0-.248-.646.821.821,0,0,0-.562-.215Z" transform="translate(-22.75 -958.112)"/></svg>