<svg xmlns="http://www.w3.org/2000/svg" width="18.824" height="17.255" viewBox="0 0 18.824 17.255"><defs><style>.a{fill:#555;}</style></defs><g transform="translate(0 -1)"><g transform="translate(3.195 7.275)"><path class="a" d="M6.622,10.176H4.661A.588.588,0,1,1,4.661,9H6.622a.588.588,0,1,1,0,1.176Z" transform="translate(-4.073 -9)"/></g><g transform="translate(8.685 7.275)"><path class="a" d="M17.544,10.176H11.661a.588.588,0,0,1,0-1.176h5.882a.588.588,0,1,1,0,1.176Z" transform="translate(-11.073 -9)"/></g><g transform="translate(3.195 10.412)"><path class="a" d="M6.622,14.176H4.661a.588.588,0,0,1,0-1.176H6.622a.588.588,0,1,1,0,1.176Z" transform="translate(-4.073 -13)"/></g><g transform="translate(8.685 10.412)"><path class="a" d="M17.544,14.176H11.661a.588.588,0,0,1,0-1.176h5.882a.588.588,0,1,1,0,1.176Z" transform="translate(-11.073 -13)"/></g><g transform="translate(3.195 13.549)"><path class="a" d="M6.622,18.176H4.661a.588.588,0,1,1,0-1.176H6.622a.588.588,0,1,1,0,1.176Z" transform="translate(-4.073 -17)"/></g><g transform="translate(8.685 13.549)"><path class="a" d="M17.544,18.176H11.661a.588.588,0,1,1,0-1.176h5.882a.588.588,0,1,1,0,1.176Z" transform="translate(-11.073 -17)"/></g><g transform="translate(0 1)"><path class="a" d="M16.667,18.255H2.157A2.159,2.159,0,0,1,0,16.1V3.157A2.159,2.159,0,0,1,2.157,1h14.51a2.159,2.159,0,0,1,2.157,2.157V16.1A2.159,2.159,0,0,1,16.667,18.255ZM2.157,2.176a.982.982,0,0,0-.98.98V16.1a.982.982,0,0,0,.98.98h14.51a.982.982,0,0,0,.98-.98V3.157a.982.982,0,0,0-.98-.98Z" transform="translate(0 -1)"/></g><g transform="translate(0 3.745)"><path class="a" d="M18.235,5.676H.588a.588.588,0,0,1,0-1.176H18.235a.588.588,0,1,1,0,1.176Z" transform="translate(0 -4.5)"/></g></g></svg>