<svg xmlns="http://www.w3.org/2000/svg" width="16.665" height="16.665" viewBox="0 0 16.665 16.665"><defs><style>.a{fill:#555;}</style></defs><path class="a" d="M162.042,270.9h-.033a.439.439,0,0,1-.32-.178l-1.6-2.187a.437.437,0,1,1,.706-.517l1.3,1.776,2.994-2.994a.438.438,0,0,1,.619.619l-3.354,3.354A.442.442,0,0,1,162.042,270.9Zm0,0" transform="translate(-154.198 -257.392)"/><path class="a" d="M14.755,58.166H1.91A1.925,1.925,0,0,1,0,56.228V44.605a1.925,1.925,0,0,1,1.91-1.937H14.755a1.925,1.925,0,0,1,1.91,1.937V56.228A1.925,1.925,0,0,1,14.755,58.166ZM1.91,43.725a.875.875,0,0,0-.868.88V56.228a.876.876,0,0,0,.868.881H14.755a.876.876,0,0,0,.868-.881V44.605a.875.875,0,0,0-.868-.88Zm0,0" transform="translate(0 -41.501)"/><path class="a" d="M16.144,171.543H.521a.444.444,0,1,1,0-.875H16.144a.444.444,0,1,1,0,.875Zm0,0" transform="translate(0 -165.054)"/><path class="a" d="M107.105,3.5a.438.438,0,0,1-.437-.437V.438a.437.437,0,1,1,.875,0V3.063A.438.438,0,0,1,107.105,3.5Zm0,0" transform="translate(-103.159)"/><path class="a" d="M373.77,3.5a.438.438,0,0,1-.437-.437V.438a.438.438,0,1,1,.875,0V3.063A.438.438,0,0,1,373.77,3.5Zm0,0" transform="translate(-361.051)"/></svg>