<svg xmlns="http://www.w3.org/2000/svg" width="20" height="20" viewBox="0 0 20 20"><path fill="#747474" d="M19.163,9H18V6.911A.912.912,0,0,0,17.089,6H16V5.2l-.165-.165h0L13.4,2.6,10.8,0H2.667V3.667H.911A.912.912,0,0,0,0,4.577V19.14H0A.851.851,0,0,0,.855,20h14.92a.846.846,0,0,0,.817-.6L20,10.05V9.991A.893.893,0,0,0,19.163,9ZM17.089,6.667a.244.244,0,0,1,.244.244V9H16V6.667ZM11,1.138,14.862,5H11ZM3.333.667h7v5h5V9H4.244a.855.855,0,0,0-.141.012.841.841,0,0,0-.676.593l-.094.257V.667ZM.667,4.577a.244.244,0,0,1,.244-.244H2.667v7.345l-2,5.455Zm15.29,14.617a.188.188,0,0,1-.182.139H.855a.184.184,0,0,1-.149-.074.181.181,0,0,1-.041-.136l2-5.491v0l1.387-3.8.009-.027a.189.189,0,0,1,.182-.139h14.92c.127,0,.159.182.167.273Z"/><path fill="#747474" d="M15.346,15.693h3.463a.346.346,0,1,0,0-.693H15.346a.346.346,0,0,0,0,.693Z" transform="translate(-10.049 -10.007)"/><path fill="#747474" d="M15.346,8.693h3.463a.346.346,0,1,0,0-.693H15.346a.346.346,0,1,0,0,.693Z" transform="translate(-10.049 -5.23)"/><path fill="#747474" d="M15.346,22.693h8.311a.346.346,0,1,0,0-.693H15.346a.346.346,0,1,0,0,.693Z" transform="translate(-10.149 -14.677)"/></svg>