<svg xmlns="http://www.w3.org/2000/svg" width="20" height="20.001" viewBox="0 0 20 20.001"><defs><style>.a{fill:#555;}</style></defs><path class="a" d="M11.809,21.873a.419.419,0,0,1-.294-.121.415.415,0,0,1-.114-.375l.588-2.938a.407.407,0,0,1,.114-.213l6.465-6.465a1.249,1.249,0,0,1,1.763,0l1.175,1.175a1.248,1.248,0,0,1,0,1.763l-6.465,6.465a.413.413,0,0,1-.213.114l-2.938.588A.441.441,0,0,1,11.809,21.873Zm.971-3.15-.441,2.2,2.2-.441L20.92,14.11a.416.416,0,0,0,0-.588l-1.175-1.175a.416.416,0,0,0-.588,0Zm1.968,2.146h.008Z" transform="translate(-1.871 -1.872)"/><path class="a" d="M7.9,18.014H2.078A2.083,2.083,0,0,1,0,15.928V5.085A2.083,2.083,0,0,1,2.078,3H3.741a.417.417,0,0,1,0,.834H2.078A1.251,1.251,0,0,0,.831,5.085V15.928A1.251,1.251,0,0,0,2.078,17.18H7.9a.417.417,0,0,1,0,.834Z" transform="translate(0 -0.506)"/><path class="a" d="M15.741,10.481a.416.416,0,0,1-.416-.416V5.078a1.248,1.248,0,0,0-1.247-1.247H12.416a.416.416,0,1,1,0-.831h1.662a2.08,2.08,0,0,1,2.078,2.078v4.987A.416.416,0,0,1,15.741,10.481Z" transform="translate(-1.993 -0.506)"/><path class="a" d="M10.234,4.987H5.247A1.248,1.248,0,0,1,4,3.741V2.078a.416.416,0,0,1,.416-.416H5.7a2.079,2.079,0,0,1,4.073,0h1.288a.416.416,0,0,1,.416.416V3.741A1.248,1.248,0,0,1,10.234,4.987Zm-5.4-2.494V3.741a.417.417,0,0,0,.416.416h4.987a.417.417,0,0,0,.416-.416V2.494H9.4a.416.416,0,0,1-.416-.416,1.247,1.247,0,1,0-2.494,0,.416.416,0,0,1-.416.416Z" transform="translate(-0.661)"/><path class="a" d="M11.728,8.831H3.416a.416.416,0,1,1,0-.831h8.312a.416.416,0,1,1,0,.831Z" transform="translate(-0.506 -1.332)"/><path class="a" d="M11.728,11.831H3.416a.416.416,0,1,1,0-.831h8.312a.416.416,0,1,1,0,.831Z" transform="translate(-0.506 -1.832)"/><path class="a" d="M11.728,14.831H3.416a.416.416,0,1,1,0-.831h8.312a.416.416,0,1,1,0,.831Z" transform="translate(-0.506 -2.331)"/></svg>