<svg xmlns="http://www.w3.org/2000/svg" width="20" height="20" viewBox="0 0 20 20"><defs><style>.a,.b{fill:#555;}.b{fill-rule:evenodd;}</style></defs><g transform="translate(-1.5 -1.5)"><path class="a" d="M2.452,11.5a9.048,9.048,0,1,1,17.526,3.167A.476.476,0,1,0,20.87,15,9.99,9.99,0,1,0,13,21.388a.476.476,0,0,0-.142-.942A9.056,9.056,0,0,1,2.452,11.5Z"/><path class="a" d="M16.454,16.977a.477.477,0,1,0-.954,0v3.817a.477.477,0,0,0,.954,0Z" transform="translate(-0.668 -0.726)"/><path class="a" d="M18.977,16.5a.477.477,0,0,1,.477.477v3.817a.477.477,0,0,1-.954,0V16.977A.477.477,0,0,1,18.977,16.5Z" transform="translate(-0.817 -0.726)"/><path class="b" d="M10.223,8.568a.477.477,0,0,0-.723.409V14.7a.477.477,0,0,0,.723.409l4.772-2.863a.477.477,0,0,0,0-.818Zm3.6,3.272-3.367,2.02V9.82Z" transform="translate(-0.387 -0.34)"/></g></svg>