<svg xmlns="http://www.w3.org/2000/svg" width="19.754" height="19.067" viewBox="0 0 19.754 19.067"><defs><style>.a{fill:#747474;stroke:#747474;stroke-width:0.5px;}</style></defs><g transform="translate(-4414.75 -8384.75)"><path class="a" d="M15.326,288.226a.342.342,0,0,0-.238.1q-3.285,3.279-6.563,6.564a.344.344,0,0,0-.1.244v2.432a.344.344,0,0,0,.342.342H11.2a.344.344,0,0,0,.244-.1L18,291.245a.344.344,0,0,0,0-.487l-2.432-2.432a.344.344,0,0,0-.248-.1Zm.006.831L17.278,291l-.972.972-1.946-1.946Zm-1.461,1.458,1.944,1.945-4.76,4.762H9.111v-1.945Z" transform="translate(4416.147 8105.658)"/><path class="a" d="M4.835,281.39a.344.344,0,0,0-.337.351v1.713H1.368a.344.344,0,0,0-.31.342v14.443a.344.344,0,0,0,.342.342H9.6a.344.344,0,0,0,0-.688H6.56v-4.471a.345.345,0,0,0-.343-.344H1.746V284.14H4.5v1.69a.343.343,0,1,0,.684,0v-1.69H7.935v1.718a.343.343,0,1,0,.687,0V284.14h2.751v1.718a.343.343,0,1,0,.687,0V284.14h2.751v6.915a.344.344,0,0,0,.688,0V283.8a.344.344,0,0,0-.345-.342H12.06V281.74a.344.344,0,1,0-.687,0v1.713H8.622V281.74a.344.344,0,1,0-.687,0v1.713H5.182V281.74a.344.344,0,0,0-.347-.351ZM2.229,293.768H5.874v3.64Zm-.484.486,3.639,3.64H1.746Z" transform="translate(4413.941 8103.611)"/></g></svg>