<svg xmlns="http://www.w3.org/2000/svg" width="451.537" height="285.391" viewBox="0 0 451.537 285.391">
  <g id="Group_30589" data-name="Group 30589" transform="translate(-878 -552.709)">
    <g id="undraw_reviews_lp8w" transform="translate(909.462 587.588)">
      <path id="Path_19367" data-name="Path 19367" d="M854.106,474.471a6.037,6.037,0,0,1,.93-.2L867.6,448.743l-3.836-5.75,7.922-6.923,9.958,12.186-20.281,29.517a6.022,6.022,0,1,1-7.256-3.3Z" transform="translate(-516.476 -347.594)" fill="#ffb8b8"/>
      <path id="Path_19368" data-name="Path 19368" d="M877.144,430.677a2.591,2.591,0,0,1-.583.46l-12.855,7.452a2.581,2.581,0,0,1-3.628-1.129l-6.252-13.209a2.568,2.568,0,0,1,.882-3.239l7.969-5.421a2.583,2.583,0,0,1,3.281.312l11.138,11.177a2.584,2.584,0,0,1,.049,3.6Z" transform="translate(-518.066 -338.675)" fill="#ffa66c"/>
      <path id="Path_19369" data-name="Path 19369" d="M714.357,496.238l-6.787,1.847-10.353-25.3,10.017-2.726Z" transform="translate(-337.231 -257.953)" fill="#ffb8b8"/>
      <path id="Path_19370" data-name="Path 19370" d="M8.541,0H22.106V8.541H0A8.541,8.541,0,0,1,8.541,0Z" transform="translate(356.723 241.752) rotate(-15.221)" fill="#2f2e41"/>
      <path id="Path_19371" data-name="Path 19371" d="M618.249,504.558h-7.033l-3.347-27.13H618.25Z" transform="translate(-299.144 -261.094)" fill="#ffb8b8"/>
      <path id="Path_19372" data-name="Path 19372" d="M598.6,521.212h13.565v8.541H590.057A8.541,8.541,0,0,1,598.6,521.212Z" transform="translate(-291.551 -279.758)" fill="#2f2e41"/>
      <circle id="Ellipse_2646" data-name="Ellipse 2646" cx="14.091" cy="14.091" r="14.091" transform="translate(312.425 39.729)" fill="#ffb8b8"/>
      <path id="Path_19373" data-name="Path 19373" d="M814.175,591.933h-9.612a2.589,2.589,0,0,1-2.579-2.423c-2.864-45.531-1.189-78.192,5.272-102.784a2.676,2.676,0,0,1,.1-.317l.515-1.287a2.57,2.57,0,0,1,2.4-1.623h19.766a2.578,2.578,0,0,1,1.96.9l2.685,3.133c.052.061.1.123.149.189,12.106,16.882,22.955,49.887,35.52,94.25a2.573,2.573,0,0,1-1.7,3.165l-10.33,3.306a2.6,2.6,0,0,1-3.112-1.338l-26.806-55.6a2.008,2.008,0,0,0-3.8.6L816.733,589.7A2.592,2.592,0,0,1,814.175,591.933Z" transform="translate(-495.5 -367.813)" fill="#2f2e41"/>
      <path id="Path_19374" data-name="Path 19374" d="M837.861,452.159h-.081l-24.009-.758a2.574,2.574,0,0,1-2.483-2.269c-3.044-24.636,5.3-31.236,9.034-32.93a1.985,1.985,0,0,0,1.154-1.574l.323-2.582a2.572,2.572,0,0,1,.51-1.254,29.5,29.5,0,0,1,18.074-10.773,2.578,2.578,0,0,1,3.013,2.209l.484,3.708a2.042,2.042,0,0,0,.409.97c12.2,15.945-1.391,39.488-4.239,44.045h0A2.587,2.587,0,0,1,837.861,452.159Z" transform="translate(-499.761 -332.209)" fill="#ffa66c"/>
      <path id="Path_19375" data-name="Path 19375" d="M854.484,364.545a56.087,56.087,0,0,0-11.19-11.715,33.235,33.235,0,0,0-11.882-6.286,18.426,18.426,0,0,0-13.174,1.176c-3.985,2.118-8.1,6.325-8.129,10.837-.008,1.45.361,3.411,1.788,3.16l.413.055,10.331-2.087,4.4,15.27c.309,1.073.724,2.272,1.742,2.73a3.927,3.927,0,0,0,3.038-.38c.16-.067,1.531-3.145,1.531-3.145a.574.574,0,0,1,.988-.165l.815,1.018a1.147,1.147,0,0,0,1.338.342l16.848-7.033c.776-.324,1.644-.747,1.869-1.557A2.778,2.778,0,0,0,854.484,364.545Z" transform="translate(-499.538 -309.138)" fill="#2f2e41"/>
      <path id="Path_19376" data-name="Path 19376" d="M871.24,717.647H698.55a.574.574,0,1,1,0-1.147H871.24a.574.574,0,1,1,0,1.147Z" transform="translate(-451.738 -467.136)" fill="#ccc"/>
      <path id="Path_19377" data-name="Path 19377" d="M826.783,549.763a1.838,1.838,0,0,1-1.084-.359l-2.612-1.9a1.266,1.266,0,0,0-1.493,0l-2.612,1.9a1.844,1.844,0,0,1-2.837-2.061l1-3.07a1.266,1.266,0,0,0-.461-1.42l-2.612-1.9a1.844,1.844,0,0,1,1.084-3.335h3.228a1.267,1.267,0,0,0,1.208-.877l1-3.07a1.844,1.844,0,0,1,3.507,0l1,3.07a1.267,1.267,0,0,0,1.208.877h3.228a1.844,1.844,0,0,1,1.084,3.335l-2.611,1.9a1.267,1.267,0,0,0-.461,1.42l1,3.07a1.816,1.816,0,0,1-.67,2.061,1.837,1.837,0,0,1-1.083.359Z" transform="translate(-500.903 -388.657)" fill="#f60"/>
      <path id="Path_19378" data-name="Path 19378" d="M846.917,504.954a6.163,6.163,0,0,0,.807-9.416l4.46-53.856-13.278,1.827-.253,52.326a6.2,6.2,0,0,0,8.264,9.119Z" transform="translate(-511.056 -349.987)" fill="#ffb8b8"/>
      <path id="Path_19379" data-name="Path 19379" d="M852.367,438.119a2.59,2.59,0,0,1-.734-.106l-14.255-4.193a2.581,2.581,0,0,1-1.679-3.409l5.275-13.628a2.568,2.568,0,0,1,2.956-1.59l9.417,2.047a2.583,2.583,0,0,1,2.032,2.594l-.438,15.773a2.584,2.584,0,0,1-2.575,2.512Z" transform="translate(-510.372 -338.669)" fill="#ffa66c"/>
      <path id="Path_19392" data-name="Path 19392" d="M446.872,262.395H203.04a4.021,4.021,0,0,1-4.016-4.016V185.516a4.021,4.021,0,0,1,4.016-4.016H446.872a4.021,4.021,0,0,1,4.016,4.016v72.863a4.021,4.021,0,0,1-4.016,4.016ZM203.04,182.647a2.872,2.872,0,0,0-2.869,2.869v72.863a2.872,2.872,0,0,0,2.869,2.869H446.872a2.872,2.872,0,0,0,2.869-2.869V185.516a2.872,2.872,0,0,0-2.869-2.869Z" transform="translate(-199.024 -181.5)" fill="#fd8333"/>
      <path id="Path_19393" data-name="Path 19393" d="M379.736,360.17a2.252,2.252,0,0,1-1.328-.44l-3.2-2.324a1.55,1.55,0,0,0-1.829,0l-3.2,2.324a2.259,2.259,0,0,1-3.476-2.525l1.222-3.761a1.552,1.552,0,0,0-.565-1.74l-3.2-2.324a2.258,2.258,0,0,1,1.327-4.086h3.955a1.552,1.552,0,0,0,1.479-1.075l1.222-3.761a2.259,2.259,0,0,1,4.3,0l1.222,3.761a1.552,1.552,0,0,0,1.479,1.075H383.1a2.258,2.258,0,0,1,1.327,4.086l-3.2,2.324a1.552,1.552,0,0,0-.565,1.74l1.222,3.761a2.225,2.225,0,0,1-.821,2.525A2.252,2.252,0,0,1,379.736,360.17Z" transform="translate(-269.022 -248.596)" fill="#ff6500"/>
      <path id="Path_19394" data-name="Path 19394" d="M436.245,360.17a2.252,2.252,0,0,1-1.328-.44l-3.2-2.324a1.55,1.55,0,0,0-1.829,0l-3.2,2.324a2.259,2.259,0,0,1-3.476-2.525l1.222-3.761a1.552,1.552,0,0,0-.565-1.74l-3.2-2.324A2.258,2.258,0,0,1,422,345.3h3.954a1.552,1.552,0,0,0,1.479-1.075l1.222-3.761a2.258,2.258,0,0,1,4.3,0l1.222,3.761a1.552,1.552,0,0,0,1.48,1.075h3.954a2.259,2.259,0,0,1,1.328,4.086l-3.2,2.324a1.552,1.552,0,0,0-.565,1.74l1.222,3.761a2.224,2.224,0,0,1-.821,2.525A2.251,2.251,0,0,1,436.245,360.17Z" transform="translate(-293.111 -248.596)" fill="#ff6500"/>
      <path id="Path_19395" data-name="Path 19395" d="M492.754,360.17a2.251,2.251,0,0,1-1.327-.44l-3.2-2.324a1.554,1.554,0,0,0-1.829,0l-3.2,2.324a2.258,2.258,0,0,1-3.475-2.525l1.222-3.761a1.552,1.552,0,0,0-.565-1.74l-3.2-2.324a2.259,2.259,0,0,1,1.328-4.086h3.954a1.552,1.552,0,0,0,1.479-1.075l1.222-3.761a2.258,2.258,0,0,1,4.3,0l1.222,3.761a1.552,1.552,0,0,0,1.479,1.075h3.954a2.259,2.259,0,0,1,1.328,4.086l-3.2,2.324a1.552,1.552,0,0,0-.565,1.74l1.222,3.761a2.225,2.225,0,0,1-.82,2.525A2.252,2.252,0,0,1,492.754,360.17Z" transform="translate(-317.199 -248.596)" fill="#ff6500"/>
      <path id="Path_19396" data-name="Path 19396" d="M594.723,360.228a2.475,2.475,0,0,1-1.458-.482,2.444,2.444,0,0,1-.9-2.774l1.222-3.761a1.33,1.33,0,0,0-.484-1.491l-3.2-2.325a2.481,2.481,0,0,1,1.458-4.488h3.954a1.33,1.33,0,0,0,1.268-.921l1.222-3.761a2.481,2.481,0,0,1,4.719,0l1.222,3.761a1.33,1.33,0,0,0,1.268.921h3.955a2.481,2.481,0,0,1,1.458,4.488l-3.2,2.325a1.33,1.33,0,0,0-.484,1.491l1.222,3.761a2.481,2.481,0,0,1-3.818,2.774l-3.2-2.324a1.33,1.33,0,0,0-1.568,0l-3.2,2.324A2.473,2.473,0,0,1,594.723,360.228Zm5.441-4.21a2.476,2.476,0,0,1,1.458.475l3.2,2.325a1.333,1.333,0,0,0,2.052-1.491l-1.222-3.761a2.474,2.474,0,0,1,.9-2.774l3.2-2.325a1.333,1.333,0,0,0-.784-2.412h-3.955a2.474,2.474,0,0,1-2.359-1.714l-1.222-3.761a1.333,1.333,0,0,0-2.536,0l-1.222,3.761a2.474,2.474,0,0,1-2.359,1.714H591.36a1.333,1.333,0,0,0-.784,2.412l3.2,2.325a2.475,2.475,0,0,1,.9,2.774l-1.222,3.761a1.333,1.333,0,0,0,2.052,1.491l3.2-2.324a2.477,2.477,0,0,1,1.458-.475Z" transform="translate(-365.211 -248.431)" fill="#ffa970"/>
      <path id="Path_19397" data-name="Path 19397" d="M537.723,360.068a2.474,2.474,0,0,1-1.458-.482,2.444,2.444,0,0,1-.9-2.774l1.222-3.761a1.33,1.33,0,0,0-.484-1.491l-3.2-2.325a2.481,2.481,0,0,1,1.458-4.488h3.955a1.33,1.33,0,0,0,1.268-.921l1.222-3.761a2.481,2.481,0,0,1,4.719,0l1.222,3.761a1.33,1.33,0,0,0,1.268.921h3.955a2.481,2.481,0,0,1,1.458,4.488l-3.2,2.325a1.33,1.33,0,0,0-.484,1.491l1.222,3.761a2.481,2.481,0,0,1-3.818,2.774l-3.2-2.324a1.33,1.33,0,0,0-1.568,0l-3.2,2.324a2.473,2.473,0,0,1-1.458.483Zm5.441-4.21a2.475,2.475,0,0,1,1.458.475l3.2,2.325a1.333,1.333,0,0,0,2.052-1.491l-1.222-3.761a2.475,2.475,0,0,1,.9-2.774l3.2-2.325a1.333,1.333,0,0,0-.784-2.412h-3.955a2.474,2.474,0,0,1-2.359-1.714l-1.222-3.761a1.333,1.333,0,0,0-2.536,0l-1.222,3.761a2.474,2.474,0,0,1-2.359,1.714H534.36a1.333,1.333,0,0,0-.784,2.412l3.2,2.325a2.475,2.475,0,0,1,.9,2.774l-1.222,3.761a1.333,1.333,0,0,0,2.052,1.491l3.2-2.324a2.477,2.477,0,0,1,1.458-.475Z" transform="translate(-340.913 -248.362)" fill="#ffa970"/>
      <path id="Path_19398" data-name="Path 19398" d="M251.253,211.5a3.729,3.729,0,0,0,0,7.458H440.008a3.729,3.729,0,0,0,0-7.458Z" transform="translate(-219.698 -194.288)" fill="#ccc"/>
      <path id="Path_19399" data-name="Path 19399" d="M251.253,245.5a3.729,3.729,0,1,0,0,7.458H440.008a3.729,3.729,0,0,0,0-7.458Z" transform="translate(-219.698 -208.782)" fill="#ccc"/>
      <path id="Path_19400" data-name="Path 19400" d="M251.253,279.5a3.729,3.729,0,1,0,0,7.458H440.008a3.729,3.729,0,0,0,0-7.458Z" transform="translate(-219.698 -223.275)" fill="#ccc"/>
      <path id="Path_19401" data-name="Path 19401" d="M251.253,211.5a3.729,3.729,0,0,0,0,7.458H440.008a3.729,3.729,0,0,0,0-7.458Z" transform="translate(-219.698 -194.288)" fill="#ffeee2"/>
      <path id="Path_19402" data-name="Path 19402" d="M251.253,245.5a3.729,3.729,0,1,0,0,7.458H440.008a3.729,3.729,0,0,0,0-7.458Z" transform="translate(-219.698 -208.782)" fill="#ffeee2"/>
      <path id="Path_19403" data-name="Path 19403" d="M251.253,279.5a3.729,3.729,0,1,0,0,7.458H440.008a3.729,3.729,0,0,0,0-7.458Z" transform="translate(-219.698 -223.275)" fill="#ffeee2"/>
    </g>
    <g id="Group_30587" data-name="Group 30587" transform="translate(907.001 553.709)">
      <path id="Path_15395" data-name="Path 15395" d="M-1467.094-17234.379v10.639" transform="translate(1472.413 17234.379)" fill="none" stroke="#f60" stroke-linecap="round" stroke-width="2"/>
      <path id="Path_15396" data-name="Path 15396" d="M0,0V10.639" transform="translate(10.638 5.319) rotate(90)" fill="none" stroke="#f60" stroke-linecap="round" stroke-width="2"/>
    </g>
    <g id="Group_30588" data-name="Group 30588" transform="matrix(0.875, 0.485, -0.485, 0.875, 951.489, 561.295)">
      <path id="Path_15395-2" data-name="Path 15395" d="M-1467.094-17234.379v4.492" transform="translate(1469.339 17234.379)" fill="none" stroke="#f60" stroke-linecap="round" stroke-width="1"/>
      <path id="Path_15396-2" data-name="Path 15396" d="M0,0V4.492" transform="translate(4.491 2.245) rotate(90)" fill="none" stroke="#f60" stroke-linecap="round" stroke-width="1"/>
    </g>
    <circle id="Ellipse_2647" data-name="Ellipse 2647" cx="6.015" cy="6.015" r="6.015" transform="translate(878 571.18)" fill="#ffa970"/>
    <circle id="Ellipse_2649" data-name="Ellipse 2649" cx="2.515" cy="2.515" r="2.515" transform="translate(885 588.18)" fill="#ffa970"/>
    <g id="Ellipse_2648" data-name="Ellipse 2648" transform="translate(955.97 566.664)" fill="none" stroke="#ffa970" stroke-width="1">
      <circle cx="4.515" cy="4.515" r="4.515" stroke="none"/>
      <circle cx="4.515" cy="4.515" r="4.015" fill="none"/>
    </g>
  </g>
</svg>
