<svg xmlns="http://www.w3.org/2000/svg" xmlns:xlink="http://www.w3.org/1999/xlink" width="55" height="76" viewBox="0 0 55 76">
  <defs>
    <filter id="Ellipse_2343" x="0" y="0" width="50" height="50" filterUnits="userSpaceOnUse">
      <feOffset dx="-4" dy="4" input="SourceAlpha"/>
      <feGaussianBlur stdDeviation="4" result="blur"/>
      <feFlood flood-color="#c2c2c2" flood-opacity="0.161"/>
      <feComposite operator="in" in2="blur"/>
      <feComposite in="SourceGraphic"/>
    </filter>
  </defs>
  <g id="Group_30867" data-name="Group 30867" transform="translate(-1038 -1053)">
    <rect id="Rectangle_8912" data-name="Rectangle 8912" width="52" height="52" rx="4" transform="translate(1041 1077)" fill="#d1e8a8"/>
    <g transform="matrix(1, 0, 0, 1, 1038, 1053)" filter="url(#Ellipse_2343)">
      <circle id="Ellipse_2343-2" data-name="Ellipse 2343" cx="13" cy="13" r="13" transform="translate(16 8)" fill="#fff"/>
    </g>
    <path id="Path_15306" data-name="Path 15306" d="M13.926,960.408a.361.361,0,0,0-.328.25l-1.7,5.269-5.535-.011a.361.361,0,0,0-.212.653l4.485,3.246-1.722,5.264a.361.361,0,0,0,.556.4l4.472-3.264,4.474,3.264a.361.361,0,0,0,.556-.4l-1.722-5.264,4.485-3.246a.361.361,0,0,0-.212-.653l-5.535.011-1.7-5.269a.361.361,0,0,0-.359-.25Z" transform="translate(1053.059 106.02)" fill="#f60" fill-rule="evenodd"/>
    <path id="Path_15310" data-name="Path 15310" d="M0,0H52V11a4,4,0,0,1-4,4H4a4,4,0,0,1-4-4Z" transform="translate(1041 1114)" fill="#9cc258"/>
    <text id="_4" data-name="4" transform="translate(1061 1108)" font-size="20" font-family="ProximaNova-Bold, Proxima Nova" font-weight="700" letter-spacing="0.01em"><tspan x="0" y="0">4</tspan></text>
  </g>
</svg>
