<svg xmlns="http://www.w3.org/2000/svg" width="20" height="20" viewBox="0 0 20 20">
  <path id="Path_19357" data-name="Path 19357" d="M15.98,960.408a.458.458,0,0,0-.414.33L13.426,967.7l-6.97-.014a.457.457,0,0,0-.433.329.49.49,0,0,0,.166.534l5.648,4.286-2.169,6.951a.49.49,0,0,0,.165.534.438.438,0,0,0,.535,0L16,976.006l5.634,4.31a.438.438,0,0,0,.535,0,.49.49,0,0,0,.165-.534l-2.169-6.951,5.648-4.286a.49.49,0,0,0,.166-.534.457.457,0,0,0-.433-.329l-6.97.014-2.143-6.959a.456.456,0,0,0-.452-.33Z" transform="translate(-6.001 -960.407)" fill="#fc0" fill-rule="evenodd"/>
</svg>
