<svg xmlns="http://www.w3.org/2000/svg" width="21.023" height="21.025" viewBox="0 0 21.023 21.025">
  <path id="Path_19361" data-name="Path 19361" d="M15.98,960.408a.458.458,0,0,0-.414.33L13.426,967.7l-6.97-.014a.457.457,0,0,0-.433.329.49.49,0,0,0,.166.534l5.648,4.286-2.169,6.951a.49.49,0,0,0,.165.534.438.438,0,0,0,.535,0L16,976.006l5.634,4.31a.438.438,0,0,0,.535,0,.49.49,0,0,0,.165-.534l-2.169-6.951,5.648-4.286a.49.49,0,0,0,.166-.534.457.457,0,0,0-.433-.329l-6.97.014-2.143-6.959a.456.456,0,0,0-.452-.33Z" transform="translate(-5.489 -959.907)" fill="none" stroke="#fc0" stroke-width="1" fill-rule="evenodd" opacity="0.5"/>
</svg>
