<svg xmlns="http://www.w3.org/2000/svg" xmlns:xlink="http://www.w3.org/1999/xlink" width="20" height="20" viewBox="0 0 20 20">
  <defs>
    <clipPath id="clip-grid_view">
      <rect width="20" height="20"/>
    </clipPath>
  </defs>
  <g id="grid_view" data-name="grid view" clip-path="url(#clip-grid_view)">
    <g id="menu_1_" data-name="menu (1)">
      <path id="Path_14087" data-name="Path 14087" d="M3.75,5H1.25A1.252,1.252,0,0,1,0,3.75V1.25A1.252,1.252,0,0,1,1.25,0h2.5A1.252,1.252,0,0,1,5,1.25v2.5A1.252,1.252,0,0,1,3.75,5ZM1.25.833a.417.417,0,0,0-.417.417v2.5a.417.417,0,0,0,.417.417h2.5a.417.417,0,0,0,.417-.417V1.25A.417.417,0,0,0,3.75.833Z" fill="#555"/>
      <path id="Path_14088" data-name="Path 14088" d="M3.75,14H1.25A1.252,1.252,0,0,1,0,12.75v-2.5A1.252,1.252,0,0,1,1.25,9h2.5A1.252,1.252,0,0,1,5,10.25v2.5A1.252,1.252,0,0,1,3.75,14ZM1.25,9.833a.417.417,0,0,0-.417.417v2.5a.417.417,0,0,0,.417.417h2.5a.417.417,0,0,0,.417-.417v-2.5a.417.417,0,0,0-.417-.417Z" transform="translate(0 -1.5)" fill="#555"/>
      <path id="Path_14089" data-name="Path 14089" d="M3.75,23H1.25A1.252,1.252,0,0,1,0,21.75v-2.5A1.252,1.252,0,0,1,1.25,18h2.5A1.252,1.252,0,0,1,5,19.25v2.5A1.252,1.252,0,0,1,3.75,23Zm-2.5-4.167a.417.417,0,0,0-.417.417v2.5a.417.417,0,0,0,.417.417h2.5a.417.417,0,0,0,.417-.417v-2.5a.417.417,0,0,0-.417-.417Z" transform="translate(0 -3)" fill="#555"/>
      <path id="Path_14090" data-name="Path 14090" d="M12.75,5h-2.5A1.252,1.252,0,0,1,9,3.75V1.25A1.252,1.252,0,0,1,10.25,0h2.5A1.252,1.252,0,0,1,14,1.25v2.5A1.252,1.252,0,0,1,12.75,5ZM10.25.833a.417.417,0,0,0-.417.417v2.5a.417.417,0,0,0,.417.417h2.5a.417.417,0,0,0,.417-.417V1.25A.417.417,0,0,0,12.75.833Z" transform="translate(-1.5)" fill="#555"/>
      <path id="Path_14091" data-name="Path 14091" d="M12.75,14h-2.5A1.252,1.252,0,0,1,9,12.75v-2.5A1.252,1.252,0,0,1,10.25,9h2.5A1.252,1.252,0,0,1,14,10.25v2.5A1.252,1.252,0,0,1,12.75,14Zm-2.5-4.167a.417.417,0,0,0-.417.417v2.5a.417.417,0,0,0,.417.417h2.5a.417.417,0,0,0,.417-.417v-2.5a.417.417,0,0,0-.417-.417Z" transform="translate(-1.5 -1.5)" fill="#555"/>
      <path id="Path_14092" data-name="Path 14092" d="M12.75,23h-2.5A1.252,1.252,0,0,1,9,21.75v-2.5A1.252,1.252,0,0,1,10.25,18h2.5A1.252,1.252,0,0,1,14,19.25v2.5A1.252,1.252,0,0,1,12.75,23Zm-2.5-4.167a.417.417,0,0,0-.417.417v2.5a.417.417,0,0,0,.417.417h2.5a.417.417,0,0,0,.417-.417v-2.5a.417.417,0,0,0-.417-.417Z" transform="translate(-1.5 -3)" fill="#555"/>
      <path id="Path_14093" data-name="Path 14093" d="M21.75,5h-2.5A1.252,1.252,0,0,1,18,3.75V1.25A1.252,1.252,0,0,1,19.25,0h2.5A1.252,1.252,0,0,1,23,1.25v2.5A1.252,1.252,0,0,1,21.75,5ZM19.25.833a.417.417,0,0,0-.417.417v2.5a.417.417,0,0,0,.417.417h2.5a.417.417,0,0,0,.417-.417V1.25A.417.417,0,0,0,21.75.833Z" transform="translate(-3)" fill="#555"/>
      <path id="Path_14094" data-name="Path 14094" d="M21.75,14h-2.5A1.252,1.252,0,0,1,18,12.75v-2.5A1.252,1.252,0,0,1,19.25,9h2.5A1.252,1.252,0,0,1,23,10.25v2.5A1.252,1.252,0,0,1,21.75,14Zm-2.5-4.167a.417.417,0,0,0-.417.417v2.5a.417.417,0,0,0,.417.417h2.5a.417.417,0,0,0,.417-.417v-2.5a.417.417,0,0,0-.417-.417Z" transform="translate(-3 -1.5)" fill="#555"/>
      <path id="Path_14095" data-name="Path 14095" d="M21.75,23h-2.5A1.252,1.252,0,0,1,18,21.75v-2.5A1.252,1.252,0,0,1,19.25,18h2.5A1.252,1.252,0,0,1,23,19.25v2.5A1.252,1.252,0,0,1,21.75,23Zm-2.5-4.167a.417.417,0,0,0-.417.417v2.5a.417.417,0,0,0,.417.417h2.5a.417.417,0,0,0,.417-.417v-2.5a.417.417,0,0,0-.417-.417Z" transform="translate(-3 -3)" fill="#555"/>
    </g>
  </g>
</svg>
