<svg xmlns="http://www.w3.org/2000/svg" width="32.188" height="31.083" viewBox="0 0 32.188 31.083"><defs><style>.a{fill:#94a7d9;}</style></defs><g transform="translate(-2.5 -4.1)"><path class="a" d="M30.186,4.1H6.968A4.456,4.456,0,0,0,2.5,8.534v15.84a4.463,4.463,0,0,0,4.468,4.468h7.209l2.64,5.28a1.975,1.975,0,0,0,3.52-.034l2.64-5.28H30.22a4.463,4.463,0,0,0,4.468-4.468V8.534A4.508,4.508,0,0,0,30.186,4.1ZM12.214,23.731a1.455,1.455,0,1,1,1.455-1.455A1.466,1.466,0,0,1,12.214,23.731Zm3.622-7.92a5.871,5.871,0,0,1-1.625,1.523,1.5,1.5,0,0,0-.812,1.388.651.651,0,0,1-.609.575H11.672a.668.668,0,0,1-.474-.2.633.633,0,0,1-.169-.474A3.727,3.727,0,0,1,12.823,15.4a4.255,4.255,0,0,0,1.083-1.015,1.71,1.71,0,0,0,.1-1.794,2.069,2.069,0,0,0-2-1.083,2.1,2.1,0,0,0-2.3,1.862.616.616,0,0,1-.609.508H7.983a.615.615,0,0,1-.474-.2.607.607,0,0,1-.135-.474,4.457,4.457,0,0,1,4.671-4.028,4.415,4.415,0,0,1,4.1,2.369A3.964,3.964,0,0,1,15.835,15.811ZM28.088,23.46H20.98a1.151,1.151,0,0,1,0-2.3h7.141a1.141,1.141,0,0,1,1.151,1.151A1.17,1.17,0,0,1,28.088,23.46Zm0-5.855H20.98a1.151,1.151,0,0,1,0-2.3h7.141a1.141,1.141,0,0,1,1.151,1.151A1.17,1.17,0,0,1,28.088,17.6Zm0-5.855H20.98a1.151,1.151,0,0,1,0-2.3h7.141A1.141,1.141,0,0,1,29.272,10.6,1.17,1.17,0,0,1,28.088,11.749Z" transform="translate(0 0)"/></g></svg>