<svg xmlns="http://www.w3.org/2000/svg" width="27.63" height="31.083" viewBox="0 0 27.63 31.083"><defs><style>.a{fill:#94a7d9;}</style></defs><g transform="translate(-4 -5.941)"><path class="a" d="M11.771,8.044V5.454h2.59a3.454,3.454,0,1,1,6.907,0h2.59v2.59ZM31.63,7.181V31.357A1.727,1.727,0,0,1,29.9,33.083H5.727A1.727,1.727,0,0,1,4,31.357V7.181A1.727,1.727,0,0,1,5.727,5.454H9.181v5.181H26.449V5.454H29.9A1.727,1.727,0,0,1,31.63,7.181ZM9.181,21h6.907V14.088H9.181Zm4.675,5.717L16.3,24.27l-1.221-1.221-2.442,2.442-2.442-2.442L8.971,24.27l2.442,2.442L8.971,29.154l1.221,1.221,2.442-2.442,2.442,2.442L16.3,29.155Zm12.594-2.263H19.542V27.9h6.907Zm0-8.634H19.542v3.454h6.907ZM10.907,19.269h3.454V15.815H10.907Z" transform="translate(0 3.941)"/></g></svg>