<svg xmlns="http://www.w3.org/2000/svg" width="40" height="34.992" viewBox="0 0 40 34.992"><defs><style>.a{fill:#94a7d9;}.b{fill:#fff;}.c{fill:#c2cde9;}</style></defs><g transform="translate(0 0)"><rect class="a" width="40" height="25.667" rx="3" transform="translate(0 9.325)"/><path class="b" d="M0,4.053H0V3A3,3,0,0,1,3,0H20.406a3,3,0,0,1,3,3V4.051a1.747,1.747,0,0,0-.2-.012H.2a1.518,1.518,0,0,0-.2.013Z" transform="translate(8.297 0)"/><path class="c" d="M31.7,4.039H0V3A3,3,0,0,1,3,0H28.7a3,3,0,0,1,3,3V4.038Z" transform="translate(4.148 4.668)"/></g></svg>