<svg xmlns="http://www.w3.org/2000/svg" xmlns:xlink="http://www.w3.org/1999/xlink" width="9" height="18" viewBox="0 0 9 18">
  <defs>
    <clipPath id="clip-view_rating">
      <rect width="9" height="18"/>
    </clipPath>
  </defs>
  <g id="view_rating" data-name="view rating" clip-path="url(#clip-view_rating)">
    <g id="Group_28388" data-name="Group 28388" transform="translate(-15.292 -2)">
      <g id="Group_28393" data-name="Group 28393" transform="translate(16.819 8.229)">
        <g id="Group_28388-2" data-name="Group 28388" transform="translate(1.317 0)">
          <path id="Path_15119" data-name="Path 15119" d="M23.329,24.729a.166.166,0,0,1-.166-.166v-5a.493.493,0,1,0-.985,0v5a.166.166,0,0,1-.332,0v-5a.825.825,0,1,1,1.649,0v5A.166.166,0,0,1,23.329,24.729Z" transform="translate(-21.846 -18.74)" fill="#555" stroke="#555" stroke-width="0.35"/>
        </g>
        <g id="Group_28389" data-name="Group 28389" transform="translate(2.635 2.17)">
          <path id="Path_15120" data-name="Path 15120" d="M27.295,29.091a.166.166,0,0,1-.166-.166V26.1a.493.493,0,0,0-.985,0v2.828a.166.166,0,1,1-.332,0V26.1a.825.825,0,0,1,1.65,0v2.828A.166.166,0,0,1,27.295,29.091Z" transform="translate(-25.811 -25.272)" fill="#555" stroke="#555" stroke-width="0.35"/>
        </g>
        <g id="Group_28390" data-name="Group 28390" transform="translate(3.952 2.89)">
          <path id="Path_15121" data-name="Path 15121" d="M31.26,30.54a.166.166,0,0,1-.166-.166V28.266a.493.493,0,0,0-.985,0v2.108a.166.166,0,1,1-.332,0V28.266a.825.825,0,0,1,1.649,0v2.108A.166.166,0,0,1,31.26,30.54Z" transform="translate(-29.777 -27.441)" fill="#555" stroke="#555" stroke-width="0.35"/>
        </g>
        <g id="Group_28391" data-name="Group 28391" transform="translate(5.269 3.611)">
          <path id="Path_15122" data-name="Path 15122" d="M35.226,31.988a.166.166,0,0,1-.166-.166V30.435a.493.493,0,0,0-.985,0v1.387a.166.166,0,0,1-.332,0V30.435a.825.825,0,0,1,1.65,0v1.387A.166.166,0,0,1,35.226,31.988Z" transform="translate(-33.742 -29.61)" fill="#555" stroke="#555" stroke-width="0.35"/>
        </g>
        <g id="Group_28392" data-name="Group 28392" transform="translate(0 4.274)">
          <path id="Path_15123" data-name="Path 15123" d="M23.714,38.38H19.887a.69.69,0,0,1-.689-.689v-.816a1.637,1.637,0,0,0-.6-1.268,1.967,1.967,0,0,1-.719-1.524V32.43a.825.825,0,0,1,1.65,0v2.507a.166.166,0,0,1-.332,0V32.43a.493.493,0,1,0-.985,0v1.654a1.636,1.636,0,0,0,.6,1.267,1.968,1.968,0,0,1,.719,1.524v.816a.357.357,0,0,0,.357.357h3.828a.359.359,0,0,0,.353-.306l.316-1.895a5.209,5.209,0,0,0,.083-.925V33.154a.166.166,0,1,1,.332,0v1.767a5.538,5.538,0,0,1-.088.982L24.4,37.792A.692.692,0,0,1,23.714,38.38Z" transform="translate(-17.88 -31.605)" fill="#555" stroke="#555" stroke-width="0.35"/>
        </g>
      </g>
      <g id="Group_28394" data-name="Group 28394" transform="translate(16.292 3)">
        <path id="Path_15124" data-name="Path 15124" d="M20.509,8.094a.166.166,0,0,1-.077-.019L18.962,7.3l-1.47.773a.166.166,0,0,1-.241-.175l.281-1.637L16.342,5.1a.166.166,0,0,1,.092-.283l1.644-.239.735-1.489A.166.166,0,0,1,18.962,3h0a.166.166,0,0,1,.149.093l.735,1.489,1.644.239a.166.166,0,0,1,.092.283L20.392,6.263,20.672,7.9a.166.166,0,0,1-.164.194ZM16.815,5.1l1.011.985a.166.166,0,0,1,.048.147l-.239,1.391,1.249-.657a.165.165,0,0,1,.155,0l1.249.657L20.05,6.233a.166.166,0,0,1,.048-.147L21.108,5.1l-1.4-.2a.166.166,0,0,1-.125-.091l-.625-1.266-.625,1.266a.166.166,0,0,1-.125.091Z" transform="translate(-16.292 -3)" fill="#555" stroke="#555" stroke-width="0.35"/>
      </g>
    </g>
  </g>
</svg>
