<svg xmlns="http://www.w3.org/2000/svg" width="33.705" height="31.083" viewBox="0 0 33.705 31.083"><defs><style>.a{fill:#94a7d9;}</style></defs><g transform="translate(-2.1 -6.922)"><g transform="translate(2.1 6.922)"><path class="a" d="M18.892,68.085a2.971,2.971,0,0,0,5.831,0l.463-2.343A3.125,3.125,0,0,0,22.08,62.2h-.545a3.139,3.139,0,0,0-3.106,3.542Z" transform="translate(-13.96 -47.138)"/><path class="a" d="M16.132,97.044,12.972,95.9,9.947,98.924,6.923,95.9,3.762,97.017a.923.923,0,0,0-.572.654L2.1,102.739H17.767l-1.09-5.068A.725.725,0,0,0,16.132,97.044Z" transform="translate(-2.1 -71.656)"/><path class="a" d="M88.007,62.2h-.272a3.139,3.139,0,0,0-3.106,3.542l.463,2.343a2.971,2.971,0,0,0,5.831,0l.463-2.343A3.125,3.125,0,0,0,88.28,62.2Z" transform="translate(-62.122 -47.138)"/><path class="a" d="M82.9,97.671a.869.869,0,0,0-.572-.654L79.172,95.9H73.123l-3.161,1.117a.923.923,0,0,0-.572.654l-1.09,5.068H83.967Z" transform="translate(-50.262 -71.656)"/><path class="a" d="M73.144,24.433a.6.6,0,0,0,.409-.163l2.289-2.289a.578.578,0,0,0-.817-.817l-1.88,1.88-.763-.763a.578.578,0,0,0-.817.817l1.144,1.144A.674.674,0,0,0,73.144,24.433Z" transform="translate(-52.517 -17.164)"/><path class="a" d="M37.435,11.3a5.539,5.539,0,0,0-10.954,1.253c0,.245-.054,5.45-.082,7.139a.272.272,0,0,0,.436.218l3.242-2.262a5.588,5.588,0,0,0,2.915.272A5.529,5.529,0,0,0,37.435,11.3Zm-5.068,3.678a.518.518,0,0,1-.354.136.488.488,0,0,1-.49-.49.483.483,0,0,1,.463-.49.466.466,0,0,1,.49.463A.408.408,0,0,1,32.367,14.981Zm.518-2.7-.136.136c-.136.136-.3.245-.3.49,0,.163-.027.327-.027.518a.1.1,0,0,1-.027.082.119.119,0,0,1-.082.027h-.654c-.054,0-.054-.027-.054-.054a2.718,2.718,0,0,1,.136-1.063,1.334,1.334,0,0,1,.463-.49,4.735,4.735,0,0,0,.409-.354.636.636,0,0,0,.109-.627.7.7,0,0,0-.654-.354.754.754,0,0,0-.736.572c-.027.109-.054.136-.082.136h-.109c-.191-.027-.409-.054-.6-.082-.082,0-.082-.027-.082-.082a1.556,1.556,0,0,1,1.662-1.281,1.636,1.636,0,0,1,1.144.409,1.237,1.237,0,0,1,.436.9A2.139,2.139,0,0,1,32.885,12.284Z" transform="translate(-19.779 -6.922)"/><path class="a" d="M71.795,17.658l3.242,2.262a.272.272,0,0,0,.436-.218c-.027-1.717-.082-6.894-.082-7.139A5.543,5.543,0,0,0,66.1,8.394a5.164,5.164,0,0,1,.6.9,4.464,4.464,0,0,1,7.6,3.27c0,.191.027,3.324.054,5.64l-2.425-1.717-.518.191a4.558,4.558,0,0,1-2.343.218A4.433,4.433,0,0,1,66.7,15.669c-.109.163-.191.327-.3.49a3.9,3.9,0,0,1-.3.409,5.686,5.686,0,0,0,2.779,1.362A5.321,5.321,0,0,0,71.795,17.658Z" transform="translate(-48.662 -6.929)"/></g></g></svg>