<svg xmlns="http://www.w3.org/2000/svg" width="33.964" height="26.209" viewBox="0 0 33.964 26.209">
  <g id="Group_30387" data-name="Group 30387" transform="translate(0 1.712)">
    <g id="Group_28205" data-name="Group 28205" transform="translate(4.166 3.849)">
      <circle id="Ellipse_2284" data-name="Ellipse 2284" cx="5.44" cy="5.44" r="5.44" fill="#0a932e"/>
    </g>
    <g id="Group_28206" data-name="Group 28206" transform="translate(0 13.626)">
      <path id="Path_14979" data-name="Path 14979" d="M21.711,27.241v4.374a.671.671,0,0,1-.678.678H3.178a.677.677,0,0,1-.678-.678V27.241a6.08,6.08,0,0,1,4.374-5.819,6.8,6.8,0,0,0,10.464,0A6.061,6.061,0,0,1,21.711,27.241Z" transform="translate(-2.5 -21.422)" fill="#0a932e"/>
    </g>
    <path id="Path_19325" data-name="Path 19325" d="M18.521,15.678H7.626A2.625,2.625,0,0,0,5,18.3v3.918a2.974,2.974,0,0,0,2.84,2.621v2.577a.551.551,0,0,0,.38.545.6.6,0,0,0,.581-.143l3.024-2.975,6.482-.005a2.974,2.974,0,0,0,2.84-2.621V18.3A2.626,2.626,0,0,0,18.521,15.678Zm-5.468,7.728a.453.453,0,1,1,.453-.454A.454.454,0,0,1,13.054,23.406Zm1.676-3.964a2.022,2.022,0,0,1-.462.629l-.346.33a1.859,1.859,0,0,0-.427.54,1.411,1.411,0,0,0-.105.578c0,.035,0,.092,0,.136,0,.013,0,.026,0,.039s0,.009,0,.013,0,0,0,.005h0a.369.369,0,0,1-.738-.019s0,0,0-.005,0-.03,0-.048c0-.04,0-.07,0-.089a2.012,2.012,0,0,1,.153-.806,2.267,2.267,0,0,1,.5-.7l.322-.322a1.665,1.665,0,0,0,.359-.482,1.259,1.259,0,0,0,.107-.528.876.876,0,0,0-.27-.67,1,1,0,0,0-.711-.254,1.012,1.012,0,0,0-.823.332,1.456,1.456,0,0,0-.288.8c0,.006,0,.043,0,.053a.365.365,0,0,1-.728-.03c0-.012,0-.024,0-.035a.133.133,0,0,1,0-.029,2.239,2.239,0,0,1,.482-1.255,1.884,1.884,0,0,1,1.394-.495,1.8,1.8,0,0,1,1.266.435,1.49,1.49,0,0,1,.474,1.153A1.745,1.745,0,0,1,14.729,19.442Z" transform="translate(12.816 -17.39)" fill="#0a932e"/>
  </g>
</svg>
