<svg xmlns="http://www.w3.org/2000/svg" width="15.032" height="16.554" viewBox="0 0 15.032 16.554"><defs><style>.a{fill:#747474;}</style></defs><g transform="translate(20714.809 -1707.171)"><path class="a" d="M37.9,352.977a.669.669,0,0,0-.669.669v2.282a.854.854,0,0,1-.853.853H25.723a.854.854,0,0,1-.853-.853v-2.282a.669.669,0,1,0-1.337,0v2.282a2.193,2.193,0,0,0,2.19,2.19H36.375a2.193,2.193,0,0,0,2.19-2.19v-2.282A.669.669,0,0,0,37.9,352.977Z" transform="translate(-20738.342 1365.606)"/><path class="a" d="M148.42,1.143l-3.043,3.043a.669.669,0,0,1-.946,0l-3.043-3.043A.669.669,0,0,1,142.334.2l2.57,2.57L147.475.2a.669.669,0,1,1,.946.946Z" transform="translate(-20852.195 1714.778)"/><path class="a" d="M235.987,11.989a.669.669,0,0,1-.669-.669V.669a.669.669,0,1,1,1.337,0V11.32A.669.669,0,0,1,235.987,11.989Z" transform="translate(-20943.277 1707.171)"/></g></svg>