<svg xmlns="http://www.w3.org/2000/svg" xmlns:xlink="http://www.w3.org/1999/xlink" width="13" height="14" viewBox="0 0 13 14">
  <defs>
    <clipPath id="clip-delete">
      <rect width="13" height="14"/>
    </clipPath>
  </defs>
  <g id="delete" clip-path="url(#clip-delete)">
    <path id="Path_15283" data-name="Path 15283" d="M35.816,30.326v7.206a.277.277,0,1,1-.554,0V30.326A.277.277,0,1,1,35.816,30.326Zm2.217,7.206V30.326a.277.277,0,1,0-.554,0v7.206A.277.277,0,1,0,38.034,37.532Zm-4.989-7.206v7.206a.277.277,0,1,0,.554,0V30.326A.277.277,0,1,0,33.045,30.326Zm7.76-1.663h-.554v9.7a1.372,1.372,0,0,1-1.386,1.386H32.213a1.372,1.372,0,0,1-1.386-1.386v-9.7h-.554a.277.277,0,1,1,0-.554h3.049v-.554A.556.556,0,0,1,33.876,27H37.2a.556.556,0,0,1,.554.554v.554h3.049A.277.277,0,1,1,40.805,28.663Zm-6.929-.554H37.2v-.554H33.876Zm5.82.554H31.382v9.7a.817.817,0,0,0,.831.831h6.652a.817.817,0,0,0,.831-.831Z" transform="translate(-28.994 -26.5)" fill="#555" stroke="#555" stroke-width="0.15"/>
  </g>
</svg>
