<svg xmlns="http://www.w3.org/2000/svg" width="20.004" height="20" viewBox="0 0 20.004 20">
  <g id="Group_29416" data-name="Group 29416" transform="translate(-290 -112)">
    <g id="Rectangle_8992" data-name="Rectangle 8992" transform="translate(300.754 125.277)" fill="none" stroke="#555" stroke-width="1">
      <rect width="9.25" height="6.72" rx="1.3" stroke="none"/>
      <rect x="0.5" y="0.5" width="8.25" height="5.72" rx="0.8" fill="none"/>
    </g>
    <g id="Rectangle_8991" data-name="Rectangle 8991" transform="translate(300.754 112)" fill="none" stroke="#555" stroke-width="1">
      <rect width="9.25" height="11.72" rx="1.3" stroke="none"/>
      <rect x="0.5" y="0.5" width="8.25" height="10.72" rx="0.8" fill="none"/>
    </g>
    <g id="Path_15151" data-name="Path 15151" transform="translate(290 120.28)" fill="none">
      <path d="M1.3,0H7.95a1.3,1.3,0,0,1,1.3,1.3v9.12a1.3,1.3,0,0,1-1.3,1.3H1.3A1.3,1.3,0,0,1,0,10.42V1.3A1.3,1.3,0,0,1,1.3,0Z" stroke="none"/>
      <path d="M 1.300000190734863 1 C 1.134579658508301 1 1 1.134579658508301 1 1.299999237060547 L 1 10.42000007629395 C 1 10.58541965484619 1.134579658508301 10.71999931335449 1.300000190734863 10.71999931335449 L 7.949999809265137 10.71999931335449 C 8.115420341491699 10.71999931335449 8.25 10.58541965484619 8.25 10.42000007629395 L 8.25 1.299999237060547 C 8.25 1.134579658508301 8.115420341491699 1 7.949999809265137 1 L 1.300000190734863 1 M 1.300000190734863 0 L 7.949999809265137 0 C 8.667969703674316 0 9.25 0.5820293426513672 9.25 1.299999237060547 L 9.25 10.42000007629395 C 9.25 11.13796997070312 8.667969703674316 11.71999931335449 7.949999809265137 11.71999931335449 L 1.300000190734863 11.71999931335449 C 0.5820302963256836 11.71999931335449 0 11.13796997070312 0 10.42000007629395 L 0 1.299999237060547 C 0 0.5820293426513672 0.5820302963256836 0 1.300000190734863 0 Z" stroke="none" fill="#555"/>
    </g>
    <g id="Rectangle_8990" data-name="Rectangle 8990" transform="translate(290.004 112)" fill="none" stroke="#555" stroke-width="1">
      <rect width="9.25" height="6.72" rx="1.3" stroke="none"/>
      <rect x="0.5" y="0.5" width="8.25" height="5.72" rx="0.8" fill="none"/>
    </g>
  </g>
</svg>
