<svg xmlns="http://www.w3.org/2000/svg" width="28" height="21" viewBox="0 0 28 21"><defs><style>.a{fill:#f68a33;}</style></defs><g transform="translate(0 0)"><path class="a" d="M27.877,170.667H8.042a2.31,2.31,0,0,0-2.263,1.741l0,.012L2.36,183.743a.564.564,0,0,0,.018.376,2.323,2.323,0,0,0,2.164,1.44H24.377a2.32,2.32,0,0,0,2.239-1.662c.005-.012.01-.025.014-.037L30.1,173.666a.553.553,0,0,0,.024-.1,2.186,2.186,0,0,0,.091-.609A2.315,2.315,0,0,0,27.877,170.667Z" transform="translate(-2.21 -164.559)"/><path class="a" d="M.5,75.888a.548.548,0,0,0,.085.006.583.583,0,0,0,.56-.41l1.3-4.31.005-.02a3.492,3.492,0,0,1,3.395-2.572H23.873a.589.589,0,0,0,.478-.243.564.564,0,0,0,.073-.522,2.339,2.339,0,0,0-2.2-1.526H11.355L9.187,64.168A.591.591,0,0,0,8.773,64H2.34A2.318,2.318,0,0,0,0,66.291v9.03A.577.577,0,0,0,.5,75.888Z" transform="translate(0 -64)"/></g></svg>