<svg xmlns="http://www.w3.org/2000/svg" xmlns:xlink="http://www.w3.org/1999/xlink" width="13" height="12" viewBox="0 0 13 12">
  <defs>
    <clipPath id="clip-edit">
      <rect width="13" height="12"/>
    </clipPath>
  </defs>
  <g id="edit" clip-path="url(#clip-edit)">
    <path id="edit-2" data-name="edit" d="M10.168.461a1.582,1.582,0,0,0-2.235,0l-.56.563L1.417,6.977,1.4,6.989S1.4,7,1.4,7s-.016.019-.022.028,0,0,0,.006l-.016.025s0,.006-.006.009-.006.016-.01.025,0,0,0,.006L.017,11.07a.311.311,0,0,0,.076.322.318.318,0,0,0,.224.092.373.373,0,0,0,.1-.016l3.971-1.325s0,0,.006,0a.115.115,0,0,0,.028-.013l.006,0,.032-.019c.009-.006.019-.016.028-.022s.006,0,.006-.006.01-.006.013-.013L11.024,3.55a1.582,1.582,0,0,0,0-2.235ZM4.288,9.4l-2.2-2.2L7.594,1.694l2.2,2.2ZM1.778,7.786,3.7,9.708l-2.886.961Zm8.8-4.679-.335.338-2.2-2.2L8.382.907a.948.948,0,0,1,1.34,0l.86.86a.951.951,0,0,1,0,1.34Zm0,0" transform="translate(0.5 0.501)" fill="#555" stroke="#555" stroke-width="0.25"/>
  </g>
</svg>
