<svg xmlns="http://www.w3.org/2000/svg" xmlns:xlink="http://www.w3.org/1999/xlink" width="16" height="15" viewBox="0 0 16 15">
  <defs>
    <clipPath id="clip-visibility_criteria">
      <rect width="16" height="15"/>
    </clipPath>
  </defs>
  <g id="visibility_criteria" data-name="visibility criteria" clip-path="url(#clip-visibility_criteria)">
    <g id="Group_29413" data-name="Group 29413" transform="translate(-4 -5)">
      <path id="Path_15142" data-name="Path 15142" d="M10.121,15.478a2.836,2.836,0,1,1,2.836-2.836A2.836,2.836,0,0,1,10.121,15.478Zm0-4.537a1.7,1.7,0,1,0,1.7,1.7A1.7,1.7,0,0,0,10.121,10.94Zm0,6.806a9.205,9.205,0,0,1-7.375-4.092h0a1.727,1.727,0,0,1,0-2.025,9.205,9.205,0,0,1,7.375-4.092A9.205,9.205,0,0,1,17.5,11.629a1.727,1.727,0,0,1,0,2.026A9.205,9.205,0,0,1,10.121,17.746ZM3.665,12.99a7.983,7.983,0,0,0,6.456,3.622,7.983,7.983,0,0,0,6.456-3.622.594.594,0,0,0,0-.7,7.984,7.984,0,0,0-6.456-3.622,7.983,7.983,0,0,0-6.456,3.622.594.594,0,0,0,0,.7ZM9.554,3.567V6.4a.567.567,0,1,0,1.134,0V3.567a.567.567,0,1,0-1.134,0Zm7.585,2.114L15.315,7.854a.567.567,0,1,1-.869-.729L16.27,4.952a.567.567,0,1,1,.869.729ZM3.972,4.952,5.8,7.124a.567.567,0,1,1-.869.73L3.1,5.682a.567.567,0,1,1,.869-.73Z" transform="translate(1.583 2)" fill="#545454"/>
      <path id="Path_14531" data-name="Path 14531" d="M4.4,10.349l7.232-7.232c.141-.141.222-.37.081-.511a.362.362,0,0,0-.511,0L3.972,9.838a.362.362,0,0,0,0,.511A.271.271,0,0,0,4.4,10.349Z" transform="translate(3.801 8.286)" fill="#545454" fill-rule="evenodd"/>
    </g>
  </g>
</svg>
