<svg xmlns="http://www.w3.org/2000/svg" width="28" height="24.494" viewBox="0 0 28 24.494"><defs><style>.a{fill:#006fee;}.b{fill:#a4c4e9;}.c{fill:#4f96e8;}</style></defs><g transform="translate(-411 -393.879)"><rect class="a" width="28" height="17.933" rx="2" transform="translate(411 400.44)"/><path class="b" d="M16.326,2.966h0a1.462,1.462,0,0,0-.592-.123H.595A1.49,1.49,0,0,0,0,2.964V1.5A1.5,1.5,0,0,1,1.5,0H14.826a1.5,1.5,0,0,1,1.5,1.5V2.966Z" transform="translate(416.836 393.879)"/><path class="c" d="M22.163,2.867h0a1.4,1.4,0,0,0-.267-.025H.269A1.513,1.513,0,0,0,0,2.866V1.5A1.5,1.5,0,0,1,1.5,0H20.662a1.5,1.5,0,0,1,1.5,1.5V2.866Z" transform="translate(413.919 397.164)"/></g></svg>