<svg xmlns="http://www.w3.org/2000/svg" width="20.857" height="20.857" viewBox="0 0 20.857 20.857">
  <g id="Group_29419" data-name="Group 29419" transform="translate(-289.571 -259.271)">
    <g id="Group_29418" data-name="Group 29418">
      <path id="Path_15315" data-name="Path 15315" d="M21.773,10.5l-2.213-.376a7.856,7.856,0,0,0-.48-1.148l1.295-1.817a.693.693,0,0,0-.063-.877L18.536,4.5a.668.668,0,0,0-.877-.063l-1.816,1.3a7,7,0,0,0-1.148-.48L14.34,3.064a.673.673,0,0,0-.668-.564H11.165a.673.673,0,0,0-.668.564l-.376,2.213a7.856,7.856,0,0,0-1.148.48L7.156,4.463a.693.693,0,0,0-.877.063L4.5,6.3a.668.668,0,0,0-.063.877l1.3,1.817a7,7,0,0,0-.48,1.148L3.064,10.5a.673.673,0,0,0-.564.668v2.506a.673.673,0,0,0,.564.668l2.213.376a7.856,7.856,0,0,0,.48,1.148L4.463,17.68a.693.693,0,0,0,.063.877L6.3,20.332a.668.668,0,0,0,.877.063l1.817-1.3a7,7,0,0,0,1.148.48l.376,2.213a.673.673,0,0,0,.668.564h2.506a.673.673,0,0,0,.668-.564l.355-2.234a7.856,7.856,0,0,0,1.148-.48l1.817,1.295a.693.693,0,0,0,.877-.063l1.775-1.775a.668.668,0,0,0,.063-.877l-1.3-1.816a7,7,0,0,0,.48-1.148l2.213-.376a.673.673,0,0,0,.564-.668V11.165A.712.712,0,0,0,21.773,10.5Zm-9.354,5.492a3.571,3.571,0,1,1,3.571-3.571,3.571,3.571,0,0,1-3.571,3.571Z" transform="translate(287.571 257.271)" fill="none" stroke="#555" stroke-width="1"/>
    </g>
  </g>
</svg>
