<svg id="Group_30386" data-name="Group 30386" xmlns="http://www.w3.org/2000/svg" width="41.715" height="24.497" viewBox="0 0 41.715 24.497">
  <g id="Group_28205" data-name="Group 28205" transform="translate(4.166 3.849)">
    <circle id="Ellipse_2284" data-name="Ellipse 2284" cx="5.44" cy="5.44" r="5.44" fill="#0a932e"/>
  </g>
  <g id="Group_28206" data-name="Group 28206" transform="translate(0 13.626)">
    <path id="Path_14979" data-name="Path 14979" d="M21.711,27.241v4.374a.671.671,0,0,1-.678.678H3.178a.677.677,0,0,1-.678-.678V27.241a6.08,6.08,0,0,1,4.374-5.819,6.8,6.8,0,0,0,10.464,0A6.061,6.061,0,0,1,21.711,27.241Z" transform="translate(-2.5 -21.422)" fill="#0a932e"/>
  </g>
  <g id="Group_28209" data-name="Group 28209" transform="translate(17.794 0)">
    <g id="Group_28207" data-name="Group 28207">
      <path id="Path_14980" data-name="Path 14980" d="M45.37,13.348H29.438a4,4,0,0,0-2.826,6.826,3.956,3.956,0,0,0,1.547.959,4.559,4.559,0,0,1-1.489,1.4.438.438,0,0,0,.122.8,5.536,5.536,0,0,0,5.553-1.983H45.37a4,4,0,0,0,0-8ZM34.1,18.657a1.308,1.308,0,1,1,1.308-1.308A1.31,1.31,0,0,1,34.1,18.657Zm3.3,0a1.308,1.308,0,1,1,1.308-1.308A1.31,1.31,0,0,1,37.4,18.657Zm3.308,0a1.308,1.308,0,1,1,1.308-1.308A1.307,1.307,0,0,1,40.712,18.657Z" transform="translate(-25.443 -13.348)" fill="#0a932e"/>
    </g>
  </g>
</svg>
