<svg xmlns="http://www.w3.org/2000/svg" width="40" height="30" viewBox="0 0 40 30"><defs><style>.a{fill:#94a7d9;}</style></defs><g transform="translate(-738.797 -311.001)"><g transform="translate(738.797 311.001)"><g transform="translate(0 0)"><path class="a" d="M38.821,170.667H10.487a3.309,3.309,0,0,0-3.232,2.523l-.006.018L2.37,189.614a.829.829,0,0,0,.026.545,3.318,3.318,0,0,0,3.091,2.087H33.821a3.32,3.32,0,0,0,3.2-2.408c.007-.018.014-.036.02-.054l4.951-14.77a.809.809,0,0,0,.034-.144,3.21,3.21,0,0,0,.13-.882A3.33,3.33,0,0,0,38.821,170.667Z" transform="translate(-2.154 -162.245)"/><path class="a" d="M.714,81.226a.768.768,0,0,0,.121.009.833.833,0,0,0,.8-.594L3.492,74.4l.007-.028A4.992,4.992,0,0,1,8.338,70.64h25.7a.831.831,0,0,0,.786-1.108,3.337,3.337,0,0,0-3.134-2.212h-15.5L13.1,64.243a.835.835,0,0,0-.59-.243H3.335A3.331,3.331,0,0,0,0,67.32V80.405A.831.831,0,0,0,.714,81.226Z" transform="translate(0 -64)"/></g></g></g></svg>