<svg xmlns="http://www.w3.org/2000/svg" width="31.517" height="36.151" viewBox="0 0 31.517 36.151"><defs><style>.a{fill:#94a7d9;}</style></defs><g transform="translate(-8.6 -2.5)"><g transform="translate(8.6 2.5)"><path class="a" d="M41.953,19.692A2.11,2.11,0,0,0,39.862,17.6H31.534a9.324,9.324,0,0,1,.076,1.027,8.579,8.579,0,0,1-1.559,4.944h6.883a.381.381,0,0,1,.38.38v1.141a.381.381,0,0,1-.38.38H28.187a8.482,8.482,0,0,1-5.172,1.749A8.853,8.853,0,0,1,21,26.993V40.037a2.11,2.11,0,0,0,2.092,2.092H33.283l8.67-12.321ZM33.625,36.538a.381.381,0,0,1-.38.38H25.677a.381.381,0,0,1-.38-.38V35.4a.381.381,0,0,1,.38-.38h7.53a.381.381,0,0,1,.38.38v1.141ZM37.314,30.8a.381.381,0,0,1-.38.38H25.677a.381.381,0,0,1-.38-.38V29.655a.381.381,0,0,1,.38-.38H36.934a.381.381,0,0,1,.38.38Z" transform="translate(-16.285 -11.858)"/><path class="a" d="M59,66.613l3.765,2.662,6.351-9.013L65.351,57.6Z" transform="translate(-39.834 -36.647)"/><path class="a" d="M82.868,51.143l-2.852-2.015a.563.563,0,0,0-.8.152L78,50.991l3.8,2.662,1.217-1.711A.557.557,0,0,0,82.868,51.143Z" transform="translate(-51.608 -31.331)"/><path class="a" d="M54.3,85.9a.637.637,0,0,0-.114.456l.114,2.624a.722.722,0,0,0,.913.646l2.51-.761a.869.869,0,0,0,.38-.266l.8-1.141L55.1,84.8Z" transform="translate(-36.843 -53.503)"/><path class="a" d="M22.062,9.231A6.731,6.731,0,1,0,15.331,16,6.719,6.719,0,0,0,22.062,9.231Zm-7.492,2.89a.952.952,0,0,1-.685-.3L11.946,9.763a.915.915,0,0,1,1.331-1.255l1.255,1.331L17.27,6.911A.915.915,0,0,1,18.6,8.166l-3.346,3.651A.952.952,0,0,1,14.57,12.121Z" transform="translate(-8.6 -2.5)"/></g></g></svg>