<svg xmlns="http://www.w3.org/2000/svg" width="276" height="164" viewBox="0 0 276 164"><defs><style>.a,.ac,.ae,.af,.ag,.ah,.ai,.ak,.al,.an,.au,.aw,.ay,.ba,.d,.h,.l,.o,.q,.s,.w,.x{fill:none;}.a{stroke:#becaeb;}.a,.ak,.an,.au,.d,.h,.x{stroke-linejoin:round;}.a,.ac,.ae,.af,.ag,.ah,.ai,.ak,.al,.an,.au,.aw,.d,.h,.l,.o,.q,.s,.w,.x{stroke-miterlimit:10;}.a,.al,.an,.d,.h,.l{stroke-width:1.333px;}.b{fill:#fff;}.c{fill:#ffe200;}.d{stroke:#ffc400;}.e{fill:#eceef9;}.f{fill:#d1d5ef;}.g,.i{fill:#388e02;}.h,.i{stroke:#89ba69;}.i{stroke-width:0.133px;}.j{fill:#5aacd8;}.k{fill:#f5d48d;}.l{stroke:#c7c0e5;}.m{fill:#fac1bf;}.n{fill:#7984ca;}.o{stroke:#5d5fb5;}.p{fill:#dde1f4;}.q{stroke:#8786cb;}.r{fill:#9ca0d8;}.s{stroke:#4b4ca8;}.t{fill:#ecf0fa;}.u{fill:#a13e3a;}.v{fill:#202131;}.w{stroke:#712725;}.ah,.x{stroke:#202131;}.x{stroke-linecap:round;}.af,.x{stroke-width:0.667px;}.y{fill:#4940a0;}.aj,.z{fill:#232657;}.aa{fill:#fac1b6;}.ab{fill:#142034;}.ac{stroke:#f2527e;}.ad{fill:#f14565;}.ae{stroke:#911831;}.af,.ag,.an{stroke:#f7978a;}.ai{stroke:#6861b6;}.aj{fill-rule:evenodd;}.ak{stroke:#3b3e97;}.al,.aw{stroke:#f08573;}.am{fill:#f46f4e;}.ao{fill:#f7978a;}.ap{fill:#e0ddf2;}.aq{fill:#cdcaea;}.ar{fill:#edebf7;}.as{fill:#f57f83;}.at{fill:#5250ac;}.au{stroke:#332f8c;}.av{fill:#f08573;}.ax{fill:#712725;}.ay{stroke:rgba(85,85,85,0.2);}.az{stroke:none;}</style></defs><g transform="translate(-403 -663)"><g transform="translate(406 666)"><g transform="translate(0 0)"><path class="a" d="M854.507-457v1.908" transform="translate(-609.485 493.235)"/><path class="a" d="M853.331-453.919h-1.907" transform="translate(-607.356 491.105)"/><path class="a" d="M923.38-183.724v1.908" transform="translate(-657.051 304.5)"/><path class="a" d="M922.205-180.64H920.3" transform="translate(-654.922 302.371)"/><path class="a" d="M205.614-481.955v1.908" transform="translate(-161.34 510.468)"/><path class="a" d="M204.439-478.871h-1.907" transform="translate(-159.211 508.338)"/><path class="a" d="M414.552-501.793v1.907" transform="translate(-305.639 524.169)"/><path class="a" d="M413.376-498.711h-1.908" transform="translate(-303.509 522.04)"/><path class="a" d="M149.6-383.284v1.907" transform="translate(-122.652 442.323)"/><path class="a" d="M148.42-380.2h-1.907" transform="translate(-120.523 440.194)"/><path class="a" d="M374.1-196.042v1.907" transform="translate(-277.701 313.008)"/><path class="a" d="M372.924-192.961h-1.907" transform="translate(-275.572 310.88)"/><path class="a" d="M553.713-432.894v1.908" transform="translate(-401.748 476.585)"/><path class="a" d="M552.538-429.811h-1.908" transform="translate(-399.619 474.456)"/><path class="a" d="M488.74-570.265a.91.91,0,0,1-.911.911.911.911,0,0,1-.911-.911.911.911,0,0,1,.911-.911A.911.911,0,0,1,488.74-570.265Z" transform="translate(-355.618 572.087)"/><path class="a" d="M922.258-297.726a.911.911,0,0,1-.91.911.911.911,0,0,1-.911-.911.911.911,0,0,1,.911-.911A.911.911,0,0,1,922.258-297.726Z" transform="translate(-655.018 383.863)"/><path class="a" d="M652.013-506.771a.911.911,0,0,1-.911.911.91.91,0,0,1-.91-.911.911.911,0,0,1,.91-.911A.911.911,0,0,1,652.013-506.771Z" transform="translate(-468.379 528.235)"/><path class="a" d="M395.971-407.358a.911.911,0,0,1-.911.911.911.911,0,0,1-.911-.911.911.911,0,0,1,.911-.911A.911.911,0,0,1,395.971-407.358Z" transform="translate(-291.549 459.578)"/><path class="a" d="M779.4-458.9a.911.911,0,0,1-.911.911.911.911,0,0,1-.911-.911.911.911,0,0,1,.911-.911A.911.911,0,0,1,779.4-458.9Z" transform="translate(-556.356 495.172)"/><path class="a" d="M65.728-203.757a.911.911,0,0,1-.911.911.911.911,0,0,1-.911-.911.911.911,0,0,1,.911-.91A.91.91,0,0,1,65.728-203.757Z" transform="translate(-63.473 318.965)"/><path class="a" d="M164.8-423.355a.91.91,0,0,1-.911.91.911.911,0,0,1-.911-.91.911.911,0,0,1,.911-.911A.91.91,0,0,1,164.8-423.355Z" transform="translate(-131.893 470.626)"/><path class="a" d="M252.409-532.317a.911.911,0,0,1-.911.911.911.911,0,0,1-.911-.911.911.911,0,0,1,.911-.911A.911.911,0,0,1,252.409-532.317Z" transform="translate(-192.4 545.879)"/><path class="a" d="M119.554-465.1H129.84" transform="translate(-101.905 498.828)"/><path class="a" d="M162.929-465.1h4.591" transform="translate(-131.861 498.828)"/><path class="a" d="M704.689-500.883h10.286" transform="translate(-506.016 523.54)"/><path class="a" d="M748.065-500.883h4.59" transform="translate(-535.973 523.54)"/><path class="a" d="M366.736-574.12H359.75" transform="translate(-267.791 574.12)"/><path class="a" d="M343.884-574.12h-3.765" transform="translate(-254.234 574.12)"/><path class="a" d="M570.048-530.284h7.519" transform="translate(-413.029 543.845)"/><path class="a" d="M820.915-373.535h7.519" transform="translate(-586.286 435.59)"/><path class="a" d="M843.435-384.379h4.943" transform="translate(-601.839 443.079)"/><path class="b" d="M515.37-512.1a8.242,8.242,0,0,0-8.242-8.242,8.242,8.242,0,0,0-8.242,8.242,8.242,8.242,0,0,0,8.242,8.242,8.2,8.2,0,0,0,3.865-.964l1.925.964-.53-1.9a8.224,8.224,0,0,0,2.982-6.345" transform="translate(-363.883 536.982)"/><path class="a" d="M515.37-512.1a8.242,8.242,0,0,0-8.242-8.242,8.242,8.242,0,0,0-8.242,8.242,8.242,8.242,0,0,0,8.242,8.242,8.2,8.2,0,0,0,3.865-.964l1.925.964-.53-1.9A8.224,8.224,0,0,0,515.37-512.1Z" transform="translate(-363.883 536.982)"/><path class="c" d="M512.052-507.3a4.169,4.169,0,0,1,4.169-4.169,4.169,4.169,0,0,1,4.169,4.169,4.148,4.148,0,0,1-.8,2.455h0c-.595.9-2.141,1.909-2.141,2.516v.693a.25.25,0,0,1-.25.251h-1.956a.25.25,0,0,1-.25-.251v-.693c0-.606-1.546-1.619-2.141-2.516h0a4.15,4.15,0,0,1-.8-2.455" transform="translate(-372.976 530.848)"/><path class="a" d="M512.052-507.3a4.169,4.169,0,0,1,4.169-4.169,4.169,4.169,0,0,1,4.169,4.169,4.148,4.148,0,0,1-.8,2.455h0c-.595.9-2.141,1.909-2.141,2.516v.693a.25.25,0,0,1-.25.251h-1.956a.25.25,0,0,1-.25-.251v-.693c0-.606-1.546-1.619-2.141-2.516h0A4.15,4.15,0,0,1,512.052-507.3Z" transform="translate(-372.976 530.848)"/><path class="d" d="M518.049-497.717a.507.507,0,0,0-.264.071.861.861,0,0,0-.279.84,1.887,1.887,0,0,0,1.81,1.469,5.3,5.3,0,0,0-.377-1.711,1.231,1.231,0,0,0-.7-.642A.68.68,0,0,0,518.049-497.717Zm3.757,0a.688.688,0,0,0-.186.028,1.231,1.231,0,0,0-.7.642,5.3,5.3,0,0,0-.377,1.711,1.888,1.888,0,0,0,1.81-1.469.864.864,0,0,0-.279-.84A.512.512,0,0,0,521.807-497.717Zm-1.405,5.711a27.248,27.248,0,0,1,.055-3.245,4.517,4.517,0,0,1-.528.03,4.51,4.51,0,0,1-.528-.03,27.326,27.326,0,0,1,.054,3.245l-.074,0a27.95,27.95,0,0,0-.058-3.251,1.961,1.961,0,0,1-1.889-1.534.923.923,0,0,1,.313-.915.633.633,0,0,1,.509-.051,1.308,1.308,0,0,1,.748.679,5.408,5.408,0,0,1,.389,1.755,4.429,4.429,0,0,0,.534.031,4.434,4.434,0,0,0,.535-.031,5.4,5.4,0,0,1,.389-1.755,1.306,1.306,0,0,1,.748-.679.634.634,0,0,1,.509.051.923.923,0,0,1,.313.915,1.96,1.96,0,0,1-1.889,1.534,27.92,27.92,0,0,0-.058,3.251Z" transform="translate(-376.683 521.405)"/><path class="b" d="M523.892-480.964h-2.654v1.265a1.085,1.085,0,0,0,.17.583h0a1.139,1.139,0,0,0,.963.53h.389a1.14,1.14,0,0,0,.963-.53h0a1.085,1.085,0,0,0,.17-.583v-1.265" transform="translate(-379.32 509.784)"/><path class="a" d="M523.892-480.964h-2.654v1.265a1.085,1.085,0,0,0,.17.583h0a1.139,1.139,0,0,0,.963.53h.389a1.14,1.14,0,0,0,.963-.53h0a1.085,1.085,0,0,0,.17-.583Z" transform="translate(-379.32 509.784)"/><path class="a" d="M525.527-535.675v2.493" transform="translate(-382.282 547.568)"/><path class="a" d="M551.269-523.383l-1.763,1.763" transform="translate(-398.843 539.079)"/><path class="a" d="M561.932-493.705h-2.493" transform="translate(-405.702 518.583)"/><path class="a" d="M551.269-467.963l-1.763-1.763" transform="translate(-398.843 502.022)"/><path class="a" d="M525.527-457.3v-2.493" transform="translate(-382.282 495.163)"/><path class="a" d="M495.851-467.963l1.762-1.763" transform="translate(-361.786 502.022)"/><path class="a" d="M483.557-493.705h2.493" transform="translate(-353.296 518.583)"/><path class="a" d="M495.851-523.383l1.762,1.763" transform="translate(-361.786 539.079)"/><path class="b" d="M300.4-471.254a8.193,8.193,0,0,1,8.193-8.193,8.194,8.194,0,0,1,8.194,8.193,8.193,8.193,0,0,1-8.194,8.194,8.156,8.156,0,0,1-3.841-.958l-1.914.958.527-1.886a8.176,8.176,0,0,1-2.965-6.307" transform="translate(-226.805 508.736)"/><path class="a" d="M300.4-471.254a8.193,8.193,0,0,1,8.193-8.193,8.194,8.194,0,0,1,8.194,8.193,8.193,8.193,0,0,1-8.194,8.194,8.156,8.156,0,0,1-3.841-.958l-1.914.958.527-1.886A8.176,8.176,0,0,1,300.4-471.254Z" transform="translate(-226.805 508.736)"/><path class="e" d="M321.88-462.036a4.065,4.065,0,0,1-4.065,4.065,4.064,4.064,0,0,1-4.064-4.065,4.064,4.064,0,0,1,4.064-4.064,4.064,4.064,0,0,1,4.065,4.064" transform="translate(-236.023 499.518)"/><path class="f" d="M318.262-458.975a4.044,4.044,0,0,0,2.669,1A4.065,4.065,0,0,0,325-462.036a4.064,4.064,0,0,0-4.065-4.064v4.064l-2.669,3.061" transform="translate(-239.138 499.518)"/><path class="g" d="M145.984-298.266c-.29-2.365-3.249-3.958-2.994-6.328.126-1.173,1.037-2.1,1.41-3.225.63-1.89-.351-3.9-1.325-5.642s-2.006-3.706-1.473-5.626c.582-2.1,4.407-3.524,6-5.012s1.877-3.63,2.825-5.5a9.3,9.3,0,0,1,5.211-4.439,2.943,2.943,0,0,1,3.425,1.247,6.059,6.059,0,0,1,.814,3.291,9.347,9.347,0,0,1-1.281,4.617c-.976,1.659-2.474,3.031-3.087,4.855a10.394,10.394,0,0,0-.505,6.4c1.157,4.529-.451,8.759-1.819,9.314-3.868,1.569-5.4,2-7.2,6.041" transform="translate(-117.03 408.402)"/><path class="h" d="M145.984-298.266c-.29-2.365-3.249-3.958-2.994-6.328.126-1.173,1.037-2.1,1.41-3.225.63-1.89-.351-3.9-1.325-5.642s-2.006-3.706-1.473-5.626c.582-2.1,4.407-3.524,6-5.012s1.877-3.63,2.825-5.5a9.3,9.3,0,0,1,5.211-4.439,2.943,2.943,0,0,1,3.425,1.247,6.059,6.059,0,0,1,.814,3.291,9.347,9.347,0,0,1-1.281,4.617c-.976,1.659-2.474,3.031-3.087,4.855a10.394,10.394,0,0,0-.505,6.4c1.157,4.529-.451,8.759-1.819,9.314-3.868,1.569-5.4,2-7.2,6.041" transform="translate(-117.03 408.402)"/><path class="h" d="M163.58-325.1a43.827,43.827,0,0,0-3.555,7.311,117.832,117.832,0,0,0-7.042,41.34" transform="translate(-124.987 402.142)"/><path class="g" d="M81.466-246.242a8.666,8.666,0,0,0-3.94-3.679c-1.591-.848-3.288-2.017-3.925-3.783a13.443,13.443,0,0,0-.582-1.754,4.634,4.634,0,0,0-2.4-1.872,9.253,9.253,0,0,1-2.724-1.459,3.72,3.72,0,0,1-1.176-2.454,10.42,10.42,0,0,0-.087-2.694c-.326-.953-1.251-1.54-1.988-2.227a6.847,6.847,0,0,1-2.093-5.6c.376-2.782,3.02-3.024,5.25-2.085,1.389.586,2.637,1.488,4.064,1.973a37.186,37.186,0,0,1,3.723,1.056,5.415,5.415,0,0,1,2.873,3.3c.339,1.116.3,2.314.581,3.447a6.458,6.458,0,0,0,1.15,2.4c1.544,2.007,3.113,4.211,3.237,6.868a16.539,16.539,0,0,1-1.96,8.567" transform="translate(-62.504 367.085)"/><path class="a" d="M81.466-246.242a8.666,8.666,0,0,0-3.94-3.679c-1.591-.848-3.288-2.017-3.925-3.783a13.443,13.443,0,0,0-.582-1.754,4.634,4.634,0,0,0-2.4-1.872,9.253,9.253,0,0,1-2.724-1.459,3.72,3.72,0,0,1-1.176-2.454,10.42,10.42,0,0,0-.087-2.694c-.326-.953-1.251-1.54-1.988-2.227a6.847,6.847,0,0,1-2.093-5.6c.376-2.782,3.02-3.024,5.25-2.085,1.389.586,2.637,1.488,4.064,1.973a37.186,37.186,0,0,1,3.723,1.056,5.415,5.415,0,0,1,2.873,3.3c.339,1.116.3,2.314.581,3.447a6.458,6.458,0,0,0,1.15,2.4c1.544,2.007,3.113,4.211,3.237,6.868a16.539,16.539,0,0,1-1.96,8.567" transform="translate(-62.504 367.085)"/><path class="h" d="M74.613-264.487c10.479,7.133,15.563,20.861,16.42,34" transform="translate(-70.867 360.278)"/><path class="h" d="M77.746-226.8a47.614,47.614,0,0,1,9.92,1.154" transform="translate(-73.031 334.247)"/><path class="h" d="M84.473-261.721a29.306,29.306,0,0,1,.574,9.168,54.373,54.373,0,0,0-8.833-1.064" transform="translate(-71.972 358.368)"/><path class="h" d="M65.383-253.178a49.008,49.008,0,0,1,7.437.352" transform="translate(-64.493 352.479)"/><path class="h" d="M97.8-229.625a22.571,22.571,0,0,1,6.091,1.34,21.543,21.543,0,0,0,.773-10.341" transform="translate(-86.878 342.418)"/><path class="g" d="M106.057-296.359c3.142-2.416,6.156-6.1,6.566-10.046a12.317,12.317,0,0,0-.577-5.168c-.57-1.685-1.814-3.158-2.187-4.884-.688-3.186,1.752-6.6-.269-9.569a18.3,18.3,0,0,0-2.687-2.506c-2.032-1.972-1.984-5.01-3.73-6.932a10.49,10.49,0,0,0-7.547-3.059c-2.73.09-5.669,2.041-5.653,4.772.013,2.163,1.777,3.863,2.639,5.845a7.4,7.4,0,0,1,.118,5.548c-.824,2.14-2.683,4.265-1.87,6.41.77,2.031,4.433,3.42,5.7,4.992,2.429,3-1.72,6.014,2.077,8.227,1.835,1.069,6.288,2.107,7.413,6.368" transform="translate(-81.476 411.412)"/><path class="h" d="M106.057-296.359c3.142-2.416,6.156-6.1,6.566-10.046a12.317,12.317,0,0,0-.577-5.168c-.57-1.685-1.814-3.158-2.187-4.884-.688-3.186,1.752-6.6-.269-9.569a18.3,18.3,0,0,0-2.687-2.506c-2.032-1.972-1.984-5.01-3.73-6.932a10.49,10.49,0,0,0-7.547-3.059c-2.73.09-5.669,2.041-5.653,4.772.013,2.163,1.777,3.863,2.639,5.845a7.4,7.4,0,0,1,.118,5.548c-.824,2.14-2.683,4.265-1.87,6.41.77,2.031,4.433,3.42,5.7,4.992,2.429,3-1.72,6.014,2.077,8.227,1.835,1.069,6.288,2.107,7.413,6.368" transform="translate(-81.476 411.412)"/><path class="h" d="M95.586-279.413s7.832,2.845,11.318,5.473" transform="translate(-85.351 370.586)"/><path class="h" d="M100.195-291.3s6.393,2.373,8.587,4.008" transform="translate(-88.534 378.799)"/><path class="h" d="M128.3-321.368s-3.2,4.928-3.832,9.7" transform="translate(-105.299 399.562)"/><path class="h" d="M94.542-311.225s5.388.925,7.87,2.474" transform="translate(-84.631 392.556)"/><path class="h" d="M100.195-336.627a17.99,17.99,0,0,1,4.92,7.172c6.422,16.126,7.866,30.905,8.963,48.531" transform="translate(-88.534 410.1)"/><path class="h" d="M134.553-278.7a39.575,39.575,0,0,1,6.6-12.607" transform="translate(-112.263 378.799)"/><path class="h" d="M117.938-282.29a68.781,68.781,0,0,0-5.944,12.385,49.232,49.232,0,0,0-10.8-4.592" transform="translate(-89.222 372.573)"/><path class="h" d="M139.908-240.69s3.282-6.928,6.625-10.713" transform="translate(-115.961 351.242)"/><path class="i" d="M162.821-249.834c-.042-2.618-1.957-3.987-2.536-6.176a5.57,5.57,0,0,1,.288-3.994c.622-1.18,1.81-2.055,2.156-3.343.351-1.31-.264-2.665-.407-4.015a5.938,5.938,0,0,1,3.341-5.864c.888-.407,1.872-.586,2.732-1.049,1.411-.759,2.156-2.212,3.442-3.089a13.225,13.225,0,0,1,4.935-2.017,6.1,6.1,0,0,1,2.9.023,2.951,2.951,0,0,1,2.045,1.926c.422,1.564-.836,3.033-1.965,4.194s-2.316,2.733-1.74,4.247c.18.473.517.869.729,1.329,1.079,2.335-.936,4.283-2.891,5.242a20.706,20.706,0,0,0-3.066,1.567c-1.425,1.023-1.6,2.275-1.81,3.894a3.794,3.794,0,0,1-2.314,3.181c-1.156.534-3.957.891-5.845,3.943" transform="translate(-129.873 370.678)"/><path class="a" d="M162.821-249.834c-.042-2.618-1.957-3.987-2.536-6.176a5.57,5.57,0,0,1,.288-3.994c.622-1.18,1.81-2.055,2.156-3.343.351-1.31-.264-2.665-.407-4.015a5.938,5.938,0,0,1,3.341-5.864c.888-.407,1.872-.586,2.732-1.049,1.411-.759,2.156-2.212,3.442-3.089a13.225,13.225,0,0,1,4.935-2.017,6.1,6.1,0,0,1,2.9.023,2.951,2.951,0,0,1,2.045,1.926c.422,1.564-.836,3.033-1.965,4.194s-2.316,2.733-1.74,4.247c.18.473.517.869.729,1.329,1.079,2.335-.936,4.283-2.891,5.242a20.706,20.706,0,0,0-3.066,1.567c-1.425,1.023-1.6,2.275-1.81,3.894a3.794,3.794,0,0,1-2.314,3.181c-1.156.534-3.957.891-5.845,3.943" transform="translate(-129.873 370.678)"/><path class="h" d="M181.036-267.351c-2.354,1.99-7.445,8.006-9.314,12.31a52.033,52.033,0,0,0-4.806,21.172" transform="translate(-134.614 362.256)"/><path class="h" d="M166.916-223.482s.518,5.16,1.645,7.626" transform="translate(-134.614 331.959)"/><path class="h" d="M175.572-257.626s.452,7.2,1.593,10.563a39.094,39.094,0,0,1,12.455-5.066" transform="translate(-140.592 355.54)"/><path class="h" d="M189.737-264.173a31.42,31.42,0,0,0,.958,5.977,37.022,37.022,0,0,1,8.135-2.58" transform="translate(-150.375 360.061)"/><path class="h" d="M187.806-244.646a35.591,35.591,0,0,1,9.234-3.226" transform="translate(-149.042 348.803)"/><path class="h" d="M175.45-216.155a19.3,19.3,0,0,1,7.975-2.967" transform="translate(-140.508 328.948)"/><path class="j" d="M111.9-172.452v7.074c0,15.662,4.608,25.741,4.608,25.741h14.269s4.608-10.079,4.608-25.741v-7.074H111.9" transform="translate(-96.616 296.716)"/><path class="g" d="M839.74-294.374a17.733,17.733,0,0,1-5.25-10.518,16.676,16.676,0,0,1,.461-5.411c.456-1.765,1.45-3.307,1.748-5.114.55-3.336-1.4-6.914.215-10.019.553-1.063,2.3-1.558,3.008-2.453,1.265-1.608,1.171-4.006,1.942-5.944,1.18-2.967,3.668-4.8,6.213-4.687a4.983,4.983,0,0,1,4.519,5c-.01,2.265-1.42,4.045-2.11,6.121a10,10,0,0,0-.094,5.809c.659,2.241,2.144,4.466,1.495,6.712-.615,2.127-3.544,3.581-4.56,5.227-1.942,3.145,1.375,6.3-1.66,8.614-1.467,1.119-5.027,2.207-5.926,6.668" transform="translate(-595.626 411.412)"/><path class="h" d="M839.74-294.374a17.733,17.733,0,0,1-5.25-10.518,16.676,16.676,0,0,1,.461-5.411c.456-1.765,1.45-3.307,1.748-5.114.55-3.336-1.4-6.914.215-10.019.553-1.063,2.3-1.558,3.008-2.453,1.265-1.608,1.171-4.006,1.942-5.944,1.18-2.967,3.668-4.8,6.213-4.687a4.983,4.983,0,0,1,4.519,5c-.01,2.265-1.42,4.045-2.11,6.121a10,10,0,0,0-.094,5.809c.659,2.241,2.144,4.466,1.495,6.712-.615,2.127-3.544,3.581-4.56,5.227-1.942,3.145,1.375,6.3-1.66,8.614-1.467,1.119-5.027,2.207-5.926,6.668" transform="translate(-595.626 411.412)"/><path class="h" d="M863.895-320.605a38.962,38.962,0,0,0-2.35-8.529" transform="translate(-614.346 404.925)"/><path class="h" d="M869.636-289.082s-5.111,2.485-6.865,4.2" transform="translate(-615.193 377.264)"/><path class="h" d="M857.3-319.775a40.343,40.343,0,0,1,2.553,9.911" transform="translate(-611.417 398.462)"/><path class="h" d="M875.433-309.939s-4.306.969-6.292,2.59" transform="translate(-619.593 391.669)"/><path class="h" d="M860.186-336.536a19.347,19.347,0,0,0-3.933,7.509c-5.133,16.885-6.288,32.36-7.165,50.815" transform="translate(-605.742 410.038)"/><path class="h" d="M840.89-279.642a83.986,83.986,0,0,1,4.752,12.968,35.5,35.5,0,0,1,8.636-4.808" transform="translate(-600.081 370.745)"/><path class="h" d="M841.391-236.085s-2.623-7.254-5.3-11.217" transform="translate(-596.77 348.41)"/><path class="g" d="M768.57-239.353c.043-2.988,1.987-4.551,2.575-7.049a7.089,7.089,0,0,0-.292-4.558c-.633-1.347-1.838-2.345-2.189-3.816-.357-1.5.267-3.042.413-4.582a6.961,6.961,0,0,0-3.391-6.692,17.518,17.518,0,0,1-3.105-1.511,32.242,32.242,0,0,1-2.391-2.45c-2.187-2.134-7.672-5.279-10.218-2.027a3.87,3.87,0,0,0-.693,1.752,7.158,7.158,0,0,0,1.193,5.364c1.049,1.413,2.689,2.165,4.063,3.2a3.248,3.248,0,0,1,1.589,2.59c.057,1.341-.518,2.645-.026,3.967a5.6,5.6,0,0,0,2.355,3.238c1.446,1.168,1.625,2.6,1.837,4.444a4.321,4.321,0,0,0,2.349,3.63c1.173.61,4.016,1.016,5.933,4.5" transform="translate(-536.739 366.461)"/><path class="h" d="M768.57-239.353c.043-2.988,1.987-4.551,2.575-7.049a7.089,7.089,0,0,0-.292-4.558c-.633-1.347-1.838-2.345-2.189-3.816-.357-1.5.267-3.042.413-4.582a6.961,6.961,0,0,0-3.391-6.692,17.518,17.518,0,0,1-3.105-1.511,32.242,32.242,0,0,1-2.391-2.45c-2.187-2.134-7.672-5.279-10.218-2.027a3.87,3.87,0,0,0-.693,1.752,7.158,7.158,0,0,0,1.193,5.364c1.049,1.413,2.689,2.165,4.063,3.2a3.248,3.248,0,0,1,1.589,2.59c.057,1.341-.518,2.645-.026,3.967a5.6,5.6,0,0,0,2.355,3.238c1.446,1.168,1.625,2.6,1.837,4.444a4.321,4.321,0,0,0,2.349,3.63c1.173.61,4.016,1.016,5.933,4.5" transform="translate(-536.739 366.461)"/><path class="h" d="M767.66-258.949c2.39,2.271,7.558,9.137,9.455,14.049a65.6,65.6,0,0,1,4.879,24.164" transform="translate(-549.506 356.453)"/><path class="h" d="M810.264-208.881s-.526,5.889-1.67,8.7" transform="translate(-577.776 321.875)"/><path class="h" d="M801.6-247.85s-.458,8.223-1.617,12.056" transform="translate(-571.827 348.788)"/><path class="h" d="M770.221-255.322a40,40,0,0,1-.972,6.821,34.821,34.821,0,0,0-8.257-2.945" transform="translate(-544.901 353.949)"/><path class="h" d="M787.257-200.52a18.459,18.459,0,0,0-8.1-3.386" transform="translate(-557.45 318.439)"/><path class="g" d="M861.877-241.554a9.126,9.126,0,0,1,4.195-3.951,8.2,8.2,0,0,0,4.184-4.07,16.542,16.542,0,0,1,.685-1.964,4.742,4.742,0,0,1,2.537-1.987,8.985,8.985,0,0,0,2.841-1.5,4.415,4.415,0,0,0,1.325-2.725,13.326,13.326,0,0,1,.235-3.066,6.777,6.777,0,0,1,2.136-2.415,8.281,8.281,0,0,0,2.426-6.252c-.229-3.194-2.9-3.632-5.207-2.7-1.44.582-2.753,1.534-4.227,2a34.143,34.143,0,0,0-3.831.976,5.909,5.909,0,0,0-3.092,3.582c-.4,1.252-.435,2.618-.776,3.892a7.681,7.681,0,0,1-1.3,2.661c-1.674,2.193-3.809,3-4.08,6.016a28.366,28.366,0,0,0,1.944,11.5" transform="translate(-613.195 365.888)"/><path class="h" d="M861.877-241.554a9.126,9.126,0,0,1,4.195-3.951,8.2,8.2,0,0,0,4.184-4.07,16.542,16.542,0,0,1,.685-1.964,4.742,4.742,0,0,1,2.537-1.987,8.985,8.985,0,0,0,2.841-1.5,4.415,4.415,0,0,0,1.325-2.725,13.326,13.326,0,0,1,.235-3.066,6.777,6.777,0,0,1,2.136-2.415,8.281,8.281,0,0,0,2.426-6.252c-.229-3.194-2.9-3.632-5.207-2.7-1.44.582-2.753,1.534-4.227,2a34.143,34.143,0,0,0-3.831.976,5.909,5.909,0,0,0-3.092,3.582c-.4,1.252-.435,2.618-.776,3.892a7.681,7.681,0,0,1-1.3,2.661c-1.674,2.193-3.809,3-4.08,6.016a28.366,28.366,0,0,0,1.944,11.5" transform="translate(-613.195 365.888)"/><path class="h" d="M879.316-261.5c-11.011,7.487-16.913,22.82-18.5,37.746" transform="translate(-613.844 358.214)"/><path class="h" d="M892.793-218.84a43.061,43.061,0,0,0-10.118.706" transform="translate(-628.939 328.786)"/><path class="h" d="M889.314-260.079a37.442,37.442,0,0,0-1.081,10.413,49.234,49.234,0,0,1,9.012-.671" transform="translate(-632.763 357.234)"/><path class="h" d="M912.476-248.464a44.284,44.284,0,0,0-7.558-.055" transform="translate(-644.3 349.355)"/><path class="h" d="M878.454-220a20.589,20.589,0,0,0-6.247,1.153,18.324,18.324,0,0,1-.211-9.985" transform="translate(-621.178 335.656)"/><path class="g" d="M793.979-294.444c.516-3.23,4.8-6.869,4.629-10.149-.2-3.891-3.1-4.526-.459-11.231a11.959,11.959,0,0,0,.71-8.069c-1.051-3.21-3.689-4.6-5.741-6.934-1.925-2.191-2.136-5.146-3.212-7.793a12.416,12.416,0,0,0-6.289-6.533,3.523,3.523,0,0,0-4.4,1.434,8.828,8.828,0,0,0-1.235,4.46A13.921,13.921,0,0,0,779.3-332.8c.928,1.949,2.312,3.609,3.114,5.631,1.042,2.625-.169,5.246-.135,7.913.058,4.586,4.4,5.246,5.637,9.05a5.691,5.691,0,0,1-.175,3.441c-.5,1.734-.9,3.045.6,4.8,3.015,3.538,4.9,4.1,5.639,7.522" transform="translate(-556.628 416.175)"/><path class="h" d="M793.979-294.444c.516-3.23,4.8-6.869,4.629-10.149-.2-3.891-3.1-4.526-.459-11.231a11.959,11.959,0,0,0,.71-8.069c-1.051-3.21-3.689-4.6-5.741-6.934-1.925-2.191-2.136-5.146-3.212-7.793a12.416,12.416,0,0,0-6.289-6.533,3.523,3.523,0,0,0-4.4,1.434,8.828,8.828,0,0,0-1.235,4.46A13.921,13.921,0,0,0,779.3-332.8c.928,1.949,2.312,3.609,3.114,5.631,1.042,2.625-.169,5.246-.135,7.913.058,4.586,4.4,5.246,5.637,9.05a5.691,5.691,0,0,1-.175,3.441c-.5,1.734-.9,3.045.6,4.8,3.015,3.538,4.9,4.1,5.639,7.522" transform="translate(-556.628 416.175)"/><path class="h" d="M791.854-334.714a57.009,57.009,0,0,1,6.629,14.924c4.981,18.635,5.917,34.175,4.834,53.491" transform="translate(-566.215 408.779)"/><path class="h" d="M778-328.52a23.685,23.685,0,0,1,9.245,4.486,24.77,24.77,0,0,0,.782-9.533" transform="translate(-556.646 407.987)"/><path class="h" d="M781.346-306.731a50.622,50.622,0,0,1,9.31,4.331" transform="translate(-558.958 389.453)"/><path class="h" d="M793.513-291.105s5.507,2.056,7.92,3.913c2.174-4.645,2.417-11.051,2.417-11.051" transform="translate(-567.361 383.591)"/><path class="h" d="M796.749-272.514a27.828,27.828,0,0,1,8.416,3.4s5.242-6.218,5.449-14.264" transform="translate(-569.596 373.326)"/><path class="h" d="M825.069-258.963s5.613-5.972,6.632-12.935" transform="translate(-589.154 365.396)"/><path class="h" d="M809.559-220.473a22.511,22.511,0,0,1,5.569,3.158" transform="translate(-578.443 329.881)"/><path class="k" d="M822.835-156.2v5.99c0,13.263-5.2,21.8-5.2,21.8h-16.1s-5.2-8.535-5.2-21.8v-5.99h26.493" transform="translate(-569.315 285.493)"/><path class="l" d="M92.286-67.059H336.749" transform="translate(-83.073 223.928)"/><path class="m" d="M686.165-126.966l-.837,12.541.106,3.945-15.465-.079a.684.684,0,0,1-.68-.687h0a.684.684,0,0,1,.441-.636l6.67-3.066L676.628-128" transform="translate(-481.568 266.015)"/><path class="n" d="M666.934-81.6a2.1,2.1,0,0,1,.74-1.177l7.072-3.046c3.9,1.58,8.943.372,8.943.372l.9,5.324a.319.319,0,0,1-.321.318H667.052c-.346,0-.123-1.775-.118-1.791" transform="translate(-479.889 236.885)"/><path class="o" d="M687.408-84.835a8.336,8.336,0,0,1,1,1.674" transform="translate(-494.081 236.205)"/><path class="o" d="M684.529-83.114a7.363,7.363,0,0,1,.82,1.423" transform="translate(-492.093 235.017)"/><path class="o" d="M682.1-81.859a10.488,10.488,0,0,1,.768,1.306" transform="translate(-490.414 234.149)"/><path class="o" d="M684.5-70.3l-17.638-.09" transform="translate(-479.895 226.226)"/><path class="o" d="M712.25-78.513s-4.143.084-4.5,2.581" transform="translate(-508.13 231.839)"/><path class="o" d="M674.181-77.992a13.414,13.414,0,0,1,1.368,2.372" transform="translate(-484.947 231.479)"/><path class="p" d="M685.591-299.79s-.412,34.3.99,64.3h11.656s1.578-39.346,1.483-53.559a33.078,33.078,0,0,0,.794-10.354" transform="translate(-492.787 384.659)"/><path class="q" d="M719.929-211.508s1.578-39.346,1.483-53.559" transform="translate(-516.541 360.679)"/><path class="m" d="M751.135-133.309l3.184,12.157.855,3.852-15.2,2.865a.683.683,0,0,1-.8-.545h0a.684.684,0,0,1,.312-.708l5.964-4.28-3.88-12.539" transform="translate(-529.828 269.683)"/><path class="r" d="M737.378-87.554a2.1,2.1,0,0,1,.5-1.3l6.363-4.336c4.127.81,8.851-1.337,8.851-1.337l1.9,5.056a.32.32,0,0,1-.255.373l-16.9,3.276c-.341.064-.459-1.719-.457-1.736" transform="translate(-528.593 242.896)"/><path class="s" d="M754.9-88.295a8.367,8.367,0,0,1,1.3,1.454" transform="translate(-540.695 238.594)"/><path class="s" d="M752.4-86.057a7.337,7.337,0,0,1,1.075,1.242" transform="translate(-538.97 237.049)"/><path class="s" d="M750.254-84.361a10.424,10.424,0,0,1,1,1.136" transform="translate(-537.485 235.878)"/><path class="s" d="M754.819-80.764,737.486-77.5" transform="translate(-528.667 233.393)"/><path class="s" d="M781.584-88.726s-4.052.871-3.927,3.39" transform="translate(-556.408 238.892)"/><path class="s" d="M743.219-79.06a13.419,13.419,0,0,1,1.794,2.069" transform="translate(-532.627 232.216)"/><path class="t" d="M721.516-299.79s-1.011,18.366,1.528,34.108c1.909,11.84,7.194,29.306,7.194,29.306l12.041-2.611s-4.077-17.13-5.693-26.283a100.86,100.86,0,0,1-.913-23.373,5.737,5.737,0,0,1,.1-.805,32.031,32.031,0,0,0,.716-9.954" transform="translate(-517.5 384.659)"/><path class="q" d="M768.535-237.8s-4.248-17.45-5.863-26.6a100.863,100.863,0,0,1-.912-23.373,5.72,5.72,0,0,1,.1-.805,32.035,32.035,0,0,0,.716-9.954" transform="translate(-545.236 383.793)"/><path class="q" d="M721.954-299.79s-.1,20.21.928,31.707a50.647,50.647,0,0,0,1.156,7.042" transform="translate(-517.938 384.659)"/><path class="q" d="M748.318-294.519a10.6,10.6,0,0,0,5.172,4.153" transform="translate(-536.148 381.019)"/><path class="q" d="M685.22-292.533s3.9-1.1,4.825-4.03" transform="translate(-492.57 382.431)"/><path class="q" d="M688.57-99.687h11.858" transform="translate(-494.884 246.462)"/><path class="q" d="M748.318-107.31l12.094-2.558" transform="translate(-536.148 253.494)"/><path class="u" d="M710.167-425.588l-.42,3.778s.335,1.627,2.667,1.885a4.72,4.72,0,0,0,4.315-2.083l-.84-4.143" transform="translate(-509.509 471.928)"/><path class="v" d="M702.981-447.06a1.519,1.519,0,0,0-1.253,1.036c-.058.292.017.6-.065.89-.122.425-.554.689-.741,1.09a1.354,1.354,0,0,0-.048.922,3.129,3.129,0,0,0,.41.845,3.035,3.035,0,0,0,.922,1,1.307,1.307,0,0,0,1.3.081,1.552,1.552,0,0,0,.444-.422,3.588,3.588,0,0,0,.714-1.89" transform="translate(-503.342 486.369)"/><path class="u" d="M704.733-445.516s-1.663,5.28.7,6.669c2.14,1.26,5.719-.7,5.928-1.37s1.158-6.352-.2-6.778c-2.421-.758-5.71-.791-6.421,1.479" transform="translate(-505.654 486.644)"/><path class="b" d="M709.272-425.738s.147.85.893.762a.957.957,0,0,0,.651-1.175" transform="translate(-509.181 471.928)"/><path class="w" d="M710.617-419.89a4.62,4.62,0,0,0,3.914-.893" transform="translate(-510.11 468.221)"/><path class="v" d="M703.545-455.627a2.083,2.083,0,0,1-.263-1.75,2.259,2.259,0,0,1,1.025-1.209,2.424,2.424,0,0,1,1.84-.373c.525.165.879.66,1.419.786a3.41,3.41,0,0,0,.921-.008,1.794,1.794,0,0,1,1.686.826c.2.389.209.879.5,1.209a3.412,3.412,0,0,0,1.085.584,2.97,2.97,0,0,1,1.419,3.24c-.1.293-.274.557-.386.846-.4,1.034-.059,3.1-1.6,3.322a1.065,1.065,0,0,1-.732-.069.918.918,0,0,1-.337-.638,2.936,2.936,0,0,1-.04-.907c.045-.313.154-.549-.07-.839-.127-.164-.318-.274-.429-.449-.322-.508.094-1.171-.2-1.684A2.74,2.74,0,0,0,707.9-453.9c-.783-.262-1.633-.106-2.394-.393a4,4,0,0,1-1.878-1.218c-.029-.038-.057-.078-.083-.119" transform="translate(-504.983 494.631)"/><path class="u" d="M722.365-431.96c.2-.5.552-1.094,1.1-.757a1.078,1.078,0,0,1,.379.62c.252.82-.336,2.083-1.141,1.967-.392-.057-.609-.523-.769-.907" transform="translate(-517.927 476.531)"/><path class="w" d="M707.7-435.059s-.917,1.459-.822,1.86,1.052.18,1.052.18" transform="translate(-507.523 478.08)"/><path class="v" d="M705.878-436.68a3.008,3.008,0,0,0-.109.335.163.163,0,0,0,.314.087,2.9,2.9,0,0,0,.069-.346.142.142,0,0,0-.273-.075h0" transform="translate(-506.758 479.269)"/><path class="x" d="M706.58-439.1a.679.679,0,0,0-.981-.1" transform="translate(-506.645 481.061)"/><path class="v" d="M715.565-434.581a2.852,2.852,0,0,0-.09.339c-.041.2.272.292.314.087a3.433,3.433,0,0,0,.054-.388c.013-.166-.231-.183-.279-.038h0" transform="translate(-513.463 477.818)"/><path class="x" d="M715.269-437.707a1.271,1.271,0,0,1,1.309.516" transform="translate(-513.323 479.932)"/><path class="u" d="M611.549-410.264s-6.84,2.5-9.072,2.168c-4.322-.632-14.864-4.024-14.864-4.024l-3.419,4.744s11.686,7.134,17.648,7.584c5.236.395,14.456-2.728,14.456-2.728" transform="translate(-422.799 462.237)"/><path class="r" d="M676.741-412.647c-1.727-.495-4.55-.161-8.191.519a54.923,54.923,0,0,0-6.594,1.868L665-400.931l7.844-1.949" transform="translate(-476.504 462.765)"/><path class="r" d="M699.213-412.759a6.166,6.166,0,0,1-3.807,1.6c-2.674,0-3.176-1.407-3.176-1.407a12.408,12.408,0,0,0-7.048,10.046c-.556,4.828-.8,26.7-.8,26.7h26.861s1.3-34.088-12.031-36.94" transform="translate(-491.993 462.679)"/><path class="y" d="M706.394-325.627l12.584-4.181L713.4-346.774l-12.585,4.181,5.579,16.966" transform="translate(-503.341 417.108)"/><path class="z" d="M708.9-342.4l7.07-2.349-.3-.9a.34.34,0,0,0-.429-.215l-6.425,2.135a.339.339,0,0,0-.216.429l.3.9" transform="translate(-508.705 416.491)"/><path class="z" d="M716.725-346.229a.432.432,0,0,1-.555-.252.432.432,0,0,1,.293-.535.433.433,0,0,1,.556.252A.432.432,0,0,1,716.725-346.229Zm.935-.747a1.084,1.084,0,0,0-1.394-.634,1.085,1.085,0,0,0-.738,1.342,1.086,1.086,0,0,0,1.395.634,1.084,1.084,0,0,0,.737-1.342" transform="translate(-513.468 417.729)"/><path class="u" d="M734.223-377.3s2.264,8.3,1.785,9.647c-1.127,3.164-8.958,10.817-8.958,10.817l3.955,5.592s11.888-7.694,14.021-13.517c1.727-4.714-1.752-14.884-1.752-14.884" transform="translate(-521.459 439.81)"/><path class="r" d="M732.318-412.771s8.817-.381,12.665,5.365a25.877,25.877,0,0,1,3.444,9.367l-10.107,1.746-2.479-7.55" transform="translate(-525.098 462.691)"/><path class="s" d="M747.023-373.8l-2.1-6.405" transform="translate(-533.801 440.194)"/><path class="s" d="M686.964-390.914a12.615,12.615,0,0,1,1.628-5.048" transform="translate(-493.775 451.079)"/><path class="s" d="M706.057-412.759s.071,2.805,3.717,2.805c4.62,0,6.175-2.752,6.175-2.752" transform="translate(-506.961 462.679)"/><path class="u" d="M718.512-313.289c-1.7,1.69-7.133,6.059-7,6.531s2.173-.938,2.212-.529-2.951,2.79-2.69,3.226c.353.591,3.285-2.012,3.285-2.012s-3.068,3.012-2.613,3.435c.323.3,2.77-1.89,3.81-2.61-1.028.924-2.517,2.618-2.175,2.922s2.036-1.154,3.4-2.2c-.788.733-2.15,2.142-1.848,2.438s4.677-2.957,8.676-6.181" transform="translate(-510.388 393.982)"/><path class="aa" d="M280.514-126.966l-.813,12.541-.106,3.945,15.465-.079a.684.684,0,0,0,.68-.687h0a.683.683,0,0,0-.441-.636l-6.67-3.066L290.052-128" transform="translate(-212.434 266.015)"/><path class="ab" d="M294.553-81.6a2.1,2.1,0,0,0-.741-1.177L286.74-85.82c-3.9,1.58-8.944.372-8.944.372l-.9,5.324a.319.319,0,0,0,.321.318h17.217c.346,0,.123-1.775.118-1.791" transform="translate(-210.57 236.885)"/><path class="ac" d="M311.438-84.835a8.322,8.322,0,0,0-1,1.674" transform="translate(-233.737 236.205)"/><path class="ac" d="M314.711-83.114a7.358,7.358,0,0,0-.82,1.423" transform="translate(-236.12 235.017)"/><path class="ac" d="M317.258-81.859a10.44,10.44,0,0,0-.768,1.306" transform="translate(-237.914 234.149)"/><path class="ac" d="M277.191-70.3l17.638-.09" transform="translate(-210.774 226.226)"/><path class="ac" d="M278.774-78.513s4.143.084,4.5,2.581" transform="translate(-211.867 231.839)"/><path class="ac" d="M323.836-77.992a13.4,13.4,0,0,0-1.367,2.372" transform="translate(-242.043 231.479)"/><path class="ad" d="M262.606-312.1c1.743,20.9,2.978,64.215,2.978,64.215H252.269s-1.2-26.956-3.016-48.607c-5.859-9.7-5.4-20.2-6.064-21.592" transform="translate(-187.29 397.294)"/><path class="ae" d="M270.465-206.264s-1.229-31.152-3.562-51.555" transform="translate(-203.668 355.673)"/><path class="aa" d="M213.434-126.966l1.081,12.541-.106,3.945,15.465-.079a.684.684,0,0,0,.68-.687h0a.685.685,0,0,0-.442-.636l-6.669-3.066L222.972-128" transform="translate(-166.741 266.015)"/><path class="ab" d="M231.544-81.6a2.1,2.1,0,0,0-.741-1.177l-7.072-3.046c-3.9,1.58-8.944.372-8.944.372l-.9,5.324a.319.319,0,0,0,.321.318h17.217c.346,0,.123-1.775.118-1.791" transform="translate(-167.054 236.885)"/><path class="ac" d="M248.428-84.835a8.315,8.315,0,0,0-1,1.674" transform="translate(-190.221 236.205)"/><path class="ac" d="M251.7-83.114a7.335,7.335,0,0,0-.819,1.423" transform="translate(-192.605 235.017)"/><path class="ac" d="M254.249-81.859a10.394,10.394,0,0,0-.768,1.306" transform="translate(-194.398 234.149)"/><path class="ac" d="M214.182-70.3l17.638-.09" transform="translate(-167.258 226.226)"/><path class="ac" d="M215.765-78.513s4.144.084,4.5,2.581" transform="translate(-168.351 231.839)"/><path class="ac" d="M260.827-77.992a13.4,13.4,0,0,0-1.368,2.372" transform="translate(-198.527 231.479)"/><path class="ad" d="M213.126-305.308a74.6,74.6,0,0,0,.331,14.925c-1.137,23-1.059,51.058-1.059,51.058h13.311s3.762-49.647,5.06-66.365" transform="translate(-166.025 388.734)"/><path class="ae" d="M220.474-304.455a74.566,74.566,0,0,0,.331,14.925c-1.136,23-1.059,51.058-1.059,51.058" transform="translate(-171.1 387.881)"/><path class="ae" d="M264.845-271.627s2.025-17.9,2.186-23.76" transform="translate(-202.247 381.619)"/><path class="ae" d="M221.621-286.016s3.827.3,5.939-5.126" transform="translate(-172.395 378.687)"/><path class="ae" d="M270.533-288.361s1.171-.322,1.3-.739.487-5.359.487-5.359" transform="translate(-206.175 380.978)"/><path class="ae" d="M292.087-291.142a5.2,5.2,0,0,0,4.832,5.072" transform="translate(-221.061 378.687)"/><path class="aa" d="M254.5-428.628l-1.454,5.775s5.419,3.51,7.781.1l-.335-4-5.991-1.88" transform="translate(-194.098 473.639)"/><path class="aa" d="M265.722-445.325s2.4,5.673.224,7.479c-1.032.856-3.724,1.12-4.908.175-.879-.7-2.18-5.042-1.681-5.8,1.9-2.906,6.365-1.852,6.365-1.852" transform="translate(-198.381 485.299)"/><path class="af" d="M276.5-436.306s1.092,1.333,1.049,1.742-.99.561-.99.561" transform="translate(-210.296 478.941)"/><path class="b" d="M274.531-427.642l-2.554.649a1.675,1.675,0,0,0,2.02.832c.983-.323.534-1.481.534-1.481" transform="translate(-207.172 472.957)"/><path class="v" d="M278.836-438.221a2.98,2.98,0,0,0,.11.333c.077.192.392.108.314-.087a3.278,3.278,0,0,0-.166-.355.142.142,0,0,0-.259.109h0" transform="translate(-211.906 480.387)"/><path class="x" d="M276.843-440.577a.679.679,0,0,1,.961-.223" transform="translate(-210.533 482.125)"/><path class="v" d="M269.542-434.942a2.888,2.888,0,0,0,.092.339c.066.2.381.113.314-.086a3.27,3.27,0,0,0-.146-.362c-.073-.152-.29-.04-.259.109h0" transform="translate(-205.489 478.125)"/><path class="x" d="M267.748-438.168a1.271,1.271,0,0,0-1.234.676" transform="translate(-203.4 480.235)"/><path class="v" d="M250.327-448.978a5.648,5.648,0,0,0-.177-.6c-.171-.478-.433-.9-.621-1.37a2.437,2.437,0,0,1,.729-2.734,4.062,4.062,0,0,0,.42-.337,3.438,3.438,0,0,0,.54-1.074,1.5,1.5,0,0,1,.618-.748c.668-.356,1.558.127,2.226-.23a3.123,3.123,0,0,0,.4-.288,3.1,3.1,0,0,1,3.089-.178,3.291,3.291,0,0,1,1.056.686c.444.346,1.059.323,1.506.661a1.967,1.967,0,0,1,.592,1.6,1.45,1.45,0,0,1-.1.627,1.176,1.176,0,0,1-.6.535,3.834,3.834,0,0,1-1.907.12c-.62-.047-1.341-.483-1.948-.257-.592.221-.743.947-1.471,1-.288.022-.637-.03-.808.2-.194.261-.092.691-.245.993a7.141,7.141,0,0,1-.582.806c-.368.523-.891.881-.7,1.563.13.474.657,1.235.439,1.738-.144.331-.872.326-1.423-.094a3.142,3.142,0,0,1-.876-1.912c-.051-.24-.1-.474-.152-.7" transform="translate(-191.561 493.139)"/><path class="aa" d="M257.425-432.536c-.539-.875-1.065-.806-1.4-.4-.441.544.165,1.85.489,2.1.656.5,1.232.525,1.353-.041" transform="translate(-196.052 476.813)"/><path class="ag" d="M268.867-420.076a6.386,6.386,0,0,1-3.8-.824" transform="translate(-202.399 468.302)"/><path class="ah" d="M279.242-440.34a1.073,1.073,0,0,1-1.073,1.073,1.073,1.073,0,0,1-1.073-1.073,1.073,1.073,0,0,1,1.073-1.073A1.073,1.073,0,0,1,279.242-440.34Z" transform="translate(-210.707 482.469)"/><path class="ah" d="M269.182-435.976a1.074,1.074,0,0,1-1.073,1.073,1.073,1.073,0,0,1-1.073-1.073,1.073,1.073,0,0,1,1.073-1.073A1.073,1.073,0,0,1,269.182-435.976Z" transform="translate(-203.76 479.455)"/><path class="ah" d="M273.8-436.016l1.1-.608" transform="translate(-208.433 479.161)"/><path class="ah" d="M262.2-432.645l-2.46-.484" transform="translate(-198.718 476.747)"/><path class="y" d="M226.994-412.759s.905,1.516,4.388,1.644c2.672.1,3.12-.777,3.12-.777s5.83,1.076,6.5,15.356c.66,14.134.262,21.129.262,21.129h-26.3s-1.3-34.5,12.032-37.352" transform="translate(-167.773 462.679)"/><path class="ai" d="M248.966-411.152s.959,2.423,6.5,2.458c3.61.023,4.954-1.229,4.954-1.229" transform="translate(-191.28 461.57)"/><path class="aa" d="M327.98-310.249c1.463,1.9,6.607,6.717,6.41,7.167s-2.029-1.22-2.121-.82,2.552,3.16,2.235,3.557c-.43.538-2.986-2.433-2.986-2.433s2.638,3.394,2.131,3.753c-.36.255-2.492-2.243-3.427-3.1.9,1.052,2.144,2.93,1.765,3.187s-1.864-1.416-3.072-2.635c.683.832,1.844,2.411,1.505,2.663s-4.24-3.556-7.772-7.285" transform="translate(-242.167 391.883)"/><path class="ag" d="M345.02-294.649c0-.075,0-.149,0-.224a2.8,2.8,0,0,0,1.661.84" transform="translate(-257.617 381.263)"/><path class="ag" d="M337.237-293.889a6.539,6.539,0,0,1,1.343,3.008" transform="translate(-252.243 380.584)"/><path class="r" d="M281.968-386.913c3.437,6.738,12.781,15.412,12.781,15.412l5.923-4.922s-6.875-8.314-8.8-12.851-1.65-9.213-4.221-14.85-9.449-5.83-9.449-5.83" transform="translate(-211.472 460.743)"/><path class="r" d="M278.2-409.955c7.288,6.068,9.559,26.673,9.559,38.453l-7.812.176s.628-18.949,0-26.4a93.856,93.856,0,0,0-1.747-12.23" transform="translate(-211.472 460.743)"/><path class="r" d="M224.938-412.759c2.186,8.77-.274,39.374-.274,39.374H211.95s.489-21.662,2.711-28.639,10.277-10.735,10.277-10.735" transform="translate(-165.716 462.679)"/><path class="t" d="M250.832-338.627l-12.584-4.181,5.578-16.966,12.585,4.182-5.578,16.966" transform="translate(-183.878 426.086)"/><path class="z" d="M272.38-355.4l-7.07-2.349.3-.9a.339.339,0,0,1,.429-.215l6.426,2.135a.34.34,0,0,1,.215.429l-.3.9" transform="translate(-202.568 425.469)"/><path class="z" d="M276.039-359.155a.513.513,0,0,1-.349-.636.513.513,0,0,1,.66-.3.513.513,0,0,1,.349.636A.514.514,0,0,1,276.039-359.155Zm.484-1.456a1.084,1.084,0,0,0-1.395.634,1.085,1.085,0,0,0,.738,1.342,1.085,1.085,0,0,0,1.394-.634,1.084,1.084,0,0,0-.738-1.342" transform="translate(-209.315 426.707)"/><path class="aa" d="M258.42-333.984c2.388.236,9.419-.216,9.613.236s-2.278.644-2.05.985,4.05.3,4.122.807c.1.681-3.818.51-3.818.51s4.28.4,4.2,1.018c-.061.436-3.342.28-4.6.377,1.38.068,3.6.443,3.531.9s-2.308.389-4.023.436c1.073.071,3.019.306,2.972.726s-5.494.655-10.631.676" transform="translate(-197.331 408.275)"/><path class="r" d="M213.011-412.759s-9.468-.035-12.33,4.957c-4.377,7.633-8.534,24.066-4.11,25.668,4.143,1.5,20.587.807,20.587.807l.081-7.908s-11.147-.394-11.895-1.681,2.527-7.884,2.527-7.884" transform="translate(-153.789 462.679)"/><path class="s" d="M234.884-360.349s-6.113-.582-6.434-1.329c-.543-1.267,3.068-8.32,3.068-8.32" transform="translate(-177.073 433.148)"/><path class="s" d="M304.8-358.682c-.639-11.076-.751-19.322-1.484-21.519" transform="translate(-228.814 440.194)"/><path class="s" d="M221.307-310.75l-8.371-.225" transform="translate(-166.397 392.384)"/><path class="aa" d="M415.98-126.966l-.425,12.541.106,3.945L400.2-110.56a.684.684,0,0,1-.68-.687h0a.684.684,0,0,1,.441-.636l6.669-3.066L406.442-128" transform="translate(-295.255 266.015)"/><path class="y" d="M397.161-81.6a2.1,2.1,0,0,1,.741-1.177l7.072-3.046c3.9,1.58,8.944.372,8.944.372l.9,5.324a.319.319,0,0,1-.321.318H397.279c-.346,0-.123-1.775-.118-1.791" transform="translate(-293.576 236.885)"/><path class="ai" d="M417.635-84.835a8.358,8.358,0,0,1,1,1.674" transform="translate(-307.768 236.205)"/><path class="ai" d="M414.756-83.114a7.354,7.354,0,0,1,.82,1.423" transform="translate(-305.78 235.017)"/><path class="ai" d="M412.324-81.859a10.436,10.436,0,0,1,.768,1.306" transform="translate(-304.101 234.149)"/><path class="ai" d="M414.732-70.3l-17.638-.09" transform="translate(-293.582 226.226)"/><path class="ai" d="M442.477-78.513s-4.143.084-4.5,2.581" transform="translate(-321.817 231.839)"/><path class="ai" d="M404.408-77.992a13.427,13.427,0,0,1,1.368,2.372" transform="translate(-298.634 231.479)"/><path class="aa" d="M483.692-126.966l1.225,12.541.106,3.945-15.464-.079a.684.684,0,0,1-.68-.687h0a.684.684,0,0,1,.441-.636l6.67-3.066L474.155-128" transform="translate(-343.159 266.015)"/><path class="y" d="M466.524-81.6a2.1,2.1,0,0,1,.741-1.177l7.072-3.046c3.9,1.58,8.944.372,8.944.372l.9,5.324a.319.319,0,0,1-.321.318H466.643c-.346,0-.123-1.775-.118-1.791" transform="translate(-341.481 236.885)"/><path class="ai" d="M487-84.835a8.362,8.362,0,0,1,1,1.674" transform="translate(-355.672 236.205)"/><path class="ai" d="M484.119-83.114a7.34,7.34,0,0,1,.82,1.423" transform="translate(-353.684 235.017)"/><path class="ai" d="M481.687-81.859a10.5,10.5,0,0,1,.769,1.306" transform="translate(-352.004 234.149)"/><path class="ai" d="M484.094-70.3l-17.638-.09" transform="translate(-341.486 226.226)"/><path class="ai" d="M511.84-78.513s-4.143.084-4.5,2.581" transform="translate(-369.721 231.839)"/><path class="ai" d="M473.771-77.992a13.4,13.4,0,0,1,1.368,2.372" transform="translate(-346.537 231.479)"/><path class="aj" d="M466.323-311.862l.455,2.528a20.64,20.64,0,0,1,2.93,7.907c1.526,8.638,5.107,57.589,5.107,57.589H461.8s-8.363-58.769-9.7-68.6" transform="translate(-331.57 393.395)"/><path class="aj" d="M418.437-317c-3.448,17.444-3.226,70.012-3.226,70.012h13.148s3.017-65.05,6.356-70.012" transform="translate(-306.092 396.544)"/><path class="ak" d="M482.473-97.592h13.16" transform="translate(-352.548 245.015)"/><path class="ak" d="M416.016-97.592h13" transform="translate(-306.65 245.015)"/><path class="ak" d="M453.319-248.559c-2.832,22.22-3.554,48.84-3.554,48.84" transform="translate(-329.959 349.278)"/><path class="ak" d="M446.9-302.087a97.431,97.431,0,0,1-23.7.185" transform="translate(-311.612 386.246)"/><path class="ak" d="M459.612-274.012s-2.8-18.4-2.577-25.135" transform="translate(-334.971 384.216)"/><path class="ak" d="M452.1-299.147s.111,5.372.351,5.616a4.419,4.419,0,0,0,1.433.424" transform="translate(-331.57 384.216)"/><path class="ak" d="M492.851-300.766a25.667,25.667,0,0,1,2.5,8.423c.874,5.67,5.854,56.419,5.854,56.419" transform="translate(-359.715 385.333)"/><path class="ak" d="M479.577-299.927a11.391,11.391,0,0,0,5.655,3.765" transform="translate(-350.548 384.754)"/><path class="ak" d="M473.788-305v-2.335" transform="translate(-346.549 389.872)"/><path class="ak" d="M438.574-305.984v-2.557" transform="translate(-322.229 390.703)"/><path class="ak" d="M425.682-300.415s-1.766,2.8-3.695,2.922" transform="translate(-310.774 385.091)"/><path class="aa" d="M445.233-420.419l-.148,3.26a3.536,3.536,0,0,0,3.362,1.734,3.692,3.692,0,0,0,3.127-1.867l-.165-5.019" transform="translate(-326.727 469.276)"/><path class="aa" d="M441.551-447.845c-1.454,1.6-3.394,7.507-.767,8.885,2.769,1.451,6.116.347,7.06-3.453.993-3.993-2.472-9.647-6.293-5.432" transform="translate(-322.86 487.94)"/><path class="al" d="M445.563-417.6s1.986.734,4.738-1.459" transform="translate(-327.056 467.029)"/><path class="am" d="M465.521-428.35s0,0,0,0a0,0,0,1,0,0,0h0" transform="translate(-340.839 473.45)"/><path class="am" d="M465.4-428.4l-.024.035c-.015.022.021.042.035.021l.024-.035c.015-.022-.02-.043-.035-.021h0" transform="translate(-340.74 473.49)"/><path class="ad" d="M447.357-440.494c-2.235-3.663-1.909-5.933-1.909-5.933s-5.042-.347-5.961-1.2a3.486,3.486,0,0,1,4.977-2.574c3.552-1.3,5.525,1.933,5.922,3.771.5,2.312-1.078,5.223-3.029,5.933" transform="translate(-322.86 488.803)"/><path class="ad" d="M466.776-452.249c-.3-.372-.012-1,.266-1.389a1.95,1.95,0,0,1,2.369-.571,2.032,2.032,0,0,1,1.03,2.228,1.842,1.842,0,0,1-1.87,1.306.95.95,0,0,1-.91-.389" transform="translate(-341.619 491.434)"/><path class="ad" d="M477.806-452.128a.912.912,0,0,1,.547-.92,1.572,1.572,0,0,1,1.913.453,1.639,1.639,0,0,1-.071,1.978,1.712,1.712,0,0,1-1.945.436.766.766,0,0,1-.512-.612" transform="translate(-349.277 490.611)"/><path class="ad" d="M485.4-448.948a.658.658,0,0,1,.506-.582,1.133,1.133,0,0,1,1.3.566,1.18,1.18,0,0,1-.3,1.393,1.233,1.233,0,0,1-1.435.059.551.551,0,0,1-.284-.5" transform="translate(-354.416 488.104)"/><path class="ad" d="M490.387-445.058a.466.466,0,0,1,.522-.163.8.8,0,0,1,.573.825.838.838,0,0,1-.7.728.777.777,0,0,1-.737-1.245" transform="translate(-357.651 485.112)"/><path class="ad" d="M493.254-442.194q.026.863.051,1.727a.044.044,0,0,0,.012.035.044.044,0,0,0,.033,0l1.253-.217a.322.322,0,0,0,.252-.132.29.29,0,0,0,.021-.132,1.839,1.839,0,0,0-.482-1.163,3.128,3.128,0,0,0-1.04-.74" transform="translate(-359.993 483.436)"/><path class="aa" d="M458.318-428.12a.824.824,0,0,1,.653-.533c.723-.115.968.857.753,1.547a2.038,2.038,0,0,1-.7,1.038c-.465.379-.98.382-1.142-.229" transform="translate(-335.564 473.663)"/><path class="af" d="M444.212-432.536s-1.092,1.333-1.048,1.742.989.562.989.562" transform="translate(-325.399 476.338)"/><path class="b" d="M442.594-423.871l2.554.649a1.675,1.675,0,0,1-2.02.832c-.983-.323-.534-1.48-.534-1.48" transform="translate(-324.935 470.353)"/><path class="v" d="M442.974-434.561a3.22,3.22,0,0,0-.165.355c-.078.194.236.279.314.087a2.956,2.956,0,0,0,.11-.332.142.142,0,0,0-.259-.109h0" transform="translate(-325.146 477.784)"/><path class="x" d="M444.068-436.807a.679.679,0,0,0-.961-.222" transform="translate(-325.36 479.521)"/><path class="v" d="M452.322-431.281a3.233,3.233,0,0,0-.146.362c-.067.2.247.284.314.086a2.925,2.925,0,0,0,.092-.339c.031-.148-.186-.262-.259-.109h0" transform="translate(-331.617 475.522)"/><path class="x" d="M452.552-434.4a1.271,1.271,0,0,1,1.234.675" transform="translate(-331.883 477.631)"/><path class="aa" d="M379.008-386.16a45.723,45.723,0,0,1-2.443,4.285c-2.68,2.681-7-10.4-7-10.4l-5.372,3.071s3.221,13.934,9.685,16.951,14.013-10.09,14.013-10.09" transform="translate(-270.861 448.534)"/><path class="aa" d="M367.566-408.922c-.593-2.08-2.07-7.686-2.469-7.75s-.061,1.943-.378,1.829-1.046-3.167-1.461-3.125c-.563.057.351,3.144.351,3.144s-.3-.6-.775-.4c-.335.135-.255,1.007-.255,1.007s-.355-.668-.7-.521-.262,1.177-.262,1.177-.317-.327-.642-.205-.572,1.888,1.183,8.15" transform="translate(-268.477 466.277)"/><path class="an" d="M372.37-405.324a10.067,10.067,0,0,1-.469,1.514,2.693,2.693,0,0,0-.284,1.551" transform="translate(-275.972 457.544)"/><path class="ao" d="M364.024-406.995a7.913,7.913,0,0,1,.149.967,2.167,2.167,0,0,1-.073,1.02.33.33,0,0,1-.125.141.271.271,0,0,1-.111.037.926.926,0,0,1-.1-.008.577.577,0,0,1-.274-.159,2.013,2.013,0,0,1-.317-.42,5.473,5.473,0,0,1-.424-.909l.362-.1a8.105,8.105,0,0,1,.164.969,4.646,4.646,0,0,1,.029.5,1.2,1.2,0,0,1-.111.569.411.411,0,0,1-.168.165.366.366,0,0,1-.245.026.589.589,0,0,1-.308-.167,1.568,1.568,0,0,1-.309-.456,4.459,4.459,0,0,1-.307-.957l.355-.066a8.284,8.284,0,0,1,.065.893,3.577,3.577,0,0,1-.07.914.519.519,0,0,1-.13.246.241.241,0,0,1-.177.067.352.352,0,0,1-.15-.057.981.981,0,0,1-.276-.394,3.841,3.841,0,0,1-.252-.853,5.383,5.383,0,0,0,.369.792.86.86,0,0,0,.259.294c.055.021.065.016.076,0a.342.342,0,0,0,.054-.147,3.362,3.362,0,0,0-.007-.841c-.03-.286-.075-.575-.119-.857a.181.181,0,0,1,.15-.207.18.18,0,0,1,.2.132l0,.008a4.561,4.561,0,0,0,.311.86,1.217,1.217,0,0,0,.227.335c.041.036.082.065.106.062s0,0-.01.009-.012.013,0-.005a1.006,1.006,0,0,0,.058-.368,4.213,4.213,0,0,0-.021-.457c-.03-.309-.078-.624-.132-.93v-.009a.188.188,0,0,1,.152-.218.188.188,0,0,1,.211.127,7.21,7.21,0,0,0,.352.873,1.753,1.753,0,0,0,.237.376.34.34,0,0,0,.128.1c.019,0,.026.011.026.007s.021-.014.036-.037a1.17,1.17,0,0,0,.106-.42c.021-.156.033-.316.038-.477.012-.322,0-.646-.005-.971" transform="translate(-268.81 458.698)"/><path class="y" d="M430.233-408.616s.272,1.092,2.736,1.092a4.193,4.193,0,0,0,3.544-1.818s5.612.517,9.114,9.023.981,21.533.981,21.533l-22.371.66s.589-3.847-.088-13.39c-.107-1.5-1.115-4.131-.248-7.684,1.311-5.369,6.331-9.416,6.331-9.416" transform="translate(-311.855 460.319)"/><path class="ap" d="M455.364-310.965l-12.745.179.011.78,13.458-.189h0a.749.749,0,0,0-.725-.77" transform="translate(-325.023 392.377)"/><path class="aq" d="M384.188-336.713l17.906-.251L398.5-348.932a1.369,1.369,0,0,0-1.3-1.018l-16.189.227a.575.575,0,0,0-.5.762l3.677,12.248" transform="translate(-282.111 419.302)"/><path class="ar" d="M381.587-336.677l17.906-.251L395.9-348.9a1.369,1.369,0,0,0-1.3-1.018l-16.189.227a.575.575,0,0,0-.5.762l3.677,12.248" transform="translate(-280.315 419.277)"/><path class="aq" d="M406.6-330.125a1.408,1.408,0,0,0,1.4,1c.663-.009,1.108-.47,1-1.03a1.406,1.406,0,0,0-1.4-1c-.662.009-1.108.47-1,1.03" transform="translate(-300.137 406.321)"/><path class="aa" d="M453.59-368.066s.557,9.1-.473,10.746c-.6.969-9.774,4.021-9.774,4.021v6.526s13.9-.42,17.554-5.362c2.735-3.7,2.342-15.931,2.342-15.931" transform="translate(-325.523 431.813)"/><path class="y" d="M465.446-409.342s6,.592,9,3.381c4.493,4.182,4.823,10.805,4.823,10.805H468.586l-.116-5.626" transform="translate(-340.788 460.319)"/><path class="y" d="M419.15-406.995c-3.561.346-6.321,1.873-7.783,3.924a35.55,35.55,0,0,0-3.863,8.119l8.432,2.442" transform="translate(-300.772 458.698)"/><path class="ai" d="M474.381-377.366a34.366,34.366,0,0,0-.544-6.218" transform="translate(-346.583 442.53)"/><path class="ai" d="M422.725-380.159c-.349-3.6,2.236-7.4,2.236-7.4" transform="translate(-311.261 445.276)"/><path class="aa" d="M424.269-322.608c-1.47.259-9.213,1.83-9.12,2.222s2.362.3,2.295.518c-.1.3-1.779.712-2.743.854-.86.126-2.22.47-2.213.851.012.725,4.721-.028,4.721-.028s-5.215-.137-5.267.471c-.075.876,5.449.813,5.643,1,0,0-4.805-1.276-4.861-.627s4.207,1.894,5.523,1.8c-1.094-.128-4.433-1.753-4.459-1.157s2.866,1.44,3.329,1.475a26.506,26.506,0,0,0,7.247-.537" transform="translate(-303.836 400.418)"/><path class="as" d="M415.416-307.87a18.111,18.111,0,0,1,1.845-.193c.616-.033,1.231-.056,1.853-.041a7.9,7.9,0,0,1-.917.162c-.307.043-.616.065-.924.085a12.97,12.97,0,0,1-1.857-.013" transform="translate(-306.236 390.404)"/><path class="as" d="M417.212-304.731c.676,0,1.343.048,2.01.087s1.33.093,2,.11a5.239,5.239,0,0,1-1.006.114,9.954,9.954,0,0,1-1.011-.018,11.8,11.8,0,0,1-2-.293" transform="translate(-307.476 388.072)"/><path class="as" d="M419.99-302.245c.6.021,1.195.092,1.786.163s1.178.161,1.774.254a5.643,5.643,0,0,1-.9.026c-.3-.008-.6-.04-.9-.076a10.615,10.615,0,0,1-1.761-.368" transform="translate(-309.395 386.355)"/><path class="b" d="M456.756-413.81s-1.524,2.845-4.054,3.19l1.336,2.5a5.877,5.877,0,0,0,3.1-4.308l-.387-1.382" transform="translate(-331.987 463.405)"/><path class="b" d="M443.867-411.6s-.369,2.031,2.209,2.505l-1.2,2.332a5.273,5.273,0,0,1-1.766-3.338l.76-1.5" transform="translate(-325.36 461.876)"/><path class="aa" d="M597.79-425.588l-.42,4.212s.335,1.193,2.668,1.45a4.72,4.72,0,0,0,4.315-2.083l-.84-4.143" transform="translate(-431.898 471.928)"/><path class="aa" d="M592.356-445.516s-1.664,5.28.7,6.669c2.141,1.26,5.719-.7,5.928-1.37s1.158-6.352-.2-6.778c-2.421-.758-5.71-.791-6.421,1.479" transform="translate(-428.042 486.644)"/><path class="al" d="M598.24-419.89a4.619,4.619,0,0,0,3.914-.893" transform="translate(-432.5 468.221)"/><path class="v" d="M589.785-454.4c-.287-2.816,3.508-1.562,5.151-.636.494.278,3.02.409,3.5.712a2.918,2.918,0,0,1,1.134,1.232,3.523,3.523,0,0,1,.239,1.458,17.911,17.911,0,0,1-.286,2.659c-.152.961-.383,2.855-1.674,2.97a1.063,1.063,0,0,1-.727-.11.919.919,0,0,1-.3-.656,3.353,3.353,0,0,1,.076-1.2c-.242.131-.471.35-.742.311a.4.4,0,0,1-.213-.147,3.494,3.494,0,0,1,.207-2.93c-1.321-.28-2.262-.11-3.593-.33a3.9,3.9,0,0,1-2.07-.96c-.657-.549-.611-1.517-.7-2.37" transform="translate(-426.65 492.63)"/><path class="aa" d="M610.775-431.96c.2-.5.552-1.094,1.1-.757a1.08,1.08,0,0,1,.379.62c.252.82-.336,2.083-1.141,1.967-.392-.057-.61-.523-.769-.907" transform="translate(-440.861 476.531)"/><path class="af" d="M595.322-435.059s-.917,1.459-.822,1.86.953.252.953.252" transform="translate(-429.912 478.08)"/><path class="b" d="M593.664-426.151l2.223.161s-.016,1.277-1.077,1.277-1.146-1.439-1.146-1.439" transform="translate(-429.339 471.928)"/><path class="v" d="M593.5-436.68a3.084,3.084,0,0,0-.109.335.163.163,0,0,0,.314.087,2.938,2.938,0,0,0,.069-.346.142.142,0,0,0-.273-.075h0" transform="translate(-429.147 479.269)"/><path class="x" d="M594.2-439.1a.679.679,0,0,0-.981-.1" transform="translate(-429.033 481.061)"/><path class="v" d="M603.187-434.581a2.988,2.988,0,0,0-.09.339c-.041.2.273.292.314.087a3.275,3.275,0,0,0,.055-.388c.013-.166-.231-.183-.278-.038h0" transform="translate(-435.851 477.818)"/><path class="x" d="M602.892-437.707a1.271,1.271,0,0,1,1.309.516" transform="translate(-435.712 479.932)"/><path class="m" d="M618.843-162.31l8.329,9.159,3.172,2.346-9.588,12.134a.684.684,0,0,1-.961.113h0a.685.685,0,0,1-.229-.74l1.693-7.143-9.105-8.991" transform="translate(-442.109 289.712)"/><path class="ad" d="M635.747-117.542a2.1,2.1,0,0,1-.472-1.309l1.957-7.447c3.646-2.1,5.8-6.816,5.8-6.816l4.749,2.571a.32.32,0,0,1,.052.448l-10.606,13.562c-.215.272-1.475-1-1.484-1.01" transform="translate(-458.067 269.547)"/><path class="ae" d="M639.364-106.578a8.348,8.348,0,0,1,1.933.246" transform="translate(-460.901 251.222)"/><path class="ae" d="M638.948-103.25a7.329,7.329,0,0,1,1.626.231" transform="translate(-460.613 248.923)"/><path class="ae" d="M638.438-100.56a10.362,10.362,0,0,1,1.5.2" transform="translate(-460.262 247.065)"/><path class="ae" d="M649.029-126.228l-10.937,13.838" transform="translate(-460.022 264.792)"/><path class="ae" d="M662.8-130.165s-2.486,3.316-.74,5.134" transform="translate(-476.144 267.511)"/><path class="ae" d="M636.607-91.944a13.409,13.409,0,0,1,2.711.384" transform="translate(-458.997 241.115)"/><path class="at" d="M559.99-299.927s-7.671,23.934-6.052,32.366c.758,3.949,5.237,7.784,9.98,12.266,6.539,6.179,13.731,12.528,13.731,12.528l6.159-10.879S569-267.9,569-270.9c0-4.537,7.734-28.136,7.734-28.136" transform="translate(-401.748 384.754)"/><path class="au" d="M601.82-260.535s-5.433,14.307-4.782,17.3c.635,2.92,15.361,17.413,15.361,17.413" transform="translate(-431.632 357.549)"/><path class="m" d="M616.3-126.966l.812,12.541.106,3.945-15.465-.079a.684.684,0,0,1-.68-.687h0a.684.684,0,0,1,.441-.636l6.67-3.066L606.766-128" transform="translate(-434.459 266.015)"/><path class="ad" d="M598.722-81.6a2.105,2.105,0,0,1,.74-1.177l7.072-3.046c3.9,1.58,8.944.372,8.944.372l.9,5.324a.319.319,0,0,1-.321.318H598.841c-.347,0-.124-1.775-.118-1.791" transform="translate(-432.78 236.885)"/><path class="ae" d="M619.194-84.835a8.325,8.325,0,0,1,1,1.674" transform="translate(-446.971 236.205)"/><path class="ae" d="M616.317-83.114a7.354,7.354,0,0,1,.82,1.423" transform="translate(-444.984 235.017)"/><path class="ae" d="M613.885-81.859a10.376,10.376,0,0,1,.769,1.306" transform="translate(-443.304 234.149)"/><path class="ae" d="M616.293-70.3l-17.638-.09" transform="translate(-432.786 226.226)"/><path class="ae" d="M644.039-78.513s-4.143.084-4.5,2.581" transform="translate(-461.022 231.839)"/><path class="ae" d="M605.969-77.992a13.393,13.393,0,0,1,1.368,2.372" transform="translate(-437.837 231.479)"/><path class="au" d="M574.727-294.519c-.295,3.041-4.42,2.9-4.42,2.9" transform="translate(-413.208 381.019)"/><path class="at" d="M619.7-302.087a28.013,28.013,0,0,1-.359,8.487,2.1,2.1,0,0,0-.049.5l1,56.413-13.3-.073s-3.961-53.311-3.845-64.659" transform="translate(-435.883 386.246)"/><path class="au" d="M649.3-299.147c.2,3.9-.574,5.54-.446,7.806,1.545,27.286,1.3,56.683,1.3,56.683" transform="translate(-467.444 384.216)"/><path class="au" d="M603.145-296.563c.439,13.787,2.93,50.906,2.93,50.906" transform="translate(-435.887 382.431)"/><path class="au" d="M627.833-294.519c1.167,3.4,6.437,4.159,6.437,4.159" transform="translate(-452.937 381.019)"/><path class="au" d="M597.81-294.519a22.7,22.7,0,0,0,.149,6.115c.111.314,1.032.449,1.674.681" transform="translate(-432.131 381.019)"/><path class="au" d="M614.9-100.114h13.487" transform="translate(-444.006 246.757)"/><path class="aa" d="M514.053-399.949s7.505,13.434,10.9,17.372c1.16,1.343,2.313,2.755,4.233,2.244,3.781-1.007,6.912-14.234,6.912-14.234l-6.141-4.628-1.954,5.675-8.657-9.57" transform="translate(-374.358 456.001)"/><path class="ad" d="M585.915-412.759a6.168,6.168,0,0,1-3.807,1.6c-2.674,0-3.176-.972-3.176-.972s-6.305,2.1-7.075,11.282c-1.184,14.147-1.184,25.026-1.184,25.026h27.274s1.3-34.088-12.032-36.94" transform="translate(-413.461 462.679)"/><path class="aa" d="M609.135-372.066c.081,5.881.3,12.64-1.11,15.385-2.054,3.99-21.863,2.661-21.863,2.661l.1-6.635s11.858-1.329,12.636-1.758c1-.553.405-9.176.405-9.176" transform="translate(-424.158 434.575)"/><path class="ad" d="M569.852-411.109c-4.139-.632-7.786.425-9.22,3.317-1.258,2.536-3.106,7.268-3.106,7.268l9.976,3" transform="translate(-404.381 461.662)"/><path class="aa" d="M575.1-336.785s-6.388.445-9.3.816c-.92.118-1.911.544-1.557,1.432a1.087,1.087,0,0,0-.311,1.7,1.052,1.052,0,0,0,.229,1.735.911.911,0,0,0-.035,1.588,4.97,4.97,0,0,0,2.117.776c.527.015,0-.813-.586-1.157a12.82,12.82,0,0,1,2.339.08l3.972.234" transform="translate(-408.561 410.209)"/><path class="av" d="M565.472-319.533a1.482,1.482,0,0,1,.427-.282,2.4,2.4,0,0,1,.484-.165,2.564,2.564,0,0,1,.506-.06,2.106,2.106,0,0,1,.507.044c-.331.088-.651.144-.968.217s-.63.149-.956.246" transform="translate(-409.869 398.646)"/><path class="av" d="M564.456-325.079a1.487,1.487,0,0,1,.426-.283,2.411,2.411,0,0,1,.484-.165,2.544,2.544,0,0,1,.506-.06,2.1,2.1,0,0,1,.507.044c-.331.088-.65.144-.968.217s-.629.149-.955.246" transform="translate(-409.167 402.475)"/><path class="av" d="M565.983-330.426a1.631,1.631,0,0,1,.445-.234,2.7,2.7,0,0,1,.484-.127,2.862,2.862,0,0,1,.5-.039,2.3,2.3,0,0,1,.5.052c-.325.088-.643.134-.961.19l-.962.158" transform="translate(-410.221 406.094)"/><path class="ad" d="M619.941-412.782s9.173-.453,11.353,4.6a34.153,34.153,0,0,1,2.155,10.3l-11.231.7-.577-6.863" transform="translate(-447.487 462.703)"/><path class="ae" d="M626.131-376.309c-.327-3.9-.525-6.255-.525-6.255" transform="translate(-451.399 441.826)"/><path class="ae" d="M574.273-384.987s.481-4.578,1.3-6.056" transform="translate(-415.947 447.682)"/><path class="aw" d="M559.157-372.156s2.6,3.036,2.915,5.022" transform="translate(-405.508 434.638)"/><path class="aa" d="M516.737-410.808c-1.526-1.852-5.38-7.658-5.863-7.567s.735,2.25.324,2.251-2.509-3.194-2.967-2.974c-.621.3,1.7,3.455,1.7,3.455s-2.718-3.331-3.182-2.917c-.328.293,1.629,2.931,2.251,4.033-.825-1.108-2.376-2.745-2.711-2.434s.963,2.133,1.88,3.584c-.657-.851-1.936-2.337-2.259-2.063s2.517,4.928,5.362,9.2" transform="translate(-368.719 467.065)"/><path class="aw" d="M516.08-399.019a5.161,5.161,0,0,1,2.314,1.891" transform="translate(-375.757 453.19)"/><path class="aw" d="M524.693-406.167a3.67,3.67,0,0,0,1.388,2.569" transform="translate(-381.706 458.127)"/><path class="u" d="M579.187-414.087a.858.858,0,0,0-.8-.045c-.649.415-.991,2.076-.912,2.889.021.211.106.453.273.457.138,0,.247-.159.33-.3.323-.562.535-1.7.837-2.282" transform="translate(-418.15 463.686)"/><path class="u" d="M582.869-414.412a1.2,1.2,0,0,0-1.54-.146c-.653.549-.842,2.33-.67,3.156.045.214.162.449.342.422.148-.022.247-.21.322-.377.287-.641.392-1.859.654-2.514" transform="translate(-420.316 464.068)"/><path class="u" d="M585.747-414.622s-.877-.33-1.116-.1c-.615.591-.824,2.669-.6,3.482.058.211.192.437.37.4.146-.032.233-.226.3-.4.243-.659.267-1.881.485-2.553" transform="translate(-422.627 464.091)"/><path class="u" d="M587.316-411.208c.058.2.185.421.35.386.136-.028.214-.213.27-.376.138-.4.1-2.216.621-2.162a2.781,2.781,0,0,0-.274.973c-.008.089,0,.2.083.235s.165-.031.229-.091a6.486,6.486,0,0,1,.987-.764c.216-.136.676-.35.676-.35a4.7,4.7,0,0,0-1.547-1.061c-.481-.12-1.073-.277-1.356.219a4.417,4.417,0,0,0-.038,2.991" transform="translate(-424.786 463.91)"/><path class="ax" d="M587.2-414.362a1.594,1.594,0,0,0-.556,1.824c.023.078.155.09.171,0,.111-.626-.088-1.234.479-1.7.07-.058-.019-.161-.094-.122h0" transform="translate(-424.435 463.792)"/><path class="ax" d="M584.326-414.779a2.048,2.048,0,0,0-.708,2.164c.02.08.158.089.171,0,.1-.68-.018-1.565.615-2.03a.077.077,0,0,0-.078-.133h0" transform="translate(-422.361 464.081)"/><path class="ax" d="M581.006-413.931c-.653.328-.788,1.492-.711,2.14a.089.089,0,0,0,.174.024c.228-.642-.013-1.564.615-2.03a.078.078,0,0,0-.078-.134h0" transform="translate(-420.092 463.496)"/></g></g><g class="ay" transform="translate(403 663)"><rect class="az" width="276" height="164" rx="4"/><rect class="ba" x="0.5" y="0.5" width="275" height="163" rx="3.5"/></g></g></svg>