<svg xmlns="http://www.w3.org/2000/svg" width="18.399" height="20.073" viewBox="0 0 18.399 20.073">
  <g id="Group_27205" data-name="Group 27205" transform="translate(-8079.845 -3350)">
    <path id="Path_13937" data-name="Path 13937" d="M14.854,5.854A.63.63,0,0,1,14.6,5.8L9.375,3.5a.628.628,0,0,1,0-1.149L14.6.053a.632.632,0,0,1,.505,0l5.227,2.3a.628.628,0,0,1,0,1.149L15.107,5.8A.63.63,0,0,1,14.854,5.854Z" transform="translate(8077.535 3350)" fill="#f60"/>
    <path id="Path_13938" data-name="Path 13938" d="M15.939,8.015a1.887,1.887,0,0,1-1.512,0L11,6.508v.575a1.468,1.468,0,0,0,.7,1.25,6.675,6.675,0,0,0,3.486,1.1,6.675,6.675,0,0,0,3.486-1.1,1.467,1.467,0,0,0,.7-1.25V6.508Z" transform="translate(8077.208 3348.935)" fill="#f60"/>
    <path id="Path_13939" data-name="Path 13939" d="M16.054,9.584a7.2,7.2,0,0,1-2.509.452A8.276,8.276,0,0,1,9.188,8.7a3.155,3.155,0,0,1-1.5-2.676V5.168l-.3-.134a2.3,2.3,0,0,1,0-4.215L9.254,0H3.509A2.516,2.516,0,0,0,1,2.509V14.636a2.6,2.6,0,0,0,2.509,2.091H6.018v2.718a.628.628,0,0,0,1.045.468l1.464-1.3,1.464,1.3a.629.629,0,0,0,1.045-.468V16.726h4.182a.839.839,0,0,0,.836-.836ZM6.018,15.054H3.509a.836.836,0,1,1,0-1.673H6.018Zm8.363,0H11.036V13.381h3.345Z" transform="translate(8078.845 3350)" fill="#f60"/>
  </g>
</svg>
