<svg xmlns="http://www.w3.org/2000/svg" width="20.012" height="18.729" viewBox="0 0 20.012 18.729">
  <g id="Group_25269" data-name="Group 25269" transform="translate(-1074 -2196)">
    <g id="Group_1" data-name="Group 1" transform="translate(1074 2196)">
      <path id="Path_10" data-name="Path 10" d="M7.477,8.425H1.58A1.582,1.582,0,0,1,0,6.846V1.58A1.582,1.582,0,0,1,1.58,0h5.9A1.582,1.582,0,0,1,9.06,1.58V6.846A1.582,1.582,0,0,1,7.477,8.425ZM1.58,1.053a.527.527,0,0,0-.527.527V6.846a.527.527,0,0,0,.527.527h5.9A.527.527,0,0,0,8,6.846V1.58a.527.527,0,0,0-.527-.527Z" transform="translate(0 0)" fill="#555"/>
    </g>
    <g id="Group_1-2" data-name="Group 1" transform="translate(1074 2206.304)">
      <path id="Path_10-2" data-name="Path 10" d="M7.477,8.425H1.58A1.582,1.582,0,0,1,0,6.846V1.58A1.582,1.582,0,0,1,1.58,0h5.9A1.582,1.582,0,0,1,9.06,1.58V6.846A1.582,1.582,0,0,1,7.477,8.425ZM1.58,1.053a.527.527,0,0,0-.527.527V6.846a.527.527,0,0,0,.527.527h5.9A.527.527,0,0,0,8,6.846V1.58a.527.527,0,0,0-.527-.527Z" transform="translate(0 0)" fill="#555"/>
    </g>
    <g id="Group_1-3" data-name="Group 1" transform="translate(1084.953 2196)">
      <path id="Path_10-3" data-name="Path 10" d="M7.477,8.425H1.58A1.582,1.582,0,0,1,0,6.846V1.58A1.582,1.582,0,0,1,1.58,0h5.9A1.582,1.582,0,0,1,9.06,1.58V6.846A1.582,1.582,0,0,1,7.477,8.425ZM1.58,1.053a.527.527,0,0,0-.527.527V6.846a.527.527,0,0,0,.527.527h5.9A.527.527,0,0,0,8,6.846V1.58a.527.527,0,0,0-.527-.527Z" transform="translate(0 0)" fill="#555"/>
    </g>
    <g id="Group_1-4" data-name="Group 1" transform="translate(1084.953 2206.304)">
      <path id="Path_10-4" data-name="Path 10" d="M7.477,8.425H1.58A1.582,1.582,0,0,1,0,6.846V1.58A1.582,1.582,0,0,1,1.58,0h5.9A1.582,1.582,0,0,1,9.06,1.58V6.846A1.582,1.582,0,0,1,7.477,8.425ZM1.58,1.053a.527.527,0,0,0-.527.527V6.846a.527.527,0,0,0,.527.527h5.9A.527.527,0,0,0,8,6.846V1.58a.527.527,0,0,0-.527-.527Z" transform="translate(0 0)" fill="#555"/>
    </g>
  </g>
</svg>
