<svg id="undraw_Questions_re_1fy7" xmlns="http://www.w3.org/2000/svg" width="72.421" height="51.036" viewBox="0 0 72.421 51.036">
  <circle id="Ellipse_2184" data-name="Ellipse 2184" cx="3.944" cy="3.944" r="3.944" transform="translate(33.043 43.04)" fill="#638fff"/>
  <path id="Path_14636" data-name="Path 14636" d="M351.262,245.951c2.206-.663,4.552-1.354,6.3-2.929a5.61,5.61,0,0,0,1.972-5.668,6.978,6.978,0,0,0-4.582-4.21,18.8,18.8,0,0,0-3.506-.789c-1.289-.188-2.584-.342-3.878-.49q-7.86-.9-15.779-1.1c-2.605-.066-5.21-.064-7.815-.026a15.966,15.966,0,0,1-6.936-.956,6.4,6.4,0,0,1-3.67-4.007,6.462,6.462,0,0,1,1.885-5.821,15.256,15.256,0,0,1,2.541-2.119c.985-.68,2-1.312,3.045-1.9a42.407,42.407,0,0,1,6.41-2.955c1.093-.4,2.2-.74,3.32-1.056a28.41,28.41,0,0,0,2.8-.9c1.765-.7,3.443-1.895,3.892-3.848a6.012,6.012,0,0,0-1.549-5.236,8.322,8.322,0,0,0-5.75-2.4,18.517,18.517,0,0,0-6.884,1.214c-2.366.8-4.681,1.719-7.1,2.367a47.752,47.752,0,0,1-7.3,1.358,19.813,19.813,0,0,1-3.666.175,4.433,4.433,0,0,1-2.781-1.1,2.75,2.75,0,0,1-.895-2.369c.024-.163.272-.094.248.068a2.713,2.713,0,0,0,1.5,2.618,6.4,6.4,0,0,0,3.526.529,46.114,46.114,0,0,0,7.589-1.1,60.986,60.986,0,0,0,7.177-2.215,26.211,26.211,0,0,1,6.931-1.781,10.35,10.35,0,0,1,6.077,1.237,6.722,6.722,0,0,1,3.135,4.374,5.07,5.07,0,0,1-1.492,4.828,12.227,12.227,0,0,1-5.106,2.35,46.785,46.785,0,0,0-6.635,2.375,41.657,41.657,0,0,0-6.242,3.509c-1.907,1.3-3.79,2.943-4.393,5.269a4.854,4.854,0,0,0,.241,3.255,5.949,5.949,0,0,0,1.909,2.265,11.193,11.193,0,0,0,6.637,1.726c2.6.032,5.193-.055,7.79-.013q7.939.13,15.846.967,1.981.21,3.957.464a35.786,35.786,0,0,1,3.539.574,8.94,8.94,0,0,1,5.375,3.162,5,5,0,0,1,.426,5.467,8.987,8.987,0,0,1-4.808,4,34.106,34.106,0,0,1-3.237,1.093A.129.129,0,0,1,351.262,245.951Z" transform="translate(-290.714 -195.245)" fill="#f2f2f2"/>
  <circle id="Ellipse_2185" data-name="Ellipse 2185" cx="2.058" cy="2.058" r="2.058" transform="translate(8.736 3.901)" fill="#f2f2f2"/>
  <circle id="Ellipse_2186" data-name="Ellipse 2186" cx="2.058" cy="2.058" r="2.058" transform="translate(23.011 7.802)" fill="#f2f2f2"/>
  <circle id="Ellipse_2187" data-name="Ellipse 2187" cx="2.058" cy="2.058" r="2.058" transform="translate(35.1)" fill="#f2f2f2"/>
  <circle id="Ellipse_2188" data-name="Ellipse 2188" cx="2.058" cy="2.058" r="2.058" transform="translate(42.645 8.745)" fill="#f2f2f2"/>
  <circle id="Ellipse_2189" data-name="Ellipse 2189" cx="2.058" cy="2.058" r="2.058" transform="translate(32.443 18.862)" fill="#f2f2f2"/>
  <circle id="Ellipse_2190" data-name="Ellipse 2190" cx="2.058" cy="2.058" r="2.058" transform="translate(19.496 23.749)" fill="#f2f2f2"/>
  <circle id="Ellipse_2191" data-name="Ellipse 2191" cx="2.058" cy="2.058" r="2.058" transform="translate(33.214 31.38)" fill="#f2f2f2"/>
  <circle id="Ellipse_2192" data-name="Ellipse 2192" cx="2.058" cy="2.058" r="2.058" transform="translate(47.961 35.667)" fill="#f2f2f2"/>
  <circle id="Ellipse_2193" data-name="Ellipse 2193" cx="2.058" cy="2.058" r="2.058" transform="translate(65.194 34.724)" fill="#f2f2f2"/>
  <path id="Path_14637" data-name="Path 14637" d="M483.637,220.37a11.413,11.413,0,0,0-11.3,11.216c0,.057,0,.457,0,.98a2.893,2.893,0,0,0,2.893,2.893h0a2.9,2.9,0,0,0,2.895-2.9c0-.357,0-.6,0-.618a5.487,5.487,0,1,1,8.447,4.619h0s-4.118,2.651-5.373,6.288h0a8.06,8.06,0,0,0-.332,2.3c0,.319.019,3.114.055,5.382a2.982,2.982,0,0,0,2.983,2.934h0a2.983,2.983,0,0,0,2.983-3c-.013-2.077-.019-4.5-.019-4.672,0-2.233,2.154-4.458,3.924-5.909a11.9,11.9,0,0,0,4.093-6.516,7.44,7.44,0,0,0,.214-1.615,11.382,11.382,0,0,0-11.464-11.381Z" transform="translate(-447.073 -214.539)" fill="#638fff"/>
  <path id="Path_14638" data-name="Path 14638" d="M249.981,745.454H177.764a.1.1,0,1,1,0-.2h72.216a.1.1,0,1,1,0,.2Z" transform="translate(-177.662 -694.417)" fill="#3f3d56"/>
  <circle id="Ellipse_2194" data-name="Ellipse 2194" cx="2.572" cy="2.572" r="2.572" transform="translate(51.31 18.262)" fill="#2f2e41"/>
  <path id="Path_14639" data-name="Path 14639" d="M556.471,538.9H555.42l-.5-4.054h1.551Z" transform="translate(-507.342 -488.985)" fill="#a0616a"/>
  <path id="Path_14640" data-name="Path 14640" d="M538.385,578.626h2.027V579.9h-3.3A1.276,1.276,0,0,1,538.385,578.626Z" transform="translate(-491.058 -529.016)" fill="#2f2e41"/>
  <path id="Path_14641" data-name="Path 14641" d="M651.471,538.9H650.42l-.5-4.054h1.551Z" transform="translate(-594.197 -488.985)" fill="#a0616a"/>
  <path id="Path_14642" data-name="Path 14642" d="M633.385,578.626h2.027V579.9h-3.3A1.276,1.276,0,0,1,633.385,578.626Z" transform="translate(-577.913 -529.016)" fill="#2f2e41"/>
  <circle id="Ellipse_2195" data-name="Ellipse 2195" cx="2.106" cy="2.106" r="2.106" transform="translate(51.385 19.209)" fill="#a0616a"/>
  <path id="Path_14643" data-name="Path 14643" d="M735.9,440.694l.942-2.165a2.691,2.691,0,0,0-.6-3.052,2.745,2.745,0,0,0-.263-.229,2.652,2.652,0,0,0-1.628-.563,2.759,2.759,0,0,0-1.149.256l-.092.043c-.059.028-.117.059-.174.091a2.716,2.716,0,0,0-1.346,2.047l-.416,3.484c-.1.273-3.836,10.151-2.531,17.691a.383.383,0,0,0,.328.315l1.323.18a.386.386,0,0,0,.43-.3l2.22-10.581a.3.3,0,0,1,.583-.02l3.136,11.127a.383.383,0,0,0,.37.281.438.438,0,0,0,.075-.007l1.616-.311a.383.383,0,0,0,.311-.412C738.805,455.918,737.543,442.652,735.9,440.694Z" transform="translate(-681.159 -410.48)" fill="#2f2e41"/>
  <path id="Path_14644" data-name="Path 14644" d="M706.04,413.187a.862.862,0,0,0,.908.961l1.177,2.829.89-1.32-1.254-2.484a.867.867,0,0,0-1.722.014Z" transform="translate(-660.733 -390.12)" fill="#a0616a"/>
  <path id="Path_14645" data-name="Path 14645" d="M789.789,501a.862.862,0,0,0,.722-1.107l2.477-1.8-1.491-.558-2.123,1.8a.867.867,0,0,0,.415,1.671Z" transform="translate(-736.415 -467.939)" fill="#a0616a"/>
  <path id="Path_14646" data-name="Path 14646" d="M720.645,442.61a1.463,1.463,0,0,1-.283-.028,1.4,1.4,0,0,1-1.024-.824l-1.649-2.011a.386.386,0,0,1,.1-.573l1.173-.726a.386.386,0,0,1,.533.128l1.162,1.915,2.226-1.645a.833.833,0,0,1,.97,1.334l-2.222,2.027A1.393,1.393,0,0,1,720.645,442.61Z" transform="translate(-671.308 -413.867)" fill="#2f2e41"/>
  <path id="Path_14647" data-name="Path 14647" d="M808.015,452.339h-.009a.387.387,0,0,1-.284-.135l-1.043-1.217a.386.386,0,0,1,.079-.572l1.953-1.3-1.769-2.127a.833.833,0,0,1,1.276-1.044l2.151,2.1a1.417,1.417,0,0,1-.315,2.31l-1.758,1.865A.387.387,0,0,1,808.015,452.339Z" transform="translate(-752.663 -420.572)" fill="#2f2e41"/>
  <path id="Path_14648" data-name="Path 14648" d="M782.885,435.478a.4.4,0,0,1-.05,0,.383.383,0,0,1-.318-.263l-.784-2.4a.264.264,0,0,1,.137-.319l.026-.012.069-.032a2.792,2.792,0,0,1,1.166-.259,2.687,2.687,0,0,1,1.471.442.269.269,0,0,1,.077.368l-1.47,2.3A.382.382,0,0,1,782.885,435.478Z" transform="translate(-729.93 -408.195)" fill="#e6e6e6"/>
  <circle id="Ellipse_2196" data-name="Ellipse 2196" cx="0.842" cy="0.842" r="0.842" transform="translate(55.068 18.002)" fill="#2f2e41"/>
  <path id="Path_14649" data-name="Path 14649" d="M772.34,361.365h0a2.229,2.229,0,0,0-2.229,2.229v.943h1.16l.555-.943.166.943h3.52l-.943-.943a2.229,2.229,0,0,0-2.229-2.229Z" transform="translate(-719.316 -343.446)" fill="#2f2e41"/>
  <path id="Path_14650" data-name="Path 14650" d="M834.809,355.8a1.3,1.3,0,0,1,1.413-.891,1.8,1.8,0,0,1,1.213,1,9.892,9.892,0,0,1,.539,1.537,2.783,2.783,0,0,0,.84,1.37,1.25,1.25,0,0,0,1.508.081,1.725,1.725,0,0,1-3.213.616,3.733,3.733,0,0,1-.346-1.308,2.857,2.857,0,0,0-.417-1.281,1.06,1.06,0,0,0-1.184-.441Z" transform="translate(-778.467 -337.531)" fill="#2f2e41"/>
  <path id="Path_14651" data-name="Path 14651" d="M475.615,284.329h0a2.893,2.893,0,0,1-2.893-2.893c0-.524,0-.924,0-.981a11.275,11.275,0,0,1,1.317-5.136,11.3,11.3,0,0,0-2.174,6.508c0,.057,0,.457,0,.98a2.893,2.893,0,0,0,2.893,2.893h0a2.9,2.9,0,0,0,2.785-2.108A2.883,2.883,0,0,1,475.615,284.329Z" transform="translate(-446.641 -264.778)" fill="#3f3d56"/>
  <path id="Path_14652" data-name="Path 14652" d="M559.086,276.783a5.488,5.488,0,0,1,4.772,7.666,5.487,5.487,0,1,0-9.21-5.743A5.476,5.476,0,0,1,559.086,276.783Z" transform="translate(-522.326 -264.856)" fill="#3f3d56"/>
  <path id="Path_14653" data-name="Path 14653" d="M575.26,465.637h0a2.983,2.983,0,0,1-2.983-2.935c-.036-2.268-.055-5.062-.055-5.382a8.06,8.06,0,0,1,.332-2.3h0a8.165,8.165,0,0,1,.471-1.089A9.436,9.436,0,0,0,571.7,456.4h0a8.059,8.059,0,0,0-.332,2.3c0,.319.019,3.114.055,5.382a2.982,2.982,0,0,0,2.983,2.934h0a2.984,2.984,0,0,0,2.864-2.147A2.971,2.971,0,0,1,575.26,465.637Z" transform="translate(-537.609 -428.081)" fill="#3f3d56"/>
  <path id="Path_14654" data-name="Path 14654" d="M126.538,539.35h1.051l.5-4.054h-1.551Z" transform="translate(-115.689 -489.401)" fill="#ffb8b8"/>
  <path id="Path_14655" data-name="Path 14655" d="M0,0H3.3V1.276H1.276A1.276,1.276,0,0,1,0,0Z" transform="translate(13.927 50.926) rotate(179.997)" fill="#2f2e41"/>
  <path id="Path_14656" data-name="Path 14656" d="M82.538,539.35h1.051l.5-4.054H82.538Z" transform="translate(-75.461 -489.401)" fill="#ffb8b8"/>
  <path id="Path_14657" data-name="Path 14657" d="M0,0H3.3V1.276H1.276A1.276,1.276,0,0,1,0,0Z" transform="translate(10.155 50.926) rotate(179.997)" fill="#2f2e41"/>
  <path id="Path_14658" data-name="Path 14658" d="M255.92,570.414l-1.027-.054a.4.4,0,0,1-.379-.426l1.227-13.586,5.651,1.525.544-.149-1.7,12.028a.4.4,0,0,1-.374.338l-1.107.052a.4.4,0,0,1-.423-.411l.2-7.219a.134.134,0,0,0-.264-.031l-1.934,7.615a.4.4,0,0,1-.392.319Z" transform="translate(-247.925 -521.712)" fill="#2f2e41"/>
  <circle id="Ellipse_2197" data-name="Ellipse 2197" cx="2.106" cy="2.106" r="2.106" transform="translate(8.932 19.308)" fill="#ffb8b8"/>
  <path id="Path_14659" data-name="Path 14659" d="M265.473,438.71l.232,5,.084,1.818a.4.4,0,0,0,.264.358l5.43,1.967a.385.385,0,0,0,.137.024.4.4,0,0,0,.4-.411l-.223-8.983a3.166,3.166,0,0,0-2.636-3.059L269,435.4a3.108,3.108,0,0,0-2.5.809A3.192,3.192,0,0,0,265.473,438.71Z" transform="translate(-257.94 -411.109)" fill="#ccc"/>
  <path id="Path_14660" data-name="Path 14660" d="M341.31,528.164a.863.863,0,0,1-.46-1.305l-1.841-2.449,1.589-.1,1.505,2.34a.867.867,0,0,1-.792,1.512Z" transform="translate(-325.175 -492.422)" fill="#ffb8b8"/>
  <path id="Path_14661" data-name="Path 14661" d="M317.955,460.255a.4.4,0,0,1-.218-.216l-2.774-6.61a1.069,1.069,0,1,1,1.971-.827l2.774,6.61a.4.4,0,0,1-.214.525l-1.232.517a.4.4,0,0,1-.307,0Z" transform="translate(-303.115 -426.262)" fill="#ccc"/>
  <path id="Path_14662" data-name="Path 14662" d="M298,489.332l2.665-5.1a.418.418,0,0,1,.564-.177l3.868,2.02a.418.418,0,0,1,.177.564l-2.665,5.1a.418.418,0,0,1-.564.177l-3.868-2.02A.418.418,0,0,1,298,489.332Z" transform="translate(-287.642 -455.572)" fill="#3f3d56"/>
  <path id="Path_14663" data-name="Path 14663" d="M277.893,496.8a.863.863,0,0,0-1.33-.382l-2.553-1.694,0,1.592,2.425,1.364a.867.867,0,0,0,1.463-.88Z" transform="translate(-265.745 -465.375)" fill="#ffb8b8"/>
  <path id="Path_14664" data-name="Path 14664" d="M248.754,450.824l-2.087-1.653a1.472,1.472,0,0,1-.671-2.327l1.895-2.483a.866.866,0,0,1,1.469.882l-1.5,2.452,2.2,1.045a.4.4,0,0,1,.167.576l-.889,1.407a.4.4,0,0,1-.272.181h-.007A.4.4,0,0,1,248.754,450.824Z" transform="translate(-239.834 -419.036)" fill="#ccc"/>
  <path id="Path_14665" data-name="Path 14665" d="M276.8,371.908a.183.183,0,0,1,.159-.242.423.423,0,0,1,.3.147,1.186,1.186,0,0,0,.263.226.226.226,0,0,0,.3-.054.414.414,0,0,0-.016-.322,3.165,3.165,0,0,1-.14-.838,1.475,1.475,0,0,1,.211-.9,1.185,1.185,0,0,1,1.016-.432,6.825,6.825,0,0,1,1.141.2.383.383,0,0,0,.373-.063.481.481,0,0,0,.019-.429,2.98,2.98,0,0,0-.451-1.076,1.62,1.62,0,0,0-1.034-.582,2.481,2.481,0,0,0-1.154.131,3.1,3.1,0,0,0-1.516,1.056,2.507,2.507,0,0,0-.478,1.852,2.286,2.286,0,0,0,.848,1.445Z" transform="translate(-267.358 -349.084)" fill="#2f2e41"/>
  <path id="Path_14666" data-name="Path 14666" d="M566.056,669.789a3.943,3.943,0,0,1-1.464-6.129,3.944,3.944,0,1,0,5.365,5.7,3.941,3.941,0,0,1-3.9.431Z" transform="translate(-529.938 -619.823)" fill="#3f3d56"/>
</svg>
