<svg xmlns="http://www.w3.org/2000/svg" width="156" height="85.826" viewBox="0 0 156 85.826">
  <g id="undraw_Books_l33t" transform="translate(0 0)">
    <path id="Path_14667" data-name="Path 14667" d="M112.037,297.852a28.9,28.9,0,0,1-28.9,28.9v-57.79A28.9,28.9,0,0,1,112.037,297.852Z" transform="translate(-82.97 -253.306)" fill="#3f3d56"/>
    <path id="Path_14668" data-name="Path 14668" d="M924.964,297.852a28.9,28.9,0,0,0,28.9,28.9v-57.79A28.9,28.9,0,0,0,924.964,297.852Z" transform="translate(-797.859 -253.306)" fill="#3f3d56"/>
    <path id="Path_14669" data-name="Path 14669" d="M257.594,222.612a2.064,2.064,0,1,1,2.064-2.064A2.064,2.064,0,0,1,257.594,222.612Zm0-3.784a1.72,1.72,0,1,0,1.72,1.72A1.72,1.72,0,0,0,257.594,218.828Z" transform="translate(-229.4 -210.433)" fill="#3f3d56"/>
    <path id="Path_14670" data-name="Path 14670" d="M859.835,582.307h-3.4v-3.4h3.4Zm-3.134-.261h2.873v-2.873H856.7Z" transform="translate(-739.826 -516.587)" fill="#3f3d56"/>
    <path id="Path_14671" data-name="Path 14671" d="M328.671,553.921l-2.316-2.483,2.483-2.316,2.316,2.483Zm-1.947-2.47,1.96,2.1,2.1-1.96-1.96-2.1Z" transform="translate(-289.56 -491.284)" fill="#3f3d56"/>
    <path id="Path_14672" data-name="Path 14672" d="M82,165.014V250.84H238V165.014ZM237.657,250.5H82.344V165.358H237.656Z" transform="translate(-82 -165.014)" fill="none"/>
    <path id="Path_14673" data-name="Path 14673" d="M450.545,586.455q-5.579-.873-10.728-1.486l1.322-2.644c-.459-.153-2.447,1.376-2.447,1.376l1.682-7.647c-2.294.306-3.365,8.106-3.365,8.106l-2.6-2.6,1.28,2.944a237,237,0,0,0-27.188-1.369l1.131-2.263c-.459-.153-2.447,1.376-2.447,1.376l1.682-7.647c-2.294.306-3.365,8.106-3.365,8.106l-2.6-2.6,1.356,3.118a152.59,152.59,0,0,0-15.6,1.257c1.129-3.517,5.071-6.9,5.071-6.9a8.917,8.917,0,0,0-5.425,3.9,61.416,61.416,0,0,1,3.284-21.263s-6.118,13.765-5.2,22.941l.116,1.63a62.674,62.674,0,0,0-7.993,1.658Z" transform="translate(-333.862 -500.715)" fill="#3f3d56"/>
    <circle id="Ellipse_2198" data-name="Ellipse 2198" cx="23.907" cy="23.907" r="23.907" transform="translate(55.06 19.438)" fill="#ff6363" opacity="0.3"/>
    <path id="Path_14674" data-name="Path 14674" d="M369.428,85.873,353.51,105.187l23.559,27.8,15.706-18.465Z" transform="translate(-300.279 -72.943)" fill="#ff6363"/>
    <path id="Path_14675" data-name="Path 14675" d="M369.428,85.873,353.51,105.187l23.559,27.8,15.706-18.465Z" transform="translate(-300.279 -72.943)" opacity="0.1"/>
    <path id="Path_14676" data-name="Path 14676" d="M439.739,286.408h0a8,8,0,0,1,1.3-1.733l14.62-14.822s5.094-.849,6.155,1.7l-18.677,15.281Z" transform="translate(-385.871 -253.952)" fill="#f2f2f2"/>
    <path id="Path_14677" data-name="Path 14677" d="M434.8,283.265l21.649,33.11a4.96,4.96,0,0,0,4.245.637l22.179-14.963-23.559-35.657-21.224,16.555Z" transform="translate(-381.68 -251.127)" fill="#f57646"/>
    <rect id="Rectangle_8333" data-name="Rectangle 8333" width="16.728" height="0.344" transform="matrix(0.812, -0.584, 0.584, 0.812, 61.408, 30.193)" fill="#3f3d56"/>
    <rect id="Rectangle_8334" data-name="Rectangle 8334" width="0.344" height="32.317" transform="matrix(0.834, -0.552, 0.552, 0.834, 60.941, 34.037)" fill="#3f3d56"/>
    <rect id="Rectangle_8335" data-name="Rectangle 8335" width="17.914" height="0.344" transform="translate(80.934 61.61) rotate(-36.344)" fill="#3f3d56"/>
    <rect id="Rectangle_8336" data-name="Rectangle 8336" width="0.344" height="32.323" transform="translate(77.286 21.093) rotate(-34.838)" fill="#3f3d56"/>
    <rect id="Rectangle_8337" data-name="Rectangle 8337" width="22.796" height="0.212" transform="translate(55.07 31.105) rotate(-42.545)" fill="#3f3d56"/>
    <rect id="Rectangle_8338" data-name="Rectangle 8338" width="23.414" height="0.212" transform="translate(55.711 31.319) rotate(-41.439)" fill="#3f3d56"/>
    <rect id="Rectangle_8339" data-name="Rectangle 8339" width="23.721" height="0.212" transform="matrix(0.768, -0.64, 0.64, 0.768, 56.14, 31.32)" fill="#3f3d56"/>
    <path id="Path_14678" data-name="Path 14678" d="M1013.364,451.624a10.385,10.385,0,0,1-2.94-1.636l.53,1.464H1001.5v.344h9.457l-.53,1.464A10.381,10.381,0,0,1,1013.364,451.624Z" transform="translate(-862.868 -407.078)" fill="#fff"/>
    <path id="Path_14679" data-name="Path 14679" d="M132.7,451.451h-9.457l.53-1.464a10.4,10.4,0,0,1-2.94,1.636,10.386,10.386,0,0,1,2.94,1.636l-.53-1.464H132.7Z" transform="translate(-114.988 -407.076)" fill="#fff"/>
  </g>
</svg>
