<svg xmlns="http://www.w3.org/2000/svg" width="16.61" height="19.932" viewBox="0 0 16.61 19.932">
  <g id="Notifination" transform="translate(-2)">
    <g id="Group_25359" data-name="Group 25359" transform="translate(8.644 0)">
      <path id="Path_13409" data-name="Path 13409" d="M12.907,3.472a.415.415,0,0,1-.415-.415v-1.4a.831.831,0,0,0-1.661,0v1.4a.415.415,0,0,1-.831,0v-1.4a1.661,1.661,0,1,1,3.322,0v1.4A.415.415,0,0,1,12.907,3.472Z" transform="translate(-10 0)" fill="#757575"/>
    </g>
    <g id="Group_25360" data-name="Group 25360" transform="translate(7.398 16.61)">
      <path id="Path_13410" data-name="Path 13410" d="M11.407,23.322A2.91,2.91,0,0,1,8.5,20.415a.415.415,0,0,1,.831,0,2.076,2.076,0,0,0,4.153,0,.415.415,0,0,1,.831,0A2.91,2.91,0,0,1,11.407,23.322Z" transform="translate(-8.5 -20)" fill="#757575"/>
    </g>
    <g id="Group_25361" data-name="Group 25361" transform="translate(2 2.492)">
      <path id="Path_13411" data-name="Path 13411" d="M17.365,17.949H3.246a1.246,1.246,0,0,1-.81-2.193,5.774,5.774,0,0,0,2.056-4.42V8.814a5.814,5.814,0,1,1,11.627,0v2.523a5.768,5.768,0,0,0,2.049,4.414,1.246,1.246,0,0,1-.8,2.2ZM10.305,3.831A4.988,4.988,0,0,0,5.322,8.814v2.523a6.6,6.6,0,0,1-2.343,5.049.415.415,0,0,0,.267.733H17.365a.415.415,0,0,0,.27-.731,6.6,6.6,0,0,1-2.346-5.051V8.814a4.988,4.988,0,0,0-4.983-4.983Z" transform="translate(-2 -3)" fill="#757575"/>
    </g>
  </g>
</svg>
