<svg xmlns="http://www.w3.org/2000/svg" width="16" height="12.804" viewBox="0 0 16 12.804">
  <g id="noun_Book_100734" transform="translate(-5 -14.011)">
    <g id="Group_25641" data-name="Group 25641" transform="translate(5 14.011)">
      <path id="Path_13606" data-name="Path 13606" d="M12.644,15.846a.176.176,0,0,0-.076-.135A13.327,13.327,0,0,0,9.8,14.5a12.641,12.641,0,0,0-2.933-.487.087.087,0,0,0-.089.087v9.067a.1.1,0,0,0,.089.1,18.565,18.565,0,0,1,4,.993c.672.231,1.7.7,1.7.7a.053.053,0,0,0,.081-.052Zm.711,9.053a.053.053,0,0,0,.081.052s1.025-.466,1.7-.7a18.565,18.565,0,0,1,4-.993.1.1,0,0,0,.089-.1V14.1a.087.087,0,0,0-.089-.087A12.642,12.642,0,0,0,16.2,14.5a13.327,13.327,0,0,0-2.768,1.213.176.176,0,0,0-.076.135ZM6.067,23.165c0,.049,0,.129,0,.178v.473a.1.1,0,0,0,.089.1l.472.042.177.016a18.337,18.337,0,0,1,3.83.956c.557.191,1.547.631,1.547.631.045.02.048.059.008.086l-1.062.72-.072.052-.083-.033s-.465-.185-.743-.281a17.521,17.521,0,0,0-3.539-.893l-.177-.017-1.425-.126a.1.1,0,0,1-.088-.1V16.587a.3.3,0,0,1,.055-.159,5.986,5.986,0,0,1,.424-.464c.274-.274.519-.477.519-.477.038-.031.068-.017.068.032Zm8.056,3.6c.048-.008.054-.038.014-.065l-1.061-.662a.156.156,0,0,0-.151,0l-1.061.662c-.041.027-.034.057.014.065A7.708,7.708,0,0,0,13,26.814,7.722,7.722,0,0,0,14.123,26.762ZM19.933,15.52c0-.049.031-.063.069-.032,0,0,.245.2.519.477a5.986,5.986,0,0,1,.424.464.3.3,0,0,1,.055.159v8.384a.1.1,0,0,1-.089.1l-1.425.126-.177.017a17.533,17.533,0,0,0-3.539.893c-.278.1-.743.281-.743.281l-.083.033-.072-.052-1.062-.72c-.041-.027-.037-.066.008-.086,0,0,.99-.44,1.547-.631a18.337,18.337,0,0,1,3.83-.956l.177-.016.472-.042a.1.1,0,0,0,.089-.1v-.473c0-.049,0-.129,0-.178Z" transform="translate(-5 -14.011)" fill="#fff"/>
    </g>
  </g>
</svg>
