<svg xmlns="http://www.w3.org/2000/svg" width="163.103" height="114.942" viewBox="0 0 163.103 114.942">
  <g id="Group_29789" data-name="Group 29789" transform="translate(21 -299.036)">
    <g id="undraw_Questions_re_1fy7" transform="translate(-21 299.036)">
      <path id="Path_19274" data-name="Path 19274" d="M8.882,0A8.882,8.882,0,1,1,0,8.882,8.882,8.882,0,0,1,8.882,0Z" transform="translate(74.418 96.934)" fill="#ffbe00"/>
      <path id="Path_19275" data-name="Path 19275" d="M413.8,304.41c4.969-1.492,10.252-3.049,14.193-6.6,3.522-3.17,5.9-8.011,4.44-12.766s-5.817-7.909-10.319-9.482a42.337,42.337,0,0,0-7.9-1.777c-2.9-.423-5.819-.769-8.734-1.1q-17.7-2.025-35.538-2.474c-5.867-.148-11.733-.144-17.6-.059-5.24.076-10.76.074-15.621-2.153-3.78-1.732-7.212-4.883-8.265-9.024-1.216-4.78,1.027-9.648,4.244-13.11a34.361,34.361,0,0,1,5.723-4.773c2.218-1.532,4.514-2.956,6.859-4.284a95.515,95.515,0,0,1,14.437-6.656c2.461-.895,4.959-1.667,7.478-2.379a64,64,0,0,0,6.317-2.023c3.975-1.584,7.755-4.267,8.765-8.666a13.541,13.541,0,0,0-3.488-11.792c-3.276-3.583-8.214-5.154-12.949-5.408-5.316-.285-10.509,1.045-15.5,2.733-5.329,1.8-10.543,3.871-15.984,5.33a107.548,107.548,0,0,1-16.451,3.058,44.623,44.623,0,0,1-8.256.395,9.983,9.983,0,0,1-6.263-2.487,6.194,6.194,0,0,1-2.015-5.336c.054-.367.612-.211.559.154-.361,2.463,1.313,4.733,3.376,5.9,2.384,1.344,5.286,1.345,7.94,1.192a103.858,103.858,0,0,0,17.092-2.471,137.357,137.357,0,0,0,16.163-4.989c5.051-1.829,10.214-3.614,15.61-4.01a23.311,23.311,0,0,1,13.686,2.785,15.14,15.14,0,0,1,7.06,9.851,11.419,11.419,0,0,1-3.36,10.875c-3.152,2.905-7.473,4.147-11.5,5.292a105.359,105.359,0,0,0-14.944,5.349A93.824,93.824,0,0,0,339,241.4c-4.3,2.936-8.535,6.629-9.894,11.866a10.931,10.931,0,0,0,.543,7.331,13.4,13.4,0,0,0,4.3,5.1c4.31,3.171,9.742,3.823,14.948,3.887,5.847.073,11.694-.125,17.544-.029q17.88.294,35.688,2.177,4.462.472,8.913,1.044a80.576,80.576,0,0,1,7.971,1.293c4.666,1.083,9.206,3.165,12.105,7.121a11.261,11.261,0,0,1,.959,12.313c-2.227,4.381-6.4,7.168-10.828,9a76.812,76.812,0,0,1-7.29,2.461.29.29,0,0,1-.154-.559Z" transform="translate(-277.439 -190.21)" fill="#ffbe00" opacity="0.16"/>
      <circle id="Ellipse_2552" data-name="Ellipse 2552" cx="4.634" cy="4.634" r="4.634" transform="translate(19.675 8.786)" fill="#ffbe00" opacity="0.16"/>
      <circle id="Ellipse_2553" data-name="Ellipse 2553" cx="4.634" cy="4.634" r="4.634" transform="translate(51.825 17.572)" fill="#ffbe00" opacity="0.16"/>
      <circle id="Ellipse_2554" data-name="Ellipse 2554" cx="4.634" cy="4.634" r="4.634" transform="translate(79.052)" fill="#ffbe00" opacity="0.16"/>
      <circle id="Ellipse_2555" data-name="Ellipse 2555" cx="4.634" cy="4.634" r="4.634" transform="translate(96.044 19.696)" fill="#ffbe00" opacity="0.16"/>
      <circle id="Ellipse_2556" data-name="Ellipse 2556" cx="4.634" cy="4.634" r="4.634" transform="translate(73.066 42.481)" fill="#ffbe00" opacity="0.16"/>
      <circle id="Ellipse_2557" data-name="Ellipse 2557" cx="4.634" cy="4.634" r="4.634" transform="translate(43.909 53.487)" fill="#ffbe00" opacity="0.16"/>
      <circle id="Ellipse_2558" data-name="Ellipse 2558" cx="4.634" cy="4.634" r="4.634" transform="translate(74.804 70.673)" fill="#f2f2f2"/>
      <circle id="Ellipse_2559" data-name="Ellipse 2559" cx="4.634" cy="4.634" r="4.634" transform="translate(108.016 80.328)" fill="#f2f2f2"/>
      <circle id="Ellipse_2560" data-name="Ellipse 2560" cx="4.634" cy="4.634" r="4.634" transform="translate(146.828 78.204)" fill="#ffbe00" opacity="0.16"/>
      <path id="Path_19276" data-name="Path 19276" d="M497.786,220.37a25.7,25.7,0,0,0-25.446,25.26c0,.128,0,1.029,0,2.208a6.516,6.516,0,0,0,6.515,6.516h0a6.52,6.52,0,0,0,6.519-6.525c0-.8,0-1.358,0-1.392a12.358,12.358,0,1,1,19.024,10.4l0,0s-9.274,5.97-12.1,14.161h0a18.156,18.156,0,0,0-.748,5.169c0,.719.042,7.014.124,12.122a6.717,6.717,0,0,0,6.718,6.608h0a6.719,6.719,0,0,0,6.719-6.76c-.029-4.679-.044-10.126-.044-10.522,0-5.029,4.852-10.04,8.837-13.308a26.8,26.8,0,0,0,9.218-14.675A16.75,16.75,0,0,0,523.6,246a25.633,25.633,0,0,0-25.819-25.633Z" transform="translate(-415.437 -207.239)" fill="#ffbe00"/>
      <path id="Path_19277" data-name="Path 19277" d="M340.536,745.709H177.892a.23.23,0,1,1,0-.46H340.535a.23.23,0,1,1,0,.46Z" transform="translate(-177.662 -630.767)" fill="#3f3d56"/>
      <circle id="Ellipse_2561" data-name="Ellipse 2561" cx="5.793" cy="5.793" r="5.793" transform="translate(115.558 41.129)" fill="#2f2e41"/>
      <path id="Path_19278" data-name="Path 19278" d="M558.413,543.972h-2.367l-1.126-9.131h3.494Z" transform="translate(-447.768 -431.566)" fill="#ffb7b7"/>
      <path id="Path_19279" data-name="Path 19279" d="M539.984,578.626h4.565V581.5h-7.44A2.875,2.875,0,0,1,539.984,578.626Z" transform="translate(-433.396 -466.896)" fill="#2f2e41"/>
      <path id="Path_19280" data-name="Path 19280" d="M653.414,543.972h-2.367l-1.127-9.131h3.494Z" transform="translate(-524.423 -431.566)" fill="#ffb7b7"/>
      <path id="Path_19281" data-name="Path 19281" d="M634.984,578.626h4.566V581.5h-7.44A2.875,2.875,0,0,1,634.984,578.626Z" transform="translate(-510.052 -466.896)" fill="#2f2e41"/>
      <circle id="Ellipse_2562" data-name="Ellipse 2562" cx="4.743" cy="4.743" r="4.743" transform="translate(115.728 43.263)" fill="#ffb7b7"/>
      <path id="Path_19282" data-name="Path 19282" d="M745.332,448.219l2.122-4.876a6.06,6.06,0,0,0-1.342-6.874,6.165,6.165,0,0,0-.593-.516,5.974,5.974,0,0,0-3.667-1.269,6.213,6.213,0,0,0-2.587.576c-.07.031-.137.064-.207.1-.133.064-.265.133-.392.2a6.117,6.117,0,0,0-3.032,4.611l-.936,7.847c-.236.616-8.639,22.861-5.7,39.843a.862.862,0,0,0,.738.709l2.98.405a.868.868,0,0,0,.967-.682l5-23.83a.676.676,0,0,1,1.313-.044l7.063,25.06a.863.863,0,0,0,.832.633.983.983,0,0,0,.168-.016l3.64-.7a.863.863,0,0,0,.7-.929C751.865,482.505,749.022,452.627,745.332,448.219Z" transform="translate(-622.035 -380.171)" fill="#2f2e41"/>
      <path id="Path_19283" data-name="Path 19283" d="M706.047,414.154a1.942,1.942,0,0,0,2.046,2.163l2.651,6.371,2-2.973-2.825-5.594a1.952,1.952,0,0,0-3.877.033Z" transform="translate(-604.008 -362.202)" fill="#ffb7b7"/>
      <path id="Path_19284" data-name="Path 19284" d="M791.01,505.345a1.942,1.942,0,0,0,1.627-2.494l5.577-4.062-3.358-1.258-4.782,4.05a1.952,1.952,0,0,0,.935,3.763Z" transform="translate(-670.803 -430.883)" fill="#ffb7b7"/>
      <path id="Path_19285" data-name="Path 19285" d="M724.456,447.894a3.29,3.29,0,0,1-.637-.063,3.148,3.148,0,0,1-2.307-1.857l-3.714-4.529a.868.868,0,0,1,.215-1.29l2.642-1.636a.869.869,0,0,1,1.2.288l2.618,4.313,5.013-3.7a1.877,1.877,0,0,1,2.184,3l-5,4.564A3.139,3.139,0,0,1,724.456,447.894Z" transform="translate(-613.341 -383.161)" fill="#2f2e41"/>
      <path id="Path_19286" data-name="Path 19286" d="M809.8,460.623h-.021a.87.87,0,0,1-.639-.3l-2.349-2.741a.869.869,0,0,1,.178-1.289l4.4-2.933-3.985-4.791a1.877,1.877,0,0,1,2.875-2.352l4.844,4.733a3.191,3.191,0,0,1-.71,5.2l-3.959,4.2A.871.871,0,0,1,809.8,460.623Z" transform="translate(-685.143 -389.078)" fill="#2f2e41"/>
      <path id="Path_19287" data-name="Path 19287" d="M784.344,439.6a.9.9,0,0,1-.113-.007.861.861,0,0,1-.717-.593l-1.765-5.412a.6.6,0,0,1,.308-.719l.057-.027c.052-.025.1-.049.156-.072a6.293,6.293,0,0,1,2.627-.584,6.049,6.049,0,0,1,3.314,1,.6.6,0,0,1,.174.829l-3.312,5.188A.86.86,0,0,1,784.344,439.6Z" transform="translate(-665.08 -378.154)" fill="#ffbe00"/>
      <circle id="Ellipse_2563" data-name="Ellipse 2563" cx="1.896" cy="1.896" r="1.896" transform="translate(124.022 40.544)" fill="#2f2e41"/>
      <path id="Path_19288" data-name="Path 19288" d="M775.131,361.365h0a5.02,5.02,0,0,0-5.021,5.02v2.124h2.612l1.25-2.124.375,2.124h7.928l-2.124-2.124A5.02,5.02,0,0,0,775.131,361.365Z" transform="translate(-655.712 -321.009)" fill="#2f2e41"/>
      <path id="Path_19289" data-name="Path 19289" d="M834.809,356.929a2.925,2.925,0,0,1,3.182-2.007,4.054,4.054,0,0,1,2.732,2.258,22.233,22.233,0,0,1,1.214,3.462,6.272,6.272,0,0,0,1.891,3.086,2.814,2.814,0,0,0,3.4.183,3.885,3.885,0,0,1-7.237,1.387,8.4,8.4,0,0,1-.778-2.945,6.438,6.438,0,0,0-.939-2.885,2.386,2.386,0,0,0-2.665-.992Z" transform="translate(-707.917 -315.788)" fill="#2f2e41"/>
      <path id="Path_19290" data-name="Path 19290" d="M480.312,295.611h0A6.517,6.517,0,0,1,473.8,289.1c0-1.179,0-2.08,0-2.209a25.392,25.392,0,0,1,2.966-11.568,25.451,25.451,0,0,0-4.9,14.658c0,.128,0,1.029,0,2.208a6.517,6.517,0,0,0,6.516,6.516h0a6.521,6.521,0,0,0,6.273-4.748A6.492,6.492,0,0,1,480.312,295.611Z" transform="translate(-415.056 -251.578)" fill="#3f3d56"/>
      <path id="Path_19291" data-name="Path 19291" d="M564.644,278.509a12.359,12.359,0,0,1,10.748,17.265,12.358,12.358,0,1,0-20.743-12.935A12.333,12.333,0,0,1,564.644,278.509Z" transform="translate(-481.854 -251.647)" fill="#3f3d56"/>
      <path id="Path_19292" data-name="Path 19292" d="M580.137,480.288h0a6.717,6.717,0,0,1-6.718-6.61c-.082-5.107-.124-11.4-.124-12.12a18.153,18.153,0,0,1,.748-5.169h0a18.349,18.349,0,0,1,1.061-2.452,21.239,21.239,0,0,0-2.992,5.542h0a18.14,18.14,0,0,0-.748,5.169c0,.719.042,7.013.124,12.122a6.717,6.717,0,0,0,6.718,6.608h0a6.72,6.72,0,0,0,6.449-4.836A6.693,6.693,0,0,1,580.137,480.288Z" transform="translate(-495.343 -395.705)" fill="#3f3d56"/>
      <path id="Path_19293" data-name="Path 19293" d="M126.539,544.427h2.367l1.126-9.131h-3.494Z" transform="translate(-102.104 -431.933)" fill="#ffb7b7"/>
      <path id="Path_19294" data-name="Path 19294" d="M0,0H7.44V2.875H2.875A2.875,2.875,0,0,1,0,0Z" transform="translate(31.367 114.693) rotate(179.997)" fill="#2f2e41"/>
      <path id="Path_19295" data-name="Path 19295" d="M82.539,544.427h2.367l1.126-9.131H82.538Z" transform="translate(-66.6 -431.933)" fill="#ffb7b7"/>
      <path id="Path_19296" data-name="Path 19296" d="M0,0H7.44V2.875H2.875A2.875,2.875,0,0,1,0,0Z" transform="translate(22.871 114.693) rotate(179.997)" fill="#2f2e41"/>
      <path id="Path_19297" data-name="Path 19297" d="M257.681,588.028l-2.312-.121a.9.9,0,0,1-.853-.959l2.764-30.6,12.727,3.434,1.226-.335L267.4,586.536a.907.907,0,0,1-.842.762l-2.492.116a.9.9,0,0,1-.952-.926l.452-16.258a.3.3,0,0,0-.6-.07l-4.356,17.149a.9.9,0,0,1-.882.719Z" transform="translate(-239.674 -478.342)" fill="#2f2e41"/>
      <circle id="Ellipse_2564" data-name="Ellipse 2564" cx="4.743" cy="4.743" r="4.743" transform="translate(20.117 43.485)" fill="#ffb7b7"/>
      <path id="Path_19298" data-name="Path 19298" d="M265.477,442.888,266,454.139l.188,4.094a.9.9,0,0,0,.594.806l12.23,4.43a.863.863,0,0,0,.309.054.9.9,0,0,0,.9-.924l-.5-20.23a7.131,7.131,0,0,0-5.937-6.889c-.118-.018-.239-.036-.359-.052a7,7,0,0,0-5.632,1.823A7.19,7.19,0,0,0,265.477,442.888Z" transform="translate(-248.514 -380.727)" fill="#ffbe00"/>
      <path id="Path_19299" data-name="Path 19299" d="M344.192,532.987a1.943,1.943,0,0,1-1.037-2.94l-4.147-5.515,3.579-.221,3.39,5.271a1.952,1.952,0,0,1-1.785,3.405Z" transform="translate(-307.853 -452.491)" fill="#ffb7b7"/>
      <path id="Path_19300" data-name="Path 19300" d="M321.807,470.659a.9.9,0,0,1-.491-.486l-6.248-14.886a2.407,2.407,0,1,1,4.438-1.863l6.248,14.887a.9.9,0,0,1-.483,1.181l-2.774,1.164a.9.9,0,0,1-.691,0Z" transform="translate(-288.384 -394.1)" fill="#ffbe00"/>
      <path id="Path_19301" data-name="Path 19301" d="M298.062,496l6-11.491a.942.942,0,0,1,1.27-.4l8.711,4.549a.942.942,0,0,1,.4,1.27l-6,11.491a.942.942,0,0,1-1.27.4l-8.711-4.549a.942.942,0,0,1-.4-1.27Z" transform="translate(-274.727 -419.968)" fill="#3f3d56"/>
      <path id="Path_19302" data-name="Path 19302" d="M282.761,499.4a1.943,1.943,0,0,0-3-.861l-5.75-3.815-.01,3.586,5.462,3.072a1.952,1.952,0,0,0,3.294-1.982Z" transform="translate(-255.402 -428.621)" fill="#ffb7b7"/>
      <path id="Path_19303" data-name="Path 19303" d="M252.623,459.313l-4.7-3.722a3.314,3.314,0,0,1-1.511-5.24l4.267-5.592a1.949,1.949,0,0,1,3.308,1.986l-3.376,5.523,4.961,2.353a.9.9,0,0,1,.376,1.3l-2,3.17a.9.9,0,0,1-.611.408l-.015,0A.906.906,0,0,1,252.623,459.313Z" transform="translate(-232.533 -387.723)" fill="#ffbe00"/>
      <path id="Path_19304" data-name="Path 19304" d="M278.1,377.388a.412.412,0,0,1,.358-.544.952.952,0,0,1,.671.331,2.669,2.669,0,0,0,.593.509.51.51,0,0,0,.672-.121.934.934,0,0,0-.036-.725,7.13,7.13,0,0,1-.315-1.887,3.321,3.321,0,0,1,.475-2.017,2.67,2.67,0,0,1,2.287-.972,15.383,15.383,0,0,1,2.57.455.863.863,0,0,0,.84-.141,1.084,1.084,0,0,0,.044-.966,6.71,6.71,0,0,0-1.017-2.424,3.649,3.649,0,0,0-2.329-1.311,5.589,5.589,0,0,0-2.6.3,6.971,6.971,0,0,0-3.414,2.379,5.645,5.645,0,0,0-1.077,4.171,5.15,5.15,0,0,0,1.909,3.255Z" transform="translate(-256.826 -325.985)" fill="#2f2e41"/>
      <path id="Path_19305" data-name="Path 19305" d="M569.915,677.464a8.881,8.881,0,0,1-3.3-13.8A8.882,8.882,0,1,0,578.7,676.494,8.876,8.876,0,0,1,569.915,677.464Z" transform="translate(-488.572 -564.932)" fill="#3f3d56"/>
    </g>
  </g>
</svg>
