<svg id="undraw_Reading_re_29f8" xmlns="http://www.w3.org/2000/svg" width="173.25" height="130.017" viewBox="0 0 173.25 130.017">
  <path id="Path_19225" data-name="Path 19225" d="M828.15,573.258l-14.064-20.89s21.3,7.435,18.881,20.89Z" transform="translate(-670.311 -444.988)" fill="#fff"/>
  <path id="Path_19226" data-name="Path 19226" d="M319.2,515.439l-.534-.01a123.83,123.83,0,0,1,1.9-17.7c2.309-12.515,6.148-20.734,11.41-24.429l.307.437C319.981,482.372,319.2,515.109,319.2,515.439Z" transform="translate(-307.14 -387.03)" fill="#fff"/>
  <path id="Path_19227" data-name="Path 19227" d="M344.2,580.17l-.534-.011c.011-.591.345-14.526,5.831-18.377l.307.437C344.535,565.915,344.2,580.028,344.2,580.17Z" transform="translate(-325.466 -451.889)" fill="#fff"/>
  <circle id="Ellipse_2534" data-name="Ellipse 2534" cx="2.669" cy="2.669" r="2.669" transform="translate(25.502 81.42)" fill="#fff"/>
  <circle id="Ellipse_2535" data-name="Ellipse 2535" cx="2.669" cy="2.669" r="2.669" transform="translate(24.18 104.378)" fill="#fff"/>
  <path id="Path_19228" data-name="Path 19228" d="M331.271,465.921a11.857,11.857,0,0,1-.806,6.071,10.806,10.806,0,0,1-1.817-11.6A11.857,11.857,0,0,1,331.271,465.921Z" transform="translate(-313.786 -377.562)" fill="#fff"/>
  <path id="Path_19229" data-name="Path 19229" d="M356.887,499.752a11.858,11.858,0,0,1-6.118.264,10.806,10.806,0,0,1,11.11-3.811A11.858,11.858,0,0,1,356.887,499.752Z" transform="translate(-330.676 -403.61)" fill="#fff"/>
  <path id="Path_19230" data-name="Path 19230" d="M362.282,578.988a8.312,8.312,0,0,1-4.288.185,7.575,7.575,0,0,1,7.787-2.671A8.311,8.311,0,0,1,362.282,578.988Z" transform="translate(-335.972 -462.514)" fill="#fff"/>
  <path id="Path_19231" data-name="Path 19231" d="M448.483,631.156H275.767a.267.267,0,1,1,0-.534H448.483a.267.267,0,0,1,0,.534Z" transform="translate(-275.5 -502.352)" fill="#fff"/>
  <circle id="Ellipse_2536" data-name="Ellipse 2536" cx="8.342" cy="8.342" r="8.342" transform="translate(152.252 31.292)" fill="#fff"/>
  <circle id="Ellipse_2537" data-name="Ellipse 2537" cx="5.852" cy="5.852" r="5.852" transform="translate(139.304 37.766)" fill="#fff"/>
  <circle id="Ellipse_2538" data-name="Ellipse 2538" cx="4.692" cy="4.692" r="4.692" transform="translate(33.272 36.268)" fill="#fff"/>
  <circle id="Ellipse_2539" data-name="Ellipse 2539" cx="3.291" cy="3.291" r="3.291" transform="translate(42.397 42.224)" fill="#fff"/>
  <circle id="Ellipse_2540" data-name="Ellipse 2540" cx="3.587" cy="3.587" r="3.587" transform="translate(87.618 0)" fill="#fff"/>
  <g id="undraw_Personal_notebook_re_d7dc_1_" data-name="undraw_Personal_notebook_re_d7dc (1)" transform="translate(55.977 42.68)">
    <path id="Path_19232" data-name="Path 19232" d="M409.535,342a1.363,1.363,0,0,1-.672-.178l-38.828-21.952a1.37,1.37,0,0,1-.518-1.865L400.1,263.908a1.368,1.368,0,0,1,1.865-.518l38.828,21.952a1.37,1.37,0,0,1,.518,1.865L410.728,341.3a1.36,1.36,0,0,1-.825.645,1.38,1.38,0,0,1-.368.05Z" transform="translate(-335.938 -254.659)" fill="#e6e6e6"/>
    <rect id="Rectangle_9212" data-name="Rectangle 9212" width="0.317" height="47.14" transform="matrix(0.492, -0.871, 0.871, 0.492, 62.922, 11.644)" fill="#fff"/>
    <rect id="Rectangle_9213" data-name="Rectangle 9213" width="0.317" height="47.14" transform="matrix(0.492, -0.871, 0.871, 0.492, 60.114, 16.612)" fill="#fff"/>
    <rect id="Rectangle_9214" data-name="Rectangle 9214" width="0.317" height="47.14" transform="matrix(0.492, -0.871, 0.871, 0.492, 57.305, 21.58)" fill="#fff"/>
    <rect id="Rectangle_9215" data-name="Rectangle 9215" width="0.317" height="47.14" transform="matrix(0.492, -0.871, 0.871, 0.492, 54.497, 26.547)" fill="#fff"/>
    <rect id="Rectangle_9216" data-name="Rectangle 9216" width="0.317" height="47.14" transform="matrix(0.492, -0.871, 0.871, 0.492, 51.688, 31.515)" fill="#fff"/>
    <rect id="Rectangle_9217" data-name="Rectangle 9217" width="0.317" height="47.14" transform="matrix(0.492, -0.871, 0.871, 0.492, 48.88, 36.483)" fill="#fff"/>
    <rect id="Rectangle_9218" data-name="Rectangle 9218" width="0.317" height="47.14" transform="matrix(0.492, -0.871, 0.871, 0.492, 46.071, 41.45)" fill="#fff"/>
    <rect id="Rectangle_9219" data-name="Rectangle 9219" width="0.317" height="47.14" transform="matrix(0.492, -0.871, 0.871, 0.492, 43.263, 46.418)" fill="#fff"/>
    <rect id="Rectangle_9220" data-name="Rectangle 9220" width="0.317" height="47.14" transform="matrix(0.492, -0.871, 0.871, 0.492, 40.454, 51.386)" fill="#fff"/>
    <rect id="Rectangle_9221" data-name="Rectangle 9221" width="0.317" height="47.14" transform="matrix(0.492, -0.871, 0.871, 0.492, 37.645, 56.353)" fill="#fff"/>
    <rect id="Rectangle_9222" data-name="Rectangle 9222" width="0.317" height="47.14" transform="matrix(0.492, -0.871, 0.871, 0.492, 34.837, 61.321)" fill="#fff"/>
    <path id="Path_19233" data-name="Path 19233" d="M391.535,301a1.361,1.361,0,0,1-.672-.178l-38.828-21.952a1.37,1.37,0,0,1-.518-1.865L382.1,222.908a1.368,1.368,0,0,1,1.865-.518l38.828,21.952a1.37,1.37,0,0,1,.518,1.865L392.728,300.3a1.36,1.36,0,0,1-.825.645A1.375,1.375,0,0,1,391.535,301Z" transform="translate(-321.55 -221.887)" fill="#f2f2f2"/>
    <rect id="Rectangle_9223" data-name="Rectangle 9223" width="0.317" height="47.14" transform="matrix(0.492, -0.871, 0.871, 0.492, 59.31, 3.417)" fill="#fff"/>
    <rect id="Rectangle_9224" data-name="Rectangle 9224" width="0.317" height="47.14" transform="matrix(0.492, -0.871, 0.871, 0.492, 56.502, 8.384)" fill="#fff"/>
    <rect id="Rectangle_9225" data-name="Rectangle 9225" width="0.317" height="47.14" transform="matrix(0.492, -0.871, 0.871, 0.492, 53.693, 13.352)" fill="#fff"/>
    <rect id="Rectangle_9226" data-name="Rectangle 9226" width="0.317" height="47.14" transform="matrix(0.492, -0.871, 0.871, 0.492, 50.885, 18.32)" fill="#fff"/>
    <rect id="Rectangle_9227" data-name="Rectangle 9227" width="0.317" height="47.14" transform="matrix(0.492, -0.871, 0.871, 0.492, 48.076, 23.288)" fill="#fff"/>
    <rect id="Rectangle_9228" data-name="Rectangle 9228" width="0.317" height="47.14" transform="matrix(0.492, -0.871, 0.871, 0.492, 45.268, 28.255)" fill="#fff"/>
    <rect id="Rectangle_9229" data-name="Rectangle 9229" width="0.317" height="47.14" transform="matrix(0.492, -0.871, 0.871, 0.492, 42.459, 33.223)" fill="#fff"/>
    <rect id="Rectangle_9230" data-name="Rectangle 9230" width="0.317" height="47.14" transform="matrix(0.492, -0.871, 0.871, 0.492, 39.651, 38.191)" fill="#fff"/>
    <rect id="Rectangle_9231" data-name="Rectangle 9231" width="0.317" height="47.14" transform="matrix(0.492, -0.871, 0.871, 0.492, 36.842, 43.158)" fill="#fff"/>
    <rect id="Rectangle_9232" data-name="Rectangle 9232" width="0.317" height="47.14" transform="matrix(0.492, -0.871, 0.871, 0.492, 34.033, 48.126)" fill="#fff"/>
    <rect id="Rectangle_9233" data-name="Rectangle 9233" width="0.317" height="47.14" transform="matrix(0.492, -0.871, 0.871, 0.492, 31.225, 53.094)" fill="#fff"/>
    <path id="Path_19234" data-name="Path 19234" d="M285.18,220.586H223.126v86.287H285.18a.841.841,0,0,0,.841-.84V221.426a.841.841,0,0,0-.84-.84Zm-58.552,83.905a1.541,1.541,0,1,1,1.541-1.541A1.541,1.541,0,0,1,226.628,304.491Zm0-7.844a1.541,1.541,0,1,1,1.541-1.541,1.541,1.541,0,0,1-1.541,1.541Zm0-7.844a1.541,1.541,0,1,1,1.541-1.541,1.541,1.541,0,0,1-1.541,1.541Zm0-7.844a1.541,1.541,0,1,1,1.541-1.541,1.541,1.541,0,0,1-1.541,1.541Zm0-7.844a1.541,1.541,0,1,1,1.541-1.541,1.541,1.541,0,0,1-1.541,1.541Zm0-7.844a1.541,1.541,0,1,1,1.541-1.541,1.541,1.541,0,0,1-1.541,1.541Zm0-7.844a1.541,1.541,0,1,1,1.541-1.541,1.541,1.541,0,0,1-1.541,1.541Zm0-7.844a1.541,1.541,0,1,1,1.541-1.541,1.541,1.541,0,0,1-1.541,1.541Zm0-7.844a1.541,1.541,0,1,1,1.541-1.541,1.541,1.541,0,0,1-1.541,1.541Zm0-7.844a1.541,1.541,0,1,1,1.541-1.541A1.541,1.541,0,0,1,226.628,233.893Zm0-7.844a1.541,1.541,0,1,1,1.541-1.541A1.541,1.541,0,0,1,226.628,226.049Z" transform="translate(-219.064 -220.586)" fill="#239229"/>
    <path id="Path_19235" data-name="Path 19235" d="M206.945,238.74c-.416,0-4.062-.02-4.062-.7s3.646-.7,4.062-.7v.28a10.585,10.585,0,0,0-3.765.42,17.09,17.09,0,0,0,7.528,0,4.677,4.677,0,0,0-1.748-.341l.024-.279c2.023.175,2.023.5,2.023.619C211.007,238.721,207.36,238.74,206.945,238.74Z" transform="translate(-202.882 -233.978)" fill="#2f2e41"/>
    <path id="Path_19236" data-name="Path 19236" d="M206.945,277.132c-.416,0-4.062-.02-4.062-.7s3.646-.7,4.062-.7v.28a10.584,10.584,0,0,0-3.765.42,17.091,17.091,0,0,0,7.528,0,4.676,4.676,0,0,0-1.748-.341l.024-.279c2.023.175,2.023.5,2.023.619C211.007,277.113,207.36,277.132,206.945,277.132Z" transform="translate(-202.882 -264.666)" fill="#2f2e41"/>
    <path id="Path_19237" data-name="Path 19237" d="M206.945,316.223c-.416,0-4.062-.02-4.062-.7s3.646-.7,4.062-.7v.28a10.584,10.584,0,0,0-3.765.42,17.089,17.089,0,0,0,7.528,0,4.678,4.678,0,0,0-1.748-.341l.024-.279c2.023.175,2.023.5,2.023.619C211.007,316.2,207.36,316.223,206.945,316.223Z" transform="translate(-202.882 -295.912)" fill="#2f2e41"/>
    <path id="Path_19238" data-name="Path 19238" d="M206.945,355.314c-.416,0-4.062-.02-4.062-.7s3.646-.7,4.062-.7v.28a10.586,10.586,0,0,0-3.765.42,17.089,17.089,0,0,0,7.528,0,4.68,4.68,0,0,0-1.748-.341l.024-.279c2.023.175,2.023.5,2.023.619C211.007,355.295,207.36,355.314,206.945,355.314Z" transform="translate(-202.882 -327.159)" fill="#2f2e41"/>
    <path id="Path_19239" data-name="Path 19239" d="M206.945,394.405c-.416,0-4.062-.02-4.062-.7s3.646-.7,4.062-.7v.28a10.586,10.586,0,0,0-3.765.42,17.09,17.09,0,0,0,7.528,0,4.676,4.676,0,0,0-1.748-.341l.024-.279c2.023.175,2.023.5,2.023.619C211.007,394.386,207.36,394.405,206.945,394.405Z" transform="translate(-202.882 -358.406)" fill="#2f2e41"/>
    <path id="Path_19240" data-name="Path 19240" d="M206.945,433.5c-.416,0-4.062-.02-4.062-.7s3.646-.7,4.062-.7v.28a10.585,10.585,0,0,0-3.765.42,17.09,17.09,0,0,0,7.528,0,4.676,4.676,0,0,0-1.748-.341l.024-.279c2.023.175,2.023.5,2.023.619C211.007,433.477,207.36,433.5,206.945,433.5Z" transform="translate(-202.882 -389.652)" fill="#2f2e41"/>
    <path id="Path_19241" data-name="Path 19241" d="M206.945,472.587c-.416,0-4.062-.02-4.062-.7s3.646-.7,4.062-.7v.28a10.585,10.585,0,0,0-3.765.42,17.091,17.091,0,0,0,7.528,0,4.676,4.676,0,0,0-1.748-.341l.024-.279c2.023.175,2.023.5,2.023.619C211.007,472.567,207.36,472.587,206.945,472.587Z" transform="translate(-202.882 -420.899)" fill="#2f2e41"/>
    <path id="Path_19242" data-name="Path 19242" d="M206.945,511.678c-.416,0-4.062-.02-4.062-.7s3.646-.7,4.062-.7v.28a10.582,10.582,0,0,0-3.765.42,17.091,17.091,0,0,0,7.528,0,4.676,4.676,0,0,0-1.748-.341l.024-.279c2.023.175,2.023.5,2.023.619C211.007,511.659,207.36,511.678,206.945,511.678Z" transform="translate(-202.882 -452.146)" fill="#2f2e41"/>
    <path id="Path_19243" data-name="Path 19243" d="M206.945,550.769c-.416,0-4.062-.02-4.062-.7s3.646-.7,4.062-.7v.28a10.581,10.581,0,0,0-3.765.42,17.091,17.091,0,0,0,7.528,0,4.675,4.675,0,0,0-1.748-.341l.024-.279c2.023.175,2.023.5,2.023.619C211.007,550.75,207.36,550.769,206.945,550.769Z" transform="translate(-202.882 -483.393)" fill="#2f2e41"/>
    <path id="Path_19244" data-name="Path 19244" d="M206.945,589.86c-.416,0-4.062-.02-4.062-.7s3.646-.7,4.062-.7v.28a10.586,10.586,0,0,0-3.765.42,17.091,17.091,0,0,0,7.528,0,4.67,4.67,0,0,0-1.748-.342l.024-.279c2.023.175,2.023.5,2.023.619C211.007,589.841,207.36,589.86,206.945,589.86Z" transform="translate(-202.882 -514.64)" fill="#2f2e41"/>
    <path id="Path_19245" data-name="Path 19245" d="M206.945,628.951c-.416,0-4.062-.02-4.062-.7s3.646-.7,4.062-.7v.28a10.582,10.582,0,0,0-3.765.42,17.092,17.092,0,0,0,7.528,0,4.677,4.677,0,0,0-1.748-.341l.024-.279c2.023.175,2.023.5,2.023.619C211.007,628.932,207.36,628.951,206.945,628.951Z" transform="translate(-202.882 -545.886)" fill="#2f2e41"/>
    <path id="Path_19246" data-name="Path 19246" d="M342.808,329.737H311.991a.912.912,0,0,1-.911-.91V316.78a.912.912,0,0,1,.911-.911h30.817a.912.912,0,0,1,.91.911v12.047A.911.911,0,0,1,342.808,329.737Z" transform="translate(-289.369 -296.749)" fill="#fff"/>
    <path id="Path_19247" data-name="Path 19247" d="M377.912,330.882h-7.844a.7.7,0,0,1,0-1.4h7.844a.7.7,0,1,1,0,1.4Z" transform="translate(-335.96 -307.63)" fill="#005905"/>
    <path id="Path_19248" data-name="Path 19248" d="M364.957,348.334H348.428a.7.7,0,1,1,0-1.4h16.529a.7.7,0,1,1,0,1.4Z" transform="translate(-318.662 -321.58)" fill="#005905"/>
    <path id="Path_19249" data-name="Path 19249" d="M364.957,365.785H348.428a.7.7,0,1,1,0-1.4h16.529a.7.7,0,1,1,0,1.4Z" transform="translate(-318.662 -335.529)" fill="#005905"/>
  </g>
</svg>
