<svg id="undraw_Books_l33t" xmlns="http://www.w3.org/2000/svg" width="364" height="155.808" viewBox="0 0 364 155.808">
  <path id="Path_19306" data-name="Path 19306" d="M135.6,321.413A52.458,52.458,0,0,1,83.142,373.87V268.957A52.458,52.458,0,0,1,135.6,321.413Z" transform="translate(-82.83 -240.543)" fill="#3f3d56"/>
  <path id="Path_19307" data-name="Path 19307" d="M924.964,321.413A52.458,52.458,0,0,0,977.42,373.87V268.957A52.457,52.457,0,0,0,924.964,321.413Z" transform="translate(-613.42 -240.543)" fill="#3f3d56"/>
  <path id="Path_19308" data-name="Path 19308" d="M259.277,225.977a3.747,3.747,0,1,1,3.747-3.747A3.747,3.747,0,0,1,259.277,225.977Zm0-6.869a3.122,3.122,0,1,0,3.122,3.122A3.122,3.122,0,0,0,259.277,219.108Z" transform="translate(-186.512 -177.796)" fill="#3f3d56"/>
  <path id="Path_19309" data-name="Path 19309" d="M862.6,585.075H856.44v-6.164H862.6Zm-5.69-.474h5.216v-5.216h-5.216Z" transform="translate(-582.996 -465.768)" fill="#3f3d56"/>
  <path id="Path_19310" data-name="Path 19310" d="M330.559,557.834l-4.2-4.508,4.508-4.2,4.2,4.507Zm-3.534-4.484,3.557,3.814,3.814-3.557-3.558-3.814Z" transform="translate(-239.896 -444.122)" fill="#3f3d56"/>
  <path id="Path_19311" data-name="Path 19311" d="M82,165.014V320.822H446V165.014ZM445.2,320.2H82.8V165.639H445.2Z" transform="translate(-82 -165.014)" fill="none"/>
  <path id="Path_19312" data-name="Path 19312" d="M509.283,607.842q-10.128-1.585-19.475-2.7l2.4-4.8c-.833-.278-4.442,2.5-4.442,2.5l3.054-13.883c-4.165.555-6.108,14.715-6.108,14.715l-4.72-4.72,2.323,5.344a430.3,430.3,0,0,0-49.357-2.485l2.054-4.108c-.833-.278-4.442,2.5-4.442,2.5l3.054-13.882c-4.165.555-6.108,14.715-6.108,14.715l-4.72-4.72,2.461,5.66a277.116,277.116,0,0,0-28.326,2.281c2.05-6.385,9.207-12.522,9.207-12.522-5.5,1.712-8.366,4.5-9.848,7.087a111.494,111.494,0,0,1,5.961-38.6s-11.106,24.988-9.44,41.647l.211,2.959a113.811,113.811,0,0,0-14.51,3.01Z" transform="translate(-254.491 -452.19)" fill="#3f3d56"/>
  <circle id="Ellipse_2565" data-name="Ellipse 2565" cx="43.401" cy="43.401" r="43.401" transform="translate(141.077 35.288)" fill="#aed5dc" opacity="0.3"/>
  <path id="Path_19313" data-name="Path 19313" d="M28.9,0,0,35.062,42.769,85.537,71.281,52.016Z" transform="matrix(0.995, 0.105, -0.105, 0.995, 138.146, 19.983)" fill="#5a9fad"/>
  <path id="Path_19314" data-name="Path 19314" d="M28.9,0,0,35.062,42.769,85.537,71.281,52.016Z" transform="matrix(0.995, 0.105, -0.105, 0.995, 138.146, 19.983)" opacity="0.1"/>
  <path id="Path_19315" data-name="Path 19315" d="M439.739,300.018h0a14.523,14.523,0,0,1,2.356-3.146l26.542-26.908s9.247-1.541,11.174,3.083L445.9,300.789Z" transform="translate(-309.449 -241.096)" fill="#f2f2f2"/>
  <path id="Path_19316" data-name="Path 19316" d="M0,30.631,39.3,90.739s3.853,2.7,7.706,1.156L87.271,64.731,44.5,0,5.972,30.054Z" transform="matrix(0.998, -0.07, 0.07, 0.998, 128.246, 28.443)" fill="#4cc4db"/>
  <rect id="Rectangle_9243" data-name="Rectangle 9243" width="30.368" height="0.624" transform="matrix(0.766, -0.643, 0.643, 0.766, 140.179, 54.951)" fill="#3f3d56"/>
  <rect id="Rectangle_9244" data-name="Rectangle 9244" width="0.624" height="58.669" transform="matrix(0.799, -0.602, 0.602, 0.799, 140.811, 61.444)" fill="#3f3d56"/>
  <rect id="Rectangle_9245" data-name="Rectangle 9245" width="32.521" height="0.625" transform="translate(190.725 108.492) rotate(-40)" fill="#3f3d56"/>
  <rect id="Rectangle_9246" data-name="Rectangle 9246" width="0.624" height="58.68" transform="translate(178.349 35.529) rotate(-39)" fill="#3f3d56"/>
  <rect id="Rectangle_9247" data-name="Rectangle 9247" width="41.383" height="0.385" transform="translate(131.971 56.468) rotate(-42.545)" fill="#3f3d56"/>
  <rect id="Rectangle_9248" data-name="Rectangle 9248" width="42.505" height="0.385" transform="translate(133.684 56.857) rotate(-41.439)" fill="#3f3d56"/>
  <rect id="Rectangle_9249" data-name="Rectangle 9249" width="43.063" height="0.386" transform="matrix(0.768, -0.64, 0.64, 0.768, 134.871, 56.86)" fill="#3f3d56"/>
  <path id="Path_19317" data-name="Path 19317" d="M1023.041,452.958a18.856,18.856,0,0,1-5.338-2.969l.961,2.657H1001.5v.624h17.168l-.961,2.658A18.844,18.844,0,0,1,1023.041,452.958Z" transform="translate(-669.032 -372.088)" fill="#fff"/>
  <path id="Path_19318" data-name="Path 19318" d="M142.38,452.644H125.212l.961-2.658a18.872,18.872,0,0,1-5.338,2.97,18.855,18.855,0,0,1,5.338,2.969l-.961-2.657H142.38Z" transform="translate(-110.219 -372.086)" fill="#fff"/>
</svg>
