<svg xmlns="http://www.w3.org/2000/svg" xmlns:xlink="http://www.w3.org/1999/xlink" width="364" height="260" viewBox="0 0 364 260">
  <defs>
    <clipPath id="clip-path">
      <rect id="Rectangle_9443" data-name="Rectangle 9443" width="364" height="260" rx="8" transform="translate(24 627)" fill="#e8ecff"/>
    </clipPath>
  </defs>
  <g id="Mask_Group_489" data-name="Mask Group 489" transform="translate(-24 -627)" clip-path="url(#clip-path)">
    <g id="Group_29395" data-name="Group 29395" transform="translate(-43.344 624.265)">
      <path id="Path_19218" data-name="Path 19218" d="M408.643,567.945c-5.067-19.273-8.762-40.269-1.683-58.826,9.279-24.326,35.039-37.948,59.991-41.062s50.362,7.162,75.417,9.15,51.606-4.861,72.262-19.814c28.646-20.683,38.048-60.991,63.93-85.346,21.529-20.281,54.059-26.93,81.4-16.726" transform="translate(-304.654 -295.589)" fill="rgba(255,255,255,0)" stroke="#a7e3aa" stroke-width="1"/>
      <path id="Path_19219" data-name="Path 19219" d="M305.545,561.755c-6.468-24.144-11.178-50.452-2.143-73.711,11.846-30.473,44.7-47.547,76.528-51.453s63.874,2.549,95.839,5.04,66.2.337,92.548-18.353c36.534-25.914,48.53-76.414,81.5-106.936,27.49-25.442,68.988-33.84,103.877-21" transform="translate(-298.39 -289.4)" fill="rgba(255,255,255,0)" stroke="#a7e3aa" stroke-width="1"/>
      <path id="Path_19220" data-name="Path 19220" d="M331.329,562.074c-6.12-22.812-10.577-47.68-2.031-69.656C340.5,463.59,371.605,447.486,401.69,443.8s60.424,2.412,90.659,4.8,62.623.317,87.547-17.3c34.569-24.494,45.908-72.213,77.092-101.049,26-24.023,65.265-31.979,98.265-19.843" transform="translate(-299.956 -289.718)" fill="rgba(255,255,255,0)" stroke="#a7e3aa" stroke-width="1"/>
      <path id="Path_19221" data-name="Path 19221" d="M357.1,562.389c-5.763-21.49-9.975-44.9-1.88-65.6,10.567-27.124,39.872-42.318,68.264-45.792s56.973,2.275,85.488,4.482,59.051.3,82.545-16.317c32.6-23.035,43.247-68.012,72.693-95.174,24.519-22.651,61.533-30.119,92.652-18.687" transform="translate(-301.522 -290.034)" fill="rgba(255,255,255,0)" stroke="#a7e3aa" stroke-width="1"/>
      <path id="Path_19222" data-name="Path 19222" d="M382.991,572.528c-5.517-21-9.578-44-1.83-64.207,10.115-26.549,38.818-38.043,65.992-41.443s53.956,2.045,81.245,4.215,56.43-2.91,78.92-19.2c31.2-22.569,41.427-66.567,69.578-93.145,23.467-22.169,58.9-29.479,88.678-18.289" transform="translate(-310.268 -300.173)" fill="rgba(255,255,255,0)" stroke="#a7e3aa" stroke-width="1"/>
    </g>
  </g>
</svg>
