<svg xmlns="http://www.w3.org/2000/svg" width="97.594" height="114.559" viewBox="0 0 97.594 114.559">
  <g id="Group_29654" data-name="Group 29654" transform="translate(-269.353 -440.864)">
    <path id="Path_19257" data-name="Path 19257" d="M616.513,188.772a.587.587,0,0,0-.586.586V213.6a.587.587,0,0,0,.586.587h56.106a.587.587,0,0,0,.586-.587V189.359a.587.587,0,0,0-.586-.586Z" transform="translate(-323.159 260.325)" fill="#fff"/>
    <path id="Path_40" data-name="Path 40" d="M635.316,371.064a.643.643,0,1,0,0,1.285h17.353a.643.643,0,1,0,.021-1.285H635.316Z" transform="translate(-338.368 112.437)" fill="#fff"/>
    <circle id="Ellipse_2541" data-name="Ellipse 2541" cx="1.368" cy="1.368" r="1.368" transform="translate(300.84 498.948)" fill="#8599f6"/>
    <path id="Path_40-2" data-name="Path 40" d="M692.789,456.411a.709.709,0,1,0,0,1.417h33.405a.709.709,0,1,0,.023-1.417H692.789Z" transform="translate(-384.94 43.197)" fill="#032ae9" opacity="0.43"/>
    <circle id="Ellipse_2542" data-name="Ellipse 2542" cx="1.368" cy="1.368" r="1.368" transform="translate(300.84 505.595)" fill="#8599f6"/>
    <path id="Path_40-3" data-name="Path 40" d="M692.789,491.63a.709.709,0,1,0,0,1.417h33.405a.709.709,0,1,0,.023-1.417H692.789Z" transform="translate(-384.94 14.625)" fill="#032ae9" opacity="0.43"/>
    <circle id="Ellipse_2543" data-name="Ellipse 2543" cx="1.368" cy="1.368" r="1.368" transform="translate(300.84 512.241)" fill="#8599f6"/>
    <path id="Path_40-4" data-name="Path 40" d="M692.789,526.849a.709.709,0,1,0,0,1.417h33.405a.709.709,0,1,0,.023-1.417H692.789Z" transform="translate(-384.94 -13.947)" fill="#032ae9" opacity="0.43"/>
    <circle id="Ellipse_2544" data-name="Ellipse 2544" cx="1.368" cy="1.368" r="1.368" transform="translate(300.84 518.888)" fill="#8599f6"/>
    <path id="Path_40-5" data-name="Path 40" d="M692.789,562.068a.709.709,0,1,0,0,1.417h33.405a.709.709,0,1,0,.023-1.417H692.789Z" transform="translate(-384.94 -42.52)" fill="#032ae9" opacity="0.43"/>
    <circle id="Ellipse_2545" data-name="Ellipse 2545" cx="1.368" cy="1.368" r="1.368" transform="translate(300.84 525.535)" fill="#8599f6"/>
    <path id="Path_40-6" data-name="Path 40" d="M692.789,597.286a.709.709,0,1,0,0,1.417h33.405a.709.709,0,1,0,.023-1.417H692.789Z" transform="translate(-384.94 -71.092)" fill="#032ae9" opacity="0.43"/>
    <circle id="Ellipse_2546" data-name="Ellipse 2546" cx="1.368" cy="1.368" r="1.368" transform="translate(300.84 532.181)" fill="#8599f6"/>
    <path id="Path_40-7" data-name="Path 40" d="M692.789,632.505a.709.709,0,1,0,0,1.417h33.405a.709.709,0,1,0,.023-1.417H692.789Z" transform="translate(-384.94 -99.664)" fill="#032ae9" opacity="0.43"/>
    <circle id="Ellipse_2547" data-name="Ellipse 2547" cx="1.368" cy="1.368" r="1.368" transform="translate(300.84 538.829)" fill="#8599f6"/>
    <path id="Path_40-8" data-name="Path 40" d="M692.789,667.725a.709.709,0,1,0,0,1.417h33.405a.709.709,0,1,0,.023-1.417H692.789Z" transform="translate(-384.94 -128.237)" fill="#032ae9" opacity="0.43"/>
    <path id="Path_19258" data-name="Path 19258" d="M955.651,525.2c-.029.721-.759,15.612-10.762,23.748q-.628.51-1.3.983l-.34-.332h.2a.88.88,0,0,0,.88-.88V519.37c.209-1.126.407-2.233.586-3.31.976-5.855,1.427-10.8.7-12.856.317.794,6.674,17.027,3.221,33.568C952.245,532.09,955.49,527.176,955.651,525.2Z" transform="translate(-588.704 5.235)" fill="#8599f6"/>
    <path id="Path_19259" data-name="Path 19259" d="M651.426,145.142H584.763a1.468,1.468,0,0,0-1.466,1.466V258.234a1.467,1.467,0,0,0,1.466,1.466h66.663a1.463,1.463,0,0,0,1.446-1.237,1.255,1.255,0,0,0,.02-.229V146.608A1.468,1.468,0,0,0,651.426,145.142Zm.88,113.092a.88.88,0,0,1-.88.88H584.763a.88.88,0,0,1-.88-.88V146.608a.881.881,0,0,1,.88-.88h66.663a.881.881,0,0,1,.88.88Z" transform="translate(-296.687 295.722)" fill="#032ae9"/>
    <path id="Path_19260" data-name="Path 19260" d="M492.425,289.272a.567.567,0,0,0-.566.566v23.4a.567.567,0,0,0,.566.566h54.164a.567.567,0,0,0,.566-.566v-23.4a.567.567,0,0,0-.566-.566Z" transform="translate(-222.506 178.793)" fill="#032ae9"/>
    <circle id="Ellipse_2548" data-name="Ellipse 2548" cx="5.496" cy="5.496" r="5.496" transform="translate(279.048 474.835)" fill="#fff"/>
    <path id="Path_40-9" data-name="Path 40" d="M635.316,350.4a.643.643,0,1,0,0,1.285h17.353a.643.643,0,1,0,.021-1.285H635.316Z" transform="translate(-338.368 129.204)" fill="#fff"/>
    <path id="Path_40-10" data-name="Path 40" d="M635.316,330.67a.643.643,0,1,0,0,1.285h8.665A.643.643,0,0,0,644,330.67h-8.686Z" transform="translate(-338.368 145.208)" fill="#fff"/>
  </g>
</svg>
