<svg id="SvgjsSvg1001" width="288" height="288" xmlns="http://www.w3.org/2000/svg" version="1.1" xmlns:xlink="http://www.w3.org/1999/xlink" xmlns:svgjs="http://svgjs.com/svgjs"><defs id="SvgjsDefs1002"></defs><g id="SvgjsG1008" transform="matrix(1,0,0,1,0,0)"><svg xmlns="http://www.w3.org/2000/svg" width="288" height="288" data-name="Group 27279" viewBox="0 0 22.509 28.137"><path fill="#001955" d="M17.752,957.362A3.791,3.791,0,0,0,14,961.113v21.259a3.14,3.14,0,0,0,3.126,3.126H35.571a.975.975,0,0,0,.938-.938V963.927a.906.906,0,0,0-.938-.938,1.876,1.876,0,1,1,0-3.752.938.938,0,0,0,0-1.876Zm0,1.876H32.338a3.657,3.657,0,0,0,0,3.752H17.752a1.876,1.876,0,0,1,0-3.752Zm-1.876,5.11a3.693,3.693,0,0,0,1.876.518H34.634v18.758H17.126a1.228,1.228,0,0,1-1.251-1.25Z" data-name="Path 14625" transform="translate(-14 -957.362)" class="colorfff svgShape"></path></svg></g></svg>