<svg xmlns="http://www.w3.org/2000/svg" width="368.607" height="202.795" viewBox="0 0 368.607 202.795">
  <g id="undraw_Books_l33t" transform="translate(0 0)">
    <path id="Path_14667" data-name="Path 14667" d="M151.418,337.232a68.277,68.277,0,0,1-68.276,68.276V268.957A68.277,68.277,0,0,1,151.418,337.232Z" transform="translate(-82.736 -231.975)" fill="#3f3d56"/>
    <path id="Path_14668" data-name="Path 14668" d="M924.964,337.232a68.277,68.277,0,0,0,68.276,68.276V268.957A68.277,68.277,0,0,0,924.964,337.232Z" transform="translate(-624.633 -231.975)" fill="#3f3d56"/>
    <path id="Path_14669" data-name="Path 14669" d="M260.407,228.237a4.877,4.877,0,1,1,4.877-4.877A4.877,4.877,0,0,1,260.407,228.237Zm0-8.941a4.064,4.064,0,1,0,4.064,4.064A4.064,4.064,0,0,0,260.407,219.3Z" transform="translate(-193.789 -199.46)" fill="#3f3d56"/>
    <path id="Path_14670" data-name="Path 14670" d="M864.463,586.934H856.44v-8.023h8.023Zm-7.406-.617h6.789v-6.789h-6.789Z" transform="translate(-580.896 -431.648)" fill="#3f3d56"/>
    <path id="Path_14671" data-name="Path 14671" d="M331.827,560.462l-5.472-5.867,5.867-5.472,5.472,5.867Zm-4.6-5.837,4.63,4.964,4.964-4.63-4.63-4.964Z" transform="translate(-239.414 -412.458)" fill="#3f3d56"/>
    <path id="Path_14672" data-name="Path 14672" d="M82,165.014V367.809H450.607V165.014ZM449.8,367H82.813V165.827H449.794Z" transform="translate(-82 -165.014)" fill="none"/>
    <path id="Path_14673" data-name="Path 14673" d="M548.72,622.2q-13.182-2.063-25.348-3.51l3.123-6.247c-1.084-.361-5.782,3.253-5.782,3.253l3.975-18.069c-5.421.723-7.95,19.153-7.95,19.153l-6.144-6.143,3.024,6.956a560.035,560.035,0,0,0-64.241-3.235l2.673-5.347c-1.084-.361-5.782,3.252-5.782,3.252l3.975-18.069c-5.421.723-7.95,19.153-7.95,19.153L436.15,607.2l3.2,7.367a360.588,360.588,0,0,0-36.869,2.969c2.668-8.31,11.983-16.3,11.983-16.3-7.163,2.228-10.889,5.859-12.818,9.224a145.117,145.117,0,0,1,7.759-50.24s-14.455,32.524-12.287,54.207l.275,3.852A148.117,148.117,0,0,0,378.51,622.2Z" transform="translate(-273.012 -419.61)" fill="#3f3d56"/>
    <circle id="Ellipse_2198" data-name="Ellipse 2198" cx="56.49" cy="56.49" r="56.49" transform="translate(130.099 45.929)" fill="#ff6363" opacity="0.3"/>
    <path id="Path_14674" data-name="Path 14674" d="M391.123,85.873,353.51,131.509l55.666,65.7,37.111-43.63Z" transform="translate(-227.732 -55.32)" fill="#ff6363"/>
    <path id="Path_14675" data-name="Path 14675" d="M391.123,85.873,353.51,131.509l55.666,65.7,37.111-43.63Z" transform="translate(-227.732 -55.32)" opacity="0.1"/>
    <path id="Path_14676" data-name="Path 14676" d="M439.739,309.156h0a18.9,18.9,0,0,1,3.067-4.095l34.546-35.022s12.036-2.006,14.543,4.012l-44.132,36.108Z" transform="translate(-312.456 -232.465)" fill="#f2f2f2"/>
    <path id="Path_14677" data-name="Path 14677" d="M434.8,306.261l51.153,78.234s5.015,3.511,10.03,1.5l52.407-35.356-55.666-84.252-50.15,39.117Z" transform="translate(-309.278 -230.322)" fill="#f57646"/>
    <rect id="Rectangle_8333" data-name="Rectangle 8333" width="39.526" height="0.813" transform="matrix(0.812, -0.584, 0.584, 0.812, 145.099, 71.343)" fill="#3f3d56"/>
    <rect id="Rectangle_8334" data-name="Rectangle 8334" width="0.813" height="76.361" transform="matrix(0.834, -0.552, 0.552, 0.834, 143.996, 80.425)" fill="#3f3d56"/>
    <rect id="Rectangle_8335" data-name="Rectangle 8335" width="42.328" height="0.813" transform="translate(191.237 145.576) rotate(-36.344)" fill="#3f3d56"/>
    <rect id="Rectangle_8336" data-name="Rectangle 8336" width="0.813" height="76.376" transform="translate(182.616 49.841) rotate(-34.838)" fill="#3f3d56"/>
    <rect id="Rectangle_8337" data-name="Rectangle 8337" width="53.863" height="0.501" transform="translate(130.123 73.497) rotate(-42.545)" fill="#3f3d56"/>
    <rect id="Rectangle_8338" data-name="Rectangle 8338" width="55.324" height="0.502" transform="translate(131.638 74.003) rotate(-41.439)" fill="#3f3d56"/>
    <rect id="Rectangle_8339" data-name="Rectangle 8339" width="56.05" height="0.502" transform="matrix(0.768, -0.64, 0.64, 0.768, 132.651, 74.006)" fill="#3f3d56"/>
    <path id="Path_14678" data-name="Path 14678" d="M1029.538,453.854a24.542,24.542,0,0,1-6.947-3.865l1.251,3.458H1001.5v.813h22.346l-1.251,3.459A24.532,24.532,0,0,1,1029.538,453.854Z" transform="translate(-673.935 -348.596)" fill="#fff"/>
    <path id="Path_14679" data-name="Path 14679" d="M148.877,453.446H126.532l1.251-3.459a24.562,24.562,0,0,1-6.947,3.866,24.543,24.543,0,0,1,6.947,3.865l-1.251-3.458h22.346Z" transform="translate(-107.018 -348.594)" fill="#fff"/>
  </g>
</svg>
