<svg id="undraw_Questions_re_1fy7" xmlns="http://www.w3.org/2000/svg" width="233.993" height="164.9" viewBox="0 0 233.993 164.9">
  <circle id="Ellipse_2184" data-name="Ellipse 2184" cx="12.743" cy="12.743" r="12.743" transform="translate(106.762 139.065)" fill="#638fff"/>
  <path id="Path_14636" data-name="Path 14636" d="M462.694,350.109c7.129-2.141,14.708-4.374,20.362-9.463,5.052-4.548,8.463-11.493,6.37-18.314s-8.345-11.346-14.8-13.6a60.736,60.736,0,0,0-11.328-2.549c-4.165-.607-8.348-1.1-12.53-1.582q-25.4-2.9-50.984-3.549c-8.417-.212-16.833-.207-25.251-.085-7.518.109-15.436.106-22.411-3.089-5.424-2.485-10.346-7.006-11.857-12.946-1.745-6.858,1.473-13.841,6.089-18.807a49.3,49.3,0,0,1,8.21-6.847c3.182-2.2,6.475-4.24,9.84-6.147a137.027,137.027,0,0,1,20.712-9.548c3.531-1.284,7.114-2.392,10.728-3.413a91.791,91.791,0,0,0,9.063-2.9c5.7-2.273,11.125-6.122,12.575-12.433,1.374-5.981-.943-12.474-5-16.918-4.7-5.141-11.784-7.394-18.577-7.759-7.626-.409-15.076,1.5-22.244,3.921-7.645,2.583-15.125,5.554-22.931,7.647a154.294,154.294,0,0,1-23.6,4.387,64.019,64.019,0,0,1-11.844.566,14.322,14.322,0,0,1-8.985-3.568,8.886,8.886,0,0,1-2.891-7.655c.077-.527.878-.3.8.221-.518,3.533,1.884,6.789,4.844,8.457,3.421,1.928,7.583,1.93,11.392,1.71a149,149,0,0,0,24.52-3.545,197.059,197.059,0,0,0,23.188-7.158c7.246-2.624,14.653-5.185,22.394-5.753,6.717-.493,13.782.485,19.634,4A21.72,21.72,0,0,1,418.3,217.513a16.382,16.382,0,0,1-4.82,15.6c-4.521,4.168-10.721,5.95-16.5,7.591a151.156,151.156,0,0,0-21.439,7.674,134.588,134.588,0,0,0-20.167,11.338c-6.163,4.211-12.245,9.51-14.194,17.023a15.682,15.682,0,0,0,.779,10.517,19.219,19.219,0,0,0,6.167,7.319c6.183,4.55,13.976,5.484,21.445,5.577,8.389.1,16.777-.179,25.169-.041q25.652.421,51.2,3.123,6.4.678,12.787,1.5a115.623,115.623,0,0,1,11.435,1.855c6.693,1.554,13.207,4.541,17.367,10.216a16.155,16.155,0,0,1,1.376,17.665c-3.195,6.286-9.179,10.284-15.534,12.91a110.2,110.2,0,0,1-10.458,3.531.416.416,0,0,1-.221-.8Z" transform="translate(-267.062 -186.274)" fill="#f2f2f2"/>
  <circle id="Ellipse_2185" data-name="Ellipse 2185" cx="6.649" cy="6.649" r="6.649" transform="translate(28.226 12.604)" fill="#f2f2f2"/>
  <circle id="Ellipse_2186" data-name="Ellipse 2186" cx="6.649" cy="6.649" r="6.649" transform="translate(74.35 25.209)" fill="#f2f2f2"/>
  <circle id="Ellipse_2187" data-name="Ellipse 2187" cx="6.649" cy="6.649" r="6.649" transform="translate(113.41)" fill="#f2f2f2"/>
  <circle id="Ellipse_2188" data-name="Ellipse 2188" cx="6.649" cy="6.649" r="6.649" transform="translate(137.788 28.256)" fill="#f2f2f2"/>
  <circle id="Ellipse_2189" data-name="Ellipse 2189" cx="6.649" cy="6.649" r="6.649" transform="translate(104.823 60.945)" fill="#f2f2f2"/>
  <circle id="Ellipse_2190" data-name="Ellipse 2190" cx="6.649" cy="6.649" r="6.649" transform="translate(62.993 76.735)" fill="#f2f2f2"/>
  <circle id="Ellipse_2191" data-name="Ellipse 2191" cx="6.649" cy="6.649" r="6.649" transform="translate(107.316 101.39)" fill="#f2f2f2"/>
  <circle id="Ellipse_2192" data-name="Ellipse 2192" cx="6.649" cy="6.649" r="6.649" transform="translate(154.964 115.241)" fill="#f2f2f2"/>
  <circle id="Ellipse_2193" data-name="Ellipse 2193" cx="6.649" cy="6.649" r="6.649" transform="translate(210.645 112.193)" fill="#f2f2f2"/>
  <path id="Path_14637" data-name="Path 14637" d="M508.846,220.37a36.876,36.876,0,0,0-36.5,36.239c0,.184,0,1.477,0,3.168a9.349,9.349,0,0,0,9.347,9.348h0a9.354,9.354,0,0,0,9.353-9.361c0-1.152,0-1.948,0-2a17.729,17.729,0,1,1,27.292,14.926l0,0s-13.3,8.565-17.361,20.315h0a26.042,26.042,0,0,0-1.073,7.415c0,1.032.061,10.062.178,17.391a9.637,9.637,0,0,0,9.638,9.48h0a9.639,9.639,0,0,0,9.639-9.7c-.041-6.712-.063-14.527-.063-15.095,0-7.215,6.96-14.4,12.678-19.092a38.452,38.452,0,0,0,13.224-21.053,24.043,24.043,0,0,0,.692-5.217,36.775,36.775,0,0,0-37.04-36.773Z" transform="translate(-390.706 -201.532)" fill="#638fff"/>
  <path id="Path_14638" data-name="Path 14638" d="M411.326,745.909H177.992a.33.33,0,1,1,0-.66H411.325a.33.33,0,1,1,0,.66Z" transform="translate(-177.662 -581.009)" fill="#3f3d56"/>
  <circle id="Ellipse_2194" data-name="Ellipse 2194" cx="8.311" cy="8.311" r="8.311" transform="translate(165.783 59.004)" fill="#2f2e41"/>
  <path id="Path_14639" data-name="Path 14639" d="M559.932,547.941h-3.4l-1.616-13.1h5.013Z" transform="translate(-401.196 -386.679)" fill="#a0616a"/>
  <path id="Path_14640" data-name="Path 14640" d="M541.233,578.626h6.55v4.124H537.109A4.124,4.124,0,0,1,541.233,578.626Z" transform="translate(-388.319 -418.334)" fill="#2f2e41"/>
  <path id="Path_14641" data-name="Path 14641" d="M654.932,547.941h-3.4l-1.616-13.1h5.013Z" transform="translate(-469.878 -386.679)" fill="#a0616a"/>
  <path id="Path_14642" data-name="Path 14642" d="M636.233,578.626h6.55v4.124H632.109A4.124,4.124,0,0,1,636.233,578.626Z" transform="translate(-457.002 -418.334)" fill="#2f2e41"/>
  <circle id="Ellipse_2195" data-name="Ellipse 2195" cx="6.804" cy="6.804" r="6.804" transform="translate(166.027 62.066)" fill="#a0616a"/>
  <path id="Path_14643" data-name="Path 14643" d="M752.7,454.1l3.044-6.995a8.694,8.694,0,0,0-1.925-9.862,8.837,8.837,0,0,0-.851-.74,8.57,8.57,0,0,0-5.26-1.82,8.915,8.915,0,0,0-3.712.826c-.1.044-.2.091-.3.138-.191.091-.379.191-.562.294a8.776,8.776,0,0,0-4.349,6.615l-1.344,11.258c-.338.884-12.394,32.8-8.178,57.16a1.238,1.238,0,0,0,1.058,1.017l4.275.582a1.246,1.246,0,0,0,1.388-.978l7.172-34.187a.97.97,0,0,1,1.884-.064L755.179,513.3a1.239,1.239,0,0,0,1.194.909,1.418,1.418,0,0,0,.241-.022l5.222-1.006a1.239,1.239,0,0,0,1.006-1.332C762.074,503.289,758,460.426,752.7,454.1Z" transform="translate(-575.817 -356.478)" fill="#2f2e41"/>
  <path id="Path_14644" data-name="Path 14644" d="M706.053,414.91a2.786,2.786,0,0,0,2.935,3.1l3.8,9.14,2.877-4.265-4.053-8.025a2.8,2.8,0,0,0-5.562.047Z" transform="translate(-559.664 -340.377)" fill="#a0616a"/>
  <path id="Path_14645" data-name="Path 14645" d="M791.965,508.741a2.786,2.786,0,0,0,2.334-3.577l8-5.828-4.818-1.8-6.86,5.811a2.8,2.8,0,0,0,1.341,5.4Z" transform="translate(-619.512 -401.915)" fill="#a0616a"/>
  <path id="Path_14646" data-name="Path 14646" d="M727.436,452.025a4.725,4.725,0,0,1-.914-.09,4.517,4.517,0,0,1-3.31-2.664l-5.328-6.5a1.247,1.247,0,0,1,.308-1.851l3.791-2.347a1.247,1.247,0,0,1,1.722.413l3.755,6.187,7.192-5.315a2.693,2.693,0,0,1,3.133,4.311l-7.178,6.548A4.5,4.5,0,0,1,727.436,452.025Z" transform="translate(-568.027 -359.156)" fill="#2f2e41"/>
  <path id="Path_14647" data-name="Path 14647" d="M811.2,467.1h-.029a1.249,1.249,0,0,1-.917-.435l-3.37-3.932a1.247,1.247,0,0,1,.255-1.849l6.311-4.207-5.717-6.874a2.693,2.693,0,0,1,4.124-3.375l6.949,6.791a4.578,4.578,0,0,1-1.018,7.463l-5.679,6.026A1.249,1.249,0,0,1,811.2,467.1Z" transform="translate(-632.361 -364.458)" fill="#2f2e41"/>
  <path id="Path_14648" data-name="Path 14648" d="M785.484,442.823a1.289,1.289,0,0,1-.161-.01,1.236,1.236,0,0,1-1.028-.85l-2.533-7.765a.854.854,0,0,1,.442-1.032l.082-.039c.074-.035.148-.07.224-.1a9.024,9.024,0,0,1,3.768-.837,8.679,8.679,0,0,1,4.754,1.429.867.867,0,0,1,.25,1.19l-4.751,7.443A1.235,1.235,0,0,1,785.484,442.823Z" transform="translate(-614.384 -354.671)" fill="#e6e6e6"/>
  <circle id="Ellipse_2196" data-name="Ellipse 2196" cx="2.719" cy="2.719" r="2.719" transform="translate(177.926 58.166)" fill="#2f2e41"/>
  <path id="Path_14649" data-name="Path 14649" d="M777.313,361.365h0a7.2,7.2,0,0,0-7.2,7.2v3.047h3.748l1.792-3.047.538,3.047h11.374l-3.047-3.047a7.2,7.2,0,0,0-7.2-7.2Z" transform="translate(-605.99 -303.469)" fill="#2f2e41"/>
  <path id="Path_14650" data-name="Path 14650" d="M834.809,357.814a4.2,4.2,0,0,1,4.566-2.88,5.816,5.816,0,0,1,3.92,3.239,31.91,31.91,0,0,1,1.742,4.966,8.994,8.994,0,0,0,2.713,4.428,4.037,4.037,0,0,0,4.873.262,5.573,5.573,0,0,1-10.382,1.989,12.054,12.054,0,0,1-1.116-4.225,9.232,9.232,0,0,0-1.347-4.139,3.423,3.423,0,0,0-3.824-1.424Z" transform="translate(-652.766 -298.791)" fill="#2f2e41"/>
  <path id="Path_14651" data-name="Path 14651" d="M483.983,304.431h0a9.349,9.349,0,0,1-9.348-9.347c0-1.692,0-2.985,0-3.169a36.429,36.429,0,0,1,4.255-16.6,36.512,36.512,0,0,0-7.025,21.028c0,.184,0,1.477,0,3.167a9.349,9.349,0,0,0,9.347,9.348h0a9.356,9.356,0,0,0,9-6.812A9.314,9.314,0,0,1,483.983,304.431Z" transform="translate(-390.365 -241.259)" fill="#3f3d56"/>
  <path id="Path_14652" data-name="Path 14652" d="M568.989,279.857a17.73,17.73,0,0,1,15.419,24.769,17.729,17.729,0,1,0-29.759-18.556A17.694,17.694,0,0,1,568.989,279.857Z" transform="translate(-450.215 -241.321)" fill="#3f3d56"/>
  <path id="Path_14653" data-name="Path 14653" d="M583.95,491.742h0a9.637,9.637,0,0,1-9.638-9.482c-.117-7.327-.178-16.357-.178-17.389a26.043,26.043,0,0,1,1.073-7.415h0a26.324,26.324,0,0,1,1.522-3.518,30.483,30.483,0,0,0-4.292,7.951h0a26.043,26.043,0,0,0-1.073,7.415c0,1.032.061,10.062.178,17.391a9.637,9.637,0,0,0,9.637,9.48h0a9.641,9.641,0,0,0,9.253-6.937A9.6,9.6,0,0,1,583.95,491.742Z" transform="translate(-462.301 -370.396)" fill="#3f3d56"/>
  <path id="Path_14654" data-name="Path 14654" d="M126.539,548.4h3.4l1.616-13.1h-5.013Z" transform="translate(-91.484 -387.008)" fill="#ffb8b8"/>
  <path id="Path_14655" data-name="Path 14655" d="M0,0H10.674V4.124H4.124A4.124,4.124,0,0,1,0,0Z" transform="translate(45 164.542) rotate(179.997)" fill="#2f2e41"/>
  <path id="Path_14656" data-name="Path 14656" d="M82.539,548.4h3.4l1.616-13.1H82.538Z" transform="translate(-59.673 -387.008)" fill="#ffb8b8"/>
  <path id="Path_14657" data-name="Path 14657" d="M0,0H10.674V4.124H4.124A4.124,4.124,0,0,1,0,0Z" transform="translate(32.811 164.542) rotate(179.997)" fill="#2f2e41"/>
  <path id="Path_14658" data-name="Path 14658" d="M259.058,601.8l-3.317-.174a1.295,1.295,0,0,1-1.224-1.376l3.965-43.9,18.259,4.927,1.759-.48L273,599.657a1.3,1.3,0,0,1-1.207,1.093l-3.576.167a1.295,1.295,0,0,1-1.366-1.328l.648-23.324a.432.432,0,0,0-.854-.1l-6.249,24.6a1.287,1.287,0,0,1-1.266,1.032Z" transform="translate(-233.224 -444.438)" fill="#2f2e41"/>
  <circle id="Ellipse_2197" data-name="Ellipse 2197" cx="6.804" cy="6.804" r="6.804" transform="translate(28.86 62.385)" fill="#ffb8b8"/>
  <path id="Path_14659" data-name="Path 14659" d="M265.481,446.153l.748,16.141.27,5.872a1.286,1.286,0,0,0,.852,1.157L284.9,475.68a1.239,1.239,0,0,0,.443.078,1.286,1.286,0,0,0,1.292-1.326l-.719-29.023a10.231,10.231,0,0,0-8.517-9.883c-.17-.026-.342-.052-.515-.075a10.042,10.042,0,0,0-8.079,2.615A10.315,10.315,0,0,0,265.481,446.153Z" transform="translate(-241.145 -356.975)" fill="#ccc"/>
  <path id="Path_14660" data-name="Path 14660" d="M346.445,536.759a2.788,2.788,0,0,1-1.487-4.218l-5.95-7.912,5.134-.318,4.863,7.562a2.8,2.8,0,0,1-2.56,4.886Z" transform="translate(-294.312 -421.276)" fill="#ffb8b8"/>
  <path id="Path_14661" data-name="Path 14661" d="M324.817,478.791a1.287,1.287,0,0,1-.7-.7l-8.964-21.357a3.453,3.453,0,1,1,6.367-2.672l8.964,21.357a1.3,1.3,0,0,1-.693,1.695l-3.979,1.67a1.286,1.286,0,0,1-.991,0Z" transform="translate(-276.867 -368.958)" fill="#ccc"/>
  <path id="Path_14662" data-name="Path 14662" d="M298.108,501.216l8.61-16.485a1.351,1.351,0,0,1,1.821-.572l12.5,6.527a1.351,1.351,0,0,1,.572,1.821L313,508.992a1.351,1.351,0,0,1-1.821.572l-12.5-6.527a1.351,1.351,0,0,1-.571-1.821Z" transform="translate(-264.632 -392.136)" fill="#3f3d56"/>
  <path id="Path_14663" data-name="Path 14663" d="M286.567,501.436a2.788,2.788,0,0,0-4.3-1.236l-8.249-5.472L274,499.873l7.836,4.408a2.8,2.8,0,0,0,4.726-2.844Z" transform="translate(-247.316 -399.888)" fill="#ffb8b8"/>
  <path id="Path_14664" data-name="Path 14664" d="M255.647,465.949l-6.742-5.34a4.755,4.755,0,0,1-2.167-7.517l6.121-8.022a2.8,2.8,0,0,1,4.745,2.849l-4.843,7.923,7.118,3.376a1.295,1.295,0,0,1,.54,1.861l-2.873,4.547a1.3,1.3,0,0,1-.877.585l-.021,0A1.3,1.3,0,0,1,255.647,465.949Z" transform="translate(-226.826 -363.244)" fill="#ccc"/>
  <path id="Path_14665" data-name="Path 14665" d="M279.115,381.672a.591.591,0,0,1,.514-.781,1.366,1.366,0,0,1,.963.475,3.833,3.833,0,0,0,.851.731.732.732,0,0,0,.963-.174,1.34,1.34,0,0,0-.051-1.04,10.224,10.224,0,0,1-.452-2.706,4.765,4.765,0,0,1,.681-2.894,3.829,3.829,0,0,1,3.281-1.4,22.054,22.054,0,0,1,3.686.653,1.238,1.238,0,0,0,1.205-.2,1.554,1.554,0,0,0,.063-1.386,9.628,9.628,0,0,0-1.459-3.477,5.235,5.235,0,0,0-3.341-1.881,8.017,8.017,0,0,0-3.729.423,10,10,0,0,0-4.9,3.413,8.1,8.1,0,0,0-1.545,5.984,7.387,7.387,0,0,0,2.739,4.669Z" transform="translate(-248.592 -307.927)" fill="#2f2e41"/>
  <path id="Path_14666" data-name="Path 14666" d="M572.932,683.464a12.741,12.741,0,0,1-4.729-19.8,12.742,12.742,0,1,0,17.333,18.412,12.735,12.735,0,0,1-12.6,1.392Z" transform="translate(-456.235 -522.022)" fill="#3f3d56"/>
</svg>
