<svg xmlns="http://www.w3.org/2000/svg" width="33.661" height="27.94" viewBox="0 0 33.661 27.94">
  <path id="writing" d="M26.128,23.285a.483.483,0,0,0-.667.149,6.509,6.509,0,0,1-5.521,3.039H7.5A6.541,6.541,0,0,1,.967,19.939V8.354a.483.483,0,0,0-.967,0V19.939a7.509,7.509,0,0,0,7.5,7.5H19.939a7.471,7.471,0,0,0,6.338-3.488A.484.484,0,0,0,26.128,23.285Zm-4.25-12.846-3.686,3.686a.483.483,0,1,0,.684.684l3.686-3.686a.483.483,0,0,0-.684-.684ZM32.3,2.386,30.616.7a2.394,2.394,0,0,0-3.383,0L25.484,2.45A7.455,7.455,0,0,0,19.939,0H7.5A7.5,7.5,0,0,0,.167,5.918a.483.483,0,0,0,.371.574.507.507,0,0,0,.1.011.483.483,0,0,0,.472-.382A6.537,6.537,0,0,1,7.5.967H19.939A6.494,6.494,0,0,1,24.8,3.134L19.659,8.275H6.179a.483.483,0,1,0,0,.967H18.692l-2.318,2.318H6.179a.484.484,0,1,0,0,.967h9.229l-3,3A10.868,10.868,0,0,0,10.3,18.5L8.92,21.361a2.043,2.043,0,0,0,1.828,2.926,2.055,2.055,0,0,0,.892-.206l1.387-.667h0l1.471-.708a10.876,10.876,0,0,0,2.978-2.113l9-9v8.344a6.562,6.562,0,0,1-.189,1.565.483.483,0,1,0,.939.231,7.524,7.524,0,0,0,.217-1.8v-9.31l1.344-1.344h0L32.3,5.768A2.4,2.4,0,0,0,32.3,2.386ZM11.22,23.21a1.071,1.071,0,0,1-1.429-1.429l.408-.848A11.97,11.97,0,0,1,12.068,22.8Zm2.858-1.376-1.119.538a12.946,12.946,0,0,0-2.331-2.331l.538-1.119a9.9,9.9,0,0,1,1.391-2.135l3.656,3.656A9.908,9.908,0,0,1,14.079,21.834Zm2.841-2.052-3.7-3.7L24.058,5.243l3.7,3.7ZM28.442,8.259l-3.7-3.7,1.193-1.193,3.7,3.7Zm3.175-3.175-1.3,1.3-3.7-3.7,1.3-1.3a1.427,1.427,0,0,1,2.015,0l1.685,1.685A1.427,1.427,0,0,1,31.617,5.084ZM6.179,5.957H21.261a.483.483,0,0,0,0-.967H6.179a.483.483,0,1,0,0,.967Zm0,0" transform="translate(0.25 0.25)" fill="#fff" stroke="#fff" stroke-width="0.5"/>
</svg>
